<svg width="24" height="24" viewBox="0 0 24 24" fill="none" xmlns="http://www.w3.org/2000/svg">
<path d="M18 22H10L10 2H20L18 22Z" fill="#DEDEDE" class='mian'/>
<path fill-rule="evenodd" clip-rule="evenodd" d="M9.25002 2C9.25002 1.58579 9.58581 1.25 10 1.25H20C20.2119 1.25 20.4139 1.33963 20.5561 1.49675C20.6983 1.65386 20.7674 1.86378 20.7463 2.07463L18.7463 22.0746C18.7079 22.458 18.3853 22.75 18 22.75H10C9.80109 22.75 9.61032 22.671 9.46967 22.5303C9.32902 22.3897 9.25 22.1989 9.25 22L9.25002 2ZM10.75 2.75L10.75 21.25H17.3213L19.1713 2.75H10.75Z" fill="#333333" class='xian'/>
<path d="M9.99998 22H2L2.00002 2H10L9.99998 22Z" fill="black" class='mian'/>
<path fill-rule="evenodd" clip-rule="evenodd" d="M1.25002 2C1.25002 1.58579 1.5858 1.25 2.00002 1.25H9.99999C10.1989 1.25 10.3897 1.32902 10.5303 1.46967C10.671 1.61032 10.75 1.80109 10.75 2L10.75 22C10.75 22.4142 10.4142 22.75 9.99997 22.75H2C1.80109 22.75 1.61032 22.671 1.46967 22.5303C1.32902 22.3897 1.25 22.1989 1.25 22L1.25002 2ZM2.75002 2.75L2.75 21.25H9.24997L9.24999 2.75H2.75002Z" fill="#333333" class='xian'/>
<path d="M22 22H18C19 10.5 20 2 20 2H22V22Z" fill="#7F9FD9" class='mian'/>
<path fill-rule="evenodd" clip-rule="evenodd" d="M19.2551 1.91237C19.2996 1.53466 19.6197 1.25 20 1.25H22C22.4142 1.25 22.75 1.58579 22.75 2V22C22.75 22.4142 22.4142 22.75 22 22.75H18C17.7898 22.75 17.5892 22.6618 17.4472 22.5068C17.3051 22.3519 17.2346 22.1444 17.2528 21.935C17.7533 16.1796 18.2538 11.175 18.6291 7.60899C18.8168 5.82593 18.9732 4.40239 19.0828 3.42433C19.1376 2.9353 19.1806 2.55762 19.21 2.30205L19.2436 2.01161L19.2551 1.91237C19.2551 1.91229 19.2551 1.91237 20 2L19.2551 1.91237ZM20.6685 2.75C20.6427 2.97598 20.6108 3.25756 20.5735 3.59129C20.4643 4.56636 20.3082 5.98657 20.1209 7.76601C19.7641 11.1557 19.294 15.8482 18.8185 21.25H21.25V2.75H20.6685Z" fill="#333333" class='xian'/>
<path fill-rule="evenodd" clip-rule="evenodd" d="M22 15.25H2V13.75H22V15.25Z" fill="#333333" class='xian'/>
<path d="M22 22H2L2.00004 19H22L22 22Z" fill="black" class='mian'/>
<path fill-rule="evenodd" clip-rule="evenodd" d="M1.25004 19C1.25005 18.5858 1.58584 18.25 2.00004 18.25H22C22.1989 18.25 22.3897 18.329 22.5303 18.4697C22.671 18.6103 22.75 18.8011 22.75 19L22.7499 22C22.7499 22.4142 22.4141 22.75 21.9999 22.75H2C1.80109 22.75 1.61032 22.671 1.46967 22.5303C1.32901 22.3897 1.25 22.1989 1.25 22L1.25004 19ZM2.75003 19.75L2.75001 21.25H21.2499L21.25 19.75H2.75003Z" fill="#333333" class='xian'/>
</svg>
