<svg width="24" height="24" viewBox="0 0 24 24" fill="none" xmlns="http://www.w3.org/2000/svg">
<path d="M6 13H10V17H6V13Z" fill="#666666" class='mian'/>
<path d="M2 22H18V13H2V22Z" fill="white"/>
<path fill-rule="evenodd" clip-rule="evenodd" d="M1.25 13C1.25 12.5858 1.58579 12.25 2 12.25H18C18.4142 12.25 18.75 12.5858 18.75 13V22C18.75 22.4142 18.4142 22.75 18 22.75H2C1.58579 22.75 1.25 22.4142 1.25 22V13ZM2.75 13.75V21.25H17.25V13.75H2.75Z" fill="#333333" class='xian'/>
<path d="M18 13H16C16 17.3714 15.5 20.8214 15 22H18V13Z" fill="#50B4F0" class='mian'/>
<path fill-rule="evenodd" clip-rule="evenodd" d="M18.75 13C18.75 12.5858 18.4142 12.25 18 12.25H16C15.5858 12.25 15.25 12.5858 15.25 13C15.25 15.1586 15.1265 17.0839 14.9429 18.6076C14.7562 20.1575 14.515 21.2229 14.3096 21.7071C14.2113 21.9387 14.2357 22.2042 14.3746 22.414C14.5135 22.6238 14.7484 22.75 15 22.75H18C18.4142 22.75 18.75 22.4142 18.75 22V13ZM17.25 13.75V21.25H16.0147C16.175 20.5836 16.3168 19.7442 16.4321 18.787C16.6016 17.3799 16.7202 15.6617 16.7451 13.75H17.25Z" fill="#333333" class='xian'/>
<path d="M2 13H4C4 17.3714 4.5 20.8214 5 22H2V13Z" fill="#50B4F0" class='mian'/>
<path fill-rule="evenodd" clip-rule="evenodd" d="M1.25 13C1.25 12.5858 1.58579 12.25 2 12.25H4C4.41421 12.25 4.75 12.5858 4.75 13C4.75 15.1586 4.87353 17.0839 5.05712 18.6076C5.24385 20.1575 5.48503 21.2229 5.69044 21.7071C5.78871 21.9387 5.76427 22.2042 5.62537 22.414C5.48647 22.6238 5.25162 22.75 5 22.75H2C1.58579 22.75 1.25 22.4142 1.25 22V13ZM2.75 13.75V21.25H3.98526C3.82499 20.5836 3.6832 19.7442 3.56788 18.787C3.39836 17.3799 3.27978 15.6617 3.25487 13.75H2.75Z" fill="#333333" class='xian'/>
<path d="M14 2C14 1.72386 14.2239 1.5 14.5 1.5L15.5 1.5C15.7761 1.5 16 1.72386 16 2L16 7.5L14 7.5L14 2Z" fill="#333333" class='xian'/>
<path d="M4.5 10.2C4.5 10.0895 4.58954 10 4.7 10L9 10L9 11L4.7 11C4.58954 11 4.5 10.9105 4.5 10.8L4.5 10.2Z" fill="#333333" class='xian'/>
<path d="M15.5 9.7C15.5 9.58954 15.5895 9.5 15.7 9.5L19 9.5L19 10.3C19 10.4105 18.9105 10.5 18.8 10.5L15.7 10.5C15.5895 10.5 15.5 10.4105 15.5 10.3L15.5 9.7Z" fill="#333333" class='xian'/>
<path d="M16.8 9C16.9105 9 17 9.08954 17 9.2L17 11.3C17 11.4105 16.9105 11.5 16.8 11.5L16.2 11.5C16.0895 11.5 16 11.4105 16 11.3L16 9.2C16 9.08954 16.0895 9 16.2 9L16.8 9Z" fill="#333333" class='xian'/>
<path fill-rule="evenodd" clip-rule="evenodd" d="M9.25 22V13H10.75V22H9.25Z" fill="#333333" class='xian'/>
<path d="M6.5 14.75V13H10V16.5L9.61245 16.6938C9.14987 16.9251 8.64625 17.0331 8.14661 17.0208C7.05364 16.9938 6.5 15.8433 6.5 14.75Z" fill="#DEDEDE" class='mian'/>
<path fill-rule="evenodd" clip-rule="evenodd" d="M5.75 13C5.75 12.5858 6.08579 12.25 6.5 12.25H10C10.4142 12.25 10.75 12.5858 10.75 13V16.5C10.75 16.7841 10.5895 17.0438 10.3354 17.1708L9.94786 17.3646C8.71003 17.9835 7.23548 17.8917 6.08397 17.124C5.87533 16.9849 5.75 16.7508 5.75 16.5V13ZM7.25 13.75V16.0615C7.88173 16.348 8.61497 16.3437 9.25 16.0363V13.75H7.25Z" fill="#333333" class='xian'/>
<path fill-rule="evenodd" clip-rule="evenodd" d="M19.75 8.5L3.65 8.5C3.42908 8.5 3.25 8.32091 3.25 8.1L3.25 7.4C3.25 7.17909 3.42908 7 3.65 7L19.75 7L19.75 8.5Z" fill="#333333" class='xian'/>
<path d="M6.0498 9.72426V10.3C6.0498 10.4105 5.96026 10.5 5.8498 10.5H5.2498C5.13935 10.5 5.0498 10.4105 5.0498 10.3V9.72426C5.0498 9.6447 5.08141 9.56839 5.13767 9.51213L5.29122 9.35858C5.32873 9.32107 5.3498 9.2702 5.3498 9.21716V9.1C5.3498 9.04477 5.39457 9 5.4498 9H5.64981C5.70503 9 5.74981 9.04477 5.74981 9.1V9.21716C5.74981 9.2702 5.77088 9.32107 5.80838 9.35858L5.96194 9.51213C6.0182 9.56839 6.0498 9.6447 6.0498 9.72426Z" fill="#333333" class='xian'/>
<path d="M7.25 9.72426V10.3C7.25 10.4105 7.16046 10.5 7.05 10.5H6.45C6.33954 10.5 6.25 10.4105 6.25 10.3V9.72426C6.25 9.6447 6.28161 9.56839 6.33787 9.51213L6.49142 9.35858C6.52893 9.32107 6.55 9.2702 6.55 9.21716V9.1C6.55 9.04477 6.59477 9 6.65 9H6.85C6.90523 9 6.95 9.04477 6.95 9.1V9.21716C6.95 9.2702 6.97107 9.32107 7.00858 9.35858L7.16213 9.51213C7.21839 9.56839 7.25 9.6447 7.25 9.72426Z" fill="#333333" class='xian'/>
<path d="M8.4502 9.72426V10.3C8.4502 10.4105 8.36065 10.5 8.2502 10.5H7.6502C7.53974 10.5 7.4502 10.4105 7.4502 10.3V9.72426C7.4502 9.6447 7.4818 9.56839 7.53806 9.51213L7.69162 9.35858C7.72912 9.32107 7.75019 9.2702 7.75019 9.21716V9.1C7.75019 9.04477 7.79497 9 7.85019 9H8.0502C8.10542 9 8.1502 9.04477 8.1502 9.1V9.21716C8.1502 9.2702 8.17127 9.32107 8.20877 9.35858L8.36233 9.51213C8.41859 9.56839 8.4502 9.6447 8.4502 9.72426Z" fill="#333333" class='xian'/>
<path fill-rule="evenodd" clip-rule="evenodd" d="M19.6001 6.7C19.6001 6.58954 19.6896 6.5 19.8001 6.5H21.4001C21.5106 6.5 21.6001 6.58954 21.6001 6.7V9.3C21.6001 9.41046 21.5106 9.5 21.4001 9.5H19.8001C19.6896 9.5 19.6001 9.41046 19.6001 9.3V6.7ZM20.0001 7.04999C20.0001 6.96715 20.0672 6.89999 20.1501 6.89999H21.0501C21.1329 6.89999 21.2001 6.96715 21.2001 7.04999V7.94999C21.2001 8.03284 21.1329 8.09999 21.0501 8.09999H20.1501C20.0672 8.09999 20.0001 8.03284 20.0001 7.94999V7.04999ZM20.6001 8.25C20.324 8.25 20.1001 8.47386 20.1001 8.75C20.1001 9.02614 20.324 9.25 20.6001 9.25C20.8762 9.25 21.1001 9.02614 21.1001 8.75C21.1001 8.47386 20.8762 8.25 20.6001 8.25Z" fill="#333333" class='xian'/>
<path d="M7.84142 14.3519C7.79605 14.1918 7.97805 14.0644 8.1129 14.1618C8.17238 14.2047 8.25232 14.2061 8.31327 14.1653C8.45143 14.0727 8.62888 14.2064 8.57794 14.3647C8.55547 14.4346 8.57885 14.511 8.63654 14.5564C8.7673 14.6591 8.69497 14.8692 8.52864 14.8697C8.45527 14.8699 8.38978 14.9158 8.36448 14.9847C8.30714 15.1408 8.08498 15.1369 8.03312 14.9789C8.01024 14.9092 7.9464 14.861 7.87307 14.8583C7.70686 14.852 7.6419 14.6395 7.77618 14.5413C7.83541 14.498 7.86144 14.4225 7.84142 14.3519Z" fill="white"/>
<path d="M12.5 8.5C12.5 8.22386 12.7239 8 13 8V8C13.2761 8 13.5 8.22386 13.5 8.5L13.5 10.5L11.7 10.5C11.5895 10.5 11.5 10.4105 11.5 10.3L11.5 9.7C11.5 9.58954 11.5895 9.5 11.7 9.5L12.5 9.5L12.5 8.5Z" fill="#333333" class='xian'/>
<path d="M13.5 8.5C13.5 8.22386 13.7239 8 14 8V8C14.2761 8 14.5 8.22386 14.5 8.5L14.5 13L13.5 13L13.5 8.5Z" fill="#333333" class='xian'/>
<path d="M17 8.5C17 8.22386 17.2239 8 17.5 8V8C17.7761 8 18 8.22386 18 8.5L18 9.8C18 9.91046 17.9105 10 17.8 10L17.2 10C17.0895 10 17 9.91046 17 9.8L17 8.5Z" fill="#333333" class='xian'/>
<path d="M18 8.5C18 8.22386 18.2239 8 18.5 8V8C18.7761 8 19 8.22386 19 8.5L19 9.8C19 9.91046 18.9105 10 18.8 10L18.2 10C18.0895 10 18 9.91046 18 9.8L18 8.5Z" fill="#333333" class='xian'/>
<path d="M9 8.5C9 8.22386 9.22386 8 9.5 8V8C9.77614 8 10 8.22386 10 8.5L10 13L9 13L9 8.5Z" fill="#333333" class='xian'/>
</svg>
