<svg width="24" height="24" viewBox="0 0 24 24" fill="none" xmlns="http://www.w3.org/2000/svg">
<path d="M22 22H17V2H22V22Z" fill="white" class='mian'/>
<path fill-rule="evenodd" clip-rule="evenodd" d="M16.25 2C16.25 1.58579 16.5858 1.25 17 1.25H22C22.4142 1.25 22.75 1.58579 22.75 2V22C22.75 22.4142 22.4142 22.75 22 22.75H17C16.5858 22.75 16.25 22.4142 16.25 22V2ZM17.75 2.75V21.25H21.25V2.75H17.75Z" fill="#333333" class='xian'/>
<path d="M17 22H2L2.00003 2H17L17 22Z" fill="#DEDEDE" class='mian'/>
<path fill-rule="evenodd" clip-rule="evenodd" d="M1.25003 2C1.25003 1.58579 1.58582 1.25 2.00003 1.25H17C17.1989 1.25 17.3897 1.32902 17.5303 1.46967C17.671 1.61032 17.75 1.80109 17.75 2L17.75 22C17.75 22.4142 17.4142 22.75 17 22.75H2C1.80109 22.75 1.61032 22.671 1.46967 22.5303C1.32902 22.3897 1.25 22.1989 1.25 22L1.25003 2ZM2.75003 2.75L2.75 21.25H16.25L16.25 2.75H2.75003Z" fill="#333333" class='xian'/>
<path fill-rule="evenodd" clip-rule="evenodd" d="M6.25001 7C6.25001 6.58579 6.58579 6.25 7.00001 6.25H12C12.1989 6.25 12.3897 6.32902 12.5303 6.46967C12.671 6.61032 12.75 6.80109 12.75 7L12.75 10.5C12.75 11.7426 11.7426 12.75 10.5 12.75H8.5C7.25736 12.75 6.25 11.7426 6.25 10.5L6.25001 7ZM7.75001 7.75L7.75 10.5C7.75 10.9142 8.08579 11.25 8.5 11.25H10.5C10.9142 11.25 11.25 10.9142 11.25 10.5L11.25 7.75H7.75001Z" fill="#333333" class='xian'/>
<path fill-rule="evenodd" clip-rule="evenodd" d="M10.5 12L10.258 17.8083C10.2535 17.9155 10.1654 18 10.0582 18L8.94184 18C8.83462 18 8.74648 17.9155 8.74201 17.8083L8.5 12L10.5 12Z" fill="#333333" class='xian'/>
<path d="M8.5 5.5C8.5 5.22386 8.72386 5 9 5H10C10.2761 5 10.5 5.22386 10.5 5.5V7H8.5V5.5Z" fill="#333333" class='xian'/>
<path d="M9 4.2C9 4.08954 9.08954 4 9.2 4H9.8C9.91046 4 10 4.08954 10 4.2V7H9V4.2Z" fill="#333333" class='xian'/>
<path d="M22 22H19C20 10.5 20 2 20 2H22V22Z" fill="#7F9FD9" class='mian'/>
<path fill-rule="evenodd" clip-rule="evenodd" d="M19.25 2C19.25 1.58579 19.5858 1.25 20 1.25H22C22.4142 1.25 22.75 1.58579 22.75 2V22C22.75 22.4142 22.4142 22.75 22 22.75H19C18.7898 22.75 18.5892 22.6618 18.4472 22.5068C18.3051 22.3519 18.2346 22.1444 18.2528 21.935C18.7515 16.2005 19.0008 11.2137 19.1255 7.6612C19.1878 5.88514 19.2189 4.46806 19.2345 3.49581C19.2423 3.00971 19.2461 2.63484 19.2481 2.38195C19.249 2.2555 19.2495 2.15956 19.2498 2.09545L19.25 2.02334L19.25 2ZM20.7447 2.75C20.7424 2.96364 20.7391 3.22106 20.7343 3.51981C20.7186 4.50069 20.6872 5.92736 20.6245 7.7138C20.5051 11.117 20.272 15.8274 19.8168 21.25H21.25V2.75H20.7447Z" fill="#333333" class='xian'/>
</svg>
