<svg width="24" height="24" viewBox="0 0 24 24" fill="none" xmlns="http://www.w3.org/2000/svg">
<path d="M18 22H13L13 2H20L18 22Z" fill="white" class='mian'/>
<path fill-rule="evenodd" clip-rule="evenodd" d="M12.25 2C12.25 1.58579 12.5858 1.25 13 1.25H20C20.2119 1.25 20.4139 1.33963 20.5561 1.49675C20.6983 1.65386 20.7674 1.86378 20.7463 2.07463L18.7463 22.0746C18.7079 22.458 18.3853 22.75 18 22.75H13C12.8011 22.75 12.6103 22.671 12.4697 22.5303C12.329 22.3897 12.25 22.1989 12.25 22L12.25 2ZM13.75 2.75L13.75 21.25H17.3213L19.1713 2.75H13.75Z" fill="#333333" class='xian'/>
<path d="M13 22H2L2.00002 2H13L13 22Z" fill="#B4B4B4" class='mian'/>
<path fill-rule="evenodd" clip-rule="evenodd" d="M1.25002 2C1.25002 1.58579 1.58581 1.25 2.00002 1.25H13C13.1989 1.25 13.3897 1.32902 13.5303 1.46967C13.671 1.61032 13.75 1.80109 13.75 2L13.75 22C13.75 22.4142 13.4142 22.75 13 22.75H2C1.80109 22.75 1.61032 22.671 1.46967 22.5303C1.32902 22.3897 1.25 22.1989 1.25 22L1.25002 2ZM2.75002 2.75L2.75 21.25H12.25L12.25 2.75H2.75002Z" fill="#333333" class='xian'/>
<path fill-rule="evenodd" clip-rule="evenodd" d="M4.25001 9C4.25001 8.58579 4.58579 8.25 5.00001 8.25H10C10.1989 8.25 10.3897 8.32902 10.5303 8.46967C10.671 8.61032 10.75 8.80109 10.75 9L10.75 12.5C10.75 13.7426 9.74263 14.75 8.49999 14.75H6.5C5.25736 14.75 4.25 13.7426 4.25 12.5L4.25001 9ZM5.75001 9.75L5.75 12.5C5.75 12.9142 6.08579 13.25 6.5 13.25H8.49999C8.9142 13.25 9.24999 12.9142 9.24999 12.5L9.24999 9.75H5.75001Z" fill="#333333" class='xian'/>
<path fill-rule="evenodd" clip-rule="evenodd" d="M8.5 14L8.26528 16.8166C8.25664 16.9203 8.16999 17 8.06597 17L6.93403 17C6.83001 17 6.74336 16.9203 6.73472 16.8166L6.5 14L8.5 14Z" fill="#333333" class='xian'/>
<path d="M6.5 7.5C6.5 7.22386 6.72386 7 7 7H8C8.27614 7 8.5 7.22386 8.5 7.5V9H6.5V7.5Z" fill="#333333" class='xian'/>
<path d="M7 6.2C7 6.08954 7.08954 6 7.2 6H7.8C7.91046 6 8 6.08954 8 6.2V9H7V6.2Z" fill="#333333" class='xian'/>
<path d="M22 22H18L20 2H22V22Z" fill="#7F9FD9" class='mian'/>
<path fill-rule="evenodd" clip-rule="evenodd" d="M19.2537 1.92537C19.2921 1.54197 19.6147 1.25 20 1.25H22C22.4142 1.25 22.75 1.58579 22.75 2V22C22.75 22.4142 22.4142 22.75 22 22.75H18C17.7881 22.75 17.5861 22.6604 17.4439 22.5033C17.3017 22.3461 17.2326 22.1362 17.2537 21.9254L19.2537 1.92537ZM20.6787 2.75L18.8287 21.25H21.25V2.75H20.6787Z" fill="#333333" class='xian'/>
</svg>
