<svg width="24" height="24" viewBox="0 0 24 24" fill="none" xmlns="http://www.w3.org/2000/svg">
<path fill-rule="evenodd" clip-rule="evenodd" d="M22 21.25C22 21.6642 21.6642 22 21.25 22L2.75 22C2.33579 22 2 21.6642 2 21.25C2 20.8358 2.33579 20.5 2.75 20.5L21.25 20.5C21.6642 20.5 22 20.8358 22 21.25Z" fill="#333333" class='xian'/>
<path d="M22.0191 2.27985V4.51985C22.0191 4.59718 21.9924 4.66252 21.9391 4.71585C21.8831 4.77185 21.8164 4.79985 21.7391 4.79985C21.6617 4.79985 21.5964 4.77185 21.5431 4.71585C21.4871 4.66252 21.4591 4.59718 21.4591 4.51985V2.76385L21.3191 2.84385C21.2524 2.88118 21.1817 2.89052 21.1071 2.87185C21.0324 2.85052 20.9751 2.80652 20.9351 2.73985C20.8977 2.67318 20.8897 2.60252 20.9111 2.52785C20.9297 2.45318 20.9724 2.39585 21.0391 2.35585L21.5991 2.03585C21.6951 1.98252 21.7884 1.98252 21.8791 2.03585C21.9724 2.09185 22.0191 2.17318 22.0191 2.27985Z" fill="#333333" class='xian'/>
<path d="M19.0506 4.176C19.1893 4.21867 19.3453 4.24 19.5186 4.24C19.708 4.24 19.8613 4.21333 19.9786 4.16C20.0986 4.10933 20.1586 4.04267 20.1586 3.96V3.948V3.936C20.156 3.92533 20.152 3.91467 20.1466 3.904C20.136 3.87733 20.112 3.852 20.0746 3.828C19.9706 3.75867 19.776 3.70933 19.4906 3.68C18.7626 3.60267 18.3986 3.32267 18.3986 2.84C18.3986 2.61067 18.4893 2.41867 18.6706 2.264C18.8733 2.088 19.156 2 19.5186 2C19.956 2 20.2973 2.10933 20.5426 2.328C20.6013 2.37867 20.6333 2.44267 20.6386 2.52C20.644 2.59733 20.62 2.664 20.5666 2.72C20.516 2.77867 20.452 2.81067 20.3746 2.816C20.2973 2.82133 20.2306 2.79733 20.1746 2.744C20.116 2.69333 20.0346 2.652 19.9306 2.62C19.808 2.58 19.6706 2.56 19.5186 2.56C19.348 2.56 19.212 2.58533 19.1106 2.636C19.0093 2.68667 18.9586 2.75467 18.9586 2.84V2.852V2.864C18.9613 2.87733 18.964 2.88933 18.9666 2.9C18.98 2.92933 19.0026 2.956 19.0346 2.98C19.1253 3.04933 19.296 3.096 19.5466 3.12L19.5786 3.124L19.6146 3.128L19.6906 3.14C19.752 3.148 19.8106 3.15733 19.8666 3.168C20.016 3.19733 20.1453 3.23733 20.2546 3.288C20.564 3.42933 20.7186 3.65333 20.7186 3.96C20.7186 4.184 20.6293 4.372 20.4506 4.524C20.2373 4.708 19.9266 4.8 19.5186 4.8C19.044 4.8 18.6773 4.68933 18.4186 4.468C18.36 4.41733 18.3266 4.35467 18.3186 4.28C18.3133 4.20267 18.336 4.13467 18.3866 4.076C18.4373 4.01733 18.5013 3.984 18.5786 3.976C18.6533 3.97067 18.72 3.99333 18.7786 4.044C18.8426 4.09733 18.9333 4.14133 19.0506 4.176Z" fill="#333333" class='xian'/>
<path d="M17.831 4.71989C17.775 4.77322 17.7084 4.79989 17.631 4.79989C17.5537 4.79989 17.4871 4.77322 17.4311 4.71989C17.3777 4.66389 17.351 4.59722 17.351 4.51989V3.08789L16.651 3.97189C16.5977 4.04122 16.5244 4.07589 16.4311 4.07589C16.3377 4.07589 16.2644 4.04122 16.211 3.97189L15.511 3.08789V4.51989C15.511 4.59722 15.4844 4.66389 15.431 4.71989C15.375 4.77322 15.3084 4.79989 15.231 4.79989C15.1537 4.79989 15.087 4.77322 15.031 4.71989C14.9777 4.66389 14.951 4.59722 14.951 4.51989V2.27989C14.951 2.14655 15.0137 2.05855 15.139 2.01589C15.2644 1.97055 15.3684 2.00122 15.451 2.10789L16.4311 3.34789L17.4111 2.10789C17.4937 2.00389 17.5977 1.97322 17.723 2.01589C17.8484 2.05855 17.9111 2.14655 17.9111 2.27989V4.51989C17.9111 4.59722 17.8844 4.66389 17.831 4.71989Z" fill="#333333" class='xian'/>
<path fill-rule="evenodd" clip-rule="evenodd" d="M5.25 11.75L5.25 18.25C5.25 18.6642 4.91421 19 4.5 19C4.08579 19 3.75 18.6642 3.75 18.25L3.75 11.75C3.75 11.3358 4.08579 11 4.5 11C4.91421 11 5.25 11.3358 5.25 11.75Z" fill="#333333" class='xian'/>
<path fill-rule="evenodd" clip-rule="evenodd" d="M8.25 6.25L8.25 18.25C8.25 18.6642 7.91421 19 7.5 19C7.08579 19 6.75 18.6642 6.75 18.25L6.75 6.25C6.75 5.83579 7.08579 5.5 7.5 5.5C7.91421 5.5 8.25 5.83579 8.25 6.25Z" fill="#333333" class='xian'/>
<path fill-rule="evenodd" clip-rule="evenodd" d="M11.25 10.25L11.25 18.25C11.25 18.6642 10.9142 19 10.5 19C10.0858 19 9.75 18.6642 9.75 18.25L9.75 10.25C9.75 9.83579 10.0858 9.5 10.5 9.5C10.9142 9.5 11.25 9.83579 11.25 10.25Z" fill="#333333" class='xian'/>
<path fill-rule="evenodd" clip-rule="evenodd" d="M14.25 14.25L14.25 18.25C14.25 18.6642 13.9142 19 13.5 19C13.0858 19 12.75 18.6642 12.75 18.25L12.75 14.25C12.75 13.8358 13.0858 13.5 13.5 13.5C13.9142 13.5 14.25 13.8358 14.25 14.25Z" fill="#333333" class='xian'/>
<path fill-rule="evenodd" clip-rule="evenodd" d="M17.25 13.25L17.25 18.25C17.25 18.6642 16.9142 19 16.5 19C16.0858 19 15.75 18.6642 15.75 18.25L15.75 13.25C15.75 12.8358 16.0858 12.5 16.5 12.5C16.9142 12.5 17.25 12.8358 17.25 13.25Z" fill="#333333" class='xian'/>
<path fill-rule="evenodd" clip-rule="evenodd" d="M20.25 9.25L20.25 18.25C20.25 18.6642 19.9142 19 19.5 19C19.0858 19 18.75 18.6642 18.75 18.25L18.75 9.25C18.75 8.83579 19.0858 8.5 19.5 8.5C19.9142 8.5 20.25 8.83579 20.25 9.25Z" fill="#333333" class='xian'/>
</svg>
