<svg width="24" height="24" viewBox="0 0 24 24" fill="none" xmlns="http://www.w3.org/2000/svg">
<path fill-rule="evenodd" clip-rule="evenodd" d="M8.16835 5.11463C9.0527 3.75617 10.2625 2.75 12 2.75C13.7375 2.75 14.9473 3.75617 15.8317 5.11463C16.7008 6.44964 17.3344 8.2378 17.922 10.055C18.0454 10.4365 18.167 10.8203 18.2886 11.204C18.7581 12.6852 19.2278 14.1671 19.8008 15.5309C20.5226 17.2485 21.3676 18.6722 22.4774 19.5882C22.7969 19.8519 22.8421 20.3246 22.5784 20.6441C22.3148 20.9635 21.842 21.0088 21.5226 20.7451C20.1325 19.5977 19.1719 17.9062 18.418 16.112C17.8157 14.6787 17.3193 13.1117 16.8479 11.6238C16.729 11.2485 16.6117 10.8783 16.4947 10.5165C15.9018 8.68283 15.3201 7.07814 14.5746 5.93299C13.8444 4.81129 13.0403 4.25 12 4.25C10.9598 4.25 10.1557 4.81129 9.42544 5.93299C8.67995 7.07814 8.09825 8.68283 7.5053 10.5165C7.38831 10.8783 7.27101 11.2485 7.15213 11.6238C6.68075 13.1118 6.18434 14.6787 5.58208 16.112C4.82813 17.9062 3.86758 19.5977 2.47744 20.7451C2.15799 21.0088 1.68528 20.9635 1.4216 20.6441C1.15793 20.3246 1.20315 19.8519 1.5226 19.5882C2.63246 18.6722 3.47747 17.2485 4.19921 15.5309C4.77227 14.1671 5.24196 12.6852 5.71142 11.204C5.83305 10.8203 5.95467 10.4366 6.07807 10.055C6.66568 8.2378 7.29926 6.44964 8.16835 5.11463Z" fill="#333333" class='xian'/>
<path fill-rule="evenodd" clip-rule="evenodd" d="M12.0001 2.25C12.0947 2.25 12.1813 2.3035 12.2237 2.3882L13.031 4.00288L13.792 2.86132C13.8532 2.76966 13.9671 2.7288 14.0725 2.76073C14.1779 2.79265 14.2501 2.88983 14.2501 3V4.17431L14.792 3.36133C14.8532 3.26966 14.9671 3.2288 15.0725 3.26073C15.1779 3.29265 15.2501 3.38983 15.2501 3.5V6.17431L15.792 5.36133C15.8532 5.26966 15.9671 5.2288 16.0725 5.26073C16.1779 5.29265 16.2501 5.38983 16.2501 5.5V8.17431L16.792 7.36132C16.8532 7.26966 16.9671 7.2288 17.0725 7.26073C17.1779 7.29265 17.2501 7.38983 17.2501 7.5V10.941L17.7764 9.8882C17.8283 9.78449 17.9447 9.73005 18.0575 9.75669C18.1703 9.78333 18.2501 9.88406 18.2501 10V13.941L18.7764 12.8882C18.8283 12.7845 18.9447 12.73 19.0575 12.7567C19.1703 12.7833 19.2501 12.8841 19.2501 13V16.1743L19.792 15.3613C19.8532 15.2697 19.9671 15.2288 20.0725 15.2607C20.1779 15.2927 20.2501 15.3898 20.2501 15.5V18.1743L20.792 17.3613C20.8532 17.2697 20.9671 17.2288 21.0725 17.2607C21.1779 17.2927 21.2501 17.3898 21.2501 17.5V19.1743L21.792 18.3613C21.8474 18.2783 21.9468 18.2361 22.045 18.2541C22.1431 18.272 22.2212 18.3466 22.2437 18.4438L22.7437 20.6105C22.7747 20.7451 22.6908 20.8793 22.5563 20.9103C22.4217 20.9414 22.2875 20.8575 22.2565 20.723L21.8867 19.1207L21.2081 20.1387C21.147 20.2303 21.033 20.2712 20.9276 20.2393C20.8222 20.2073 20.7501 20.1102 20.7501 20V18.3257L20.2081 19.1387C20.147 19.2303 20.033 19.2712 19.9276 19.2393C19.8222 19.2073 19.7501 19.1102 19.7501 19V16.3257L19.2081 17.1387C19.147 17.2303 19.033 17.2712 18.9276 17.2393C18.8222 17.2073 18.7501 17.1102 18.7501 17V14.059L18.2237 15.1118C18.1718 15.2155 18.0555 15.27 17.9426 15.2433C17.8298 15.2167 17.7501 15.1159 17.7501 15V11.059L17.2237 12.1118C17.1718 12.2155 17.0555 12.27 16.9426 12.2433C16.8298 12.2167 16.7501 12.1159 16.7501 12V8.32569L16.2081 9.13868C16.147 9.23034 16.033 9.2712 15.9276 9.23927C15.8222 9.20735 15.7501 9.11017 15.7501 9V6.32569L15.2081 7.13868C15.147 7.23034 15.033 7.2712 14.9276 7.23927C14.8222 7.20735 14.7501 7.11017 14.7501 7V4.32569L14.2081 5.13867C14.147 5.23034 14.033 5.2712 13.9276 5.23927C13.8222 5.20735 13.7501 5.11017 13.7501 5V3.82569L13.2081 4.63867C13.1586 4.71283 13.0735 4.75505 12.9845 4.74952C12.8956 4.74398 12.8163 4.69151 12.7764 4.6118L12.0001 3.05902L11.2237 4.6118C11.1838 4.69151 11.1045 4.74398 11.0156 4.74952C10.9266 4.75505 10.8415 4.71283 10.792 4.63867L10.2501 3.82569V5C10.2501 5.11017 10.1779 5.20735 10.0725 5.23927C9.96706 5.2712 9.85315 5.23034 9.79204 5.13867L9.25006 4.32569V7C9.25006 7.11017 9.17794 7.20735 9.0725 7.23927C8.96706 7.2712 8.85315 7.23034 8.79204 7.13868L8.25006 6.32569V9C8.25006 9.11017 8.17794 9.20735 8.0725 9.23927C7.96706 9.2712 7.85315 9.23034 7.79204 9.13868L7.25006 8.32569V12C7.25006 12.1159 7.17034 12.2167 7.05749 12.2433C6.94465 12.27 6.8283 12.2155 6.77645 12.1118L6.25006 11.059V15C6.25006 15.1159 6.17034 15.2167 6.05749 15.2433C5.94465 15.27 5.8283 15.2155 5.77645 15.1118L5.25006 14.059V17C5.25006 17.1102 5.17794 17.2073 5.0725 17.2393C4.96706 17.2712 4.85315 17.2303 4.79204 17.1387L4.25006 16.3257V19C4.25006 19.1102 4.17794 19.2073 4.0725 19.2393C3.96706 19.2712 3.85315 19.2303 3.79204 19.1387L3.25006 18.3257V20C3.25006 20.1102 3.17794 20.2073 3.0725 20.2393C2.96706 20.2712 2.85315 20.2303 2.79204 20.1387L2.11339 19.1207L1.74365 20.723C1.71261 20.8575 1.57838 20.9414 1.44384 20.9103C1.30931 20.8793 1.22541 20.7451 1.25646 20.6105L1.75645 18.4438C1.77889 18.3466 1.85699 18.272 1.95514 18.2541C2.0533 18.2361 2.15271 18.2783 2.20806 18.3613L2.75006 19.1743V17.5C2.75006 17.3898 2.82217 17.2927 2.92761 17.2607C3.03305 17.2288 3.14696 17.2697 3.20807 17.3613L3.75006 18.1743V15.5C3.75006 15.3898 3.82217 15.2927 3.92761 15.2607C4.03305 15.2288 4.14696 15.2697 4.20807 15.3613L4.75006 16.1743V13C4.75006 12.8841 4.82977 12.7833 4.94262 12.7567C5.05546 12.73 5.17181 12.7845 5.22366 12.8882L5.75006 13.941V10C5.75006 9.88406 5.82977 9.78333 5.94262 9.75669C6.05546 9.73005 6.17181 9.78449 6.22366 9.8882L6.75006 10.941V7.5C6.75006 7.38983 6.82217 7.29265 6.92761 7.26073C7.03305 7.2288 7.14696 7.26966 7.20807 7.36132L7.75006 8.17431V5.5C7.75006 5.38983 7.82217 5.29265 7.92761 5.26073C8.03305 5.2288 8.14696 5.26966 8.20807 5.36133L8.75006 6.17431V3.5C8.75006 3.38983 8.82217 3.29265 8.92761 3.26073C9.03305 3.2288 9.14696 3.26966 9.20807 3.36133L9.75006 4.17431V3C9.75006 2.88983 9.82217 2.79265 9.92761 2.76073C10.033 2.7288 10.147 2.76966 10.2081 2.86132L10.9691 4.00288L11.7764 2.3882C11.8188 2.3035 11.9054 2.25 12.0001 2.25Z" fill="#999999" class='mian'/>
</svg>
