<svg width="24" height="24" viewBox="0 0 24 24" fill="none" xmlns="http://www.w3.org/2000/svg">
<path fill-rule="evenodd" clip-rule="evenodd" d="M5.70643 20.1577C5.67479 20.1917 5.60545 20.25 5.5 20.25H5.00032C4.90562 20.25 4.81874 20.1965 4.77639 20.1118L4.5 19.559L4.22361 20.1118C4.18126 20.1965 4.09469 20.25 4 20.25C3.90531 20.25 3.81874 20.1965 3.77639 20.1118L3.5 19.559L3.22361 20.1118C3.18126 20.1965 3.09469 20.25 3 20.25C2.90531 20.25 2.81874 20.1965 2.77639 20.1118L2.5 19.559L2.22361 20.1118C2.18126 20.1965 2.09469 20.25 2 20.25H1.5C1.36193 20.25 1.25 20.1381 1.25 20C1.25 19.8619 1.36193 19.75 1.5 19.75H1.84549L2.27639 18.8882C2.31874 18.8035 2.40531 18.75 2.5 18.75C2.59469 18.75 2.68126 18.8035 2.72361 18.8882L3 19.441L3.27639 18.8882C3.31874 18.8035 3.40531 18.75 3.5 18.75C3.59469 18.75 3.68126 18.8035 3.72361 18.8882L4 19.441L4.27639 18.8882C4.31874 18.8035 4.40531 18.75 4.5 18.75C4.59469 18.75 4.68126 18.8035 4.72361 18.8882L5.15451 19.75H5.3506C5.35126 19.7474 5.35194 19.7448 5.35263 19.7421C5.38188 19.6266 5.41409 19.4489 5.45007 19.2107C5.51118 18.8061 5.57945 18.2525 5.66147 17.5876C5.67557 17.4732 5.69007 17.3556 5.70502 17.2349C5.90819 15.594 6.19037 13.3984 6.62985 11.201C7.06859 9.00729 7.66755 6.79309 8.51119 5.12172C9.34731 3.46527 10.4729 2.25 12 2.25C13.5271 2.25 14.6527 3.46527 15.4888 5.12172C16.3324 6.79309 16.9314 9.00729 17.3701 11.201C17.8096 13.3984 18.0918 15.594 18.295 17.2349C18.3099 17.3556 18.3244 17.4731 18.3385 17.5874C18.4205 18.2525 18.4888 18.806 18.5499 19.2107C18.5859 19.4489 18.6181 19.6266 18.6474 19.7421C18.6481 19.7448 18.6487 19.7474 18.6494 19.75H18.8455L19.2764 18.8882C19.3187 18.8035 19.4053 18.75 19.5 18.75C19.5947 18.75 19.6813 18.8035 19.7236 18.8882L20 19.441L20.2764 18.8882C20.3187 18.8035 20.4053 18.75 20.5 18.75C20.5947 18.75 20.6813 18.8035 20.7236 18.8882L21 19.441L21.2764 18.8882C21.3187 18.8035 21.4053 18.75 21.5 18.75C21.5947 18.75 21.6813 18.8035 21.7236 18.8882L22.1545 19.75H22.5C22.6381 19.75 22.75 19.8619 22.75 20C22.75 20.1381 22.6381 20.25 22.5 20.25H22C21.9053 20.25 21.8187 20.1965 21.7764 20.1118L21.5 19.559L21.2236 20.1118C21.1813 20.1965 21.0947 20.25 21 20.25C20.9053 20.25 20.8187 20.1965 20.7764 20.1118L20.5 19.559L20.2236 20.1118C20.1813 20.1965 20.0947 20.25 20 20.25C19.9053 20.25 19.8187 20.1965 19.7764 20.1118L19.5 19.559L19.2236 20.1118C19.1813 20.1965 19.0947 20.25 19 20.25H18.5C18.3945 20.25 18.3252 20.1917 18.2936 20.1577C18.261 20.1226 18.2402 20.0844 18.2273 20.0573C18.2007 20.0016 18.18 19.9334 18.1627 19.8649C18.127 19.724 18.0918 19.5257 18.0555 19.2854C17.9933 18.8734 17.9241 18.3117 17.8422 17.6478C17.8281 17.5336 17.8136 17.4164 17.7988 17.2963C17.5957 15.656 17.3154 13.4766 16.8799 11.299C16.4436 9.11771 15.8551 6.95691 15.0424 5.34703C14.2223 3.72223 13.2229 2.75 12 2.75C10.7771 2.75 9.77769 3.72223 8.95756 5.34703C8.14495 6.95691 7.55641 9.11771 7.12015 11.299C6.68463 13.4766 6.40431 15.656 6.20123 17.2963C6.18638 17.4163 6.17193 17.5335 6.15785 17.6476C6.07596 18.3116 6.00668 18.8734 5.94446 19.2854C5.90817 19.5257 5.87301 19.724 5.83732 19.8649C5.81996 19.9334 5.79926 20.0016 5.77272 20.0573C5.75984 20.0844 5.73905 20.1226 5.70643 20.1577Z" fill="#666666" class='mian'/>
<path fill-rule="evenodd" clip-rule="evenodd" d="M10.086 4.31007C10.5499 3.71971 11.1819 3.25 12 3.25C12.8181 3.25 13.4501 3.71971 13.914 4.31007C14.3748 4.89665 14.7435 5.68891 15.0512 6.56357C15.669 8.31928 16.115 10.6278 16.4898 12.8767C16.6216 13.6674 16.7443 14.4488 16.8627 15.2021C17.086 16.624 17.2936 17.9452 17.5162 19.0378C17.6865 19.8741 17.8553 20.5204 18.0272 20.9452C18.0862 21.0908 18.137 21.1884 18.1752 21.25H22C22.4142 21.25 22.75 21.5858 22.75 22C22.75 22.4142 22.4142 22.75 22 22.75H18C17.5646 22.75 17.2569 22.4993 17.0729 22.2805C16.8885 22.0612 16.7488 21.7847 16.6368 21.508C16.4103 20.9483 16.2197 20.1884 16.0463 19.3372C15.8173 18.2129 15.6002 16.8315 15.3728 15.3849C15.2557 14.6396 15.1358 13.877 15.0102 13.1233C14.635 10.8722 14.206 8.68072 13.6363 7.06143C13.3503 6.24859 13.047 5.6346 12.7345 5.2368C12.4249 4.84279 12.1819 4.75 12 4.75C11.8181 4.75 11.5751 4.84279 11.2655 5.2368C10.953 5.6346 10.6497 6.24859 10.3637 7.06143C9.79398 8.68072 9.36498 10.8722 8.9898 13.1233C8.86418 13.877 8.74431 14.6396 8.62717 15.3849C8.3998 16.8315 8.18269 18.2129 7.95366 19.3372C7.78026 20.1884 7.5897 20.9483 7.36318 21.508C7.25118 21.7847 7.11147 22.0612 6.9271 22.2805C6.74315 22.4993 6.43539 22.75 6 22.75H2C1.58579 22.75 1.25 22.4142 1.25 22C1.25 21.5858 1.58579 21.25 2 21.25H5.82482C5.86304 21.1884 5.9138 21.0908 5.97276 20.9452C6.14467 20.5204 6.31349 19.8741 6.48384 19.0378C6.70641 17.9452 6.91397 16.6239 7.13734 15.202C7.25566 14.4488 7.37842 13.6674 7.5102 12.8767C7.88502 10.6278 8.33102 8.31928 8.94877 6.56357C9.25652 5.68891 9.62516 4.89665 10.086 4.31007Z" fill="#333333" class='xian'/>
</svg>
