<svg width="24" height="24" viewBox="0 0 24 24" fill="none" xmlns="http://www.w3.org/2000/svg">
<path fill-rule="evenodd" clip-rule="evenodd" d="M12 2.00403C12.4142 2.00403 12.75 2.33981 12.75 2.75403L12.75 21.254C12.75 21.6682 12.4142 22.004 12 22.004C11.5858 22.004 11.25 21.6682 11.25 21.254L11.25 2.75403C11.25 2.33981 11.5858 2.00403 12 2.00403Z" fill="#333333"/>
<path d="M7 8.5C7 9.05228 6.55228 9.5 6 9.5C5.44772 9.5 5 9.05228 5 8.5C5 7.94772 5.44772 7.5 6 7.5C6.55228 7.5 7 7.94772 7 8.5Z" fill="#333333"/>
<path d="M7 12C7 12.5523 6.55228 13 6 13C5.44772 13 5 12.5523 5 12C5 11.4477 5.44772 11 6 11C6.55228 11 7 11.4477 7 12Z" fill="#333333"/>
<path d="M7 15.5C7 16.0523 6.55228 16.5 6 16.5C5.44772 16.5 5 16.0523 5 15.5C5 14.9477 5.44772 14.5 6 14.5C6.55228 14.5 7 14.9477 7 15.5Z" fill="#333333"/>
<path d="M19 8.5C19 9.05228 18.5523 9.5 18 9.5C17.4477 9.5 17 9.05228 17 8.5C17 7.94772 17.4477 7.5 18 7.5C18.5523 7.5 19 7.94772 19 8.5Z" fill="#333333"/>
<path d="M19 12C19 12.5523 18.5523 13 18 13C17.4477 13 17 12.5523 17 12C17 11.4477 17.4477 11 18 11C18.5523 11 19 11.4477 19 12Z" fill="#333333"/>
<path d="M19 15.5C19 16.0523 18.5523 16.5 18 16.5C17.4477 16.5 17 16.0523 17 15.5C17 14.9477 17.4477 14.5 18 14.5C18.5523 14.5 19 14.9477 19 15.5Z" fill="#333333"/>
<path d="M10.1671 21.93C10.1181 21.9767 10.0598 22 9.99209 22C9.92443 22 9.86609 21.9767 9.81709 21.93C9.77043 21.881 9.7471 21.8227 9.7471 21.755V20.502L9.13459 21.2755C9.08793 21.3362 9.02376 21.3665 8.94209 21.3665C8.86043 21.3665 8.79626 21.3362 8.74959 21.2755L8.13709 20.502V21.755C8.13709 21.8227 8.11376 21.881 8.06709 21.93C8.01809 21.9767 7.95976 22 7.89209 22C7.82443 22 7.76609 21.9767 7.71709 21.93C7.67043 21.881 7.64709 21.8227 7.64709 21.755V19.795C7.64709 19.6783 7.70193 19.6013 7.81159 19.564C7.92126 19.5243 8.01226 19.5512 8.08459 19.6445L8.94209 20.7295L9.79959 19.6445C9.87193 19.5535 9.96293 19.5267 10.0726 19.564C10.1823 19.6013 10.2371 19.6783 10.2371 19.795V21.755C10.2371 21.8227 10.2138 21.881 10.1671 21.93Z" fill="#333333"/>
<path d="M5.61463 20.04V20.81H6.41963C6.52463 20.81 6.61563 20.7727 6.69263 20.698C6.7673 20.621 6.80463 20.53 6.80463 20.425C6.80463 20.3177 6.7673 20.2267 6.69263 20.152C6.61563 20.0773 6.52463 20.04 6.41963 20.04H5.61463ZM5.12463 21.755V19.795C5.12463 19.7273 5.14797 19.669 5.19463 19.62C5.24363 19.5733 5.30197 19.55 5.36963 19.55H6.41963C6.65997 19.55 6.86647 19.6352 7.03913 19.8055C7.20947 19.9782 7.29463 20.1847 7.29463 20.425C7.29463 20.5837 7.25497 20.7307 7.17563 20.866C7.0963 20.9967 6.9913 21.1005 6.86063 21.1775L7.23163 21.5905C7.27597 21.6418 7.29697 21.7013 7.29463 21.769C7.28997 21.8367 7.26313 21.8927 7.21413 21.937C7.16747 21.979 7.11263 22 7.04963 22C6.9773 22 6.91663 21.9732 6.86763 21.9195L6.31113 21.3H5.61463V21.755C5.61463 21.8227 5.5913 21.8798 5.54463 21.9265C5.49563 21.9755 5.4373 22 5.36963 22C5.30197 22 5.24363 21.9755 5.19463 21.9265C5.14797 21.8798 5.12463 21.8227 5.12463 21.755Z" fill="#333333"/>
<path d="M4.56504 21.93C4.51604 21.9767 4.45771 22 4.39004 22C4.32238 22 4.26404 21.9767 4.21504 21.93C4.16838 21.881 4.14504 21.8227 4.14504 21.755V20.502L3.53254 21.2755C3.48588 21.3362 3.42171 21.3665 3.34004 21.3665C3.25838 21.3665 3.19421 21.3362 3.14754 21.2755L2.53504 20.502V21.755C2.53504 21.8227 2.51171 21.881 2.46504 21.93C2.41604 21.9767 2.35771 22 2.29004 22C2.22238 22 2.16404 21.9767 2.11504 21.93C2.06838 21.881 2.04504 21.8227 2.04504 21.755V19.795C2.04504 19.6783 2.09988 19.6013 2.20954 19.564C2.31921 19.5243 2.41021 19.5512 2.48254 19.6445L3.34004 20.7295L4.19754 19.6445C4.26988 19.5535 4.36088 19.5267 4.47054 19.564C4.58021 19.6013 4.63504 19.6783 4.63504 19.795V21.755C4.63504 21.8227 4.61171 21.881 4.56504 21.93Z" fill="#333333"/>
</svg>
