<svg width="24" height="24" viewBox="0 0 24 24" fill="none" xmlns="http://www.w3.org/2000/svg">
<path fill-rule="evenodd" clip-rule="evenodd" d="M12 2.00403C12.4142 2.00403 12.75 2.33981 12.75 2.75403L12.75 21.254C12.75 21.6682 12.4142 22.004 12 22.004C11.5858 22.004 11.25 21.6682 11.25 21.254L11.25 2.75403C11.25 2.33981 11.5858 2.00403 12 2.00403Z" fill="#333333"/>
<path d="M9.53819 21.93C9.48919 21.9767 9.43086 22 9.36319 22C9.29552 22 9.23719 21.9767 9.18819 21.93C9.14152 21.881 9.11819 21.8227 9.11819 21.755V20.502L8.50569 21.2755C8.45902 21.3362 8.39486 21.3665 8.31319 21.3665C8.23152 21.3665 8.16736 21.3362 8.12069 21.2755L7.50819 20.502V21.755C7.50819 21.8227 7.48486 21.881 7.43819 21.93C7.38919 21.9767 7.33086 22 7.26319 22C7.19552 22 7.13719 21.9767 7.08819 21.93C7.04152 21.881 7.01819 21.8227 7.01819 21.755V19.795C7.01819 19.6783 7.07302 19.6013 7.18269 19.564C7.29236 19.5243 7.38336 19.5512 7.45569 19.6445L8.31319 20.7295L9.17069 19.6445C9.24302 19.5535 9.33402 19.5267 9.44369 19.564C9.55336 19.6013 9.60819 19.6783 9.60819 19.795V21.755C9.60819 21.8227 9.58486 21.881 9.53819 21.93Z" fill="#333333"/>
<path d="M4.98573 20.04V20.81H5.79073C5.89573 20.81 5.98673 20.7727 6.06373 20.698C6.13839 20.621 6.17573 20.53 6.17573 20.425C6.17573 20.3177 6.13839 20.2267 6.06373 20.152C5.98673 20.0773 5.89573 20.04 5.79073 20.04H4.98573ZM4.49573 21.755V19.795C4.49573 19.7273 4.51906 19.669 4.56573 19.62C4.61473 19.5733 4.67306 19.55 4.74073 19.55H5.79073C6.03106 19.55 6.23756 19.6352 6.41023 19.8055C6.58056 19.9782 6.66573 20.1847 6.66573 20.425C6.66573 20.5837 6.62606 20.7307 6.54673 20.866C6.46739 20.9967 6.36239 21.1005 6.23173 21.1775L6.60273 21.5905C6.64706 21.6418 6.66806 21.7013 6.66573 21.769C6.66106 21.8367 6.63423 21.8927 6.58523 21.937C6.53856 21.979 6.48373 22 6.42073 22C6.34839 22 6.28773 21.9732 6.23873 21.9195L5.68223 21.3H4.98573V21.755C4.98573 21.8227 4.96239 21.8798 4.91573 21.9265C4.86673 21.9755 4.80839 22 4.74073 22C4.67306 22 4.61473 21.9755 4.56573 21.9265C4.51906 21.8798 4.49573 21.8227 4.49573 21.755Z" fill="#333333"/>
<path d="M2.53504 20.81H3.27004C3.37271 20.81 3.46371 20.7727 3.54304 20.698C3.61771 20.6187 3.65504 20.5277 3.65504 20.425C3.65504 20.3177 3.61771 20.2267 3.54304 20.152C3.46371 20.0773 3.37271 20.04 3.27004 20.04H2.53504V20.81ZM2.04504 19.795C2.04504 19.7273 2.06954 19.669 2.11854 19.62C2.16521 19.5733 2.22238 19.55 2.29004 19.55H3.27004C3.51271 19.55 3.71921 19.6352 3.88954 19.8055C4.05988 19.9758 4.14504 20.1823 4.14504 20.425C4.14504 20.6677 4.05988 20.8742 3.88954 21.0445C3.71921 21.2148 3.51271 21.3 3.27004 21.3H2.53504V21.755C2.53504 21.8227 2.51171 21.8798 2.46504 21.9265C2.41604 21.9755 2.35771 22 2.29004 22C2.22238 22 2.16521 21.9755 2.11854 21.9265C2.06954 21.8798 2.04504 21.8227 2.04504 21.755V19.795Z" fill="#333333"/>
<path fill-rule="evenodd" clip-rule="evenodd" d="M9 12.75L2.5 12.75C2.08579 12.75 1.75 12.4142 1.75 12C1.75 11.5858 2.08579 11.25 2.5 11.25L9 11.25C9.41421 11.25 9.75 11.5858 9.75 12C9.75 12.4142 9.41421 12.75 9 12.75Z" fill="#333333"/>
<path fill-rule="evenodd" clip-rule="evenodd" d="M16.5 9.5C16.5 9.91421 16.1642 10.25 15.75 10.25L15 10.25C14.5858 10.25 14.25 9.91421 14.25 9.5C14.25 9.08579 14.5858 8.75 15 8.75L15.75 8.75C16.1642 8.75 16.5 9.08579 16.5 9.5Z" fill="#333333"/>
<path fill-rule="evenodd" clip-rule="evenodd" d="M19.375 14.5C19.375 14.9142 19.0392 15.25 18.625 15.25L17.875 15.25C17.4608 15.25 17.125 14.9142 17.125 14.5C17.125 14.0858 17.4608 13.75 17.875 13.75L18.625 13.75C19.0392 13.75 19.375 14.0858 19.375 14.5Z" fill="#333333"/>
<path fill-rule="evenodd" clip-rule="evenodd" d="M22.25 12C22.25 12.4142 21.9142 12.75 21.5 12.75L20.75 12.75C20.3358 12.75 20 12.4142 20 12C20 11.5858 20.3358 11.25 20.75 11.25L21.5 11.25C21.9142 11.25 22.25 11.5858 22.25 12Z" fill="#333333"/>
<path d="M4.7806 2.42V3.68H5.2306C5.4046 3.68 5.5526 3.618 5.6746 3.494C5.7986 3.372 5.8606 3.224 5.8606 3.05C5.8606 2.876 5.7986 2.728 5.6746 2.606C5.5526 2.482 5.4046 2.42 5.2306 2.42H4.7806ZM4.3606 3.89V2.21C4.3606 2.152 4.3806 2.102 4.4206 2.06C4.4626 2.02 4.5126 2 4.5706 2H5.2306C5.5206 2 5.7676 2.103 5.9716 2.309C6.1776 2.513 6.2806 2.76 6.2806 3.05C6.2806 3.34 6.1776 3.587 5.9716 3.791C5.7676 3.997 5.5206 4.1 5.2306 4.1H4.5706C4.5126 4.1 4.4626 4.079 4.4206 4.037C4.3806 3.997 4.3606 3.948 4.3606 3.89Z" fill="#579AFF"/>
<path d="M3.75993 3.73997V3.88997C3.75993 3.94797 3.73993 3.99697 3.69993 4.03697C3.65793 4.07897 3.60793 4.09997 3.54993 4.09997C3.49193 4.09997 3.44293 4.07897 3.40293 4.03697C3.36093 3.99697 3.33993 3.94797 3.33993 3.88997V3.73997H2.22993C2.15193 3.73997 2.09193 3.70597 2.04993 3.63797C2.00993 3.56997 2.00893 3.49997 2.04693 3.42797L2.76693 2.10797C2.79493 2.05797 2.83693 2.02497 2.89293 2.00897C2.94893 1.99297 3.00193 1.99897 3.05193 2.02697C3.10193 2.05297 3.13593 2.09397 3.15393 2.14997C3.16993 2.20597 3.16393 2.25897 3.13593 2.30897L2.58393 3.31997H3.33993V2.98997C3.33993 2.93197 3.36093 2.88197 3.40293 2.83997C3.44293 2.79997 3.49193 2.77997 3.54993 2.77997C3.60793 2.77997 3.65793 2.79997 3.69993 2.83997C3.73993 2.88197 3.75993 2.93197 3.75993 2.98997V3.31997H3.90993C3.96793 3.31997 4.01793 3.33997 4.05993 3.37997C4.09993 3.42197 4.11993 3.47197 4.11993 3.52997C4.11993 3.58797 4.09993 3.63697 4.05993 3.67697C4.01793 3.71897 3.96793 3.73997 3.90993 3.73997H3.75993Z" fill="#579AFF"/>
</svg>
