<svg width="24" height="24" viewBox="0 0 24 24" fill="none" xmlns="http://www.w3.org/2000/svg">
<path fill-rule="evenodd" clip-rule="evenodd" d="M12 2.00409C12.4142 2.00409 12.75 2.33988 12.75 2.75409L12.75 21.2541C12.75 21.6683 12.4142 22.0041 12 22.0041C11.5858 22.0041 11.25 21.6683 11.25 21.2541L11.25 2.75409C11.25 2.33988 11.5858 2.00409 12 2.00409Z" fill="#333333"/>
<path d="M7.92316 21.02H8.59866L8.26266 20.341L7.92316 21.02ZM8.47966 19.683L9.45966 21.643C9.49 21.7037 9.49466 21.7667 9.47366 21.832C9.45266 21.895 9.41183 21.9417 9.35116 21.972C9.31616 21.9907 9.28 22 9.24266 22C9.14 22 9.0665 21.9545 9.02216 21.8635L8.84366 21.51H7.67816L7.49966 21.8635C7.46933 21.9242 7.42266 21.965 7.35966 21.986C7.29433 22.007 7.23133 22.0023 7.17066 21.972C7.11 21.9417 7.06916 21.895 7.04816 21.832C7.02716 21.7667 7.03183 21.7037 7.06216 21.643L8.04216 19.683C8.08416 19.6013 8.15766 19.5605 8.26266 19.5605C8.36533 19.5605 8.43766 19.6013 8.47966 19.683Z" fill="#333333"/>
<path d="M5.12586 20.04V21.51H5.65086C5.85386 21.51 6.02653 21.4377 6.16886 21.293C6.31353 21.1507 6.38586 20.978 6.38586 20.775C6.38586 20.572 6.31353 20.3993 6.16886 20.257C6.02653 20.1123 5.85386 20.04 5.65086 20.04H5.12586ZM4.63586 21.755V19.795C4.63586 19.7273 4.6592 19.669 4.70586 19.62C4.75486 19.5733 4.8132 19.55 4.88086 19.55H5.65086C5.9892 19.55 6.27736 19.6702 6.51536 19.9105C6.7557 20.1485 6.87586 20.4367 6.87586 20.775C6.87586 21.1133 6.7557 21.4015 6.51536 21.6395C6.27736 21.8798 5.9892 22 5.65086 22H4.88086C4.8132 22 4.75486 21.9755 4.70586 21.9265C4.6592 21.8798 4.63586 21.8227 4.63586 21.755Z" fill="#333333"/>
<path d="M2.53504 20.04V21.51H3.06004C3.26304 21.51 3.43571 21.4377 3.57804 21.293C3.72271 21.1507 3.79504 20.978 3.79504 20.775C3.79504 20.572 3.72271 20.3993 3.57804 20.257C3.43571 20.1123 3.26304 20.04 3.06004 20.04H2.53504ZM2.04504 21.755V19.795C2.04504 19.7273 2.06838 19.669 2.11504 19.62C2.16404 19.5733 2.22238 19.55 2.29004 19.55H3.06004C3.39838 19.55 3.68654 19.6702 3.92454 19.9105C4.16488 20.1485 4.28504 20.4367 4.28504 20.775C4.28504 21.1133 4.16488 21.4015 3.92454 21.6395C3.68654 21.8798 3.39838 22 3.06004 22H2.29004C2.22238 22 2.16404 21.9755 2.11504 21.9265C2.06838 21.8798 2.04504 21.8227 2.04504 21.755Z" fill="#333333"/>
<path d="M19 6C19 6.55228 18.5523 7 18 7C17.4477 7 17 6.55228 17 6C17 5.44772 17.4477 5 18 5C18.5523 5 19 5.44772 19 6Z" fill="#333333"/>
<path d="M19 10C19 10.5523 18.5523 11 18 11C17.4477 11 17 10.5523 17 10C17 9.44772 17.4477 9 18 9C18.5523 9 19 9.44772 19 10Z" fill="#333333"/>
<path d="M19 14C19 14.5523 18.5523 15 18 15C17.4477 15 17 14.5523 17 14C17 13.4477 17.4477 13 18 13C18.5523 13 19 13.4477 19 14Z" fill="#333333"/>
<path d="M19 18C19 18.5523 18.5523 19 18 19C17.4477 19 17 18.5523 17 18C17 17.4477 17.4477 17 18 17C18.5523 17 19 17.4477 19 18Z" fill="#333333"/>
<path fill-rule="evenodd" clip-rule="evenodd" d="M9 12.75L2.5 12.75C2.08579 12.75 1.75 12.4142 1.75 12C1.75 11.5858 2.08579 11.25 2.5 11.25L9 11.25C9.41421 11.25 9.75 11.5858 9.75 12C9.75 12.4142 9.41421 12.75 9 12.75Z" fill="#333333"/>
<path d="M4.7806 2.42V3.68H5.2306C5.4046 3.68 5.5526 3.618 5.6746 3.494C5.7986 3.372 5.8606 3.224 5.8606 3.05C5.8606 2.876 5.7986 2.728 5.6746 2.606C5.5526 2.482 5.4046 2.42 5.2306 2.42H4.7806ZM4.3606 3.89V2.21C4.3606 2.152 4.3806 2.102 4.4206 2.06C4.4626 2.02 4.5126 2 4.5706 2H5.2306C5.5206 2 5.7676 2.103 5.9716 2.309C6.1776 2.513 6.2806 2.76 6.2806 3.05C6.2806 3.34 6.1776 3.587 5.9716 3.791C5.7676 3.997 5.5206 4.1 5.2306 4.1H4.5706C4.5126 4.1 4.4626 4.079 4.4206 4.037C4.3806 3.997 4.3606 3.948 4.3606 3.89Z" fill="#579AFF"/>
<path d="M3.75993 3.73997V3.88997C3.75993 3.94797 3.73993 3.99697 3.69993 4.03697C3.65793 4.07897 3.60793 4.09997 3.54993 4.09997C3.49193 4.09997 3.44293 4.07897 3.40293 4.03697C3.36093 3.99697 3.33993 3.94797 3.33993 3.88997V3.73997H2.22993C2.15193 3.73997 2.09193 3.70597 2.04993 3.63797C2.00993 3.56997 2.00893 3.49997 2.04693 3.42797L2.76693 2.10797C2.79493 2.05797 2.83693 2.02497 2.89293 2.00897C2.94893 1.99297 3.00193 1.99897 3.05193 2.02697C3.10193 2.05297 3.13593 2.09397 3.15393 2.14997C3.16993 2.20597 3.16393 2.25897 3.13593 2.30897L2.58393 3.31997H3.33993V2.98997C3.33993 2.93197 3.36093 2.88197 3.40293 2.83997C3.44293 2.79997 3.49193 2.77997 3.54993 2.77997C3.60793 2.77997 3.65793 2.79997 3.69993 2.83997C3.73993 2.88197 3.75993 2.93197 3.75993 2.98997V3.31997H3.90993C3.96793 3.31997 4.01793 3.33997 4.05993 3.37997C4.09993 3.42197 4.11993 3.47197 4.11993 3.52997C4.11993 3.58797 4.09993 3.63697 4.05993 3.67697C4.01793 3.71897 3.96793 3.73997 3.90993 3.73997H3.75993Z" fill="#579AFF"/>
</svg>
