<svg width="24" height="24" viewBox="0 0 24 24" fill="none" xmlns="http://www.w3.org/2000/svg">
<path fill-rule="evenodd" clip-rule="evenodd" d="M12 2.00409C12.4142 2.00409 12.75 2.33988 12.75 2.75409L12.75 21.2541C12.75 21.6683 12.4142 22.0041 12 22.0041C11.5858 22.0041 11.25 21.6683 11.25 21.2541L11.25 2.75409C11.25 2.33988 11.5858 2.00409 12 2.00409Z" fill="#333333"/>
<path fill-rule="evenodd" clip-rule="evenodd" d="M16.5 9L15 9C14.5858 9 14.25 8.66422 14.25 8.25C14.25 7.83579 14.5858 7.5 15 7.5L16.5 7.5C16.9142 7.5 17.25 7.83579 17.25 8.25C17.25 8.66421 16.9142 9 16.5 9Z" fill="#333333"/>
<path fill-rule="evenodd" clip-rule="evenodd" d="M19.25 10.75C19.25 11.1642 18.9142 11.5 18.5 11.5L17 11.5C16.5858 11.5 16.25 11.1642 16.25 10.75C16.25 10.3358 16.5858 10 17 10L18.5 10C18.9142 10 19.25 10.3358 19.25 10.75Z" fill="#333333"/>
<path fill-rule="evenodd" clip-rule="evenodd" d="M20.75 13.25C20.75 13.6642 20.4142 14 20 14L18.5 14C18.0858 14 17.75 13.6642 17.75 13.25C17.75 12.8358 18.0858 12.5 18.5 12.5L20 12.5C20.4142 12.5 20.75 12.8358 20.75 13.25Z" fill="#333333"/>
<path fill-rule="evenodd" clip-rule="evenodd" d="M22.25 15.75C22.25 16.1642 21.9142 16.5 21.5 16.5L20 16.5C19.5858 16.5 19.25 16.1642 19.25 15.75C19.25 15.3358 19.5858 15 20 15L21.5 15C21.9142 15 22.25 15.3358 22.25 15.75Z" fill="#333333"/>
<path fill-rule="evenodd" clip-rule="evenodd" d="M9 12.75L2.5 12.75C2.08579 12.75 1.75 12.4142 1.75 12C1.75 11.5858 2.08579 11.25 2.5 11.25L9 11.25C9.41421 11.25 9.75 11.5858 9.75 12C9.75 12.4142 9.41421 12.75 9 12.75Z" fill="#333333"/>
<path d="M6.3133 21.02H6.9888L6.6528 20.341L6.3133 21.02ZM6.8698 19.683L7.8498 21.643C7.88014 21.7037 7.8848 21.7667 7.8638 21.832C7.8428 21.895 7.80197 21.9417 7.7413 21.972C7.7063 21.9907 7.67014 22 7.6328 22C7.53014 22 7.45664 21.9545 7.4123 21.8635L7.2338 21.51H6.0683L5.8898 21.8635C5.85947 21.9242 5.8128 21.965 5.7498 21.986C5.68447 22.007 5.62147 22.0023 5.5608 21.972C5.50013 21.9417 5.4593 21.895 5.4383 21.832C5.4173 21.7667 5.42197 21.7037 5.4523 21.643L6.4323 19.683C6.4743 19.6013 6.5478 19.5605 6.6528 19.5605C6.75547 19.5605 6.8278 19.6013 6.8698 19.683Z" fill="#333333"/>
<path d="M5.05586 21.93C5.00686 21.9767 4.94853 22 4.88086 22C4.8132 22 4.75486 21.9767 4.70586 21.93C4.6592 21.881 4.63586 21.8227 4.63586 21.755V19.795C4.63586 19.7273 4.6592 19.669 4.70586 19.62C4.75486 19.5733 4.8132 19.55 4.88086 19.55C4.94853 19.55 5.00686 19.5733 5.05586 19.62C5.10253 19.669 5.12586 19.7273 5.12586 19.795V21.755C5.12586 21.8227 5.10253 21.881 5.05586 21.93Z" fill="#333333"/>
<path d="M2.53504 20.04V21.51H3.06004C3.26304 21.51 3.43571 21.4377 3.57804 21.293C3.72271 21.1507 3.79504 20.978 3.79504 20.775C3.79504 20.572 3.72271 20.3993 3.57804 20.257C3.43571 20.1123 3.26304 20.04 3.06004 20.04H2.53504ZM2.04504 21.755V19.795C2.04504 19.7273 2.06838 19.669 2.11504 19.62C2.16404 19.5733 2.22238 19.55 2.29004 19.55H3.06004C3.39838 19.55 3.68654 19.6702 3.92454 19.9105C4.16488 20.1485 4.28504 20.4367 4.28504 20.775C4.28504 21.1133 4.16488 21.4015 3.92454 21.6395C3.68654 21.8798 3.39838 22 3.06004 22H2.29004C2.22238 22 2.16404 21.9755 2.11504 21.9265C2.06838 21.8798 2.04504 21.8227 2.04504 21.755Z" fill="#333333"/>
<path d="M4.7806 2.42V3.68H5.2306C5.4046 3.68 5.5526 3.618 5.6746 3.494C5.7986 3.372 5.8606 3.224 5.8606 3.05C5.8606 2.876 5.7986 2.728 5.6746 2.606C5.5526 2.482 5.4046 2.42 5.2306 2.42H4.7806ZM4.3606 3.89V2.21C4.3606 2.152 4.3806 2.102 4.4206 2.06C4.4626 2.02 4.5126 2 4.5706 2H5.2306C5.5206 2 5.7676 2.103 5.9716 2.309C6.1776 2.513 6.2806 2.76 6.2806 3.05C6.2806 3.34 6.1776 3.587 5.9716 3.791C5.7676 3.997 5.5206 4.1 5.2306 4.1H4.5706C4.5126 4.1 4.4626 4.079 4.4206 4.037C4.3806 3.997 4.3606 3.948 4.3606 3.89Z" fill="#579AFF"/>
<path d="M3.75993 3.73997V3.88997C3.75993 3.94797 3.73993 3.99697 3.69993 4.03697C3.65793 4.07897 3.60793 4.09997 3.54993 4.09997C3.49193 4.09997 3.44293 4.07897 3.40293 4.03697C3.36093 3.99697 3.33993 3.94797 3.33993 3.88997V3.73997H2.22993C2.15193 3.73997 2.09193 3.70597 2.04993 3.63797C2.00993 3.56997 2.00893 3.49997 2.04693 3.42797L2.76693 2.10797C2.79493 2.05797 2.83693 2.02497 2.89293 2.00897C2.94893 1.99297 3.00193 1.99897 3.05193 2.02697C3.10193 2.05297 3.13593 2.09397 3.15393 2.14997C3.16993 2.20597 3.16393 2.25897 3.13593 2.30897L2.58393 3.31997H3.33993V2.98997C3.33993 2.93197 3.36093 2.88197 3.40293 2.83997C3.44293 2.79997 3.49193 2.77997 3.54993 2.77997C3.60793 2.77997 3.65793 2.79997 3.69993 2.83997C3.73993 2.88197 3.75993 2.93197 3.75993 2.98997V3.31997H3.90993C3.96793 3.31997 4.01793 3.33997 4.05993 3.37997C4.09993 3.42197 4.11993 3.47197 4.11993 3.52997C4.11993 3.58797 4.09993 3.63697 4.05993 3.67697C4.01793 3.71897 3.96793 3.73997 3.90993 3.73997H3.75993Z" fill="#579AFF"/>
</svg>
