<svg width="24" height="24" viewBox="0 0 24 24" fill="none" xmlns="http://www.w3.org/2000/svg">
<path fill-rule="evenodd" clip-rule="evenodd" d="M12 2.25C10.2051 2.25 8.75 3.70507 8.75 5.5C8.75 7.29493 10.2051 8.75 12 8.75C13.7949 8.75 15.25 7.29493 15.25 5.5C15.25 3.70507 13.7949 2.25 12 2.25ZM8.25 5.5C8.25 3.42893 9.92893 1.75 12 1.75C14.0711 1.75 15.75 3.42893 15.75 5.5C15.75 7.57107 14.0711 9.25 12 9.25C9.92893 9.25 8.25 7.57107 8.25 5.5Z" fill="#333333" class='xian'/>
<path fill-rule="evenodd" clip-rule="evenodd" d="M9.75 5.5C9.75 5.36193 9.86193 5.25 10 5.25H14C14.1381 5.25 14.25 5.36193 14.25 5.5C14.25 5.63807 14.1381 5.75 14 5.75H10C9.86193 5.75 9.75 5.63807 9.75 5.5Z" fill="#333333" class='xian'/>
<path fill-rule="evenodd" clip-rule="evenodd" d="M12 15.25C10.2051 15.25 8.75 16.7051 8.75 18.5C8.75 20.2949 10.2051 21.75 12 21.75C13.7949 21.75 15.25 20.2949 15.25 18.5C15.25 16.7051 13.7949 15.25 12 15.25ZM8.25 18.5C8.25 16.4289 9.92893 14.75 12 14.75C14.0711 14.75 15.75 16.4289 15.75 18.5C15.75 20.5711 14.0711 22.25 12 22.25C9.92893 22.25 8.25 20.5711 8.25 18.5Z" fill="#333333" class='xian'/>
<path fill-rule="evenodd" clip-rule="evenodd" d="M9.75 18.5C9.75 18.3619 9.86193 18.25 10 18.25H14C14.1381 18.25 14.25 18.3619 14.25 18.5C14.25 18.6381 14.1381 18.75 14 18.75H10C9.86193 18.75 9.75 18.6381 9.75 18.5Z" fill="#333333" class='xian'/>
<path fill-rule="evenodd" clip-rule="evenodd" d="M5.5 8.75C3.70507 8.75 2.25 10.2051 2.25 12C2.25 13.7949 3.70507 15.25 5.5 15.25C7.29493 15.25 8.75 13.7949 8.75 12C8.75 10.2051 7.29493 8.75 5.5 8.75ZM1.75 12C1.75 9.92893 3.42893 8.25 5.5 8.25C7.57107 8.25 9.25 9.92893 9.25 12C9.25 14.0711 7.57107 15.75 5.5 15.75C3.42893 15.75 1.75 14.0711 1.75 12Z" fill="#333333" class='xian'/>
<path fill-rule="evenodd" clip-rule="evenodd" d="M3.25 12C3.25 11.8619 3.36193 11.75 3.5 11.75H7.5C7.63807 11.75 7.75 11.8619 7.75 12C7.75 12.1381 7.63807 12.25 7.5 12.25H3.5C3.36193 12.25 3.25 12.1381 3.25 12Z" fill="#333333" class='xian'/>
<path fill-rule="evenodd" clip-rule="evenodd" d="M5.5 9.75C5.63807 9.75 5.75 9.86193 5.75 10L5.75 14C5.75 14.1381 5.63807 14.25 5.5 14.25C5.36193 14.25 5.25 14.1381 5.25 14L5.25 10C5.25 9.86193 5.36193 9.75 5.5 9.75Z" fill="#333333" class='xian'/>
<path fill-rule="evenodd" clip-rule="evenodd" d="M18.5 8.75C16.7051 8.75 15.25 10.2051 15.25 12C15.25 13.7949 16.7051 15.25 18.5 15.25C20.2949 15.25 21.75 13.7949 21.75 12C21.75 10.2051 20.2949 8.75 18.5 8.75ZM14.75 12C14.75 9.92893 16.4289 8.25 18.5 8.25C20.5711 8.25 22.25 9.92893 22.25 12C22.25 14.0711 20.5711 15.75 18.5 15.75C16.4289 15.75 14.75 14.0711 14.75 12Z" fill="#333333" class='xian'/>
<path fill-rule="evenodd" clip-rule="evenodd" d="M16.25 12C16.25 11.8619 16.3619 11.75 16.5 11.75H20.5C20.6381 11.75 20.75 11.8619 20.75 12C20.75 12.1381 20.6381 12.25 20.5 12.25H16.5C16.3619 12.25 16.25 12.1381 16.25 12Z" fill="#333333" class='xian'/>
<path fill-rule="evenodd" clip-rule="evenodd" d="M18.5 9.75C18.6381 9.75 18.75 9.86193 18.75 10L18.75 14C18.75 14.1381 18.6381 14.25 18.5 14.25C18.3619 14.25 18.25 14.1381 18.25 14L18.25 10C18.25 9.86193 18.3619 9.75 18.5 9.75Z" fill="#333333" class='xian'/>
</svg>
