<svg width="24" height="24" viewBox="0 0 24 24" fill="none" xmlns="http://www.w3.org/2000/svg">
<path fill-rule="evenodd" clip-rule="evenodd" d="M1.75 4C1.75 3.86193 1.86193 3.75 2 3.75H22C22.1381 3.75 22.25 3.86193 22.25 4C22.25 4.13807 22.1381 4.25 22 4.25H2C1.86193 4.25 1.75 4.13807 1.75 4Z" fill="#333333" class='xian'/>
<path fill-rule="evenodd" clip-rule="evenodd" d="M1.75 20C1.75 19.8619 1.86193 19.75 2 19.75H22C22.1381 19.75 22.25 19.8619 22.25 20C22.25 20.1381 22.1381 20.25 22 20.25H2C1.86193 20.25 1.75 20.1381 1.75 20Z" fill="#333333" class='xian'/>
<path d="M3.09692 5.5V4H20.9034V5.5H20.2582V8.96774L18.1937 10.2581V13.8065L20.2582 15.1613V18.129H20.9034V20H3.22596V17.9355H3.87112V15.1613L5.67757 13.8065V10.2581L3.87112 8.96774V5.5H3.09692Z" fill="#CACACA" class='mian'/>
<path fill-rule="evenodd" clip-rule="evenodd" d="M2.84692 4C2.84692 3.86193 2.95885 3.75 3.09692 3.75H20.9034C21.0414 3.75 21.1534 3.86193 21.1534 4V5.5C21.1534 5.63807 21.0414 5.75 20.9034 5.75H20.5082V8.96774C20.5082 9.05394 20.4638 9.13406 20.3907 9.17974L18.4437 10.3966V13.6715L20.3954 14.9523C20.4658 14.9985 20.5082 15.0771 20.5082 15.1613V17.879H20.9034C21.0414 17.879 21.1534 17.991 21.1534 18.129V20C21.1534 20.1381 21.0414 20.25 20.9034 20.25H3.22596C3.08788 20.25 2.97596 20.1381 2.97596 20V17.9355C2.97596 17.7974 3.08788 17.6855 3.22596 17.6855H3.62112V15.1613C3.62112 15.0826 3.65817 15.0085 3.72112 14.9613L5.42757 13.6815V10.3867L3.72581 9.17118C3.66011 9.12425 3.62112 9.04848 3.62112 8.96774V5.75H3.09692C2.95885 5.75 2.84692 5.63807 2.84692 5.5V4ZM3.34692 4.25V5.25H3.87112C4.00919 5.25 4.12112 5.36193 4.12112 5.5V8.83909L5.82288 10.0546C5.88858 10.1016 5.92757 10.1773 5.92757 10.2581V13.8065C5.92757 13.8851 5.89052 13.9592 5.82757 14.0065L4.12112 15.2863V17.9355C4.12112 18.0736 4.00919 18.1855 3.87112 18.1855H3.47596V19.75H20.6534V18.379H20.2582C20.1201 18.379 20.0082 18.2671 20.0082 18.129V15.2963L18.0565 14.0155C17.9861 13.9692 17.9437 13.8907 17.9437 13.8065V10.2581C17.9437 10.1719 17.9881 10.0917 18.0612 10.0461L20.0082 8.82918V5.5C20.0082 5.36193 20.1201 5.25 20.2582 5.25H20.6534V4.25H3.34692Z" fill="#333333" class='xian'/>
<path d="M8.32251 4H15.6773V5.5H8.32251V4Z" fill="url(#paint0_linear_2720_1361)" class='mian'/>
<path fill-rule="evenodd" clip-rule="evenodd" d="M8.07251 4C8.07251 3.86193 8.18444 3.75 8.32251 3.75H15.6773C15.8154 3.75 15.9273 3.86193 15.9273 4V5.5C15.9273 5.63807 15.8154 5.75 15.6773 5.75H8.32251C8.18444 5.75 8.07251 5.63807 8.07251 5.5V4ZM8.57251 4.25V5.25H15.4273V4.25H8.57251Z" fill="#333333" class='xian'/>
<path d="M8.32251 5.5H15.6773L14.387 6.5H9.61283L8.32251 5.5Z" fill="url(#paint1_linear_2720_1361)" class='mian'/>
<path d="M8.32251 5.5H15.6773L14.387 6.5H9.61283L8.32251 5.5Z" fill="url(#paint2_linear_2720_1361)" fill-opacity="0.5" class='mian'/>
<path fill-rule="evenodd" clip-rule="evenodd" d="M8.08597 5.41907C8.12057 5.31795 8.21563 5.25 8.32251 5.25H15.6773C15.7842 5.25 15.8793 5.31795 15.9139 5.41907C15.9485 5.5202 15.915 5.63213 15.8305 5.6976L14.5402 6.6976C14.4963 6.73157 14.4425 6.75 14.387 6.75H9.61283C9.55739 6.75 9.50351 6.73157 9.45969 6.6976L8.16937 5.6976C8.08489 5.63213 8.05137 5.5202 8.08597 5.41907ZM9.05321 5.75L9.69837 6.25H14.3015L14.9467 5.75H9.05321Z" fill="#333333" class='xian'/>
<path d="M8.32251 20H15.6773V18.5H8.32251V20Z" fill="url(#paint3_linear_2720_1361)" class='mian'/>
<path fill-rule="evenodd" clip-rule="evenodd" d="M8.07251 20C8.07251 20.1381 8.18444 20.25 8.32251 20.25H15.6773C15.8154 20.25 15.9273 20.1381 15.9273 20V18.5C15.9273 18.3619 15.8154 18.25 15.6773 18.25H8.32251C8.18444 18.25 8.07251 18.3619 8.07251 18.5V20ZM8.57251 19.75V18.75H15.4273V19.75H8.57251Z" fill="#333333" class='xian'/>
<path d="M8.32251 18.5H15.6773L14.387 17.5H9.61283L8.32251 18.5Z" fill="url(#paint4_linear_2720_1361)" class='mian'/>
<path d="M8.32251 18.5H15.6773L14.387 17.5H9.61283L8.32251 18.5Z" fill="url(#paint5_linear_2720_1361)" fill-opacity="0.5" class='mian'/>
<path fill-rule="evenodd" clip-rule="evenodd" d="M8.08597 18.5809C8.12057 18.6821 8.21563 18.75 8.32251 18.75H15.6773C15.7842 18.75 15.8793 18.6821 15.9139 18.5809C15.9485 18.4798 15.915 18.3679 15.8305 18.3024L14.5402 17.3024C14.4963 17.2684 14.4425 17.25 14.387 17.25H9.61283C9.55739 17.25 9.50351 17.2684 9.45969 17.3024L8.16937 18.3024C8.08489 18.3679 8.05137 18.4798 8.08597 18.5809ZM9.05321 18.25L9.69837 17.75H14.3015L14.9467 18.25H9.05321Z" fill="#333333" class='xian'/>
<path fill-rule="evenodd" clip-rule="evenodd" d="M5.07766 6.82692C5.17325 6.72729 5.33151 6.72401 5.43114 6.8196C8.21378 9.48943 8.45341 13.8582 5.97948 16.8164L5.69177 17.1604C5.6032 17.2663 5.44553 17.2804 5.33962 17.1918C5.2337 17.1032 5.21965 16.9455 5.30823 16.8396L5.59593 16.4956C7.90119 13.7391 7.6779 9.6682 5.08497 7.1804C4.98535 7.08481 4.98207 6.92655 5.07766 6.82692Z" fill="#333333" class='xian'/>
<path fill-rule="evenodd" clip-rule="evenodd" d="M5.08602 6.8186C5.18621 6.72359 5.34444 6.72778 5.43945 6.82797L5.55244 6.94711C8.25579 9.79757 8.31386 14.2472 5.68582 17.1672C5.59346 17.2699 5.43539 17.2782 5.33276 17.1858C5.23013 17.0935 5.22181 16.9354 5.31418 16.8328C7.76773 14.1066 7.71351 9.95238 5.18965 7.29117L5.07666 7.17203C4.98165 7.07185 4.98584 6.91362 5.08602 6.8186Z" fill="#333333" class='xian'/>
<path fill-rule="evenodd" clip-rule="evenodd" d="M18.914 17.1814C18.8138 17.2764 18.6556 17.2722 18.5605 17.172L18.4476 17.0529C15.7442 14.2024 15.6861 9.75279 18.3142 6.83276C18.4065 6.73013 18.5646 6.72181 18.6672 6.81418C18.7699 6.90654 18.7782 7.06461 18.6858 7.16724C16.2323 9.89341 16.2865 14.0476 18.8103 16.7088L18.9233 16.828C19.0184 16.9281 19.0142 17.0864 18.914 17.1814Z" fill="#333333" class='xian'/>
<path fill-rule="evenodd" clip-rule="evenodd" d="M5.29446 5.35773C5.21587 5.47125 5.24418 5.62699 5.3577 5.70558C9.37621 8.48762 14.674 8.57824 18.7853 5.93526L19.1352 5.71033C19.2513 5.63566 19.285 5.48098 19.2103 5.36484C19.1356 5.2487 18.981 5.21507 18.8648 5.28974L18.5149 5.51467C14.5736 8.04841 9.49472 7.96154 5.64231 5.29448C5.52879 5.21589 5.37305 5.24421 5.29446 5.35773Z" fill="#333333" class='xian'/>
<path fill-rule="evenodd" clip-rule="evenodd" d="M5.29446 18.6423C5.21587 18.5288 5.24418 18.373 5.3577 18.2944C9.37621 15.5124 14.674 15.4218 18.7853 18.0647L19.1352 18.2897C19.2513 18.3643 19.285 18.519 19.2103 18.6352C19.1356 18.7513 18.981 18.7849 18.8648 18.7103L18.5149 18.4853C14.5736 15.9516 9.49472 16.0385 5.64231 18.7055C5.52879 18.7841 5.37305 18.7558 5.29446 18.6423Z" fill="#333333" class='xian'/>
<path d="M2 5.5H5.5V7H2V5.5Z" fill="white"/>
<path fill-rule="evenodd" clip-rule="evenodd" d="M1.75 5.5C1.75 5.36193 1.86193 5.25 2 5.25H5.5C5.63807 5.25 5.75 5.36193 5.75 5.5V7C5.75 7.13807 5.63807 7.25 5.5 7.25H2C1.86193 7.25 1.75 7.13807 1.75 7V5.5ZM2.25 5.75V6.75H5.25V5.75H2.25Z" fill="#333333" class='xian'/>
<path d="M2 17H5.5V18.5H2V17Z" fill="white"/>
<path fill-rule="evenodd" clip-rule="evenodd" d="M1.75 17C1.75 16.8619 1.86193 16.75 2 16.75H5.5C5.63807 16.75 5.75 16.8619 5.75 17V18.5C5.75 18.6381 5.63807 18.75 5.5 18.75H2C1.86193 18.75 1.75 18.6381 1.75 18.5V17ZM2.25 17.25V18.25H5.25V17.25H2.25Z" fill="#333333" class='xian'/>
<path d="M18.5 17H22V18.5H18.5V17Z" fill="white"/>
<path fill-rule="evenodd" clip-rule="evenodd" d="M18.25 17C18.25 16.8619 18.3619 16.75 18.5 16.75H22C22.1381 16.75 22.25 16.8619 22.25 17V18.5C22.25 18.6381 22.1381 18.75 22 18.75H18.5C18.3619 18.75 18.25 18.6381 18.25 18.5V17ZM18.75 17.25V18.25H21.75V17.25H18.75Z" fill="#333333" class='xian'/>
<path d="M18.5 5.5H22V7H18.5V5.5Z" fill="white"/>
<path fill-rule="evenodd" clip-rule="evenodd" d="M18.25 5.5C18.25 5.36193 18.3619 5.25 18.5 5.25H22C22.1381 5.25 22.25 5.36193 22.25 5.5V7C22.25 7.13807 22.1381 7.25 22 7.25H18.5C18.3619 7.25 18.25 7.13807 18.25 7V5.5ZM18.75 5.75V6.75H21.75V5.75H18.75Z" fill="#333333" class='xian'/>
<path fill-rule="evenodd" clip-rule="evenodd" d="M2.98047 5.5C2.98047 5.36193 3.0924 5.25 3.23047 5.25H20.6172C20.7553 5.25 20.8672 5.36193 20.8672 5.5C20.8672 5.63807 20.7553 5.75 20.6172 5.75H3.23047C3.0924 5.75 2.98047 5.63807 2.98047 5.5Z" fill="#333333" class='xian'/>
<path fill-rule="evenodd" clip-rule="evenodd" d="M2.98047 18.5C2.98047 18.3619 3.0924 18.25 3.23047 18.25H20.6172C20.7553 18.25 20.8672 18.3619 20.8672 18.5C20.8672 18.6381 20.7553 18.75 20.6172 18.75H3.23047C3.0924 18.75 2.98047 18.6381 2.98047 18.5Z" fill="#333333" class='xian'/>
<path fill-rule="evenodd" clip-rule="evenodd" d="M18.6872 6.08436C18.7787 6.18777 18.769 6.34577 18.6656 6.43725L18.1085 6.93011C18.0051 7.02159 17.8471 7.01192 17.7556 6.9085C17.6641 6.80509 17.6738 6.64709 17.7772 6.55561L18.3343 6.06275C18.4378 5.97127 18.5958 5.98094 18.6872 6.08436ZM16.6444 7.8915C16.7359 7.99492 16.7262 8.15291 16.6228 8.2444L15.5085 9.23011C15.4051 9.32159 15.2471 9.31192 15.1556 9.2085C15.0641 9.10509 15.0738 8.94709 15.1772 8.85561L16.2915 7.8699C16.3949 7.77841 16.5529 7.78809 16.6444 7.8915ZM14.0444 10.1915C14.1359 10.2949 14.1262 10.4529 14.0228 10.5444L12.9085 11.5301C12.8051 11.6216 12.6471 11.6119 12.5556 11.5085C12.4641 11.4051 12.4738 11.2471 12.5772 11.1556L13.6915 10.1699C13.7949 10.0784 13.9529 10.0881 14.0444 10.1915ZM11.4444 12.4915C11.5359 12.5949 11.5262 12.7529 11.4228 12.8444L10.3085 13.8301C10.2051 13.9216 10.0471 13.9119 9.9556 13.8085C9.86411 13.7051 9.87379 13.5471 9.9772 13.4556L11.0915 12.4699C11.1949 12.3784 11.3529 12.3881 11.4444 12.4915ZM8.84438 14.7915C8.93586 14.8949 8.92619 15.0529 8.82277 15.1444L7.70849 16.1301C7.60507 16.2216 7.44708 16.2119 7.3556 16.1085C7.26411 16.0051 7.27379 15.8471 7.3772 15.7556L8.49149 14.7699C8.5949 14.6784 8.7529 14.6881 8.84438 14.7915ZM6.24438 17.0915C6.33586 17.1949 6.32619 17.3529 6.22277 17.4444L5.66563 17.9373C5.56222 18.0287 5.40422 18.0191 5.31274 17.9156C5.22126 17.8122 5.23093 17.6542 5.33434 17.5628L5.89149 17.0699C5.9949 16.9784 6.1529 16.9881 6.24438 17.0915Z" fill="#333333" class='xian'/>
<path fill-rule="evenodd" clip-rule="evenodd" d="M5.31264 6.08436C5.22116 6.18777 5.23083 6.34577 5.33425 6.43725L5.89139 6.93011C5.99481 7.02159 6.1528 7.01192 6.24428 6.9085C6.33576 6.80509 6.32609 6.64709 6.22268 6.55561L5.66553 6.06275C5.56212 5.97127 5.40412 5.98094 5.31264 6.08436ZM7.3555 7.8915C7.26402 7.99492 7.27369 8.15291 7.3771 8.2444L8.49139 9.23011C8.5948 9.32159 8.7528 9.31192 8.84428 9.2085C8.93577 9.10509 8.92609 8.94709 8.82268 8.85561L7.70839 7.8699C7.60498 7.77841 7.44698 7.78809 7.3555 7.8915ZM9.9555 10.1915C9.86402 10.2949 9.87369 10.4529 9.9771 10.5444L11.0914 11.5301C11.1948 11.6216 11.3528 11.6119 11.4443 11.5085C11.5358 11.4051 11.5261 11.2471 11.4227 11.1556L10.3084 10.1699C10.205 10.0784 10.047 10.0881 9.9555 10.1915ZM12.5555 12.4915C12.464 12.5949 12.4737 12.7529 12.5771 12.8444L13.6914 13.8301C13.7948 13.9216 13.9528 13.9119 14.0443 13.8085C14.1358 13.7051 14.1261 13.5471 14.0227 13.4556L12.9084 12.4699C12.805 12.3784 12.647 12.3881 12.5555 12.4915ZM15.1555 14.7915C15.064 14.8949 15.0737 15.0529 15.1771 15.1444L16.2914 16.1301C16.3948 16.2216 16.5528 16.2119 16.6443 16.1085C16.7358 16.0051 16.7261 15.8471 16.6227 15.7556L15.5084 14.7699C15.405 14.6784 15.247 14.6881 15.1555 14.7915ZM17.7555 17.0915C17.664 17.1949 17.6737 17.3529 17.7771 17.4444L18.3342 17.9373C18.4377 18.0287 18.5957 18.0191 18.6871 17.9156C18.7786 17.8122 18.7689 17.6542 18.6655 17.5628L18.1084 17.0699C18.005 16.9784 17.847 16.9881 17.7555 17.0915Z" fill="#333333" class='xian'/>
<defs>
<linearGradient id="paint0_linear_2720_1361" x1="8.32251" y1="4.75" x2="15.6773" y2="4.75" gradientUnits="userSpaceOnUse">
<stop stop-color="#808080"/>
<stop offset="0.0935277" stop-color="#646464"/>
<stop offset="0.181259" stop-color="#AEAEAE"/>
<stop offset="0.254368" stop-color="#989898"/>
<stop offset="0.339175" stop-color="#BABABA"/>
<stop offset="0.438604" stop-color="#AEAEAE"/>
<stop offset="0.517562" stop-color="#D8D8D8"/>
<stop offset="0.608217" stop-color="#6A6A6A"/>
<stop offset="0.713495" stop-color="#ADADAD"/>
<stop offset="0.78368" stop-color="#8F8F8F"/>
<stop offset="0.909428" stop-color="#757575"/>
<stop offset="1" stop-color="#ABABAB"/>
</linearGradient>
<linearGradient id="paint1_linear_2720_1361" x1="12.0644" y1="5.77273" x2="14.5917" y2="6.56014" gradientUnits="userSpaceOnUse">
<stop stop-color="white"/>
<stop offset="0.216416" stop-color="#4D4D4D"/>
<stop offset="0.635114" stop-color="#E5E5E5"/>
<stop offset="0.995638" stop-color="#D9D9D9" stop-opacity="0"/>
</linearGradient>
<linearGradient id="paint2_linear_2720_1361" x1="9.41928" y1="6.36364" x2="13.2352" y2="4.26187" gradientUnits="userSpaceOnUse">
<stop offset="0.0984565" stop-color="#BABABA"/>
<stop offset="0.289582" stop-color="#ADADAD"/>
<stop offset="0.475896" stop-color="#DADADA"/>
<stop offset="0.840354" stop-color="white" stop-opacity="0.466429"/>
<stop offset="0.924957" stop-color="white" stop-opacity="0.466429"/>
</linearGradient>
<linearGradient id="paint3_linear_2720_1361" x1="8.32251" y1="19.25" x2="15.6773" y2="19.25" gradientUnits="userSpaceOnUse">
<stop stop-color="#808080"/>
<stop offset="0.0935277" stop-color="#646464"/>
<stop offset="0.181259" stop-color="#AEAEAE"/>
<stop offset="0.254368" stop-color="#989898"/>
<stop offset="0.339175" stop-color="#BABABA"/>
<stop offset="0.438604" stop-color="#AEAEAE"/>
<stop offset="0.517562" stop-color="#D8D8D8"/>
<stop offset="0.608217" stop-color="#6A6A6A"/>
<stop offset="0.713495" stop-color="#ADADAD"/>
<stop offset="0.78368" stop-color="#8F8F8F"/>
<stop offset="0.909428" stop-color="#757575"/>
<stop offset="1" stop-color="#ABABAB"/>
</linearGradient>
<linearGradient id="paint4_linear_2720_1361" x1="12.0644" y1="18.2273" x2="14.5917" y2="17.4399" gradientUnits="userSpaceOnUse">
<stop stop-color="white"/>
<stop offset="0.216416" stop-color="#4D4D4D"/>
<stop offset="0.635114" stop-color="#E5E5E5"/>
<stop offset="0.995638" stop-color="#D9D9D9" stop-opacity="0"/>
</linearGradient>
<linearGradient id="paint5_linear_2720_1361" x1="9.41928" y1="17.6364" x2="13.2352" y2="19.7381" gradientUnits="userSpaceOnUse">
<stop offset="0.0984565" stop-color="#BABABA"/>
<stop offset="0.289582" stop-color="#ADADAD"/>
<stop offset="0.475896" stop-color="#DADADA"/>
<stop offset="0.840354" stop-color="white" stop-opacity="0.466429"/>
<stop offset="0.924957" stop-color="white" stop-opacity="0.466429"/>
</linearGradient>
</defs>
</svg>
