<svg width="24" height="24" viewBox="0 0 24 24" fill="none" xmlns="http://www.w3.org/2000/svg">
<path fill-rule="evenodd" clip-rule="evenodd" d="M2.33437 10.32C2.33437 10.4581 2.44629 10.57 2.58437 10.57C3.56651 10.57 4.27314 10.3849 4.87068 10.0999C5.34207 9.87498 5.74477 9.58669 6.1451 9.3001C6.24267 9.23025 6.3401 9.16051 6.43835 9.0918C6.94551 8.73715 7.50233 8.38783 8.282 8.11954C9.06302 7.85078 10.0791 7.65954 11.5037 7.63788C11.6417 7.63578 11.752 7.52216 11.7499 7.38411C11.7478 7.24605 11.6341 7.13584 11.4961 7.13794C10.0299 7.16023 8.95988 7.35749 8.11931 7.64675C7.27738 7.93646 6.67718 8.31467 6.15181 8.68205C6.04354 8.75776 5.93956 8.83212 5.83806 8.9047C5.44164 9.18817 5.08315 9.44451 4.65539 9.64859C4.12937 9.89955 3.49691 10.07 2.58437 10.07C2.44629 10.07 2.33437 10.1819 2.33437 10.32Z" fill="#333333" class='xian'/>
<path fill-rule="evenodd" clip-rule="evenodd" d="M21.6656 10.32C21.6656 10.4581 21.5537 10.57 21.4156 10.57C20.4335 10.57 19.7268 10.3849 19.1293 10.0999C18.6579 9.87498 18.2551 9.5867 17.8548 9.30011C17.7572 9.23026 17.6598 9.16051 17.5615 9.09181C17.0543 8.73715 16.4975 8.38783 15.7178 8.11954C14.9367 7.85078 13.9206 7.65954 12.496 7.63788C12.358 7.63578 12.2478 7.52216 12.2499 7.38411C12.252 7.24605 12.3656 7.13584 12.5036 7.13794C13.9698 7.16023 15.0399 7.35749 15.8805 7.64674C16.7224 7.93646 17.3227 8.31467 17.848 8.68205C17.9563 8.75776 18.0603 8.83212 18.1618 8.90469C18.5583 9.18817 18.9168 9.44451 19.3446 9.64859C19.8706 9.89955 20.5031 10.07 21.4156 10.07C21.5537 10.07 21.6656 10.1819 21.6656 10.32Z" fill="#333333" class='xian'/>
<path fill-rule="evenodd" clip-rule="evenodd" d="M2.33437 13.7603C2.33437 13.6222 2.44629 13.5103 2.58437 13.5103C3.56728 13.5103 4.27453 13.6993 4.87244 13.9903C5.34383 14.2197 5.74653 14.5138 6.14676 14.806C6.24442 14.8773 6.34192 14.9485 6.44025 15.0187C6.94746 15.3804 7.50412 15.7365 8.2834 16.0099C9.06396 16.2837 10.0796 16.4784 11.5037 16.5C11.6417 16.5021 11.752 16.6157 11.7499 16.7538C11.7478 16.8919 11.6341 17.0021 11.4961 17C10.0295 16.9777 8.95893 16.7767 8.1179 16.4817C7.27559 16.1862 6.67523 15.8004 6.14991 15.4257C6.0415 15.3484 5.93739 15.2725 5.83577 15.1983C5.43948 14.9093 5.08116 14.648 4.65363 14.4399C4.12798 14.184 3.49614 14.0103 2.58437 14.0103C2.44629 14.0103 2.33437 13.8984 2.33437 13.7603Z" fill="#333333" class='xian'/>
<path fill-rule="evenodd" clip-rule="evenodd" d="M21.6656 13.7603C21.6656 13.6222 21.5537 13.5103 21.4156 13.5103C20.4365 13.5103 19.7309 13.6978 19.1344 13.987C18.6599 14.2169 18.2556 14.5121 17.8538 14.8056C17.7598 14.8742 17.6659 14.9427 17.5714 15.0103C17.0667 15.3708 16.5145 15.7262 15.7434 16.0003C14.9711 16.2749 13.9677 16.472 12.5615 16.4989C12.4235 16.5015 12.3137 16.6156 12.3164 16.7536C12.319 16.8917 12.433 17.0015 12.5711 16.9988C14.02 16.9711 15.0784 16.7674 15.9109 16.4714C16.7445 16.175 17.34 15.7901 17.862 15.4171C17.9659 15.3429 18.0658 15.27 18.1634 15.1988C18.562 14.9081 18.9223 14.6454 19.3524 14.4369C19.8768 14.1827 20.5073 14.0103 21.4156 14.0103C21.5537 14.0103 21.6656 13.8984 21.6656 13.7603Z" fill="#333333" class='xian'/>
<path fill-rule="evenodd" clip-rule="evenodd" d="M10.1204 4.75C10.1204 4.61193 10.2323 4.5 10.3704 4.5H11.4999C11.6372 4.5 11.7488 4.61068 11.7499 4.74795L11.7952 10.2727C11.7963 10.4107 11.6853 10.5236 11.5472 10.5247C11.4091 10.5258 11.2963 10.4148 11.2952 10.2767L11.2519 5H10.6204V6.55C10.6204 6.68807 10.5085 6.8 10.3704 6.8H3.55865V8.78087C3.55865 8.91894 3.44672 9.03087 3.30865 9.03087H2.83437V11.5C2.83437 11.6381 2.72244 11.75 2.58437 11.75C2.44629 11.75 2.33437 11.6381 2.33437 11.5V8.78087C2.33437 8.6428 2.44629 8.53087 2.58437 8.53087H3.05865V6.55C3.05865 6.41193 3.17058 6.3 3.30865 6.3H10.1204V4.75ZM12.2499 4.75C12.2499 4.61193 12.3618 4.5 12.4999 4.5H13.6296C13.7677 4.5 13.8796 4.61193 13.8796 4.75V6.3H20.6008C20.7389 6.3 20.8508 6.41193 20.8508 6.55V8.53087H21.4157C21.5537 8.53087 21.6657 8.6428 21.6657 8.78087V11.5C21.6657 11.6381 21.5537 11.75 21.4157 11.75C21.2776 11.75 21.1657 11.6381 21.1657 11.5V9.03087H20.6008C20.4628 9.03087 20.3508 8.91894 20.3508 8.78087V6.8H13.6296C13.4916 6.8 13.3796 6.68807 13.3796 6.55V5H12.7499V10.2747C12.7499 10.4128 12.638 10.5247 12.4999 10.5247C12.3618 10.5247 12.2499 10.4128 12.2499 10.2747V4.75ZM2.58437 12.3C2.72244 12.3 2.83437 12.4119 2.83437 12.55V15.2305H3.35391C3.49198 15.2305 3.60391 15.3424 3.60391 15.4805V17.177H10.3704C10.5085 17.177 10.6204 17.2889 10.6204 17.427V19H11.2499V13.9414C11.2499 13.8033 11.3618 13.6914 11.4999 13.6914C11.638 13.6914 11.7499 13.8033 11.7499 13.9414V19.25C11.7499 19.3881 11.638 19.5 11.4999 19.5H10.3704C10.2323 19.5 10.1204 19.3881 10.1204 19.25V17.677H3.35391C3.21584 17.677 3.10391 17.565 3.10391 17.427V15.7305H2.58437C2.44629 15.7305 2.33437 15.6185 2.33437 15.4805V12.55C2.33437 12.4119 2.44629 12.3 2.58437 12.3ZM21.4157 12.3C21.5537 12.3 21.6657 12.4119 21.6657 12.55V15.4352C21.6657 15.5733 21.5537 15.6852 21.4157 15.6852H20.8508V17.427C20.8508 17.565 20.7389 17.677 20.6008 17.677H13.8796V19.25C13.8796 19.3881 13.7677 19.5 13.6296 19.5H12.5401C12.4021 19.5 12.2901 19.3881 12.2901 19.25V13.9414C12.2901 13.8033 12.4021 13.6914 12.5401 13.6914C12.6782 13.6914 12.7901 13.8033 12.7901 13.9414V19H13.3796V17.427C13.3796 17.2889 13.4916 17.177 13.6296 17.177H20.3508V15.4352C20.3508 15.2971 20.4628 15.1852 20.6008 15.1852H21.1657V12.55C21.1657 12.4119 21.2776 12.3 21.4157 12.3Z" fill="#333333" class='xian'/>
<path fill-rule="evenodd" clip-rule="evenodd" d="M20.5772 11.5422C20.5772 11.4041 20.6891 11.2922 20.8272 11.2922H22.8272C22.9652 11.2922 23.0772 11.4041 23.0772 11.5422V12.5422C23.0772 12.6802 22.9652 12.7922 22.8272 12.7922H20.8272C20.6891 12.7922 20.5772 12.6802 20.5772 12.5422V11.5422ZM21.0772 11.7922V12.2922H22.5772V11.7922H21.0772Z" fill="#333333" class='xian'/>
<path fill-rule="evenodd" clip-rule="evenodd" d="M0.919891 11.5422C0.919891 11.4041 1.03182 11.2922 1.16989 11.2922H3.16989C3.30796 11.2922 3.41989 11.4041 3.41989 11.5422V12.5422C3.41989 12.6802 3.30796 12.7922 3.16989 12.7922H1.16989C1.03182 12.7922 0.919891 12.6802 0.919891 12.5422V11.5422ZM1.41989 11.7922V12.2922H2.91989V11.7922H1.41989Z" fill="#333333" class='xian'/>
<path fill-rule="evenodd" clip-rule="evenodd" d="M21 11.3371C15.1227 9.61337 8.87502 9.61389 3 11.3366V11.858C8.87091 10.1068 15.1268 10.1062 21 11.8585V11.3371ZM21 12.2593C15.1268 14.0115 8.87091 14.011 3 12.2597V12.7811C8.87502 14.5039 15.1227 14.5044 21 12.7807V12.2593Z" fill="#333333" class='xian'/>
<path fill-rule="evenodd" clip-rule="evenodd" d="M9.01229 9.66163C8.82296 9.87269 8.65968 10.1889 8.53292 10.5775C8.49011 10.7088 8.34899 10.7805 8.21773 10.7377C8.08646 10.6949 8.01475 10.5538 8.05757 10.4225C8.19603 9.99796 8.38695 9.60995 8.64011 9.32775C8.89714 9.04124 9.23065 8.85253 9.63442 8.87255C10.0277 8.89204 10.435 9.10758 10.8535 9.50801C11.274 9.91027 11.7277 10.5196 12.2171 11.3759C12.261 11.4528 12.261 11.5471 12.2171 11.624C11.6298 12.6517 11.1067 13.4128 10.6439 13.9489C10.1852 14.4802 9.76738 14.8122 9.38526 14.947C9.19002 15.0158 8.99807 15.0352 8.8154 14.9966C8.63201 14.9579 8.4755 14.8643 8.34638 14.7353C8.09538 14.4846 7.94162 14.0949 7.8531 13.6584C7.82566 13.5231 7.91311 13.3912 8.04843 13.3637C8.18375 13.3363 8.31569 13.4237 8.34313 13.5591C8.42419 13.9588 8.55157 14.2335 8.69975 14.3816C8.77022 14.452 8.8428 14.4914 8.91882 14.5074C8.99556 14.5237 9.09334 14.5198 9.21895 14.4755C9.47852 14.3839 9.82687 14.1301 10.2654 13.6222C10.6817 13.14 11.163 12.448 11.7114 11.5002C11.2636 10.7336 10.8616 10.2077 10.5079 9.8693C10.1335 9.51116 9.83475 9.38309 9.60967 9.37193C9.39505 9.36129 9.19777 9.45489 9.01229 9.66163Z" fill="#333333" class='xian'/>
<path fill-rule="evenodd" clip-rule="evenodd" d="M14.9877 9.66163C15.177 9.87269 15.3403 10.1889 15.4671 10.5775C15.5099 10.7088 15.651 10.7805 15.7823 10.7377C15.9135 10.6949 15.9852 10.5538 15.9424 10.4225C15.804 9.99796 15.613 9.60995 15.3599 9.32775C15.1029 9.04124 14.7693 8.85253 14.3656 8.87255C13.9723 8.89204 13.565 9.10758 13.1465 9.50801C12.726 9.91027 12.2723 10.5196 11.7829 11.3759C11.739 11.4528 11.739 11.5471 11.7829 11.624C12.3671 12.6462 12.8877 13.4047 13.3487 13.9403C13.8056 14.4711 14.2217 14.8043 14.6022 14.9425C14.7964 15.0131 14.9876 15.035 15.1701 14.9996C15.3534 14.964 15.5108 14.8738 15.6412 14.7475C15.8945 14.5022 16.0504 14.1178 16.141 13.6869C16.1694 13.5518 16.0829 13.4193 15.9478 13.3908C15.8127 13.3624 15.6801 13.4489 15.6517 13.584C15.5689 13.9776 15.4408 14.2455 15.2934 14.3883C15.2233 14.4561 15.1511 14.4939 15.0748 14.5087C14.9976 14.5237 14.8991 14.5184 14.7729 14.4725C14.5125 14.3779 14.1645 14.1217 13.7276 13.6141C13.3129 13.1323 12.8339 12.4427 12.2885 11.5002C12.7364 10.7336 13.1384 10.2077 13.4921 9.8693C13.8665 9.51116 14.1652 9.38309 14.3903 9.37193C14.6049 9.36129 14.8022 9.45489 14.9877 9.66163Z" fill="#333333" class='xian'/>
<path fill-rule="evenodd" clip-rule="evenodd" d="M10.5 12.5C10.5 12.3619 10.6119 12.25 10.75 12.25H11.4C11.5222 12.25 11.6265 12.3384 11.6466 12.4589L11.7466 13.0589C11.7693 13.1951 11.6773 13.3239 11.5411 13.3466C11.4049 13.3693 11.2761 13.2773 11.2534 13.1411L11.1882 12.75H10.75C10.6119 12.75 10.5 12.6381 10.5 12.5Z" fill="#333333" class='xian'/>
<path fill-rule="evenodd" clip-rule="evenodd" d="M13.5 12.5C13.5 12.3619 13.3881 12.25 13.25 12.25H12.6C12.4778 12.25 12.3735 12.3384 12.3534 12.4589L12.2534 13.0589C12.2307 13.1951 12.3227 13.3239 12.4589 13.3466C12.5951 13.3693 12.7239 13.2773 12.7466 13.1411L12.8118 12.75H13.25C13.3881 12.75 13.5 12.6381 13.5 12.5Z" fill="#333333" class='xian'/>
</svg>
