<svg width="24" height="24" viewBox="0 0 24 24" fill="none" xmlns="http://www.w3.org/2000/svg">
<path fill-rule="evenodd" clip-rule="evenodd" d="M4.25 1C4.25 0.861929 4.36193 0.75 4.5 0.75H19.4898C19.6279 0.75 19.7398 0.861929 19.7398 1V19.9997L19.75 22.9991C19.7502 23.0656 19.724 23.1294 19.6771 23.1765C19.6302 23.2235 19.5665 23.25 19.5 23.25H4.5C4.36193 23.25 4.25 23.1381 4.25 23V1ZM4.75 22.75H19.2491L19.2398 20.0009L19.2398 1.25H4.75V22.75Z" fill="#333333" class='xian'/>
<path fill-rule="evenodd" clip-rule="evenodd" d="M12.9992 19.4081C12.9992 19.2701 13.1111 19.1581 13.2492 19.1581H14.3716C14.5097 19.1581 14.6216 19.2701 14.6216 19.4081V20.9796C14.6216 21.1176 14.5097 21.2296 14.3716 21.2296H13.2492C13.1111 21.2296 12.9992 21.1176 12.9992 20.9796V19.4081ZM13.4992 19.6581V20.7296H14.1216V19.6581H13.4992Z" fill="#333333" class='xian'/>
<path d="M16.5 17.3878H14.5V18.0612H16.5V17.3878Z" fill="#666666" class='mian'/>
<path fill-rule="evenodd" clip-rule="evenodd" d="M14.25 17.3878C14.25 17.2497 14.3619 17.1378 14.5 17.1378H16.5C16.6381 17.1378 16.75 17.2497 16.75 17.3878V18.0612C16.75 18.1993 16.6381 18.3112 16.5 18.3112H14.5C14.3619 18.3112 14.25 18.1993 14.25 18.0612V17.3878ZM14.75 17.6378V17.8112H16.25V17.6378H14.75Z" fill="#333333" class='xian'/>
<path fill-rule="evenodd" clip-rule="evenodd" d="M5.75 2.7959C5.75 2.65783 5.86193 2.5459 6 2.5459H18C18.1381 2.5459 18.25 2.65783 18.25 2.7959C18.25 2.93397 18.1381 3.0459 18 3.0459H6C5.86193 3.0459 5.75 2.93397 5.75 2.7959Z" fill="#333333" class='xian'/>
<path fill-rule="evenodd" clip-rule="evenodd" d="M5.75 4.14288C5.75 4.00481 5.86193 3.89288 6 3.89288H7.5C7.63807 3.89288 7.75 4.00481 7.75 4.14288C7.75 4.28095 7.63807 4.39288 7.5 4.39288H6C5.86193 4.39288 5.75 4.28095 5.75 4.14288Z" fill="#333333" class='xian'/>
<path fill-rule="evenodd" clip-rule="evenodd" d="M16.25 4.14288C16.25 4.00481 16.3619 3.89288 16.5 3.89288H18C18.1381 3.89288 18.25 4.00481 18.25 4.14288C18.25 4.28095 18.1381 4.39288 18 4.39288H16.5C16.3619 4.39288 16.25 4.28095 16.25 4.14288Z" fill="#333333" class='xian'/>
<path fill-rule="evenodd" clip-rule="evenodd" d="M5.75 8.18365C5.75 8.04558 5.86193 7.93365 6 7.93365H7.5C7.63807 7.93365 7.75 8.04558 7.75 8.18365C7.75 8.32173 7.63807 8.43365 7.5 8.43365H6C5.86193 8.43365 5.75 8.32173 5.75 8.18365Z" fill="#333333" class='xian'/>
<path fill-rule="evenodd" clip-rule="evenodd" d="M16.25 8.18365C16.25 8.04558 16.3619 7.93365 16.5 7.93365H18C18.1381 7.93365 18.25 8.04558 18.25 8.18365C18.25 8.32173 18.1381 8.43365 18 8.43365H16.5C16.3619 8.43365 16.25 8.32173 16.25 8.18365Z" fill="#333333" class='xian'/>
<path fill-rule="evenodd" clip-rule="evenodd" d="M5.75 5.48981C5.75 5.35174 5.86193 5.23981 6 5.23981H7.5C7.63807 5.23981 7.75 5.35174 7.75 5.48981C7.75 5.62788 7.63807 5.73981 7.5 5.73981H6C5.86193 5.73981 5.75 5.62788 5.75 5.48981Z" fill="#333333" class='xian'/>
<path fill-rule="evenodd" clip-rule="evenodd" d="M16.25 5.48981C16.25 5.35174 16.3619 5.23981 16.5 5.23981H18C18.1381 5.23981 18.25 5.35174 18.25 5.48981C18.25 5.62788 18.1381 5.73981 18 5.73981H16.5C16.3619 5.73981 16.25 5.62788 16.25 5.48981Z" fill="#333333" class='xian'/>
<path fill-rule="evenodd" clip-rule="evenodd" d="M5.75 6.83673C5.75 6.69866 5.86193 6.58673 6 6.58673H7.5C7.63807 6.58673 7.75 6.69866 7.75 6.83673C7.75 6.9748 7.63807 7.08673 7.5 7.08673H6C5.86193 7.08673 5.75 6.9748 5.75 6.83673Z" fill="#333333" class='xian'/>
<path fill-rule="evenodd" clip-rule="evenodd" d="M16.25 6.83673C16.25 6.69866 16.3619 6.58673 16.5 6.58673H18C18.1381 6.58673 18.25 6.69866 18.25 6.83673C18.25 6.9748 18.1381 7.08673 18 7.08673H16.5C16.3619 7.08673 16.25 6.9748 16.25 6.83673Z" fill="#333333" class='xian'/>
<path fill-rule="evenodd" clip-rule="evenodd" d="M5.67035 21.5C5.67035 21.2791 5.84944 21.1 6.07035 21.1H12.3518C12.5727 21.1 12.7518 21.2791 12.7518 21.5C12.7518 21.7209 12.5727 21.9 12.3518 21.9H6.07035C5.84944 21.9 5.67035 21.7209 5.67035 21.5Z" fill="#333333" class='xian'/>
<path fill-rule="evenodd" clip-rule="evenodd" d="M5.5 18.5102C5.5 18.2341 5.72386 18.0102 6 18.0102H7.25C7.52614 18.0102 7.75 18.2341 7.75 18.5102C7.75 18.7863 7.52614 19.0102 7.25 19.0102H6C5.72386 19.0102 5.5 18.7863 5.5 18.5102Z" fill="#333333" class='xian'/>
<path fill-rule="evenodd" clip-rule="evenodd" d="M9.25 18.5102C9.25 18.2341 9.47386 18.0102 9.75 18.0102H11C11.2761 18.0102 11.5 18.2341 11.5 18.5102C11.5 18.7863 11.2761 19.0102 11 19.0102H9.75C9.47386 19.0102 9.25 18.7863 9.25 18.5102Z" fill="#333333" class='xian'/>
<path fill-rule="evenodd" clip-rule="evenodd" d="M5.5 17.1633C5.5 16.8871 5.72386 16.6633 6 16.6633H7.25C7.52614 16.6633 7.75 16.8871 7.75 17.1633C7.75 17.4394 7.52614 17.6633 7.25 17.6633H6C5.72386 17.6633 5.5 17.4394 5.5 17.1633Z" fill="#333333" class='xian'/>
<path fill-rule="evenodd" clip-rule="evenodd" d="M9.25 17.1633C9.25 16.8871 9.47386 16.6633 9.75 16.6633H11C11.2761 16.6633 11.5 16.8871 11.5 17.1633C11.5 17.4394 11.2761 17.6633 11 17.6633H9.75C9.47386 17.6633 9.25 17.4394 9.25 17.1633Z" fill="#333333" class='xian'/>
<path fill-rule="evenodd" clip-rule="evenodd" d="M4.27969 20.3061C4.27969 20.0852 4.45878 19.9061 4.67969 19.9061H13.0373C13.2582 19.9061 13.4373 20.0852 13.4373 20.3061C13.4373 20.527 13.2582 20.7061 13.0373 20.7061H4.67969C4.45878 20.7061 4.27969 20.527 4.27969 20.3061Z" fill="#333333" class='xian'/>
<path fill-rule="evenodd" clip-rule="evenodd" d="M9.94 8.41972C9.30459 11.1852 8.86559 15.1669 8.74721 20.0061L8.24736 19.9939C8.36619 15.1364 8.80697 11.1181 9.4527 8.30775C9.77509 6.90462 10.1517 5.7882 10.5732 5.01656C10.9834 4.2657 11.4876 3.75 12.0995 3.75C12.3804 3.75 12.6295 3.88866 12.8427 4.09608C13.0553 4.30299 13.2509 4.5955 13.4324 4.95042C13.796 5.66123 14.129 6.67409 14.4263 7.90429C15.022 10.3687 15.4867 13.7587 15.7494 17.4824L15.2506 17.5176C14.989 13.8093 14.5271 10.4493 13.9403 8.02176C13.6465 6.80594 13.3244 5.8373 12.9873 5.1781C12.8184 4.84801 12.6522 4.60839 12.494 4.45443C12.3363 4.30096 12.2054 4.25 12.0995 4.25C11.7901 4.25 11.413 4.52221 11.012 5.25625C10.6224 5.96949 10.2582 7.03494 9.94 8.41972Z" fill="#333333" class='xian'/>
</svg>
