<svg width="24" height="24" viewBox="0 0 24 24" fill="none" xmlns="http://www.w3.org/2000/svg">
<path fill-rule="evenodd" clip-rule="evenodd" d="M1.25 3C1.25 2.58579 1.58579 2.25 2 2.25H22C22.4142 2.25 22.75 2.58579 22.75 3V21C22.75 21.4142 22.4142 21.75 22 21.75H2C1.58579 21.75 1.25 21.4142 1.25 21V3ZM2.75 3.75V20.25H21.25V3.75H2.75Z" fill="#333333"/>
<path fill-rule="evenodd" clip-rule="evenodd" d="M11.25 10.5V3H12.75V10.5C12.75 10.9142 12.4142 11.25 12 11.25C11.5858 11.25 11.25 10.9142 11.25 10.5ZM12 16.75C12.4142 16.75 12.75 17.0858 12.75 17.5V21C12.75 21.4142 12.4142 21.75 12 21.75C11.5858 21.75 11.25 21.4142 11.25 21V17.5C11.25 17.0858 11.5858 16.75 12 16.75Z" fill="#333333"/>
<path d="M5.33252 12.5L6.33252 11V15L5.83252 15.5L4.83252 15V13.5L5.33252 12.5Z" fill="#999999"/>
<path fill-rule="evenodd" clip-rule="evenodd" d="M6.40497 10.7607C6.51041 10.7927 6.58252 10.8899 6.58252 11V15C6.58252 15.0663 6.55618 15.1299 6.5093 15.1768L6.0093 15.6768C5.93321 15.7529 5.81696 15.7717 5.72072 15.7236L4.72072 15.2236C4.63602 15.1813 4.58252 15.0947 4.58252 15V13.5C4.58252 13.4612 4.59156 13.4229 4.60891 13.3882L5.10891 12.3882C5.11355 12.3789 5.11876 12.37 5.12451 12.3613L6.12451 10.8613C6.18562 10.7697 6.29953 10.7288 6.40497 10.7607ZM5.54917 12.6257L5.08252 13.559V14.8455L5.78316 15.1958L6.08252 14.8965V11.8257L5.54917 12.6257Z" fill="#333333"/>
<path fill-rule="evenodd" clip-rule="evenodd" d="M7.56699 7.66092C7.70506 7.42177 8.01085 7.33983 8.25 7.47791L10.4151 8.72791C10.6542 8.86598 10.7361 9.17177 10.5981 9.41092L7.51229 14.7557C7.18077 15.3299 6.63472 15.7489 5.99427 15.9205L5.82438 15.966C5.36394 16.0894 4.88043 15.8706 4.66915 15.4433L4.52621 15.1542C4.15572 14.4049 4.18423 13.52 4.60217 12.7961L7.56699 7.66092ZM8.18301 8.59393L5.4682 13.2961C5.21743 13.7305 5.20033 14.2614 5.42262 14.711L5.56556 15.0001L5.73545 14.9545C6.11972 14.8516 6.44735 14.6002 6.64626 14.2557L9.48205 9.34393L8.18301 8.59393Z" fill="#333333"/>
<path d="M18.6675 12.5L17.6675 11V15L18.1675 15.5L19.1675 15V13.5L18.6675 12.5Z" fill="#999999"/>
<path fill-rule="evenodd" clip-rule="evenodd" d="M17.595 10.7607C17.4896 10.7927 17.4175 10.8899 17.4175 11V15C17.4175 15.0663 17.4438 15.1299 17.4907 15.1768L17.9907 15.6768C18.0668 15.7529 18.183 15.7717 18.2793 15.7236L19.2793 15.2236C19.364 15.1813 19.4175 15.0947 19.4175 15V13.5C19.4175 13.4612 19.4084 13.4229 19.3911 13.3882L18.8911 12.3882C18.8865 12.3789 18.8812 12.37 18.8755 12.3613L17.8755 10.8613C17.8144 10.7697 17.7005 10.7288 17.595 10.7607ZM18.4508 12.6257L18.9175 13.559V14.8455L18.2168 15.1958L17.9175 14.8965V11.8257L18.4508 12.6257Z" fill="#333333"/>
<path fill-rule="evenodd" clip-rule="evenodd" d="M16.433 7.66092C16.2949 7.42177 15.9891 7.33983 15.75 7.47791L13.5849 8.72791C13.3458 8.86598 13.2639 9.17177 13.4019 9.41092L16.4877 14.7557C16.8192 15.3299 17.3653 15.7489 18.0057 15.9205L18.1756 15.966C18.6361 16.0894 19.1196 15.8706 19.3308 15.4433L19.4738 15.1542C19.8443 14.4049 19.8158 13.52 19.3978 12.7961L16.433 7.66092ZM15.817 8.59393L18.5318 13.2961C18.7826 13.7305 18.7997 14.2614 18.5774 14.711L18.4344 15.0001L18.2645 14.9545C17.8803 14.8516 17.5526 14.6002 17.3537 14.2557L14.518 9.34393L15.817 8.59393Z" fill="#333333"/>
<path fill-rule="evenodd" clip-rule="evenodd" d="M11.9993 11.5795C12.1373 11.5795 12.2493 11.6914 12.2493 11.8295V16.1962C12.2493 16.3342 12.1373 16.4462 11.9993 16.4462C11.8612 16.4462 11.7493 16.3342 11.7493 16.1962V11.8295C11.7493 11.6914 11.8612 11.5795 11.9993 11.5795Z" fill="#69B4E9"/>
<path fill-rule="evenodd" clip-rule="evenodd" d="M12.8404 11.8454C12.9332 11.9477 12.9254 12.1058 12.8231 12.1985L12.0001 12.9447L11.1773 12.1985C11.075 12.1057 11.0673 11.9476 11.16 11.8454C11.2528 11.7431 11.4109 11.7354 11.5132 11.8281L12.0001 12.2698L12.4873 11.8281C12.5896 11.7354 12.7477 11.7431 12.8404 11.8454Z" fill="#69B4E9"/>
<path fill-rule="evenodd" clip-rule="evenodd" d="M12.4958 16.1936C12.6021 16.2817 12.7597 16.2669 12.8478 16.1606C12.9358 16.0542 12.921 15.8966 12.8147 15.8085L12.0001 15.1339L11.1857 15.8086C11.0794 15.8967 11.0646 16.0543 11.1527 16.1606C11.2408 16.2669 11.3984 16.2817 11.5047 16.1936L11.723 16.0128L12.0001 15.7832L12.4958 16.1936Z" fill="#69B4E9"/>
<path fill-rule="evenodd" clip-rule="evenodd" d="M14.1074 12.7957C14.1764 12.9153 14.1355 13.0682 14.0159 13.1372L10.2342 15.3206C10.1146 15.3896 9.96175 15.3486 9.89271 15.2291C9.82368 15.1095 9.86465 14.9566 9.98422 14.8876L13.7659 12.7042C13.8855 12.6352 14.0384 12.6762 14.1074 12.7957Z" fill="#69B4E9"/>
<path fill-rule="evenodd" clip-rule="evenodd" d="M13.457 12.2014C13.592 12.2306 13.6777 12.3637 13.6485 12.4986L13.5096 13.1412L14.1356 13.3422C14.2671 13.3845 14.3394 13.5252 14.2972 13.6567C14.255 13.7882 14.1142 13.8605 13.9827 13.8183L12.925 13.4786L13.1598 12.3929C13.189 12.258 13.3221 12.1722 13.457 12.2014Z" fill="#69B4E9"/>
<path fill-rule="evenodd" clip-rule="evenodd" d="M9.71608 14.3527C9.66804 14.4821 9.73404 14.626 9.86349 14.674L10.4666 14.8979L10.4064 15.2528L10.359 15.5323C10.3359 15.6685 10.4275 15.7975 10.5636 15.8206C10.6998 15.8437 10.8288 15.7521 10.8519 15.616L11.0289 14.5732L10.0374 14.2053C9.908 14.1572 9.76412 14.2232 9.71608 14.3527Z" fill="#69B4E9"/>
<path fill-rule="evenodd" clip-rule="evenodd" d="M9.89267 12.7966C9.96171 12.677 10.1146 12.636 10.2342 12.705L14.0158 14.8884C14.1354 14.9574 14.1764 15.1103 14.1073 15.2299C14.0383 15.3495 13.8854 15.3904 13.7658 15.3214L9.98418 13.1381C9.8646 13.069 9.82363 12.9161 9.89267 12.7966Z" fill="#69B4E9"/>
<path fill-rule="evenodd" clip-rule="evenodd" d="M10.5431 12.2014C10.6781 12.1722 10.8111 12.258 10.8403 12.3929L11.0749 13.4788L10.0173 13.8183C9.88584 13.8605 9.74506 13.7881 9.70287 13.6566C9.66067 13.5252 9.73304 13.3844 9.8645 13.3422L10.4905 13.1413L10.3515 12.4986C10.3224 12.3636 10.4081 12.2306 10.5431 12.2014Z" fill="#69B4E9"/>
<path fill-rule="evenodd" clip-rule="evenodd" d="M13.4361 15.8207C13.5723 15.7976 13.6639 15.6685 13.6407 15.5324L13.533 14.8981L13.8705 14.7728L14.1363 14.6741C14.2657 14.6261 14.3317 14.4822 14.2836 14.3527C14.2356 14.2233 14.0917 14.1573 13.9623 14.2054L12.9707 14.5735L13.1478 15.6161C13.1709 15.7522 13.3 15.8438 13.4361 15.8207Z" fill="#69B4E9"/>
<path fill-rule="evenodd" clip-rule="evenodd" d="M9.90384 4.92089C9.94751 5.05187 9.87672 5.19345 9.74573 5.23712C9.65254 5.26818 9.60489 5.30457 9.57898 5.33379C9.55385 5.36212 9.5366 5.39781 9.52745 5.44964C9.50606 5.57087 9.534 5.72849 9.57849 5.95092C9.57994 5.95817 9.58141 5.96551 9.5829 5.97294C9.62133 6.16446 9.67119 6.4129 9.63162 6.63714C9.60952 6.76239 9.55906 6.88816 9.46179 6.99785C9.3653 7.10666 9.23587 7.18485 9.07906 7.23712C8.94808 7.28078 8.8065 7.20999 8.76284 7.079C8.71917 6.94802 8.78996 6.80644 8.92095 6.76277C9.01414 6.73171 9.06179 6.69532 9.0877 6.66611C9.11283 6.63777 9.13008 6.60209 9.13923 6.55025C9.16062 6.42902 9.13268 6.2714 9.08819 6.04897C9.08674 6.04172 9.08527 6.03438 9.08378 6.02695C9.04535 5.83543 8.99549 5.58699 9.03506 5.36275C9.05716 5.2375 9.10762 5.11173 9.20489 5.00204C9.30138 4.89324 9.43081 4.81504 9.58762 4.76277C9.7186 4.71911 9.86018 4.7899 9.90384 4.92089Z" fill="#343434"/>
<path fill-rule="evenodd" clip-rule="evenodd" d="M10.9038 4.92089C10.9475 5.05187 10.8767 5.19345 10.7457 5.23712C10.6525 5.26818 10.6049 5.30457 10.579 5.33379C10.5539 5.36212 10.5366 5.39781 10.5275 5.44964C10.5061 5.57087 10.534 5.72849 10.5785 5.95092C10.5799 5.95817 10.5814 5.96551 10.5829 5.97294C10.6213 6.16446 10.6712 6.4129 10.6316 6.63714C10.6095 6.76239 10.5591 6.88816 10.4618 6.99785C10.3653 7.10666 10.2359 7.18485 10.0791 7.23712C9.94808 7.28078 9.8065 7.20999 9.76284 7.079C9.71917 6.94802 9.78996 6.80644 9.92095 6.76277C10.0141 6.73171 10.0618 6.69532 10.0877 6.66611C10.1128 6.63777 10.1301 6.60209 10.1392 6.55025C10.1606 6.42902 10.1327 6.2714 10.0882 6.04897C10.0867 6.04172 10.0853 6.03438 10.0838 6.02695C10.0453 5.83543 9.99549 5.58699 10.0351 5.36275C10.0572 5.2375 10.1076 5.11173 10.2049 5.00204C10.3014 4.89324 10.4308 4.81504 10.5876 4.76277C10.7186 4.71911 10.8602 4.7899 10.9038 4.92089Z" fill="#343434"/>
<path fill-rule="evenodd" clip-rule="evenodd" d="M14.0962 4.92089C14.0525 5.05187 14.1233 5.19345 14.2543 5.23712C14.3475 5.26818 14.3951 5.30457 14.421 5.33379C14.4461 5.36212 14.4634 5.39781 14.4725 5.44964C14.4939 5.57087 14.466 5.72849 14.4215 5.95092C14.4201 5.95817 14.4186 5.96551 14.4171 5.97294C14.3787 6.16446 14.3288 6.4129 14.3684 6.63714C14.3905 6.76239 14.4409 6.88816 14.5382 6.99785C14.6347 7.10666 14.7641 7.18485 14.9209 7.23712C15.0519 7.28078 15.1935 7.20999 15.2372 7.079C15.2808 6.94802 15.21 6.80644 15.0791 6.76277C14.9859 6.73171 14.9382 6.69532 14.9123 6.66611C14.8872 6.63777 14.8699 6.60209 14.8608 6.55025C14.8394 6.42902 14.8673 6.2714 14.9118 6.04897C14.9133 6.04172 14.9147 6.03438 14.9162 6.02695C14.9547 5.83543 15.0045 5.58699 14.9649 5.36275C14.9428 5.2375 14.8924 5.11173 14.7951 5.00204C14.6986 4.89324 14.5692 4.81504 14.4124 4.76277C14.2814 4.71911 14.1398 4.7899 14.0962 4.92089Z" fill="#343434"/>
<path fill-rule="evenodd" clip-rule="evenodd" d="M13.0962 4.92089C13.0525 5.05187 13.1233 5.19345 13.2543 5.23712C13.3475 5.26818 13.3951 5.30457 13.421 5.33379C13.4461 5.36212 13.4634 5.39781 13.4725 5.44964C13.4939 5.57087 13.466 5.72849 13.4215 5.95092C13.4201 5.95817 13.4186 5.96551 13.4171 5.97294C13.3787 6.16446 13.3288 6.4129 13.3684 6.63714C13.3905 6.76239 13.4409 6.88816 13.5382 6.99785C13.6347 7.10666 13.7641 7.18485 13.9209 7.23712C14.0519 7.28078 14.1935 7.20999 14.2372 7.079C14.2808 6.94802 14.21 6.80644 14.0791 6.76277C13.9859 6.73171 13.9382 6.69532 13.9123 6.66611C13.8872 6.63777 13.8699 6.60209 13.8608 6.55025C13.8394 6.42902 13.8673 6.2714 13.9118 6.04897C13.9133 6.04172 13.9147 6.03438 13.9162 6.02695C13.9547 5.83543 14.0045 5.58699 13.9649 5.36275C13.9428 5.2375 13.8924 5.11173 13.7951 5.00204C13.6986 4.89324 13.5692 4.81504 13.4124 4.76277C13.2814 4.71911 13.1398 4.7899 13.0962 4.92089Z" fill="#343434"/>
</svg>
