<svg width="24" height="24" viewBox="0 0 24 24" fill="none" xmlns="http://www.w3.org/2000/svg">
<path fill-rule="evenodd" clip-rule="evenodd" d="M12 2.00409C12.4142 2.00409 12.75 2.33988 12.75 2.75409L12.75 21.2541C12.75 21.6683 12.4142 22.0041 12 22.0041C11.5858 22.0041 11.25 21.6683 11.25 21.2541L11.25 2.75409C11.25 2.33988 11.5858 2.00409 12 2.00409Z" fill="#333333" class='xian'/>
<path d="M19 6C19 6.55228 18.5523 7 18 7C17.4477 7 17 6.55228 17 6C17 5.44772 17.4477 5 18 5C18.5523 5 19 5.44772 19 6Z" fill="#333333" class='xian'/>
<path d="M19 10C19 10.5523 18.5523 11 18 11C17.4477 11 17 10.5523 17 10C17 9.44772 17.4477 9 18 9C18.5523 9 19 9.44772 19 10Z" fill="#333333" class='xian'/>
<path d="M19 14C19 14.5523 18.5523 15 18 15C17.4477 15 17 14.5523 17 14C17 13.4477 17.4477 13 18 13C18.5523 13 19 13.4477 19 14Z" fill="#333333" class='xian'/>
<path d="M19 18C19 18.5523 18.5523 19 18 19C17.4477 19 17 18.5523 17 18C17 17.4477 17.4477 17 18 17C18.5523 17 19 17.4477 19 18Z" fill="#333333" class='xian'/>
<path fill-rule="evenodd" clip-rule="evenodd" d="M9 12.75L2.5 12.75C2.08579 12.75 1.75 12.4142 1.75 12C1.75 11.5858 2.08579 11.25 2.5 11.25L9 11.25C9.41421 11.25 9.75 11.5858 9.75 12C9.75 12.4142 9.41421 12.75 9 12.75Z" fill="#333333" class='xian'/>
<path d="M7.9231 21.02H8.5986L8.2626 20.341L7.9231 21.02ZM8.4796 19.683L9.4596 21.643C9.48994 21.7037 9.4946 21.7667 9.4736 21.832C9.4526 21.895 9.41177 21.9417 9.3511 21.972C9.3161 21.9907 9.27994 22 9.2426 22C9.13994 22 9.06644 21.9545 9.0221 21.8635L8.8436 21.51H7.6781L7.4996 21.8635C7.46927 21.9242 7.4226 21.965 7.3596 21.986C7.29427 22.007 7.23127 22.0023 7.1706 21.972C7.10994 21.9417 7.0691 21.895 7.0481 21.832C7.0271 21.7667 7.03177 21.7037 7.0621 21.643L8.0421 19.683C8.0841 19.6013 8.1576 19.5605 8.2626 19.5605C8.36527 19.5605 8.4376 19.6013 8.4796 19.683Z" fill="#333333" class='xian'/>
<path d="M5.1258 20.04V21.51H5.6508C5.8538 21.51 6.02647 21.4377 6.1688 21.293C6.31347 21.1507 6.3858 20.978 6.3858 20.775C6.3858 20.572 6.31347 20.3993 6.1688 20.257C6.02647 20.1123 5.8538 20.04 5.6508 20.04H5.1258ZM4.6358 21.755V19.795C4.6358 19.7273 4.65914 19.669 4.7058 19.62C4.7548 19.5733 4.81314 19.55 4.8808 19.55H5.6508C5.98914 19.55 6.2773 19.6702 6.5153 19.9105C6.75564 20.1485 6.8758 20.4367 6.8758 20.775C6.8758 21.1133 6.75564 21.4015 6.5153 21.6395C6.2773 21.8798 5.98914 22 5.6508 22H4.8808C4.81314 22 4.7548 21.9755 4.7058 21.9265C4.65914 21.8798 4.6358 21.8227 4.6358 21.755Z" fill="#333333" class='xian'/>
<path d="M2.53498 20.04V21.51H3.05998C3.26298 21.51 3.43565 21.4377 3.57798 21.293C3.72265 21.1507 3.79498 20.978 3.79498 20.775C3.79498 20.572 3.72265 20.3993 3.57798 20.257C3.43565 20.1123 3.26298 20.04 3.05998 20.04H2.53498ZM2.04498 21.755V19.795C2.04498 19.7273 2.06832 19.669 2.11498 19.62C2.16398 19.5733 2.22232 19.55 2.28998 19.55H3.05998C3.39832 19.55 3.68648 19.6702 3.92448 19.9105C4.16482 20.1485 4.28498 20.4367 4.28498 20.775C4.28498 21.1133 4.16482 21.4015 3.92448 21.6395C3.68648 21.8798 3.39832 22 3.05998 22H2.28998C2.22232 22 2.16398 21.9755 2.11498 21.9265C2.06832 21.8798 2.04498 21.8227 2.04498 21.755Z" fill="#333333" class='xian'/>
</svg>
