<svg width="24" height="24" viewBox="0 0 24 24" fill="none" xmlns="http://www.w3.org/2000/svg">
<path fill-rule="evenodd" clip-rule="evenodd" d="M12 2.00403C12.4142 2.00403 12.75 2.33981 12.75 2.75403L12.75 21.254C12.75 21.6682 12.4142 22.004 12 22.004C11.5858 22.004 11.25 21.6682 11.25 21.254L11.25 2.75403C11.25 2.33981 11.5858 2.00403 12 2.00403Z" fill="#333333" class='xian'/>
<path d="M7 8.5C7 9.05228 6.55228 9.5 6 9.5C5.44772 9.5 5 9.05228 5 8.5C5 7.94772 5.44772 7.5 6 7.5C6.55228 7.5 7 7.94772 7 8.5Z" fill="#333333" class='xian'/>
<path d="M7 12C7 12.5523 6.55228 13 6 13C5.44772 13 5 12.5523 5 12C5 11.4477 5.44772 11 6 11C6.55228 11 7 11.4477 7 12Z" fill="#333333" class='xian'/>
<path d="M7 15.5C7 16.0523 6.55228 16.5 6 16.5C5.44772 16.5 5 16.0523 5 15.5C5 14.9477 5.44772 14.5 6 14.5C6.55228 14.5 7 14.9477 7 15.5Z" fill="#333333" class='xian'/>
<path d="M19 8.5C19 9.05228 18.5523 9.5 18 9.5C17.4477 9.5 17 9.05228 17 8.5C17 7.94772 17.4477 7.5 18 7.5C18.5523 7.5 19 7.94772 19 8.5Z" fill="#333333" class='xian'/>
<path d="M19 12C19 12.5523 18.5523 13 18 13C17.4477 13 17 12.5523 17 12C17 11.4477 17.4477 11 18 11C18.5523 11 19 11.4477 19 12Z" fill="#333333" class='xian'/>
<path d="M19 15.5C19 16.0523 18.5523 16.5 18 16.5C17.4477 16.5 17 16.0523 17 15.5C17 14.9477 17.4477 14.5 18 14.5C18.5523 14.5 19 14.9477 19 15.5Z" fill="#333333" class='xian'/>
<path d="M10.167 21.93C10.118 21.9767 10.0597 22 9.99203 22C9.92437 22 9.86603 21.9767 9.81703 21.93C9.77037 21.881 9.74703 21.8227 9.74703 21.755V20.502L9.13453 21.2755C9.08787 21.3362 9.0237 21.3665 8.94203 21.3665C8.86037 21.3665 8.7962 21.3362 8.74953 21.2755L8.13703 20.502V21.755C8.13703 21.8227 8.1137 21.881 8.06703 21.93C8.01803 21.9767 7.9597 22 7.89203 22C7.82437 22 7.76603 21.9767 7.71703 21.93C7.67037 21.881 7.64703 21.8227 7.64703 21.755V19.795C7.64703 19.6783 7.70187 19.6013 7.81153 19.564C7.9212 19.5243 8.0122 19.5512 8.08453 19.6445L8.94203 20.7295L9.79953 19.6445C9.87187 19.5535 9.96287 19.5267 10.0725 19.564C10.1822 19.6013 10.237 19.6783 10.237 19.795V21.755C10.237 21.8227 10.2137 21.881 10.167 21.93Z" fill="#333333" class='xian'/>
<path d="M5.61457 20.04V20.81H6.41957C6.52457 20.81 6.61557 20.7727 6.69257 20.698C6.76724 20.621 6.80457 20.53 6.80457 20.425C6.80457 20.3177 6.76724 20.2267 6.69257 20.152C6.61557 20.0773 6.52457 20.04 6.41957 20.04H5.61457ZM5.12457 21.755V19.795C5.12457 19.7273 5.14791 19.669 5.19457 19.62C5.24357 19.5733 5.30191 19.55 5.36957 19.55H6.41957C6.65991 19.55 6.86641 19.6352 7.03907 19.8055C7.20941 19.9782 7.29457 20.1847 7.29457 20.425C7.29457 20.5837 7.25491 20.7307 7.17557 20.866C7.09624 20.9967 6.99124 21.1005 6.86057 21.1775L7.23157 21.5905C7.27591 21.6418 7.29691 21.7013 7.29457 21.769C7.28991 21.8367 7.26307 21.8927 7.21407 21.937C7.16741 21.979 7.11257 22 7.04957 22C6.97724 22 6.91657 21.9732 6.86757 21.9195L6.31107 21.3H5.61457V21.755C5.61457 21.8227 5.59124 21.8798 5.54457 21.9265C5.49557 21.9755 5.43724 22 5.36957 22C5.30191 22 5.24357 21.9755 5.19457 21.9265C5.14791 21.8798 5.12457 21.8227 5.12457 21.755Z" fill="#333333" class='xian'/>
<path d="M4.56498 21.93C4.51598 21.9767 4.45765 22 4.38998 22C4.32232 22 4.26398 21.9767 4.21498 21.93C4.16832 21.881 4.14498 21.8227 4.14498 21.755V20.502L3.53248 21.2755C3.48582 21.3362 3.42165 21.3665 3.33998 21.3665C3.25832 21.3665 3.19415 21.3362 3.14748 21.2755L2.53498 20.502V21.755C2.53498 21.8227 2.51165 21.881 2.46498 21.93C2.41598 21.9767 2.35765 22 2.28998 22C2.22232 22 2.16398 21.9767 2.11498 21.93C2.06832 21.881 2.04498 21.8227 2.04498 21.755V19.795C2.04498 19.6783 2.09982 19.6013 2.20948 19.564C2.31915 19.5243 2.41015 19.5512 2.48248 19.6445L3.33998 20.7295L4.19748 19.6445C4.26982 19.5535 4.36082 19.5267 4.47048 19.564C4.58015 19.6013 4.63498 19.6783 4.63498 19.795V21.755C4.63498 21.8227 4.61165 21.881 4.56498 21.93Z" fill="#333333" class='xian'/>
</svg>
