<svg width="24" height="24" fill="none" xmlns="http://www.w3.org/2000/svg"><path fill-rule="evenodd" clip-rule="evenodd" d="M1.25 2A.75.75 0 0 1 2 1.25h2a.75.75 0 0 1 0 1.5H2.75V4a.75.75 0 0 1-1.5 0V2ZM22.75 22a.75.75 0 0 1-.75.75h-2a.75.75 0 0 1 0-1.5h1.25V20a.75.75 0 0 1 1.5 0v2ZM22.75 2a.75.75 0 0 0-.75-.75h-2a.75.75 0 0 0 0 1.5h1.25V4a.75.75 0 0 0 1.5 0V2ZM1.25 22c0 .414.336.75.75.75h2a.75.75 0 0 0 0-1.5H2.75V20a.75.75 0 0 0-1.5 0v2ZM3.25 12a.75.75 0 0 1 .75-.75h17a.75.75 0 0 1 0 1.5H4a.75.75 0 0 1-.75-.75Z" fill="#666" class="xian"/><path d="M17.7 10.5h-1.625V4h2.275l-.65 6.5Z" fill="#fff"/><path fill-rule="evenodd" clip-rule="evenodd" d="M15.925 4a.15.15 0 0 1 .15-.15h2.275a.15.15 0 0 1 .15.165l-.65 6.5a.15.15 0 0 1-.15.135h-1.625a.15.15 0 0 1-.15-.15V4Zm.3.15v6.2h1.34l.62-6.2h-1.96Z" fill="#333" class="xian"/><path d="M16.075 10.5H12.5V4h3.575v6.5Z" fill="#CCC" class="mian"/><path fill-rule="evenodd" clip-rule="evenodd" d="M12.35 4a.15.15 0 0 1 .15-.15h3.575a.15.15 0 0 1 .15.15v6.5a.15.15 0 0 1-.15.15H12.5a.15.15 0 0 1-.15-.15V4Zm.3.15v6.2h3.275v-6.2H12.65Z" fill="#333" class="xian"/><path fill-rule="evenodd" clip-rule="evenodd" d="M13.325 6.275a.15.15 0 0 1 .15-.15H15.1a.15.15 0 0 1 .15.15v.813a.962.962 0 1 1-1.925 0v-.813Zm.3.15v.663a.662.662 0 1 0 1.325 0v-.663h-1.325Z" fill="#333" class="xian"/><path fill-rule="evenodd" clip-rule="evenodd" d="m14.612 7.9-.073.883a.1.1 0 0 1-.1.092h-.303a.1.1 0 0 1-.1-.092l-.074-.883h.65Z" fill="#333" class="xian"/><path d="M13.963 5.825c0-.11.089-.2.2-.2h.25c.11 0 .2.09.2.2v.45h-.65v-.45Z" fill="#333" class="xian"/><path d="M14.125 5.4a.1.1 0 0 1 .1-.1h.125a.1.1 0 0 1 .1.1v.875h-.325V5.4Z" fill="#333" class="xian"/><path d="M19 10.5h-1.3l.65-6.5H19v6.5Z" fill="#7F9FD9" class="mian"/><path fill-rule="evenodd" clip-rule="evenodd" d="M18.2 3.985a.15.15 0 0 1 .15-.135H19a.15.15 0 0 1 .15.15v6.5a.15.15 0 0 1-.15.15h-1.3a.15.15 0 0 1-.15-.165l.65-6.5Zm.286.165-.62 6.2h.984v-6.2h-.364Z" fill="#333" class="xian"/><path d="M8.955 5.773H6V7.25a1.477 1.477 0 0 0 2.955 0V5.773Z" fill="#CCC" class="mian"/><path fill-rule="evenodd" clip-rule="evenodd" d="M5.85 5.773a.15.15 0 0 1 .15-.15h2.955a.15.15 0 0 1 .15.15V7.25a1.627 1.627 0 1 1-3.255 0V5.773Zm.3.15V7.25a1.327 1.327 0 1 0 2.655 0V5.923H6.15Z" fill="#333" class="xian"/><path fill-rule="evenodd" clip-rule="evenodd" d="m8.068 8.727-.14 1.681a.1.1 0 0 1-.1.092h-.702a.1.1 0 0 1-.1-.092l-.14-1.68h1.182Z" fill="#333" class="xian"/><path d="M6.886 4.79c0-.11.09-.2.2-.2h.782c.11 0 .2.09.2.2v.983H6.886V4.79Z" fill="#333" class="xian"/><path d="M7.182 4.1a.1.1 0 0 1 .1-.1h.39a.1.1 0 0 1 .1.1v1.673h-.59V4.1Z" fill="#333" class="xian"/><path fill-rule="evenodd" clip-rule="evenodd" d="M8.392 15.888a.834.834 0 0 1 .057.527l-.292-.069a.534.534 0 0 0-.038-.335l.273-.123Zm-3.266 1.647.212.213-.395.394a.895.895 0 0 1 .744.76l.89-.889.212.212-1.276 1.276a.687.687 0 0 1-.055.055.15.15 0 0 1-.206-.218l.042-.042c.141-.163.142-.448-.05-.664-.207-.234-.518-.253-.693-.098a.15.15 0 0 1-.205-.218l.78-.78Z" fill="#333" class="xian"/><path fill-rule="evenodd" clip-rule="evenodd" d="M4.551 18.534c-.175.155-.193.466.015.7.207.234.518.253.693.098.174-.155.193-.466-.015-.7-.207-.234-.518-.253-.693-.098Zm-.21.9c-.293-.332-.313-.837.011-1.124.324-.288.823-.208 1.117.123.293.33.313.836-.011 1.123-.324.288-.824.208-1.117-.123Z" fill="#333" class="xian"/><path fill-rule="evenodd" clip-rule="evenodd" d="M4.454 18.91a.15.15 0 0 1 .157-.142l.604.03a.15.15 0 1 1-.015.3l-.604-.03a.15.15 0 0 1-.142-.157Z" fill="#333" class="xian"/><path fill-rule="evenodd" clip-rule="evenodd" d="M4.883 18.482a.15.15 0 0 0-.142.157l.03.604a.15.15 0 0 0 .3-.015l-.03-.604a.15.15 0 0 0-.158-.142ZM8.032 14.026c.324-.287.823-.207 1.117.123.292.33.313.832-.008 1.12L6.42 17.992a.686.686 0 0 1-.056.055.15.15 0 0 1-.205-.218l.042-.043c.14-.162.141-.447-.05-.663-.207-.234-.519-.253-.693-.098a.15.15 0 0 1-.206-.218l2.781-2.78Zm-1.44 3.368 2.346-2.346c.175-.155.194-.466-.014-.7-.206-.232-.514-.252-.69-.1L5.85 16.633a.895.895 0 0 1 .744.76Z" fill="#333" class="xian"/><path fill-rule="evenodd" clip-rule="evenodd" d="M5.457 17.025c-.175.155-.193.466.014.7.207.233.518.253.693.098.175-.155.193-.466-.014-.7-.208-.234-.519-.253-.693-.098Zm-.21.899c-.294-.33-.313-.836.01-1.123.325-.288.824-.208 1.117.123.294.33.313.836-.01 1.123-.325.287-.824.208-1.117-.123Z" fill="#333" class="xian"/><path fill-rule="evenodd" clip-rule="evenodd" d="M5.36 17.402a.15.15 0 0 1 .157-.143l.603.03a.15.15 0 1 1-.015.3l-.603-.03a.15.15 0 0 1-.143-.157ZM9.896 17.684c.291-.262.3-.704.08-1.027l-.248.169c.154.226.125.495-.035.637l-2.346 2.345a.895.895 0 0 0-.218-.47.889.889 0 0 0-.526-.29l.308-.308-.212-.212-.693.693a.15.15 0 0 0 .205.219c.175-.155.486-.136.693.097.192.216.191.502.05.664l-.042.042a.15.15 0 0 0 .206.219.686.686 0 0 0 .055-.055l2.723-2.723Z" fill="#333" class="xian"/><path fill-rule="evenodd" clip-rule="evenodd" d="M6.211 19.44c-.175.155-.193.466.015.7.207.233.518.252.693.097.174-.155.193-.466-.015-.7-.207-.233-.518-.252-.693-.097Zm-.21.898c-.293-.33-.313-.835.011-1.123.324-.287.823-.207 1.117.123.293.331.313.836-.011 1.124-.324.287-.823.207-1.117-.123Z" fill="#333" class="xian"/><path fill-rule="evenodd" clip-rule="evenodd" d="M6.114 19.816a.15.15 0 0 1 .157-.142l.604.03a.15.15 0 1 1-.015.3l-.604-.03a.15.15 0 0 1-.142-.158ZM9.541 14.932c.324-.288.823-.208 1.117.123.292.33.313.832-.008 1.12l-2.722 2.723a.687.687 0 0 1-.056.055.15.15 0 0 1-.205-.219l.042-.042c.14-.162.142-.448-.05-.664-.207-.233-.518-.253-.693-.098a.15.15 0 0 1-.206-.218l2.781-2.78Zm-1.44 3.367 2.347-2.346c.174-.155.193-.466-.015-.7-.206-.232-.514-.252-.69-.1L7.358 17.54c.194.03.384.13.525.29a.895.895 0 0 1 .219.47Z" fill="#333" class="xian"/><path fill-rule="evenodd" clip-rule="evenodd" d="M6.966 17.93c-.175.156-.193.467.014.7.207.234.518.253.693.098.175-.155.193-.466-.014-.7-.207-.233-.518-.252-.693-.098Zm-.21.9c-.294-.331-.313-.836.01-1.124.325-.287.824-.208 1.117.123.294.33.313.836-.01 1.123-.325.288-.824.208-1.117-.123Z" fill="#333" class="xian"/><path fill-rule="evenodd" clip-rule="evenodd" d="M6.868 18.307a.15.15 0 0 1 .158-.142l.603.03a.15.15 0 1 1-.015.3l-.603-.03a.15.15 0 0 1-.143-.158Z" fill="#333" class="xian"/><path fill-rule="evenodd" clip-rule="evenodd" d="M7.298 17.878a.15.15 0 0 0-.143.157l.03.604a.15.15 0 1 0 .3-.015l-.03-.604a.15.15 0 0 0-.157-.142ZM12.435 16.305c0 .083.067.15.15.15.413 0 .712-.078.966-.2.2-.094.37-.217.536-.335l.12-.085c.208-.146.434-.288.751-.397.318-.109.733-.188 1.319-.197a.15.15 0 1 0-.005-.3c-.61.01-1.058.092-1.411.214a3.197 3.197 0 0 0-.826.434l-.132.093c-.164.117-.308.22-.48.303-.212.1-.467.17-.838.17a.15.15 0 0 0-.15.15ZM20.527 16.305a.15.15 0 0 1-.15.15c-.412 0-.712-.078-.966-.2-.199-.094-.37-.216-.536-.335l-.119-.085a2.899 2.899 0 0 0-.751-.397c-.318-.109-.733-.188-1.319-.197a.15.15 0 1 1 .005-.3c.61.01 1.058.092 1.411.214.354.122.607.28.826.434l.132.093c.163.117.308.22.48.303.212.1.466.17.838.17a.15.15 0 0 1 .15.15ZM12.435 17.728a.15.15 0 0 1 .15-.15c.414 0 .713.08.967.204.2.097.37.221.536.343l.12.086c.208.149.434.293.75.404.318.112.733.192 1.319.2a.15.15 0 0 1-.005.3c-.61-.009-1.059-.092-1.412-.217a3.171 3.171 0 0 1-.826-.443 13.12 13.12 0 0 1-.132-.095 3.15 3.15 0 0 0-.48-.308c-.212-.103-.466-.174-.837-.174a.15.15 0 0 1-.15-.15ZM20.527 17.728a.15.15 0 0 0-.15-.15c-.411 0-.71.08-.964.202-.2.098-.372.223-.538.344l-.115.084a2.89 2.89 0 0 1-.745.403c-.314.112-.724.193-1.302.204a.15.15 0 1 0 .006.3c.603-.011 1.046-.096 1.396-.22.351-.126.602-.288.82-.443l.126-.092c.164-.12.31-.226.483-.31.21-.102.464-.172.834-.172a.15.15 0 0 0 .15-.15Z" fill="#333" class="xian"/><path fill-rule="evenodd" clip-rule="evenodd" d="M15.657 14a.15.15 0 0 1 .15-.15h.467a.15.15 0 0 1 .15.149l.02 2.286a.15.15 0 1 1-.3.002l-.018-2.137h-.169v.595a.15.15 0 0 1-.15.15h-2.772v.773a.15.15 0 0 1-.15.15h-.15v.975a.15.15 0 0 1-.3 0v-1.125a.15.15 0 0 1 .15-.15h.15v-.773a.15.15 0 0 1 .15-.15h2.772V14Zm.881 0a.15.15 0 0 1 .15-.15h.468a.15.15 0 0 1 .15.15v.595h2.734a.15.15 0 0 1 .15.15v.773h.188a.15.15 0 0 1 .15.15v1.125a.15.15 0 0 1-.3 0v-.975h-.188a.15.15 0 0 1-.15-.15v-.773h-2.734a.15.15 0 0 1-.15-.15v-.595h-.168v2.136a.15.15 0 0 1-.3 0V14Zm-3.953 3.078a.15.15 0 0 1 .15.15v1.062h.169a.15.15 0 0 1 .15.15v.656h2.753a.15.15 0 0 1 .15.15v.604h.168v-2.047a.15.15 0 1 1 .3 0V20a.15.15 0 0 1-.15.15h-.468a.15.15 0 0 1-.15-.15v-.604h-2.753a.15.15 0 0 1-.15-.15v-.656h-.169a.15.15 0 0 1-.15-.15v-1.212a.15.15 0 0 1 .15-.15Zm7.793 0a.15.15 0 0 1 .15.15v1.194a.15.15 0 0 1-.15.15h-.188v.674a.15.15 0 0 1-.15.15h-2.734V20a.15.15 0 0 1-.15.15h-.451a.15.15 0 0 1-.15-.15v-2.197a.15.15 0 0 1 .3 0v2.047h.15v-.604a.15.15 0 0 1 .15-.15h2.735v-.674a.15.15 0 0 1 .15-.15h.188v-1.044a.15.15 0 0 1 .15-.15Z" fill="#333" class="xian"/><path fill-rule="evenodd" clip-rule="evenodd" d="M19.984 16.81a.15.15 0 0 1 .15-.15h.828a.15.15 0 0 1 .15.15v.414a.15.15 0 0 1-.15.15h-.828a.15.15 0 0 1-.15-.15v-.413Zm.3.15v.114h.528v-.113h-.528ZM11.85 16.81a.15.15 0 0 1 .15-.15h.828a.15.15 0 0 1 .15.15v.414a.15.15 0 0 1-.15.15H12a.15.15 0 0 1-.15-.15v-.413Zm.3.15v.114h.528v-.113h-.528Z" fill="#333" class="xian"/><path fill-rule="evenodd" clip-rule="evenodd" d="M20.206 16.99a12.981 12.981 0 0 0-7.445-.001l-.004.001v-.313a13.28 13.28 0 0 1 7.449 0v.313Zm0 .069a12.981 12.981 0 0 1-7.445.001l-.004-.001v.313c2.432.71 5.016.71 7.449 0v-.313Z" fill="#333" class="xian"/><path fill-rule="evenodd" clip-rule="evenodd" d="M15.28 16.064c-.073.08-.138.204-.189.362a.15.15 0 1 1-.285-.093c.058-.18.14-.346.25-.47a.558.558 0 0 1 .449-.204c.178.01.357.107.534.276.179.17.369.427.573.784a.15.15 0 0 1 0 .148 6.256 6.256 0 0 1-.656.97c-.192.222-.371.366-.541.426a.432.432 0 0 1-.478-.099c-.114-.113-.18-.285-.217-.469a.15.15 0 1 1 .294-.06c.033.163.083.266.135.317a.133.133 0 0 0 .067.04.182.182 0 0 0 .1-.012c.095-.033.233-.131.412-.34a5.73 5.73 0 0 0 .58-.847 3.017 3.017 0 0 0-.476-.641c-.151-.144-.264-.19-.342-.193-.071-.003-.14.026-.21.105Z" fill="#333" class="xian"/><path fill-rule="evenodd" clip-rule="evenodd" d="M17.683 16.064c.072.08.137.204.189.362a.15.15 0 1 0 .285-.093 1.319 1.319 0 0 0-.25-.47.558.558 0 0 0-.449-.204c-.178.01-.357.107-.534.276-.179.17-.37.427-.573.784a.15.15 0 0 0 0 .148c.243.425.46.742.653.966.191.222.37.367.538.428a.485.485 0 0 0 .26.026.43.43 0 0 0 .218-.117c.115-.11.182-.28.22-.462a.15.15 0 0 0-.293-.062c-.034.16-.084.26-.135.309a.131.131 0 0 1-.067.037.189.189 0 0 1-.1-.013c-.097-.035-.235-.134-.413-.341a5.742 5.742 0 0 1-.577-.845c.178-.302.337-.508.476-.641.15-.144.264-.19.342-.193.071-.003.14.026.21.105ZM15.814 17.207a.15.15 0 0 1 .15-.15h.27a.15.15 0 0 1 .147.125l.041.248a.15.15 0 0 1-.296.05l-.02-.123h-.142a.15.15 0 0 1-.15-.15Z" fill="#333" class="xian"/><path fill-rule="evenodd" clip-rule="evenodd" d="M17.149 17.207a.15.15 0 0 0-.15-.15h-.27a.15.15 0 0 0-.147.125l-.042.248a.15.15 0 0 0 .296.05l.02-.123H17a.15.15 0 0 0 .15-.15Z" fill="#333" class="xian"/></svg>