<svg width="24" height="24" fill="none" xmlns="http://www.w3.org/2000/svg"><path fill="#fff" d="M2 2h20v20H2z"/><path d="M6.5 15.58c.5 0-.5-2 1-1.5s1.5 1.58 3.5 2.5c2 .92 9.471.177 10.5-.08v2s-9 0-9.5 3h-2C9 20 7 18.667 6 18c0 0-1-.92-1-1.92 0-1 1-.5 1.5-.5Z" fill="#666" class="mian"/><path fill-rule="evenodd" clip-rule="evenodd" d="M9.931 21.948a.27.27 0 0 1-.34-.17c-.093-.28-.293-.602-.573-.95a9.903 9.903 0 0 0-.996-1.037 18.549 18.549 0 0 0-2.094-1.644.27.27 0 0 1 .298-.448c.548.365 1.394.993 2.16 1.695.383.35.75.724 1.05 1.096.298.369.543.75.665 1.117a.27.27 0 0 1-.17.34Z" fill="#333" class="xian"/><path fill-rule="evenodd" clip-rule="evenodd" d="M6.318 18.044a.27.27 0 0 1-.361.12l.12-.24-.12.24h-.001l-.002-.001-.004-.002-.012-.007a2.327 2.327 0 0 1-.179-.108 2.724 2.724 0 0 1-.41-.336c-.3-.299-.618-.767-.618-1.402 0-.31.078-.565.263-.737.182-.167.415-.206.612-.206.198 0 .407.04.58.072l.011.003c.183.034.318.06.418.06a.27.27 0 1 1 0 .538c-.154 0-.335-.034-.492-.065l-.038-.007a2.707 2.707 0 0 0-.48-.062c-.139 0-.209.029-.246.063-.033.03-.09.112-.09.34 0 .443.22.782.46 1.022a2.186 2.186 0 0 0 .463.35l.005.003" fill="#333" class="xian"/><path fill-rule="evenodd" clip-rule="evenodd" d="M21.692 18.73a.27.27 0 0 1-.269-.268v-1.824c-.83.15-2.592.37-4.433.513a44.456 44.456 0 0 1-3.176.146c-.975.004-1.844-.046-2.418-.19-1.154-.288-1.737-.873-2.224-1.43a32.37 32.37 0 0 1-.132-.152c-.422-.488-.776-.897-1.433-1.116-.38-.127-.484-.053-.505-.034-.043.04-.083.149-.083.385 0 .106.008.22.016.337l.002.02c.008.107.016.222.016.324a.876.876 0 0 1-.056.344.409.409 0 0 1-.381.253.27.27 0 0 1-.105-.517.89.89 0 0 0 .003-.08c0-.082-.007-.178-.015-.293v-.012a5.272 5.272 0 0 1-.018-.376c0-.236.027-.565.253-.777.248-.233.616-.227 1.043-.085.805.268 1.252.788 1.667 1.27l.134.155c.455.52.949 1.012 1.949 1.262.503.126 1.313.177 2.285.174a43.905 43.905 0 0 0 3.136-.145c2.151-.167 4.15-.435 4.679-.567a.27.27 0 0 1 .335.26v2.155a.27.27 0 0 1-.27.269Z" fill="#333" class="xian"/><path fill-rule="evenodd" clip-rule="evenodd" d="M12.266 21.737a.27.27 0 0 1-.266.225H9.846a.27.27 0 1 1 0-.539h1.939c.234-.821.959-1.412 1.839-1.84.967-.471 2.191-.78 3.379-.983a29.912 29.912 0 0 1 3.235-.357 32.324 32.324 0 0 1 1.348-.05H21.692v.538h-.099l-.288.006a31.32 31.32 0 0 0-1.036.044c-.86.05-2.01.15-3.175.35-1.169.2-2.334.498-3.235.936-.909.442-1.48.994-1.593 1.67Zm9.426-3.275v.269a.27.27 0 1 0 0-.539v.27Z" fill="#333" class="xian"/><path d="M8.23 10.923C6.616 9.308 3.924 9.308 2.309 9.308v-7h19.384v12.384s-7.538-.538-10.23 1.077c-2.693 1.616-4.308 5.923-4.847 5.923H2.308v-2.154c1.723 0 5.384-1.076 6.461-3.23s1.077-3.77-.538-5.385Z" fill="#fff"/><path fill-rule="evenodd" clip-rule="evenodd" d="M2.038 2.038h19.924v12.944l-.289-.021h-.005l-.015-.002-.063-.004a42.055 42.055 0 0 0-1.127-.053 45.67 45.67 0 0 0-2.868-.008c-1.104.034-2.286.117-3.356.291-1.075.175-2.01.438-2.639.815-1.287.772-2.335 2.203-3.142 3.48-.2.317-.383.622-.552.902l-.065.11c-.142.238-.273.456-.392.645a5.184 5.184 0 0 1-.375.54 1.165 1.165 0 0 1-.182.181.462.462 0 0 1-.277.104H2.038v-2.693h.27c.818 0 2.129-.259 3.367-.786 1.245-.53 2.358-1.304 2.853-2.296.529-1.057.775-1.948.713-2.753-.061-.796-.427-1.547-1.2-2.32-.755-.755-1.772-1.143-2.821-1.34-1.05-.196-2.102-.197-2.912-.197h-.27V2.038Zm19.385 12.368V2.576H2.577V9.04c.772.002 1.756.021 2.742.206 1.105.207 2.241.627 3.102 1.488.842.841 1.284 1.706 1.357 2.66.073.944-.22 1.938-.768 3.035-.581 1.163-1.838 2.003-3.124 2.55-1.17.498-2.413.774-3.31.822v1.623h3.998a.73.73 0 0 0 .087-.091c.089-.106.198-.268.332-.481.115-.184.243-.397.385-.635l.067-.11c.168-.281.354-.59.558-.913.81-1.281 1.915-2.811 3.32-3.655.718-.43 1.735-.706 2.83-.884 1.1-.18 2.308-.264 3.425-.298a46.217 46.217 0 0 1 3.8.047l.045.003Z" fill="#333" class="xian"/><path d="M10.136 7.624c3.914-.409.932-3.408-2.237-5.316H2.308V5.17c1.118 2.863 6.717 2.57 7.828 2.454Z" fill="#fff"/><path fill-rule="evenodd" clip-rule="evenodd" d="M2.038 2.038h5.936l.064.04c1.591.958 3.176 2.211 3.863 3.307.34.541.516 1.137.213 1.643-.292.486-.96.76-1.95.864-.569.06-2.272.163-3.982-.112-.855-.138-1.727-.372-2.462-.765-.738-.393-1.353-.954-1.663-1.747l-.019-.047V2.038Zm.539.539v2.541c.255.616.75 1.078 1.396 1.422.664.354 1.471.576 2.294.709 1.647.264 3.299.164 3.84.107.967-.1 1.395-.354 1.545-.605.14-.232.106-.582-.207-1.08-.608-.97-2.068-2.15-3.621-3.094H2.577Z" fill="#333" class="xian"/><path d="M12.325 9.321c1.427-3.037 7.208-4.454 9.367-4.86v8.505h-.54c-6.909.486-10.255-.607-8.828-3.645Z" fill="#fff"/><path fill-rule="evenodd" clip-rule="evenodd" d="m21.962 4.137-.32.06c-1.088.204-3.093.664-5.01 1.459-1.902.787-3.79 1.933-4.551 3.55-.375.799-.46 1.52-.2 2.14.261.615.838 1.06 1.633 1.37 1.582.615 4.196.761 7.648.52h.8V4.136Zm-.539.651v7.909H21.133c-3.452.243-5.962.086-7.423-.483-.726-.283-1.151-.65-1.332-1.078-.18-.426-.149-.98.19-1.7.668-1.42 2.383-2.501 4.27-3.283 1.696-.703 3.471-1.14 4.585-1.365Z" fill="#333" class="xian"/><path d="M19.538 2.308h-6.461c0 1.663 1.11 3.942 5.385.841a20.4 20.4 0 0 0 1.076-.841Z" fill="#fff"/><path fill-rule="evenodd" clip-rule="evenodd" d="M12.808 2.038h7.474l-.571.477c-.384.32-.747.603-1.091.852-2.148 1.558-3.612 1.851-4.57 1.39-.958-.46-1.242-1.589-1.242-2.45v-.269Zm.548.539c.055.715.335 1.41.927 1.695.665.32 1.892.203 4.02-1.34.153-.112.31-.23.472-.355h-5.419Z" fill="#333" class="xian"/><path d="M19.75 7.926c.323.724-.295 1.705-1.38 2.19-1.086.486-2.229.293-2.553-.43-.324-.725.294-1.705 1.38-2.191 1.086-.486 2.229-.293 2.552.431Z" fill="#fff"/><path fill-rule="evenodd" clip-rule="evenodd" d="M16.206 8.644c-.219.348-.257.677-.143.931.114.254.385.446.79.514.402.068.905.006 1.407-.218.5-.225.883-.558 1.1-.904.22-.347.257-.677.143-.931-.113-.254-.384-.445-.789-.514-.403-.068-.906-.006-1.407.219-.501.224-.883.558-1.1.903Zm-.455-.287c.281-.447.751-.846 1.336-1.108.585-.261 1.195-.346 1.717-.258.519.088.98.355 1.191.825.21.47.101.993-.18 1.438-.28.447-.75.847-1.335 1.108-.585.262-1.196.346-1.717.258-.52-.088-.982-.355-1.192-.825-.21-.47-.1-.992.18-1.438Z" fill="#333" class="xian"/><path d="M18.439 8.512c.08.181-.147.46-.51.621-.361.162-.72.147-.801-.034-.081-.181.147-.46.509-.621.362-.162.72-.146.802.034Z" fill="#333" class="xian"/><path d="M8.944 5.424c-.187.564-1.026.794-1.872.513-.847-.28-1.382-.966-1.195-1.53.188-.565 1.026-.795 1.873-.514.846.28 1.381.966 1.194 1.53Z" fill="#fff"/><path fill-rule="evenodd" clip-rule="evenodd" d="M6.637 4.093c-.283.077-.448.228-.504.399-.057.17-.014.39.166.62.18.23.477.444.857.57.38.126.747.133 1.028.056.283-.078.448-.229.504-.399.057-.17.015-.39-.166-.621-.179-.23-.477-.443-.857-.57-.38-.125-.747-.132-1.028-.055Zm-.142-.52c.397-.109.873-.09 1.34.065.466.154.859.424 1.112.748.252.323.383.728.252 1.123-.13.394-.478.64-.873.748-.396.11-.872.09-1.34-.064-.466-.155-.858-.424-1.111-.749-.252-.322-.384-.728-.253-1.122.13-.394.478-.64.873-.749Z" fill="#333" class="xian"/><path d="M7.922 5.085c-.047.14-.314.18-.596.086s-.473-.284-.426-.425c.046-.141.313-.18.595-.086.283.093.474.284.427.425Z" fill="#333" class="xian"/><path d="M5.044 10.852c.59-.078 1.163.575 1.28 1.46.118.884-.264 1.665-.854 1.743-.59.079-1.163-.575-1.28-1.46-.118-.884.264-1.664.854-1.743Z" fill="#fff"/><path fill-rule="evenodd" clip-rule="evenodd" d="M4.855 13.509c.194.22.402.303.58.28.177-.025.357-.158.486-.422.128-.262.19-.623.136-1.02-.052-.397-.206-.73-.398-.948-.194-.221-.402-.303-.58-.28-.178.024-.357.158-.486.421-.128.262-.19.624-.137 1.02.053.397.207.73.4.949Zm-.405.355c-.271-.31-.463-.745-.528-1.233-.064-.487.006-.958.187-1.328.18-.367.487-.663.9-.717.41-.055.784.15 1.054.457.272.31.463.746.528 1.233.065.488-.006.959-.187 1.328-.18.367-.487.663-.898.718-.412.055-.786-.15-1.056-.458Z" fill="#333" class="xian"/><path d="M5.186 11.92c.147-.02.298.203.338.498.039.295-.049.55-.196.57-.147.02-.299-.204-.338-.499-.04-.295.048-.55.196-.569Z" fill="#333" class="xian"/><path fill-rule="evenodd" clip-rule="evenodd" d="M1.5 2.308c0-.446.362-.808.808-.808h19.384c.446 0 .808.362.808.808v19.384a.808.808 0 0 1-.808.808H2.308a.808.808 0 0 1-.808-.808V2.308Zm1.615.807v17.77h17.77V3.115H3.115Z" fill="#333" class="xian"/><path d="M10.385 19a.538.538 0 1 1-1.077 0 .538.538 0 0 1 1.077 0ZM12 20.077a.539.539 0 1 1-1.077 0 .539.539 0 0 1 1.077 0ZM13.077 18.462a.538.538 0 1 1-1.077 0 .538.538 0 0 1 1.077 0ZM15.23 18.192a.539.539 0 1 1-1.076 0 .539.539 0 0 1 1.077 0ZM20.077 17.654a.538.538 0 1 1-1.077 0 .538.538 0 0 1 1.077 0ZM17.385 17.923a.538.538 0 1 1-1.077 0 .538.538 0 0 1 1.077 0Z" fill="#333" class="xian"/><path fill-rule="evenodd" clip-rule="evenodd" d="M11.406 13.638c-.134.164-.177.334-.133.479.045.144.177.26.379.32.201.06.46.06.727-.023.267-.082.481-.227.614-.39.133-.164.177-.334.133-.478-.045-.145-.177-.261-.38-.321a1.28 1.28 0 0 0-.726.023 1.28 1.28 0 0 0-.614.39Zm-.167-.136c.163-.2.415-.367.717-.46.302-.093.605-.097.852-.024.247.074.451.23.523.464.073.235-.008.478-.17.678-.164.2-.417.367-.718.46a1.495 1.495 0 0 1-.853.024c-.246-.074-.45-.23-.523-.464-.072-.235.009-.478.172-.678Z" fill="#333" class="xian"/><path fill-rule="evenodd" clip-rule="evenodd" d="M11.822 13.834c-.076.072-.079.12-.074.136.005.017.035.054.138.071a.835.835 0 0 0 .367-.036.836.836 0 0 0 .324-.177c.076-.072.079-.12.074-.136-.005-.017-.035-.054-.138-.071a.833.833 0 0 0-.367.036.835.835 0 0 0-.325.177Zm-.15-.156c.1-.095.245-.176.41-.227.166-.051.331-.065.466-.043.129.021.266.084.308.22.043.137-.036.266-.13.356-.1.095-.244.176-.41.227-.165.051-.33.065-.466.043-.128-.021-.266-.084-.308-.22-.042-.137.037-.266.13-.356ZM12.965 4.923c-.211-.006-.373.063-.46.186-.088.123-.1.298-.025.495.074.197.232.402.46.564.227.162.473.244.683.251.21.007.372-.062.46-.185.088-.123.1-.299.025-.496a1.28 1.28 0 0 0-.46-.564 1.28 1.28 0 0 0-.683-.25Zm.007-.215c.258.008.544.108.8.29.258.184.445.422.537.664.092.24.092.497-.05.697-.143.2-.386.283-.643.275a1.495 1.495 0 0 1-.801-.29 1.496 1.496 0 0 1-.537-.663c-.091-.24-.091-.497.051-.697.143-.2.385-.284.643-.276Z" fill="#333" class="xian"/><path fill-rule="evenodd" clip-rule="evenodd" d="M13.062 5.373c-.103-.016-.143.01-.153.024-.01.014-.022.06.027.153a.833.833 0 0 0 .252.27c.12.085.241.135.337.15.104.016.143-.01.153-.025.01-.014.022-.06-.027-.152a.835.835 0 0 0-.252-.27.834.834 0 0 0-.337-.15Zm.034-.213c.135.021.287.087.428.187.142.101.253.223.318.345.06.115.095.262.012.378-.083.117-.233.133-.362.113a1.046 1.046 0 0 1-.429-.188 1.047 1.047 0 0 1-.317-.344c-.061-.115-.095-.263-.012-.379.083-.116.233-.132.361-.112ZM9.734 9.231c-.21-.006-.373.062-.46.185-.088.123-.1.299-.025.496.075.196.232.402.46.564.227.162.473.244.683.25.21.007.373-.062.46-.185.088-.123.1-.298.025-.495a1.282 1.282 0 0 0-.46-.564 1.28 1.28 0 0 0-.683-.25Zm.007-.215c.258.008.544.107.801.29.257.184.444.422.536.663.092.24.092.498-.05.697-.143.2-.386.284-.643.276a1.495 1.495 0 0 1-.801-.29 1.495 1.495 0 0 1-.536-.663c-.092-.24-.092-.498.05-.698.143-.2.386-.283.643-.275Z" fill="#333" class="xian"/><path fill-rule="evenodd" clip-rule="evenodd" d="M9.831 9.68c-.103-.016-.142.01-.153.025-.01.014-.022.06.027.152a.834.834 0 0 0 .252.27c.12.086.241.135.337.15.104.017.143-.01.153-.024.01-.014.023-.06-.026-.152a.833.833 0 0 0-.252-.27.834.834 0 0 0-.338-.15Zm.034-.212c.135.02.288.087.429.187.14.1.253.223.317.345.061.114.095.262.012.378-.083.116-.233.132-.362.112a1.046 1.046 0 0 1-.429-.187 1.046 1.046 0 0 1-.317-.345c-.061-.115-.095-.262-.012-.378.083-.116.233-.133.362-.112ZM5.196 19.767c-.113.179-.136.353-.075.491.062.138.207.238.415.273.207.035.464.004.72-.11.254-.114.45-.284.562-.461.113-.179.135-.353.074-.491-.062-.138-.206-.238-.415-.273a1.28 1.28 0 0 0-.719.11 1.28 1.28 0 0 0-.562.461Zm-.183-.115c.138-.218.37-.414.658-.543.288-.128.588-.169.843-.125.253.043.475.173.575.397.1.224.048.476-.09.694a1.494 1.494 0 0 1-.656.543c-.289.128-.589.169-.843.125-.254-.043-.475-.173-.575-.397-.1-.224-.05-.476.088-.694Z" fill="#333" class="xian"/><path fill-rule="evenodd" clip-rule="evenodd" d="M5.632 19.912c-.066.08-.064.128-.057.144.008.015.041.05.145.054a.834.834 0 0 0 .36-.08.833.833 0 0 0 .301-.215c.067-.08.064-.128.057-.144-.007-.016-.04-.05-.145-.054a.835.835 0 0 0-.36.08.835.835 0 0 0-.301.215Zm-.166-.137c.087-.106.22-.204.379-.275.158-.07.32-.104.458-.098.13.005.274.051.332.182.058.13-.004.268-.087.368a1.046 1.046 0 0 1-.38.275c-.158.07-.32.104-.457.098-.13-.005-.274-.051-.332-.182-.058-.13.004-.268.087-.368Z" fill="#333" class="xian"/></svg>