<svg width="24" height="24" fill="none" xmlns="http://www.w3.org/2000/svg"><path fill-rule="evenodd" clip-rule="evenodd" d="M1.25 2A.75.75 0 0 1 2 1.25h2a.75.75 0 0 1 0 1.5H2.75V4a.75.75 0 0 1-1.5 0V2ZM22.75 22a.75.75 0 0 1-.75.75h-2a.75.75 0 0 1 0-1.5h1.25V20a.75.75 0 0 1 1.5 0v2ZM22.75 2a.75.75 0 0 0-.75-.75h-2a.75.75 0 0 0 0 1.5h1.25V4a.75.75 0 0 0 1.5 0V2ZM1.25 22c0 .414.336.75.75.75h2a.75.75 0 0 0 0-1.5H2.75V20a.75.75 0 0 0-1.5 0v2ZM3.25 12a.75.75 0 0 1 .75-.75h17a.75.75 0 0 1 0 1.5H4a.75.75 0 0 1-.75-.75Z" fill="#666" class="xian"/><path fill-rule="evenodd" clip-rule="evenodd" d="M15.404 3.814c-.333.258-.567.656-.67 1.247a.4.4 0 1 1-.788-.139c.13-.737.442-1.334.97-1.74.52-.404 1.204-.582 2.004-.582 1.244 0 2.127.534 2.69 1.248.552.7.79 1.563.79 2.246 0 1.305-1.011 2.643-2.462 3.082.079.136.217.32.43.555a.4.4 0 1 1-.592.538c-.263-.29-.466-.556-.585-.792-.106-.212-.214-.542-.015-.832a.4.4 0 0 1 .254-.166c1.293-.247 2.17-1.39 2.17-2.385 0-.52-.187-1.204-.618-1.75-.42-.533-1.076-.944-2.062-.944-.688 0-1.178.153-1.516.414Z" fill="#333" class="xian"/><path fill-rule="evenodd" clip-rule="evenodd" d="M14.697 4.81a.4.4 0 0 1-.176.538c-.408.207-.717.371-.931.492a4.313 4.313 0 0 0-.288.178.4.4 0 0 1-.608-.518.93.93 0 0 1 .215-.183c.075-.05.172-.107.286-.172.23-.13.552-.301.964-.51a.4.4 0 0 1 .537.175ZM12.974 7.843a.4.4 0 0 1 .558.093c.01.014.034.039.113.065.087.028.197.045.358.066l.05.007c.282.036.709.09 1.05.362.428.339.723.835.91 1.447a.4.4 0 1 1-.764.234c-.155-.506-.378-.844-.643-1.054-.156-.125-.37-.158-.707-.203a2.788 2.788 0 0 1-.504-.1.992.992 0 0 1-.513-.358.4.4 0 0 1 .092-.559Z" fill="#333" class="xian"/><path fill-rule="evenodd" clip-rule="evenodd" d="M13.75 6.13a.4.4 0 0 1 .225.518c-.046.116-.109.247-.168.369l-.025.053c-.07.144-.135.284-.185.418-.05.137-.078.246-.083.33-.005.08.012.108.018.118a.4.4 0 0 1-.65.466.964.964 0 0 1-.166-.633 1.98 1.98 0 0 1 .132-.56c.064-.172.143-.34.212-.485l.027-.055c.06-.126.11-.228.143-.314a.4.4 0 0 1 .52-.226Z" fill="#333" class="xian"/><path fill-rule="evenodd" clip-rule="evenodd" d="M13.358 5.552a.4.4 0 0 0-.664-.052.435.435 0 0 0 .002.543.67.67 0 0 0 .175.15c.04.026.086.052.123.072l.01.006c.044.024.083.046.12.069.043.027.072.049.09.065a.4.4 0 0 0 .76.243.7.7 0 0 0-.07-.663 1.165 1.165 0 0 0-.357-.324 3.538 3.538 0 0 0-.154-.09h-.002l-.033-.019Z" fill="#333" class="xian"/><path fill-rule="evenodd" clip-rule="evenodd" d="M15.584 4.366c-.177.549-.16.943.051 1.183.212.24.509.478 1.05.583a.62.62 0 0 0 .47.824c.45.097.796-.336.796-.336.651.232 1.021.097 1.11-.406.132-.754-.136-1.293-.398-1.397-.165-.01-.427.06-.578-.29-.264-.369-.722-.412-.93-.425-.253-.003-.238-.232-.788-.239-.419.055-.68.222-.783.503Z" fill="#FEB8A5" class="mian"/><path fill-rule="evenodd" clip-rule="evenodd" d="M19.104 5.968a.25.25 0 0 1 .203.29c-.054.309-.21.562-.504.67-.268.098-.593.05-.936-.072a.25.25 0 0 1 .167-.471c.309.11.495.11.597.073.076-.028.15-.094.184-.287a.25.25 0 0 1 .29-.203Z" fill="#333" class="xian"/><path fill-rule="evenodd" clip-rule="evenodd" d="M18.43 4.725a.25.25 0 0 1 .325-.14c.23.09.397.333.491.605.099.286.134.653.061 1.067a.25.25 0 0 1-.492-.086c.06-.34.027-.62-.042-.818-.072-.211-.17-.29-.202-.303a.25.25 0 0 1-.14-.325Z" fill="#333" class="xian"/><path fill-rule="evenodd" clip-rule="evenodd" d="M17.986 4.297a.25.25 0 0 1 .329.13c.026.061.05.09.067.104.015.014.03.021.05.026a.386.386 0 0 0 .126.01h.121a.25.25 0 1 1-.032.5 2.542 2.542 0 0 1-.125 0 .874.874 0 0 1-.217-.026c-.185-.049-.346-.175-.45-.416a.25.25 0 0 1 .131-.328ZM16.615 3.83a.25.25 0 0 1-.216.281c-.367.048-.52.18-.578.337-.17.528-.116.802.002.936a.25.25 0 1 1-.375.33c-.305-.345-.285-.86-.101-1.425l.002-.01c.148-.402.518-.603.985-.664a.25.25 0 0 1 .28.216Z" fill="#333" class="xian"/><path fill-rule="evenodd" clip-rule="evenodd" d="M15.47 5.362a.25.25 0 0 1 .353.022c.181.206.432.41.909.502a.25.25 0 1 1-.095.491c-.604-.117-.948-.388-1.19-.662a.25.25 0 0 1 .023-.353ZM17.95 6.62l-.195-.156-.007.009a.83.83 0 0 1-.166.144.487.487 0 0 1-.374.094.25.25 0 1 0-.105.49c.318.068.587-.054.758-.17a1.426 1.426 0 0 0 .277-.245l.005-.006.002-.002v-.001l-.194-.157Z" fill="#333" class="xian"/><path fill-rule="evenodd" clip-rule="evenodd" d="M16.742 5.888a.25.25 0 0 1 .185.302.537.537 0 0 0-.003.293c.02.06.053.103.093.136a.448.448 0 0 0 .174.089l.01.002a.25.25 0 0 1-.088.492s.072-.41 0 0h-.003l-.004-.001-.01-.002a.752.752 0 0 1-.126-.038.948.948 0 0 1-.275-.16.795.795 0 0 1-.246-.363 1.03 1.03 0 0 1-.008-.564.25.25 0 0 1 .301-.186ZM17.137 3.85c.005.002.011.002.02.002h.015c.203.013.777.056 1.116.529a.25.25 0 1 1-.406.291c-.187-.261-.525-.307-.737-.32-.18-.005-.305-.09-.372-.135l-.03-.02c-.057-.034-.147-.081-.379-.084a.25.25 0 0 1 .006-.5c.319.004.496.075.632.157.103.062.118.077.135.08Z" fill="#333" class="xian"/><path fill-rule="evenodd" clip-rule="evenodd" d="M17.474 6.974a.25.25 0 0 1-.158.316c-.207.069-.374.224-.505.414-.131.189-.214.394-.257.53a.25.25 0 1 1-.476-.152c.052-.166.154-.42.322-.663.167-.241.412-.488.758-.604a.25.25 0 0 1 .316.159Z" fill="#333" class="xian"/><path d="M17.811 5.552c-.09-.762-1.146-1.178-1.518-1.056-.372.122.036.305.274.354.238.049.476.098.561.165.085.067.342.269.36.421.018.153-.396.04-.534-.034-.138-.074-.467.076-.381.143.085.068.579.318.732.3.152-.018.237.049.408.183.17.134.561.165.543.013-.018-.153-.382-.393-.445-.489Z" fill="#92C0C5" class="mian"/><path fill-rule="evenodd" clip-rule="evenodd" d="M16.653 4.6a.677.677 0 0 0-.33-.01.391.391 0 0 0-.065.028l.005.004a.916.916 0 0 0 .324.13h.002c.118.025.24.05.342.077.052.014.1.029.143.046a.457.457 0 0 1 .116.061c.043.034.133.105.214.187a.98.98 0 0 1 .115.137c.032.047.06.103.068.164a.155.155 0 0 1-.036.123.183.183 0 0 1-.095.056.505.505 0 0 1-.192 0 1.273 1.273 0 0 1-.357-.113c-.01-.005-.033-.01-.073-.007a.421.421 0 0 0-.116.03l-.005.002a2.752 2.752 0 0 0 .455.205c.07.022.11.027.125.026.194-.024.31.068.467.192l.015.012a.55.55 0 0 0 .285.092.295.295 0 0 0 .09-.007.318.318 0 0 0-.04-.058 1.298 1.298 0 0 0-.127-.128l-.084-.074a6.78 6.78 0 0 1-.06-.053.688.688 0 0 1-.111-.115l-.013-.02-.003-.023c-.04-.337-.296-.608-.604-.785a1.66 1.66 0 0 0-.455-.179Zm1.254.912c-.062-.412-.372-.719-.7-.906a1.86 1.86 0 0 0-.511-.201.864.864 0 0 0-.434-.004.503.503 0 0 0-.131.061.2.2 0 0 0-.082.105.166.166 0 0 0 .017.13c.02.034.047.06.073.082a1.1 1.1 0 0 0 .408.169c.12.024.236.048.332.074.048.013.09.026.123.039a.27.27 0 0 1 .064.033c.043.033.124.097.196.17a.776.776 0 0 1 .115.148.483.483 0 0 1-.082-.007 1.081 1.081 0 0 1-.293-.091.33.33 0 0 0-.187-.03.62.62 0 0 0-.174.044.405.405 0 0 0-.137.088.159.159 0 0 0-.045.09.13.13 0 0 0 .052.118c.029.023.083.055.143.087.063.034.14.072.218.107.079.036.162.069.236.092a.541.541 0 0 0 .208.034c.105-.012.158.023.335.163.107.083.27.129.4.135a.435.435 0 0 0 .193-.029.198.198 0 0 0 .083-.067.169.169 0 0 0 .028-.117.366.366 0 0 0-.09-.18 1.486 1.486 0 0 0-.148-.148 6.548 6.548 0 0 0-.146-.128.983.983 0 0 1-.064-.061Z" fill="#333" class="xian"/><path d="M5.656 20.8v-2.951h4.591V20.8H5.656Z" fill="#FFD872" class="mian"/><path d="M5 15.397v1.468h5.903v-1.468a.5.5 0 0 0-.5-.5H5.5a.5.5 0 0 0-.5.5Z" fill="#EA972E" class="mian"/><path fill-rule="evenodd" clip-rule="evenodd" d="M5.5 15.297a.1.1 0 0 0-.1.1v1.068h5.103v-1.068a.1.1 0 0 0-.1-.1H5.5Zm-.9.1a.9.9 0 0 1 .9-.9h4.903a.9.9 0 0 1 .9.9v1.468a.4.4 0 0 1-.4.4H5a.4.4 0 0 1-.4-.4v-1.468Z" fill="#333" class="xian"/><path fill-rule="evenodd" clip-rule="evenodd" d="M5.092 16.865c0-.221.179-.4.4-.4h4.92c.22 0 .4.179.4.4V20.8a.4.4 0 0 1-.4.4h-4.92a.4.4 0 0 1-.4-.4v-3.935Zm.8.4V20.4h4.12v-3.135h-4.12Z" fill="#333" class="xian"/><path d="M6.312 14.2v.697h3.28V14.2a.2.2 0 0 0-.2-.2h-2.88a.2.2 0 0 0-.2.2Z" fill="#EA972E" class="mian"/><path fill-rule="evenodd" clip-rule="evenodd" d="M6.712 14.4v.097h2.48V14.4h-2.48Zm-.8-.2a.6.6 0 0 1 .6-.6h2.88a.6.6 0 0 1 .6.6v.697a.4.4 0 0 1-.4.4h-3.28a.4.4 0 0 1-.4-.4V14.2ZM5.984 15.48a.4.4 0 0 1 .4.4v.82a.4.4 0 0 1-.8 0v-.82a.4.4 0 0 1 .4-.4ZM7.296 15.48a.4.4 0 0 1 .4.4v.82a.4.4 0 0 1-.8 0v-.82a.4.4 0 0 1 .4-.4ZM8.607 15.48a.4.4 0 0 1 .4.4v.82a.4.4 0 0 1-.8 0v-.82a.4.4 0 0 1 .4-.4ZM9.92 15.48a.4.4 0 0 1 .4.4v.82a.4.4 0 0 1-.8 0v-.82a.4.4 0 0 1 .4-.4Z" fill="#333" class="xian"/><path d="M14 17.77a2.692 2.692 0 0 1 5.385 0v2.692l-.732.146a10.001 10.001 0 0 1-3.922 0L14 20.462v-2.693Z" fill="#FFE9ED" class="mian"/><path fill-rule="evenodd" clip-rule="evenodd" d="M13.6 17.77a3.092 3.092 0 1 1 6.185 0v2.692a.4.4 0 0 1-.322.392l-.731.146a10.4 10.4 0 0 1-4.08 0l-.73-.146a.4.4 0 0 1-.322-.392v-2.693Zm3.092-2.293a2.292 2.292 0 0 0-2.292 2.292v2.365l.41.081a9.599 9.599 0 0 0 3.765 0l.41-.081v-2.365a2.292 2.292 0 0 0-2.293-2.292Z" fill="#333" class="xian"/><path fill-rule="evenodd" clip-rule="evenodd" d="M14.677 14.8a1.2 1.2 0 0 1 1.2-1.2h1.63a1.2 1.2 0 0 1 1.2 1.2v4.095a.4.4 0 0 1-.283.383l-.456.138a4.4 4.4 0 0 1-2.552 0l-.455-.138a.4.4 0 0 1-.284-.383V14.8Zm1.2-.4a.4.4 0 0 0-.4.4v3.798l.171.052a3.6 3.6 0 0 0 2.088 0l.172-.052V14.8a.4.4 0 0 0-.4-.4h-1.631Z" fill="#333" class="xian"/><path d="M7.247 9.948c.41.07.83.07 1.24-.004C9.822 9.703 10.727 8.349 10.572 7l-1.1-2.5C8.714 3.543 7.854 3 7.854 3S5.213 4.538 5.012 7c-.112 1.375.876 2.712 2.235 2.948Z" fill="#CA3A26" class="mian"/><path fill-rule="evenodd" clip-rule="evenodd" d="M8.068 2.662 7.855 3l-.201-.346a.4.4 0 0 1 .414.008Zm-.222.82a7.061 7.061 0 0 1 1.313 1.267l.627-.497A7.861 7.861 0 0 0 8.083 2.67l-.01-.006-.003-.002-.002-.001L7.855 3l-.201-.346-.002.001-.002.001-.008.005-.026.016a6.955 6.955 0 0 0-.413.279 8.123 8.123 0 0 0-.978.84c-.716.722-1.5 1.806-1.612 3.171-.128 1.571.993 3.103 2.566 3.375.456.079.923.077 1.378-.005 1.566-.282 2.59-1.847 2.414-3.383l-.795.092c.133 1.162-.654 2.304-1.76 2.504a3.162 3.162 0 0 1-1.1.004C6.17 9.355 5.314 8.21 5.41 7.033c.09-1.097.726-2.013 1.382-2.675a7.323 7.323 0 0 1 1.053-.877Z" fill="#333" class="xian"/><path d="M10.099 4.05s.82.518 1.105 1.372c.268.805-.365 1.745-1.212 1.687-.706-.049-1.242-.77-1.116-1.465.178-.986 1.223-1.594 1.223-1.594Z" fill="#CA3A26" class="mian"/><path fill-rule="evenodd" clip-rule="evenodd" d="m10.313 3.712-.214.338-.201-.346a.4.4 0 0 1 .415.008Zm-.224.83c.053.045.113.098.175.16.216.211.445.502.56.846a.922.922 0 0 1-.135.811c-.166.236-.411.369-.67.35-.457-.03-.835-.521-.75-.994.068-.375.308-.702.564-.95.091-.09.18-.164.256-.222Zm-.191-.838.201.346.213-.338h.001l.002.001.003.002.01.007.034.022c.027.02.066.047.112.082.092.07.216.172.35.304.266.26.59.656.76 1.165.179.538.054 1.106-.24 1.524-.296.42-.791.73-1.38.689-.954-.066-1.648-1.016-1.482-1.935.11-.61.482-1.08.794-1.383a3.792 3.792 0 0 1 .603-.474l.012-.008.004-.002.002-.001ZM6.7 7.725c0-.22.179-.4.4-.4h1.4a.4.4 0 1 1 0 .8H7.1a.4.4 0 0 1-.4-.4Z" fill="#333" class="xian"/><path fill-rule="evenodd" clip-rule="evenodd" d="M7.4 8.425v-1.4a.4.4 0 0 1 .8 0v1.4a.4.4 0 1 1-.8 0Z" fill="#333" class="xian"/></svg>