<svg width="24" height="24" viewBox="0 0 24 24" fill="none" xmlns="http://www.w3.org/2000/svg">
<g filter="url(#filter0_i_2278_829)">
<path d="M9 2.69688V4.63333C9 4.74379 8.91046 4.83333 8.8 4.83333H7.2C7.08954 4.83333 7 4.74379 7 4.63333V2.69688C7 2.63218 7.0313 2.57147 7.08402 2.53394L7.55799 2.19657C7.58435 2.17781 7.6 2.14745 7.6 2.1151V1.6C7.6 1.54477 7.64477 1.5 7.7 1.5H8.3C8.35523 1.5 8.4 1.54477 8.4 1.6V2.1151C8.4 2.14745 8.41565 2.17781 8.44201 2.19657L8.91598 2.53394C8.9687 2.57147 9 2.63218 9 2.69688Z" fill="url(#paint0_linear_2278_829)" class='xian'/>
</g>
<path d="M6 5V8.5H18V5H6Z" fill="#E7E7E8" class='mian'/>
<path d="M7 6V6.4H9V6H7Z" fill="#4A8EC2" class='xian'/>
<path d="M6 8.5V12H18V8.5H6Z" fill="#E7E7E8" class='mian'/>
<path d="M6 15V18.5H18V15H6Z" fill="#E7E7E8" class='mian'/>
<path d="M6 18V21.5H18V18H6Z" fill="#E7E7E8" class='mian'/>
<path d="M6 12V15.5H12V12H6Z" fill="#414046" class='mian'/>
<path d="M12 12V15.5H18V12H12Z" fill="#51535F" class='mian'/>
<path fill-rule="evenodd" clip-rule="evenodd" d="M17.5 8.60002H6V8.40002H17.5V8.60002Z" fill="#09131D"  class='xian'/>
<path fill-rule="evenodd" clip-rule="evenodd" d="M17.5 12.1H6V11.9H17.5V12.1Z" fill="#09131D"  class='xian'/>
<path fill-rule="evenodd" clip-rule="evenodd" d="M17.5 15.6H6V15.4H17.5V15.6Z" fill="#09131D"  class='xian'/>
<path fill-rule="evenodd" clip-rule="evenodd" d="M17.5 18.6H6V18.4H17.5V18.6Z" fill="#09131D"  class='xian'/>
<path fill-rule="evenodd" clip-rule="evenodd" d="M5.25 5C5.25 4.58579 5.58579 4.25 6 4.25H18C18.4142 4.25 18.75 4.58579 18.75 5V22C18.75 22.4142 18.4142 22.75 18 22.75H6C5.58579 22.75 5.25 22.4142 5.25 22V5ZM6.75 5.75V21.25H17.25V5.75H6.75Z" fill="#B3B3B3" class='xian'/>
<defs>
<filter id="filter0_i_2278_829" x="6.75" y="1.5" width="2.25" height="3.33337" filterUnits="userSpaceOnUse" color-interpolation-filters="sRGB">
<feFlood flood-opacity="0" result="BackgroundImageFix"/>
<feBlend mode="normal" in="SourceGraphic" in2="BackgroundImageFix" result="shape"/>
<feColorMatrix in="SourceAlpha" type="matrix" values="0 0 0 0 0 0 0 0 0 0 0 0 0 0 0 0 0 0 127 0" result="hardAlpha"/>
<feOffset dx="-0.25"/>
<feGaussianBlur stdDeviation="0.25"/>
<feComposite in2="hardAlpha" operator="arithmetic" k2="-1" k3="1"/>
<feColorMatrix type="matrix" values="0 0 0 0 0 0 0 0 0 0 0 0 0 0 0 0 0 0 0.25 0"/>
<feBlend mode="normal" in2="shape" result="effect1_innerShadow_2278_829"/>
</filter>
<linearGradient id="paint0_linear_2278_829" x1="8" y1="1.5" x2="8" y2="4.83333" gradientUnits="userSpaceOnUse">
<stop stop-color="#404042"/>
<stop offset="0.196875" stop-color="#404042"/>
<stop offset="0.196875" stop-color="#EBEBEB"/>
<stop offset="1" stop-color="#EBEBEB"/>
<stop offset="1" stop-color="#EBEBEB"/>
</linearGradient>
</defs>
</svg>
