<svg width="24" height="24" viewBox="0 0 24 24" fill="none" xmlns="http://www.w3.org/2000/svg">
<path fill-rule="evenodd" clip-rule="evenodd" d="M1.25 2C1.25 1.58579 1.58579 1.25 2 1.25H22C22.4142 1.25 22.75 1.58579 22.75 2V22C22.75 22.4142 22.4142 22.75 22 22.75H2C1.58579 22.75 1.25 22.4142 1.25 22V2ZM2.75 2.75V21.25H21.25V2.75H2.75Z" fill="#333333" class='xian'/>
<path fill-rule="evenodd" clip-rule="evenodd" d="M11.25 22V2H12.75V22H11.25Z" fill="#333333" class='xian'/>
<path d="M6 12.5L7 11H9L9.5 11.5L8 14L6.5 16L6 12.5Z" fill="rgba(0,0,0,0)" class='mian'/>
<path d="M5.33252 13.5L6.33252 12V16L5.83252 16.5L4.83252 16V14.5L5.33252 13.5Z" fill="#4D4D4D"/>
<path fill-rule="evenodd" clip-rule="evenodd" d="M6.40497 11.7607C6.51041 11.7927 6.58252 11.8899 6.58252 12V16C6.58252 16.0663 6.55618 16.1299 6.5093 16.1768L6.0093 16.6768C5.93321 16.7529 5.81696 16.7717 5.72072 16.7236L4.72072 16.2236C4.63602 16.1813 4.58252 16.0947 4.58252 16V14.5C4.58252 14.4612 4.59156 14.4229 4.60891 14.3882L5.10891 13.3882C5.11355 13.3789 5.11876 13.37 5.12451 13.3613L6.12451 11.8613C6.18562 11.7697 6.29953 11.7288 6.40497 11.7607ZM5.54917 13.6257L5.08252 14.559V15.8455L5.78316 16.1958L6.08252 15.8965V12.8257L5.54917 13.6257Z" fill="#333333" class='xian'/>
<path fill-rule="evenodd" clip-rule="evenodd" d="M7.56699 8.66092C7.70506 8.42177 8.01085 8.33983 8.25 8.47791L10.4151 9.72791C10.6542 9.86598 10.7361 10.1718 10.5981 10.4109L7.51229 15.7557C7.18077 16.3299 6.63472 16.7489 5.99427 16.9205L5.82438 16.966C5.36394 17.0894 4.88043 16.8706 4.66915 16.4433L4.52621 16.1542C4.15572 15.4049 4.18423 14.52 4.60217 13.7961L7.56699 8.66092ZM8.18301 9.59393L5.4682 14.2961C5.21743 14.7305 5.20033 15.2614 5.42262 15.711L5.56556 16.0001L5.73545 15.9545C6.11972 15.8516 6.44735 15.6002 6.64626 15.2557L9.48205 10.3439L8.18301 9.59393Z" fill="#333333" class='xian'/>
<path fill-rule="evenodd" clip-rule="evenodd" d="M7.4707 11.3487C7.38371 11.3052 7.28131 11.3052 7.19431 11.3487L6.94431 11.4737L6.7207 11.0265L6.9707 10.9015C7.19846 10.7876 7.46655 10.7876 7.69431 10.9015C7.78131 10.9449 7.88371 10.9449 7.9707 10.9015C8.19846 10.7876 8.46655 10.7876 8.69431 10.9015C8.78131 10.9449 8.88371 10.9449 8.9707 10.9015C9.19846 10.7876 9.46655 10.7876 9.69431 10.9015L9.94431 11.0265L9.7207 11.4737L9.4707 11.3487C9.38371 11.3052 9.28131 11.3052 9.19431 11.3487C8.96655 11.4625 8.69846 11.4625 8.4707 11.3487C8.38371 11.3052 8.28131 11.3052 8.19431 11.3487C7.96655 11.4625 7.69846 11.4625 7.4707 11.3487Z" fill="#333333" class='xian'/>
<path d="M18.2 12.5L17.2 11H15.2L14.7 11.5L16.2 14L17.7 16L18.2 12.5Z" fill="rgba(0,0,0,0)" class='mian'/>
<path d="M18.6675 13.5L17.6675 12V16L18.1675 16.5L19.1675 16V14.5L18.6675 13.5Z" fill="#4C4C4C"/>
<path fill-rule="evenodd" clip-rule="evenodd" d="M17.595 11.7607C17.4896 11.7927 17.4175 11.8899 17.4175 12V16C17.4175 16.0663 17.4438 16.1299 17.4907 16.1768L17.9907 16.6768C18.0668 16.7529 18.183 16.7717 18.2793 16.7236L19.2793 16.2236C19.364 16.1813 19.4175 16.0947 19.4175 16V14.5C19.4175 14.4612 19.4084 14.4229 19.3911 14.3882L18.8911 13.3882C18.8865 13.3789 18.8812 13.37 18.8755 13.3613L17.8755 11.8613C17.8144 11.7697 17.7005 11.7288 17.595 11.7607ZM18.4508 13.6257L18.9175 14.559V15.8455L18.2168 16.1958L17.9175 15.8965V12.8257L18.4508 13.6257Z" fill="#333333" class='xian'/>
<path fill-rule="evenodd" clip-rule="evenodd" d="M16.433 8.66092C16.2949 8.42177 15.9891 8.33983 15.75 8.47791L13.5849 9.72791C13.3458 9.86598 13.2639 10.1718 13.4019 10.4109L16.4877 15.7557C16.8192 16.3299 17.3653 16.7489 18.0057 16.9205L18.1756 16.966C18.6361 17.0894 19.1196 16.8706 19.3308 16.4433L19.4738 16.1542C19.8443 15.4049 19.8158 14.52 19.3978 13.7961L16.433 8.66092ZM15.817 9.59393L18.5318 14.2961C18.7826 14.7305 18.7997 15.2614 18.5774 15.711L18.4344 16.0001L18.2645 15.9545C17.8803 15.8516 17.5526 15.6002 17.3537 15.2557L14.518 10.3439L15.817 9.59393Z" fill="#333333" class='xian'/>
<path fill-rule="evenodd" clip-rule="evenodd" d="M16.5293 11.3487C16.6163 11.3052 16.7187 11.3052 16.8057 11.3487L17.0557 11.4737L17.2793 11.0265L17.0293 10.9015C16.8015 10.7876 16.5335 10.7876 16.3057 10.9015C16.2187 10.9449 16.1163 10.9449 16.0293 10.9015C15.8015 10.7876 15.5335 10.7876 15.3057 10.9015C15.2187 10.9449 15.1163 10.9449 15.0293 10.9015C14.8015 10.7876 14.5335 10.7876 14.3057 10.9015L14.0557 11.0265L14.2793 11.4737L14.5293 11.3487C14.6163 11.3052 14.7187 11.3052 14.8057 11.3487C15.0335 11.4625 15.3015 11.4625 15.5293 11.3487C15.6163 11.3052 15.7187 11.3052 15.8057 11.3487C16.0335 11.4625 16.3015 11.4625 16.5293 11.3487Z" fill="#333333" class='xian'/>
<path fill-rule="evenodd" clip-rule="evenodd" d="M17.4972 4.05417C17.5037 3.99418 17.4995 3.93197 17.4829 3.87018C17.4112 3.60351 17.1369 3.44545 16.8702 3.51715L15.8702 3.78601C15.6415 3.8475 15.4873 4.06099 15.5008 4.29742C15.5143 4.53385 15.6919 4.72836 15.9261 4.76337C16.8156 4.89632 17.5222 5.06952 17.9937 5.2589C18.2178 5.34891 18.3637 5.43277 18.4482 5.5C18.3637 5.56723 18.2178 5.65109 17.9937 5.7411C17.5222 5.93048 16.8156 6.10368 15.9261 6.23663C15.653 6.27745 15.4647 6.53194 15.5055 6.80505C15.5463 7.07816 15.8008 7.26647 16.0739 7.22564C16.9979 7.08753 17.7913 6.90003 18.3664 6.66905C18.6517 6.55446 18.9119 6.41804 19.1093 6.25093C19.3029 6.08706 19.5 5.83665 19.5 5.5C19.5 5.16335 19.3029 4.91294 19.1093 4.74907C18.9119 4.58196 18.6517 4.44554 18.3664 4.33095C18.1157 4.23027 17.8236 4.13785 17.4972 4.05417ZM8.49451 4.19495C8.53533 4.46806 8.34702 4.72255 8.07391 4.76337C7.18444 4.89632 6.47782 5.06952 6.0063 5.2589C5.78221 5.34891 5.63633 5.43277 5.55182 5.5C5.63633 5.56723 5.78221 5.65109 6.0063 5.7411C6.47782 5.93048 7.18444 6.10368 8.07391 6.23663C8.30813 6.27164 8.48566 6.46615 8.49918 6.70258C8.51271 6.93901 8.35852 7.1525 8.12982 7.21399L7.12982 7.48285C6.86315 7.55455 6.58885 7.3965 6.51715 7.12982C6.50053 7.06803 6.49626 7.00583 6.50281 6.94583C6.17643 6.86216 5.88428 6.76973 5.63359 6.66905C5.3483 6.55446 5.08812 6.41804 4.8907 6.25093C4.6971 6.08706 4.5 5.83665 4.5 5.5C4.5 5.16335 4.6971 4.91294 4.8907 4.74907C5.08812 4.58196 5.3483 4.44554 5.63359 4.33095C6.20869 4.09997 7.00207 3.91247 7.92609 3.77436C8.19919 3.73353 8.45369 3.92184 8.49451 4.19495Z" fill="#333333" class='xian'/>
</svg>
