<svg width="24" height="24" viewBox="0 0 24 24" fill="none" xmlns="http://www.w3.org/2000/svg">
<path d="M2 22H18V13H2V22Z" fill="white"/>
<path fill-rule="evenodd" clip-rule="evenodd" d="M1.25 13C1.25 12.5858 1.58579 12.25 2 12.25H18C18.4142 12.25 18.75 12.5858 18.75 13V22C18.75 22.4142 18.4142 22.75 18 22.75H2C1.58579 22.75 1.25 22.4142 1.25 22V13ZM2.75 13.75V21.25H17.25V13.75H2.75Z" fill="#333333" class='xian'/>
<path d="M6 17.2042C5.00665 17.2042 4.5 16.1533 4.5 15.16V13.25H7.5V15.16C7.5 16.1533 6.99335 17.2042 6 17.2042V17.2042Z" fill="#999999" class='mian'/>
<path fill-rule="evenodd" clip-rule="evenodd" d="M4 13.25C4 12.9739 4.22386 12.75 4.5 12.75H7.5C7.77614 12.75 8 12.9739 8 13.25V16.75C8 16.9172 7.91645 17.0733 7.77735 17.166C6.70107 17.8835 5.29893 17.8835 4.22265 17.166C4.08355 17.0733 4 16.9172 4 16.75V13.25ZM5 13.75V16.4643C5.6277 16.7841 6.3723 16.7841 7 16.4643V13.75H5Z" fill="#333333" class='xian'/>
<path d="M2 13V11H11V13H2Z" fill="white"/>
<path fill-rule="evenodd" clip-rule="evenodd" d="M1.25 11C1.25 10.5858 1.58579 10.25 2 10.25H11C11.4142 10.25 11.75 10.5858 11.75 11V13C11.75 13.4142 11.4142 13.75 11 13.75H2C1.58579 13.75 1.25 13.4142 1.25 13V11ZM2.75 11.75V12.25H10.25V11.75H2.75Z" fill="#333333" class='xian'/>
<path d="M14 2C14 1.72386 14.2239 1.5 14.5 1.5L15.5 1.5C15.7761 1.5 16 1.72386 16 2L16 7.5L14 7.5L14 2Z" fill="#333333" class='xian'/>
<path d="M12 8.5C12 8.22386 12.2239 8 12.5 8L-nan -nanL-nan -nanL12.5 8C12.7761 8 13 8.22386 13 8.5L13 13L12 13L12 8.5Z" fill="#333333" class='xian'/>
<path d="M16.3 8C16.4105 8 16.5 8.08954 16.5 8.2L16.5 10.8C16.5 10.9105 16.4105 11 16.3 11L15.7 11C15.5895 11 15.5 10.9105 15.5 10.8L15.5 8.2C15.5 8.08954 15.5895 8 15.7 8L16.3 8Z" fill="#333333" class='xian'/>
<path d="M17.8 8C17.9105 8 18 8.08954 18 8.2V9H20V8.2C20 8.08954 20.0895 8 20.2 8H20.8C20.9105 8 21 8.08954 21 8.2V10.8C21 10.9105 20.9105 11 20.8 11H17.2C17.0895 11 17 10.9105 17 10.8V8.2C17 8.08954 17.0895 8 17.2 8H17.8Z" fill="#333333" class='xian'/>
<path d="M18 10.8C18 10.9105 17.9105 11 17.8 11L16.2 11C16.0895 11 16 10.9105 16 10.8L16 10.2C16 10.0895 16.0895 10 16.2 10L17.8 10C17.9105 10 18 10.0895 18 10.2L18 10.8Z" fill="#333333" class='xian'/>
<path d="M13.8 8C13.9105 8 14 8.08954 14 8.2L14 10.3C14 10.4105 13.9105 10.5 13.8 10.5L13 10.5L13 8.2C13 8.08954 13.0895 8 13.2 8L13.8 8Z" fill="#333333" class='xian'/>
<path fill-rule="evenodd" clip-rule="evenodd" d="M10.25 22V13H11.75V22H10.25Z" fill="#333333" class='xian'/>
<path fill-rule="evenodd" clip-rule="evenodd" d="M21.75 8.1C21.75 8.32091 21.5709 8.5 21.35 8.5L6.65 8.5C6.42909 8.5 6.25 8.32091 6.25 8.1L6.25 7.4C6.25 7.17909 6.42909 7 6.65 7L21.35 7C21.5709 7 21.75 7.17909 21.75 7.4L21.75 8.1Z" fill="#333333" class='xian'/>
<path d="M5.59142 14.3519C5.54605 14.1918 5.72805 14.0644 5.8629 14.1618V14.1618C5.92238 14.2047 6.00232 14.2061 6.06327 14.1653V14.1653C6.20143 14.0727 6.37888 14.2064 6.32794 14.3647V14.3647C6.30547 14.4346 6.32885 14.511 6.38654 14.5564V14.5564C6.5173 14.6591 6.44497 14.8692 6.27864 14.8697V14.8697C6.20527 14.8699 6.13978 14.9158 6.11448 14.9847V14.9847C6.05714 15.1408 5.83498 15.1369 5.78312 14.9789V14.9789C5.76024 14.9092 5.6964 14.861 5.62307 14.8583V14.8583C5.45686 14.852 5.3919 14.6395 5.52618 14.5413V14.5413C5.58541 14.498 5.61144 14.4225 5.59142 14.3519V14.3519Z" fill="#DEDEDE"/>
<path fill-rule="evenodd" clip-rule="evenodd" d="M18.7209 16.294C18.8347 16.6922 18.6041 17.1074 18.2058 17.2212C15.7836 17.9132 13.216 17.9132 10.7938 17.2212C10.3955 17.1074 10.1649 16.6922 10.2787 16.294C10.3925 15.8957 10.8076 15.6651 11.2058 15.7789C13.3587 16.394 15.6409 16.394 17.7938 15.7789C18.192 15.6651 18.6072 15.8957 18.7209 16.294Z" fill="#333333" class='xian'/>
</svg>
