<svg width="24" height="24" viewBox="0 0 24 24" fill="none" xmlns="http://www.w3.org/2000/svg">
<path d="M17 12H7L7.00002 2H17L17 12Z" fill="#666666" class='mian'/>
<path fill-rule="evenodd" clip-rule="evenodd" d="M6.25002 2C6.25002 1.58579 6.58581 1.25 7.00002 1.25H17C17.1989 1.25 17.3897 1.32902 17.5303 1.46967C17.671 1.61032 17.75 1.80109 17.75 2L17.75 12C17.75 12.4142 17.4142 12.75 17 12.75H7C6.80109 12.75 6.61032 12.671 6.46967 12.5303C6.32902 12.3897 6.25 12.1989 6.25 12L6.25002 2ZM7.75002 2.75L7.75 11.25H16.25L16.25 2.75H7.75002Z" fill="#333333" class='xian'/>
<path d="M17 22H7L7.00002 12H17L17 22Z" fill="#666666" class='mian'/>
<path fill-rule="evenodd" clip-rule="evenodd" d="M6.25002 12C6.25002 11.5858 6.58581 11.25 7.00002 11.25H17C17.1989 11.25 17.3897 11.329 17.5303 11.4697C17.671 11.6103 17.75 11.8011 17.75 12L17.75 22C17.75 22.4142 17.4142 22.75 17 22.75H7C6.80109 22.75 6.61032 22.671 6.46967 22.5303C6.32902 22.3897 6.25 22.1989 6.25 22L6.25002 12ZM7.75002 12.75L7.75 21.25H16.25L16.25 12.75H7.75002Z" fill="#333333" class='xian'/>
<path d="M17 2H14.5V12H17V2Z" fill="#7F9FD9" class='mian'/>
<path fill-rule="evenodd" clip-rule="evenodd" d="M17.75 2C17.75 1.58579 17.4142 1.25 17 1.25H14.5C14.0858 1.25 13.75 1.58579 13.75 2V12C13.75 12.4142 14.0858 12.75 14.5 12.75H17C17.4142 12.75 17.75 12.4142 17.75 12V2ZM16.25 2.75V11.25H15.25V2.75H16.25Z" fill="#333333" class='xian'/>
<path d="M17 12H14.5V22H17V12Z" fill="#7F9FD9" class='mian'/>
<path fill-rule="evenodd" clip-rule="evenodd" d="M17.75 12C17.75 11.5858 17.4142 11.25 17 11.25H14.5C14.0858 11.25 13.75 11.5858 13.75 12V22C13.75 22.4142 14.0858 22.75 14.5 22.75H17C17.4142 22.75 17.75 22.4142 17.75 22V12ZM16.25 12.75V21.25H15.25V12.75H16.25Z" fill="#333333" class='xian'/>
<path fill-rule="evenodd" clip-rule="evenodd" d="M8.75 5.1001C8.75 4.82395 8.97386 4.6001 9.25 4.6001H12.25C12.3826 4.6001 12.5098 4.65278 12.6036 4.74654C12.6973 4.84031 12.75 4.96749 12.75 5.1001L12.75 7.1001C12.75 7.92853 12.0784 8.6001 11.25 8.6001H10.25C9.42157 8.6001 8.75 7.92852 8.75 7.10009L8.75 5.1001ZM9.75 5.6001L9.75 7.1001C9.75 7.37624 9.97386 7.6001 10.25 7.6001H11.25C11.5261 7.6001 11.75 7.37624 11.75 7.1001L11.75 5.6001H9.75Z" fill="#333333" class='xian'/>
<path fill-rule="evenodd" clip-rule="evenodd" d="M11.3501 8.10007L11.211 10.5116C11.2049 10.6174 11.1173 10.7001 11.0113 10.7001L10.4889 10.7001C10.3829 10.7001 10.2953 10.6174 10.2892 10.5116L10.1501 8.10007L11.3501 8.10007Z" fill="#333333" class='xian'/>
<path d="M10.1499 4.10002C10.1499 3.98957 10.2394 3.90002 10.3499 3.90002H11.1499C11.2604 3.90002 11.3499 3.98957 11.3499 4.10002V5.10002H10.1499V4.10002Z" fill="#333333" class='xian'/>
<path d="M10.4502 3.40005C10.4502 3.34482 10.495 3.30005 10.5502 3.30005H10.9502C11.0054 3.30005 11.0502 3.34482 11.0502 3.40005V5.10005H10.4502V3.40005Z" fill="#333333" class='xian'/>
</svg>
