<svg width="24" height="24" viewBox="0 0 24 24" fill="none" xmlns="http://www.w3.org/2000/svg">
<path fill-rule="evenodd" clip-rule="evenodd" d="M6.14707 10.2646C6.55324 10.3458 6.81666 10.7409 6.73542 11.1471L5.11232 19.2626C4.99423 19.8531 5.40249 20.4195 5.99997 20.4942C9.98448 20.9922 14.0155 20.9922 18 20.4942C18.5975 20.4195 19.0057 19.8531 18.8877 19.2626L17.2646 11.1471C17.1833 10.7409 17.4467 10.3458 17.8529 10.2646C18.2591 10.1834 18.6542 10.4468 18.7354 10.8529L20.3585 18.9685C20.6475 20.4135 19.6483 21.7998 18.1861 21.9826C14.078 22.4961 9.92198 22.4961 5.81392 21.9826C4.35162 21.7998 3.35243 20.4135 3.64145 18.9685L5.26455 10.8529C5.34578 10.4468 5.7409 10.1834 6.14707 10.2646Z" fill="#333333" class='xian'/>
<path fill-rule="evenodd" clip-rule="evenodd" d="M9.96837 8.86422C10.0434 9.27158 9.77393 9.66262 9.36656 9.73761C8.45344 9.90572 7.73529 10.1507 7.26698 10.4177C7.0332 10.5511 6.89171 10.673 6.81548 10.7662C6.77903 10.8108 6.76275 10.8424 6.75581 10.8597C6.7524 10.8681 6.75107 10.8735 6.75054 10.8762C6.75003 10.8787 6.75 10.88 6.75 10.8806L6.75 10.8807C6.75 10.8813 6.74999 10.8839 6.75178 10.8901C6.75374 10.8969 6.75868 10.9108 6.77087 10.9318C6.79636 10.9758 6.84962 11.0442 6.95226 11.1299C7.16212 11.3052 7.51063 11.4967 8.00716 11.6721C8.99346 12.0205 10.4051 12.25 12 12.25C13.5949 12.25 15.0065 12.0205 15.9928 11.6721C16.4894 11.4967 16.8379 11.3052 17.0477 11.1299C17.1504 11.0442 17.2036 10.9758 17.2291 10.9318C17.2413 10.9108 17.2463 10.8969 17.2482 10.8901C17.25 10.8839 17.25 10.8813 17.25 10.8807V10.8806C17.25 10.88 17.25 10.8787 17.2495 10.8762C17.2489 10.8735 17.2476 10.8681 17.2442 10.8597C17.2373 10.8424 17.221 10.8108 17.1845 10.7662C17.1083 10.673 16.9668 10.5511 16.733 10.4177C16.2647 10.1507 15.5466 9.90572 14.6334 9.73761C14.2261 9.66262 13.9566 9.27158 14.0316 8.86422C14.1066 8.45685 14.4977 8.18741 14.905 8.26241C15.9118 8.44775 16.809 8.7343 17.4761 9.11475C18.0969 9.46876 18.75 10.0444 18.75 10.8806C18.75 11.4831 18.4024 11.9529 18.0092 12.2813C17.6119 12.6131 17.0817 12.8783 16.4924 13.0864C15.3072 13.5051 13.7188 13.75 12 13.75C10.2812 13.75 8.69283 13.5051 7.50756 13.0864C6.9183 12.8783 6.38813 12.6131 5.99076 12.2813C5.59756 11.9529 5.25 11.4831 5.25 10.8806C5.25 10.0444 5.90314 9.46876 6.52387 9.11475C7.19096 8.7343 8.08819 8.44775 9.09498 8.26241C9.50234 8.18741 9.89338 8.45685 9.96837 8.86422Z" fill="#333333" class='xian'/>
<path fill-rule="evenodd" clip-rule="evenodd" d="M10.3892 10.0206C10.4402 10.2355 10.3072 10.4511 10.0923 10.5021C9.82445 10.5656 9.62671 10.6373 9.49949 10.7053C9.60606 10.7622 9.76572 10.8235 9.98109 10.8806C10.4819 11.0132 11.1958 11.1 12 11.1C12.8041 11.1 13.5181 11.0132 14.0189 10.8806C14.2342 10.8235 14.3939 10.7622 14.5005 10.7053C14.3732 10.6373 14.1755 10.5656 13.9077 10.5021C13.6927 10.4511 13.5598 10.2355 13.6108 10.0206C13.6617 9.80562 13.8773 9.67268 14.0923 9.72365C14.4169 9.80063 14.7095 9.90098 14.9308 10.0293C15.1241 10.1414 15.4 10.3562 15.4 10.7053C15.4 11.0324 15.1561 11.2412 14.9765 11.3536C14.7764 11.479 14.5133 11.5772 14.2237 11.6539C13.6387 11.8089 12.8527 11.9 12 11.9C11.1473 11.9 10.3612 11.8089 9.77622 11.6539C9.48667 11.5772 9.22359 11.479 9.0234 11.3536C8.84387 11.2412 8.59998 11.0324 8.59998 10.7053C8.59998 10.3562 8.87586 10.1414 9.06916 10.0293C9.2905 9.90098 9.58305 9.80063 9.90769 9.72365C10.1226 9.67268 10.3382 9.80562 10.3892 10.0206ZM14.6223 10.7893C14.6221 10.7893 14.6208 10.788 14.619 10.7851C14.6215 10.7879 14.6224 10.7893 14.6223 10.7893ZM14.6195 10.6249C14.6214 10.6219 14.6228 10.6205 14.623 10.6205C14.6232 10.6205 14.6222 10.622 14.6195 10.6249ZM9.37696 10.6205C9.37715 10.6205 9.37851 10.6219 9.38049 10.6249C9.37776 10.622 9.37677 10.6205 9.37696 10.6205ZM9.38098 10.7851C9.37913 10.788 9.37786 10.7893 9.37768 10.7893C9.37751 10.7893 9.37844 10.7879 9.38098 10.7851Z" fill="#333333" class='xian'/>
<path fill-rule="evenodd" clip-rule="evenodd" d="M9.5 2C9.5 1.72386 9.72386 1.5 10 1.5H14C14.2761 1.5 14.5 1.72386 14.5 2V3.25C14.5 3.52614 14.2761 3.75 14 3.75V8.17157C14 8.83461 13.7366 9.4705 13.2678 9.93934L12.7071 10.5C12.3166 10.8905 11.6834 10.8905 11.2929 10.5L10.7322 9.93934C10.2634 9.4705 10 8.83461 10 8.17157V3.75C9.72386 3.75 9.5 3.52614 9.5 3.25V2ZM11 3.75V8.17157C11 8.5694 11.158 8.95093 11.4393 9.23223L12 9.79289L12.5607 9.23223C12.842 8.95093 13 8.5694 13 8.17157V3.75H11ZM13.5 2.75H10.5V2.5H13.5V2.75Z" fill="#333333" class='xian'/>
<path fill-rule="evenodd" clip-rule="evenodd" d="M16.9325 3.94456C17.0301 4.04219 17.0301 4.20048 16.9325 4.29811C16.6396 4.59101 16.6396 5.06588 16.9325 5.35877C17.2254 5.65167 17.7003 5.65167 17.9932 5.35877C18.6766 4.67536 18.6766 3.56732 17.9932 2.8839C17.7003 2.59101 17.2254 2.59101 16.9325 2.8839C16.6396 3.17679 16.6396 3.65167 16.9325 3.94456Z" fill="#333333" class='xian'/>
<path fill-rule="evenodd" clip-rule="evenodd" d="M7.0658 3.94456C6.96817 4.04219 6.96817 4.20048 7.0658 4.29811C7.35869 4.59101 7.35869 5.06588 7.0658 5.35878C6.7729 5.65167 6.29803 5.65167 6.00514 5.35877C5.32172 4.67536 5.32172 3.56732 6.00514 2.8839C6.29803 2.59101 6.7729 2.59101 7.0658 2.8839C7.35869 3.17679 7.35869 3.65167 7.0658 3.94456Z" fill="#333333" class='xian'/>
<path fill-rule="evenodd" clip-rule="evenodd" d="M18.3484 2.53035C19.227 3.40903 19.227 4.83365 18.3484 5.71233C18.0555 6.00522 18.0555 6.4801 18.3484 6.77299C18.6413 7.06588 19.1161 7.06588 19.409 6.77299C20.8735 5.30852 20.8735 2.93415 19.409 1.46969C19.1161 1.17679 18.6413 1.17679 18.3484 1.46969C18.0555 1.76258 18.0555 2.23745 18.3484 2.53035Z" fill="#333333" class='xian'/>
<path fill-rule="evenodd" clip-rule="evenodd" d="M5.65164 2.53035C4.77296 3.40903 4.77296 4.83365 5.65164 5.71233C5.94453 6.00522 5.94453 6.4801 5.65164 6.77299C5.35875 7.06588 4.88387 7.06588 4.59098 6.77299C3.12652 5.30852 3.12652 2.93415 4.59098 1.46969C4.88388 1.17679 5.35875 1.17679 5.65164 1.46969C5.94454 1.76258 5.94454 2.23746 5.65164 2.53035Z" fill="#333333" class='xian'/>
<path fill-rule="evenodd" clip-rule="evenodd" d="M12 16.25C11.0335 16.25 10.25 17.0335 10.25 18C10.25 18.9665 11.0335 19.75 12 19.75C12.9665 19.75 13.75 18.9665 13.75 18C13.75 17.0335 12.9665 16.25 12 16.25ZM9.75 18C9.75 16.7574 10.7574 15.75 12 15.75C13.2426 15.75 14.25 16.7574 14.25 18C14.25 19.2426 13.2426 20.25 12 20.25C10.7574 20.25 9.75 19.2426 9.75 18Z" fill="#333333" class='xian'/>
<path fill-rule="evenodd" clip-rule="evenodd" d="M12 15.75C12.1381 15.75 12.25 15.8619 12.25 16V16.5C12.25 16.6381 12.1381 16.75 12 16.75C11.8619 16.75 11.75 16.6381 11.75 16.5V16C11.75 15.8619 11.8619 15.75 12 15.75Z" fill="#333333" class='xian'/>
<path fill-rule="evenodd" clip-rule="evenodd" d="M13.591 16.409C13.6886 16.5066 13.6886 16.6649 13.591 16.7625L13.2374 17.1161C13.1398 17.2137 12.9815 17.2137 12.8839 17.1161C12.7863 17.0184 12.7863 16.8601 12.8839 16.7625L13.2374 16.409C13.3351 16.3113 13.4934 16.3113 13.591 16.409Z" fill="#333333" class='xian'/>
<path fill-rule="evenodd" clip-rule="evenodd" d="M10.409 16.409C10.5066 16.3114 10.6649 16.3114 10.7626 16.409L11.1161 16.7626C11.2138 16.8602 11.2138 17.0185 11.1161 17.1161C11.0185 17.2138 10.8602 17.2138 10.7626 17.1161L10.409 16.7626C10.3114 16.665 10.3114 16.5067 10.409 16.409Z" fill="#333333" class='xian'/>
<path fill-rule="evenodd" clip-rule="evenodd" d="M14.25 18C14.25 18.1381 14.1381 18.25 14 18.25L13.5 18.25C13.3619 18.25 13.25 18.1381 13.25 18C13.25 17.8619 13.3619 17.75 13.5 17.75L14 17.75C14.1381 17.75 14.25 17.8619 14.25 18Z" fill="#333333" class='xian'/>
<path fill-rule="evenodd" clip-rule="evenodd" d="M10.75 18C10.75 18.1381 10.6381 18.25 10.5 18.25L10 18.25C9.86193 18.25 9.75 18.1381 9.75 18C9.75 17.8619 9.86193 17.75 10 17.75L10.5 17.75C10.6381 17.75 10.75 17.8619 10.75 18Z" fill="#333333" class='xian'/>
<path d="M12.7 18C12.7 17.6134 12.3866 17.3 12 17.3C11.6134 17.3 11.3 17.6134 11.3 18C11.3 18.3866 11.6134 18.7 12 18.7C12.3866 18.7 12.7 18.3866 12.7 18Z" fill="#333333" class='xian'/>
<path fill-rule="evenodd" clip-rule="evenodd" d="M12 18.45C11.7515 18.45 11.55 18.2485 11.55 18C11.55 17.7514 11.7515 17.55 12 17.55C12.2486 17.55 12.45 17.7514 12.45 18C12.45 18.2485 12.2486 18.45 12 18.45ZM11.05 18C11.05 18.5246 11.4754 18.95 12 18.95C12.5247 18.95 12.95 18.5246 12.95 18C12.95 17.4753 12.5247 17.05 12 17.05C11.4754 17.05 11.05 17.4753 11.05 18Z" fill="#333333" class='xian'/>
<path d="M11.9 17.6C11.9 17.7105 11.8105 17.8 11.7 17.8C11.5895 17.8 11.5 17.7105 11.5 17.6C11.5 17.4896 11.5895 17.4 11.7 17.4C11.8105 17.4 11.9 17.4896 11.9 17.6Z" fill="white"/>
</svg>
