<svg width="24" height="24" viewBox="0 0 24 24" fill="none" xmlns="http://www.w3.org/2000/svg">
<path fill-rule="evenodd" clip-rule="evenodd" d="M6.25 5C6.25 4.58579 6.58579 4.25 7 4.25H9C9.41421 4.25 9.75 4.58579 9.75 5C9.75 5.41421 9.41421 5.75 9 5.75H7.75V9.25H16.25V5.75H15C14.5858 5.75 14.25 5.41421 14.25 5C14.25 4.58579 14.5858 4.25 15 4.25H17C17.4142 4.25 17.75 4.58579 17.75 5V10C17.75 10.4142 17.4142 10.75 17 10.75H7C6.58579 10.75 6.25 10.4142 6.25 10V5ZM10.25 5C10.25 4.58579 10.5858 4.25 11 4.25H13C13.4142 4.25 13.75 4.58579 13.75 5C13.75 5.41421 13.4142 5.75 13 5.75H11C10.5858 5.75 10.25 5.41421 10.25 5Z" fill="#333333"/>
<path fill-rule="evenodd" clip-rule="evenodd" d="M4.2621 9.86584C4.32694 9.50922 4.63754 9.25 5.00001 9.25H19C19.3625 9.25 19.6731 9.50922 19.7379 9.86584L21.7379 20.8658C21.7777 21.0846 21.7183 21.3098 21.5758 21.4806C21.4333 21.6513 21.2224 21.75 21 21.75H3.00001C2.77761 21.75 2.56669 21.6513 2.42419 21.4806C2.28169 21.3098 2.22232 21.0846 2.2621 20.8658L4.2621 9.86584ZM5.62594 10.75L3.89867 20.25H20.1013L18.3741 10.75H5.62594Z" fill="#333333"/>
<path fill-rule="evenodd" clip-rule="evenodd" d="M8.64645 11.6464C8.84171 11.4512 9.15829 11.4512 9.35355 11.6464L10.3536 12.6464C10.5488 12.8417 10.5488 13.1583 10.3536 13.3536C10.1583 13.5488 9.84171 13.5488 9.64645 13.3536L9 12.7071L8.35355 13.3536C8.15829 13.5488 7.84171 13.5488 7.64645 13.3536C7.45118 13.1583 7.45118 12.8417 7.64645 12.6464L8.64645 11.6464Z" fill="#333333"/>
<path fill-rule="evenodd" clip-rule="evenodd" d="M14.6464 11.6464C14.8417 11.4512 15.1583 11.4512 15.3536 11.6464L16.3536 12.6464C16.5488 12.8417 16.5488 13.1583 16.3536 13.3536C16.1583 13.5488 15.8417 13.5488 15.6464 13.3536L15 12.7071L14.3536 13.3536C14.1583 13.5488 13.8417 13.5488 13.6464 13.3536C13.4512 13.1583 13.4512 12.8417 13.6464 12.6464L14.6464 11.6464Z" fill="#333333"/>
<path fill-rule="evenodd" clip-rule="evenodd" d="M9.35355 19.3536C9.15829 19.5488 8.84171 19.5488 8.64645 19.3536L7.64645 18.3536C7.45118 18.1583 7.45118 17.8417 7.64645 17.6464C7.84171 17.4512 8.15829 17.4512 8.35355 17.6464L9 18.2929L9.64645 17.6464C9.84171 17.4512 10.1583 17.4512 10.3536 17.6464C10.5488 17.8417 10.5488 18.1583 10.3536 18.3536L9.35355 19.3536Z" fill="#333333"/>
<path fill-rule="evenodd" clip-rule="evenodd" d="M15.3536 19.3536C15.1583 19.5488 14.8417 19.5488 14.6464 19.3536L13.6464 18.3536C13.4512 18.1583 13.4512 17.8417 13.6464 17.6464C13.8417 17.4512 14.1583 17.4512 14.3536 17.6464L15 18.2929L15.6464 17.6464C15.8417 17.4512 16.1583 17.4512 16.3536 17.6464C16.5488 17.8417 16.5488 18.1583 16.3536 18.3536L15.3536 19.3536Z" fill="#333333"/>
<path d="M9.8053 15.4992C9.96326 15.6645 10 15.8482 10 15.9878C10 16.1972 9.91918 16.3919 9.77224 16.5388C9.77224 16.5388 9.77224 16.5388 9.77224 16.5425C9.76489 16.5462 9.75754 16.5535 9.75387 16.5572C9.7355 16.5719 9.71713 16.5866 9.69876 16.6013C9.65468 16.638 9.59958 16.6711 9.53345 16.7005C9.52243 16.7078 9.50773 16.7115 9.49304 16.7188C9.45998 16.7298 9.42324 16.7445 9.38283 16.7556C9.35344 16.7629 9.32773 16.7666 9.29834 16.7739C9.27262 16.7776 9.24691 16.7813 9.21752 16.785C9.19915 16.7886 9.17711 16.7886 9.15507 16.7886C9.12935 16.7923 9.09996 16.7923 9.07425 16.7923C9.07057 16.7923 9.0669 16.7923 9.0669 16.7923C9.05221 16.7923 9.04118 16.7923 9.02649 16.7923C9.01547 16.7923 9.00077 16.7923 8.98608 16.7923C8.85383 16.785 8.7326 16.7592 8.62239 16.7262C8.61872 16.7262 8.61504 16.7262 8.61137 16.7225V16.7262C8.6077 16.7225 8.6077 16.7225 8.60402 16.7225C8.42034 16.6674 8.26605 16.5756 8.14482 16.4947C7.97216 16.3845 7.94644 16.1347 8.10808 15.9878C8.21462 15.8886 8.37626 15.8812 8.49381 15.9584L8.49749 15.9621C8.50851 15.9694 8.51953 15.9768 8.53055 15.9841C8.55627 15.9988 8.58566 16.0135 8.61137 16.0319C8.63341 16.0429 8.65545 16.0539 8.68117 16.0649C8.70321 16.0759 8.72158 16.0833 8.74729 16.0943C8.77301 16.1017 8.79873 16.1127 8.82811 16.12C8.87955 16.1347 8.93098 16.1457 8.98975 16.1494C9.00812 16.1494 9.02649 16.1531 9.04486 16.1531C9.05221 16.1531 9.06323 16.1531 9.07057 16.1531C9.14772 16.1531 9.21384 16.1421 9.26528 16.12C9.28732 16.109 9.30936 16.098 9.32405 16.0833C9.32405 16.0796 9.32773 16.0759 9.32773 16.0759C9.3461 16.0539 9.35344 16.0282 9.35344 16.0025C9.35344 15.9694 9.33875 15.94 9.31303 15.918C9.31303 15.918 9.30936 15.9143 9.30569 15.9143C9.29466 15.9033 9.27997 15.8959 9.2616 15.8849C9.25425 15.8812 9.24691 15.8776 9.23956 15.8739C9.1918 15.8519 9.13303 15.8335 9.0669 15.8151C9.04486 15.8078 9.02282 15.8041 9.00077 15.7967C8.97873 15.7894 8.95302 15.7857 8.9273 15.7784C8.92363 15.7784 8.91628 15.7784 8.91261 15.7784L8.90893 15.7747C8.89424 15.7747 8.87955 15.771 8.86485 15.7674C8.85383 15.7637 8.84648 15.76 8.83546 15.76C8.6628 15.7159 8.52688 15.6608 8.41667 15.591C8.1889 15.4441 8.06767 15.2273 8.07502 14.9775C8.08237 14.6689 8.21095 14.4889 8.31748 14.3898C8.49381 14.2318 8.75464 14.162 9.08527 14.184C9.22487 14.195 9.37181 14.2318 9.53712 14.3016C9.54447 14.3053 9.55549 14.3089 9.56651 14.3126C9.58488 14.3236 9.60692 14.331 9.62896 14.342C9.65835 14.3567 9.68774 14.3714 9.7208 14.3898C9.75019 14.4044 9.77224 14.4228 9.79428 14.4412C9.82734 14.4706 9.84938 14.5073 9.86775 14.544C9.87877 14.5734 9.88612 14.6028 9.88979 14.6322C9.89347 14.6469 9.89347 14.6653 9.89347 14.6836C9.89347 14.7057 9.88979 14.7314 9.88244 14.7534C9.87877 14.7755 9.87142 14.7975 9.85673 14.8196C9.84571 14.8453 9.83101 14.8636 9.81632 14.882C9.74652 14.9628 9.64733 14.9996 9.54447 14.9922C9.51508 14.9886 9.48569 14.9812 9.4563 14.9702C9.44528 14.9665 9.43794 14.9628 9.42691 14.9592C9.22854 14.8563 9.10731 14.8269 9.04118 14.8232C8.95669 14.8159 8.89424 14.8196 8.84648 14.8306C8.81342 14.8343 8.79138 14.8416 8.77301 14.8526C8.76199 14.8563 8.75464 14.86 8.74729 14.8673C8.68484 14.9188 8.70688 15.0143 8.76199 15.051C8.78036 15.0657 8.80975 15.0767 8.83914 15.0877C8.8575 15.0988 8.87955 15.1061 8.90526 15.1135C8.942 15.1245 8.98608 15.1355 9.03384 15.1465C9.03751 15.1502 9.04118 15.1502 9.04486 15.1502C9.05955 15.1539 9.07057 15.1539 9.08159 15.1575C9.2065 15.1869 9.31303 15.2163 9.40855 15.2531C9.42691 15.2604 9.44896 15.2677 9.46732 15.2751C9.5408 15.3082 9.60692 15.3412 9.6657 15.3816C9.70244 15.4073 9.7355 15.4331 9.76489 15.4624C9.77958 15.4735 9.79428 15.4882 9.8053 15.4992ZM9.58855 16.0172C9.58855 16.0135 9.58855 16.0135 9.58855 16.0135C9.58855 16.0135 9.58855 16.0135 9.58855 16.0172ZM9.68039 16.3698C9.68039 16.3735 9.68407 16.3772 9.68407 16.3845C9.68407 16.3772 9.68039 16.3735 9.68039 16.3698Z" fill="#333333"/>
<path d="M16.2308 14.7504C16.2269 14.7542 16.223 14.7581 16.2191 14.762C16.2153 14.7659 16.2114 14.7698 16.2075 14.7698V14.7736C16.1532 14.8202 16.0833 14.8512 16.0096 14.8551C15.998 14.8551 15.9902 14.859 15.9825 14.859H15.4975V16.4807C15.4975 16.4884 15.4975 16.4962 15.4975 16.5001C15.4975 16.5039 15.4975 16.5039 15.4975 16.5078C15.4975 16.5117 15.4975 16.5156 15.4975 16.5195C15.4975 16.5233 15.4975 16.5233 15.4936 16.5272C15.4936 16.5311 15.4936 16.535 15.4936 16.5388V16.5427C15.4898 16.5505 15.4898 16.5544 15.4898 16.5582V16.5621C15.482 16.5854 15.4742 16.6126 15.4626 16.632C15.4432 16.6746 15.4161 16.7096 15.3811 16.7367C15.3773 16.7406 15.3734 16.7445 15.3656 16.7483C15.3501 16.76 15.3346 16.7716 15.3191 16.7794C15.3152 16.7833 15.3152 16.7833 15.3152 16.7833C15.3113 16.7833 15.3074 16.7871 15.2997 16.791C15.2997 16.791 15.2997 16.791 15.2958 16.791C15.2919 16.7949 15.288 16.7949 15.2841 16.7949C15.2803 16.7988 15.2803 16.7988 15.2803 16.7988C15.2725 16.7988 15.2686 16.8027 15.2609 16.8027C15.257 16.8065 15.2492 16.8065 15.2415 16.8104C15.2415 16.8104 15.2415 16.8104 15.2376 16.8104C15.2337 16.8104 15.2298 16.8143 15.226 16.8143C15.2221 16.8143 15.2221 16.8143 15.2182 16.8143C15.2143 16.8143 15.2104 16.8182 15.2066 16.8182C15.2027 16.8182 15.2027 16.8182 15.1988 16.8182C15.1949 16.8182 15.191 16.8182 15.1872 16.8182C15.1833 16.8182 15.1833 16.8182 15.1794 16.8182C15.1716 16.8182 15.1678 16.8182 15.16 16.8182C15.1561 16.8182 15.1522 16.8182 15.1484 16.8182C15.1134 16.8182 15.0785 16.8104 15.0475 16.8027C15.0397 16.7988 15.032 16.7949 15.0203 16.791C15.0126 16.7871 15.0048 16.7833 14.9971 16.7794C14.9505 16.7522 14.9156 16.7212 14.8845 16.6785C14.8845 16.6785 14.8845 16.6785 14.8845 16.6746C14.8768 16.6708 14.8729 16.663 14.869 16.6552C14.869 16.6514 14.8652 16.6475 14.8613 16.6436V16.6397C14.8574 16.6358 14.8574 16.632 14.8535 16.6281C14.8535 16.6203 14.8496 16.6164 14.8496 16.6126C14.8458 16.6126 14.8458 16.6126 14.8458 16.6126C14.8458 16.6048 14.8419 16.6009 14.8419 16.597C14.8341 16.5738 14.8302 16.5544 14.8264 16.5311C14.8225 16.5156 14.8225 16.5001 14.8225 16.4807V14.859H14.3375C14.1785 14.859 14.0427 14.7465 14.0078 14.5991C14.0078 14.5991 14.0078 14.5991 14.0078 14.5952C14.0078 14.5913 14.0039 14.5874 14.0039 14.5797C14.0039 14.5797 14.0039 14.5797 14.0039 14.5758C14.0039 14.5719 14 14.568 14 14.5641C14 14.5603 14 14.5603 14 14.5564C14 14.5525 14 14.5486 14 14.5447C14 14.5409 14 14.5409 14 14.537C14 14.5331 14 14.5253 14 14.5176C14 14.5137 14 14.5059 14 14.4982V14.4943C14 14.4904 14 14.4865 14 14.4827C14 14.4788 14 14.4749 14 14.4749C14 14.471 14.0039 14.4671 14.0039 14.4633C14.0039 14.4594 14.0039 14.4594 14.0039 14.4555C14.0039 14.4516 14.0039 14.4477 14.0078 14.4439C14.0078 14.44 14.0078 14.44 14.0078 14.44C14.0078 14.4322 14.0116 14.4283 14.0116 14.4206C14.0194 14.3973 14.031 14.3702 14.0427 14.3508C14.0543 14.3314 14.066 14.3158 14.0776 14.3003C14.0815 14.3003 14.0815 14.3003 14.0815 14.2964C14.0854 14.2926 14.0892 14.2887 14.0931 14.2848C14.1086 14.2693 14.1241 14.2538 14.1397 14.2421C14.1591 14.2305 14.1746 14.2188 14.194 14.2111C14.2017 14.2072 14.2056 14.2072 14.2134 14.2033C14.2328 14.1956 14.2561 14.1917 14.2755 14.1878C14.2755 14.1878 14.2755 14.1878 14.2755 14.1839C14.2948 14.1839 14.3142 14.1801 14.3375 14.1801H15.9825C16.0407 14.1801 16.095 14.1956 16.1415 14.2188C16.1454 14.2227 16.1493 14.2227 16.1532 14.2266C16.1571 14.2305 16.1609 14.2305 16.1648 14.2344H16.1687C16.1726 14.2382 16.1765 14.2382 16.1765 14.2421C16.1803 14.2421 16.1803 14.2421 16.1803 14.2421C16.1842 14.246 16.1881 14.2499 16.192 14.2499V14.2538C16.1959 14.2538 16.1997 14.2576 16.2036 14.2615C16.2075 14.2654 16.2114 14.2693 16.2153 14.2693C16.2153 14.2732 16.2153 14.2732 16.2153 14.2732C16.2191 14.277 16.223 14.277 16.223 14.2809C16.2269 14.2809 16.2269 14.2848 16.2269 14.2848C16.2308 14.2887 16.2308 14.2887 16.2346 14.2926C16.2346 14.2926 16.2346 14.2926 16.2385 14.2964C16.2463 14.3042 16.254 14.3158 16.2618 14.3275C16.2657 14.3314 16.2657 14.3352 16.2696 14.3352C16.2696 14.3391 16.2696 14.3391 16.2734 14.343C16.2734 14.343 16.2734 14.3469 16.2773 14.3508C16.2773 14.3508 16.2773 14.3546 16.2812 14.3546C16.2812 14.3585 16.2812 14.3624 16.2851 14.3624C16.2851 14.3663 16.2851 14.3663 16.289 14.3702C16.289 14.374 16.289 14.374 16.289 14.3779C16.2928 14.3779 16.2928 14.3818 16.2928 14.3857C16.2967 14.3857 16.2967 14.3896 16.2967 14.3934L16.3006 14.3973C16.3006 14.4012 16.3006 14.4051 16.3045 14.4051C16.3045 14.4089 16.3045 14.4128 16.3045 14.4128C16.3045 14.4167 16.3084 14.4206 16.3084 14.4206C16.3084 14.4245 16.3084 14.4283 16.3084 14.4283C16.3122 14.4322 16.3122 14.4361 16.3122 14.4361C16.3122 14.44 16.3122 14.4439 16.3122 14.4439C16.3161 14.4477 16.3161 14.4516 16.3161 14.4516C16.3161 14.4555 16.3161 14.4594 16.3161 14.4633C16.3161 14.4633 16.3161 14.4671 16.32 14.4671C16.32 14.471 16.32 14.4749 16.32 14.4788C16.32 14.4827 16.32 14.4827 16.32 14.4865C16.32 14.4904 16.32 14.4943 16.32 14.4982V14.5021C16.32 14.5059 16.32 14.5137 16.32 14.5176C16.32 14.5253 16.32 14.5292 16.32 14.537V14.5409C16.32 14.5447 16.32 14.5486 16.32 14.5525C16.32 14.5564 16.32 14.5564 16.32 14.5603C16.32 14.5641 16.32 14.5641 16.32 14.568C16.3161 14.5719 16.3161 14.5758 16.3161 14.5758C16.3161 14.5797 16.3161 14.5835 16.3161 14.5874C16.3161 14.5874 16.3161 14.5913 16.3122 14.5913C16.3122 14.5952 16.3122 14.5991 16.3122 14.6029C16.3122 14.6029 16.3122 14.6068 16.3084 14.6107C16.3084 14.6107 16.3084 14.6146 16.3084 14.6184C16.3084 14.6184 16.3045 14.6223 16.3045 14.6262C16.3045 14.6262 16.3045 14.6301 16.3006 14.634C16.3006 14.634 16.3006 14.6378 16.3006 14.6417C16.2967 14.6417 16.2967 14.6456 16.2967 14.6495C16.2967 14.6495 16.2928 14.6534 16.2928 14.6572C16.2928 14.6572 16.2928 14.6611 16.289 14.6611C16.289 14.665 16.289 14.6689 16.2851 14.6689C16.2851 14.6728 16.2851 14.6728 16.2812 14.6766C16.2812 14.6805 16.2812 14.6805 16.2773 14.6844C16.2773 14.6883 16.2773 14.6883 16.2734 14.6922C16.2734 14.6922 16.2734 14.696 16.2696 14.6999C16.2696 14.6999 16.2696 14.6999 16.2657 14.7038C16.2657 14.7077 16.2618 14.7077 16.2618 14.7116L16.2579 14.7154C16.2579 14.7193 16.254 14.7232 16.2502 14.7232C16.2502 14.7271 16.2502 14.7271 16.2502 14.7271C16.2463 14.731 16.2424 14.7348 16.2424 14.7387H16.2385C16.2346 14.7426 16.2346 14.7465 16.2308 14.7504Z" fill="#333333"/>
<path fill-rule="evenodd" clip-rule="evenodd" d="M18.4326 4.94456C18.5302 5.04219 18.5302 5.20048 18.4326 5.29811C18.1397 5.59101 18.1397 6.06588 18.4326 6.35877C18.7254 6.65167 19.2003 6.65167 19.4932 6.35877C20.1766 5.67536 20.1766 4.56732 19.4932 3.8839C19.2003 3.59101 18.7254 3.59101 18.4326 3.8839C18.1397 4.17679 18.1397 4.65167 18.4326 4.94456Z" fill="#333333"/>
<path fill-rule="evenodd" clip-rule="evenodd" d="M5.56745 4.94456C5.46981 5.04219 5.46981 5.20048 5.56745 5.29811C5.86034 5.59101 5.86034 6.06588 5.56744 6.35878C5.27455 6.65167 4.79968 6.65167 4.50678 6.35877C3.82337 5.67536 3.82337 4.56732 4.50679 3.8839C4.79968 3.59101 5.27455 3.59101 5.56745 3.8839C5.86034 4.17679 5.86034 4.65167 5.56745 4.94456Z" fill="#333333"/>
<path fill-rule="evenodd" clip-rule="evenodd" d="M19.8484 3.53035C20.727 4.40903 20.727 5.83365 19.8484 6.71233C19.5555 7.00522 19.5555 7.4801 19.8484 7.77299C20.1413 8.06588 20.6161 8.06588 20.909 7.77299C22.3735 6.30852 22.3735 3.93415 20.909 2.46969C20.6161 2.17679 20.1413 2.17679 19.8484 2.46969C19.5555 2.76258 19.5555 3.23745 19.8484 3.53035Z" fill="#333333"/>
<path fill-rule="evenodd" clip-rule="evenodd" d="M4.15164 3.53035C3.27296 4.40903 3.27296 5.83365 4.15164 6.71233C4.44453 7.00522 4.44453 7.4801 4.15164 7.77299C3.85875 8.06588 3.38387 8.06588 3.09098 7.77299C1.62652 6.30852 1.62652 3.93415 3.09098 2.46969C3.38388 2.17679 3.85875 2.17679 4.15164 2.46969C4.44454 2.76258 4.44454 3.23746 4.15164 3.53035Z" fill="#333333"/>
<path fill-rule="evenodd" clip-rule="evenodd" d="M8.25 3C8.25 2.58579 8.58579 2.25 9 2.25H11C11.4142 2.25 11.75 2.58579 11.75 3V6.79289C11.75 7.12441 11.6183 7.44236 11.3839 7.67678L10.6718 8.38891C10.3008 8.75991 9.69925 8.75991 9.32825 8.38891L8.61612 7.67678C8.3817 7.44236 8.25 7.12441 8.25 6.79289V3ZM9.75 3.75V6.68934L10 6.93934L10.25 6.68934V3.75H9.75Z" fill="#333333"/>
<path fill-rule="evenodd" clip-rule="evenodd" d="M12.25 3C12.25 2.58579 12.5858 2.25 13 2.25H15C15.4142 2.25 15.75 2.58579 15.75 3V6.79289C15.75 7.12441 15.6183 7.44236 15.3839 7.67678L14.6718 8.38891C14.3008 8.75991 13.6992 8.75991 13.3282 8.38891L12.6161 7.67678C12.3817 7.44236 12.25 7.12441 12.25 6.79289V3ZM13.75 3.75V6.68934L14 6.93934L14.25 6.68934V3.75H13.75Z" fill="#333333"/>
</svg>
