<svg width="24" height="24" viewBox="0 0 24 24" fill="none" xmlns="http://www.w3.org/2000/svg">
<path d="M21 22H3L3.00004 14H21L21 22Z" fill="#E6E6E6" class='mian'/>
<path fill-rule="evenodd" clip-rule="evenodd" d="M2.25004 14C2.25004 13.5858 2.58583 13.25 3.00004 13.25H21C21.1989 13.25 21.3897 13.329 21.5303 13.4697C21.671 13.6103 21.75 13.8011 21.75 14L21.7499 22C21.7499 22.4142 21.4142 22.75 20.9999 22.75H3C2.80109 22.75 2.61032 22.671 2.46967 22.5303C2.32902 22.3897 2.25 22.1989 2.25 22L2.25004 14ZM3.75004 14.75L3.75 21.25H20.2499L20.25 14.75H3.75004Z" fill="#333333" class='xian'/>
<path d="M8.99999 14H3L3.00001 5H9L8.99999 14Z" fill="#4984B0" class='mian'/>
<path fill-rule="evenodd" clip-rule="evenodd" d="M2.25001 5C2.25001 4.58579 2.5858 4.25 3.00001 4.25H9V5.75H3.75001L3.75 13.25H8.99999V14.75H3C2.80109 14.75 2.61032 14.671 2.46967 14.5303C2.32902 14.3897 2.25 14.1989 2.25 14L2.25001 5Z" fill="#333333" class='xian'/>
<path d="M18 5H8L8.00002 2H18L18 5Z" fill="#4984B0" class='mian'/>
<path fill-rule="evenodd" clip-rule="evenodd" d="M7.25002 1.99999C7.25003 1.58578 7.58581 1.25 8.00002 1.25H18C18.1989 1.25 18.3897 1.32902 18.5303 1.46967C18.671 1.61033 18.75 1.80109 18.75 2.00001L18.75 5.00001C18.75 5.41422 18.4142 5.75 18 5.75H8C7.80109 5.75 7.61032 5.67098 7.46967 5.53033C7.32902 5.38967 7.25 5.19891 7.25 4.99999L7.25002 1.99999ZM8.75002 2.75L8.75001 4.25H17.25L17.25 2.75H8.75002Z" fill="#333333" class='xian'/>
<path d="M7.49999 4.5H4L4.00001 3.5H7.5L7.49999 4.5Z" fill="#4984B0" class='mian'/>
<path fill-rule="evenodd" clip-rule="evenodd" d="M3.75001 3.5C3.75001 3.36193 3.86194 3.25 4.00001 3.25H7.5C7.5663 3.25 7.62989 3.27634 7.67678 3.32322C7.72366 3.37011 7.75 3.4337 7.75 3.5L7.74999 4.5C7.74999 4.63807 7.63806 4.75 7.49999 4.75H4C3.9337 4.75 3.87011 4.72366 3.82322 4.67678C3.77634 4.62989 3.75 4.5663 3.75 4.5L3.75001 3.5ZM4.25001 3.75L4.25 4.25H7.24999L7.25 3.75H4.25001Z" fill="#333333" class='xian'/>
<path d="M21 14H15L15 5H19C20.1046 5 21 5.89543 21 7L21 14Z" fill="#4984B0" class='mian'/>
<path fill-rule="evenodd" clip-rule="evenodd" d="M19 5.75H15V4.25H19C20.5188 4.25 21.75 5.48122 21.75 7L21.75 14C21.75 14.4142 21.4142 14.75 21 14.75H15V13.25H20.25L20.25 7C20.25 6.30965 19.6904 5.75 19 5.75Z" fill="#333333" class='xian'/>
<path d="M14.9999 14H8.99988C7.72659 11.1351 7.7266 7.86489 8.9999 5H14.9999C16.2732 7.86489 16.2732 11.1351 14.9999 14Z" fill="#DEDEDE" class='mian'/>
<path fill-rule="evenodd" clip-rule="evenodd" d="M8.30737 4.71157C8.42038 4.44052 8.68789 4.25 8.9999 4.25H14.9999V5L15.6852 4.6954C17.0447 7.75421 17.0447 11.2458 15.6852 14.3046L14.9999 14V14.75H8.99988C8.68787 14.75 8.42036 14.5595 8.30734 14.2884C6.95744 11.2389 6.95745 7.76112 8.30737 4.71157ZM9.49962 5.75C8.56003 8.1613 8.56002 10.8387 9.4996 13.25H14.5002C15.4397 10.8387 15.4397 8.1613 14.5002 5.75H9.49962Z" fill="#333333" class='xian'/>
<path d="M19.5 13.25H17L17 10.2C17 10.0895 17.0895 10 17.2 10H19.3C19.4105 10 19.5 10.0895 19.5 10.2L19.5 13.25Z" fill="#333333" class='xian'/>
<path d="M14 9.5C14 10.6046 13.1046 11.5 12 11.5C10.8954 11.5 10 10.6046 10 9.5C10 8.39543 10.8954 7.5 12 7.5C13.1046 7.5 14 8.39543 14 9.5Z" fill="#999999" class='mian'/>
<path fill-rule="evenodd" clip-rule="evenodd" d="M12 7.75C11.0335 7.75 10.25 8.5335 10.25 9.5C10.25 10.4665 11.0335 11.25 12 11.25C12.9665 11.25 13.75 10.4665 13.75 9.5C13.75 8.5335 12.9665 7.75 12 7.75ZM9.75 9.5C9.75 8.25736 10.7574 7.25 12 7.25C13.2426 7.25 14.25 8.25736 14.25 9.5C14.25 10.7426 13.2426 11.75 12 11.75C10.7574 11.75 9.75 10.7426 9.75 9.5Z" fill="#333333" class='xian'/>
<path d="M13 13.25H11L11 7.45C11 7.33954 11.0895 7.25 11.2 7.25H12.8C12.9105 7.25 13 7.33954 13 7.45L13 13.25Z" fill="#4984B0" class='mian'/>
<path d="M12.75 7.5H11.25L11.25 2.2C11.25 2.08954 11.3395 2 11.45 2H12.55C12.6605 2 12.75 2.08954 12.75 2.2L12.75 7.5Z" fill="#4984B0" class='mian'/>
<path d="M12.5 9.5C12.5 9.77614 12.2761 10 12 10C11.7239 10 11.5 9.77614 11.5 9.5C11.5 9.22386 11.7239 9 12 9C12.2761 9 12.5 9.22386 12.5 9.5Z" fill="#999999" class='mian'/>
<path fill-rule="evenodd" clip-rule="evenodd" d="M11.9999 9.10002C11.779 9.10002 11.5999 9.27911 11.5999 9.50002C11.5999 9.72094 11.779 9.90002 11.9999 9.90002C12.2208 9.90002 12.3999 9.72094 12.3999 9.50002C12.3999 9.27911 12.2208 9.10002 11.9999 9.10002ZM11.3999 9.50002C11.3999 9.16865 11.6685 8.90002 11.9999 8.90002C12.3313 8.90002 12.5999 9.16865 12.5999 9.50002C12.5999 9.8314 12.3313 10.1 11.9999 10.1C11.6685 10.1 11.3999 9.8314 11.3999 9.50002Z" fill="black" class='mian'/>
</svg>
