<svg width="24" height="24" viewBox="0 0 24 24" fill="none" xmlns="http://www.w3.org/2000/svg">
<path d="M18.1733 10.0022C18.5733 13.6022 17.0066 15.5022 16.1733 16.0022L16.1733 19.5021C17.5887 20.5021 16.6733 21.8355 16.1733 22.0021H14.0887C13.6887 21.6021 13.4221 18.1688 13.5887 16.5021L8.58874 16.0021C6.08874 15.5021 6.00419 18.0021 6.08874 19.5021C7.58874 20.0021 7.33995 21.3355 7.17329 22.0021H4.17329C3.08874 20.5021 2.75783 17.0016 3.17329 16.0021C3.58875 15.0027 3.75784 14.5016 3.67329 13.7521C3.58875 13.0027 4.17329 11.5021 4.17329 11.5021C2.57329 8.70213 3.5617 7.52973 4.08875 7.00269C5.18739 5.90405 7.08875 6.50269 5.6733 8.00213C4.68334 9.05083 5.6733 9.50209 6.1733 9.50213C9.1733 8.50213 10.6733 9.50213 11.1733 9.50213C13.1733 9.50213 13.2198 7.15315 13.1733 5.50224C13.0684 1.78108 15.5887 2.0025 15.5887 2.0025C15.5887 3.00417 15.84 4.8375 16.1733 5.00417C18.0887 4.50421 18.7554 5.50421 19.0887 6.00421C19.4887 6.40421 20.6733 6.50224 21.1733 6.50224C21.9733 9.30224 19.5066 10.0022 18.1733 10.0022Z" fill="rgba(0,0,0,0)" class='mian'/>
<path fill-rule="evenodd" clip-rule="evenodd" d="M15.6533 1.25529C15.6538 1.25533 15.6544 1.25538 15.5887 2.0025L15.6544 1.25538C16.0417 1.28941 16.3387 1.61373 16.3387 2.0025C16.3387 2.4553 16.3969 3.12105 16.4951 3.68871C16.5257 3.86612 16.5586 4.02404 16.592 4.15659C17.4096 4.04535 18.0662 4.18192 18.5899 4.47437C19.1387 4.78076 19.4644 5.22043 19.6477 5.49093C19.672 5.50456 19.7126 5.52477 19.7754 5.54823C19.8954 5.59306 20.0502 5.63297 20.228 5.66539C20.5847 5.73042 20.96 5.75224 21.1733 5.75224C21.5082 5.75224 21.8024 5.97422 21.8944 6.2962C22.1247 7.10224 22.1376 7.82165 21.9471 8.44841C21.7556 9.07895 21.3769 9.55383 20.9302 9.89698C20.3378 10.3521 19.6168 10.5854 18.9779 10.6869C19.1046 13.6857 17.9208 15.5648 16.9233 16.3859L16.9233 19.1444C17.207 19.4048 17.4133 19.6977 17.5388 20.0169C17.7072 20.4455 17.7093 20.8696 17.6211 21.2388C17.5344 21.6016 17.3606 21.9157 17.1641 22.1563C16.9805 22.3811 16.7198 22.6105 16.4105 22.7136C16.334 22.7391 16.2539 22.7521 16.1733 22.7521H14.0887C13.8898 22.7521 13.6991 22.6731 13.5584 22.5325C13.3742 22.3482 13.2823 22.1007 13.2342 21.957C13.1746 21.7786 13.1248 21.5702 13.0822 21.3516C12.9967 20.9118 12.9282 20.3644 12.879 19.7913C12.8058 18.9383 12.7714 17.9809 12.7964 17.1766L8.51411 16.7484C8.48979 16.746 8.46561 16.7424 8.44165 16.7376C7.93436 16.6361 7.64543 16.7047 7.47938 16.7916C7.31381 16.8783 7.17216 17.0346 7.05834 17.2988C6.86123 17.7564 6.81108 18.3849 6.82063 19.0028C7.49652 19.3678 7.85695 19.9251 7.9888 20.5299C8.13339 21.193 7.9864 21.842 7.90089 22.184C7.81742 22.5179 7.51744 22.7521 7.17329 22.7521H4.17329C3.9326 22.7521 3.70654 22.6366 3.56551 22.4416C2.91373 21.5401 2.53929 20.1409 2.36804 18.9185C2.28012 18.2909 2.2405 17.6723 2.25192 17.1344C2.26282 16.6215 2.32092 16.0987 2.48074 15.7143C2.89337 14.7216 2.98913 14.378 2.92802 13.8362C2.89501 13.5436 2.92957 13.2269 2.9769 12.9555C3.02609 12.6735 3.09889 12.3875 3.17111 12.1377C3.23432 11.9191 3.29934 11.7206 3.35253 11.5663C2.64014 10.2207 2.45445 9.14968 2.59272 8.28202C2.7428 7.34025 3.2545 6.77628 3.55842 6.47236C4.27652 5.75426 5.35314 5.4873 6.13636 5.84636C6.57691 6.04832 6.93593 6.47391 6.92727 7.06979C6.91967 7.59295 6.62705 8.08437 6.21868 8.51697C6.13626 8.60428 6.08277 8.67476 6.04882 8.72799C6.06282 8.73264 6.07711 8.73671 6.09131 8.74014C7.63167 8.25169 8.82709 8.24774 9.72484 8.38585C10.1832 8.45637 10.5509 8.56203 10.8205 8.64374C10.8577 8.65501 10.8913 8.66529 10.9221 8.6747C11.0093 8.70134 11.0736 8.72101 11.1321 8.73669C11.1659 8.74573 11.186 8.75007 11.1955 8.75199C11.523 8.74795 11.7153 8.65444 11.8459 8.54166C11.9931 8.41454 12.1251 8.207 12.2269 7.89117C12.4379 7.23663 12.4472 6.36014 12.4236 5.52338C12.366 3.48018 13.0377 2.32267 13.9267 1.73219C14.3463 1.4535 14.7667 1.33508 15.0786 1.28539C15.2354 1.2604 15.3689 1.25211 15.4674 1.25037C15.5168 1.2495 15.558 1.25027 15.5895 1.25149C15.6052 1.2521 15.6186 1.25282 15.6295 1.25352L15.6439 1.25452L15.6496 1.25498L15.6521 1.25519L15.6533 1.25529ZM4.87214 11.7744L4.87141 11.7763L4.86753 11.7864L4.85122 11.8297C4.83685 11.8683 4.81597 11.9254 4.79096 11.9967C4.74074 12.1398 4.67495 12.337 4.61207 12.5544C4.54872 12.7735 4.49123 13.0032 4.4546 13.2132C4.4161 13.434 4.4093 13.586 4.41856 13.6681C4.52654 14.6252 4.28412 15.2838 3.86584 16.29C3.81793 16.4053 3.7616 16.6948 3.75158 17.1663C3.7421 17.6127 3.77509 18.1504 3.85353 18.7104C3.99015 19.6856 4.24974 20.6239 4.58851 21.2521H6.54535C6.55539 21.112 6.55074 20.9756 6.52323 20.8494C6.47524 20.6293 6.35124 20.3802 5.85157 20.2136C5.55999 20.1164 5.35722 19.8512 5.33993 19.5443C5.29771 18.7954 5.28083 17.6338 5.68072 16.7054C5.88997 16.2196 6.23292 15.751 6.78369 15.4627C7.32468 15.1795 7.97087 15.1201 8.69825 15.2593L13.6634 15.7559C13.8613 15.7756 14.0432 15.8733 14.1692 16.0272C14.2952 16.1812 14.3548 16.3788 14.335 16.5768C14.2582 17.3454 14.2796 18.5692 14.3735 19.663C14.4201 20.2065 14.4829 20.6966 14.5546 21.0651C14.568 21.1339 14.5813 21.1962 14.5943 21.2521H15.9628C15.9745 21.24 15.9878 21.2252 16.0024 21.2073C16.074 21.1198 16.1343 21.0069 16.1621 20.8904C16.1883 20.7805 16.1851 20.6734 16.1427 20.5655C16.1001 20.4571 15.9974 20.2962 15.7405 20.1147C15.5416 19.9741 15.4233 19.7457 15.4233 19.5021L15.4233 16.0022C15.4233 15.7388 15.5615 15.4947 15.7874 15.3591C16.3339 15.0313 17.8003 13.437 17.4279 10.0851C17.4043 9.87304 17.4722 9.66101 17.6145 9.50205C17.7567 9.34309 17.96 9.25224 18.1733 9.25224C18.7493 9.25224 19.513 9.09426 20.0164 8.70751C20.2531 8.52565 20.4244 8.30053 20.5119 8.01232C20.5725 7.81294 20.6016 7.55476 20.5599 7.22193C20.3693 7.20444 20.1635 7.17835 19.959 7.14106C19.7282 7.09898 19.4806 7.03938 19.2503 6.95333C19.0307 6.87123 18.7675 6.74365 18.5584 6.53454C18.5235 6.49962 18.4921 6.46133 18.4647 6.42024C18.2979 6.17004 18.1333 5.93737 17.8587 5.78405C17.6109 5.64571 17.1707 5.51896 16.3627 5.72985C16.1869 5.77574 16.0004 5.75624 15.8379 5.67499C15.5924 5.55224 15.4601 5.34373 15.4009 5.23974C15.3284 5.11261 15.2732 4.97268 15.2299 4.84319C15.1425 4.58132 15.0722 4.26372 15.017 3.94421C14.9598 3.61362 14.9142 3.25361 14.8835 2.90717C14.8413 2.92896 14.7988 2.95367 14.7566 2.98169C14.4117 3.21079 13.8757 3.80315 13.923 5.4811C13.946 6.29525 13.9552 7.4187 13.6546 8.35138C13.5006 8.82916 13.2488 9.31205 12.8263 9.67695C12.39 10.0537 11.8322 10.2521 11.1733 10.2521C11.0058 10.2521 10.8468 10.2132 10.7438 10.1855C10.6577 10.1625 10.558 10.132 10.4635 10.1031C10.437 10.0949 10.4108 10.0869 10.3855 10.0793C10.1395 10.0047 9.85088 9.92289 9.49675 9.86841C8.79943 9.76113 7.79495 9.75215 6.41047 10.2136C6.33397 10.2391 6.25387 10.2521 6.17324 10.2521C5.94791 10.2521 5.69853 10.2038 5.46796 10.1122C5.24023 10.0216 4.96977 9.86416 4.76847 9.60055C4.54908 9.31323 4.44513 8.9395 4.52851 8.52947C4.6054 8.15136 4.82806 7.80494 5.12791 7.4873C5.24312 7.36525 5.31692 7.26514 5.3628 7.18865C5.31187 7.18917 5.24892 7.19569 5.17477 7.21358C4.99471 7.25702 4.79354 7.35855 4.61908 7.53302C4.39595 7.75614 4.14992 8.04189 4.07403 8.51808C3.99673 9.00319 4.07671 9.82145 4.82448 11.13C4.93677 11.3265 4.95424 11.5635 4.87214 11.7744C4.87213 11.7744 4.87215 11.7744 4.87214 11.7744ZM14.6864 21.5576C14.6864 21.5577 14.6861 21.5571 14.6855 21.556Z" fill="#333333" class='xian'/>
<path d="M18.1 7.25C18.1 7.66421 17.7642 8 17.35 8C16.9358 8 16.6 7.66421 16.6 7.25C16.6 6.83579 16.9358 6.5 17.35 6.5C17.7642 6.5 18.1 6.83579 18.1 7.25Z" fill="#333333" class='xian'/>
</svg>
