<svg width="24" height="24" viewBox="0 0 24 24" fill="none" xmlns="http://www.w3.org/2000/svg">
<path d="M12.5 21H5.49999C4.99999 20.8334 4.69999 17.2 5.49999 14C5.49999 14 5.99999 10.4999 10.648 8.9999C11.3147 8.83323 12.5 8.49995 13.648 7.49983C14.21 7.01023 13.648 6.00019 15.148 5.00019C15.648 3.50031 16.648 2.5 16.648 2.5C16.648 3.00024 16.748 4.10007 17.148 4.50007C17.148 4.50007 18.648 4.50019 19.148 5.81218C19.648 7.12417 20.148 7.42383 20.148 7.42383C19.148 8.92383 18.5 9.42347 16.648 9.42347C17.148 10.4235 17.5 13.9999 15.5 15.9999L16.5 19.4999C17.3333 20 18.7 21 17.5 21L15 21L12 15.5C12.3604 17.6626 11.2594 18.905 10.3064 19.0077C12.4228 19.1168 12.6593 20.3629 12.5 21Z" fill="#rgba(0,0,0,0)" class='mian'/>
<path d="M20 11.5C18.5 11.5 18.5 12.5 17 12.5L16.5 14.5C17 15 19 14.5 20 13.5H21.5C21.5 13.5 21.5 11.5 20 11.5Z" fill="rgba(0,0,0,0)" class='mian'/>
<path fill-rule="evenodd" clip-rule="evenodd" d="M16.935 1.80702C17.2153 1.92309 17.398 2.19658 17.398 2.49995C17.398 2.71156 17.4201 3.06288 17.4844 3.39506C17.5143 3.5495 17.5504 3.68468 17.5907 3.79257C17.7669 3.82212 17.9872 3.87309 18.2238 3.96182C18.7925 4.17501 19.499 4.62699 19.8489 5.54504C20.0761 6.14126 20.2912 6.47578 20.4255 6.64692C20.4927 6.73249 20.5403 6.77805 20.5603 6.79581C20.5632 6.79842 20.5656 6.80045 20.5673 6.80194C20.7255 6.90861 20.8376 7.07195 20.8797 7.25906C20.9248 7.45922 20.8859 7.6691 20.7721 7.83981C20.2636 8.60256 19.7749 9.22463 19.1046 9.62851C18.6655 9.89305 18.1869 10.0421 17.6409 10.1152C17.7691 10.7678 17.8238 11.5719 17.7592 12.3953C17.6618 13.6373 17.2831 15.0657 16.3361 16.1962L17.1415 19.0152C17.5349 19.2666 18.0054 19.6031 18.3072 19.9219C18.403 20.0231 18.5111 20.1525 18.5916 20.3028C18.6641 20.4378 18.7787 20.7097 18.6909 21.0326C18.5915 21.3984 18.3069 21.5807 18.0981 21.6586C17.9003 21.7325 17.6872 21.75 17.5 21.75L15 21.7499C14.7255 21.7499 14.473 21.6 14.3416 21.359L12.8747 18.6697C12.7831 18.8068 12.6798 18.9296 12.5675 19.0388C12.6476 19.1117 12.7217 19.1891 12.7896 19.271C13.3202 19.9102 13.3554 20.6705 13.2276 21.1819C13.1441 21.5158 12.8442 21.75 12.5 21.75H5.5C5.41939 21.75 5.33931 21.737 5.26283 21.7115C5.0458 21.6391 4.90493 21.499 4.82496 21.3998C4.74149 21.2963 4.68219 21.1852 4.63926 21.0894C4.55335 20.8978 4.49041 20.6705 4.44222 20.4383C4.34433 19.9667 4.2823 19.3498 4.2628 18.6586C4.22397 17.2822 4.35142 15.5171 4.7649 13.8482C4.76616 13.8409 4.76759 13.8329 4.7692 13.8242C4.77591 13.7878 4.78578 13.7386 4.79975 13.6781C4.82768 13.557 4.87209 13.39 4.94065 13.1883C5.07768 12.7851 5.31217 12.2406 5.70633 11.6473C6.50168 10.4504 7.9246 9.09069 10.4177 8.2861C10.4337 8.28094 10.4498 8.27632 10.4661 8.27224C11.0945 8.11516 12.1395 7.81787 13.1519 6.93728C13.1575 6.92749 13.1697 6.90107 13.1859 6.84251C13.2029 6.7815 13.2177 6.71152 13.2397 6.60508L13.2406 6.60108C13.2609 6.50305 13.2866 6.37905 13.3217 6.24771C13.4677 5.70165 13.7606 5.09561 14.5206 4.52548C14.7961 3.79122 15.1665 3.18399 15.4752 2.75171C15.647 2.51121 15.8025 2.32087 15.9171 2.18855C15.9746 2.1223 16.022 2.07031 16.0563 2.03357C16.0735 2.01519 16.0875 2.0006 16.0978 1.98992L16.1105 1.97684L16.1148 1.97253L16.1164 1.97093L16.1173 1.96997C16.3318 1.75543 16.6547 1.69095 16.935 1.80702ZM16.2178 4.4C16.085 4.65403 15.9603 4.93509 15.8595 5.23733C15.8068 5.39555 15.7028 5.53167 15.5641 5.62418C14.9829 6.01163 14.8466 6.35163 14.7708 6.63501C14.7478 6.72124 14.7298 6.80703 14.7085 6.90971L14.706 6.92172C14.6867 7.01472 14.6626 7.13084 14.6312 7.24407C14.5628 7.49024 14.4385 7.80583 14.1407 8.06529C12.8732 9.16946 11.5653 9.54261 10.855 9.72116C8.71511 10.4173 7.5701 11.5528 6.95568 12.4775C6.64384 12.9468 6.46283 13.371 6.36085 13.671C6.30992 13.8209 6.27896 13.939 6.26138 14.0152C6.2526 14.0533 6.24719 14.0807 6.24431 14.0963L6.24179 14.1106C6.23822 14.1346 6.23348 14.1584 6.22761 14.1819C5.84705 15.7041 5.72627 17.3427 5.76221 18.6163C5.78021 19.2543 5.83692 19.777 5.91092 20.1335C5.9198 20.1763 5.9286 20.215 5.93717 20.25H11.6521C11.6467 20.2429 11.6412 20.2359 11.6354 20.229C11.5164 20.0856 11.2391 19.8738 10.6123 19.7881C10.3397 19.7962 10.087 19.7748 9.8767 19.7398C9.49178 19.6756 9.22037 19.327 9.25256 18.9381C9.28475 18.5492 9.60977 18.25 10 18.25C10.234 18.25 10.4555 18.2615 10.6644 18.284C10.9243 18.2649 11.1807 18.2002 11.3758 18.0776C11.5247 17.9839 11.6433 17.8547 11.7181 17.6589C11.7961 17.4549 11.8441 17.1307 11.761 16.628L11.3416 15.8591C11.1432 15.4955 11.2772 15.0399 11.6409 14.8415C12.0045 14.6432 12.4601 14.7772 12.6584 15.1408L15.4452 20.2499L16.2877 20.2499C16.2292 20.213 16.171 20.1772 16.1141 20.143C15.951 20.0451 15.8311 19.8889 15.7789 19.7059L14.7789 16.2059C14.704 15.944 14.7771 15.6622 14.9697 15.4696C15.7966 14.6426 16.172 13.4484 16.2638 12.278C16.3572 11.0865 16.1445 10.0935 15.9772 9.75883C15.861 9.52634 15.8734 9.25023 16.01 9.02912C16.1467 8.80801 16.3881 8.67342 16.648 8.67342C17.5135 8.67342 17.9801 8.55481 18.3305 8.3437C18.6063 8.17752 18.8643 7.92263 19.1844 7.4928C18.9574 7.18601 18.6972 6.73532 18.4472 6.07922C18.2971 5.68529 18.0036 5.48121 17.6972 5.36635C17.5425 5.30834 17.3957 5.27842 17.2876 5.26348C17.2344 5.25613 17.1929 5.25273 17.1677 5.25119C17.1552 5.25043 17.1468 5.25013 17.1433 5.25003L17.1457 5.25002L17.1467 5.25002L17.1422 5.25C16.9454 5.24846 16.757 5.16962 16.6177 5.03035C16.4269 4.83953 16.3022 4.60649 16.2178 4.4Z" fill="#333333" class='xian'/>
<path fill-rule="evenodd" clip-rule="evenodd" d="M3.53033 13.4697C3.82322 13.7626 3.82322 14.2374 3.53033 14.5303C3.1106 14.9501 2.77213 15.765 2.61558 16.7435C2.46104 17.7093 2.51149 18.6628 2.71151 19.2628C2.87363 19.7492 3.28988 20.0914 3.71551 20.2191C4.19364 20.3626 4.32132 20.1803 4.32917 20.1646C4.51441 19.7941 4.96492 19.6439 5.3354 19.8292C5.70588 20.0144 5.85605 20.4649 5.67081 20.8354C5.17865 21.8197 4.05635 21.8874 3.28448 21.6559C2.46012 21.4086 1.62638 20.7508 1.28849 19.7372C0.988513 18.8372 0.955621 17.624 1.13442 16.5065C1.3112 15.4016 1.72274 14.2166 2.46967 13.4697C2.76256 13.1768 3.23744 13.1768 3.53033 13.4697Z" fill="#333333" class='xian'/>
<path fill-rule="evenodd" clip-rule="evenodd" d="M18.916 12.624C18.5037 12.8989 17.9754 13.25 17 13.25C16.5858 13.2499 16.25 12.9141 16.25 12.4999C16.25 12.0857 16.5858 11.7499 17 11.75C17.523 11.75 17.745 11.602 18.0808 11.3781L18.084 11.376C18.4963 11.1011 19.0246 10.75 20 10.75C20.5594 10.75 21.0178 10.9429 21.3655 11.2519C21.6977 11.5472 21.895 11.9174 22.0147 12.2367C22.1356 12.559 22.1928 12.8707 22.2208 13.0945C22.235 13.2083 22.2423 13.3043 22.246 13.3739C22.2479 13.4089 22.2489 13.4375 22.2494 13.4588L22.2499 13.4852L22.25 13.4941L22.25 13.4974L22.25 13.4988C22.25 13.5008 20.998 13.5 22.25 13.5C22.25 13.9142 21.9142 14.25 21.5 14.25H20.2907C19.6989 14.7488 18.9405 15.1005 18.2598 15.2861C17.8671 15.3932 17.463 15.4555 17.0958 15.445C16.7624 15.4355 16.3009 15.3615 15.9697 15.0303C15.6768 14.7374 15.6768 14.2626 15.9697 13.9697C16.248 13.6913 16.6907 13.6775 16.9854 13.9282C17.0066 13.9337 17.0539 13.9432 17.1386 13.9456C17.3182 13.9508 17.5704 13.9193 17.8652 13.8389C18.4636 13.6757 19.0857 13.3537 19.4697 12.9697C19.6103 12.829 19.8011 12.75 20 12.75H20.6052C20.5383 12.5762 20.4564 12.4508 20.3689 12.3731C20.2947 12.3071 20.1906 12.25 20 12.25C19.4771 12.25 19.2551 12.398 18.9192 12.6219L18.916 12.624Z" fill="#333333" class='xian'/>
<path d="M18 6.75C18 7.16421 17.6642 7.5 17.25 7.5C16.8358 7.5 16.5 7.16421 16.5 6.75C16.5 6.33579 16.8358 6 17.25 6C17.6642 6 18 6.33579 18 6.75Z" fill="#333333" class='xian'/>
</svg>
