<svg width="24" height="24" viewBox="0 0 24 24" fill="none" xmlns="http://www.w3.org/2000/svg">
<g clip-path="url(#clip0_2965_290)">
<path d="M11.6966 20.7599C7.56901 18.8516 8.18861 15.2624 8.93888 13.4352C10.361 8.72358 16.2854 10.9711 19.0697 12.6838C21.398 14.1159 21.6371 16.1681 21.3627 17.8808C21.1723 19.0693 20.6722 20.2718 19.6514 20.9096C17.2111 22.4345 13.2149 21.3833 11.6966 20.7599Z" fill="#AC4D3F" class='mian'/>
<path fill-rule="evenodd" clip-rule="evenodd" d="M12.2502 10.6028C12.2603 10.1887 12.6041 9.86119 13.0182 9.87125C15.3465 9.9278 17.9087 11.0891 19.4627 12.045C20.7645 12.8457 21.5234 13.8508 21.9003 14.9298C22.2715 15.9927 22.2523 17.0694 22.1033 17.9995C21.8987 19.2765 21.339 20.7395 20.0488 21.5457C18.6198 22.4387 16.8095 22.543 15.2533 22.3867C13.6787 22.2284 12.2295 21.7895 11.4118 21.4537C11.4017 21.4496 11.3918 21.4453 11.3819 21.4407C9.64403 20.6372 8.61142 19.5248 8.08481 18.2943C7.56518 17.08 7.57154 15.8296 7.76228 14.7883C7.83691 14.3808 8.2277 14.111 8.63513 14.1857C9.04257 14.2603 9.31236 14.6511 9.23773 15.0585C9.08188 15.9094 9.09451 16.8411 9.46383 17.7041C9.82493 18.5479 10.5601 19.4047 11.9966 20.0723C12.7007 20.3595 14.0001 20.7532 15.4032 20.8942C16.8348 21.038 18.2427 20.9056 19.254 20.2737C20.0054 19.8041 20.4459 18.8623 20.6222 17.7622C20.7476 16.9796 20.746 16.1739 20.4842 15.4244C20.228 14.6911 19.7032 13.954 18.6768 13.3226C17.2163 12.4243 14.9239 11.418 12.9818 11.3708C12.5677 11.3608 12.2402 11.0169 12.2502 10.6028Z" fill="#333333" class='xian'/>
<path fill-rule="evenodd" clip-rule="evenodd" d="M20.16 13.2334C20.5321 13.0515 20.9812 13.2058 21.1631 13.578L20.4893 13.9073C21.1631 13.578 21.1629 13.5775 21.1631 13.578L21.1639 13.5797L21.1648 13.5816L21.167 13.586L21.1723 13.5972C21.1763 13.6058 21.1812 13.6166 21.1868 13.6294C21.1981 13.6551 21.2125 13.6893 21.229 13.7314C21.2617 13.8155 21.3027 13.932 21.3431 14.077C21.4237 14.3665 21.5028 14.7738 21.5065 15.2659C21.514 16.2651 21.2086 17.57 20.0626 18.8997C19.3254 19.755 18.3046 20.163 17.2319 20.2905C16.1652 20.4173 15.0019 20.2743 13.8845 19.9873C11.6633 19.4166 9.43488 18.2262 8.2182 17.1021C7.91395 16.8211 7.89516 16.3466 8.17624 16.0423C8.45732 15.7381 8.93182 15.7193 9.23607 16.0004C10.2383 16.9262 12.2312 18.0138 14.2577 18.5344C15.2641 18.793 16.2314 18.8989 17.0548 18.801C17.8723 18.7039 18.5013 18.4136 18.9264 17.9204C19.8195 16.8842 20.0115 15.9378 20.0065 15.2771C20.004 14.9391 19.9496 14.6644 19.898 14.4792C19.8723 14.3869 19.8477 14.318 19.8313 14.276C19.8232 14.2551 19.8171 14.241 19.8142 14.2342C19.8134 14.2324 19.8128 14.2312 19.8124 14.2304C19.8121 14.2298 19.8124 14.2302 19.8124 14.2304L19.813 14.2317L19.8142 14.2342L19.815 14.2358" fill="#333333" class='xian'/>
<path fill-rule="evenodd" clip-rule="evenodd" d="M14.3755 12.6149C14.6301 12.9416 14.5717 13.4128 14.245 13.6675C13.8023 14.0125 13.4777 14.6333 13.2775 15.3595C13.0804 16.0744 13.0382 16.7672 13.064 17.1154C13.0947 17.5285 12.7846 17.8882 12.3715 17.9188C11.9585 17.9494 11.5988 17.6394 11.5681 17.2263C11.5286 16.6936 11.5923 15.8284 11.8314 14.9608C12.0675 14.1044 12.5095 13.1183 13.3229 12.4844C13.6496 12.2297 14.1209 12.2882 14.3755 12.6149Z" fill="#333333" class='xian'/>
<path fill-rule="evenodd" clip-rule="evenodd" d="M17.0839 13.2998C17.3385 13.6265 17.2801 14.0978 16.9534 14.3524C16.5107 14.6974 16.1861 15.3183 15.9859 16.0444C15.7888 16.7593 15.7466 17.4521 15.7724 17.8003C15.8031 18.2134 15.493 18.5731 15.08 18.6037C14.6669 18.6344 14.3072 18.3243 14.2765 17.9113C14.237 17.3785 14.3007 16.5133 14.5398 15.6458C14.7759 14.7894 15.2179 13.8032 16.0313 13.1693C16.358 12.9147 16.8293 12.9731 17.0839 13.2998Z" fill="#333333" class='xian'/>
<path fill-rule="evenodd" clip-rule="evenodd" d="M10.4474 14.4223C10.8032 14.2102 11.2635 14.3266 11.4757 14.6824C11.6191 14.923 12.1754 15.4524 13.1408 15.8987C14.0728 16.3296 15.2999 16.6404 16.6982 16.5367C17.1113 16.5061 17.471 16.8161 17.5016 17.2292C17.5323 17.6423 17.2222 18.002 16.8092 18.0326C15.1241 18.1576 13.6431 17.7835 12.5113 17.2602C11.4129 16.7524 10.5497 16.0584 10.1873 15.4506C9.97519 15.0949 10.0916 14.6345 10.4474 14.4223Z" fill="#333333" class='xian'/>
<path fill-rule="evenodd" clip-rule="evenodd" d="M11.6054 12.1219C11.9612 11.9098 12.4215 12.0262 12.6337 12.382C12.7771 12.6225 13.3334 13.1519 14.2988 13.5983C15.2308 14.0292 16.4579 14.34 17.8562 14.2363C18.2693 14.2057 18.629 14.5157 18.6596 14.9288C18.6903 15.3418 18.3803 15.7015 17.9672 15.7322C16.2821 15.8572 14.8011 15.4831 13.6693 14.9598C12.5709 14.452 11.7077 13.758 11.3453 13.1502C11.1332 12.7945 11.2496 12.3341 11.6054 12.1219Z" fill="#333333" class='xian'/>
<path d="M5.00068 15.1874C6.92601 16.2679 11.598 13.532 13.0802 10.5613C13.7389 9.24089 14.8907 5.6931 10.7646 3.6345C6.63864 1.57592 4.49663 4.62978 3.83792 5.95007C2.35573 8.92085 3.07536 14.1068 5.00068 15.1874Z" fill="#F2AE58" class='mian'/>
<path fill-rule="evenodd" clip-rule="evenodd" d="M14.4621 7.29193C14.6303 8.80572 14.1108 10.1756 13.7513 10.8961C12.9252 12.5519 11.2595 14.0744 9.58162 15.0431C8.73569 15.5315 7.84915 15.9014 7.01842 16.0727C6.20431 16.2407 5.34015 16.238 4.63362 15.8415C3.95697 15.4617 3.46416 14.7739 3.11701 14.0196C2.76342 13.2513 2.5228 12.3325 2.39779 11.3747C2.14997 9.47583 2.33898 7.27452 3.16681 5.61528C3.52625 4.89483 4.30832 3.65588 5.61894 2.87988C6.98505 2.07104 8.82292 1.82759 11.0995 2.96343L11.0995 2.96343C13.376 4.09928 14.2868 5.71405 14.4621 7.29193ZM12.9713 7.45758C12.8557 6.41683 12.2793 5.2284 10.4298 4.30565C8.58036 3.38291 7.28422 3.6371 6.38315 4.17061C5.42659 4.73697 4.8083 5.68509 4.50904 6.28493L4.50903 6.28494C3.85467 7.59649 3.66239 9.47355 3.88517 11.1805C3.99546 12.0256 4.20311 12.7916 4.47963 13.3924C4.76259 14.0073 5.08173 14.3729 5.36775 14.5334C5.62388 14.6771 6.06572 14.7377 6.71542 14.6037C7.34851 14.4731 8.08361 14.1759 8.83162 13.7441C10.3416 12.8723 11.753 11.5415 12.4091 10.2265C12.7084 9.62658 13.0941 8.56242 12.9713 7.45758Z" fill="#333333" class='xian'/>
<path fill-rule="evenodd" clip-rule="evenodd" d="M5.11266 14.8783C5.49217 15.0442 5.66528 15.4864 5.49931 15.8659L4.34672 18.5015C4.18075 18.881 3.73855 19.0541 3.35904 18.8881C2.97953 18.7222 2.80643 18.28 2.97239 17.9005L4.12499 15.2649C4.29096 14.8854 4.73316 14.7123 5.11266 14.8783Z" fill="#333333" class='xian'/>
<path d="M3.04081 19.4413C2.52742 19.6129 1.9721 19.3358 1.80048 18.8224C1.62886 18.3091 1.90591 17.7537 2.4193 17.5821C2.93269 17.4105 3.48801 17.6875 3.65963 18.2009C3.83125 18.7143 3.5542 19.2696 3.04081 19.4413Z" fill="#333333" class='xian'/>
<path d="M7.03686 6.56523C6.70707 6.73095 6.30539 6.59795 6.13967 6.26816C5.97396 5.93838 6.10696 5.53669 6.43675 5.37098C6.76653 5.20526 7.16821 5.33827 7.33393 5.66805C7.49964 5.99784 7.36664 6.39952 7.03686 6.56523Z" fill="#333333" class='xian'/>
<path d="M8.63314 7.75749C8.30335 7.92321 7.90167 7.79021 7.73596 7.46042C7.57024 7.13064 7.70324 6.72895 8.03303 6.56324C8.36281 6.39752 8.7645 6.53053 8.93021 6.86031C9.09593 7.1901 8.96292 7.59178 8.63314 7.75749Z" fill="#333333" class='xian'/>
<path d="M7.04091 8.55767C6.71113 8.72338 6.30945 8.59038 6.14373 8.26059C5.97802 7.93081 6.11102 7.52912 6.44081 7.36341C6.77059 7.19769 7.17227 7.3307 7.33799 7.66048C7.5037 7.99027 7.3707 8.39195 7.04091 8.55767Z" fill="#333333" class='xian'/>
<path d="M4.28109 20.06C3.7677 20.2317 3.21238 19.9546 3.04076 19.4412C2.86914 18.9278 3.14619 18.3725 3.65958 18.2009C4.17297 18.0293 4.72829 18.3063 4.89991 18.8197C5.07153 19.3331 4.79448 19.8884 4.28109 20.06Z" fill="#333333" class='xian'/>
</g>
<defs>
<clipPath id="clip0_2965_290">
<rect width="24" height="24" fill="white"/>
</clipPath>
</defs>
</svg>
