<svg width="24" height="24" viewBox="0 0 24 24" fill="none" xmlns="http://www.w3.org/2000/svg">
<g clip-path="url(#clip0_2965_264)">
<path d="M6.18971 16C8.27119 17.2162 12.6898 15 15.6897 11L16.5 10.9999L17 11.9999L17 12.4999L19 12.4999L19.1898 13C17.5 21.4999 5.01087 23.9999 3.18975 19C2.27145 16.4787 4.67856 15.193 6.18971 16Z" fill="#351F3B" class='mian'/>
<path fill-rule="evenodd" clip-rule="evenodd" d="M19.3361 12.2644C19.7423 12.3452 20.0062 12.74 19.9254 13.1463C19.0098 17.7519 15.1889 20.6667 11.4535 21.7812C9.57906 22.3405 7.65951 22.4696 6.05152 22.098C4.44044 21.7256 3.05457 20.8204 2.48505 19.2567C1.92454 17.7178 2.36333 16.4168 3.31282 15.6642C4.20437 14.9576 5.50397 14.7836 6.54299 15.3385C6.90837 15.5336 7.04641 15.9879 6.8513 16.3533C6.6562 16.7187 6.20183 16.8567 5.83644 16.6616C5.36432 16.4095 4.70478 16.475 4.24456 16.8398C3.8423 17.1586 3.53668 17.761 3.89447 18.7434C4.23552 19.6797 5.0937 20.337 6.38933 20.6365C7.68805 20.9367 9.33786 20.8471 11.0246 20.3438C14.4115 19.3333 17.68 16.7482 18.4542 12.8538C18.535 12.4475 18.9298 12.1837 19.3361 12.2644Z" fill="#333333" class='xian'/>
<path d="M20.1191 14.3414C21.5776 12.8844 22.5258 10.3349 20.6402 8.61892C18.415 6.87309 16.6888 7.58607 15.5 8.46517L16.509 10.2652L17.1188 12.5392L19.0893 12.3908L20.1191 14.3414Z" fill="#D4E196" class='mian'/>
<path fill-rule="evenodd" clip-rule="evenodd" d="M17.7423 8.3053C17.0811 8.35915 16.4861 8.66885 15.9459 9.06828C15.6129 9.31456 15.1433 9.24422 14.897 8.91118C14.6507 8.57814 14.721 8.1085 15.0541 7.86222C15.7027 7.38255 16.5652 6.89621 17.6206 6.81025C18.6986 6.72245 19.8689 7.06056 21.1031 8.02894C21.1175 8.04021 21.1314 8.052 21.1449 8.06429C22.3047 9.11965 22.5942 10.4582 22.3721 11.7085C22.1561 12.9244 21.4629 14.0591 20.6492 14.8721C20.4807 15.0403 20.2424 15.1186 20.007 15.083C19.7715 15.0474 19.567 14.9022 19.4558 14.6916L18.6555 13.1756L17.1751 13.2871C16.8156 13.3142 16.4877 13.0817 16.3944 12.7335L15.7846 10.4596C15.6773 10.0595 15.9147 9.6482 16.3148 9.54092C16.7148 9.43364 17.1261 9.67099 17.2334 10.0711L17.6822 11.7447L19.0329 11.6429C19.3306 11.6205 19.6132 11.7767 19.7525 12.0407L20.2543 12.9912C20.5701 12.508 20.8015 11.9739 20.8952 11.4462C21.0391 10.6359 20.8645 9.8487 20.155 9.19172C19.1743 8.42895 18.3761 8.25368 17.7423 8.3053Z" fill="#333333" class='xian'/>
<path fill-rule="evenodd" clip-rule="evenodd" d="M21.0213 6.4807C21.0051 6.73804 20.8648 7.02966 20.5977 7.31189C20.313 7.61273 20.3261 8.08743 20.627 8.37214C20.9278 8.65686 21.4025 8.64378 21.6872 8.34294C22.1075 7.89885 22.473 7.29232 22.5184 6.57532C22.5656 5.82705 22.2558 5.09482 21.5801 4.45532C21.2793 4.17061 20.8046 4.18368 20.5199 4.48453C20.2351 4.78538 20.2482 5.26007 20.5491 5.54479C20.9628 5.93634 21.0356 6.25463 21.0213 6.4807Z" fill="#333333" class='xian'/>
<path d="M16 10.6481C16 13.88 12.866 16.5 9 16.5C5.13401 16.5 2 13.88 2 10.6481C2 8.48214 3.4077 6.5118 5.5 5.5L6.55 6.03759H10.925L12.15 5.5C14.4338 6.46371 16 8.36344 16 10.6481Z" fill="#E35824" class='mian'/>
<path fill-rule="evenodd" clip-rule="evenodd" d="M11.459 5.20837C11.62 4.82674 12.06 4.64791 12.4416 4.80895C14.9224 5.85581 16.75 7.98289 16.75 10.6481C16.75 14.4144 13.1488 17.25 9 17.25C4.85124 17.25 1.25 14.4144 1.25 10.6481C1.25 8.14498 2.86994 5.93871 5.17349 4.82475C5.54639 4.64443 5.99487 4.80054 6.1752 5.17344C6.35552 5.54634 6.19941 5.99482 5.82651 6.17515C3.94546 7.08479 2.75 8.8192 2.75 10.6481C2.75 13.3455 5.41677 15.75 9 15.75C12.5832 15.75 15.25 13.3455 15.25 10.6481C15.25 8.74388 13.9452 7.07151 11.8584 6.19095C11.4768 6.02991 11.298 5.58999 11.459 5.20837Z" fill="#333333" class='xian'/>
<path d="M9 2.5L10.2188 4.00492L13 4.23819L10.9721 5.58332L11.56 7.5L9 6.61765L6.44 7.5L7.02787 5.58332L5 4.23819L7.78115 4.00492L9 2.5Z" fill="#7CC150" class='mian'/>
<path fill-rule="evenodd" clip-rule="evenodd" d="M9.00001 1.75C9.22627 1.75 9.44043 1.85215 9.58283 2.02797L10.6003 3.28428L13.0627 3.49081C13.3808 3.51749 13.6472 3.74265 13.7265 4.05191C13.8058 4.36116 13.6806 4.68671 13.4146 4.86319L11.8533 5.89878L12.277 7.28007C12.3598 7.54985 12.2841 7.84326 12.0812 8.03935C11.8782 8.23544 11.5824 8.30102 11.3156 8.20906L9 7.41095L6.68439 8.20906C6.41761 8.30102 6.12178 8.23544 5.91885 8.03935C5.71591 7.84326 5.64022 7.54986 5.72297 7.28008L6.14664 5.89878L4.58542 4.86319C4.31938 4.68671 4.19421 4.36116 4.2735 4.0519C4.3528 3.74265 4.61918 3.51749 4.93732 3.49081L7.39968 3.28428L8.41718 2.02797C8.55958 1.85214 8.77375 1.75 9.00001 1.75ZM8.99999 3.69166L8.36398 4.47695C8.23535 4.63577 8.04749 4.73521 7.84384 4.75229L7.21177 4.80531L7.44245 4.95832C7.71924 5.14192 7.8423 5.4857 7.7449 5.80325L7.5893 6.31057L8.75561 5.90858C8.91397 5.854 9.08604 5.854 9.24439 5.90858L10.4107 6.31056L10.2551 5.80326C10.1577 5.48571 10.2807 5.14192 10.5575 4.95832L10.7882 4.80531L10.1561 4.75229C9.95248 4.73521 9.76461 4.63576 9.63599 4.47694L8.99999 3.69166Z" fill="#333333" class='xian'/>
</g>
<defs>
<clipPath id="clip0_2965_264">
<rect width="24" height="24" fill="white"/>
</clipPath>
</defs>
</svg>
