<svg width="24" height="24" viewBox="0 0 24 24" fill="none" xmlns="http://www.w3.org/2000/svg">
<path d="M12.1568 2C12.1568 2 20.5744 7.31467 19.9688 15.6097C19.7911 18.044 18.3096 20.2875 16.0553 21.2233C13.3664 22.3395 10.314 22.2526 7.68172 20.9627C5.8564 20.0681 4.58152 18.297 4.19615 16.3012C2.51824 7.61121 12.1568 2 12.1568 2Z" fill="rgba(0,0,0,0)" class='mian'/>
<path fill-rule="evenodd" clip-rule="evenodd" d="M12.5572 1.36583L12.1568 2L11.7795 1.35184C12.0211 1.21119 12.3208 1.21658 12.5572 1.36583ZM12.1401 2.89648C11.8928 3.05885 11.5431 3.29869 11.1287 3.61129C10.2793 4.25195 9.16724 5.19146 8.10923 6.38853C5.98376 8.79337 4.15638 12.1392 4.93256 16.159C5.27672 17.9415 6.41337 19.5059 8.01177 20.2892C10.4498 21.484 13.2772 21.5645 15.7677 20.5306C17.7355 19.7138 19.0617 17.7347 19.2208 15.5551C19.5034 11.6846 17.6839 8.47173 15.7206 6.18245C14.7432 5.04284 13.7456 4.15086 12.9922 3.54417C12.6468 3.266 12.354 3.0489 12.1401 2.89648ZM11.7795 1.35184C11.7798 1.35165 11.7795 1.35184 12.1568 2C12.5572 1.36583 12.5569 1.36564 12.5572 1.36583L12.5606 1.36796L12.567 1.37206L12.5888 1.3861C12.6073 1.39805 12.6334 1.41519 12.6669 1.43743C12.7337 1.48191 12.8293 1.54685 12.9496 1.6317C13.1901 1.80133 13.5294 2.05088 13.933 2.37588C14.739 3.02491 15.8078 3.98004 16.8592 5.20596C18.9533 7.64777 21.0398 11.2397 20.7168 15.6643C20.5206 18.3533 18.8837 20.8612 16.3428 21.916C13.4556 23.1145 10.1782 23.0213 7.35168 21.6361C5.29944 20.6304 3.88633 18.6526 3.45976 16.4434C2.55802 11.7732 4.71097 7.96843 6.9853 5.39517C8.12719 4.10319 9.31988 3.09678 10.2253 2.41377C10.6789 2.07163 11.0627 1.80895 11.3351 1.6306C11.4714 1.54138 11.58 1.47315 11.6557 1.42651C11.6936 1.40319 11.7233 1.38525 11.7441 1.37278L11.7687 1.35819L11.7758 1.35398L11.7781 1.35265L11.7795 1.35184Z" fill="#333333" class='xian'/>
<path fill-rule="evenodd" clip-rule="evenodd" d="M17 13.25C17.4142 13.25 17.75 13.5858 17.75 14C17.75 15.3892 17.3355 16.7994 16.5423 17.881C15.7397 18.9755 14.53 19.75 13 19.75C12.5858 19.75 12.25 19.4142 12.25 19C12.25 18.5858 12.5858 18.25 13 18.25C13.97 18.25 14.7603 17.7745 15.3327 16.994C15.9145 16.2006 16.25 15.1108 16.25 14C16.25 13.5858 16.5858 13.25 17 13.25Z" fill="#333333" class='xian'/>
</svg>
