<svg width="24" height="24" viewBox="0 0 24 24" fill="none" xmlns="http://www.w3.org/2000/svg">
<path fill-rule="evenodd" clip-rule="evenodd" d="M12 2.00409C12.4142 2.00409 12.75 2.33988 12.75 2.75409L12.75 21.2541C12.75 21.6683 12.4142 22.0041 12 22.0041C11.5858 22.0041 11.25 21.6683 11.25 21.2541L11.25 2.75409C11.25 2.33988 11.5858 2.00409 12 2.00409Z" fill="#333333" class='xian'/>
<path fill-rule="evenodd" clip-rule="evenodd" d="M22.25 15C22.25 15.4142 21.9142 15.75 21.5 15.75L19.5 15.75C19.0858 15.75 18.75 15.4142 18.75 15C18.75 14.5858 19.0858 14.25 19.5 14.25L21.5 14.25C21.9142 14.25 22.25 14.5858 22.25 15ZM20.25 12C20.25 12.4142 19.9142 12.75 19.5 12.75L17.5 12.75C17.0858 12.75 16.75 12.4142 16.75 12C16.75 11.5858 17.0858 11.25 17.5 11.25L19.5 11.25C19.9142 11.25 20.25 11.5858 20.25 12ZM18.25 9C18.25 9.41421 17.9142 9.75 17.5 9.75L15 9.75C14.5858 9.75 14.25 9.41421 14.25 9C14.25 8.58579 14.5858 8.25 15 8.25L17.5 8.25C17.9142 8.25 18.25 8.58579 18.25 9Z" fill="#333333" class='xian'/>
<path fill-rule="evenodd" clip-rule="evenodd" d="M9 12.75L2.5 12.75C2.08579 12.75 1.75 12.4142 1.75 12C1.75 11.5858 2.08579 11.25 2.5 11.25L9 11.25C9.41421 11.25 9.75 11.5858 9.75 12C9.75 12.4142 9.41421 12.75 9 12.75Z" fill="#333333" class='xian'/>
<path d="M6.31324 21.02H6.98874L6.65274 20.341L6.31324 21.02ZM6.86974 19.683L7.84974 21.643C7.88007 21.7037 7.88474 21.7667 7.86374 21.832C7.84274 21.895 7.80191 21.9417 7.74124 21.972C7.70624 21.9907 7.67007 22 7.63274 22C7.53007 22 7.45657 21.9545 7.41224 21.8635L7.23374 21.51H6.06824L5.88974 21.8635C5.85941 21.9242 5.81274 21.965 5.74974 21.986C5.68441 22.007 5.62141 22.0023 5.56074 21.972C5.50007 21.9417 5.45924 21.895 5.43824 21.832C5.41724 21.7667 5.42191 21.7037 5.45224 21.643L6.43224 19.683C6.47424 19.6013 6.54774 19.5605 6.65274 19.5605C6.75541 19.5605 6.82774 19.6013 6.86974 19.683Z" fill="#333333" class='xian'/>
<path d="M5.0558 21.93C5.0068 21.9767 4.94847 22 4.8808 22C4.81314 22 4.7548 21.9767 4.7058 21.93C4.65914 21.881 4.6358 21.8227 4.6358 21.755V19.795C4.6358 19.7273 4.65914 19.669 4.7058 19.62C4.7548 19.5733 4.81314 19.55 4.8808 19.55C4.94847 19.55 5.0068 19.5733 5.0558 19.62C5.10247 19.669 5.1258 19.7273 5.1258 19.795V21.755C5.1258 21.8227 5.10247 21.881 5.0558 21.93Z" fill="#333333" class='xian'/>
<path d="M2.53498 20.04V21.51H3.05998C3.26298 21.51 3.43565 21.4377 3.57798 21.293C3.72265 21.1507 3.79498 20.978 3.79498 20.775C3.79498 20.572 3.72265 20.3993 3.57798 20.257C3.43565 20.1123 3.26298 20.04 3.05998 20.04H2.53498ZM2.04498 21.755V19.795C2.04498 19.7273 2.06832 19.669 2.11498 19.62C2.16398 19.5733 2.22232 19.55 2.28998 19.55H3.05998C3.39832 19.55 3.68648 19.6702 3.92448 19.9105C4.16482 20.1485 4.28498 20.4367 4.28498 20.775C4.28498 21.1133 4.16482 21.4015 3.92448 21.6395C3.68648 21.8798 3.39832 22 3.05998 22H2.28998C2.22232 22 2.16398 21.9755 2.11498 21.9265C2.06832 21.8798 2.04498 21.8227 2.04498 21.755Z" fill="#333333" class='xian'/>
<path d="M4.78072 2.42V3.68H5.23072C5.40472 3.68 5.55272 3.618 5.67472 3.494C5.79872 3.372 5.86072 3.224 5.86072 3.05C5.86072 2.876 5.79872 2.728 5.67472 2.606C5.55272 2.482 5.40472 2.42 5.23072 2.42H4.78072ZM4.36072 3.89V2.21C4.36072 2.152 4.38072 2.102 4.42072 2.06C4.46272 2.02 4.51272 2 4.57072 2H5.23072C5.52072 2 5.76772 2.103 5.97172 2.309C6.17772 2.513 6.28072 2.76 6.28072 3.05C6.28072 3.34 6.17772 3.587 5.97172 3.791C5.76772 3.997 5.52072 4.1 5.23072 4.1H4.57072C4.51272 4.1 4.46272 4.079 4.42072 4.037C4.38072 3.997 4.36072 3.948 4.36072 3.89Z" fill="#579AFF"/>
<path d="M3.76 3.73997V3.88997C3.76 3.94797 3.74 3.99697 3.7 4.03697C3.658 4.07897 3.608 4.09997 3.55 4.09997C3.492 4.09997 3.443 4.07897 3.403 4.03697C3.361 3.99697 3.34 3.94797 3.34 3.88997V3.73997H2.23C2.152 3.73997 2.092 3.70597 2.05 3.63797C2.01 3.56997 2.009 3.49997 2.047 3.42797L2.767 2.10797C2.795 2.05797 2.837 2.02497 2.893 2.00897C2.949 1.99297 3.002 1.99897 3.052 2.02697C3.102 2.05297 3.136 2.09397 3.154 2.14997C3.17 2.20597 3.164 2.25897 3.136 2.30897L2.584 3.31997H3.34V2.98997C3.34 2.93197 3.361 2.88197 3.403 2.83997C3.443 2.79997 3.492 2.77997 3.55 2.77997C3.608 2.77997 3.658 2.79997 3.7 2.83997C3.74 2.88197 3.76 2.93197 3.76 2.98997V3.31997H3.91C3.968 3.31997 4.018 3.33997 4.06 3.37997C4.1 3.42197 4.12 3.47197 4.12 3.52997C4.12 3.58797 4.1 3.63697 4.06 3.67697C4.018 3.71897 3.968 3.73997 3.91 3.73997H3.76Z" fill="#579AFF"/>
</svg>
