<svg width="24" height="24" viewBox="0 0 24 24" fill="none" xmlns="http://www.w3.org/2000/svg">
<path fill-rule="evenodd" clip-rule="evenodd" d="M12 2.00403C12.4142 2.00403 12.75 2.33981 12.75 2.75403L12.75 21.254C12.75 21.6682 12.4142 22.004 12 22.004C11.5858 22.004 11.25 21.6682 11.25 21.254L11.25 2.75403C11.25 2.33981 11.5858 2.00403 12 2.00403Z" fill="#333333" class='xian'/>
<path d="M9.53813 21.93C9.48913 21.9767 9.43079 22 9.36313 22C9.29546 22 9.23713 21.9767 9.18813 21.93C9.14146 21.881 9.11813 21.8227 9.11813 21.755V20.502L8.50563 21.2755C8.45896 21.3362 8.39479 21.3665 8.31313 21.3665C8.23146 21.3665 8.16729 21.3362 8.12063 21.2755L7.50813 20.502V21.755C7.50813 21.8227 7.48479 21.881 7.43813 21.93C7.38913 21.9767 7.33079 22 7.26313 22C7.19546 22 7.13713 21.9767 7.08813 21.93C7.04146 21.881 7.01813 21.8227 7.01813 21.755V19.795C7.01813 19.6783 7.07296 19.6013 7.18263 19.564C7.29229 19.5243 7.38329 19.5512 7.45563 19.6445L8.31313 20.7295L9.17063 19.6445C9.24296 19.5535 9.33396 19.5267 9.44363 19.564C9.55329 19.6013 9.60813 19.6783 9.60813 19.795V21.755C9.60813 21.8227 9.58479 21.881 9.53813 21.93Z" fill="#333333" class='xian'/>
<path d="M4.98567 20.04V20.81H5.79067C5.89567 20.81 5.98667 20.7727 6.06367 20.698C6.13833 20.621 6.17567 20.53 6.17567 20.425C6.17567 20.3177 6.13833 20.2267 6.06367 20.152C5.98667 20.0773 5.89567 20.04 5.79067 20.04H4.98567ZM4.49567 21.755V19.795C4.49567 19.7273 4.519 19.669 4.56567 19.62C4.61467 19.5733 4.673 19.55 4.74067 19.55H5.79067C6.031 19.55 6.2375 19.6352 6.41017 19.8055C6.5805 19.9782 6.66567 20.1847 6.66567 20.425C6.66567 20.5837 6.626 20.7307 6.54667 20.866C6.46733 20.9967 6.36233 21.1005 6.23167 21.1775L6.60267 21.5905C6.647 21.6418 6.668 21.7013 6.66567 21.769C6.661 21.8367 6.63417 21.8927 6.58517 21.937C6.5385 21.979 6.48367 22 6.42067 22C6.34833 22 6.28767 21.9732 6.23867 21.9195L5.68217 21.3H4.98567V21.755C4.98567 21.8227 4.96233 21.8798 4.91567 21.9265C4.86667 21.9755 4.80833 22 4.74067 22C4.673 22 4.61467 21.9755 4.56567 21.9265C4.519 21.8798 4.49567 21.8227 4.49567 21.755Z" fill="#333333" class='xian'/>
<path d="M2.53498 20.81H3.26998C3.37265 20.81 3.46365 20.7727 3.54298 20.698C3.61765 20.6187 3.65498 20.5277 3.65498 20.425C3.65498 20.3177 3.61765 20.2267 3.54298 20.152C3.46365 20.0773 3.37265 20.04 3.26998 20.04H2.53498V20.81ZM2.04498 19.795C2.04498 19.7273 2.06948 19.669 2.11848 19.62C2.16515 19.5733 2.22232 19.55 2.28998 19.55H3.26998C3.51265 19.55 3.71915 19.6352 3.88948 19.8055C4.05982 19.9758 4.14498 20.1823 4.14498 20.425C4.14498 20.6677 4.05982 20.8742 3.88948 21.0445C3.71915 21.2148 3.51265 21.3 3.26998 21.3H2.53498V21.755C2.53498 21.8227 2.51165 21.8798 2.46498 21.9265C2.41598 21.9755 2.35765 22 2.28998 22C2.22232 22 2.16515 21.9755 2.11848 21.9265C2.06948 21.8798 2.04498 21.8227 2.04498 21.755V19.795Z" fill="#333333" class='xian'/>
<path fill-rule="evenodd" clip-rule="evenodd" d="M9 12.75L2.5 12.75C2.08579 12.75 1.75 12.4142 1.75 12C1.75 11.5858 2.08579 11.25 2.5 11.25L9 11.25C9.41421 11.25 9.75 11.5858 9.75 12C9.75 12.4142 9.41421 12.75 9 12.75Z" fill="#333333" class='xian'/>
<path fill-rule="evenodd" clip-rule="evenodd" d="M16.5 9.5C16.5 9.91421 16.1642 10.25 15.75 10.25L15 10.25C14.5858 10.25 14.25 9.91421 14.25 9.5C14.25 9.08579 14.5858 8.75 15 8.75L15.75 8.75C16.1642 8.75 16.5 9.08579 16.5 9.5Z" fill="#333333" class='xian' class='xian'/>
<path fill-rule="evenodd" clip-rule="evenodd" d="M19.375 14.5C19.375 14.9142 19.0392 15.25 18.625 15.25L17.875 15.25C17.4608 15.25 17.125 14.9142 17.125 14.5C17.125 14.0858 17.4608 13.75 17.875 13.75L18.625 13.75C19.0392 13.75 19.375 14.0858 19.375 14.5Z" fill="#333333" class='xian'/>
<path fill-rule="evenodd" clip-rule="evenodd" d="M22.25 12C22.25 12.4142 21.9142 12.75 21.5 12.75L20.75 12.75C20.3358 12.75 20 12.4142 20 12C20 11.5858 20.3358 11.25 20.75 11.25L21.5 11.25C21.9142 11.25 22.25 11.5858 22.25 12Z" fill="#333333" class='xian'/>
<path d="M4.78072 2.42V3.68H5.23072C5.40472 3.68 5.55272 3.618 5.67472 3.494C5.79872 3.372 5.86072 3.224 5.86072 3.05C5.86072 2.876 5.79872 2.728 5.67472 2.606C5.55272 2.482 5.40472 2.42 5.23072 2.42H4.78072ZM4.36072 3.89V2.21C4.36072 2.152 4.38072 2.102 4.42072 2.06C4.46272 2.02 4.51272 2 4.57072 2H5.23072C5.52072 2 5.76772 2.103 5.97172 2.309C6.17772 2.513 6.28072 2.76 6.28072 3.05C6.28072 3.34 6.17772 3.587 5.97172 3.791C5.76772 3.997 5.52072 4.1 5.23072 4.1H4.57072C4.51272 4.1 4.46272 4.079 4.42072 4.037C4.38072 3.997 4.36072 3.948 4.36072 3.89Z" fill="#579AFF"/>
<path d="M3.76 3.73997V3.88997C3.76 3.94797 3.74 3.99697 3.7 4.03697C3.658 4.07897 3.608 4.09997 3.55 4.09997C3.492 4.09997 3.443 4.07897 3.403 4.03697C3.361 3.99697 3.34 3.94797 3.34 3.88997V3.73997H2.23C2.152 3.73997 2.092 3.70597 2.05 3.63797C2.01 3.56997 2.009 3.49997 2.047 3.42797L2.767 2.10797C2.795 2.05797 2.837 2.02497 2.893 2.00897C2.949 1.99297 3.002 1.99897 3.052 2.02697C3.102 2.05297 3.136 2.09397 3.154 2.14997C3.17 2.20597 3.164 2.25897 3.136 2.30897L2.584 3.31997H3.34V2.98997C3.34 2.93197 3.361 2.88197 3.403 2.83997C3.443 2.79997 3.492 2.77997 3.55 2.77997C3.608 2.77997 3.658 2.79997 3.7 2.83997C3.74 2.88197 3.76 2.93197 3.76 2.98997V3.31997H3.91C3.968 3.31997 4.018 3.33997 4.06 3.37997C4.1 3.42197 4.12 3.47197 4.12 3.52997C4.12 3.58797 4.1 3.63697 4.06 3.67697C4.018 3.71897 3.968 3.73997 3.91 3.73997H3.76Z" fill="#579AFF"/>
</svg>
