<svg width="24" height="24" viewBox="0 0 24 24" fill="none" xmlns="http://www.w3.org/2000/svg">
<path d="M3 13V16.5H7V13H3Z" fill="#EAEAEC" class='mian'/>
<path fill-rule="evenodd" clip-rule="evenodd" d="M2.25 13C2.25 12.5858 2.58579 12.25 3 12.25H7C7.41421 12.25 7.75 12.5858 7.75 13V16.5C7.75 16.9142 7.41421 17.25 7 17.25H3C2.58579 17.25 2.25 16.9142 2.25 16.5V13ZM3.75 13.75V15.75H6.25V13.75H3.75Z" fill="#333333" class='xian'/>
<path d="M2 11V13H10V11H2Z" fill="#EAEAEC" class='mian'/>
<path fill-rule="evenodd" clip-rule="evenodd" d="M1.25 11C1.25 10.5858 1.58579 10.25 2 10.25H10C10.4142 10.25 10.75 10.5858 10.75 11V13C10.75 13.4142 10.4142 13.75 10 13.75H2C1.58579 13.75 1.25 13.4142 1.25 13V11ZM2.75 11.75V12.25H9.25V11.75H2.75Z" fill="#333333" class='xian'/>
<path d="M2 9V11H13V9H2Z" fill="#EAEAEC" class='mian'/>
<path fill-rule="evenodd" clip-rule="evenodd" d="M1.25 9C1.25 8.58579 1.58579 8.25 2 8.25H13C13.4142 8.25 13.75 8.58579 13.75 9V11C13.75 11.4142 13.4142 11.75 13 11.75H2C1.58579 11.75 1.25 11.4142 1.25 11V9ZM2.75 9.75V10.25H12.25V9.75H2.75Z" fill="#333333" class='xian'/>
<path d="M10 2V9H12V2H10Z" fill="#EAEAEC" class='mian'/>
<path fill-rule="evenodd" clip-rule="evenodd" d="M9.25 2C9.25 1.58579 9.58579 1.25 10 1.25H12C12.4142 1.25 12.75 1.58579 12.75 2V9C12.75 9.41421 12.4142 9.75 12 9.75H10C9.58579 9.75 9.25 9.41421 9.25 9V2ZM10.75 2.75V8.25H11.25V2.75H10.75Z" fill="#333333" class='xian'/>
<path d="M12 2V9H13V2H12Z" fill="#EAEAEC" class='mian'/>
<path fill-rule="evenodd" clip-rule="evenodd" d="M11.25 2C11.25 1.58579 11.5858 1.25 12 1.25H13C13.4142 1.25 13.75 1.58579 13.75 2V9C13.75 9.41421 13.4142 9.75 13 9.75H12C11.5858 9.75 11.25 9.41421 11.25 9V2Z" fill="#333333" class='xian'/>
<path d="M3 5V9H7V5H3Z" fill="#EAEAEC" class='mian'/>
<path fill-rule="evenodd" clip-rule="evenodd" d="M2.25 5C2.25 4.58579 2.58579 4.25 3 4.25H7C7.41421 4.25 7.75 4.58579 7.75 5V9C7.75 9.41421 7.41421 9.75 7 9.75H3C2.58579 9.75 2.25 9.41421 2.25 9V5ZM3.75 5.75V8.25H6.25V5.75H3.75Z" fill="#333333" class='xian'/>
<path d="M10 11V13H14V11H10Z" fill="#EAEAEC" class='mian'/>
<path fill-rule="evenodd" clip-rule="evenodd" d="M9.25 11C9.25 10.5858 9.58579 10.25 10 10.25H14C14.4142 10.25 14.75 10.5858 14.75 11V13C14.75 13.4142 14.4142 13.75 14 13.75H10C9.58579 13.75 9.25 13.4142 9.25 13V11ZM10.75 11.75V12.25H13.25V11.75H10.75Z" fill="#333333" class='xian'/>
<path d="M14 11V13H19V11H14Z" fill="#EAEAEC" class='mian'/>
<path fill-rule="evenodd" clip-rule="evenodd" d="M13.25 11C13.25 10.5858 13.5858 10.25 14 10.25H19C19.4142 10.25 19.75 10.5858 19.75 11V13C19.75 13.4142 19.4142 13.75 19 13.75H14C13.5858 13.75 13.25 13.4142 13.25 13V11ZM14.75 11.75V12.25H18.25V11.75H14.75Z" fill="#333333" class='xian'/>
<path d="M18 9V13H22V9H18Z" fill="#4F4F4F" class='mian'/>
<path fill-rule="evenodd" clip-rule="evenodd" d="M17.25 9C17.25 8.58579 17.5858 8.25 18 8.25H22C22.4142 8.25 22.75 8.58579 22.75 9V13C22.75 13.4142 22.4142 13.75 22 13.75H18C17.5858 13.75 17.25 13.4142 17.25 13V9ZM18.75 9.75V12.25H21.25V9.75H18.75Z" fill="#333333" class='xian'/>
<path d="M3 16.5V20H7V16.5H3Z" fill="#EAEAEC" class='mian'/>
<path fill-rule="evenodd" clip-rule="evenodd" d="M2.25 16.5C2.25 16.0858 2.58579 15.75 3 15.75H7C7.41421 15.75 7.75 16.0858 7.75 16.5V20C7.75 20.4142 7.41421 20.75 7 20.75H3C2.58579 20.75 2.25 20.4142 2.25 20V16.5ZM3.75 17.25V19.25H6.25V17.25H3.75Z" fill="#333333" class='xian'/>
<path d="M18.2578 9.45V12.05C18.2578 12.1605 18.3474 12.25 18.4578 12.25H21.5578C21.6683 12.25 21.7578 12.1605 21.7578 12.05V9.45C21.7578 9.33954 21.6683 9.25 21.5578 9.25H18.4578C18.3474 9.25 18.2578 9.33954 18.2578 9.45Z" fill="white" class='mian'/>
<path d="M3 20V22H10V20H3Z" fill="#EAEAEC" class='mian'/>
<path fill-rule="evenodd" clip-rule="evenodd" d="M2.25 20C2.25 19.5858 2.58579 19.25 3 19.25H10C10.4142 19.25 10.75 19.5858 10.75 20V22C10.75 22.4142 10.4142 22.75 10 22.75H3C2.58579 22.75 2.25 22.4142 2.25 22V20ZM3.75 20.75V21.25H9.25V20.75H3.75Z" fill="#333333" class='xian'/>
<path d="M10 20V22H22V20H10Z" fill="#EAEAEC" class='mian'/>
<path fill-rule="evenodd" clip-rule="evenodd" d="M9.25 20C9.25 19.5858 9.58579 19.25 10 19.25H22C22.4142 19.25 22.75 19.5858 22.75 20V22C22.75 22.4142 22.4142 22.75 22 22.75H10C9.58579 22.75 9.25 22.4142 9.25 22V20ZM10.75 20.75V21.25H21.25V20.75H10.75Z" fill="#333333" class='xian'/>
<path d="M6 13V16.5H10V13H6Z" fill="#4F4F4F" class='mian'/>
<path fill-rule="evenodd" clip-rule="evenodd" d="M5.25 13C5.25 12.5858 5.58579 12.25 6 12.25H10C10.4142 12.25 10.75 12.5858 10.75 13V16.5C10.75 16.9142 10.4142 17.25 10 17.25H6C5.58579 17.25 5.25 16.9142 5.25 16.5V13ZM6.75 13.75V15.75H9.25V13.75H6.75Z" fill="#333333" class='xian'/>
<path d="M6 16.5V20H10V16.5H6Z" fill="#EAEAEC" class='mian'/>
<path fill-rule="evenodd" clip-rule="evenodd" d="M5.25 16.5C5.25 16.0858 5.58579 15.75 6 15.75H10C10.4142 15.75 10.75 16.0858 10.75 16.5V20C10.75 20.4142 10.4142 20.75 10 20.75H6C5.58579 20.75 5.25 20.4142 5.25 20V16.5ZM6.75 17.25V19.25H9.25V17.25H6.75Z" fill="#333333" class='xian'/>
<path d="M10 13V20H18V13H10Z" fill="#EAEAEC" class='mian'/>
<path fill-rule="evenodd" clip-rule="evenodd" d="M9.25 13C9.25 12.5858 9.58579 12.25 10 12.25H18C18.4142 12.25 18.75 12.5858 18.75 13V20C18.75 20.4142 18.4142 20.75 18 20.75H10C9.58579 20.75 9.25 20.4142 9.25 20V13ZM10.75 13.75V19.25H17.25V13.75H10.75Z" fill="#333333" class='xian'/>
<path d="M18 13V20H22V13H18Z" fill="#EAEAEC" class='mian'/>
<path fill-rule="evenodd" clip-rule="evenodd" d="M17.25 13C17.25 12.5858 17.5858 12.25 18 12.25H22C22.4142 12.25 22.75 12.5858 22.75 13V20C22.75 20.4142 22.4142 20.75 22 20.75H18C17.5858 20.75 17.25 20.4142 17.25 20V13ZM18.75 13.75V19.25H21.25V13.75H18.75Z" fill="#333333" class='xian'/>
<path d="M18 15V16H22V15H18Z" fill="#EAEAEC" class='mian'/>
<path fill-rule="evenodd" clip-rule="evenodd" d="M17.25 15C17.25 14.5858 17.5858 14.25 18 14.25H22C22.4142 14.25 22.75 14.5858 22.75 15V16C22.75 16.4142 22.4142 16.75 22 16.75H18C17.5858 16.75 17.25 16.4142 17.25 16V15Z" fill="#333333" class='xian'/>
<path d="M20.25 11.75C20.25 11.8881 20.1381 12 20 12C19.8619 12 19.75 11.8881 19.75 11.75C19.75 11.6119 19.8619 11.5 20 11.5C20.1381 11.5 20.25 11.6119 20.25 11.75Z" fill="#333333" class='xian'/>
<path fill-rule="evenodd" clip-rule="evenodd" d="M22.5 11.25H18V10.75H22.5V11.25Z" fill="#333333" class='xian'/>
<path fill-rule="evenodd" clip-rule="evenodd" d="M19.9268 9.57322C20.0244 9.67085 20.0244 9.82915 19.9268 9.92678L19.4268 10.4268C19.3291 10.5244 19.1709 10.5244 19.0732 10.4268C18.9756 10.3291 18.9756 10.1709 19.0732 10.0732L19.5732 9.57322C19.6709 9.47559 19.8291 9.47559 19.9268 9.57322Z" fill="#333333" class='xian'/>
<path fill-rule="evenodd" clip-rule="evenodd" d="M20.9268 9.82322C21.0244 9.92085 21.0244 10.0791 20.9268 10.1768L20.6768 10.4268C20.5791 10.5244 20.4209 10.5244 20.3232 10.4268C20.2256 10.3291 20.2256 10.1709 20.3232 10.0732L20.5732 9.82322C20.6709 9.72559 20.8291 9.72559 20.9268 9.82322Z" fill="#333333" class='xian'/>
</svg>
