<svg width="24" height="24" viewBox="0 0 24 24" fill="none" xmlns="http://www.w3.org/2000/svg">
<path d="M7 7V17H12V7H7Z" fill="#47464B"  class='mian'/>
<path fill-rule="evenodd" clip-rule="evenodd" d="M6.25 7C6.25 6.58579 6.58579 6.25 7 6.25H12C12.4142 6.25 12.75 6.58579 12.75 7V17C12.75 17.4142 12.4142 17.75 12 17.75H7C6.58579 17.75 6.25 17.4142 6.25 17V7ZM7.75 7.75V16.25H11.25V7.75H7.75Z" fill="#333333"  class='xian'/>
<path d="M12 7V17H22V7H12Z" fill="#EAEAEC" class='mian'/>
<path fill-rule="evenodd" clip-rule="evenodd" d="M11.25 7C11.25 6.58579 11.5858 6.25 12 6.25H22C22.4142 6.25 22.75 6.58579 22.75 7V17C22.75 17.4142 22.4142 17.75 22 17.75H12C11.5858 17.75 11.25 17.4142 11.25 17V7ZM12.75 7.75V16.25H21.25V7.75H12.75Z" fill="#333333"  class='xian'/>
<path d="M4 8H7V12H4V8Z" fill="#D9D9D9" class='mian'/>
<path fill-rule="evenodd" clip-rule="evenodd" d="M3.25 8C3.25 7.58579 3.58579 7.25 4 7.25H7C7.41421 7.25 7.75 7.58579 7.75 8V12C7.75 12.4142 7.41421 12.75 7 12.75H4C3.58579 12.75 3.25 12.4142 3.25 12V8ZM4.75 8.75V11.25H6.25V8.75H4.75Z" fill="#333333"  class='xian'/>
<path d="M2 7H4V12H2V7Z" fill="#D9D9D9" class='mian'/>
<path fill-rule="evenodd" clip-rule="evenodd" d="M1.25 7C1.25 6.58579 1.58579 6.25 2 6.25H4C4.41421 6.25 4.75 6.58579 4.75 7V12C4.75 12.4142 4.41421 12.75 4 12.75H2C1.58579 12.75 1.25 12.4142 1.25 12V7ZM2.75 7.75V11.25H3.25V7.75H2.75Z" fill="#333333"  class='xian'/>
<path d="M8.625 13.5H7.875L7.5 13.875V15.75H9V13.875L8.625 13.5Z" fill="#999999" class='mian'/>
<path fill-rule="evenodd" clip-rule="evenodd" d="M7.69822 13.3232C7.74511 13.2763 7.8087 13.25 7.875 13.25H8.625C8.6913 13.25 8.75489 13.2763 8.80178 13.3232L9.17678 13.6982C9.22366 13.7451 9.25 13.8087 9.25 13.875V15.75C9.25 15.8881 9.13807 16 9 16H7.5C7.36193 16 7.25 15.8881 7.25 15.75V13.875C7.25 13.8087 7.27634 13.7451 7.32322 13.6982L7.69822 13.3232ZM7.97855 13.75L7.75 13.9786V15.5H8.75V13.9786L8.52145 13.75H7.97855Z" fill="#333333"  class='xian'/>
<path d="M7.75 9H9.75V9.5H7.75V9Z" fill="#0C7DC3"  class='xian'/>
</svg>
