<svg width="24" height="24" viewBox="0 0 24 24" fill="none" xmlns="http://www.w3.org/2000/svg">
<path fill-rule="evenodd" clip-rule="evenodd" d="M9.65617 6.51534C9.174 8.00547 9.22012 9.07651 9.79454 9.72848C10.369 10.3805 11.1753 11.025 12.6416 11.3086C12.1805 13.2409 13.921 13.5461 13.921 13.5461C15.1416 13.8086 16.0785 12.6352 16.0785 12.6352C17.848 13.2652 18.8525 12.8978 19.0922 11.5328C19.4518 9.48547 18.7228 8.02296 18.0128 7.74129C17.5635 7.71242 16.8532 7.90277 16.4439 6.95169C15.7269 5.95299 14.4829 5.83486 13.921 5.79874C13.2341 5.79273 13.2741 5.16952 11.7804 5.15137C10.6431 5.30021 9.93501 5.75485 9.65617 6.51534Z" fill="#FEB8A5" class='mian'/>
<path fill-rule="evenodd" clip-rule="evenodd" d="M8.81971 4.44505C7.83421 5.20582 7.16742 6.37113 6.87566 8.03502C6.8349 8.26751 6.68707 8.46724 6.47663 8.57415C5.3682 9.13726 4.52294 9.5845 3.93544 9.91773C3.8859 9.94583 3.83844 9.97297 3.79305 9.99917C3.79745 10.0019 3.80185 10.0046 3.80625 10.0074C4.07719 10.1763 4.43318 10.4285 4.67471 10.788C4.94732 11.1938 5.05586 11.7137 4.83284 12.2793C4.71413 12.5804 4.54918 12.9234 4.38875 13.257C4.36553 13.3052 4.3424 13.3533 4.31953 13.4011C4.13137 13.7936 3.94854 14.185 3.80665 14.5655C3.66333 14.9498 3.57752 15.2828 3.56075 15.5573C3.5444 15.8248 3.59583 15.9855 3.67224 16.0921C3.75575 16.2086 3.89102 16.308 4.14657 16.3921C4.41677 16.481 4.74786 16.5301 5.1786 16.5867C5.21819 16.5919 5.25868 16.5971 5.29998 16.6025C6.07895 16.7031 7.14974 16.8415 8.0018 17.5178C9.09262 18.3836 9.86344 19.6635 10.3591 21.2801C10.4806 21.6761 10.258 22.0956 9.86198 22.217C9.46596 22.3385 9.04649 22.1159 8.92506 21.7199C8.48986 20.3006 7.85629 19.3174 7.06925 18.6927C6.55807 18.2869 5.87475 18.191 4.98326 18.0739C4.57516 18.0203 4.10378 17.9571 3.67789 17.817C3.23736 17.6721 2.78292 17.426 2.45313 16.966C2.11622 16.496 2.03338 15.9593 2.06354 15.4658C2.09328 14.9792 2.23475 14.4877 2.4012 14.0413C2.56909 13.5912 2.77853 13.1457 2.96686 12.7528C2.99099 12.7024 3.01464 12.6532 3.03778 12.605C3.20213 12.263 3.3403 11.9754 3.43738 11.7291C3.46052 11.6705 3.45671 11.6648 3.43124 11.6269L3.42958 11.6244C3.37153 11.538 3.2414 11.4228 3.01277 11.2803C2.90563 11.2135 2.794 11.1509 2.6763 11.0855C2.6671 11.0803 2.65775 11.0752 2.64828 11.0699C2.54524 11.0127 2.42797 10.9476 2.32762 10.8846C2.23656 10.8274 2.06558 10.7164 1.93932 10.5534C1.87 10.4639 1.77257 10.3063 1.7533 10.0897C1.73196 9.84983 1.81521 9.64233 1.93234 9.49286C2.06473 9.32393 2.27726 9.17576 2.43904 9.06869C2.63339 8.94007 2.88763 8.78756 3.1954 8.61299C3.75101 8.29785 4.51068 7.89419 5.47046 7.40337C5.84653 5.63871 6.64205 4.23118 7.9031 3.25769C9.24232 2.22385 11.0156 1.75 13.1391 1.75C16.4079 1.75 18.7108 3.14807 20.1789 5.01015C21.626 6.84558 22.25 9.1124 22.25 10.8975C22.25 14.3909 19.4355 18.0223 15.4251 19.0501C15.4465 19.1063 15.476 19.1741 15.5166 19.2549C15.7275 19.6746 16.1477 20.2513 16.8233 20.9961C17.1016 21.3029 17.0785 21.7772 16.7717 22.0555C16.4649 22.3338 15.9906 22.3107 15.7123 22.0039C15.0059 21.2251 14.4785 20.5297 14.1764 19.9286C13.8979 19.3746 13.6824 18.636 14.1102 18.013C14.2221 17.85 14.3938 17.7378 14.588 17.7008C18.2412 17.0045 20.75 13.774 20.75 10.8975C20.75 9.41791 20.2208 7.48599 19.001 5.93884C17.8022 4.41835 15.9246 3.25 13.1391 3.25C11.2265 3.25 9.81455 3.67706 8.81971 4.44505ZM15.3708 18.8124C15.3709 18.8124 15.3708 18.8129 15.3706 18.8139L15.3708 18.8124Z" fill="#333333" class='xian'/>
<path fill-rule="evenodd" clip-rule="evenodd" d="M12.7372 10.2885C13.1301 10.4195 13.3425 10.8442 13.2115 11.2372C13.0847 11.6177 13.2146 11.8902 13.4751 12.1436C13.6095 12.2742 13.762 12.3781 13.8866 12.4506C13.9474 12.486 13.9979 12.5118 14.0309 12.5278C14.0473 12.5358 14.0592 12.5412 14.0655 12.544L14.0704 12.5462C14.4504 12.706 14.6304 13.1432 14.4723 13.5246C14.3137 13.9072 13.875 14.0889 13.4923 13.9303L13.7795 13.2374C13.4923 13.9303 13.492 13.9302 13.4917 13.9301L13.4911 13.9298L13.4898 13.9292L13.4865 13.9279L13.4781 13.9243L13.4537 13.9136C13.4342 13.9049 13.4083 13.8929 13.377 13.8778C13.3147 13.8476 13.2301 13.8041 13.1319 13.7469C12.9385 13.6343 12.6774 13.4601 12.4293 13.2189C11.9251 12.7285 11.4153 11.8823 11.7885 10.7628C11.9195 10.3699 12.3442 10.1575 12.7372 10.2885Z" fill="#333333" class='xian'/>
<path fill-rule="evenodd" clip-rule="evenodd" d="M16.4049 11.7405C16.7286 11.999 16.7815 12.4709 16.523 12.7946L15.9369 12.3266C16.523 12.7946 16.5228 12.7948 16.5227 12.795L16.5223 12.7955L16.5215 12.7965L16.5196 12.7989L16.5147 12.8049L16.5006 12.8219C16.4893 12.8354 16.4741 12.853 16.4554 12.8742C16.4179 12.9164 16.3655 12.9731 16.2993 13.0387C16.168 13.1687 15.9766 13.3397 15.7349 13.5025C15.2622 13.8209 14.5118 14.1621 13.6217 13.9707C13.2168 13.8836 12.9591 13.4847 13.0462 13.0797C13.1333 12.6748 13.5322 12.4171 13.9372 12.5042C14.2677 12.5753 14.596 12.4611 14.8969 12.2584C15.042 12.1607 15.1611 12.0548 15.2436 11.973C15.2843 11.9327 15.3146 11.8998 15.3332 11.8788C15.3424 11.8684 15.3486 11.8611 15.3517 11.8575M16.4049 11.7405C16.0823 11.4829 15.6124 11.5346 15.3534 11.8554L16.4049 11.7405Z" fill="#333333" class='xian'/>
<path fill-rule="evenodd" clip-rule="evenodd" d="M19.0804 10.4855C19.4883 10.5572 19.761 10.946 19.6893 11.3539C19.5389 12.2105 19.1039 12.9247 18.2751 13.2279C17.5236 13.5027 16.6227 13.3669 15.6854 13.0331C15.2952 12.8942 15.0914 12.4653 15.2304 12.075C15.3693 11.6848 15.7983 11.4811 16.1885 11.62C17.0206 11.9163 17.5067 11.9117 17.7598 11.8191C17.9356 11.7549 18.1227 11.6029 18.2119 11.0945C18.2836 10.6865 18.6724 10.4139 19.0804 10.4855Z" fill="#333333" class='xian'/>
<path fill-rule="evenodd" clip-rule="evenodd" d="M9.15717 8.8571C9.46797 8.58329 9.9419 8.61328 10.2157 8.92408C10.7002 9.474 11.366 10.0167 12.6424 10.2637C13.0491 10.3423 13.315 10.7358 13.2363 11.1424C13.1577 11.5491 12.7642 11.815 12.3576 11.7364C10.7014 11.416 9.75455 10.6698 9.09018 9.91564C8.81637 9.60483 8.84636 9.13091 9.15717 8.8571Z" fill="#333333" class='xian'/>
<path fill-rule="evenodd" clip-rule="evenodd" d="M9.74549 5.49315C10.1396 5.62068 10.3557 6.04353 10.2282 6.43763C9.76237 7.8771 9.92128 8.5899 10.2157 8.92405C10.4895 9.23485 10.4596 9.70877 10.1488 9.9826C9.83796 10.2564 9.36404 10.2265 9.09021 9.91567C8.23578 8.94589 8.30245 7.5166 8.80101 5.97583C8.92854 5.58173 9.35139 5.36563 9.74549 5.49315Z" fill="#333333" class='xian'/>
<path fill-rule="evenodd" clip-rule="evenodd" d="M13.7473 4.73972C13.7569 4.74115 13.7669 4.73998 13.786 4.74015C13.7999 4.74027 13.8137 4.74078 13.8276 4.74167C14.3772 4.777 15.9698 4.89388 16.9116 6.20569C16.9431 6.24965 16.9698 6.2969 16.9912 6.34662C17.0585 6.50296 17.1206 6.57233 17.1546 6.60255C17.186 6.63041 17.2176 6.64655 17.2625 6.65835C17.3158 6.67237 17.387 6.67999 17.5 6.68089C17.5413 6.68121 17.5783 6.68075 17.6218 6.68021C17.6411 6.67997 17.6618 6.67971 17.6847 6.6795C17.7505 6.67889 17.8339 6.67873 17.9193 6.68422C17.9977 6.68926 18.0747 6.70657 18.1477 6.73553C18.7976 6.99331 19.2638 7.67445 19.5212 8.42221C19.7925 9.21023 19.889 10.2173 19.6893 11.354C19.6177 11.7619 19.2289 12.0346 18.8209 11.9629C18.4129 11.8913 18.1403 11.5025 18.212 11.0945C18.3719 10.1837 18.2838 9.43591 18.1029 8.91041C17.9555 8.48238 17.7747 8.26889 17.6693 8.17997C17.6261 8.18073 17.5703 8.18149 17.4882 8.18084C17.3288 8.17958 17.1126 8.16994 16.8811 8.10905C16.3802 7.97738 15.9427 7.64288 15.6525 7.02636C15.158 6.39502 14.3076 6.27688 13.7485 6.2397C13.2372 6.22773 12.876 5.98263 12.6964 5.86079C12.6673 5.84101 12.6429 5.82448 12.6235 5.81272C12.4829 5.7277 12.2603 5.6075 11.6831 5.59366C10.7314 5.72893 10.3607 6.07783 10.2188 6.46491C10.0762 6.85381 9.64531 7.05348 9.25641 6.91089C8.86752 6.7683 8.66785 6.33744 8.81044 5.94854C9.22358 4.82176 10.2579 4.26708 11.5416 4.09909C11.5768 4.09448 11.6124 4.09238 11.648 4.09281C12.5246 4.10346 13.0195 4.2992 13.3998 4.52926C13.6909 4.70533 13.7172 4.73525 13.7473 4.73972Z" fill="#333333" class='xian'/>
<path fill-rule="evenodd" clip-rule="evenodd" d="M14.7115 13.2628C14.8425 13.6558 14.6302 14.0805 14.2372 14.2115C13.6951 14.3922 13.2533 14.8001 12.9022 15.3076C12.5526 15.813 12.3307 16.3641 12.2144 16.7282C12.0884 17.1228 11.6663 17.3405 11.2717 17.2144C10.8772 17.0884 10.6595 16.6664 10.7855 16.2718C10.9304 15.8183 11.2085 15.1194 11.6686 14.4542C12.1273 13.7911 12.805 13.1078 13.7629 12.7885C14.1558 12.6575 14.5806 12.8699 14.7115 13.2628Z" fill="#333333" class='xian'/>
<path d="M15.5588 9.42782C15.3119 7.35784 12.4481 6.22982 11.4378 6.56026C10.4275 6.89071 11.5365 7.3882 12.1822 7.52116L12.1826 7.52123C12.8282 7.65417 13.4737 7.78708 13.7053 7.96935C13.937 8.15164 14.6321 8.69859 14.6814 9.11258C14.7308 9.52657 13.6068 9.22132 13.2329 9.01946C12.859 8.8176 11.9658 9.22655 12.1975 9.40885C12.4291 9.59115 13.7699 10.271 14.1839 10.2216C14.5979 10.1723 14.8296 10.3546 15.2929 10.7192C15.7563 11.0838 16.816 11.1673 16.7666 10.7534C16.7173 10.3394 15.7297 9.68736 15.5588 9.42782Z" fill="#92C0C5" class='mian'/>
<path fill-rule="evenodd" clip-rule="evenodd" d="M12.4192 6.82192C12.0228 6.73427 11.706 6.73555 11.5155 6.79787C11.3843 6.8408 11.2431 6.76921 11.2002 6.63798C11.1572 6.50675 11.2288 6.36557 11.3601 6.32265C11.6747 6.21975 12.0948 6.23811 12.5272 6.33371C12.9672 6.43101 13.4512 6.61516 13.9087 6.87688C14.7967 7.38484 15.6348 8.21636 15.7976 9.3272C15.8319 9.36482 15.8907 9.42127 15.9785 9.49916C16.0219 9.53761 16.0734 9.58222 16.1282 9.62973C16.2084 9.69929 16.2959 9.77508 16.3756 9.84692C16.5152 9.97266 16.6595 10.1108 16.7736 10.2486C16.8806 10.3778 16.9934 10.5439 17.0149 10.7238C17.0277 10.8316 17.0044 10.9373 16.9425 11.0272C16.8839 11.1126 16.8024 11.1672 16.7246 11.2021C16.5736 11.2698 16.3861 11.2861 16.2104 11.278C15.8588 11.2616 15.4226 11.1393 15.1383 10.9157C14.659 10.5385 14.5086 10.4347 14.2135 10.4699C14.0507 10.4893 13.8425 10.4388 13.6557 10.3794C13.4558 10.3158 13.2327 10.2257 13.02 10.1302C12.8065 10.0345 12.5989 9.93128 12.4289 9.83988C12.265 9.75171 12.1199 9.66594 12.0428 9.60532C11.9588 9.53915 11.8979 9.43355 11.9115 9.30524C11.9227 9.19858 11.9819 9.11937 12.0265 9.07175C12.1187 8.97339 12.2578 8.89483 12.3925 8.8391C12.5326 8.78111 12.6961 8.73616 12.8568 8.72066C13.0118 8.7057 13.1955 8.71518 13.3517 8.79947C13.5097 8.8848 13.8561 9.00376 14.1541 9.0499C14.2816 9.06965 14.3768 9.07208 14.436 9.06443C14.4563 8.96083 14.5413 8.87751 14.6518 8.86434C14.7889 8.84799 14.9133 8.94587 14.9297 9.08297C14.9428 9.19349 14.9173 9.30737 14.8377 9.39937C14.765 9.48335 14.6692 9.52331 14.5899 9.54339C14.4351 9.58266 14.2464 9.57015 14.0776 9.54402C13.7325 9.49057 13.3299 9.35597 13.1141 9.23944C13.0833 9.2228 13.0151 9.20771 12.9048 9.21835C12.8 9.22845 12.6847 9.25928 12.5837 9.30109C12.5647 9.30896 12.547 9.31687 12.5307 9.32468C12.5703 9.34735 12.6154 9.37245 12.6658 9.39953C12.8253 9.48534 13.0222 9.58322 13.2246 9.67403C13.4277 9.76515 13.632 9.84714 13.8072 9.90287C13.9954 9.96272 14.11 9.97867 14.1543 9.9734C14.6719 9.91165 14.9819 10.1559 15.4093 10.4926C15.4219 10.5026 15.4347 10.5126 15.4475 10.5227C15.6266 10.6637 15.952 10.7654 16.2337 10.7785C16.3645 10.7846 16.4576 10.7699 16.5089 10.7504C16.4938 10.7132 16.4591 10.6527 16.3886 10.5675C16.2983 10.4585 16.1758 10.3399 16.041 10.2184C15.9604 10.1459 15.8845 10.0802 15.8103 10.0159C15.7553 9.96832 15.7012 9.92152 15.6468 9.87326C15.5358 9.7748 15.4144 9.66315 15.35 9.56532L15.3175 9.51603L15.3105 9.45743C15.2004 8.5339 14.4998 7.79104 13.6604 7.31088C13.2448 7.07315 12.808 6.90788 12.4192 6.82192ZM14.4808 9.05428C14.4808 9.05429 14.4814 9.05404 14.4808 9.05428V9.05428Z" fill="#333333" class='xian'/>
<path fill-rule="evenodd" clip-rule="evenodd" d="M13.5511 7.60814C13.663 7.65173 13.7734 7.70485 13.8599 7.77288L13.8618 7.77439C13.9781 7.86591 14.2196 8.05594 14.4395 8.2783C14.55 8.3901 14.6604 8.51527 14.748 8.64519C14.8333 8.77172 14.9105 8.92245 14.9297 9.08297C14.946 9.22007 14.8481 9.34447 14.711 9.36082C14.5739 9.37717 14.4495 9.27928 14.4332 9.14218C14.4276 9.0957 14.3995 9.02282 14.3334 8.92467C14.2695 8.82991 14.1823 8.72933 14.084 8.62985C13.8872 8.4309 13.6668 8.25718 13.5507 8.16581C13.5213 8.14269 13.4641 8.11084 13.3697 8.07408C13.2783 8.03849 13.1653 8.00332 13.0343 7.96823C12.7718 7.89788 12.4567 7.83292 12.1318 7.76602C11.7935 7.69635 11.3106 7.52856 11.0344 7.31124C10.963 7.25505 10.8908 7.18443 10.8416 7.09775C10.7898 7.00643 10.7597 6.88818 10.7973 6.76053C10.8329 6.63929 10.918 6.55035 11.01 6.48604C11.1027 6.42131 11.221 6.36812 11.3601 6.32265C11.4913 6.27972 11.6325 6.35131 11.6754 6.48254C11.7183 6.61377 11.6467 6.75495 11.5155 6.79787C11.4131 6.83138 11.3477 6.86286 11.3083 6.88798C11.3176 6.89681 11.3292 6.90695 11.3436 6.9183C11.5308 7.06557 11.9253 7.213 12.2326 7.27629L12.2379 7.27737C12.557 7.34309 12.8856 7.41075 13.1637 7.48527C13.3039 7.52282 13.4361 7.56338 13.5511 7.60814Z" fill="#333333" class='xian'/>
</svg>
