<svg width="24" height="24" viewBox="0 0 24 24" fill="none" xmlns="http://www.w3.org/2000/svg">
<rect x="2" y="2" width="20" height="20" fill="white"/>
<path fill-rule="evenodd" clip-rule="evenodd" d="M9.93128 21.9477C9.79022 21.9947 9.63775 21.9185 9.59073 21.7774C9.49777 21.4986 9.29829 21.1755 9.01758 20.8284C8.73924 20.4843 8.39273 20.1307 8.02191 19.7908C7.28005 19.1107 6.45675 18.4999 5.92757 18.1471C5.80385 18.0646 5.77042 17.8975 5.8529 17.7737C5.93538 17.65 6.10254 17.6166 6.22626 17.6991C6.774 18.0642 7.61993 18.6918 8.38576 19.3938C8.76879 19.7449 9.13574 20.1183 9.43625 20.4898C9.73439 20.8585 9.97914 21.2399 10.1016 21.6072C10.1486 21.7482 10.0723 21.9007 9.93128 21.9477Z" fill="#333333" class='xian'/>
<path fill-rule="evenodd" clip-rule="evenodd" d="M6.31773 18.0435C6.25123 18.1765 6.08951 18.2304 5.95652 18.1639L6.07692 17.9231C5.95652 18.1639 5.95642 18.1638 5.95632 18.1638L5.95609 18.1637L5.95556 18.1634L5.95421 18.1627L5.95035 18.1607L5.93813 18.1543C5.92805 18.149 5.91419 18.1414 5.89707 18.1316C5.86287 18.1121 5.81549 18.0836 5.75931 18.0461C5.6474 17.9715 5.4981 17.8596 5.34808 17.7096C5.04951 17.411 4.73077 16.9427 4.73077 16.3077C4.73077 15.9976 4.80851 15.7427 4.99407 15.5714C5.17582 15.4036 5.40873 15.3654 5.60577 15.3654C5.80351 15.3654 6.01323 15.4045 6.18619 15.4374L6.19732 15.4396C6.37999 15.4744 6.51452 15.5 6.61538 15.5C6.76407 15.5 6.88461 15.6205 6.88461 15.7692C6.88461 15.9179 6.76407 16.0385 6.61538 16.0385C6.4614 16.0385 6.27975 16.0036 6.12271 15.9735C6.11012 15.9711 6.09769 15.9687 6.08544 15.9664C5.90503 15.932 5.74457 15.9038 5.60577 15.9038C5.46627 15.9038 5.39629 15.9329 5.35929 15.9671C5.3261 15.9977 5.26923 16.0793 5.26923 16.3077C5.26923 16.7496 5.48895 17.089 5.72883 17.3289C5.84805 17.4481 5.96798 17.5381 6.05799 17.5981C6.10277 17.628 6.13953 17.65 6.16422 17.6641C6.17655 17.6711 6.18582 17.6762 6.19152 17.6792L6.19731 17.6823L6.19732 17.6823L6.1975 17.6824" fill="#333333" class='xian'/>
<path fill-rule="evenodd" clip-rule="evenodd" d="M21.6923 18.7308C21.5436 18.7308 21.4231 18.6102 21.4231 18.4615L21.4231 16.6381C20.5924 16.7889 18.8311 17.0079 16.99 17.1511C15.9111 17.2351 14.7964 17.2937 13.8139 17.2974C12.8386 17.301 11.9699 17.2508 11.3962 17.1074C10.2422 16.8188 9.65914 16.2336 9.17238 15.6773C9.1272 15.6257 9.08316 15.5748 9.03984 15.5247C8.61757 15.0366 8.26425 14.6283 7.60716 14.4093C7.22672 14.2825 7.12342 14.3558 7.1024 14.3755C7.05937 14.4158 7.01922 14.5239 7.01922 14.7596C7.01922 14.8663 7.02687 14.9791 7.03535 15.0968L7.03684 15.1173C7.0446 15.2245 7.05288 15.339 7.05288 15.4411C7.05288 15.5428 7.04578 15.6731 6.99675 15.7854C6.97008 15.8466 6.92617 15.9138 6.85408 15.9649C6.77993 16.0174 6.69614 16.0385 6.61538 16.0385C6.46669 16.0385 6.34615 15.9179 6.34615 15.7692C6.34615 15.6574 6.41431 15.5615 6.51135 15.5208C6.51331 15.4994 6.51442 15.473 6.51442 15.4411C6.51442 15.3591 6.50746 15.2627 6.49915 15.1475L6.49829 15.1355C6.48994 15.0197 6.48076 14.8885 6.48076 14.7596C6.48076 14.5242 6.50792 14.1947 6.73412 13.9827C6.98233 13.75 7.35019 13.756 7.77744 13.8984C8.58156 14.1665 9.02853 14.6857 9.44386 15.1682C9.48868 15.2202 9.53312 15.2719 9.57761 15.3227C10.0332 15.8433 10.527 16.335 11.5268 16.585C12.0301 16.7108 12.8402 16.7625 13.8119 16.7589C14.7765 16.7553 15.8771 16.6977 16.9482 16.6143C19.0993 16.4469 21.0976 16.1789 21.627 16.0465C21.7074 16.0264 21.7926 16.0445 21.858 16.0955C21.9233 16.1465 21.9615 16.2248 21.9615 16.3077L21.9615 18.4615C21.9615 18.6102 21.841 18.7308 21.6923 18.7308Z" fill="#333333" class='xian'/>
<path fill-rule="evenodd" clip-rule="evenodd" d="M12.2656 21.7366C12.2439 21.8664 12.1316 21.9615 12 21.9615L9.84615 21.9615C9.69746 21.9615 9.57692 21.841 9.57692 21.6923C9.57692 21.5436 9.69746 21.4231 9.84615 21.4231L11.785 21.4231C12.0189 20.602 12.7438 20.0105 13.6238 19.5824C14.5913 19.1117 15.815 18.8036 17.0026 18.6C18.1937 18.3958 19.3654 18.2941 20.2379 18.2432C20.6746 18.2178 21.0373 18.2051 21.2912 18.1987C21.4181 18.1955 21.5179 18.1939 21.5862 18.1931L21.6645 18.1924L21.6849 18.1923L21.6903 18.1923L21.6917 18.1923C21.6918 18.1923 21.6923 18.1923 21.6923 18.4615L21.6923 18.7308L21.6864 18.7308L21.6676 18.7309L21.5925 18.7315C21.5265 18.7323 21.4291 18.7339 21.3047 18.737C21.0558 18.7432 20.6992 18.7557 20.2693 18.7808C19.4086 18.8309 18.2583 18.9311 17.0936 19.1307C15.9254 19.331 14.7597 19.6286 13.8594 20.0666C12.95 20.509 12.3782 21.0605 12.2656 21.7366ZM21.6923 18.4615L21.6923 18.7308C21.841 18.7308 21.9615 18.6102 21.9615 18.4615C21.9615 18.3128 21.8404 18.1923 21.6917 18.1923L21.6923 18.4615Z" fill="#333333" class='xian'/>
<path d="M8.23077 10.9231C6.61539 9.30769 3.92308 9.30769 2.30769 9.30769V2.30769H21.6923V14.6923C21.6923 14.6923 14.1538 14.1538 11.4615 15.7692C8.76923 17.3846 7.15385 21.6923 6.61539 21.6923H2.30769V19.5385C4.03077 19.5385 7.69231 18.4615 8.76923 16.3077C9.84615 14.1538 9.84615 12.5385 8.23077 10.9231Z" fill="#666666" class='mian'/>
<path fill-rule="evenodd" clip-rule="evenodd" d="M2.03847 2.03847H21.9615V14.9815L21.6731 14.9609L21.672 14.9608L21.6682 14.9605L21.6525 14.9594L21.5899 14.9553C21.5348 14.9518 21.4533 14.9469 21.3484 14.9412C21.1387 14.9297 20.8356 14.915 20.4633 14.9025C19.7184 14.8774 18.698 14.8607 17.5947 14.8941C16.4906 14.9276 15.3086 15.0111 14.2392 15.1852C13.1634 15.3603 12.2285 15.6231 11.6001 16.0001C10.3132 16.7722 9.26479 18.2035 8.45841 19.4803C8.25827 19.7972 8.07453 20.102 7.90643 20.3825C7.88423 20.4196 7.86227 20.4562 7.84057 20.4925C7.69868 20.7295 7.5676 20.9484 7.44921 21.1371C7.31387 21.3528 7.18795 21.5407 7.07448 21.6766C7.01798 21.7443 6.95684 21.8086 6.89179 21.858C6.83137 21.9038 6.73567 21.9615 6.61539 21.9615H2.03847V19.2692H2.3077C3.12648 19.2692 4.43672 19.0101 5.67536 18.483C6.92004 17.9534 8.0328 17.1786 8.52843 16.1873C9.05693 15.1303 9.30313 14.2395 9.24118 13.4341C9.17993 12.6379 8.81426 11.8873 8.0404 11.1135C7.286 10.3591 6.26862 9.97093 5.21962 9.77424C4.17071 9.57757 3.11768 9.57693 2.3077 9.57693H2.03847V2.03847ZM21.4231 14.406V2.57693H2.57693V9.0387C3.34949 9.04072 4.33253 9.06007 5.31885 9.245C6.4237 9.45216 7.56017 9.87173 8.42115 10.7327C9.26267 11.5742 9.70469 12.4391 9.77806 13.3928C9.85072 14.3374 9.55847 15.3313 9.01004 16.4281C8.42875 17.5907 7.17228 18.4312 5.88619 18.9785C4.7164 19.4763 3.47291 19.7524 2.57693 19.8002V21.4231H6.57373C6.59314 21.407 6.6221 21.3783 6.66111 21.3315C6.74956 21.2256 6.85922 21.0643 6.9931 20.8509C7.10827 20.6674 7.23607 20.4539 7.37838 20.2162C7.4001 20.18 7.42215 20.1431 7.44455 20.1058C7.61298 19.8247 7.79944 19.5153 8.00314 19.1928C8.81214 17.9119 9.91763 16.3816 11.323 15.5384C12.0408 15.1077 13.0577 14.832 14.1527 14.6537C15.2539 14.4745 16.4614 14.3897 17.5784 14.3559C18.6963 14.322 19.7287 14.339 20.4814 14.3643C20.8579 14.377 21.1648 14.3918 21.3778 14.4035C21.3934 14.4044 21.4085 14.4052 21.4231 14.406Z" fill="#333333" class='xian'/>
<path d="M10.1356 7.62418C14.0495 7.21522 11.0675 4.21618 7.89905 2.30769H2.30769V5.17042C3.42596 8.03314 9.02529 7.74019 10.1356 7.62418Z" fill="white"/>
<path fill-rule="evenodd" clip-rule="evenodd" d="M2.03847 2.03847H7.97388L8.03797 2.07707C9.62919 3.03553 11.2136 4.28933 11.9013 5.38515C12.241 5.92647 12.4173 6.52249 12.1137 7.02796C11.8217 7.51414 11.1543 7.78844 10.1636 7.89196C9.59529 7.95134 7.89215 8.05537 6.18186 7.78014C5.32659 7.6425 4.45517 7.40785 3.71969 7.01538C2.98241 6.62194 2.36663 6.06123 2.05692 5.26838L2.03847 5.22114V2.03847ZM2.57693 2.57693V5.11829C2.83223 5.73383 3.32732 6.19566 3.97319 6.54032C4.6368 6.89444 5.44428 7.11605 6.26741 7.24852C7.91393 7.51349 9.5656 7.41305 10.1076 7.35641C11.0739 7.25545 11.5015 7.00151 11.6521 6.75071C11.7912 6.51919 11.7578 6.16949 11.4452 5.67138C10.8366 4.70158 9.37745 3.5207 7.82396 2.57693H2.57693Z" fill="#333333" class='xian'/>
<path d="M12.3244 9.32126C13.7523 6.28393 19.5332 4.86651 21.6923 4.46153V12.9661H21.1525C14.2432 13.452 10.8966 12.3586 12.3244 9.32126Z" fill="white"/>
<path fill-rule="evenodd" clip-rule="evenodd" d="M21.9615 4.13712L21.6427 4.19692C20.5535 4.40121 18.5485 4.86103 16.6311 5.65555C14.7303 6.44316 12.8411 7.58939 12.0808 9.20673C11.7057 10.0047 11.6201 10.7268 11.8819 11.3454C12.1424 11.9611 12.7186 12.4061 13.5144 12.7158C15.0956 13.3312 17.7099 13.4775 21.162 13.2353H21.9615V4.13712ZM21.4231 4.78829V12.6968H21.1431L21.1336 12.6975C17.6811 12.9403 15.1707 12.7826 13.7097 12.214C12.9837 11.9315 12.559 11.564 12.3778 11.1356C12.1977 10.71 12.2293 10.1565 12.5681 9.43581C13.2356 8.01582 14.9508 6.93467 16.8372 6.15299C18.5341 5.44984 20.3095 5.01305 21.4231 4.78829Z" fill="#333333" class='xian'/>
<path d="M19.5385 2.30769H13.0769C13.0769 3.97078 14.1864 6.25027 18.4615 3.14921C18.8003 2.90348 19.1589 2.62397 19.5385 2.30769Z" fill="white"/>
<path fill-rule="evenodd" clip-rule="evenodd" d="M12.8077 2.03847H20.2821L19.7108 2.51453C19.3272 2.83423 18.9638 3.1175 18.6196 3.36714C16.4725 4.92459 15.0081 5.21838 14.0494 4.75767C13.0921 4.29759 12.8077 3.16814 12.8077 2.3077V2.03847ZM13.3564 2.57693C13.4114 3.29163 13.6908 3.98789 14.2827 4.27235C14.9476 4.59189 16.1754 4.47489 18.3035 2.93128C18.4563 2.8204 18.6135 2.70238 18.7751 2.57693H13.3564Z" fill="#333333" class='xian'/>
<path d="M19.7493 7.92611C20.0731 8.65 19.4554 9.63061 18.3696 10.1164C17.2837 10.6021 16.141 10.409 15.8171 9.68514C15.4933 8.96125 16.111 7.98065 17.1969 7.4949C18.2827 7.00916 19.4255 7.20221 19.7493 7.92611Z" fill="white"/>
<path fill-rule="evenodd" clip-rule="evenodd" d="M16.2062 8.64422C15.9873 8.99163 15.9492 9.321 16.0629 9.57521C16.1766 9.82942 16.4476 10.0205 16.8524 10.0889C17.2551 10.1569 17.7584 10.0948 18.2596 9.87059C18.7608 9.6464 19.1426 9.31253 19.3603 8.96703C19.5791 8.61963 19.6173 8.29026 19.5035 8.03605C19.3898 7.78184 19.1188 7.59076 18.714 7.52236C18.3114 7.45434 17.808 7.51647 17.3068 7.74066C16.8056 7.96486 16.4238 8.29873 16.2062 8.64422ZM15.7506 8.35722C16.0323 7.91 16.5023 7.51069 17.0869 7.24914C17.6716 6.98759 18.2825 6.90338 18.8037 6.99142C19.3226 7.07909 19.7849 7.34648 19.9951 7.81617C20.2052 8.28585 20.0964 8.80873 19.8159 9.25404C19.5341 9.70126 19.0642 10.1006 18.4795 10.3621C17.8948 10.6237 17.2839 10.7079 16.7627 10.6198C16.2438 10.5322 15.7815 10.2648 15.5714 9.79509C15.3613 9.3254 15.47 8.80252 15.7506 8.35722Z" fill="#333333" class='xian'/>
<path d="M18.4386 8.51245C18.5196 8.69343 18.2918 8.97139 17.9298 9.13331C17.5679 9.29522 17.2088 9.27977 17.1279 9.0988C17.0469 8.91783 17.2747 8.63986 17.6367 8.47795C17.9986 8.31603 18.3576 8.33148 18.4386 8.51245Z" fill="#333333" class='xian'/>
<path d="M8.94394 5.42377C8.75672 5.9883 7.91848 6.21829 7.07168 5.93746C6.22488 5.65663 5.69019 4.97132 5.87741 4.40679C6.06463 3.84226 6.90287 3.61227 7.74967 3.8931C8.59647 4.17393 9.13116 4.85924 8.94394 5.42377Z" fill="white"/>
<path fill-rule="evenodd" clip-rule="evenodd" d="M6.63743 4.09258C6.35441 4.17023 6.18941 4.32131 6.13296 4.49155C6.0765 4.66179 6.11852 4.88152 6.29906 5.1129C6.4782 5.34251 6.77645 5.5559 7.15643 5.68192C7.53642 5.80794 7.90308 5.81505 8.18392 5.738C8.46694 5.66034 8.63194 5.50927 8.6884 5.33903C8.74486 5.16879 8.70283 4.94906 8.5223 4.71767C8.34316 4.48807 8.04491 4.27467 7.66492 4.14865C7.28494 4.02264 6.91828 4.01552 6.63743 4.09258ZM6.49496 3.57331C6.89175 3.46444 7.36761 3.48275 7.83442 3.63757C8.30123 3.79238 8.69373 4.06205 8.94683 4.38644C9.19854 4.70905 9.33025 5.11423 9.19949 5.50853C9.06873 5.90282 8.72099 6.149 8.32639 6.25727C7.92961 6.36613 7.45375 6.34782 6.98694 6.19301C6.52012 6.0382 6.12762 5.76852 5.87452 5.44413C5.62282 5.12153 5.4911 4.71634 5.62187 4.32205C5.75263 3.92776 6.10036 3.68157 6.49496 3.57331Z" fill="#333333" class='xian'/>
<path d="M7.92179 5.0848C7.87498 5.22594 7.60822 5.26446 7.32595 5.17085C7.04369 5.07724 6.85281 4.88694 6.89961 4.74581C6.94642 4.60468 7.21318 4.56615 7.49545 4.65976C7.77772 4.75337 7.96859 4.94367 7.92179 5.0848Z" fill="#333333" class='xian'/>
<path d="M5.04361 10.8525C5.63318 10.774 6.20657 11.4273 6.32433 12.3116C6.44209 13.196 6.05961 13.9765 5.47004 14.055C4.88048 14.1335 4.30708 13.4802 4.18933 12.5959C4.07157 11.7115 4.45405 10.931 5.04361 10.8525Z" fill="white"/>
<path fill-rule="evenodd" clip-rule="evenodd" d="M4.8551 13.5089C5.0487 13.7295 5.25672 13.8118 5.43451 13.7881C5.6123 13.7645 5.79153 13.6306 5.92067 13.367C6.04881 13.1055 6.1103 12.744 6.05746 12.3471C6.00462 11.9503 5.85067 11.6175 5.65856 11.3986C5.46496 11.178 5.25694 11.0957 5.07915 11.1194C4.90136 11.143 4.72213 11.2769 4.59299 11.5405C4.46485 11.802 4.40336 12.1635 4.4562 12.5604C4.50904 12.9572 4.66299 13.29 4.8551 13.5089ZM4.45042 13.8641C4.179 13.5549 3.98737 13.1189 3.92245 12.6314C3.85754 12.1439 3.92842 11.673 4.10946 11.3035C4.28951 10.9361 4.5963 10.6405 5.00808 10.5856C5.41985 10.5308 5.79332 10.7359 6.06324 11.0434C6.33466 11.3526 6.52629 11.7886 6.59121 12.2761C6.65612 12.7636 6.58524 13.2345 6.4042 13.604C6.22415 13.9714 5.91736 14.267 5.50558 14.3219C5.0938 14.3767 4.72034 14.1716 4.45042 13.8641Z" fill="#333333" class='xian'/>
<path d="M5.18577 11.92C5.33316 11.9003 5.48446 12.1234 5.52371 12.4182C5.56297 12.713 5.4753 12.9678 5.32791 12.9875C5.18052 13.0071 5.02922 12.784 4.98996 12.4893C4.95071 12.1945 5.03838 11.9396 5.18577 11.92Z" fill="#333333" class='xian'/>
<path fill-rule="evenodd" clip-rule="evenodd" d="M1.5 2.30769C1.5 1.86162 1.86162 1.5 2.30769 1.5H21.6923C22.1384 1.5 22.5 1.86162 22.5 2.30769V21.6923C22.5 22.1384 22.1384 22.5 21.6923 22.5H2.30769C1.86162 22.5 1.5 22.1384 1.5 21.6923V2.30769ZM3.11538 3.11538V20.8846H20.8846V3.11538H3.11538Z" fill="#333333" class='xian'/>
<path d="M10.3846 19C10.3846 19.2974 10.1435 19.5385 9.84616 19.5385C9.54877 19.5385 9.30769 19.2974 9.30769 19C9.30769 18.7026 9.54877 18.4615 9.84616 18.4615C10.1435 18.4615 10.3846 18.7026 10.3846 19Z" fill="#333333" class='xian'/>
<path d="M12 20.0769C12 20.3743 11.7589 20.6154 11.4615 20.6154C11.1642 20.6154 10.9231 20.3743 10.9231 20.0769C10.9231 19.7795 11.1642 19.5385 11.4615 19.5385C11.7589 19.5385 12 19.7795 12 20.0769Z" fill="#333333" class='xian'/>
<path d="M13.0769 18.4615C13.0769 18.7589 12.8358 19 12.5385 19C12.2411 19 12 18.7589 12 18.4615C12 18.1642 12.2411 17.9231 12.5385 17.9231C12.8358 17.9231 13.0769 18.1642 13.0769 18.4615Z" fill="#333333" class='xian'/>
<path d="M15.2308 18.1923C15.2308 18.4897 14.9897 18.7308 14.6923 18.7308C14.3949 18.7308 14.1538 18.4897 14.1538 18.1923C14.1538 17.8949 14.3949 17.6538 14.6923 17.6538C14.9897 17.6538 15.2308 17.8949 15.2308 18.1923Z" fill="#333333" class='xian'/>
<path d="M20.0769 17.6538C20.0769 17.9512 19.8358 18.1923 19.5385 18.1923C19.2411 18.1923 19 17.9512 19 17.6538C19 17.3565 19.2411 17.1154 19.5385 17.1154C19.8358 17.1154 20.0769 17.3565 20.0769 17.6538Z" fill="#333333" class='xian'/>
<path d="M17.3846 17.9231C17.3846 18.2205 17.1435 18.4615 16.8462 18.4615C16.5488 18.4615 16.3077 18.2205 16.3077 17.9231C16.3077 17.6257 16.5488 17.3846 16.8462 17.3846C17.1435 17.3846 17.3846 17.6257 17.3846 17.9231Z" fill="#333333" class='xian'/>
<path fill-rule="evenodd" clip-rule="evenodd" d="M11.4056 13.6382C11.2722 13.8018 11.2286 13.9721 11.2731 14.1165C11.3176 14.2608 11.4495 14.3771 11.6518 14.4372C11.8533 14.4971 12.1124 14.4964 12.3791 14.4142C12.6458 14.332 12.8603 14.1867 12.9931 14.0238C13.1264 13.8602 13.17 13.6898 13.1256 13.5455C13.0811 13.4012 12.9491 13.2849 12.7468 13.2248C12.5453 13.1649 12.2863 13.1656 12.0196 13.2478C11.7529 13.33 11.5383 13.4753 11.4056 13.6382ZM11.2386 13.5021C11.4018 13.3019 11.6545 13.135 11.9561 13.042C12.2578 12.949 12.5606 12.9447 12.8082 13.0183C13.0549 13.0917 13.2591 13.2475 13.3314 13.4821C13.4037 13.7166 13.3226 13.9604 13.1601 14.1599C12.9969 14.3601 12.7442 14.527 12.4425 14.62C12.1408 14.713 11.838 14.7173 11.5904 14.6437C11.3438 14.5703 11.1396 14.4145 11.0673 14.1799C10.995 13.9453 11.076 13.7016 11.2386 13.5021Z" fill="#333333" class='xian'/>
<path fill-rule="evenodd" clip-rule="evenodd" d="M11.8215 13.8337C11.746 13.9059 11.743 13.9535 11.7481 13.9701C11.7532 13.9866 11.7825 14.0243 11.8856 14.0414C11.9816 14.0574 12.1125 14.0484 12.253 14.0051C12.3935 13.9618 12.5068 13.8955 12.5772 13.8283C12.6527 13.7561 12.6557 13.7084 12.6506 13.6919C12.6455 13.6754 12.6162 13.6377 12.5131 13.6205C12.4171 13.6046 12.2862 13.6135 12.1457 13.6568C12.0052 13.7002 11.8919 13.7665 11.8215 13.8337ZM11.6727 13.678C11.772 13.5831 11.9167 13.502 12.0822 13.451C12.2478 13.4 12.413 13.3856 12.5484 13.4081C12.6768 13.4294 12.8143 13.492 12.8564 13.6285C12.8985 13.765 12.82 13.8941 12.726 13.984C12.6267 14.0789 12.482 14.1599 12.3165 14.211C12.1509 14.262 11.9857 14.2764 11.8503 14.2539C11.7219 14.2326 11.5844 14.17 11.5423 14.0335C11.5002 13.897 11.5787 13.7679 11.6727 13.678Z" fill="#333333" class='xian'/>
<path fill-rule="evenodd" clip-rule="evenodd" d="M12.9649 4.92348C12.7539 4.91689 12.5921 4.98568 12.5045 5.10868C12.4168 5.23168 12.4046 5.40707 12.4796 5.60436C12.5544 5.8008 12.7123 6.00619 12.9395 6.16817C13.1668 6.33016 13.4125 6.41241 13.6226 6.41897C13.8335 6.42556 13.9953 6.35677 14.083 6.23377C14.1707 6.11077 14.1829 5.93538 14.1078 5.73809C14.0331 5.54165 13.8752 5.33626 13.6479 5.17428C13.4207 5.01229 13.175 4.93004 12.9649 4.92348ZM12.9716 4.7082C13.2298 4.71626 13.5159 4.81566 13.7729 4.99888C14.03 5.1821 14.2173 5.42012 14.3091 5.6615C14.4007 5.90204 14.4009 6.15889 14.2584 6.35878C14.1159 6.55867 13.8731 6.64228 13.6158 6.63425C13.3577 6.62619 13.0716 6.52679 12.8145 6.34357C12.5575 6.16034 12.3702 5.92233 12.2783 5.68095C12.1868 5.44041 12.1866 5.18356 12.3291 4.98367C12.4715 4.78378 12.7144 4.70016 12.9716 4.7082Z" fill="#333333" class='xian'/>
<path fill-rule="evenodd" clip-rule="evenodd" d="M13.0621 5.37271C12.9589 5.35652 12.9193 5.38311 12.9092 5.3972C12.8992 5.41128 12.887 5.4574 12.936 5.54972C12.9816 5.63568 13.0682 5.7343 13.188 5.81964C13.3077 5.90497 13.4292 5.95469 13.5253 5.96977C13.6286 5.98596 13.6682 5.95937 13.6782 5.94528C13.6883 5.9312 13.7005 5.88508 13.6515 5.79276C13.6059 5.7068 13.5192 5.60818 13.3995 5.52284C13.2798 5.43751 13.1583 5.38779 13.0621 5.37271ZM13.0955 5.15993C13.2312 5.18121 13.3835 5.24691 13.5245 5.34745C13.6656 5.44798 13.7774 5.57049 13.8417 5.69179C13.9027 5.80672 13.9365 5.95399 13.8536 6.0703C13.7707 6.1866 13.6205 6.20271 13.4919 6.18255C13.3563 6.16127 13.204 6.09557 13.063 5.99503C12.9219 5.8945 12.8101 5.77199 12.7457 5.65069C12.6847 5.53576 12.651 5.38849 12.7339 5.27219C12.8167 5.15588 12.967 5.13977 13.0955 5.15993Z" fill="#333333" class='xian'/>
<path fill-rule="evenodd" clip-rule="evenodd" d="M9.73414 9.23119C9.52316 9.2246 9.36135 9.29339 9.27369 9.41639C9.18602 9.53939 9.17378 9.71478 9.24885 9.91207C9.32359 10.1085 9.48149 10.3139 9.70876 10.4759C9.93603 10.6379 10.1817 10.7201 10.3918 10.7267C10.6028 10.7333 10.7646 10.6645 10.8522 10.5415C10.9399 10.4185 10.9521 10.2431 10.8771 10.0458C10.8023 9.84936 10.6444 9.64397 10.4172 9.48198C10.1899 9.32 9.94421 9.23775 9.73414 9.23119ZM9.74086 9.01591C9.999 9.02397 10.2851 9.12337 10.5422 9.30659C10.7992 9.48981 10.9865 9.72782 11.0784 9.96921C11.1699 10.2097 11.1701 10.4666 11.0276 10.6665C10.8852 10.8664 10.6423 10.95 10.3851 10.942C10.1269 10.9339 9.84082 10.8345 9.58375 10.6513C9.32668 10.4681 9.13938 10.23 9.04754 9.98866C8.95602 9.74812 8.95582 9.49127 9.09829 9.29138C9.24076 9.09149 9.48363 9.00787 9.74086 9.01591Z" fill="#333333" class='xian'/>
<path fill-rule="evenodd" clip-rule="evenodd" d="M9.83138 9.68042C9.72812 9.66423 9.68851 9.69082 9.67847 9.70491C9.66843 9.71899 9.65621 9.76511 9.70521 9.85743C9.75083 9.94339 9.83746 10.042 9.95719 10.1273C10.0769 10.2127 10.1984 10.2624 10.2945 10.2775C10.3978 10.2937 10.4374 10.2671 10.4475 10.253C10.4575 10.2389 10.4697 10.1928 10.4207 10.1005C10.3751 10.0145 10.2885 9.91589 10.1687 9.83055C10.049 9.74522 9.92752 9.6955 9.83138 9.68042ZM9.86475 9.46764C10.0004 9.48892 10.1527 9.55462 10.2937 9.65516C10.4348 9.75569 10.5466 9.8782 10.611 9.9995C10.672 10.1144 10.7057 10.2617 10.6228 10.378C10.54 10.4943 10.3897 10.5104 10.2612 10.4903C10.1255 10.469 9.97324 10.4033 9.83218 10.3027C9.69113 10.2022 9.57933 10.0797 9.51496 9.9584C9.45396 9.84347 9.42018 9.6962 9.50308 9.57989C9.58597 9.46359 9.7362 9.44748 9.86475 9.46764Z" fill="#333333" class='xian'/>
<path fill-rule="evenodd" clip-rule="evenodd" d="M5.19552 19.7673C5.08278 19.9458 5.05993 20.1201 5.12143 20.2581C5.18292 20.396 5.32784 20.4956 5.53593 20.531C5.74312 20.5663 6.00024 20.5345 6.25515 20.4209C6.51006 20.3072 6.70561 20.1373 6.81787 19.9596C6.93062 19.7812 6.95346 19.6068 6.89196 19.4689C6.83047 19.3309 6.68555 19.2314 6.47746 19.1959C6.27027 19.1606 6.01316 19.1925 5.75825 19.3061C5.50333 19.4197 5.30779 19.5897 5.19552 19.7673ZM5.01344 19.6523C5.15139 19.434 5.38222 19.2379 5.67056 19.1094C5.95889 18.9808 6.25903 18.9402 6.51363 18.9836C6.76734 19.0268 6.98876 19.157 7.08869 19.3812C7.18863 19.6054 7.13742 19.8571 6.99996 20.0747C6.862 20.293 6.63117 20.4891 6.34284 20.6176C6.0545 20.7461 5.75437 20.7867 5.49977 20.7434C5.24606 20.7001 5.02464 20.57 4.9247 20.3458C4.82477 20.1216 4.87597 19.8699 5.01344 19.6523Z" fill="#333333" class='xian'/>
<path fill-rule="evenodd" clip-rule="evenodd" d="M5.63196 19.9115C5.56561 19.9923 5.56842 20.0399 5.57546 20.0557C5.58251 20.0715 5.61605 20.1054 5.72046 20.1101C5.81768 20.1144 5.94662 20.0898 6.08091 20.0299C6.21521 19.9701 6.3197 19.8906 6.38148 19.8154C6.44784 19.7347 6.44502 19.687 6.43798 19.6712C6.43094 19.6554 6.3974 19.6215 6.29298 19.6169C6.19576 19.6126 6.06682 19.6372 5.93253 19.697C5.79824 19.7569 5.69375 19.8363 5.63196 19.9115ZM5.46555 19.7748C5.55274 19.6687 5.68663 19.5708 5.84484 19.5003C6.00305 19.4298 6.16535 19.3956 6.30253 19.4017C6.43252 19.4075 6.57656 19.4531 6.63471 19.5836C6.69285 19.714 6.6305 19.8516 6.54789 19.9522C6.46071 20.0583 6.32681 20.1561 6.1686 20.2266C6.01039 20.2972 5.8481 20.3313 5.71091 20.3252C5.58092 20.3195 5.43689 20.2738 5.37874 20.1434C5.32059 20.0129 5.38295 19.8753 5.46555 19.7748Z" fill="#333333" class='xian'/>
</svg>
