<svg width="24" height="24" viewBox="0 0 24 24" fill="none" xmlns="http://www.w3.org/2000/svg">
<path d="M16 10.3334L8 7.66669L13 6L21 8.51516L16 10.3334Z" fill="#A3A399" class='mian'/>
<path d="M12 12.3334L4 9.66669L9 8L17 10.5152L12 12.3334Z" fill="#A1A1A1" class='mian'/>
<path d="M2 19V12L11 15L22 11V18L11 22L2 19Z" fill="#DCDADA" class='mian'/>
<path d="M3 12.5V9.5L11 12L21 8.5V11.5L11 15L3 12.5Z" fill="#878682" class='mian'/>
<path fill-rule="evenodd" clip-rule="evenodd" d="M1.56147 11.3916C1.75704 11.2506 2.00846 11.2123 2.23717 11.2885L11.2372 14.2885C11.5434 14.3906 11.75 14.6772 11.75 15L11.75 22C11.75 22.2411 11.6341 22.4675 11.4386 22.6084C11.243 22.7494 10.9916 22.7878 10.7629 22.7115L1.76285 19.7115C1.45659 19.6094 1.25002 19.3228 1.25002 19L1.25 12C1.25 11.7589 1.36589 11.5325 1.56147 11.3916ZM2.75 13.0406L2.75002 18.4594L10.25 20.9594L10.25 15.5406L2.75 13.0406Z" fill="#333333" class='xian'/>
<path d="M8 7.5L12 2L19 4L16 10L8 7.5Z" fill="#878682" class='mian'/>
<path fill-rule="evenodd" clip-rule="evenodd" d="M11.3873 1.56753C11.5683 1.31106 11.8899 1.19448 12.1932 1.27537L19.6932 3.27537C19.9176 3.3352 20.1016 3.49559 20.1915 3.7097C20.2814 3.92381 20.2671 4.16748 20.1527 4.36956L18.7161 6.90685L21.2125 7.64443C21.5231 7.73619 21.7397 8.01694 21.7496 8.34064C21.7596 8.66433 21.5607 8.95786 21.2563 9.06854L11.2563 12.7049C11.0973 12.7628 10.9234 12.7651 10.7628 12.7116L2.76283 10.0449C2.45657 9.94285 2.25 9.65625 2.25 9.33343C2.25 9.0106 2.45657 8.724 2.76283 8.62191L7.52926 7.03308L11.3873 1.56753ZM8.00676 8.45505L5.37169 9.33342L10.9893 11.2059L13.6635 10.2335L8.00676 8.45505ZM17.6543 8.78228L18.6026 8.43742L17.9575 8.24681L17.6543 8.78228ZM15.6462 9.28448L18.3694 4.47475L12.3115 2.85932L9.20546 7.25953L15.6462 9.28448Z" fill="#333333" class='xian'/>
<path fill-rule="evenodd" clip-rule="evenodd" d="M17.2387 8.09959L9.42871 5.77959L9.57109 5.30029L17.3811 7.62029L17.2387 8.09959Z" fill="#333333" class='xian'/>
<path fill-rule="evenodd" clip-rule="evenodd" d="M22.4303 10.3857C22.6307 10.5261 22.75 10.7553 22.75 11V18C22.75 18.3154 22.5527 18.5971 22.2563 18.7048L11.2563 22.7049C11.0264 22.7885 10.7701 22.7547 10.5697 22.6143C10.3693 22.4739 10.25 22.2447 10.25 22V15C10.25 14.6846 10.4473 14.4029 10.7437 14.2952L21.7437 10.2952C21.9736 10.2115 22.2299 10.2453 22.4303 10.3857ZM11.75 15.5253V20.9292L21.25 17.4747V12.0708L11.75 15.5253Z" fill="#333333" class='xian'/>
<path fill-rule="evenodd" clip-rule="evenodd" d="M3 8.59998C3.41421 8.59998 3.75 8.93576 3.75 9.34998V12.1H2.25V9.34998C2.25 8.93576 2.58579 8.59998 3 8.59998Z" fill="#333333" class='xian'/>
<path fill-rule="evenodd" clip-rule="evenodd" d="M11 11.25C11.4142 11.25 11.75 11.5858 11.75 12V14.75H10.25V12C10.25 11.5858 10.5858 11.25 11 11.25Z" fill="#333333" class='xian'/>
<path fill-rule="evenodd" clip-rule="evenodd" d="M21 7.65002C21.4142 7.65002 21.75 7.98581 21.75 8.40002V11.15H20.25V8.40002C20.25 7.98581 20.5858 7.65002 21 7.65002Z" fill="#333333" class='xian'/>
<path d="M8.67094 19.3903L6.34189 18.614C6.13772 18.5459 6 18.3549 6 18.1396V17.3469C6 17.1762 6.16717 17.0557 6.32906 17.1097L8.65811 17.8861C8.86228 17.9541 9 18.1452 9 18.3604V19.1532C9 19.3238 8.83283 19.4443 8.67094 19.3903Z" fill="#878682" class='mian'/>
<path fill-rule="evenodd" clip-rule="evenodd" d="M5.75 17.3468C5.75 17.0055 6.08435 16.7646 6.40811 16.8725L8.73717 17.6488C9.04343 17.7509 9.25 18.0375 9.25 18.3603V19.1531C9.25 19.4944 8.91565 19.7354 8.59189 19.6274L6.26283 18.8511C5.95657 18.749 5.75 18.4624 5.75 18.1396V17.3468ZM8.57906 18.1232L6.25 17.3468V18.1396C6.25 18.2472 6.31886 18.3427 6.42094 18.3768L8.75 19.1531V18.3603C8.75 18.2527 8.68114 18.1572 8.57906 18.1232Z" fill="#333333" class='xian'/>
<path d="M13.25 7.65002C13.25 7.7881 13.1381 7.90002 13 7.90002C12.8619 7.90002 12.75 7.7881 12.75 7.65002C12.75 7.51195 12.8619 7.40002 13 7.40002C13.1381 7.40002 13.25 7.51195 13.25 7.65002Z" fill="#333333" class='xian'/>
</svg>
