<svg width="24" height="24" viewBox="0 0 24 24" fill="none" xmlns="http://www.w3.org/2000/svg">
<path d="M16 8.33336L8 5.66669L13 4L21 6.51516L16 8.33336Z" fill="#A3A399" class='mian'/>
<path d="M12 10.3334L4 7.66669L9 6L17 8.51516L12 10.3334Z" fill="#C8C8C8" class='mian'/>
<path d="M2 17V10L11 13L22 9V16L11 20L2 17Z" fill="#DCDADA" class='mian'/>
<path d="M3 10.5V7.5L11 10L21 6.5V9.5L11 13L3 10.5Z" fill="#878682" class='mian'/>
<path fill-rule="evenodd" clip-rule="evenodd" d="M1.56147 9.39157C1.75704 9.25061 2.00846 9.21226 2.23717 9.28849L11.2372 12.2885C11.5434 12.3906 11.75 12.6772 11.75 13L11.75 20C11.75 20.2411 11.6341 20.4675 11.4386 20.6084C11.243 20.7494 10.9916 20.7878 10.7629 20.7115L1.76285 17.7115C1.45659 17.6094 1.25002 17.3228 1.25002 17L1.25 10C1.25 9.75892 1.36589 9.53254 1.56147 9.39157ZM2.75 11.0406L2.75002 16.4594L10.25 18.9594L10.25 13.5406L2.75 11.0406Z" fill="#333333" class='xian'/>
<path fill-rule="evenodd" clip-rule="evenodd" d="M12.7628 3.28849C12.9084 3.23996 13.0654 3.23726 13.2125 3.28074L21.2125 5.64438C21.5231 5.73615 21.7397 6.01689 21.7496 6.34059C21.7596 6.66429 21.5607 6.95782 21.2563 7.06849L11.2563 10.7049C11.0973 10.7627 10.9234 10.7651 10.7628 10.7116L2.76283 8.04489C2.45657 7.94281 2.25 7.65621 2.25 7.33338C2.25 7.01056 2.45657 6.72396 2.76283 6.62187L12.7628 3.28849ZM13.0135 4.78605L5.37169 7.33338L10.9893 9.2059L18.6026 6.43738L13.0135 4.78605Z" fill="#333333" class='xian'/>
<path fill-rule="evenodd" clip-rule="evenodd" d="M22.4303 8.3857C22.6307 8.52606 22.75 8.75535 22.75 9V16C22.75 16.3154 22.5527 16.5971 22.2563 16.7048L11.2563 20.7049C11.0264 20.7885 10.7701 20.7547 10.5697 20.6143C10.3693 20.4739 10.25 20.2447 10.25 20V13C10.25 12.6846 10.4473 12.4029 10.7437 12.2952L21.7437 8.29516C21.9736 8.21155 22.2299 8.24534 22.4303 8.3857ZM11.75 13.5253V18.9292L21.25 15.4747V10.0708L11.75 13.5253Z" fill="#333333" class='xian'/>
<path fill-rule="evenodd" clip-rule="evenodd" d="M3 6.59998C3.41421 6.59998 3.75 6.93576 3.75 7.34998V10.1H2.25V7.34998C2.25 6.93576 2.58579 6.59998 3 6.59998Z" fill="#333333" class='xian'/>
<path fill-rule="evenodd" clip-rule="evenodd" d="M11 9.25C11.4142 9.25 11.75 9.58579 11.75 10V12.75H10.25V10C10.25 9.58579 10.5858 9.25 11 9.25Z" fill="#333333" class='xian'/>
<path fill-rule="evenodd" clip-rule="evenodd" d="M21 5.65002C21.4142 5.65002 21.75 5.98581 21.75 6.40002V9.15001H20.25V6.40002C20.25 5.98581 20.5858 5.65002 21 5.65002Z" fill="#333333" class='xian'/>
<path d="M8.67094 17.3903L6.34189 16.614C6.13772 16.5459 6 16.3549 6 16.1396V15.3469C6 15.1762 6.16717 15.0557 6.32906 15.1097L8.65811 15.8861C8.86228 15.9541 9 16.1452 9 16.3604V17.1532C9 17.3238 8.83283 17.4443 8.67094 17.3903Z" fill="#878682" class='mian'/>
<path fill-rule="evenodd" clip-rule="evenodd" d="M5.75 15.3468C5.75 15.0055 6.08435 14.7646 6.40811 14.8725L8.73717 15.6488C9.04343 15.7509 9.25 16.0375 9.25 16.3603V17.1531C9.25 17.4944 8.91565 17.7354 8.59189 17.6274L6.26283 16.8511C5.95657 16.749 5.75 16.4624 5.75 16.1396V15.3468ZM8.57906 16.1232L6.25 15.3468V16.1396C6.25 16.2472 6.31886 16.3427 6.42094 16.3768L8.75 17.1531V16.3603C8.75 16.2527 8.68114 16.1572 8.57906 16.1232Z" fill="#333333" class='xian'/>
</svg>
