<svg width="24" height="24" viewBox="0 0 24 24" fill="none" xmlns="http://www.w3.org/2000/svg">
<path d="M10 2H14V4H10V2Z" fill="#EEAF36" class='mian'/>
<path d="M10 11H14V10H10V11Z" fill="#EEAF36" class='mian'/>
<path fill-rule="evenodd" clip-rule="evenodd" d="M8.94995 2.89999C8.94995 2.26486 9.46483 1.75 10.1 1.75H13.9C14.5351 1.75 15.0499 2.26493 15.0499 2.89999V3.5C15.0499 3.78779 14.8878 4.03772 14.65 4.16348V4.25H15C15.4142 4.25 15.75 4.58579 15.75 5V8C15.75 8.41421 15.4142 8.75 15 8.75H14.75V11.75H19C19.4142 11.75 19.75 12.0858 19.75 12.5V19.3C19.75 19.8247 19.3247 20.25 18.8 20.25H5.2C4.67533 20.25 4.25 19.8247 4.25 19.3V12.5C4.25 12.0858 4.58579 11.75 5 11.75H9.25V7.63534L6.8767 7.2398C6.51506 7.17952 6.25 6.86663 6.25 6.5V5C6.25 4.58579 6.58579 4.25 7 4.25H9.34998V4.16351C9.11207 4.03776 8.94995 3.78781 8.94995 3.5V2.89999ZM10.8073 3.25H13.1926C13.165 3.32819 13.15 3.41234 13.15 3.5V5C13.15 5.41421 13.4858 5.75 13.9 5.75H14.25V7.25H14C13.5858 7.25 13.25 7.58579 13.25 8V12.5C13.25 12.9142 13.5858 13.25 14 13.25H18.25V18.75H5.75V13.25H10C10.4142 13.25 10.75 12.9142 10.75 12.5V7C10.75 6.63337 10.4849 6.32048 10.1233 6.2602L7.75 5.86465V5.75H10.1C10.5142 5.75 10.85 5.41421 10.85 5V3.5C10.85 3.41234 10.8349 3.32819 10.8073 3.25Z" fill="#333333" class='xian'/>
<path d="M11.5 5.7C11.5 5.58954 11.5895 5.5 11.7 5.5H12.3C12.4105 5.5 12.5 5.58954 12.5 5.7V9.3C12.5 9.41046 12.4105 9.5 12.3 9.5H11.7C11.5895 9.5 11.5 9.41046 11.5 9.3V5.7Z" fill="#333333" class='xian'/>
<path d="M6.75 19.2C6.75 19.0895 6.66046 19 6.55 19H6H5.45C5.33954 19 5.25 19.0895 5.25 19.2V19.45V21.25C5.25 21.6642 5.58579 22 6 22L-nan -nanL-nan -nanL6 22C6.41421 22 6.75 21.6642 6.75 21.25V19.75V19.45V19.2Z" fill="#333333" class='xian'/>
<path d="M8.75 19.2C8.75 19.0895 8.66046 19 8.55 19H8H7.45C7.33954 19 7.25 19.0895 7.25 19.2V19.45V21.25C7.25 21.6642 7.58579 22 8 22L-nan -nanL-nan -nanL8 22C8.41421 22 8.75 21.6642 8.75 21.25V19.75V19.45V19.2Z" fill="#333333" class='xian'/>
<path d="M10.75 19.2C10.75 19.0895 10.6605 19 10.55 19H10H9.45C9.33954 19 9.25 19.0895 9.25 19.2V19.45V21.25C9.25 21.6642 9.58579 22 10 22L-nan -nanL-nan -nanL10 22C10.4142 22 10.75 21.6642 10.75 21.25V19.75V19.45V19.2Z" fill="#333333" class='xian'/>
<path d="M12.75 19.2C12.75 19.0895 12.6605 19 12.55 19H12H11.45C11.3395 19 11.25 19.0895 11.25 19.2V19.45V21.25C11.25 21.6642 11.5858 22 12 22L-nan -nanL-nan -nanL12 22C12.4142 22 12.75 21.6642 12.75 21.25V19.75V19.45V19.2Z" fill="#333333" class='xian'/>
<path d="M14.75 19.2C14.75 19.0895 14.6605 19 14.55 19H14H13.45C13.3395 19 13.25 19.0895 13.25 19.2V19.45V21.25C13.25 21.6642 13.5858 22 14 22L-nan -nanL-nan -nanL14 22C14.4142 22 14.75 21.6642 14.75 21.25V19.75V19.45V19.2Z" fill="#333333" class='xian'/>
<path d="M16.75 19.2C16.75 19.0895 16.6605 19 16.55 19H16H15.45C15.3395 19 15.25 19.0895 15.25 19.2V19.45V21.25C15.25 21.6642 15.5858 22 16 22L-nan -nanL-nan -nanL16 22C16.4142 22 16.75 21.6642 16.75 21.25V19.75V19.45V19.2Z" fill="#333333" class='xian'/>
<path d="M18.75 19.2C18.75 19.0895 18.6605 19 18.55 19H18H17.45C17.3395 19 17.25 19.0895 17.25 19.2V19.45V21.25C17.25 21.6642 17.5858 22 18 22L-nan -nanL-nan -nanL18 22C18.4142 22 18.75 21.6642 18.75 21.25V19.75V19.45V19.2Z" fill="#333333" class='xian'/>
</svg>
