<svg width="24" height="24" viewBox="0 0 24 24" fill="none" xmlns="http://www.w3.org/2000/svg">
<path d="M15 14V13H9V14C9 15.6569 10.3431 17 12 17C13.6569 17 15 15.6569 15 14Z" fill="rgba(0,0,0,0)" class='mian'/>
<path fill-rule="evenodd" clip-rule="evenodd" d="M8.25 12.25H15.75V14C15.75 16.0711 14.0711 17.75 12 17.75C9.92893 17.75 8.25 16.0711 8.25 14V12.25ZM9.75 13.75V14C9.75 15.2426 10.7574 16.25 12 16.25C13.2426 16.25 14.25 15.2426 14.25 14V13.75H9.75Z" fill="#333333" class='xian'/>
<path fill-rule="evenodd" clip-rule="evenodd" d="M7.25 13C7.25 12.5858 7.58579 12.25 8 12.25H16C16.4142 12.25 16.75 12.5858 16.75 13C16.75 13.4142 16.4142 13.75 16 13.75H8C7.58579 13.75 7.25 13.4142 7.25 13Z" fill="#333333" class='xian'/>
<path fill-rule="evenodd" clip-rule="evenodd" d="M10.25 17C10.25 16.5858 10.5858 16.25 11 16.25H13C13.4142 16.25 13.75 16.5858 13.75 17V22C13.75 22.4142 13.4142 22.75 13 22.75H11C10.5858 22.75 10.25 22.4142 10.25 22V17ZM11.75 17.75V21.25H12.25V17.75H11.75Z" fill="#333333" class='xian'/>
<path fill-rule="evenodd" clip-rule="evenodd" d="M5.32919 5.6646C5.51443 5.29412 5.96494 5.14395 6.33542 5.32919C6.50962 5.41629 6.67782 5.50917 6.83988 5.60772C7.1938 5.82293 7.30624 6.2843 7.09102 6.63822C6.87581 6.99213 6.41444 7.10457 6.06053 6.88936C5.93466 6.81282 5.80272 6.73989 5.6646 6.67083C5.29412 6.48559 5.14395 6.03509 5.32919 5.6646ZM7.52092 7.01431C7.85413 6.76825 8.32372 6.83891 8.56977 7.17212C8.80471 7.49027 9.0045 7.83009 9.16917 8.18864C9.34204 8.56506 9.17704 9.01034 8.80062 9.18321C8.42421 9.35609 7.97892 9.19108 7.80605 8.81467C7.6836 8.54805 7.53595 8.29722 7.36311 8.06316C7.11705 7.72995 7.18771 7.26036 7.52092 7.01431ZM8.9264 9.73817C9.33949 9.70778 9.69901 10.018 9.72939 10.4311C9.74318 10.6185 9.75001 10.8083 9.75001 11C9.75001 11.4142 9.41423 11.75 9.00001 11.75C8.5858 11.75 8.25001 11.4142 8.25001 11C8.25001 10.8439 8.24445 10.6909 8.23343 10.5412C8.20305 10.1281 8.5133 9.76855 8.9264 9.73817Z" fill="#333333" class='xian'/>
<path fill-rule="evenodd" clip-rule="evenodd" d="M18.6708 5.6646C18.4856 5.29412 18.0351 5.14395 17.6646 5.32919C17.4904 5.41629 17.3222 5.50917 17.1601 5.60772C16.8062 5.82293 16.6938 6.2843 16.909 6.63822C17.1242 6.99213 17.5856 7.10457 17.9395 6.88936C18.0653 6.81282 18.1973 6.73989 18.3354 6.67083C18.7059 6.48559 18.8561 6.03509 18.6708 5.6646ZM16.4791 7.01431C16.1459 6.76825 15.6763 6.83891 15.4302 7.17212C15.1953 7.49027 14.9955 7.83009 14.8308 8.18864C14.658 8.56506 14.823 9.01034 15.1994 9.18321C15.5758 9.35609 16.0211 9.19108 16.194 8.81467C16.3164 8.54805 16.4641 8.29722 16.6369 8.06316C16.8829 7.72995 16.8123 7.26036 16.4791 7.01431ZM15.0736 9.73817C14.6605 9.70778 14.301 10.018 14.2706 10.4311C14.2568 10.6185 14.25 10.8083 14.25 11C14.25 11.4142 14.5858 11.75 15 11.75C15.4142 11.75 15.75 11.4142 15.75 11C15.75 10.8439 15.7556 10.6909 15.7666 10.5412C15.797 10.1281 15.4867 9.76855 15.0736 9.73817Z" fill="#333333" class='xian'/>
<path fill-rule="evenodd" clip-rule="evenodd" d="M15.4507 4.00001C13.4928 5.75555 10.5071 5.75555 8.54932 4.00001C10.5071 2.24446 13.4928 2.24446 15.4507 4.00001ZM7.03644 3.39393C9.68913 0.44649 14.3108 0.44649 16.9635 3.39393C17.2736 3.73848 17.2736 4.26153 16.9635 4.60608C14.3108 7.55352 9.68913 7.55352 7.03644 4.60608C6.72634 4.26153 6.72634 3.73848 7.03644 3.39393Z" fill="#333333" class='xian'/>
<path fill-rule="evenodd" clip-rule="evenodd" d="M12 4.25C12.1381 4.25 12.25 4.13807 12.25 4C12.25 3.86193 12.1381 3.75 12 3.75C11.8619 3.75 11.75 3.86193 11.75 4C11.75 4.13807 11.8619 4.25 12 4.25ZM10.75 4C10.75 3.30964 11.3096 2.75 12 2.75C12.6904 2.75 13.25 3.30964 13.25 4C13.25 4.69036 12.6904 5.25 12 5.25C11.3096 5.25 10.75 4.69036 10.75 4Z" fill="#333333" class='xian'/>
<path fill-rule="evenodd" clip-rule="evenodd" d="M12 7.25C12.4142 7.25 12.75 7.58579 12.75 8V8.5C12.75 8.91421 12.4142 9.25 12 9.25C11.5858 9.25 11.25 8.91421 11.25 8.5V8C11.25 7.58579 11.5858 7.25 12 7.25ZM12 9.75C12.4142 9.75 12.75 10.0858 12.75 10.5V11C12.75 11.4142 12.4142 11.75 12 11.75C11.5858 11.75 11.25 11.4142 11.25 11V10.5C11.25 10.0858 11.5858 9.75 12 9.75Z" fill="#333333" class='xian'/>
</svg>
