<svg width="24" height="24" viewBox="0 0 24 24" fill="none" xmlns="http://www.w3.org/2000/svg">
<path fill-rule="evenodd" clip-rule="evenodd" d="M9.5 10.25C9.08579 10.25 8.75 10.5858 8.75 11C8.75 11.4142 9.08579 11.75 9.5 11.75C9.91421 11.75 10.25 11.4142 10.25 11C10.25 10.5858 9.91421 10.25 9.5 10.25ZM7.25 11C7.25 9.75736 8.25736 8.75 9.5 8.75C10.7426 8.75 11.75 9.75736 11.75 11C11.75 12.2426 10.7426 13.25 9.5 13.25C8.25736 13.25 7.25 12.2426 7.25 11Z" fill="#333333" class='xian'/>
<path fill-rule="evenodd" clip-rule="evenodd" d="M6.25 14C6.25 13.0335 7.0335 12.25 8 12.25H11C11.9665 12.25 12.75 13.0335 12.75 14V18C12.75 18.4142 12.4142 18.75 12 18.75H7C6.58579 18.75 6.25 18.4142 6.25 18V14ZM8 13.75C7.86193 13.75 7.75 13.8619 7.75 14V17.25H11.25V14C11.25 13.8619 11.1381 13.75 11 13.75H8Z" fill="#333333" class='xian'/>
<path fill-rule="evenodd" clip-rule="evenodd" d="M8 17.25C8.41421 17.25 8.75 17.5858 8.75 18V22C8.75 22.4142 8.41421 22.75 8 22.75C7.58579 22.75 7.25 22.4142 7.25 22V18C7.25 17.5858 7.58579 17.25 8 17.25Z" fill="#333333" class='xian'/>
<path fill-rule="evenodd" clip-rule="evenodd" d="M11 17.25C11.4142 17.25 11.75 17.5858 11.75 18V22C11.75 22.4142 11.4142 22.75 11 22.75C10.5858 22.75 10.25 22.4142 10.25 22V18C10.25 17.5858 10.5858 17.25 11 17.25Z" fill="#333333" class='xian'/>
<path fill-rule="evenodd" clip-rule="evenodd" d="M8.17558 4.53183C8.43414 4.62879 8.56514 4.917 8.46818 5.17556L8.28068 5.67556C8.18372 5.93412 7.89551 6.06512 7.63695 5.96816C7.37839 5.8712 7.24739 5.583 7.34435 5.32444L7.53185 4.82444C7.62881 4.56588 7.91701 4.43487 8.17558 4.53183ZM7.61308 6.03183C7.87164 6.12879 8.00264 6.417 7.90568 6.67556L7.53068 7.67556C7.43372 7.93412 7.14551 8.06512 6.88695 7.96816C6.62839 7.8712 6.49739 7.583 6.59435 7.32444L6.96935 6.32444C7.06631 6.06588 7.35452 5.93487 7.61308 6.03183ZM6.86308 8.03183C7.12164 8.12879 7.25264 8.417 7.15568 8.67556L6.96818 9.17556C6.87122 9.43412 6.58301 9.56512 6.32445 9.46816C6.06589 9.3712 5.93489 9.083 6.03185 8.82444L6.21935 8.32444C6.31631 8.06588 6.60452 7.93487 6.86308 8.03183Z" fill="#333333" class='xian'/>
<path fill-rule="evenodd" clip-rule="evenodd" d="M10.8244 4.53183C10.5659 4.62879 10.4349 4.917 10.5318 5.17556L10.7193 5.67556C10.8163 5.93412 11.1045 6.06512 11.363 5.96816C11.6216 5.8712 11.7526 5.583 11.6557 5.32444L11.4682 4.82444C11.3712 4.56588 11.083 4.43487 10.8244 4.53183ZM11.3869 6.03183C11.1284 6.12879 10.9974 6.417 11.0943 6.67556L11.4693 7.67556C11.5663 7.93412 11.8545 8.06512 12.113 7.96816C12.3716 7.8712 12.5026 7.583 12.4057 7.32444L12.0307 6.32444C11.9337 6.06588 11.6455 5.93487 11.3869 6.03183ZM12.1369 8.03183C11.8784 8.12879 11.7474 8.417 11.8443 8.67556L12.0318 9.17556C12.1288 9.43412 12.417 9.56512 12.6755 9.46816C12.9341 9.3712 13.0651 9.083 12.9682 8.82444L12.7807 8.32444C12.6837 8.06588 12.3955 7.93487 12.1369 8.03183Z" fill="#333333" class='xian'/>
<path fill-rule="evenodd" clip-rule="evenodd" d="M9.5 4.5C9.77614 4.5 10 4.72386 10 5V5.25C10 5.52614 9.77614 5.75 9.5 5.75C9.22386 5.75 9 5.52614 9 5.25V5C9 4.72386 9.22386 4.5 9.5 4.5ZM9.5 7.25C9.22386 7.25 9 7.02614 9 6.75V6.25C9 5.97386 9.22386 5.75 9.5 5.75C9.77614 5.75 10 5.97386 10 6.25V6.75C10 7.02614 9.77614 7.25 9.5 7.25ZM9.5 7.25C9.22386 7.25 9 7.47386 9 7.75V8C9 8.27614 9.22386 8.5 9.5 8.5C9.77614 8.5 10 8.27614 10 8V7.75C10 7.47386 9.77614 7.25 9.5 7.25Z" fill="#333333" class='xian'/>
<path fill-rule="evenodd" clip-rule="evenodd" d="M14 10.25C14.4142 10.25 14.75 10.5858 14.75 11V14C14.75 14.2841 14.5895 14.5438 14.3354 14.6708L12.3354 15.6708C11.9649 15.8561 11.5144 15.7059 11.3292 15.3354C11.1439 14.9649 11.2941 14.5144 11.6646 14.3292L13.25 13.5365V11C13.25 10.5858 13.5858 10.25 14 10.25Z" fill="#333333" class='xian'/>
<path fill-rule="evenodd" clip-rule="evenodd" d="M14 2.75C14.1381 2.75 14.25 2.86193 14.25 3V11C14.25 11.1381 14.1381 11.25 14 11.25C13.8619 11.25 13.75 11.1381 13.75 11V3C13.75 2.86193 13.8619 2.75 14 2.75Z" fill="#333333" class='xian'/>
<path fill-rule="evenodd" clip-rule="evenodd" d="M13.4697 10.4697C13.7626 10.1768 14.2374 10.1768 14.5303 10.4697L15.5303 11.4697C15.8232 11.7626 15.8232 12.2374 15.5303 12.5303C15.2374 12.8232 14.7626 12.8232 14.4697 12.5303L14 12.0607L13.5303 12.5303C13.2374 12.8232 12.7626 12.8232 12.4697 12.5303C12.1768 12.2374 12.1768 11.7626 12.4697 11.4697L13.4697 10.4697Z" fill="#333333" class='xian'/>
<path fill-rule="evenodd" clip-rule="evenodd" d="M6.72144 4.30364C8.5051 3.59017 10.4949 3.59017 12.2785 4.30364C12.6631 4.45747 12.8502 4.89395 12.6963 5.27854C12.5425 5.66313 12.106 5.85019 11.7214 5.69635C10.2954 5.12593 8.70457 5.12593 7.27853 5.69635C6.89394 5.85019 6.45746 5.66313 6.30363 5.27854C6.14979 4.89395 6.33686 4.45747 6.72144 4.30364Z" fill="rgba(0,0,0,0)" class='mian'/>
<path fill-rule="evenodd" clip-rule="evenodd" d="M9.00596 1.43572C9.16862 1.2933 9.38482 1.22801 9.59912 1.25658L17.0991 2.25658C17.4717 2.30626 17.75 2.6241 17.75 3V22C17.75 22.4142 17.4142 22.75 17 22.75C16.5858 22.75 16.25 22.4142 16.25 22V3.65664L10.25 2.85664V3.5C10.25 3.91422 9.91421 4.25 9.5 4.25C9.08579 4.25 8.75 3.91422 8.75 3.5V2C8.75 1.78381 8.84329 1.57813 9.00596 1.43572Z" fill="rgba(0,0,0,0)" class='mian'/>
</svg>
