<svg width="24" height="24" viewBox="0 0 24 24" fill="none" xmlns="http://www.w3.org/2000/svg">
<path d="M10 2H14V3.5H10V2Z" fill="#EEAF36" class='mian'/>
<path d="M10 10.5H14V9.5H10V10.5Z" fill="#EEAF36" class='mian'/>
<path fill-rule="evenodd" clip-rule="evenodd" d="M8.94995 2.39999C8.94995 1.76486 9.46483 1.25 10.1 1.25H13.9C14.5351 1.25 15.0499 1.76493 15.0499 2.39999V3C15.0499 3.28779 14.8878 3.53772 14.65 3.66348V3.75H15C15.4142 3.75 15.75 4.08579 15.75 4.5V7.5C15.75 7.91421 15.4142 8.25 15 8.25H14.75V12C14.75 12.2453 14.6322 12.4632 14.4501 12.6V14C14.4501 14.0494 14.4452 14.0987 14.4355 14.1471L14.0499 16.0743V19.8C14.0499 20.0368 13.9382 20.2588 13.75 20.4V21.8C13.75 22.3247 13.3247 22.75 12.8 22.75H11.2C10.6753 22.75 10.25 22.3247 10.25 21.8V20.4C10.0618 20.2589 9.94995 20.0369 9.94995 19.8V16.0742L9.56461 14.1471C9.55492 14.0986 9.55005 14.0494 9.55005 14V12.6001C9.36785 12.4633 9.25 12.2454 9.25 12V7.13534L6.8767 6.7398C6.51506 6.67952 6.25 6.36663 6.25 6V4.5C6.25 4.08579 6.58579 3.75 7 3.75H9.34998V3.66351C9.11207 3.53776 8.94995 3.28781 8.94995 3V2.39999ZM10.8073 2.75H13.1926C13.165 2.82819 13.15 2.91234 13.15 3V4.5C13.15 4.91421 13.4857 5.25 13.9 5.25H14.25V6.75H14C13.5858 6.75 13.25 7.08579 13.25 7.5V11.4C13.0679 11.5368 12.9501 11.7547 12.9501 12V13.9257L12.5645 15.8529C12.5548 15.9013 12.5499 15.9506 12.5499 16V19.4001C12.3618 19.5412 12.25 19.7632 12.25 20V21.25H11.75V20C11.75 19.7631 11.6382 19.5411 11.45 19.4V16C11.45 15.9506 11.4451 15.9014 11.4354 15.8529L11.05 13.9258V12C11.05 11.7546 10.9322 11.5367 10.75 11.3999V6.5C10.75 6.13337 10.4849 5.82048 10.1233 5.7602L7.75 5.36465V5.25H10.1C10.5142 5.25 10.85 4.91421 10.85 4.5V3C10.85 2.91234 10.8349 2.82819 10.8073 2.75Z" fill="#333333" class='xian'/>
<path d="M11.5 5.2C11.5 5.08954 11.5895 5 11.7 5H12.3C12.4105 5 12.5 5.08954 12.5 5.2V8.8C12.5 8.91046 12.4105 9 12.3 9H11.7C11.5895 9 11.5 8.91046 11.5 8.8V5.2Z" fill="#333333" class='xian'/>
</svg>
