<svg width="24" height="24" viewBox="0 0 24 24" fill="none" xmlns="http://www.w3.org/2000/svg">
<path fill-rule="evenodd" clip-rule="evenodd" d="M12.9349 3.88152L5.55138 16.6702C5.34427 17.0289 4.88558 17.1518 4.52686 16.9447C4.16814 16.7376 4.04524 16.2789 4.25234 15.9202L12.2523 2.06381L12.9019 2.43881L13.5742 2.10639C14.4077 3.79215 16.1731 4.8114 18.0497 4.69036L18.098 5.43881L18.7475 5.81381L10.7475 19.6702C10.5404 20.0289 10.0817 20.1518 9.72301 19.9447C9.36429 19.7376 9.24139 19.2789 9.44849 18.9202L16.8321 6.13152C15.2971 5.90031 13.9027 5.09524 12.9349 3.88152Z" fill="#333333" class='xian'/>
<path fill-rule="evenodd" clip-rule="evenodd" d="M17.4257 5.77124C16.5922 4.08548 14.8268 3.06623 12.9501 3.18726C12.5368 3.21392 12.1801 2.90044 12.1534 2.48709C12.1267 2.07373 12.4402 1.71703 12.8536 1.69037C15.3345 1.53037 17.6684 2.87781 18.7703 5.1064C18.9539 5.4777 18.8017 5.92753 18.4304 6.11112C18.0591 6.29472 17.6093 6.14254 17.4257 5.77124Z" fill="#333333" class='xian'/>
<path fill-rule="evenodd" clip-rule="evenodd" d="M16.5497 7.2884C14.6731 7.40943 12.9077 6.39019 12.0742 4.70443C11.8906 4.33312 11.4407 4.18095 11.0694 4.36454C10.6981 4.54813 10.5459 4.99796 10.7295 5.36927C11.8315 7.59785 14.1653 8.9453 16.6463 8.78529C17.0596 8.75863 17.3731 8.40193 17.3464 7.98858C17.3198 7.57522 16.9631 7.26174 16.5497 7.2884Z" fill="#333333" class='xian'/>
<path fill-rule="evenodd" clip-rule="evenodd" d="M4.77634 10.1113C5.01548 10.2493 5.32128 10.1674 5.45935 9.92825L8.70935 4.29909C8.84742 4.05994 8.76548 3.75415 8.52634 3.61608C8.28719 3.47801 7.9814 3.55994 7.84332 3.79909L4.59333 9.42825C4.45525 9.6674 4.53719 9.9732 4.77634 10.1113Z" fill="#333333" class='xian'/>
<path fill-rule="evenodd" clip-rule="evenodd" d="M8.85695 3.73687C8.78548 3.47014 8.51131 3.31184 8.24458 3.38332L7.27865 3.64213C7.01192 3.71361 6.85363 3.98777 6.9251 4.25451C6.99657 4.52124 7.27074 4.67953 7.53747 4.60806L8.5034 4.34924C8.77013 4.27777 8.92842 4.0036 8.85695 3.73687Z" fill="#333333" class='xian'/>
<path fill-rule="evenodd" clip-rule="evenodd" d="M8.24459 3.38335C7.97786 3.45482 7.81957 3.72899 7.89104 3.99572L8.14986 4.96165C8.22133 5.22838 8.4955 5.38667 8.76223 5.3152C9.02896 5.24373 9.18725 4.96956 9.11578 4.70283L8.85696 3.7369C8.78549 3.47017 8.51132 3.31188 8.24459 3.38335Z" fill="#333333" class='xian'/>
<path fill-rule="evenodd" clip-rule="evenodd" d="M15.5239 16.3163C15.7631 16.4544 16.0689 16.3725 16.2069 16.1333L19.4569 10.5042C19.595 10.265 19.5131 9.95923 19.2739 9.82115C19.0348 9.68308 18.729 9.76502 18.5909 10.0042L15.3409 15.6333C15.2028 15.8725 15.2848 16.1783 15.5239 16.3163Z" fill="#333333" class='xian'/>
<path fill-rule="evenodd" clip-rule="evenodd" d="M19.6045 9.94195C19.533 9.67521 19.2588 9.51692 18.9921 9.58839L18.0262 9.84721C17.7594 9.91868 17.6012 10.1929 17.6726 10.4596C17.7441 10.7263 18.0183 10.8846 18.285 10.8131L19.2509 10.5543C19.5177 10.4828 19.6759 10.2087 19.6045 9.94195Z" fill="#333333" class='xian'/>
<path fill-rule="evenodd" clip-rule="evenodd" d="M18.9921 9.58842C18.7254 9.6599 18.5671 9.93406 18.6386 10.2008L18.8974 11.1667C18.9689 11.4335 19.243 11.5917 19.5098 11.5203C19.7765 11.4488 19.9348 11.1746 19.8633 10.9079L19.6045 9.94198C19.533 9.67525 19.2589 9.51695 18.9921 9.58842Z" fill="#333333" class='xian'/>
<path d="M19.1592 22.79V21.11C19.1592 21.012 19.2052 20.946 19.2972 20.912C19.3892 20.88 19.4662 20.9 19.5282 20.972L20.5992 22.223V21.11C20.5992 21.052 20.6192 21.003 20.6592 20.963C20.7012 20.921 20.7512 20.9 20.8092 20.9C20.8672 20.9 20.9172 20.921 20.9592 20.963C20.9992 21.003 21.0192 21.052 21.0192 21.11V22.79C21.0192 22.888 20.9732 22.954 20.8812 22.988C20.8592 22.996 20.8352 23 20.8092 23C20.7452 23 20.6922 22.975 20.6502 22.925L19.5792 21.677V22.79C19.5792 22.848 19.5592 22.897 19.5192 22.937C19.4772 22.979 19.4272 23 19.3692 23C19.3112 23 19.2612 22.979 19.2192 22.937C19.1792 22.897 19.1592 22.848 19.1592 22.79Z" fill="#333333" class='xian'/>
<path d="M18.6796 22.94C18.6376 22.98 18.5876 23 18.5296 23C18.4716 23 18.4216 22.98 18.3796 22.94C18.3396 22.898 18.3196 22.848 18.3196 22.79V21.716L17.7946 22.379C17.7546 22.431 17.6996 22.457 17.6296 22.457C17.5596 22.457 17.5046 22.431 17.4646 22.379L16.9396 21.716V22.79C16.9396 22.848 16.9196 22.898 16.8796 22.94C16.8376 22.98 16.7876 23 16.7296 23C16.6716 23 16.6216 22.98 16.5796 22.94C16.5396 22.898 16.5196 22.848 16.5196 22.79V21.11C16.5196 21.01 16.5666 20.944 16.6606 20.912C16.7546 20.878 16.8326 20.901 16.8946 20.981L17.6296 21.911L18.3646 20.981C18.4266 20.903 18.5046 20.88 18.5986 20.912C18.6926 20.944 18.7396 21.01 18.7396 21.11V22.79C18.7396 22.848 18.7196 22.898 18.6796 22.94Z" fill="#333333" class='xian'/>
<path d="M14.2689 22.07V21.11C14.2689 21.052 14.2889 21.002 14.3289 20.96C14.3709 20.92 14.4209 20.9 14.4789 20.9C14.5369 20.9 14.5869 20.92 14.6289 20.96C14.6689 21.002 14.6889 21.052 14.6889 21.11V22.07C14.6889 22.21 14.7389 22.33 14.8389 22.43C14.9389 22.53 15.0589 22.58 15.1989 22.58C15.3389 22.58 15.4589 22.53 15.5589 22.43C15.6589 22.33 15.7089 22.21 15.7089 22.07V21.11C15.7089 21.052 15.7289 21.002 15.7689 20.96C15.8109 20.92 15.8609 20.9 15.9189 20.9C15.9769 20.9 16.0269 20.92 16.0689 20.96C16.1089 21.002 16.1289 21.052 16.1289 21.11V22.07C16.1289 22.326 16.0379 22.545 15.8559 22.727C15.6739 22.909 15.4549 23 15.1989 23C14.9429 23 14.7239 22.909 14.5419 22.727C14.3599 22.545 14.2689 22.326 14.2689 22.07Z" fill="#333333" class='xian'/>
<path d="M12.4385 22.79V21.11C12.4385 21.052 12.4585 21.003 12.4985 20.963C12.5405 20.921 12.5905 20.9 12.6485 20.9C12.7065 20.9 12.7565 20.921 12.7985 20.963C12.8385 21.003 12.8585 21.052 12.8585 21.11V22.58H13.8485C13.9065 22.58 13.9565 22.6 13.9985 22.64C14.0385 22.682 14.0585 22.732 14.0585 22.79C14.0585 22.848 14.0385 22.897 13.9985 22.937C13.9565 22.979 13.9065 23 13.8485 23H12.6485C12.5905 23 12.5405 22.979 12.4985 22.937C12.4585 22.897 12.4385 22.848 12.4385 22.79Z" fill="#333333" class='xian'/>
<path d="M11.5332 21.506C11.4112 21.382 11.2632 21.32 11.0892 21.32C10.9152 21.32 10.7672 21.382 10.6452 21.506C10.5212 21.628 10.4592 21.776 10.4592 21.95C10.4592 22.124 10.5212 22.272 10.6452 22.394C10.7672 22.518 10.9152 22.58 11.0892 22.58C11.2632 22.58 11.4112 22.518 11.5332 22.394C11.6572 22.272 11.7192 22.124 11.7192 21.95C11.7192 21.776 11.6572 21.628 11.5332 21.506ZM11.8302 22.691C11.6262 22.897 11.3792 23 11.0892 23C10.7992 23 10.5522 22.897 10.3482 22.691C10.1422 22.487 10.0392 22.24 10.0392 21.95C10.0392 21.66 10.1422 21.413 10.3482 21.209C10.5522 21.003 10.7992 20.9 11.0892 20.9C11.3792 20.9 11.6262 21.003 11.8302 21.209C12.0362 21.413 12.1392 21.66 12.1392 21.95C12.1392 22.24 12.0362 22.487 11.8302 22.691Z" fill="#333333" class='xian'/>
<path d="M8.26814 22.691C8.06214 22.487 7.95914 22.24 7.95914 21.95C7.95914 21.66 8.06214 21.413 8.26814 21.209C8.47214 21.003 8.71914 20.9 9.00914 20.9C9.34914 20.9 9.62414 21.034 9.83414 21.302C9.87014 21.348 9.88514 21.399 9.87914 21.455C9.87114 21.513 9.84414 21.56 9.79814 21.596C9.75214 21.632 9.70114 21.646 9.64514 21.638C9.58714 21.632 9.54014 21.606 9.50414 21.56C9.37814 21.4 9.21314 21.32 9.00914 21.32C8.83514 21.32 8.68714 21.382 8.56514 21.506C8.44114 21.628 8.37914 21.776 8.37914 21.95C8.37914 22.124 8.44114 22.272 8.56514 22.394C8.68714 22.518 8.83514 22.58 9.00914 22.58C9.21314 22.58 9.37814 22.5 9.50414 22.34C9.54014 22.294 9.58714 22.268 9.64514 22.262C9.70114 22.254 9.75214 22.268 9.79814 22.304C9.84414 22.34 9.87114 22.387 9.87914 22.445C9.88514 22.501 9.87014 22.552 9.83414 22.598C9.62414 22.866 9.34914 23 9.00914 23C8.71914 23 8.47214 22.897 8.26814 22.691Z" fill="#333333" class='xian'/>
<path d="M5.13923 22.691C4.93323 22.487 4.83023 22.24 4.83023 21.95C4.83023 21.66 4.93323 21.413 5.13923 21.209C5.34323 21.003 5.59023 20.9 5.88023 20.9C6.22023 20.9 6.49523 21.034 6.70523 21.302C6.74123 21.348 6.75623 21.399 6.75023 21.455C6.74223 21.513 6.71523 21.56 6.66923 21.596C6.62323 21.632 6.57223 21.646 6.51623 21.638C6.45823 21.632 6.41123 21.606 6.37523 21.56C6.24923 21.4 6.08423 21.32 5.88023 21.32C5.70623 21.32 5.55823 21.382 5.43623 21.506C5.31223 21.628 5.25023 21.776 5.25023 21.95C5.25023 22.124 5.31223 22.272 5.43623 22.394C5.55823 22.518 5.70623 22.58 5.88023 22.58C6.08423 22.58 6.24923 22.5 6.37523 22.34C6.41123 22.294 6.45823 22.268 6.51623 22.262C6.57223 22.254 6.62323 22.268 6.66923 22.304C6.71523 22.34 6.74223 22.387 6.75023 22.445C6.75623 22.501 6.74123 22.552 6.70523 22.598C6.49523 22.866 6.22023 23 5.88023 23C5.59023 23 5.34323 22.897 5.13923 22.691Z" fill="#333333" class='xian'/>
<path d="M3.20999 22.79V21.11C3.20999 21.052 3.22999 21.003 3.26999 20.963C3.31199 20.921 3.36199 20.9 3.41999 20.9C3.47799 20.9 3.52799 20.921 3.56999 20.963C3.60999 21.003 3.62999 21.052 3.62999 21.11V22.58H4.61999C4.67799 22.58 4.72799 22.6 4.76999 22.64C4.80999 22.682 4.82999 22.732 4.82999 22.79C4.82999 22.848 4.80999 22.897 4.76999 22.937C4.72799 22.979 4.67799 23 4.61999 23H3.41999C3.36199 23 3.31199 22.979 3.26999 22.937C3.22999 22.897 3.20999 22.848 3.20999 22.79Z" fill="#333333" class='xian'/>
</svg>
