<svg width="24" height="24" viewBox="0 0 24 24" fill="none" xmlns="http://www.w3.org/2000/svg">
<path fill-rule="evenodd" clip-rule="evenodd" d="M6.29774 17.7367C6.40752 17.4439 6.68736 17.25 6.99999 17.25H17C17.3126 17.25 17.5925 17.4439 17.7022 17.7367L19.2022 21.7367C19.3477 22.1245 19.1512 22.5568 18.7633 22.7022C18.3755 22.8477 17.9432 22.6512 17.7977 22.2633L16.4802 18.75H7.51974L6.20224 22.2633C6.0568 22.6512 5.62449 22.8477 5.23665 22.7022C4.84881 22.5568 4.6523 22.1245 4.79774 21.7367L6.29774 17.7367Z" fill="#666666" class='xian'/>
<path fill-rule="evenodd" clip-rule="evenodd" d="M13 8.25C13.4142 8.25 13.75 8.58579 13.75 9L13.75 18C13.75 18.4142 13.4142 18.75 13 18.75C12.5858 18.75 12.25 18.4142 12.25 18L12.25 9C12.25 8.58579 12.5858 8.25 13 8.25Z" fill="#666666" class='xian'/>
<path fill-rule="evenodd" clip-rule="evenodd" d="M9 2L9 4C9 4.27614 8.77614 4.5 8.5 4.5C8.22386 4.5 8 4.27614 8 4L8 2C8 1.72386 8.22386 1.5 8.5 1.5C8.77614 1.5 9 1.72386 9 2Z" fill="#333333" class='mian'/>
<path fill-rule="evenodd" clip-rule="evenodd" d="M8.75 16L8.75 21C8.75 21.1381 8.63807 21.25 8.5 21.25C8.36193 21.25 8.25 21.1381 8.25 21L8.25 16C8.25 15.8619 8.36193 15.75 8.5 15.75C8.63807 15.75 8.75 15.8619 8.75 16Z" fill="#333333" class='mian'/>
<path fill-rule="evenodd" clip-rule="evenodd" d="M15.75 12C15.75 12.4142 15.4142 12.75 15 12.75H11C10.5858 12.75 10.25 12.4142 10.25 12C10.25 11.5858 10.5858 11.25 11 11.25H15C15.4142 11.25 15.75 11.5858 15.75 12Z" fill="#666666" class='xian'/>
<path fill-rule="evenodd" clip-rule="evenodd" d="M6.70304 12.1645C6.70297 12.1644 6.75 12.1093 6.75 12H5.25C5.25 11.5893 5.4612 11.2738 5.68113 11.0658C5.89948 10.8593 6.17519 10.7079 6.45369 10.5965C7.01485 10.3721 7.73866 10.25 8.5 10.25C9.26134 10.25 9.98515 10.3721 10.5463 10.5965C10.8248 10.7079 11.1005 10.8593 11.3189 11.0658C11.5388 11.2738 11.75 11.5893 11.75 12H10.25C10.25 12.1093 10.297 12.1644 10.297 12.1645C10.2969 12.1645 10.2944 12.1615 10.2882 12.1557C10.2535 12.1229 10.1631 12.0588 9.98922 11.9893C9.64556 11.8518 9.11937 11.75 8.5 11.75C7.88063 11.75 7.35444 11.8518 7.01078 11.9893C6.83686 12.0588 6.74646 12.1229 6.71179 12.1557C6.70558 12.1615 6.70305 12.1645 6.70304 12.1645Z" fill="#666666" class='xian'/>
<path d="M10.75 12V8C9.31755 8.63664 7.68245 8.63664 6.25 8V12L7.75 13H9.25L10.75 12Z" fill="#515151"/>
<path d="M10.75 9.33333V4C10.75 3.44772 10.3023 3 9.75 3H7.25C6.69772 3 6.25 3.44772 6.25 4V9.33333C7.66081 10.0649 9.33919 10.0649 10.75 9.33333Z" fill="#333333" class='mian'/>
<path d="M10 6.73241V4.1C10 4.04477 9.95523 4 9.9 4H7.1C7.04477 4 7 4.04477 7 4.1V6.73241C7 6.89958 7.08355 7.0557 7.22265 7.14843L7.9453 7.6302C8.2812 7.85413 8.7188 7.85413 9.0547 7.6302L9.77735 7.14843C9.91645 7.0557 10 6.89958 10 6.73241Z" fill="#60605F"/>
<path d="M9.00002 14.5L10 13H7L8.00001 14.5H9.00002Z" fill="#333333" class='mian'/>
<path fill-rule="evenodd" clip-rule="evenodd" d="M6.47099 12.7169C6.5754 12.5218 6.77872 12.4 6.99999 12.4H9.99999C10.2213 12.4 10.4246 12.5218 10.529 12.7169C10.6334 12.912 10.622 13.1487 10.4992 13.3328L9.49924 14.8328C9.38796 14.9997 9.20062 15.1 9 15.1H8C7.79939 15.1 7.61206 14.9997 7.50078 14.8328L6.50077 13.3328C6.37802 13.1487 6.36658 12.912 6.47099 12.7169ZM8.12111 13.6L8.32111 13.9H8.67889L8.87889 13.6H8.12111Z" fill="#333333" class='mian'/>
<path d="M8 16V14.5H9V16L8.5 17L8 16Z" fill="#333333" class='mian'/>
<path fill-rule="evenodd" clip-rule="evenodd" d="M7.85001 14.5C7.85001 14.4172 7.91716 14.35 8.00001 14.35H9.00001C9.08285 14.35 9.15001 14.4172 9.15001 14.5V16C9.15001 16.0233 9.14458 16.0463 9.13417 16.0671L8.63417 17.0671C8.60876 17.1179 8.55682 17.15 8.50001 17.15C8.44319 17.15 8.39125 17.1179 8.36584 17.0671L7.86584 16.0671C7.85543 16.0463 7.85001 16.0233 7.85001 16V14.5ZM8.15001 14.65V15.9646L8.50001 16.6646L8.85001 15.9646V14.65H8.15001Z" fill="#333333" class='mian'/>
<path fill-rule="evenodd" clip-rule="evenodd" d="M6.73816 11.8665C6.67519 11.516 6.36866 11.25 6 11.25C5.58579 11.25 5.25 11.5858 5.25 12C5.25 12.4107 5.4612 12.7262 5.68113 12.9342C5.89948 13.1407 6.17519 13.2921 6.45369 13.4035C7.01485 13.6279 7.73866 13.75 8.5 13.75C9.26134 13.75 9.98515 13.6279 10.5463 13.4035C10.8248 13.2921 11.1005 13.1407 11.3189 12.9342C11.5388 12.7262 11.75 12.4107 11.75 12C11.75 11.5858 11.4142 11.25 11 11.25C10.6313 11.25 10.3248 11.516 10.2618 11.8665C10.2157 11.9019 10.1297 11.9546 9.98922 12.0107C9.64556 12.1482 9.11937 12.25 8.5 12.25C7.88063 12.25 7.35444 12.1482 7.01078 12.0107C6.87029 11.9546 6.7843 11.9019 6.73816 11.8665Z" fill="#666666" class='xian'/>
<path fill-rule="evenodd" clip-rule="evenodd" d="M15.75 11L15.75 13C15.75 13.4142 15.4142 13.75 15 13.75C14.5858 13.75 14.25 13.4142 14.25 13L14.25 11C14.25 10.5858 14.5858 10.25 15 10.25C15.4142 10.25 15.75 10.5858 15.75 11Z" fill="#666666" class='xian'/>
<circle cx="7.92499" cy="4.875" r="0.375" fill="#143772"/>
<circle cx="9.07498" cy="4.875" r="0.375" fill="#143772"/>
<circle cx="8.5" cy="14.5" r="0.5" fill="#143772"/>
<path d="M7.75 6C7.75 5.88954 7.83954 5.8 7.95 5.8H9.05C9.16046 5.8 9.25 5.88954 9.25 6V6.6C9.25 6.71046 9.16046 6.8 9.05 6.8H7.95C7.83954 6.8 7.75 6.71046 7.75 6.6V6Z" fill="#60605F"/>
<path fill-rule="evenodd" clip-rule="evenodd" d="M7.72501 6C7.72501 5.87574 7.82574 5.775 7.95001 5.775H9.05001C9.17427 5.775 9.27501 5.87574 9.27501 6V6.6C9.27501 6.72426 9.17427 6.825 9.05001 6.825H7.95001C7.82574 6.825 7.72501 6.72426 7.72501 6.6V6ZM7.95001 5.825C7.85336 5.825 7.77501 5.90335 7.77501 6V6.6C7.77501 6.69665 7.85336 6.775 7.95001 6.775H9.05001C9.14666 6.775 9.22501 6.69665 9.22501 6.6V6C9.22501 5.90335 9.14666 5.825 9.05001 5.825H7.95001Z" fill="#333333" class='mian'/>
</svg>
