<svg width="24" height="24" viewBox="0 0 24 24" fill="none" xmlns="http://www.w3.org/2000/svg">
<path fill-rule="evenodd" clip-rule="evenodd" d="M6.29774 17.7367C6.40752 17.4439 6.68736 17.25 6.99999 17.25H17C17.3126 17.25 17.5925 17.4439 17.7022 17.7367L19.2022 21.7367C19.3477 22.1245 19.1512 22.5568 18.7633 22.7022C18.3755 22.8477 17.9432 22.6512 17.7977 22.2633L16.4802 18.75H7.51974L6.20224 22.2633C6.0568 22.6512 5.62449 22.8477 5.23665 22.7022C4.84881 22.5568 4.6523 22.1245 4.79774 21.7367L6.29774 17.7367Z" fill="#666666" class='xian'/>
<path fill-rule="evenodd" clip-rule="evenodd" d="M13 8.25C13.4142 8.25 13.75 8.58579 13.75 9L13.75 18C13.75 18.4142 13.4142 18.75 13 18.75C12.5858 18.75 12.25 18.4142 12.25 18L12.25 9C12.25 8.58579 12.5858 8.25 13 8.25Z" fill="#666666" class='xian'/>
<path fill-rule="evenodd" clip-rule="evenodd" d="M9 2L9 4C9 4.27614 8.77614 4.5 8.5 4.5C8.22386 4.5 8 4.27614 8 4L8 2C8 1.72386 8.22386 1.5 8.5 1.5C8.77614 1.5 9 1.72386 9 2Z" fill="#333333" class='xian'/>
<path fill-rule="evenodd" clip-rule="evenodd" d="M8.75 17L8.75 21C8.75 21.1381 8.63807 21.25 8.5 21.25C8.36193 21.25 8.25 21.1381 8.25 21L8.25 17C8.25 16.8619 8.36193 16.75 8.5 16.75C8.63807 16.75 8.75 16.8619 8.75 17Z" fill="#333333" class='xian'/>
<path fill-rule="evenodd" clip-rule="evenodd" d="M15.75 12C15.75 12.4142 15.4142 12.75 15 12.75H11C10.5858 12.75 10.25 12.4142 10.25 12C10.25 11.5858 10.5858 11.25 11 11.25H15C15.4142 11.25 15.75 11.5858 15.75 12Z" fill="#666666" class='xian'/>
<path fill-rule="evenodd" clip-rule="evenodd" d="M6.70304 12.1645C6.70297 12.1644 6.75 12.1093 6.75 12H5.25C5.25 11.5893 5.4612 11.2738 5.68113 11.0658C5.89948 10.8593 6.17519 10.7079 6.45369 10.5965C7.01485 10.3721 7.73866 10.25 8.5 10.25C9.26134 10.25 9.98515 10.3721 10.5463 10.5965C10.8248 10.7079 11.1005 10.8593 11.3189 11.0658C11.5388 11.2738 11.75 11.5893 11.75 12H10.25C10.25 12.1093 10.297 12.1644 10.297 12.1645C10.2969 12.1645 10.2944 12.1615 10.2882 12.1557C10.2535 12.1229 10.1631 12.0588 9.98922 11.9893C9.64556 11.8518 9.11937 11.75 8.5 11.75C7.88063 11.75 7.35444 11.8518 7.01078 11.9893C6.83686 12.0588 6.74646 12.1229 6.71179 12.1557C6.70558 12.1615 6.70305 12.1645 6.70304 12.1645Z" fill="#666666" class='xian'/>
<path fill-rule="evenodd" clip-rule="evenodd" d="M6.25 4C6.25 3.58579 6.58579 3.25 7 3.25H10C10.4142 3.25 10.75 3.58579 10.75 4V13C10.75 13.1481 10.7062 13.2928 10.624 13.416L9.62404 14.916C9.48494 15.1247 9.25076 15.25 9 15.25H8C7.74924 15.25 7.51506 15.1247 7.37596 14.916L6.37596 13.416C6.29383 13.2928 6.25 13.1481 6.25 13V4ZM7.75 4.75V12.7729L8.40139 13.75H8.59861L9.25 12.7729V4.75H7.75Z" fill="#333333" class='xian'/>
<path fill-rule="evenodd" clip-rule="evenodd" d="M7.5 14.5C7.5 14.2239 7.72386 14 8 14H9C9.27614 14 9.5 14.2239 9.5 14.5V16C9.5 16.0776 9.48193 16.1542 9.44721 16.2236L8.94721 17.2236C8.86252 17.393 8.68939 17.5 8.5 17.5C8.31061 17.5 8.13748 17.393 8.05279 17.2236L7.55279 16.2236C7.51807 16.1542 7.5 16.0776 7.5 16V14.5Z" fill="#333333" class='xian'/>
<path fill-rule="evenodd" clip-rule="evenodd" d="M6.73816 11.8665C6.67519 11.516 6.36866 11.25 6 11.25C5.58579 11.25 5.25 11.5858 5.25 12C5.25 12.4107 5.4612 12.7262 5.68113 12.9342C5.89948 13.1407 6.17519 13.2921 6.45369 13.4035C7.01485 13.6279 7.73866 13.75 8.5 13.75C9.26134 13.75 9.98515 13.6279 10.5463 13.4035C10.8248 13.2921 11.1005 13.1407 11.3189 12.9342C11.5388 12.7262 11.75 12.4107 11.75 12C11.75 11.5858 11.4142 11.25 11 11.25C10.6313 11.25 10.3248 11.516 10.2618 11.8665C10.2157 11.9019 10.1297 11.9546 9.98922 12.0107C9.64556 12.1482 9.11937 12.25 8.5 12.25C7.88063 12.25 7.35444 12.1482 7.01078 12.0107C6.87029 11.9546 6.7843 11.9019 6.73816 11.8665Z" fill="#666666" class='xian'/>
<path fill-rule="evenodd" clip-rule="evenodd" d="M15.75 11L15.75 13C15.75 13.4142 15.4142 13.75 15 13.75C14.5858 13.75 14.25 13.4142 14.25 13L14.25 11C14.25 10.5858 14.5858 10.25 15 10.25C15.4142 10.25 15.75 10.5858 15.75 11Z" fill="#666666" class='xian'/>
</svg>
