<svg width="24" height="24" viewBox="0 0 24 24" fill="none" xmlns="http://www.w3.org/2000/svg">
<path d="M14 12.5H10L10.5 17L11 22.5H13L13.5 17L14 12.5Z" fill="#999999" class='mian'/>
<path fill-rule="evenodd" clip-rule="evenodd" d="M8.73948 3.05748C8.73935 3.05748 8.73991 3.05611 8.74154 3.05339C8.74042 3.05612 8.7396 3.05748 8.73948 3.05748ZM8.78743 3C8.79456 2.99306 8.80267 2.9855 8.81189 2.97733C8.92121 2.8804 9.12219 2.75886 9.43492 2.64159C10.0548 2.40912 10.9616 2.25 12 2.25C13.0384 2.25 13.9452 2.40912 14.5651 2.64159C14.8778 2.75886 15.0788 2.8804 15.1881 2.97733C15.1973 2.9855 15.2054 2.99306 15.2126 3C15.2054 3.00694 15.1973 3.0145 15.1881 3.02267C15.0788 3.1196 14.8778 3.24114 14.5651 3.35841C13.9452 3.59088 13.0384 3.75 12 3.75C10.9616 3.75 10.0548 3.59088 9.43492 3.35841C9.12219 3.24114 8.92121 3.1196 8.81189 3.02267C8.80267 3.0145 8.79456 3.00694 8.78743 3ZM15.2605 3.05748C15.2604 3.05748 15.2596 3.05612 15.2585 3.05339C15.2601 3.05611 15.2606 3.05748 15.2605 3.05748ZM15.2585 2.94661C15.2596 2.94388 15.2604 2.94252 15.2605 2.94252C15.2606 2.94252 15.2601 2.94389 15.2585 2.94661ZM8.74154 2.94661C8.73991 2.94389 8.73935 2.94252 8.73948 2.94252C8.7396 2.94252 8.74042 2.94388 8.74154 2.94661ZM8.90823 1.23709C9.73603 0.926668 10.8293 0.75 12 0.75C13.1707 0.75 14.264 0.926668 15.0918 1.23709C15.5029 1.39127 15.8877 1.59294 16.1832 1.85494C16.4778 2.11616 16.75 2.50138 16.75 3C16.75 3.49862 16.4778 3.88384 16.1832 4.14506C15.8877 4.40706 15.5029 4.60873 15.0918 4.76291C14.264 5.07333 13.1707 5.25 12 5.25C10.8293 5.25 9.73603 5.07333 8.90823 4.76291C8.4971 4.60873 8.11229 4.40706 7.81679 4.14506C7.52215 3.88384 7.25 3.49862 7.25 3C7.25 2.50138 7.52215 2.11616 7.81679 1.85494C8.11229 1.59294 8.4971 1.39127 8.90823 1.23709Z" fill="#333333" class='xian'/>
<path fill-rule="evenodd" clip-rule="evenodd" d="M8.75 5.95883V3H7.25V6C7.25 6.49862 7.52215 6.88384 7.81679 7.14506C8.11229 7.40705 8.4971 7.60873 8.90823 7.76291C9.73603 8.07333 10.8293 8.25 12 8.25C13.1707 8.25 14.264 8.07333 15.0918 7.76291C15.5029 7.60873 15.8877 7.40705 16.1832 7.14506C16.4778 6.88384 16.75 6.49862 16.75 6V3H15.25V5.95883C15.2399 5.9721 15.2211 5.99343 15.1881 6.02267C15.0788 6.1196 14.8778 6.24114 14.5651 6.35841C13.9452 6.59088 13.0384 6.75 12 6.75C10.9616 6.75 10.0548 6.59088 9.43492 6.35841C9.12219 6.24114 8.92121 6.1196 8.81189 6.02267C8.77891 5.99343 8.76013 5.9721 8.75 5.95883ZM15.2605 5.94252C15.2606 5.94252 15.2601 5.94389 15.2585 5.94661C15.2596 5.94388 15.2604 5.94252 15.2605 5.94252ZM8.74154 5.94661C8.73991 5.94389 8.73935 5.94252 8.73948 5.94252C8.7396 5.94252 8.74042 5.94388 8.74154 5.94661Z" fill="#333333" class='xian'/>
<path fill-rule="evenodd" clip-rule="evenodd" d="M10.622 3.08152C10.6218 3.0815 10.623 3.08009 10.6263 3.07739C10.6239 3.0802 10.6222 3.08155 10.622 3.08152ZM10.7906 2.99998C10.8302 2.98649 10.8764 2.97289 10.9293 2.95967C11.1938 2.89354 11.5725 2.84998 12 2.84998C12.4276 2.84998 12.8062 2.89354 13.0708 2.95967C13.1237 2.97289 13.1698 2.98649 13.2095 2.99998C13.1698 3.01346 13.1237 3.02706 13.0708 3.04028C12.8062 3.10641 12.4276 3.14998 12 3.14998C11.5725 3.14998 11.1938 3.10641 10.9293 3.04028C10.8764 3.02706 10.8302 3.01346 10.7906 2.99998ZM13.3781 3.08152C13.3778 3.08155 13.3762 3.0802 13.3738 3.07739C13.3771 3.08009 13.3783 3.0815 13.3781 3.08152ZM13.3738 2.92256C13.3762 2.91975 13.3778 2.9184 13.3781 2.91843C13.3783 2.91845 13.3771 2.91986 13.3738 2.92256ZM10.6263 2.92256C10.623 2.91986 10.6218 2.91845 10.622 2.91843C10.6222 2.9184 10.6239 2.91975 10.6263 2.92256ZM10.808 2.4746C11.1226 2.39596 11.5439 2.34998 12 2.34998C12.4561 2.34998 12.8775 2.39596 13.192 2.4746C13.3474 2.51344 13.4909 2.56366 13.6015 2.62906C13.6954 2.68457 13.85 2.80179 13.85 2.99998C13.85 3.19816 13.6954 3.31538 13.6015 3.37089C13.4909 3.43629 13.3474 3.48651 13.192 3.52535C12.8775 3.604 12.4561 3.64998 12 3.64998C11.5439 3.64998 11.1226 3.604 10.808 3.52535C10.6527 3.48651 10.5092 3.43629 10.3986 3.37089C10.3046 3.31538 10.15 3.19816 10.15 2.99998C10.15 2.80179 10.3046 2.68457 10.3986 2.62906C10.5092 2.56366 10.6527 2.51344 10.808 2.4746Z" fill="#333333" class='xian'/>
<path fill-rule="evenodd" clip-rule="evenodd" d="M9.41667 6.5V8.38885C9.41667 8.74704 9.20993 9.07305 8.88594 9.22579C8.19248 9.55271 7.75 10.2505 7.75 11.0171V21.75H16.25V11.0171C16.25 10.2505 15.8075 9.55271 15.1141 9.22579C14.7901 9.07305 14.5833 8.74704 14.5833 8.38885V6.5H16.0833V8.0466C17.1108 8.67364 17.75 9.79566 17.75 11.0171V22.3474C17.75 22.8459 17.3459 23.25 16.8474 23.25H7.15258C6.6541 23.25 6.25 22.8459 6.25 22.3474V11.0171C6.25 9.79566 6.88915 8.67365 7.91667 8.0466V6.5H9.41667Z" fill="#333333" class='xian'/>
<path fill-rule="evenodd" clip-rule="evenodd" d="M9.5 3.75C9.63807 3.75 9.75 3.86193 9.75 4V7C9.75 7.13807 9.63807 7.25 9.5 7.25C9.36193 7.25 9.25 7.13807 9.25 7V4C9.25 3.86193 9.36193 3.75 9.5 3.75Z" fill="#333333" class='xian'/>
<path fill-rule="evenodd" clip-rule="evenodd" d="M12 4.25C12.1381 4.25 12.25 4.36193 12.25 4.5V7.5C12.25 7.63807 12.1381 7.75 12 7.75C11.8619 7.75 11.75 7.63807 11.75 7.5V4.5C11.75 4.36193 11.8619 4.25 12 4.25Z" fill="#333333" class='xian'/>
<path fill-rule="evenodd" clip-rule="evenodd" d="M10.75 3.75C10.8881 3.75 11 3.86193 11 4V7C11 7.13807 10.8881 7.25 10.75 7.25C10.6119 7.25 10.5 7.13807 10.5 7V4C10.5 3.86193 10.6119 3.75 10.75 3.75Z" fill="#333333" class='xian'/>
<path fill-rule="evenodd" clip-rule="evenodd" d="M14.5 3.75C14.6381 3.75 14.75 3.86193 14.75 4V7C14.75 7.13807 14.6381 7.25 14.5 7.25C14.3619 7.25 14.25 7.13807 14.25 7V4C14.25 3.86193 14.3619 3.75 14.5 3.75Z" fill="#333333" class='xian'/>
<path fill-rule="evenodd" clip-rule="evenodd" d="M13.25 3.75C13.3881 3.75 13.5 3.86193 13.5 4V7C13.5 7.13807 13.3881 7.25 13.25 7.25C13.1119 7.25 13 7.13807 13 7V4C13 3.86193 13.1119 3.75 13.25 3.75Z" fill="#333333" class='xian'/>
<path fill-rule="evenodd" clip-rule="evenodd" d="M10 6.59998C10.2761 6.59998 10.5 6.82383 10.5 7.09998V14.5C10.5 15.0795 10.6431 15.6673 10.8389 16.2777C10.9498 16.6235 11.0516 17.247 11.1231 17.7427C11.1601 17.9993 11.191 18.2365 11.2126 18.4095C11.2234 18.4961 11.2319 18.5667 11.2377 18.6159L11.2444 18.6729L11.2468 18.6931C11.2474 18.6991 11.2481 18.7056 11.2485 18.7116L11.4985 21.9617C11.5197 22.237 11.3137 22.4773 11.0383 22.4985C10.763 22.5197 10.5227 22.3137 10.5015 22.0383L10.2522 18.7977L10.2511 18.7881L10.2447 18.7337C10.2391 18.6863 10.2308 18.6177 10.2203 18.5335C10.1992 18.3648 10.1692 18.134 10.1333 17.8854C10.0591 17.3705 9.96726 16.8343 9.88671 16.5832C9.68077 15.9412 9.5 15.2358 9.5 14.5V7.09998C9.5 6.82383 9.72386 6.59998 10 6.59998Z" fill="#333333" class='xian'/>
<path fill-rule="evenodd" clip-rule="evenodd" d="M14 6.59998C13.7239 6.59998 13.5 6.82383 13.5 7.09998V14.5C13.5 15.0795 13.3569 15.6673 13.1611 16.2777C13.0502 16.6235 12.9484 17.247 12.8769 17.7427C12.8399 17.9993 12.809 18.2365 12.7874 18.4095C12.7766 18.4961 12.7681 18.5667 12.7623 18.6159L12.7556 18.6729L12.7532 18.6931C12.7526 18.6991 12.7519 18.7056 12.7515 18.7116L12.5015 21.9617C12.4803 22.237 12.6863 22.4773 12.9617 22.4985C13.237 22.5197 13.4773 22.3137 13.4985 22.0383L13.7478 18.7977L13.7489 18.7881L13.7553 18.7337C13.7609 18.6863 13.7692 18.6177 13.7797 18.5335C13.8008 18.3648 13.8308 18.134 13.8667 17.8854C13.9409 17.3705 14.0327 16.8343 14.1133 16.5832C14.3192 15.9412 14.5 15.2358 14.5 14.5V7.09998C14.5 6.82383 14.2761 6.59998 14 6.59998Z" fill="#333333" class='xian'/>
</svg>
