<svg width="24" height="24" viewBox="0 0 24 24" fill="none" xmlns="http://www.w3.org/2000/svg">
<path d="M4 12V22H20V12H4Z" fill="#242424" class='mian'/>
<path fill-rule="evenodd" clip-rule="evenodd" d="M3.25 12C3.25 11.5858 3.58579 11.25 4 11.25H20C20.4142 11.25 20.75 11.5858 20.75 12V22C20.75 22.4142 20.4142 22.75 20 22.75H4C3.58579 22.75 3.25 22.4142 3.25 22V12ZM4.75 12.75V21.25H19.25V12.75H4.75Z" fill="#333333" class='xian'/>
<path d="M14 2V12H20V2H14Z" fill="#242424" class='mian'/>
<path fill-rule="evenodd" clip-rule="evenodd" d="M13.25 2C13.25 1.58579 13.5858 1.25 14 1.25H20C20.4142 1.25 20.75 1.58579 20.75 2V12C20.75 12.4142 20.4142 12.75 20 12.75H14C13.5858 12.75 13.25 12.4142 13.25 12V2ZM14.75 2.75V11.25H19.25V2.75H14.75Z" fill="#333333" class='xian'/>
<path d="M11 6V12H14V6H11Z" fill="#747474" class='mian'/>
<path fill-rule="evenodd" clip-rule="evenodd" d="M10.25 6C10.25 5.58579 10.5858 5.25 11 5.25H14C14.4142 5.25 14.75 5.58579 14.75 6V12C14.75 12.4142 14.4142 12.75 14 12.75H11C10.5858 12.75 10.25 12.4142 10.25 12V6ZM11.75 6.75V11.25H13.25V6.75H11.75Z" fill="#333333" class='xian'/>
<path d="M15 13.2V15.8C15 15.9105 15.0895 16 15.2 16H15.8C15.9105 16 16 15.9105 16 15.8V13.2C16 13.0895 15.9105 13 15.8 13H15.2C15.0895 13 15 13.0895 15 13.2Z" fill="#111115"/>
<path d="M18.3 17L16.2 17C16.0895 17 16 17.0895 16 17.2L16 17.8C16 17.9105 16.0895 18 16.2 18L18.3 18C18.4105 18 18.5 17.9105 18.5 17.8L18.5 17.2C18.5 17.0895 18.4105 17 18.3 17Z" fill="#111115"/>
<path d="M7.92668 20.0327V20.5499C7.92668 20.6051 7.88191 20.6499 7.82668 20.6499H7.36001C7.30478 20.6499 7.26001 20.6051 7.26001 20.5499V20.0327C7.26001 19.9986 7.27737 19.9669 7.30607 19.9485L7.41395 19.8794C7.44265 19.861 7.46001 19.8293 7.46001 19.7952V19.6999C7.46001 19.6723 7.4824 19.6499 7.51001 19.6499H7.67668C7.70429 19.6499 7.72668 19.6723 7.72668 19.6999V19.7952C7.72668 19.8293 7.74404 19.861 7.77274 19.8794L7.88062 19.9485C7.90932 19.9669 7.92668 19.9986 7.92668 20.0327Z" fill="#DEDEDE"/>
<path d="M8.99333 20.0327V20.5499C8.99333 20.6051 8.94856 20.6499 8.89333 20.6499H8.42666C8.37143 20.6499 8.32666 20.6051 8.32666 20.5499V20.0327C8.32666 19.9986 8.34402 19.9669 8.37272 19.9485L8.4806 19.8794C8.5093 19.861 8.52666 19.8293 8.52666 19.7952V19.6999C8.52666 19.6723 8.54905 19.6499 8.57666 19.6499H8.74333C8.77094 19.6499 8.79333 19.6723 8.79333 19.6999V19.7952C8.79333 19.8293 8.81069 19.861 8.83939 19.8794L8.94727 19.9485C8.97597 19.9669 8.99333 19.9986 8.99333 20.0327Z" fill="#DEDEDE"/>
<path fill-rule="evenodd" clip-rule="evenodd" d="M8.75796 20.5499L8.74332 20.527Z" fill="#333333" class='xian'/>
<path d="M4 12V19H11V12H4Z" fill="#747474" class='mian'/>
<path fill-rule="evenodd" clip-rule="evenodd" d="M3.25 12C3.25 11.5858 3.58579 11.25 4 11.25H11C11.4142 11.25 11.75 11.5858 11.75 12V19C11.75 19.4142 11.4142 19.75 11 19.75H4C3.58579 19.75 3.25 19.4142 3.25 19V12ZM4.75 12.75V18.25H10.25V12.75H4.75Z" fill="#333333" class='xian'/>
<path d="M14 16.2V18.8C14 18.9105 14.0895 19 14.2 19H16.8C16.9105 19 17 18.9105 17 18.8V16.2C17 16.0895 16.9105 16 16.8 16H14.2C14.0895 16 14 16.0895 14 16.2Z" fill="#0D0D0D"/>
<path fill-rule="evenodd" clip-rule="evenodd" d="M13.8 16.2C13.8 15.9791 13.9791 15.8 14.2 15.8H16.8C17.021 15.8 17.2 15.9791 17.2 16.2V18.8C17.2 19.0209 17.021 19.2 16.8 19.2H14.2C13.9791 19.2 13.8 19.0209 13.8 18.8V16.2ZM16.8 16.2L14.2 16.2V18.8H16.8V16.2Z" fill="#6F6F6F"/>
<path d="M14.75 17.2V17.55C14.75 17.6605 14.8395 17.75 14.95 17.75H16.05C16.1605 17.75 16.25 17.6605 16.25 17.55V17.2C16.25 17.0895 16.1605 17 16.05 17H14.95C14.8395 17 14.75 17.0895 14.75 17.2Z" fill="#B8B8B8"/>
<path d="M6.5 20.6734V22.05C6.5 22.1605 6.41046 22.25 6.3 22.25H5.2C5.08954 22.25 5 22.1605 5 22.05V20.6734C5 20.6087 5.0313 20.548 5.08402 20.5105L5.40799 20.2799C5.43435 20.2611 5.45 20.2308 5.45 20.1984V19.85C5.45 19.7948 5.49477 19.75 5.55 19.75H5.95C6.00523 19.75 6.05 19.7948 6.05 19.85V20.1984C6.05 20.2308 6.06565 20.2611 6.09201 20.2799L6.41598 20.5105C6.4687 20.548 6.5 20.6087 6.5 20.6734Z" fill="#DEDEDE"/>
<path d="M11.25 20.6734V22.05C11.25 22.1605 11.1605 22.25 11.05 22.25H9.95C9.83954 22.25 9.75 22.1605 9.75 22.05V20.6734C9.75 20.6087 9.7813 20.548 9.83402 20.5105L10.158 20.2799C10.1843 20.2611 10.2 20.2308 10.2 20.1984V19.85C10.2 19.7948 10.2448 19.75 10.3 19.75H10.7C10.7552 19.75 10.8 19.7948 10.8 19.85V20.1984C10.8 20.2308 10.8157 20.2611 10.842 20.2799L11.166 20.5105C11.2187 20.548 11.25 20.6087 11.25 20.6734Z" fill="#DEDEDE"/>
</svg>
