<svg width="24" height="24" viewBox="0 0 24 24" fill="none" xmlns="http://www.w3.org/2000/svg">
<path d="M6.5 3V7H13.5V3H6.5Z" fill="#9F978E" class='mian'/>
<path fill-rule="evenodd" clip-rule="evenodd" d="M5.75 3C5.75 2.58579 6.08579 2.25 6.5 2.25H13.5C13.9142 2.25 14.25 2.58579 14.25 3V7C14.25 7.41421 13.9142 7.75 13.5 7.75H6.5C6.08579 7.75 5.75 7.41421 5.75 7V3ZM7.25 3.75V6.25H12.75V3.75H7.25Z" fill="#333333" class='xian'/>
<path d="M13.5 3V7H17.5V3H13.5Z" fill="#5C6A84" class='mian'/>
<path fill-rule="evenodd" clip-rule="evenodd" d="M12.75 3C12.75 2.58579 13.0858 2.25 13.5 2.25H17.5C17.9142 2.25 18.25 2.58579 18.25 3V7C18.25 7.41421 17.9142 7.75 17.5 7.75H13.5C13.0858 7.75 12.75 7.41421 12.75 7V3ZM14.25 3.75V6.25H16.75V3.75H14.25Z" fill="#333333" class='xian'/>
<path d="M7 7V10H17V7H7Z" fill="#5C6A84" class='mian'/>
<path d="M9 8.25V8.75H15V8.25H9Z" fill="#322E2A"/>
<path d="M12.5 4.7V6.3C12.5 6.41046 12.5895 6.5 12.7 6.5H14.3C14.4105 6.5 14.5 6.41046 14.5 6.3V4.7C14.5 4.58954 14.4105 4.5 14.3 4.5H12.7C12.5895 4.5 12.5 4.58954 12.5 4.7Z" fill="#111115"/>
<path d="M12 5.7V7.175C12 7.28546 12.0895 7.375 12.2 7.375H14.8C14.9105 7.375 15 7.28546 15 7.175V5.7C15 5.58954 14.9105 5.5 14.8 5.5H12.2C12.0895 5.5 12 5.58954 12 5.7Z" fill="#111115"/>
<path fill-rule="evenodd" clip-rule="evenodd" d="M5.75 7C5.75 6.58579 6.08579 6.25 6.5 6.25H17.5C17.9142 6.25 18.25 6.58579 18.25 7V10C18.25 10.4142 17.9142 10.75 17.5 10.75H6.5C6.08579 10.75 5.75 10.4142 5.75 10V7ZM7.25 7.75V9.25H16.75V7.75H7.25Z" fill="#333333" class='xian'/>
<path d="M6.5 17V21H17.5V17H6.5Z" fill="#5C6A84" class='mian'/>
<path fill-rule="evenodd" clip-rule="evenodd" d="M5.75 17C5.75 16.5858 6.08579 16.25 6.5 16.25H17.5C17.9142 16.25 18.25 16.5858 18.25 17V21C18.25 21.4142 17.9142 21.75 17.5 21.75H6.5C6.08579 21.75 5.75 21.4142 5.75 21V17ZM7.25 17.75V20.25H16.75V17.75H7.25Z" fill="#333333" class='xian'/>
<path d="M6.5 10V17H17.5V10H6.5Z" fill="#9F978E" class='mian'/>
<path fill-rule="evenodd" clip-rule="evenodd" d="M5.75 10C5.75 9.58579 6.08579 9.25 6.5 9.25H17.5C17.9142 9.25 18.25 9.58579 18.25 10V17C18.25 17.4142 17.9142 17.75 17.5 17.75H6.5C6.08579 17.75 5.75 17.4142 5.75 17V10ZM7.25 10.75V16.25H16.75V10.75H7.25Z" fill="#333333" class='xian'/>
<path d="M8.5 11.5V15.5C8.5 15.7761 8.72386 16 9 16H15C15.2761 16 15.5 15.7761 15.5 15.5V11.5C15.5 11.2239 15.2761 11 15 11H9C8.72386 11 8.5 11.2239 8.5 11.5Z" fill="#0D0D0F"/>
<path fill-rule="evenodd" clip-rule="evenodd" d="M8.9999 11.1C8.77899 11.1 8.5999 11.2791 8.5999 11.5V15.5C8.5999 15.7209 8.77899 15.9 8.9999 15.9H14.9999C15.2208 15.9 15.3999 15.7209 15.3999 15.5V11.5C15.3999 11.2791 15.2208 11.1 14.9999 11.1H8.9999ZM8.3999 11.5C8.3999 11.1686 8.66853 10.9 8.9999 10.9H14.9999C15.3313 10.9 15.5999 11.1686 15.5999 11.5V15.5C15.5999 15.8314 15.3313 16.1 14.9999 16.1H8.9999C8.66853 16.1 8.3999 15.8314 8.3999 15.5V11.5Z" fill="#EDEBEC"/>
<path d="M9.5 12.45V14.55C9.5 14.6605 9.58954 14.75 9.7 14.75H14.3C14.4105 14.75 14.5 14.6605 14.5 14.55V12.45C14.5 12.3395 14.4105 12.25 14.3 12.25H9.7C9.58954 12.25 9.5 12.3395 9.5 12.45Z" fill="#D5DAE2"/>
<path d="M10.5 12.5V14.5C10.5 14.5276 10.5224 14.55 10.55 14.55H14.25C14.2776 14.55 14.3 14.5276 14.3 14.5V12.5C14.3 12.4723 14.2776 12.45 14.25 12.45H10.55C10.5224 12.45 10.5 12.4723 10.5 12.5Z" fill="#161B1B"/>
<path d="M14.2 18.7594V19.8C14.2 19.9105 14.1105 20 14 20H13.2C13.0895 20 13 19.9105 13 19.8V18.7594C13 18.6947 13.0313 18.634 13.084 18.5964L13.318 18.4299C13.3443 18.4111 13.36 18.3808 13.36 18.3484V18.1C13.36 18.0448 13.4048 18 13.46 18H13.74C13.7952 18 13.84 18.0448 13.84 18.1V18.3484C13.84 18.3808 13.8557 18.4111 13.882 18.4299L14.116 18.5964C14.1687 18.634 14.2 18.6947 14.2 18.7594Z" fill="white"/>
<path d="M16.4 18.7594V19.8C16.4 19.9105 16.3104 20 16.2 20H15.4C15.2895 20 15.2 19.9105 15.2 19.8V18.7594C15.2 18.6947 15.2313 18.634 15.284 18.5964L15.5179 18.4299C15.5443 18.4111 15.5599 18.3808 15.5599 18.3484V18.1C15.5599 18.0448 15.6047 18 15.6599 18H15.94C15.9952 18 16.04 18.0448 16.04 18.1V18.3484C16.04 18.3808 16.0556 18.4111 16.082 18.4299L16.3159 18.5964C16.3686 18.634 16.4 18.6947 16.4 18.7594Z" fill="white"/>
</svg>
