<svg width="24" height="24" viewBox="0 0 24 24" fill="none" xmlns="http://www.w3.org/2000/svg">
<path fill-rule="evenodd" clip-rule="evenodd" d="M6 19.25C6.41421 19.25 6.75 19.5858 6.75 20V22C6.75 22.4142 6.41421 22.75 6 22.75C5.58579 22.75 5.25 22.4142 5.25 22V20C5.25 19.5858 5.58579 19.25 6 19.25Z" fill="#333333" class='xian'/>
<path fill-rule="evenodd" clip-rule="evenodd" d="M18 19.25C18.4142 19.25 18.75 19.5858 18.75 20V22C18.75 22.4142 18.4142 22.75 18 22.75C17.5858 22.75 17.25 22.4142 17.25 22V20C17.25 19.5858 17.5858 19.25 18 19.25Z" fill="#333333" class='xian'/>
<path d="M5 3V20H19V3H5Z" fill="#222222" class='mian'/>
<path d="M5 14V16H19V14H5Z" fill="#848484"/>
<path d="M5 3V7H8V3H5Z" fill="#848484"/>
<path d="M5 7V15H7V7H5Z" fill="#848484"/>
<path fill-rule="evenodd" clip-rule="evenodd" d="M4.25 3C4.25 2.58579 4.58579 2.25 5 2.25H19C19.4142 2.25 19.75 2.58579 19.75 3V20C19.75 20.4142 19.4142 20.75 19 20.75H5C4.58579 20.75 4.25 20.4142 4.25 20V3ZM5.75 3.75V19.25H18.25V3.75H5.75Z" fill="#333333" class='xian'/>
<path d="M11 4.2V9.8C11 9.91046 11.0895 10 11.2 10H12.8C12.9105 10 13 9.91046 13 9.8V4.2C13 4.08954 12.9105 4 12.8 4H11.2C11.0895 4 11 4.08954 11 4.2Z" fill="#111115"/>
<path d="M15.3 9L13.2 9C13.0895 9 13 9.08954 13 9.2L13 9.8C13 9.91046 13.0895 10 13.2 10L15.3 10C15.4105 10 15.5 9.91046 15.5 9.8L15.5 9.2C15.5 9.08954 15.4105 9 15.3 9Z" fill="#111115"/>
<path d="M9 7.2V12.8C9 12.9105 9.08954 13 9.2 13H14.8C14.9105 13 15 12.9105 15 12.8V7.2C15 7.08954 14.9105 7 14.8 7H9.2C9.08954 7 9 7.08954 9 7.2Z" fill="#0D0D0D"/>
<path fill-rule="evenodd" clip-rule="evenodd" d="M9.29995 7.30001V12.7H14.7V7.30001H9.29995ZM8.69995 7.20001C8.69995 6.92387 8.92381 6.70001 9.19995 6.70001H14.8C15.0761 6.70001 15.3 6.92387 15.3 7.20001V12.8C15.3 13.0762 15.0761 13.3 14.8 13.3H9.19995C8.92381 13.3 8.69995 13.0762 8.69995 12.8V7.20001Z" fill="#D8D8D8"/>
<path d="M9.5 16.9234V18.3C9.5 18.4105 9.41046 18.5 9.3 18.5H8.2C8.08954 18.5 8 18.4105 8 18.3V16.9234C8 16.8587 8.0313 16.798 8.08402 16.7605L8.40799 16.5299C8.43435 16.5111 8.45 16.4808 8.45 16.4484V16.1C8.45 16.0448 8.49477 16 8.55 16H8.95C9.00523 16 9.05 16.0448 9.05 16.1V16.4484C9.05 16.4808 9.06565 16.5111 9.09201 16.5299L9.41598 16.7605C9.4687 16.798 9.5 16.8587 9.5 16.9234Z" fill="white"/>
<path d="M11.7 16.7594V17.8C11.7 17.9105 11.6105 18 11.5 18H10.7C10.5895 18 10.5 17.9105 10.5 17.8V16.7594C10.5 16.6947 10.5313 16.634 10.584 16.5964L10.818 16.4299C10.8443 16.4111 10.86 16.3808 10.86 16.3484V16.1C10.86 16.0448 10.9048 16 10.96 16H11.24C11.2952 16 11.34 16.0448 11.34 16.1V16.3484C11.34 16.3808 11.3557 16.4111 11.382 16.4299L11.616 16.5964C11.6687 16.634 11.7 16.6947 11.7 16.7594Z" fill="white"/>
<path d="M13.9 16.7594V17.8C13.9 17.9105 13.8104 18 13.7 18H12.9C12.7895 18 12.7 17.9105 12.7 17.8V16.7594C12.7 16.6947 12.7313 16.634 12.784 16.5964L13.0179 16.4299C13.0443 16.4111 13.0599 16.3808 13.0599 16.3484V16.1C13.0599 16.0448 13.1047 16 13.1599 16H13.44C13.4952 16 13.54 16.0448 13.54 16.1V16.3484C13.54 16.3808 13.5556 16.4111 13.582 16.4299L13.8159 16.5964C13.8686 16.634 13.9 16.6947 13.9 16.7594Z" fill="white"/>
<path d="M16.0999 16.7594V17.8C16.0999 17.9105 16.0104 18 15.8999 18H15.0999C14.9894 18 14.8999 17.9105 14.8999 17.8V16.7594C14.8999 16.6947 14.9312 16.634 14.9839 16.5964L15.2179 16.4299C15.2442 16.4111 15.2599 16.3808 15.2599 16.3484V16.1C15.2599 16.0448 15.3047 16 15.3599 16H15.6399C15.6951 16 15.7399 16.0448 15.7399 16.1V16.3484C15.7399 16.3808 15.7556 16.4111 15.7819 16.4299L16.0159 16.5964C16.0686 16.634 16.0999 16.6947 16.0999 16.7594Z" fill="white"/>
<path d="M10 9.2V10.8C10 10.9105 10.0895 11 10.2 11H13.8C13.9105 11 14 10.9105 14 10.8V9.2C14 9.08954 13.9105 9 13.8 9H10.2C10.0895 9 10 9.08954 10 9.2Z" fill="#D5DAE2"/>
<path d="M10.8 9.20997V10.79C10.8 10.8176 10.8224 10.84 10.85 10.84H13.79C13.8177 10.84 13.84 10.8176 13.84 10.79V9.20997C13.84 9.18236 13.8177 9.15997 13.79 9.15997H10.85C10.8224 9.15997 10.8 9.18236 10.8 9.20997Z" fill="#161B1B"/>
</svg>
