<svg width="24" height="24" viewBox="0 0 24 24" fill="none" xmlns="http://www.w3.org/2000/svg">
<path fill-rule="evenodd" clip-rule="evenodd" d="M22 21.25C22 21.6642 21.6642 22 21.25 22L2.75 22C2.33579 22 2 21.6642 2 21.25C2 20.8358 2.33579 20.5 2.75 20.5L21.25 20.5C21.6642 20.5 22 20.8358 22 21.25Z" fill="#333333" class='xian'/>
<path d="M17.7116 4.176C17.8503 4.21867 18.0063 4.24 18.1796 4.24C18.369 4.24 18.5223 4.21333 18.6396 4.16C18.7596 4.10933 18.8196 4.04267 18.8196 3.96V3.948V3.936C18.817 3.92533 18.813 3.91467 18.8076 3.904C18.797 3.87733 18.773 3.852 18.7356 3.828C18.6316 3.75867 18.437 3.70933 18.1516 3.68C17.4236 3.60267 17.0596 3.32267 17.0596 2.84C17.0596 2.61067 17.1503 2.41867 17.3316 2.264C17.5343 2.088 17.817 2 18.1796 2C18.617 2 18.9583 2.10933 19.2036 2.328C19.2623 2.37867 19.2943 2.44267 19.2996 2.52C19.305 2.59733 19.281 2.664 19.2276 2.72C19.177 2.77867 19.113 2.81067 19.0356 2.816C18.9583 2.82133 18.8916 2.79733 18.8356 2.744C18.777 2.69333 18.6956 2.652 18.5916 2.62C18.469 2.58 18.3316 2.56 18.1796 2.56C18.009 2.56 17.873 2.58533 17.7716 2.636C17.6703 2.68667 17.6196 2.75467 17.6196 2.84V2.852V2.864C17.6223 2.87733 17.625 2.88933 17.6276 2.9C17.641 2.92933 17.6636 2.956 17.6956 2.98C17.7863 3.04933 17.957 3.096 18.2076 3.12L18.2396 3.124L18.2756 3.128L18.3516 3.14C18.413 3.148 18.4716 3.15733 18.5276 3.168C18.677 3.19733 18.8063 3.23733 18.9156 3.288C19.225 3.42933 19.3796 3.65333 19.3796 3.96C19.3796 4.184 19.2903 4.372 19.1116 4.524C18.8983 4.708 18.5876 4.8 18.1796 4.8C17.705 4.8 17.3383 4.68933 17.0796 4.468C17.021 4.41733 16.9876 4.35467 16.9796 4.28C16.9743 4.20267 16.997 4.13467 17.0476 4.076C17.0983 4.01733 17.1623 3.984 17.2396 3.976C17.3143 3.97067 17.381 3.99333 17.4396 4.044C17.5036 4.09733 17.5943 4.14133 17.7116 4.176Z" fill="#333333" class='xian'/>
<path d="M16.4921 4.71989C16.4361 4.77322 16.3694 4.79989 16.2921 4.79989C16.2147 4.79989 16.1481 4.77322 16.0921 4.71989C16.0387 4.66389 16.0121 4.59722 16.0121 4.51989V3.08789L15.3121 3.97189C15.2587 4.04122 15.1854 4.07589 15.0921 4.07589C14.9987 4.07589 14.9254 4.04122 14.8721 3.97189L14.1721 3.08789V4.51989C14.1721 4.59722 14.1454 4.66389 14.0921 4.71989C14.0361 4.77322 13.9694 4.79989 13.8921 4.79989C13.8147 4.79989 13.7481 4.77322 13.6921 4.71989C13.6387 4.66389 13.6121 4.59722 13.6121 4.51989V2.27989C13.6121 2.14655 13.6747 2.05855 13.8001 2.01589C13.9254 1.97055 14.0294 2.00122 14.1121 2.10789L15.0921 3.34789L16.0721 2.10789C16.1547 2.00389 16.2587 1.97322 16.3841 2.01589C16.5094 2.05855 16.5721 2.14655 16.5721 2.27989V4.51989C16.5721 4.59722 16.5454 4.66389 16.4921 4.71989Z" fill="#333333" class='xian'/>
<path d="M21.4888 2.71205C21.2808 2.50405 21.0288 2.40005 20.7328 2.40005C20.4395 2.40005 20.1875 2.50405 19.9768 2.71205C19.7688 2.92272 19.6648 3.17472 19.6648 3.46805V4.52005C19.6648 4.59738 19.6928 4.66405 19.7488 4.72005C19.8021 4.77338 19.8675 4.80005 19.9448 4.80005C20.0221 4.80005 20.0888 4.77338 20.1448 4.72005C20.1981 4.66405 20.2248 4.59738 20.2248 4.52005V3.46805C20.2248 3.32938 20.2741 3.20938 20.3728 3.10805C20.4741 3.00938 20.5941 2.96005 20.7328 2.96005C20.8741 2.96005 20.9941 3.00938 21.0928 3.10805C21.1915 3.20938 21.2408 3.32938 21.2408 3.46805V4.52005C21.2408 4.59738 21.2688 4.66405 21.3248 4.72005C21.3781 4.77338 21.4435 4.80005 21.5208 4.80005C21.5981 4.80005 21.6648 4.77338 21.7208 4.72005C21.7741 4.66405 21.8008 4.59738 21.8008 4.52005V3.46805C21.8008 3.17472 21.6968 2.92272 21.4888 2.71205Z" fill="#333333" class='xian'/>
<path fill-rule="evenodd" clip-rule="evenodd" d="M5.25 11.75L5.25 18.25C5.25 18.6642 4.91421 19 4.5 19C4.08579 19 3.75 18.6642 3.75 18.25L3.75 11.75C3.75 11.3358 4.08579 11 4.5 11C4.91421 11 5.25 11.3358 5.25 11.75Z" fill="#333333" class='xian'/>
<path fill-rule="evenodd" clip-rule="evenodd" d="M8.25 6.25L8.25 18.25C8.25 18.6642 7.91421 19 7.5 19C7.08579 19 6.75 18.6642 6.75 18.25L6.75 6.25C6.75 5.83579 7.08579 5.5 7.5 5.5C7.91421 5.5 8.25 5.83579 8.25 6.25Z" fill="#333333" class='xian'/>
<path fill-rule="evenodd" clip-rule="evenodd" d="M11.25 10.25L11.25 18.25C11.25 18.6642 10.9142 19 10.5 19C10.0858 19 9.75 18.6642 9.75 18.25L9.75 10.25C9.75 9.83579 10.0858 9.5 10.5 9.5C10.9142 9.5 11.25 9.83579 11.25 10.25Z" fill="#333333" class='xian'/>
<path fill-rule="evenodd" clip-rule="evenodd" d="M14.25 14.25L14.25 18.25C14.25 18.6642 13.9142 19 13.5 19C13.0858 19 12.75 18.6642 12.75 18.25L12.75 14.25C12.75 13.8358 13.0858 13.5 13.5 13.5C13.9142 13.5 14.25 13.8358 14.25 14.25Z" fill="#333333" class='xian'/>
<path fill-rule="evenodd" clip-rule="evenodd" d="M17.25 13.25L17.25 18.25C17.25 18.6642 16.9142 19 16.5 19C16.0858 19 15.75 18.6642 15.75 18.25L15.75 13.25C15.75 12.8358 16.0858 12.5 16.5 12.5C16.9142 12.5 17.25 12.8358 17.25 13.25Z" fill="#333333" class='xian'/>
<path fill-rule="evenodd" clip-rule="evenodd" d="M20.25 9.25L20.25 18.25C20.25 18.6642 19.9142 19 19.5 19C19.0858 19 18.75 18.6642 18.75 18.25L18.75 9.25C18.75 8.83579 19.0858 8.5 19.5 8.5C19.9142 8.5 20.25 8.83579 20.25 9.25Z" fill="#333333" class='xian'/>
</svg>
