<svg width="24" height="24" viewBox="0 0 24 24" fill="none" xmlns="http://www.w3.org/2000/svg">
<path d="M14.25 4.25C14.25 5.49264 13.2426 6.5 12 6.5C10.7574 6.5 9.75 5.49264 9.75 4.25C9.75 3.00736 10.7574 2 12 2C13.2426 2 14.25 3.00736 14.25 4.25Z" fill="rgba(0,0,0,0)" class='mian'/>
<path fill-rule="evenodd" clip-rule="evenodd" d="M12 2.75C11.1716 2.75 10.5 3.42157 10.5 4.25C10.5 5.07843 11.1716 5.75 12 5.75C12.8284 5.75 13.5 5.07843 13.5 4.25C13.5 3.42157 12.8284 2.75 12 2.75ZM9 4.25C9 2.59315 10.3431 1.25 12 1.25C13.6569 1.25 15 2.59315 15 4.25C15 5.90685 13.6569 7.25 12 7.25C10.3431 7.25 9 5.90685 9 4.25Z" fill="#333333" class='xian'/>
<path d="M9.5 20.7976C9.5 21.4617 10.0596 22 10.75 22C11.4404 22 12 21.4617 12 20.7976C12 21.4617 12.5596 22 13.25 22C13.9404 22 14.5 21.4617 14.5 20.7976V17H9.5V20.7976Z" fill="rgba(0,0,0,0)" class='mian'/>
<path fill-rule="evenodd" clip-rule="evenodd" d="M8.75 16.25H15.25V20.7976C15.25 21.9031 14.3269 22.75 13.25 22.75C12.7837 22.75 12.3462 22.5912 12 22.3213C11.6538 22.5912 11.2163 22.75 10.75 22.75C9.67314 22.75 8.75 21.903 8.75 20.7976V16.25ZM12.75 20.7976C12.75 21.0203 12.9462 21.25 13.25 21.25C13.5538 21.25 13.75 21.0203 13.75 20.7976V17.75H12.75V20.7976ZM11.25 17.75V20.7976C11.25 21.0203 11.0538 21.25 10.75 21.25C10.4462 21.25 10.25 21.0203 10.25 20.7976V17.75H11.25Z" fill="#333333" class='xian'/>
<path d="M7.89865 17.0702H16.1087L15.4245 15.4282H15.6982C15.6982 15.4282 17.5 14.5 17 13C16.5 11.5 15.9674 8.5 12 8.5C8.03256 8.5 7.5 11.5 7 13C6.5 14.5 8.30916 15.4282 8.30916 15.4282H8.58283L7.89865 17.0702Z" fill="rgba(0,0,0,0)" class='mian'/>
<path fill-rule="evenodd" clip-rule="evenodd" d="M7.8689 12.7415C7.81681 12.9096 7.76544 13.0754 7.71152 13.2372C7.58431 13.6188 7.72008 13.947 8.01654 14.2661C8.07144 14.3252 8.12883 14.3801 8.18606 14.4304L9.25887 11.8557C9.41818 11.4733 9.85729 11.2925 10.2396 11.4518C10.622 11.6111 10.8028 12.0502 10.6435 12.4326L9.02366 16.3202H14.9837L13.3639 12.4326C13.2046 12.0502 13.3854 11.6111 13.7677 11.4518C14.1501 11.2925 14.5892 11.4733 14.7485 11.8557L15.8206 14.4287C15.8764 14.3792 15.9324 14.3253 15.986 14.2674C16.2804 13.949 16.4162 13.6203 16.2885 13.2372C16.2346 13.0754 16.1832 12.9096 16.1311 12.7415C15.9124 12.0357 15.6811 11.2893 15.1967 10.6327C14.6519 9.89409 13.7547 9.25 12 9.25C10.2453 9.25 9.34814 9.89409 8.80327 10.6327C8.3189 11.2893 8.08763 12.0357 7.8689 12.7415ZM16.4182 15.863C16.6072 15.7317 16.8536 15.5385 17.0873 15.2858C17.5688 14.7651 18.0838 13.8797 17.7115 12.7628C17.6748 12.6527 17.6357 12.5247 17.5924 12.3828C17.3767 11.676 17.0563 10.6268 16.4038 9.74228C15.5656 8.60591 14.2128 7.75 12 7.75C9.78722 7.75 8.43443 8.60591 7.59616 9.74228C6.94367 10.6268 6.62335 11.6761 6.40759 12.3828C6.36429 12.5247 6.32521 12.6527 6.28849 12.7628C5.91571 13.8812 6.43451 14.7671 6.91763 15.2871C7.15213 15.5395 7.39926 15.7324 7.58889 15.8636L7.20635 16.7817C7.1099 17.0132 7.13552 17.2776 7.27462 17.4862C7.41372 17.6949 7.64789 17.8202 7.89866 17.8202H16.1087C16.3595 17.8202 16.5937 17.6949 16.7328 17.4862C16.8719 17.2776 16.8975 17.0132 16.801 16.7817L16.4182 15.863ZM15.3517 14.763C15.3512 14.7633 15.3514 14.7632 15.3517 14.763Z" fill="#333333" class='xian'/>
</svg>
