<svg width="24" height="24" viewBox="0 0 24 24" fill="none" xmlns="http://www.w3.org/2000/svg">
<path d="M22 14.6135C20.5 15.227 4.3779 14.6135 4.3779 14.6135C4.3779 10.6975 5.72089 9.02099 7.61044 7.76049C9.5 6.49998 10.5 6.49998 14 6.5L15 4H17L18.5 5V7.99999C21 8.99999 23.5 14 22 14.6135Z" fill="rgba(0,0,0,0)" class='mian'/>
<path fill-rule="evenodd" clip-rule="evenodd" d="M5.08941 14.3763C5.2204 14.7693 5.00803 15.194 4.61507 15.325C4.10552 15.4948 3.44123 16.071 3.04809 16.8037C2.65392 17.5384 2.66628 18.1449 2.99498 18.5376C3.53923 19.1877 4.07547 19.5549 4.71885 19.693C5.38213 19.8354 6.26774 19.7578 7.54857 19.293C8.89225 18.8054 11.3316 17.937 13.7535 17.7571C16.1634 17.5781 18.8223 18.0721 20.2109 20.6179C20.4092 20.9815 20.2753 21.4371 19.9116 21.6354C19.548 21.8338 19.0924 21.6998 18.8941 21.3362C17.933 19.5743 16.0668 19.0894 13.8646 19.253C11.6743 19.4157 9.41441 20.2116 8.06025 20.703C6.64324 21.2172 5.45125 21.3844 4.40407 21.1596C3.33697 20.9306 2.52987 20.3188 1.8448 19.5004C0.944174 18.4246 1.20129 17.0731 1.72632 16.0945C2.2524 15.114 3.18177 14.2216 4.14073 13.902C4.53369 13.771 4.95843 13.9834 5.08941 14.3763Z" fill="#333333" class='xian'/>
<path d="M19.4685 11.7343C19.4685 12.1398 19.1398 12.4685 18.7343 12.4685C18.3287 12.4685 18 12.1398 18 11.7343C18 11.3287 18.3287 11 18.7343 11C19.1398 11 19.4685 11.3287 19.4685 11.7343Z" fill="#333333" class='xian'/>
<path fill-rule="evenodd" clip-rule="evenodd" d="M7.25 12.5C7.25 12.0858 7.58579 11.75 8 11.75C9.07005 11.75 9.92888 11.9554 10.5105 12.4958C11.1098 13.0527 11.25 13.8088 11.25 14.5C11.25 14.9142 10.9142 15.25 10.5 15.25C10.0858 15.25 9.75 14.9142 9.75 14.5C9.75 13.9786 9.64017 13.7347 9.4895 13.5947C9.32112 13.4383 8.92995 13.25 8 13.25C7.58579 13.25 7.25 12.9142 7.25 12.5Z" fill="#333333" class='xian'/>
<path fill-rule="evenodd" clip-rule="evenodd" d="M13.2517 12.3502C13.2792 11.9369 13.6366 11.6242 14.0499 11.6517C14.911 11.7091 15.7 11.9678 16.2898 12.4543C16.8964 12.9547 17.25 13.6652 17.25 14.5001C17.25 14.9143 16.9142 15.2501 16.5 15.2501C16.0858 15.2501 15.75 14.9143 15.75 14.5001C15.75 14.1223 15.6036 13.8328 15.3352 13.6114C15.05 13.376 14.589 13.191 13.9501 13.1484C13.5368 13.1208 13.2241 12.7635 13.2517 12.3502Z" fill="#333333" class='xian'/>
<path fill-rule="evenodd" clip-rule="evenodd" d="M18.0788 4.70765C18.4661 4.56067 18.8992 4.75544 19.0461 5.1427C19.1846 5.50747 19.2103 5.94766 19.2048 6.32558C19.199 6.72408 19.1556 7.14696 19.1034 7.52431C19.0507 7.90414 18.9871 8.25204 18.9369 8.50425C18.9117 8.63075 18.8896 8.73414 18.8738 8.80658C18.8658 8.84282 18.8594 8.87137 18.8549 8.89127L18.8495 8.91451L18.848 8.92105L18.8476 8.923C18.8476 8.923 17.6285 8.6374 18.8473 8.92407C18.7525 9.32728 18.3487 9.57726 17.9455 9.48243C17.5424 9.3876 17.2924 8.98396 17.3871 8.58082M17.3871 8.58082C17.4154 8.45806 17.4412 8.33474 17.4658 8.2112C17.5121 7.97851 17.5701 7.66094 17.6175 7.3185C17.6653 6.97357 17.7004 6.61737 17.705 6.30376C17.7098 5.96957 17.6778 5.76462 17.6438 5.67499C17.4968 5.28773 17.6915 4.85464 18.0788 4.70765" fill="#333333" class='xian'/>
<path fill-rule="evenodd" clip-rule="evenodd" d="M16.809 4.87433C16.3861 4.67014 15.9573 4.64573 15.5923 4.84294C15.2279 5.03986 14.7728 4.90407 14.5759 4.53966C14.379 4.17525 14.5148 3.7202 14.8792 3.52329C15.7785 3.03735 16.7318 3.17136 17.4612 3.52356C18.1707 3.86614 18.7915 4.4717 19.0461 5.14261C19.1931 5.52986 18.9983 5.96296 18.6111 6.10994C18.2238 6.25693 17.7907 6.06215 17.6438 5.6749C17.5535 5.437 17.2518 5.08816 16.809 4.87433Z" fill="#333333" class='xian'/>
<path fill-rule="evenodd" clip-rule="evenodd" d="M15.8956 3.8266C16.0925 4.19101 15.9567 4.64606 15.5923 4.84297C15.2376 5.03463 14.9035 5.55697 14.9244 6.17307C14.943 6.72055 15.2563 7.41744 16.3489 7.91032C16.7264 8.08065 16.8945 8.52481 16.7241 8.90239C16.5538 9.27996 16.1096 9.44796 15.7321 9.27764C14.1868 8.58057 13.4657 7.41362 13.4253 6.22395C13.3872 5.10291 13.9697 4.01481 14.8792 3.52332C15.2436 3.3264 15.6987 3.46218 15.8956 3.8266Z" fill="#333333" class='xian'/>
<path fill-rule="evenodd" clip-rule="evenodd" d="M13.9255 5.75L14 5.75C14.4142 5.75001 14.75 6.08579 14.75 6.50001C14.75 6.91422 14.4142 7.25001 14 7.25C12.2233 7.24999 11.1736 7.25252 10.3274 7.39687C9.53186 7.53257 8.90715 7.79703 8.02665 8.3844C7.1444 8.97295 6.44112 9.62365 5.9465 10.5457C5.516 11.3482 5.21738 12.4056 5.14494 13.8907C5.5854 13.9061 6.2031 13.927 6.94382 13.9501C8.47677 13.998 10.5354 14.0554 12.6401 14.0937C14.7463 14.132 16.8919 14.151 18.6012 14.1224C19.4569 14.1082 20.194 14.0821 20.7584 14.0416C21.0411 14.0213 21.2713 13.998 21.4468 13.9724C21.5343 13.9597 21.6021 13.9473 21.6522 13.9359C21.6637 13.9333 21.6736 13.9309 21.6818 13.9288C21.6983 13.8821 21.717 13.7723 21.692 13.5436C21.6433 13.0995 21.4362 12.4782 21.0837 11.7959C20.7361 11.1232 20.2725 10.4401 19.7575 9.87337C19.2354 9.29891 18.7005 8.88797 18.2215 8.69635C17.8369 8.54252 17.6498 8.10604 17.8036 7.72145C17.9575 7.33686 18.394 7.1498 18.7785 7.30364C19.5495 7.61202 20.2646 8.20108 20.8675 8.86455C21.4775 9.53575 22.0139 10.3285 22.4163 11.1074C22.8138 11.8768 23.1067 12.6831 23.183 13.3803C23.2522 14.0118 23.1637 14.9479 22.2839 15.3077C22.1 15.3829 21.8718 15.4264 21.663 15.4568C21.4375 15.4896 21.1675 15.5161 20.8658 15.5377C20.2615 15.5811 19.493 15.6078 18.6263 15.6222C16.8908 15.6512 14.7246 15.6318 12.6128 15.5935C10.4994 15.555 8.43383 15.4974 6.89701 15.4494C6.12846 15.4254 5.49185 15.4038 5.04726 15.3882C4.82496 15.3804 4.65065 15.3741 4.53184 15.3697L4.35018 15.363C4.35018 15.363 4.34938 15.363 4.3779 14.6135L4.35018 15.363C3.94735 15.3477 3.6279 15.0166 3.6279 14.6135C3.6279 12.5712 3.97808 11.042 4.62468 9.83664C5.27393 8.62632 6.18693 7.80854 7.19424 7.13657C8.20329 6.46344 9.02337 6.09764 10.0752 5.91823C11.0619 5.74992 12.242 5.74996 13.9255 5.75ZM21.6644 13.9586C21.6644 13.9586 21.6665 13.9509 21.6764 13.9424C21.6703 13.9555 21.6644 13.9586 21.6644 13.9586Z" fill="#333333" class='xian'/>
</svg>
