<svg width="24" height="24" viewBox="0 0 24 24" fill="none" xmlns="http://www.w3.org/2000/svg">
<path d="M20.0552 8.09552C20.2738 9.3414 19.4487 10.1283 19.0089 10.366L16.9405 8.64211C16.5032 6.15037 18.5892 5.38297 19.6275 5.20078C19.1043 6.33603 19.9641 7.57641 20.0552 8.09552Z" fill="rgba(0,0,0,0)" class='mian'/>
<path d="M5.25001 9.99999C6.05001 5.99999 10.9167 5.33332 13.25 5.49999C16.5 6 17.8965 6.77231 18.5 8L21.5 7.5L22 9.5L19.8975 11.152C20.4264 12.9486 21.6494 13.1502 22.25 13C22.25 13.8 22 15 22 15C21.1356 15.6483 19.8187 16.0339 18.6329 16.2515C18.4072 16.2929 19.7122 19.4701 19.5 19.5C19.2819 19.5307 17.5 18.5 17.352 16.4337C16.8881 16.4811 16.5012 16.5 16.25 16.5V19.5H15L13.5 16.5H11.5L12 19.5H10.5L10 16.3639C9.45793 16.246 9.02559 16.1102 8.75001 16C7.95001 16.8 7.75001 18.6667 7.75001 19.5H6.75001C6.00001 17 4.75001 12.3333 5.25001 9.99999Z" fill="rgba(0,0,0,0)" class='mian'/>
<path fill-rule="evenodd" clip-rule="evenodd" d="M20.183 4.69685C20.0409 4.54006 19.8391 4.45063 19.6274 4.45064C18.4357 4.45068 17.1213 4.89787 16.4791 6.15982C16.2912 6.52898 16.4382 6.98054 16.8074 7.1684C17.1765 7.35627 17.6281 7.2093 17.8159 6.84014C18.0033 6.47191 18.3383 6.20893 18.7868 6.06844C18.736 6.61381 18.7297 6.91522 18.8076 7.35906C18.8792 7.76703 19.2679 8.03973 19.6759 7.96813C20.0839 7.89654 20.3566 7.50777 20.285 7.09979C20.2255 6.76097 20.2358 6.6585 20.3263 5.75268C20.3403 5.61334 20.3561 5.45499 20.3739 5.27385C20.3945 5.06321 20.3252 4.85364 20.183 4.69685Z" fill="#333333" class='xian'/>
<path fill-rule="evenodd" clip-rule="evenodd" d="M8.39553 5.49147C10.1349 4.79301 12.0543 4.66263 13.3034 4.75186C14.6463 4.84778 15.902 5.18843 16.9175 5.68231C17.9119 6.16597 18.7666 6.84219 19.1731 7.66911C19.3558 8.04085 19.2026 8.49032 18.8308 8.67305C18.4591 8.85577 18.0096 8.70255 17.8269 8.33082C17.6299 7.93005 17.114 7.44586 16.2614 7.03123C15.43 6.62683 14.3624 6.33132 13.1966 6.24805C12.1124 6.17061 10.4318 6.29022 8.95448 6.88344C7.4926 7.47046 6.31964 8.47603 5.98544 10.147L5.98342 10.1571C5.66167 11.6586 5.72432 13.2812 6.56851 14.2623C6.71613 14.4339 6.77838 14.6629 6.73791 14.8856C6.45555 16.4395 6.91308 17.8191 7.31627 18.5887C7.35166 18.2842 7.39787 17.9598 7.44638 17.6474C7.55249 16.9641 7.67949 16.2783 7.76456 15.8529C7.84263 15.4626 8.21202 15.2012 8.60607 15.2575C11.2713 15.6382 11.864 15.7223 13.5095 15.7433C13.88 15.748 14.1277 15.9653 14.2474 16.095C14.378 16.2363 14.4779 16.404 14.5535 16.5495C14.7068 16.8443 14.8463 17.2191 14.9679 17.5591C15.0007 17.6509 15.0325 17.7408 15.0634 17.8286C15.1546 18.0868 15.2392 18.3264 15.3252 18.5403C15.332 18.5572 15.3387 18.5736 15.3452 18.5896C15.3704 18.375 15.3996 18.1367 15.4313 17.8979C15.4818 17.5181 15.5405 17.1226 15.6017 16.8156C15.6314 16.6665 15.6667 16.5122 15.709 16.3847C15.7285 16.3259 15.7621 16.2333 15.8165 16.1417C15.8432 16.0967 15.8946 16.0179 15.9788 15.942C16.0623 15.8668 16.2339 15.7457 16.4838 15.7403C17.8554 15.7107 18.7993 15.6096 19.5585 15.4033C20.2118 15.2257 20.7511 14.9639 21.3193 14.5671C21.3387 14.4601 21.3614 14.3289 21.384 14.1842C21.4061 14.043 21.4273 13.8939 21.4454 13.7451C21.1931 13.696 20.931 13.6041 20.6739 13.4567C20.0295 13.0873 19.4866 12.4119 19.1781 11.3638C19.0611 10.9664 19.2884 10.5495 19.6857 10.4325C20.0831 10.3155 20.5 10.5428 20.617 10.9402C20.8373 11.6886 21.1704 12.0123 21.4198 12.1553C21.6861 12.3079 21.9411 12.3041 22.0681 12.2724C22.2922 12.2163 22.5295 12.2667 22.7116 12.4088C22.8936 12.5509 23 12.769 23 13C23 13.4606 22.9297 14.0079 22.866 14.4157C22.8333 14.6249 22.8007 14.8075 22.7762 14.9382C22.7639 15.0036 22.7537 15.0563 22.7463 15.0931L22.7377 15.1361L22.7353 15.1479L22.7344 15.1523C22.7319 15.1629 21.5086 14.898 22.7344 15.1523C22.6971 15.331 22.596 15.4905 22.45 15.6C21.6681 16.1864 20.905 16.5917 19.9519 16.8508C19.1383 17.0718 18.2096 17.1798 17.0508 17.2242C17.0062 17.4681 16.9607 17.776 16.9182 18.0955C16.8692 18.4641 16.8262 18.834 16.7954 19.1128C16.78 19.2519 16.7676 19.3678 16.7592 19.4487L16.7496 19.5422L16.7463 19.5739C16.7081 19.9575 16.3854 20.25 16 20.25H15C14.8011 20.25 14.6103 20.1709 14.4697 20.0303C14.3292 19.8898 14.2259 19.7195 14.1514 19.5792C14.0722 19.4301 13.9996 19.2643 13.9335 19.1C13.8343 18.8532 13.7341 18.5693 13.6402 18.3033C13.6113 18.2213 13.583 18.1411 13.5555 18.0641C13.4309 17.7158 13.3224 17.4331 13.2228 17.2416C13.2223 17.2407 13.2218 17.2398 13.2214 17.239C11.8182 17.2127 11.0774 17.1239 9.10326 16.8436C9.04555 17.1621 8.98403 17.5207 8.92862 17.8775C8.82372 18.5531 8.75 19.1657 8.75 19.5C8.75 19.9142 8.41421 20.25 8 20.25H7C6.76413 20.25 6.542 20.139 6.40033 19.9504C5.83479 19.1975 4.90751 17.2636 5.20894 14.9578C4.1185 13.4396 4.1904 11.3691 4.51559 9.84777C4.98279 7.52194 6.64202 6.1956 8.39553 5.49147Z" fill="#333333" class='xian'/>
<path fill-rule="evenodd" clip-rule="evenodd" d="M6.5336 4.22275C6.97256 4.64682 7.14238 5.2942 6.96151 5.8368C6.93602 5.91328 6.89837 5.98514 6.85 6.04963C6.34471 6.72335 5.67257 6.97056 5.00455 6.99374C5.17815 7.44983 5.45599 8.01394 5.886 8.70196C6.10553 9.05321 5.99875 9.51592 5.6475 9.73545C5.29625 9.95499 4.83353 9.84821 4.614 9.49695C3.91249 8.37453 3.50908 7.43924 3.34035 6.66166C2.86273 6.46618 2.41764 6.20551 2.05178 5.93721C1.66953 5.65689 1.30749 5.31982 1.10688 4.98547C0.893768 4.63028 1.00894 4.16959 1.36413 3.95647C1.71931 3.74336 2.18001 3.85854 2.39312 4.21372C2.4425 4.29603 2.61797 4.4923 2.93884 4.72761C3.07308 4.82606 3.22122 4.92282 3.378 5.01276C3.58895 4.40756 4.03082 4.01739 4.53776 3.87996C5.33086 3.62321 6.04878 3.75439 6.5336 4.22275ZM4.79718 5.49684C5.09234 5.51139 5.32384 5.44326 5.49684 5.30715C5.49508 5.30522 5.49326 5.30335 5.4914 5.30155C5.47732 5.28795 5.44933 5.26668 5.3875 5.25609C5.32188 5.24486 5.19393 5.24226 4.98717 5.31118C4.96895 5.31725 4.95051 5.32262 4.93188 5.32728C4.92283 5.32954 4.89121 5.34064 4.85623 5.38533C4.84026 5.40573 4.81772 5.44082 4.79718 5.49684Z" fill="#333333" class='xian'/>
<path fill-rule="evenodd" clip-rule="evenodd" d="M21.8701 6.2597C22.1455 6.30439 22.3733 6.4982 22.4615 6.76285C22.6497 7.32728 22.8537 8.27938 22.6307 9.24395C22.3934 10.2705 21.6877 11.228 20.2372 11.7115C19.8442 11.8425 19.4195 11.6301 19.2885 11.2372C19.1575 10.8442 19.3699 10.4195 19.7628 10.2885C20.7123 9.97202 21.0483 9.42949 21.1693 8.90609C21.2144 8.71079 21.2311 8.50854 21.2278 8.30953C20.9494 8.42773 20.6722 8.50015 20.4256 8.5485C20.1372 8.60505 19.86 8.63412 19.6477 8.65639C19.6362 8.6576 19.6248 8.65879 19.6137 8.65996C19.5 8.67192 19.4129 8.68147 19.3406 8.69216C19.3056 8.69733 19.2795 8.70199 19.2604 8.70605C19.2436 8.70959 19.2365 8.71177 19.2365 8.71175C19.2365 8.71175 19.2367 8.71168 19.2372 8.71153C18.4505 8.97375 18.25 9.69339 18.25 10C18.25 10.4142 17.9142 10.75 17.5 10.75C17.0858 10.75 16.75 10.4142 16.75 10C16.75 9.30665 17.1495 7.82629 18.7628 7.28851C18.9718 7.21885 19.2374 7.19111 19.426 7.17141C19.4364 7.17032 19.4467 7.16925 19.4566 7.1682C19.4627 7.16757 19.4687 7.16693 19.4748 7.1663C19.6976 7.14285 19.9157 7.11991 20.1369 7.07653C20.5979 6.98615 20.9396 6.83053 21.15 6.55002C21.3174 6.32685 21.5948 6.21502 21.8701 6.2597Z" fill="#333333" class='xian'/>
<path d="M19 12.75C19 13.1642 18.6642 13.5 18.25 13.5C17.8358 13.5 17.5 13.1642 17.5 12.75C17.5 12.3358 17.8358 12 18.25 12C18.6642 12 19 12.3358 19 12.75Z" fill="#333333" class='xian'/>
<path fill-rule="evenodd" clip-rule="evenodd" d="M18.8181 15.7723C19.2199 15.6719 19.6271 15.9162 19.7276 16.318L20.4776 19.3181C20.5336 19.5422 20.4833 19.7795 20.3411 19.9616C20.199 20.1436 19.9809 20.25 19.75 20.25H18.75C18.6336 20.25 18.5187 20.2229 18.4146 20.1708C18.0757 20.0014 17.7963 19.7216 17.5776 19.4491C17.3513 19.1672 17.1483 18.8402 16.9752 18.5144C16.6338 17.872 16.3657 17.1526 16.2646 16.647C16.1833 16.2409 16.4467 15.8457 16.8529 15.7645C17.2591 15.6833 17.6542 15.9467 17.7354 16.3528C17.801 16.6806 18.0078 17.2612 18.2998 17.8105C18.435 18.065 18.5789 18.2943 18.7212 18.4771L18.2724 16.6818C18.1719 16.28 18.4162 15.8728 18.8181 15.7723Z" fill="#333333" class='xian'/>
<path fill-rule="evenodd" clip-rule="evenodd" d="M9.6267 15.7602C10.0353 15.6921 10.4217 15.9681 10.4898 16.3767C10.5675 16.8432 10.7307 17.5353 10.9572 18.0925C11.072 18.3746 11.1857 18.5784 11.2836 18.6988C11.3022 18.7217 11.3174 18.7383 11.3291 18.75H11.3542L11.0117 16.8318C10.9389 16.4241 11.2104 16.0345 11.6182 15.9617C12.0259 15.8889 12.4155 16.1604 12.4883 16.5682L12.9883 19.3682C13.0273 19.5867 12.9676 19.8113 12.8251 19.9815C12.6826 20.1517 12.472 20.25 12.25 20.25H11.25C10.7164 20.25 10.3413 19.9177 10.1196 19.6449C9.88721 19.3591 9.70716 19.0003 9.56775 18.6575C9.28598 17.9647 9.09911 17.1568 9.0102 16.6233C8.9421 16.2147 9.21812 15.8283 9.6267 15.7602ZM11.3582 18.7751C11.3582 18.7752 11.3565 18.7743 11.3532 18.7717C11.3566 18.7736 11.3582 18.7749 11.3582 18.7751Z" fill="#333333" class='xian'/>
</svg>
