<svg width="24" height="24" viewBox="0 0 24 24" fill="none" xmlns="http://www.w3.org/2000/svg">
<path d="M14.0117 21.6232H6.70022C6.17798 21.4491 6.6644 17.8424 7.5 14.5C7.5 14.5 9 11.5 12.0773 9.08916C12.7736 8.91507 14.0117 8.56696 15.2108 7.52234C15.7978 7.01096 15.2108 5.95598 16.7775 4.91148C17.2998 3.34487 18.3443 2.30005 18.3443 2.30005C18.3443 2.82255 18.4487 3.97131 18.8665 4.38911C18.8665 4.38911 20.4333 4.38924 20.9555 5.7596C21.4778 7.12996 22 7.44296 22 7.44296C20.9555 9.0097 20.2786 9.53157 18.3443 9.53157C18.8665 10.5761 20.4333 13.5506 18.3443 15.6395L19.7564 19.5342C20.6268 20.0565 22.0543 21.6232 20.8009 21.6232H17.6674L13.4894 16.4007C13.4894 16.4007 15.5784 19.7083 14.5339 19.5342C14.4641 19.5226 15.2108 21.2497 14.0117 21.6232Z" fill="rgba(0,0,0,0)" class='mian'/>
<path fill-rule="evenodd" clip-rule="evenodd" d="M18.6312 1.60707C18.9115 1.72314 19.0943 1.99663 19.0943 2.3C19.0943 2.52274 19.1174 2.89185 19.1851 3.24128C19.2182 3.4124 19.2588 3.56204 19.3045 3.67993C19.4899 3.71001 19.7251 3.76318 19.9785 3.85816C20.5666 4.07865 21.2953 4.54522 21.6563 5.49247C21.8947 6.11787 22.1209 6.47032 22.2636 6.65209C22.3349 6.74298 22.386 6.79203 22.4084 6.81195C22.4125 6.81559 22.4157 6.81829 22.4179 6.82013C22.5768 6.92677 22.6894 7.09053 22.7317 7.27819C22.7767 7.47835 22.7378 7.68823 22.624 7.85894C22.5447 7.97798 22.4663 8.09813 22.3893 8.2161C22.2326 8.45612 22.0819 8.68716 21.9408 8.88174C21.719 9.18753 21.4685 9.48137 21.1343 9.71739C20.706 10.0198 20.208 10.1801 19.589 10.2481C20.1622 11.4352 20.4005 12.4849 20.2571 13.4933C20.0971 14.619 19.4786 15.5623 18.6259 16.4864L20.2277 18.889C21.247 19.2165 21.9701 19.8641 22.0197 20.7317C22.077 21.7351 21.2106 22.3732 20.2786 22.3732L17.6674 22.3731C17.4041 22.3731 17.16 22.235 17.0245 22.0093C17.0244 22.0092 17.0245 22.0093 17.0245 22.0093L17.0215 22.0044L17.0097 21.9851C16.9989 21.9674 16.9821 21.9402 16.9595 21.9041C16.9142 21.8319 16.8457 21.7242 16.755 21.5862C16.5735 21.31 16.3034 20.9127 15.9528 20.4346C15.896 20.3571 15.8371 20.2775 15.7761 20.1961C15.8112 20.5763 15.7905 20.9632 15.6618 21.3117C15.5481 21.6197 15.347 21.9042 15.0343 22.103C14.7288 22.2973 14.3748 22.3732 14.0117 22.3732H6.70022C6.61961 22.3732 6.53952 22.3602 6.46305 22.3347C6.1326 22.2245 5.98728 21.9572 5.93431 21.8401C5.87197 21.7023 5.84116 21.559 5.82325 21.4452C5.78641 21.2111 5.77869 20.9261 5.7847 20.6323C5.79695 20.0342 5.87017 19.2594 5.97293 18.4628C6.1765 16.8847 6.51403 15.0861 6.78848 14.2628C7.35559 12.5615 8.99168 10.4303 11.6141 8.85683C12.6928 8.20962 13.2345 7.93522 13.5787 7.76088C13.641 7.72933 13.6968 7.70106 13.7482 7.67444C14.0126 7.53744 14.1388 7.46149 14.7181 6.95679L14.7191 6.95538C14.7196 6.95466 14.7203 6.95359 14.7211 6.9521C14.7216 6.95128 14.7221 6.95033 14.7227 6.94925C14.73 6.93587 14.7431 6.90644 14.7603 6.84471C14.7783 6.77971 14.794 6.70548 14.817 6.59456L14.8178 6.59064C14.8391 6.48814 14.8658 6.35939 14.9022 6.22313C15.0534 5.65733 15.357 5.02875 16.15 4.43651C16.4368 3.66895 16.8238 3.03404 17.1464 2.58235C17.3251 2.33212 17.4869 2.13413 17.6061 1.9966C17.6658 1.92774 17.715 1.87375 17.7506 1.83566C17.7684 1.81661 17.7829 1.80151 17.7935 1.79049L17.8067 1.77702L17.811 1.77261L17.8126 1.77098L17.8136 1.77002C17.8137 1.76987 18.6995 2.65477 17.8136 1.77002C18.0281 1.55548 18.3509 1.491 18.6312 1.60707ZM17.8993 4.20493C17.7472 4.48823 17.6035 4.80537 17.489 5.14862C17.4363 5.30684 17.3323 5.44296 17.1935 5.53547C16.579 5.94517 16.4323 6.30753 16.3513 6.61043C16.327 6.70154 16.308 6.79203 16.2857 6.89919L16.2832 6.91149C16.263 7.00881 16.2381 7.12912 16.2055 7.24627C16.1349 7.50042 16.0075 7.8229 15.7034 8.0878C15.0837 8.62771 14.8545 8.7906 14.4383 9.00627C14.3838 9.03448 14.326 9.06377 14.2624 9.09597C13.9227 9.26806 13.4187 9.52337 12.3859 10.1431C10.0083 11.5696 8.6444 13.4385 8.21151 14.7371C7.98596 15.4138 7.66247 17.0898 7.4606 18.6547C7.36063 19.4297 7.29502 20.1435 7.28439 20.663C7.28281 20.7401 7.28253 20.8101 7.28331 20.8732H14.0117C14.1708 20.8732 14.2248 20.8402 14.2294 20.8373C14.2322 20.8355 14.233 20.8347 14.2347 20.8325C14.2371 20.8294 14.2451 20.8181 14.2547 20.7922C14.3052 20.6554 14.3186 20.3494 14.1963 19.8398C13.9614 18.8608 13.3533 17.6316 12.8463 16.7865C12.6514 16.4618 12.7293 16.0426 13.0279 15.8095C13.3264 15.5764 13.7519 15.6025 14.0198 15.8703C15.3593 17.2098 16.4284 18.5466 17.1624 19.5476C17.5299 20.0487 17.8147 20.4674 18.0086 20.7624C18.0343 20.8015 18.0584 20.8384 18.0809 20.8731L20.2786 20.8732C20.2787 20.8732 20.2786 20.8732 20.2786 20.8732C20.4365 20.8731 20.504 20.8252 20.519 20.8117C20.5197 20.8111 20.5203 20.8105 20.5209 20.81C20.5192 20.8029 20.5153 20.7907 20.5061 20.7734C20.4905 20.7436 20.4581 20.6962 20.3938 20.6384C20.2632 20.5208 20.0121 20.3712 19.5745 20.2618C19.3935 20.2165 19.2359 20.1054 19.1324 19.9502L17.0434 16.8167C16.8451 16.5192 16.8843 16.1231 17.1371 15.8703C18.1558 14.8516 18.658 14.0847 18.7721 13.2822C18.8857 12.4829 18.6371 11.4723 17.7017 9.91833C17.56 9.68292 17.5584 9.38887 17.6974 9.1519C17.8365 8.91493 18.094 8.77298 18.3687 8.78192C19.5659 8.82088 20.0041 8.67915 20.2691 8.49206C20.4111 8.39178 20.5486 8.24639 20.7264 8.0012C20.8298 7.85858 20.9303 7.70679 21.046 7.52946C20.8051 7.21147 20.5244 6.73451 20.2547 6.02664C20.0934 5.60352 19.7777 5.38485 19.4519 5.26269C19.2874 5.20104 19.1316 5.16929 19.0168 5.15343C18.9603 5.14563 18.9162 5.142 18.8891 5.14035C18.8756 5.13952 18.8666 5.1392 18.8626 5.13909L18.8642 5.13906L18.8652 5.13906C18.8636 5.13906 18.8626 5.13905 18.8609 5.13904C18.8602 5.13902 18.8605 5.13904 18.8609 5.13904C18.664 5.13757 18.4755 5.05873 18.3362 4.91939C18.1295 4.71269 17.9979 4.4566 17.9105 4.23392C17.9067 4.22428 17.903 4.21462 17.8993 4.20493Z" fill="#333333" class='xian'/>
<path fill-rule="evenodd" clip-rule="evenodd" d="M1.42384 7.56456C1.68901 7.24635 2.16193 7.20336 2.48014 7.46853L2 8.0447C2.48014 7.46853 2.48039 7.46874 2.48066 7.46896L2.48125 7.46945L2.48264 7.47062L2.48628 7.47369L2.49693 7.48275C2.50548 7.49008 2.51694 7.49999 2.53105 7.51244C2.55927 7.53734 2.5982 7.57241 2.646 7.6173C2.74152 7.70699 2.87299 7.83635 3.02554 8.00235C3.32956 8.3332 3.72328 8.81611 4.08263 9.42702C4.80133 10.6488 5.4066 12.4301 4.81014 14.5177C4.54568 15.4433 4.31427 16.1705 4.12614 16.7594L4.11475 16.7951C3.92991 17.3737 3.7957 17.7938 3.70683 18.1493C3.61831 18.5034 3.58439 18.7581 3.59026 18.9931C3.59608 19.2259 3.64192 19.4769 3.75601 19.8192C4.10708 20.8724 5.37531 21.0641 5.96967 20.4697C6.26257 20.1768 6.73744 20.1768 7.03033 20.4697C7.32323 20.7626 7.32323 21.2375 7.03033 21.5303C5.6247 22.936 3.02642 22.3739 2.33299 20.2936C2.18596 19.8525 2.10123 19.4507 2.09073 19.0306C2.08029 18.6129 2.14429 18.2148 2.25161 17.7855C2.35246 17.3821 2.49997 16.9205 2.67477 16.3734C2.68222 16.3501 2.68972 16.3266 2.69727 16.303C2.88451 15.7169 3.11006 15.0079 3.36785 14.1056C3.81588 12.5375 3.37666 11.1853 2.78973 10.1875C2.49628 9.68867 2.17191 9.29029 1.92104 9.01729C1.79615 8.88138 1.69098 8.77817 1.61921 8.71078C1.58337 8.67712 1.556 8.65253 1.53883 8.63739L1.52099 8.62185L1.51826 8.61952C1.51816 8.61943 1.51824 8.6195 1.51851 8.61973L1.51905 8.62018L1.51942 8.62049C1.20162 8.35525 1.15879 7.88262 1.42384 7.56456Z" fill="#333333" class='xian'/>
<path d="M19.7564 6.73906C19.7564 7.1717 19.4057 7.52243 18.973 7.52243C18.5404 7.52243 18.1897 7.1717 18.1897 6.73906C18.1897 6.30642 18.5404 5.95569 18.973 5.95569C19.4057 5.95569 19.7564 6.30642 19.7564 6.73906Z" fill="#333333" class='xian'/>
</svg>
