<svg width="24" height="24" viewBox="0 0 24 24" fill="none" xmlns="http://www.w3.org/2000/svg">
<path d="M14 21.5C18.4 12.3 13.3333 8 10 7L8.5 9H6C6.4 11.4 6.66666 13.3333 7 14.5C4.19999 15.3 3.66666 17.5 4.5 19C2.5 19 2.33333 21 2.5 21.5H14Z" fill="#D6AE5D" class='mian'/>
<path d="M11 6C11 7.933 9.83333 9.5 7.5 9.5C5.16667 9.5 4 7.933 4 6C4 4.067 5.75 2.5 7.5 2.5C9.25 2.5 11 4.067 11 6Z" fill="#D6AE5D" class='mian'/>
<path d="M4 6.5C4 6.5 5 4.50002 4 4L3 3.5L2 5L2.5 6L4 6.5Z" fill="#D6AE5D" class='mian'/>
<path d="M10.5 6.5C10.5 6.5 9.5 4.50002 10.5 4L11.5 3.5L12.5 5L12 6L10.5 6.5Z" fill="#D6AE5D" class='mian'/>
<path fill-rule="evenodd" clip-rule="evenodd" d="M11.5 4.25C11.9142 4.25 12.25 4.58579 12.25 5C12.25 5.41421 11.9142 5.75 11.5 5.75V7.25C12.7426 7.25 13.75 6.24264 13.75 5C13.75 3.75736 12.7426 2.75 11.5 2.75C10.8643 2.75 10.427 3.11099 10.1908 3.37622C10.0678 3.51441 9.97774 3.64947 9.91839 3.74917C9.88826 3.79979 9.86479 3.84339 9.84786 3.87652C9.83937 3.89314 9.83244 3.90729 9.82706 3.91856L9.82013 3.9333L9.81752 3.939L9.81643 3.94141L9.81593 3.94251L9.8157 3.94303C9.81558 3.94328 9.81547 3.94353 10.5 4.25C11.1845 4.55647 11.1844 4.55671 11.1843 4.55695L11.1841 4.55742L11.1837 4.55831L11.183 4.55991L11.1818 4.56239L11.1808 4.5646C11.1807 4.56488 11.1816 4.56291 11.1836 4.55903C11.1876 4.55115 11.1956 4.53615 11.2073 4.51646C11.2317 4.47553 11.2671 4.42309 11.311 4.37378C11.4088 4.26401 11.4715 4.25 11.5 4.25Z" fill="#333333" class='xian'/>
<path fill-rule="evenodd" clip-rule="evenodd" d="M12.1963 13.7214C12.3502 14.106 12.1631 14.5425 11.7785 14.6963C11.4026 14.8467 10.9583 15.0678 10.5602 15.3424C10.1544 15.6222 9.84513 15.9242 9.67732 16.22C9.52489 16.4887 9.49074 16.7409 9.60237 17.0288C9.72898 17.3553 10.0796 17.8183 10.916 18.3759C11.191 18.5592 11.3136 18.901 11.2178 19.2173C11.122 19.5336 10.8305 19.75 10.5 19.75C9.84632 19.75 9.51734 19.8869 9.35779 20.0009C9.21283 20.1044 9.14293 20.2345 9.11043 20.397C9.08807 20.5088 9.08556 20.6304 9.09562 20.75H10.5C10.9142 20.75 11.25 21.0857 11.25 21.5C11.25 21.9142 10.9142 22.25 10.5 22.25H8.50026L8.49999 21.5C7.80363 21.7785 7.80349 21.7781 7.80334 21.7778L7.80232 21.7752L7.80065 21.7709L7.79627 21.7596C7.79292 21.7508 7.78872 21.7395 7.78383 21.7259C7.77405 21.6988 7.76145 21.6622 7.74738 21.6174C7.71939 21.5283 7.68478 21.4044 7.65518 21.2564C7.59768 20.9689 7.55044 20.5484 7.63955 20.1029C7.73205 19.6404 7.97465 19.1455 8.48593 18.7803C8.59452 18.7027 8.71143 18.6337 8.83668 18.5733C8.54933 18.2499 8.33776 17.9164 8.20385 17.5711C7.90507 16.8007 8.03342 16.0778 8.37265 15.4799C8.69651 14.909 9.20803 14.4527 9.70856 14.1075C10.2166 13.7571 10.7641 13.4865 11.2214 13.3036C11.606 13.1498 12.0425 13.3368 12.1963 13.7214ZM8.49999 21.5L7.80334 21.7778C7.91724 22.0625 8.19358 22.25 8.50026 22.25L8.49999 21.5Z" fill="#333333" class='xian'/>
<path fill-rule="evenodd" clip-rule="evenodd" d="M10.3194 7.06643C10.4934 6.69055 10.9392 6.52691 11.3151 6.70093C13.0643 7.51074 14.9758 9.09374 15.9031 11.6236C16.8349 14.1654 16.7271 17.5361 14.6766 21.8235C14.552 22.0841 14.2888 22.25 14 22.25H2.5C2.17718 22.25 1.89057 22.0434 1.78849 21.7371C1.72067 21.5337 1.65821 21.2094 1.6487 20.8478C1.63912 20.4838 1.68138 20.022 1.87433 19.5767C2.07466 19.1145 2.43457 18.6814 3.01656 18.4236C3.28105 18.3064 3.57557 18.2324 3.90032 18.2013C3.7406 17.5206 3.72148 16.7688 3.91236 16.046C4.18656 15.0076 4.88367 14.0763 6.09987 13.5305C5.83112 12.4391 5.58836 11.0922 5.2602 9.12325L6.73979 8.87665C7.14072 11.2822 7.40129 12.6744 7.72114 13.7939C7.83494 14.1922 7.60432 14.6073 7.20604 14.7211C6.05668 15.0495 5.5483 15.7259 5.36264 16.4289C5.16382 17.1819 5.32117 18.0337 5.65562 18.6357C5.79547 18.8874 5.77884 19.197 5.61283 19.4323C5.44682 19.6676 5.16075 19.7871 4.8767 19.7397C4.21708 19.6298 3.83539 19.7015 3.62406 19.7951C3.43001 19.881 3.32118 20.0104 3.25067 20.1732C3.1794 20.3376 3.14767 20.5406 3.14744 20.75H13.522C15.2489 16.9401 15.2251 14.132 14.4948 12.1398C13.7331 10.0619 12.1562 8.74328 10.6849 8.06213C10.309 7.8881 10.1454 7.44232 10.3194 7.06643Z" fill="#333333" class='xian'/>
<path fill-rule="evenodd" clip-rule="evenodd" d="M20.2188 6.31507C19.951 6.2011 19.549 6.202 18.916 6.62396C18.6329 6.81267 18.4791 7.00001 18.3896 7.17905C18.2983 7.36154 18.25 7.58347 18.25 7.87489C18.25 8.42861 18.4137 9.07587 18.6324 9.94002C18.6631 10.0616 18.695 10.1875 18.7276 10.318C18.7556 10.4298 18.7932 10.571 18.8376 10.7376C19.1662 11.9704 19.8653 14.5928 19.7491 16.974C19.6828 18.3325 19.3488 19.7386 18.4171 20.7749C17.4569 21.8429 15.9864 22.3842 13.9501 22.2485C13.5368 22.2209 13.2241 21.8635 13.2517 21.4502C13.2792 21.037 13.6366 20.7242 14.0499 20.7518C15.7636 20.866 16.7306 20.4072 17.3016 19.772C17.9012 19.1052 18.1922 18.105 18.2509 16.9009C18.3543 14.7802 17.7298 12.4187 17.3948 11.1519C17.3472 10.9718 17.3054 10.8138 17.2724 10.6818C17.2421 10.5608 17.211 10.4389 17.1798 10.3164C16.9679 9.48595 16.75 8.63169 16.75 7.87489C16.75 7.4163 16.8267 6.95073 17.0479 6.50822C17.2709 6.06226 17.6171 5.68712 18.084 5.37586C18.951 4.79788 19.899 4.5488 20.8062 4.93484C21.6669 5.30112 22.2686 6.15206 22.6964 7.22141C22.8502 7.60599 22.6631 8.04247 22.2785 8.19631C21.894 8.35014 21.4575 8.16308 21.3036 7.77849C20.9314 6.84784 20.5331 6.44879 20.2188 6.31507Z" fill="#333333" class='xian'/>
<path fill-rule="evenodd" clip-rule="evenodd" d="M7.5 3.25C6.13891 3.25 4.75 4.50608 4.75 6C4.75 6.81985 4.99651 7.49971 5.42668 7.96678C5.84754 8.42376 6.51071 8.75 7.5 8.75C8.48929 8.75 9.15246 8.42376 9.57332 7.96678C10.0035 7.49971 10.25 6.81985 10.25 6C10.25 4.50608 8.86109 3.25 7.5 3.25ZM3.25 6C3.25 3.62793 5.36109 1.75 7.5 1.75C9.63891 1.75 11.75 3.62793 11.75 6C11.75 7.11314 11.4132 8.18328 10.6767 8.98296C9.93088 9.79274 8.84405 10.25 7.5 10.25C6.15595 10.25 5.06912 9.79274 4.32332 8.98296C3.58683 8.18328 3.25 7.11314 3.25 6Z" fill="#333333" class='xian'/>
<path fill-rule="evenodd" clip-rule="evenodd" d="M3.5 4.25C3.08579 4.25 2.75 4.58579 2.75 5C2.75 5.41421 3.08579 5.75 3.5 5.75V7.25C2.25736 7.25 1.25 6.24264 1.25 5C1.25 3.75736 2.25736 2.75 3.5 2.75C4.13573 2.75 4.573 3.11099 4.80919 3.37622C4.93225 3.51441 5.02226 3.64947 5.08161 3.74917C5.11174 3.79979 5.13521 3.84339 5.15214 3.87652C5.16063 3.89314 5.16756 3.90729 5.17294 3.91856L5.17987 3.9333L5.18248 3.939L5.18357 3.94141L5.18407 3.94251L5.1843 3.94303C5.18442 3.94328 5.18453 3.94353 4.5 4.25C3.81547 4.55647 3.81558 4.55671 3.81569 4.55695L3.8159 4.55742L3.8163 4.55831L3.81703 4.55991L3.81816 4.56239L3.81919 4.5646C3.81933 4.56488 3.81839 4.56291 3.81641 4.55903C3.81238 4.55115 3.80443 4.53615 3.79271 4.51646C3.76834 4.47553 3.73289 4.42309 3.68898 4.37378C3.59122 4.26401 3.5285 4.25 3.5 4.25Z" fill="#333333" class='xian'/>
<path d="M5.90696 4.31935C6.69006 3.69288 7.27738 4.31935 7.47316 4.7109C8.09964 3.61459 8.94636 3.98116 9.23513 4.5151C9.92391 5.5 9.02207 6.10845 8.5 6.5C8.7761 7.52715 8.5592 8.01081 7.42391 8C6.37316 7.98999 6.30423 7.02207 6.5 6.5C5.09042 5.56028 5.51541 4.64564 5.90696 4.31935Z" fill="#F2F1E0"/>
<path d="M7.2 5.40002C7.2 5.67617 6.97614 5.90002 6.7 5.90002C6.42385 5.90002 6.2 5.67617 6.2 5.40002C6.2 5.12388 6.42385 4.90002 6.7 4.90002C6.97614 4.90002 7.2 5.12388 7.2 5.40002Z" fill="#333333" class='xian'/>
<path d="M7.4 7.2C7.4 7.31046 7.31046 7.4 7.2 7.4C7.08954 7.4 7 7.31046 7 7.2C7 7.08954 7.08954 7 7.2 7C7.31046 7 7.4 7.08954 7.4 7.2Z" fill="#333333" class='xian'/>
<path d="M8.15 7.2C8.15 7.31046 8.06046 7.4 7.95 7.4C7.83954 7.4 7.75 7.31046 7.75 7.2C7.75 7.08954 7.83954 7 7.95 7C8.06046 7 8.15 7.08954 8.15 7.2Z" fill="#333333" class='xian'/>
<path d="M8.89999 5.40002C8.89999 5.67617 8.67614 5.90002 8.39999 5.90002C8.12385 5.90002 7.89999 5.67617 7.89999 5.40002C7.89999 5.12388 8.12385 4.90002 8.39999 4.90002C8.67614 4.90002 8.89999 5.12388 8.89999 5.40002Z" fill="#333333" class='xian'/>
</svg>
