<svg width="24" height="24" viewBox="0 0 24 24" fill="none" xmlns="http://www.w3.org/2000/svg">
<path d="M18 4C15.6 4 15.3333 6 15.5 7C14.3333 7.33333 10.5 7.5 6.5 7C5.8322 6.91653 3 7.4 3 11C3.16667 12 3.5 13 4.5 14C5 14.5 5 16 3.5 16.5L4.5 20.5H6.5L6 17C6.84078 16.4395 7.3988 16.036 7.79733 15.4375C9.79733 16.2375 12.5 15.8333 13.5 15.5V20.5H15.5C15.1 16.9 16 16 16.5 15.5C18.1 14.3 19 12.0138 19 11C19 9.5 20 9.5 20 9.5C21.2 9.5 21.5 8.83333 21.5 8.5C21.9 4.9 19.3333 4 18 4Z" fill="rgba(0,0,0,0)" class='mian'/>
<path fill-rule="evenodd" clip-rule="evenodd" d="M16.2379 6.86513C16.3201 7.26796 16.4437 7.47934 16.5377 7.58526C16.6239 7.68255 16.7067 7.71699 16.7881 7.72894C16.9996 7.76003 17.2989 7.6404 17.4697 7.46967C17.5013 7.43806 17.5068 7.41942 17.5093 7.41002C17.5133 7.39456 17.5179 7.36141 17.5087 7.30154C17.4875 7.16334 17.418 7.01295 17.3292 6.83541C17.1439 6.46493 17.2941 6.01442 17.6646 5.82918C18.0351 5.64394 18.4856 5.79411 18.6708 6.16459C18.6736 6.1702 18.6766 6.17607 18.6796 6.18218C18.7616 6.34565 18.9314 6.68454 18.9913 7.07346C19.0588 7.51236 18.9927 8.06799 18.5303 8.53033C18.1118 8.94886 17.3611 9.32923 16.57 9.21301C16.15 9.1513 15.7433 8.95025 15.4154 8.58047C15.2381 8.38051 15.0933 8.14231 14.9795 7.8691C14.2436 7.97926 13.2273 8.04744 12.0722 8.06244C10.4369 8.08367 8.44407 7.99885 6.40697 7.74421C6.25788 7.72557 5.57084 7.77916 4.93297 8.2308C4.35903 8.63718 3.76582 9.40843 3.75031 10.9384C3.90249 11.8115 4.19196 12.6313 5.03033 13.4697C5.51212 13.9515 5.64918 14.7456 5.47761 15.4319C5.33499 16.0024 4.97642 16.5431 4.37678 16.9148L5.08558 19.75H5.63524L5.25754 17.1061C5.21669 16.8201 5.34366 16.5362 5.58397 16.376C6.34424 15.8691 6.76765 15.5553 7.06969 15.1656C7.35715 14.7946 7.57574 14.297 7.76456 13.3529C7.8458 12.9467 8.24092 12.6833 8.64709 12.7646C9.05326 12.8458 9.31667 13.2409 9.23544 13.6471C9.1327 14.1608 9.01334 14.6026 8.86172 14.9934C9.57581 15.1778 10.349 15.219 11.0813 15.1763C12.0155 15.1218 12.8254 14.9343 13.2628 14.7885C13.4915 14.7123 13.743 14.7506 13.9385 14.8916C14.1341 15.0325 14.25 15.2589 14.25 15.5V19.75H14.6806C14.5894 18.3412 14.7114 17.3441 14.9486 16.6076C15.2403 15.702 15.6889 15.2505 15.9697 14.9697C15.9948 14.9446 16.0216 14.9213 16.05 14.9C16.7295 14.3904 17.2886 13.6244 17.6795 12.8442C18.0783 12.0482 18.25 11.3434 18.25 11C18.25 10.067 18.5724 9.44572 19.05 9.0875C19.2715 8.92138 19.4934 8.83794 19.6618 8.79583C19.7465 8.77467 19.82 8.76332 19.8771 8.7572C19.9058 8.75412 19.9307 8.75233 19.9513 8.7513C19.9616 8.75079 19.9709 8.75046 19.979 8.75027L19.9903 8.75006L19.9954 8.75001L19.9977 8.75L19.9989 8.75C19.9994 8.75 20 8.75 20 9.5V8.75C20.4589 8.75 20.6356 8.6255 20.6904 8.57468C20.7413 8.52755 20.7492 8.48827 20.7501 8.48843C20.7504 8.46462 20.752 8.44085 20.7546 8.41718C20.9318 6.82193 20.452 5.95033 19.9013 5.46022C19.312 4.93563 18.5301 4.75 18 4.75C17.0506 4.75 16.647 5.1207 16.4437 5.48812C16.2067 5.91652 16.1752 6.47463 16.2379 6.86513ZM20.0306 10.2499C20.0292 10.2502 20.0275 10.2506 20.0257 10.251C20.0066 10.2558 19.9785 10.2661 19.95 10.2875L19.9495 10.2879C19.925 10.3062 19.75 10.4372 19.75 11C19.75 11.6704 19.4717 12.6156 19.0205 13.5161C18.5688 14.4178 17.8926 15.3783 16.9942 16.0665C16.7839 16.2776 16.5498 16.5291 16.3764 17.0674C16.1829 17.6684 16.0521 18.6775 16.2454 20.4172C16.269 20.6292 16.2011 20.8412 16.0589 21.0002C15.9166 21.1592 15.7133 21.25 15.5 21.25H13.5C13.0858 21.25 12.75 20.9142 12.75 20.5V16.4682C12.2865 16.5623 11.746 16.64 11.1687 16.6737C10.2098 16.7297 9.10188 16.6668 8.05828 16.3195C7.70696 16.7084 7.28616 17.0301 6.80886 17.3587L7.24246 20.3939C7.27321 20.6092 7.20904 20.8272 7.06659 20.9914C6.92414 21.1557 6.71742 21.25 6.5 21.25H4.5C4.15585 21.25 3.85586 21.0158 3.77239 20.6819L2.77239 16.6819C2.67734 16.3017 2.89104 15.9124 3.26283 15.7885C3.77104 15.6191 3.95996 15.3178 4.02239 15.0681C4.05692 14.93 4.05533 14.796 4.03227 14.6884C4.00915 14.5805 3.97305 14.5346 3.96987 14.5306C3.96967 14.5303 3.9696 14.5303 3.96967 14.5303C2.82775 13.3884 2.44416 12.227 2.2602 11.1233C2.25341 11.0826 2.25 11.0413 2.25 11C2.25 8.97094 3.06473 7.71567 4.06618 7.00659C5.01136 6.33736 6.07433 6.19095 6.59303 6.25579C8.55593 6.50115 10.4798 6.58299 12.0528 6.56256C13.1897 6.5478 14.105 6.47989 14.7114 6.39281C14.7244 5.88161 14.8354 5.29656 15.1313 4.76188C15.6196 3.8793 16.5494 3.25 18 3.25C18.8032 3.25 19.9713 3.51437 20.8987 4.33978C21.8593 5.19485 22.4614 6.56264 22.2491 8.54919C22.2357 8.90757 22.0765 9.33556 21.7096 9.67532C21.3199 10.0361 20.757 10.2442 20.0306 10.2499Z" fill="#333333" class='xian'/>
<path fill-rule="evenodd" clip-rule="evenodd" d="M1.66459 6.32922C2.03507 6.14398 2.48557 6.29415 2.67082 6.66463C2.71611 6.75522 3.09654 7.25004 4 7.25004C4.41421 7.25004 4.75 7.58583 4.75 8.00004C4.75 8.41426 4.41421 8.75004 4 8.75004C2.50345 8.75004 1.61722 7.91153 1.32918 7.33545C1.14393 6.96497 1.2941 6.51446 1.66459 6.32922Z" fill="#333333" class='xian'/>
</svg>
