<svg width="24" height="24" viewBox="0 0 24 24" fill="none" xmlns="http://www.w3.org/2000/svg">
<path d="M22 8.27461L18.831 9.63275C19.2463 12.5398 17.7964 14.693 16 16.1433C15.675 16.4056 17.3387 18.7833 17 19C16.8938 19.4247 16.7209 19.5859 16.5122 19.5776C16.3858 19.5726 16.2463 19.5055 16.1005 19.3971C15.4077 18.9936 14.7761 18.1335 14.2821 17.2869C13.4698 17.7316 12.6807 18.046 12.0403 18.2344L13.8511 19.5926H4.79687C4.28948 19.5926 3.49998 19.5926 3.5 18.5002C3.50002 17.4078 4.79687 17.329 4.79687 17.329C-0.635689 15.9708 3.43874 12.3491 3.89144 12.3491C5.34013 6.91657 9.92763 7.36928 12.0403 8.27471C13.0433 7.2717 14 6.54646 14.7566 6.099L19.5 5.74609C20.9785 6.371 21.8118 7.61605 22 8.27461Z" fill="rbba(0,0,0,0)" class='mian'/>
<path fill-rule="evenodd" clip-rule="evenodd" d="M18.8092 5.45406C18.9704 5.07252 19.4105 4.89396 19.792 5.05521C21.4806 5.76893 22.471 7.19291 22.7211 8.06852C22.8249 8.43159 22.6425 8.81517 22.2954 8.96392L19.1264 10.3221C18.7457 10.4852 18.3048 10.3089 18.1416 9.92814C17.9785 9.54742 18.1548 9.10651 18.5356 8.94334L20.9821 7.89483C20.653 7.40455 20.0659 6.79947 19.208 6.43687C18.8265 6.27561 18.6479 5.83559 18.8092 5.45406Z" fill="#333333" class='xian'/>
<path fill-rule="evenodd" clip-rule="evenodd" d="M3.50001 17.7502C3.91422 17.7503 4.25001 18.086 4.25 18.5003C4.25 18.6857 4.28369 18.7613 4.29302 18.7788C4.29532 18.7831 4.29627 18.7851 4.29774 18.7866C4.29926 18.7882 4.30134 18.7892 4.30605 18.7917C4.32631 18.8023 4.37386 18.8197 4.46764 18.8307C4.56277 18.8419 4.66445 18.8426 4.79687 18.8426C5.21109 18.8426 5.54687 19.1784 5.54687 19.5926C5.54687 20.0069 5.21109 20.3426 4.79687 20.3426C4.78566 20.3426 4.77362 20.3427 4.7608 20.3427C4.52798 20.3435 4.03928 20.3452 3.61027 20.1205C3.35873 19.9888 3.12873 19.7832 2.96953 19.4848C2.81499 19.195 2.74999 18.861 2.75 18.5002C2.75001 18.086 3.0858 17.7502 3.50001 17.7502Z" fill="#333333" class='xian'/>
<path fill-rule="evenodd" clip-rule="evenodd" d="M5.44687 16.9548C5.65352 17.3138 5.53003 17.7723 5.17105 17.979C5.06547 18.0398 4.95811 18.0775 4.88991 18.0999C4.83156 18.1191 4.76564 18.1382 4.71237 18.1537C4.70081 18.1571 4.68985 18.1602 4.67969 18.1632C4.54599 18.2023 4.45303 18.2334 4.3778 18.2717C4.30804 18.3073 4.28627 18.3334 4.27923 18.3436C4.27917 18.3437 4.2791 18.3438 4.27901 18.344C4.27558 18.3489 4.25 18.3853 4.25 18.5002C4.25 18.9144 3.91421 19.2502 3.5 19.2502C3.08579 19.2502 2.75 18.9144 2.75 18.5002C2.75 18.1178 2.8481 17.778 3.04255 17.4948C3.23229 17.2183 3.47906 17.0462 3.69642 16.9354C3.9083 16.8274 4.121 16.7638 4.2583 16.7236C4.39678 16.6831 4.43419 16.6702 4.43476 16.6717C4.43487 16.672 4.43365 16.6728 4.43155 16.674C4.78918 16.4744 5.24191 16.5988 5.44687 16.9548Z" fill="#333333" class='xian'/>
<path fill-rule="evenodd" clip-rule="evenodd" d="M11.4403 17.7844C11.6888 17.453 12.1589 17.3859 12.4903 17.6344L14.3012 18.9926C14.5594 19.1863 14.6647 19.5235 14.5627 19.8297C14.4606 20.136 14.174 20.3426 13.8512 20.3426H4.79688C4.38266 20.3426 4.04688 20.0068 4.04688 19.5926C4.04688 19.1783 4.38266 18.8426 4.79688 18.8426H11.6012L11.5903 18.8344C11.2589 18.5859 11.1918 18.1158 11.4403 17.7844Z" fill="#333333" class='xian'/>
<path fill-rule="evenodd" clip-rule="evenodd" d="M7.51174 7.21393C9.31574 6.70094 11.172 7.08677 12.3357 7.5855C12.7165 7.74867 12.8928 8.18958 12.7297 8.5703C12.5665 8.95102 12.1256 9.12739 11.7449 8.96422C10.7959 8.55753 9.3021 8.26429 7.92202 8.65673C6.60719 9.03061 5.27882 10.0574 4.61612 12.5425C4.54496 12.8094 4.33518 13.0103 4.07667 13.0761C4.06061 13.0859 4.03835 13.1003 4.00992 13.1204C3.90583 13.1938 3.76319 13.3118 3.60831 13.4667C3.29118 13.7839 2.98811 14.1897 2.84094 14.5892C2.7015 14.9677 2.71942 15.2722 2.91238 15.5452C3.13578 15.8614 3.69256 16.28 4.97878 16.6015C5.38062 16.702 5.62494 17.1092 5.52448 17.511C5.42402 17.9129 5.01682 18.1572 4.61497 18.0567C3.18491 17.6992 2.21378 17.1558 1.68738 16.4109C1.13053 15.6229 1.17675 14.7673 1.43343 14.0706C1.68239 13.3949 2.14328 12.8104 2.54765 12.4061C2.75353 12.2002 2.96103 12.0247 3.14519 11.8947C3.18373 11.8675 3.22334 11.8409 3.26357 11.8154C4.08583 9.09503 5.71594 7.72458 7.51174 7.21393ZM4.10441 13.0603C4.11987 13.0525 4.11746 13.0554 4.10047 13.0623L4.10441 13.0603Z" fill="#333333" class='xian'/>
<path fill-rule="evenodd" clip-rule="evenodd" d="M15.4021 5.71719C15.613 6.07372 15.4949 6.53368 15.1384 6.74454C14.4433 7.15565 13.5356 7.84006 12.5706 8.80504C12.2777 9.09793 11.8029 9.09793 11.51 8.80504C11.2171 8.51214 11.2171 8.03727 11.51 7.74438C12.551 6.70333 13.5568 5.93727 14.3748 5.45345C14.7313 5.24259 15.1913 5.36067 15.4021 5.71719Z" fill="#333333" class='xian'/>
<path fill-rule="evenodd" clip-rule="evenodd" d="M18.7249 8.8902C19.135 8.83162 19.5149 9.11655 19.5735 9.5266C19.9783 12.3604 18.7818 14.5489 17.1913 16.0905C16.6103 16.6535 15.972 17.1361 15.3288 17.5413C15.5602 17.8784 15.8015 18.1776 16.0442 18.4105C16.2479 18.6061 16.4293 18.7324 16.5843 18.8048C17.0926 18.6677 17.7324 18.5772 18.3575 18.5598C19.0712 18.54 19.9027 18.6107 20.5246 18.9217C20.8951 19.1069 21.0452 19.5574 20.86 19.9279C20.6747 20.2984 20.2242 20.4485 19.8537 20.2633C19.5702 20.1215 19.0435 20.0413 18.3991 20.0592C17.7755 20.0766 17.1721 20.1815 16.8046 20.304C16.6693 20.3491 16.5239 20.3547 16.3855 20.3201C15.8466 20.1853 15.3835 19.8556 15.0054 19.4927C14.6332 19.1353 14.2992 18.7031 14.0102 18.269C13.3729 18.5747 12.7683 18.802 12.2519 18.9538C11.8546 19.0707 11.4377 18.8434 11.3208 18.446C11.2039 18.0486 11.4313 17.6317 11.8287 17.5148C12.2473 17.3917 12.7359 17.2096 13.2527 16.9681C13.0181 16.5129 12.833 16.1027 12.7091 15.8135C12.6222 15.6107 12.629 15.38 12.7276 15.1826L14.0858 12.4664C14.271 12.0959 14.7215 11.9457 15.092 12.1309C15.4625 12.3162 15.6126 12.7667 15.4274 13.1372L14.2269 15.5381C14.3223 15.7485 14.4372 15.9906 14.5687 16.2472C15.1167 15.8988 15.658 15.4876 16.1473 15.0133C17.4919 13.7103 18.4081 11.9753 18.0885 9.73873C18.03 9.32868 18.3149 8.94878 18.7249 8.8902Z" fill="#333333" class='xian'/>
<path fill-rule="evenodd" clip-rule="evenodd" d="M15.9974 13.9416C16.3679 14.1269 16.5181 14.5774 16.3328 14.9479L16.0874 15.4387L18.5256 18.6896C18.7741 19.021 18.707 19.4911 18.3756 19.7396C18.0442 19.9881 17.5741 19.921 17.3256 19.5896L14.6093 15.9679C14.4389 15.7406 14.4114 15.4366 14.5385 15.1825L14.9912 14.2771C15.1764 13.9066 15.6269 13.7564 15.9974 13.9416Z" fill="#333333" class='xian'/>
<path fill-rule="evenodd" clip-rule="evenodd" d="M8.34098 12.2712C8.63388 11.9783 9.10875 11.9783 9.40164 12.2712C9.77844 12.648 10.1775 13.1341 10.4914 13.6734C10.8011 14.2055 11.058 14.8409 11.0809 15.5033C11.0977 15.9912 10.9855 16.4772 10.7052 16.9152C11.725 16.847 12.8029 16.743 13.7279 16.5889C14.1364 16.5208 14.5229 16.7968 14.591 17.2054C14.6591 17.6139 14.383 18.0004 13.9745 18.0684C11.7402 18.4408 8.73389 18.5314 7.51317 18.5314C7.12294 18.5314 6.79791 18.2321 6.76573 17.8432C6.73354 17.4543 7.00495 17.1057 7.38987 17.0416C8.40377 16.8726 8.95844 16.5928 9.24724 16.332C9.50749 16.097 9.59172 15.8439 9.58176 15.555C9.57065 15.2326 9.43707 14.8438 9.19505 14.428C8.95721 14.0194 8.64326 13.6341 8.34098 13.3318C8.04809 13.039 8.04809 12.5641 8.34098 12.2712Z" fill="#333333" class='xian'/>
<path d="M19.5 5.75C19.5 6.99264 18.4926 8 17.25 8C16.0074 8 15 6.99264 15 5.75C15 4.50736 16.0074 3.5 17.25 3.5C18.4926 3.5 19.5 4.50736 19.5 5.75Z" fill="rgba(0,0,0,0)" class='mian'/>
<path fill-rule="evenodd" clip-rule="evenodd" d="M17.25 4.25C16.4216 4.25 15.75 4.92157 15.75 5.75C15.75 6.57843 16.4216 7.25 17.25 7.25C18.0784 7.25 18.75 6.57843 18.75 5.75C18.75 4.92157 18.0784 4.25 17.25 4.25ZM14.25 5.75C14.25 4.09315 15.5931 2.75 17.25 2.75C18.9069 2.75 20.25 4.09315 20.25 5.75C20.25 7.40685 18.9069 8.75 17.25 8.75C15.5931 8.75 14.25 7.40685 14.25 5.75Z" fill="#333333" class='xian'/>
<path d="M18.25 5.5C18.25 5.91421 17.9142 6.25 17.5 6.25C17.0858 6.25 16.75 5.91421 16.75 5.5C16.75 5.08579 17.0858 4.75 17.5 4.75C17.9142 4.75 18.25 5.08579 18.25 5.5Z" fill="#333333" class='xian'/>
</svg>
