<svg width="24" height="24" viewBox="0 0 24 24" fill="none" xmlns="http://www.w3.org/2000/svg">
<path d="M22 8.24149L18.8529 9.59024C19.2654 12.4772 18.322 14.4732 16.538 15.9134C16.2153 16.174 18.8605 19.6706 18.5242 19.8858C16.0415 20.8789 14.3355 17.1915 14.3355 17.1915C13.5288 17.6331 12.7452 17.9453 12.1092 18.1324L13.5588 19.8858L6.21764 20.3823C4.1245 20.3823 3.62794 19.4812 3.62796 18.3963C3.62797 17.3115 4.91586 17.2332 4.91586 17.2332C-0.479124 15.8845 3.17839 11.9411 3.62796 11.9411C7.10375 9.45841 9.43173 8.24159 12.1092 8.24159C13.1053 7.24552 14.0554 6.5253 14.8067 6.08093L19.5173 5.73047C20.9856 6.35105 21.8131 7.58749 22 8.24149Z" fill="#A5E736" class='mian'/>
<ellipse cx="17.2829" cy="5.73444" rx="2.23444" ry="2.23444" fill="#C3FFBE" stroke="#333333" stroke-width="1.5"/>
<path fill-rule="evenodd" clip-rule="evenodd" d="M18.8265 5.43868C18.9877 5.05714 19.4277 4.87857 19.8093 5.03983C21.4877 5.74923 22.4723 7.16459 22.7211 8.03565C22.8249 8.39872 22.6425 8.7823 22.2954 8.93105L19.6624 10.0595C19.7765 11.3424 19.6224 12.4113 19.2044 13.3511C18.7986 14.2636 18.1687 14.9976 17.4106 15.6632L18.1263 17.8103C18.7237 18.0307 19.178 18.259 19.5049 18.4993C19.8736 18.7703 20.2307 19.1731 20.2156 19.7125C20.2002 20.2587 19.8161 20.589 19.5497 20.7426C19.2661 20.9062 18.926 20.9916 18.6161 20.9916H16.605C16.3632 20.9916 16.1362 20.8751 15.9954 20.6785L15.9691 20.6418L15.896 20.539C15.8329 20.4502 15.7425 20.3224 15.6327 20.1658C15.4133 19.853 15.1156 19.4243 14.8033 18.9619C14.617 18.6861 14.4195 18.3896 14.2278 18.0936C14.1368 18.1394 14.0461 18.1885 13.9543 18.2405C14.0006 18.2785 14.0457 18.3191 14.0891 18.3626C14.5151 18.7886 14.6338 19.3302 14.6662 19.6853C14.6833 19.8719 14.6792 20.0353 14.671 20.1528C14.6669 20.2122 14.6616 20.2615 14.6569 20.2982C14.6558 20.3077 14.6546 20.3163 14.6535 20.3241C14.6525 20.3315 14.6515 20.3382 14.6506 20.344L14.6482 20.3595L14.6472 20.3653L14.6468 20.3677L14.6466 20.3688C14.6463 20.3706 13.4128 20.1558 14.6465 20.3698C14.5841 20.7292 14.2723 20.9916 13.9075 20.9916H4.91586C4.9047 20.9916 4.89272 20.9917 4.87995 20.9917C4.64879 20.9925 4.16229 20.9942 3.73506 20.7705C3.48442 20.6392 3.25521 20.4343 3.09658 20.137C2.9426 19.8483 2.87795 19.5157 2.87795 19.1568C2.87796 18.4969 3.18215 17.945 3.48941 17.5505C2.7118 17.2162 2.13693 16.7838 1.76712 16.2481C1.19969 15.4263 1.21739 14.5155 1.47327 13.7262C1.72381 12.9533 2.21632 12.2368 2.71533 11.666C3.21755 11.0915 3.77151 10.6132 4.20501 10.3242C4.21578 10.317 4.22669 10.3097 4.23774 10.3024C4.98595 9.8035 6.35893 8.88806 7.81957 8.20588C8.56086 7.85966 9.35295 7.55981 10.1193 7.40967C10.7068 7.29459 11.3241 7.2586 11.9067 7.39146C12.8229 6.51897 13.6983 5.86529 14.4249 5.43558C14.7814 5.22472 15.2414 5.3428 15.4522 5.69933C15.6631 6.05585 15.545 6.51581 15.1885 6.72667C14.4986 7.13469 13.5975 7.81408 12.6395 8.77212C12.4227 8.98897 12.0956 9.05195 11.8137 8.93115C11.4836 8.78964 11.0174 8.76225 10.4077 8.88169C9.80612 8.99954 9.1366 9.2463 8.45432 9.56495C7.09734 10.1987 5.80148 11.0626 5.05024 11.5635L5.03706 11.5723C4.72575 11.7798 4.26979 12.1669 3.84467 12.6532C3.41634 13.1432 3.06409 13.6831 2.90017 14.1887C2.74158 14.678 2.77511 15.068 3.00149 15.3959C3.24989 15.7557 3.83028 16.189 5.09776 16.5058C5.38719 16.5782 5.60622 16.8152 5.65554 17.1095C5.70471 17.4028 5.57585 17.6975 5.32726 17.8605C5.32687 17.8608 5.32647 17.8611 5.32607 17.8613C5.32586 17.8615 5.32629 17.8612 5.32607 17.8613C5.32647 17.8611 5.32687 17.8608 5.32726 17.8605L5.32277 17.8636C5.31757 17.8671 5.30818 17.8735 5.29522 17.8828C5.26921 17.9013 5.22927 17.9306 5.18008 17.9695C5.08053 18.0483 4.94929 18.1616 4.8204 18.2998C4.53987 18.6006 4.37796 18.9027 4.37795 19.1568C4.37795 19.3403 4.4113 19.4146 4.42007 19.431C4.42208 19.4348 4.4227 19.4363 4.42378 19.4375C4.42492 19.4387 4.42656 19.4394 4.43083 19.4416C4.45019 19.4517 4.49673 19.4689 4.58951 19.4798C4.68363 19.4909 4.78431 19.4916 4.91586 19.4916H13.0805C13.0645 19.4645 13.047 19.4417 13.0285 19.4232C12.9396 19.3344 12.747 19.2471 12.4807 19.1939C12.3619 19.1701 12.2532 19.1579 12.1746 19.1519C12.1358 19.1489 12.1057 19.1475 12.087 19.1469L12.0681 19.1464C12.0673 19.1464 12.0672 19.1463 12.0664 19.1463C11.6947 19.145 11.3798 18.8715 11.3268 18.5033C11.2737 18.1342 11.4998 17.7821 11.8575 17.6768C12.0162 17.6302 12.2365 17.515 12.5569 17.325C12.6154 17.2903 12.6772 17.2531 12.7416 17.2144C12.9572 17.0848 13.2015 16.9378 13.4462 16.809C13.3523 16.6375 13.2743 16.4825 13.2181 16.3514C13.149 16.1901 13.1386 16.0098 13.1888 15.8417L13.7862 13.8375C13.9045 13.4405 14.3222 13.2147 14.7192 13.333C15.1161 13.4513 15.342 13.869 15.2237 14.266L14.7091 15.9921C14.9736 16.4954 15.5079 17.3251 16.0464 18.1224C16.3523 18.5753 16.6447 18.9964 16.8608 19.3044C16.9087 19.3727 16.9528 19.4354 16.9924 19.4916H18.2516C18.0237 19.3772 17.7123 19.2473 17.2939 19.1079C17.07 19.0332 16.8943 18.8575 16.8196 18.6335L15.8265 15.6543C15.7275 15.3573 15.8234 15.0302 16.0669 14.8335C16.9142 14.1495 17.4948 13.5038 17.8338 12.7415C18.1695 11.9868 18.3024 11.04 18.1105 9.6965C18.0625 9.36079 18.2458 9.03466 18.5575 8.90108L20.9813 7.86228C20.6544 7.37718 20.0733 6.77991 19.2253 6.42149C18.8438 6.26023 18.6652 5.82021 18.8265 5.43868ZM12.0681 19.1464C12.0683 19.1464 12.069 19.1464 12.0692 19.1464C12.0692 17.8943 12.0698 19.1464 12.0681 19.1464ZM12.0664 19.1463C12.0661 19.1463 12.0663 19.1463 12.0664 19.1463Z" fill="#333333" class='xian'/>
<path fill-rule="evenodd" clip-rule="evenodd" d="M8.04622 13.9109C8.32951 13.6087 8.80414 13.5934 9.10632 13.8767L9.10726 13.8776L9.10856 13.8788L9.11224 13.8823L9.1238 13.8933C9.13334 13.9024 9.14647 13.9151 9.16285 13.9312C9.19559 13.9634 9.2414 14.0093 9.29741 14.0674C9.40924 14.1835 9.56285 14.3498 9.73494 14.5555C10.0751 14.962 10.5061 15.5443 10.8229 16.2131C11.136 16.8741 11.3728 17.6944 11.2161 18.5405C11.0524 19.4245 10.4855 20.2004 9.46201 20.7852C9.10238 20.9907 8.64424 20.8658 8.43873 20.5062C8.23322 20.1465 8.35817 19.6884 8.71781 19.4829C9.43222 19.0746 9.67217 18.6402 9.74121 18.2674C9.81728 17.8566 9.71273 17.3734 9.46726 16.8552C9.22541 16.3446 8.88058 15.8718 8.58453 15.518C8.43853 15.3435 8.30895 15.2034 8.21712 15.1081C8.1713 15.0605 8.13516 15.0244 8.11141 15.001L8.08551 14.9759L8.08041 14.971C7.77855 14.6876 7.76302 14.2129 8.04622 13.9109Z" fill="#333333" class='xian'/>
<path fill-rule="evenodd" clip-rule="evenodd" d="M17.2829 4.25C16.463 4.25 15.7984 4.91461 15.7984 5.73444C15.7984 6.55427 16.463 7.21887 17.2829 7.21887C18.1027 7.21887 18.7673 6.55427 18.7673 5.73444C18.7673 4.91461 18.1027 4.25 17.2829 4.25ZM14.2984 5.73444C14.2984 4.08618 15.6346 2.75 17.2829 2.75C18.9311 2.75 20.2673 4.08618 20.2673 5.73444C20.2673 7.3827 18.9311 8.71887 17.2829 8.71887C15.6346 8.71887 14.2984 7.3827 14.2984 5.73444Z" fill="#333333" class='xian'/>
<path d="M18.2759 5.48627C18.2759 5.89762 17.9425 6.23108 17.5311 6.23108C17.1198 6.23108 16.7863 5.89762 16.7863 5.48627C16.7863 5.07492 17.1198 4.74146 17.5311 4.74146C17.9425 4.74146 18.2759 5.07492 18.2759 5.48627Z" fill="#333333" class='xian'/>
</svg>
