<svg width="24" height="24" viewBox="0 0 24 24" fill="none" xmlns="http://www.w3.org/2000/svg">
<path d="M9 13V22H21V13H9Z" fill="#3E4154" class='mian'/>
<path fill-rule="evenodd" clip-rule="evenodd" d="M8.25 13C8.25 12.5858 8.58579 12.25 9 12.25H21C21.4142 12.25 21.75 12.5858 21.75 13V22C21.75 22.4142 21.4142 22.75 21 22.75H9C8.58579 22.75 8.25 22.4142 8.25 22V13ZM9.75 13.75V21.25H20.25V13.75H9.75Z" fill="#333333" class='xian'/>
<path d="M9 2V13H21V2H9Z" fill="black" class='mian'/>
<path fill-rule="evenodd" clip-rule="evenodd" d="M8.25 2C8.25 1.58579 8.58579 1.25 9 1.25H21C21.4142 1.25 21.75 1.58579 21.75 2V13C21.75 13.4142 21.4142 13.75 21 13.75H9C8.58579 13.75 8.25 13.4142 8.25 13V2ZM9.75 2.75V12.25H20.25V2.75H9.75Z" fill="#333333" class='xian'/>
<path d="M3 2V9H9V2H3Z" fill="black" class='mian'/>
<path fill-rule="evenodd" clip-rule="evenodd" d="M2.25 2C2.25 1.58579 2.58579 1.25 3 1.25H9C9.41421 1.25 9.75 1.58579 9.75 2V9C9.75 9.41421 9.41421 9.75 9 9.75H3C2.58579 9.75 2.25 9.41421 2.25 9V2ZM3.75 2.75V8.25H8.25V2.75H3.75Z" fill="#333333" class='xian'/>
<path d="M3 9V22H9V9H3Z" fill="#3E4154" class='mian'/>
<path fill-rule="evenodd" clip-rule="evenodd" d="M2.25 9C2.25 8.58579 2.58579 8.25 3 8.25H9C9.41421 8.25 9.75 8.58579 9.75 9V22C9.75 22.4142 9.41421 22.75 9 22.75H3C2.58579 22.75 2.25 22.4142 2.25 22V9ZM3.75 9.75V21.25H8.25V9.75H3.75Z" fill="#333333" class='xian'/>
<path fill-rule="evenodd" clip-rule="evenodd" d="M4.75 5.25C4.88807 5.25 5 5.36193 5 5.5V7.5C5 7.63807 4.88807 7.75 4.75 7.75C4.61193 7.75 4.5 7.63807 4.5 7.5V5.5C4.5 5.36193 4.61193 5.25 4.75 5.25Z" fill="#76CBA1" class='xian'/>
</svg>
