<svg width="24" height="24" viewBox="0 0 24 24" fill="none" xmlns="http://www.w3.org/2000/svg">
<path d="M2 11V18H22V11H2Z" fill="#C9C8C4" class='mian'/>
<path fill-rule="evenodd" clip-rule="evenodd" d="M1.25 11C1.25 10.5858 1.58579 10.25 2 10.25H22C22.4142 10.25 22.75 10.5858 22.75 11V18C22.75 18.4142 22.4142 18.75 22 18.75H2C1.58579 18.75 1.25 18.4142 1.25 18V11ZM2.75 11.75V17.25H21.25V11.75H2.75Z" fill="#333333" class='xian'/>
<path d="M2 9V13H5.33333H9.77778H22V9.00003L2 9Z" fill="#161A19" class='mian'/>
<path fill-rule="evenodd" clip-rule="evenodd" d="M1.46967 8.46967C1.61032 8.32902 1.80109 8.25 2 8.25L22 8.25003C22.4142 8.25003 22.75 8.58581 22.75 9.00003V13C22.75 13.4142 22.4142 13.75 22 13.75H2C1.58579 13.75 1.25 13.4142 1.25 13V9C1.25 8.80109 1.32902 8.61032 1.46967 8.46967ZM2.75 9.75V12.25H21.25V9.75003L2.75 9.75Z" fill="#333333" class='xian'/>
<path d="M2 6V9H6V6H2Z" fill="#161A19" class='mian'/>
<path fill-rule="evenodd" clip-rule="evenodd" d="M1.25 6C1.25 5.58579 1.58579 5.25 2 5.25H6C6.41421 5.25 6.75 5.58579 6.75 6V9C6.75 9.41421 6.41421 9.75 6 9.75H2C1.58579 9.75 1.25 9.41421 1.25 9V6ZM2.75 6.75V8.25H5.25V6.75H2.75Z" fill="#333333" class='xian'/>
</svg>
