<svg width="24" height="24" viewBox="0 0 24 24" fill="none" xmlns="http://www.w3.org/2000/svg">
<path fill-rule="evenodd" clip-rule="evenodd" d="M3.25 2C3.25 1.58579 3.58579 1.25 4 1.25H20C20.4142 1.25 20.75 1.58579 20.75 2V22C20.75 22.4142 20.4142 22.75 20 22.75H4C3.58579 22.75 3.25 22.4142 3.25 22V2ZM4.75 2.75V21.25H19.25V2.75H4.75Z" fill="#333333" class='xian'/>
<path fill-rule="evenodd" clip-rule="evenodd" d="M11.7 4.24995C11.7 4.08427 11.8343 3.94995 12 3.94995H17C17.1657 3.94995 17.3 4.08427 17.3 4.24995V8.24995C17.3 8.41564 17.1657 8.54995 17 8.54995H12C11.8343 8.54995 11.7 8.41564 11.7 8.24995V4.24995ZM12.3 4.54995V7.94995H16.7V4.54995H12.3Z" fill="#333333" class='xian'/>
<path fill-rule="evenodd" clip-rule="evenodd" d="M4 18.25L20 18.25L20 19.75L4 19.75L4 18.25Z" fill="#333333" class='xian'/>
<path fill-rule="evenodd" clip-rule="evenodd" d="M7.5 14L7.5 15.5C7.5 15.7761 7.27614 16 7 16C6.72386 16 6.5 15.7761 6.5 15.5L6.5 14C6.5 13.7239 6.72386 13.5 7 13.5C7.27614 13.5 7.5 13.7239 7.5 14Z" fill="#333333" class='xian'/>
<path fill-rule="evenodd" clip-rule="evenodd" d="M7.5 5.5L7.5 7C7.5 7.27614 7.27614 7.5 7 7.5C6.72386 7.5 6.5 7.27614 6.5 7L6.5 5.5C6.5 5.22386 6.72386 5 7 5C7.27614 5 7.5 5.22386 7.5 5.5Z" fill="#333333" class='xian'/>
<path fill-rule="evenodd" clip-rule="evenodd" d="M4 9.75L20 9.75L20 11.25L4 11.25L4 9.75Z" fill="#333333" class='xian'/>
<path fill-rule="evenodd" clip-rule="evenodd" d="M14.4346 11.9497C14.5727 11.9497 14.6846 12.0616 14.6846 12.1997V17.1997C14.6846 17.3378 14.5727 17.4497 14.4346 17.4497C14.2965 17.4497 14.1846 17.3378 14.1846 17.1997V12.1997C14.1846 12.0616 14.2965 11.9497 14.4346 11.9497Z" fill="#69B4E9" class='mian'/>
<path fill-rule="evenodd" clip-rule="evenodd" d="M13.4999 12.2422C13.5927 12.1399 13.7508 12.1322 13.853 12.225L14.435 12.7527L15.0172 12.2249C15.1195 12.1322 15.2776 12.14 15.3703 12.2422C15.463 12.3445 15.4553 12.5026 15.353 12.5954L14.4349 13.4277L13.5171 12.5953C13.4149 12.5026 13.4072 12.3445 13.4999 12.2422Z" fill="#69B4E9" class='mian'/>
<path fill-rule="evenodd" clip-rule="evenodd" d="M13.4926 17.1359C13.5807 17.2422 13.7383 17.257 13.8446 17.1689L14.435 16.6798L15.0256 17.169C15.132 17.257 15.2896 17.2422 15.3776 17.1359C15.4657 17.0296 15.4509 16.872 15.3446 16.7839L14.4349 16.0306L13.5256 16.7839C13.4193 16.872 13.4045 17.0296 13.4926 17.1359Z" fill="#69B4E9" class='mian'/>
<path fill-rule="evenodd" clip-rule="evenodd" d="M16.8164 13.3243C16.8854 13.4439 16.8445 13.5968 16.7249 13.6658L12.3948 16.1658C12.2752 16.2348 12.1223 16.1939 12.0533 16.0743C11.9842 15.9547 12.0252 15.8018 12.1448 15.7328L16.4749 13.2328C16.5945 13.1638 16.7474 13.2047 16.8164 13.3243Z" fill="#69B4E9" class='mian'/>
<path fill-rule="evenodd" clip-rule="evenodd" d="M16.0957 12.661C16.2307 12.6902 16.3164 12.8233 16.2872 12.9582L16.1212 13.7261L16.8693 13.9664C17.0008 14.0086 17.0731 14.1494 17.0309 14.2808C16.9887 14.4123 16.8479 14.4846 16.7164 14.4424L15.5366 14.0635L15.7985 12.8525C15.8277 12.7175 15.9608 12.6318 16.0957 12.661Z" fill="#69B4E9" class='mian'/>
<path fill-rule="evenodd" clip-rule="evenodd" d="M11.8541 15.1016C11.806 15.231 11.872 15.3749 12.0015 15.4229L12.7203 15.6897L12.592 16.4458C12.5689 16.5819 12.6605 16.711 12.7966 16.7341C12.9327 16.7572 13.0618 16.6655 13.0849 16.5294L13.2825 15.365L12.1754 14.9542C12.046 14.9061 11.9021 14.9721 11.8541 15.1016Z" fill="#69B4E9" class='mian'/>
<path fill-rule="evenodd" clip-rule="evenodd" d="M12.0532 13.3252C12.1223 13.2057 12.2752 13.1647 12.3947 13.2337L16.7249 15.7337C16.8444 15.8028 16.8854 15.9557 16.8164 16.0752C16.7473 16.1948 16.5944 16.2358 16.4749 16.1667L12.1447 13.6667C12.0252 13.5977 11.9842 13.4448 12.0532 13.3252Z" fill="#69B4E9" class='mian'/>
<path fill-rule="evenodd" clip-rule="evenodd" d="M11.8392 14.2809C11.797 14.1495 11.8694 14.0087 12.0008 13.9665L12.7489 13.7264L12.5829 12.9583C12.5537 12.8233 12.6395 12.6903 12.7744 12.6611C12.9094 12.632 13.0424 12.7177 13.0716 12.8527L13.3334 14.0639L12.1536 14.4426C12.0222 14.4847 11.8814 14.4124 11.8392 14.2809Z" fill="#69B4E9" class='mian'/>
<path fill-rule="evenodd" clip-rule="evenodd" d="M16.0736 16.7341C16.2097 16.7109 16.3013 16.5818 16.2782 16.4457L16.1498 15.6899L16.8687 15.4229C16.9981 15.3749 17.0641 15.231 17.0161 15.1015C16.968 14.9721 16.8241 14.9061 16.6947 14.9542L15.5875 15.3653L15.7852 16.5295C15.8083 16.6656 15.9374 16.7572 16.0736 16.7341Z" fill="#69B4E9" class='mian'/>
</svg>
