<svg width="24" height="24" viewBox="0 0 24 24" fill="none" xmlns="http://www.w3.org/2000/svg">
<path fill-rule="evenodd" clip-rule="evenodd" d="M1.25 3C1.25 2.58579 1.58579 2.25 2 2.25H22C22.4142 2.25 22.75 2.58579 22.75 3V21C22.75 21.4142 22.4142 21.75 22 21.75H2C1.58579 21.75 1.25 21.4142 1.25 21V3ZM2.75 3.75V20.25H21.25V3.75H2.75Z" fill="#333333" class='xian'/>
<path fill-rule="evenodd" clip-rule="evenodd" d="M5.0499 5.55005C4.87041 5.55005 4.7249 5.69556 4.7249 5.87505V7.54481C4.7249 7.63405 4.67733 7.71653 4.60008 7.76121C4.33042 7.9172 4.1499 8.20815 4.1499 8.54096C4.1499 9.03801 4.55285 9.44096 5.0499 9.44096C5.54696 9.44096 5.9499 9.03801 5.9499 8.54096C5.9499 8.20815 5.76938 7.9172 5.49972 7.76121C5.42247 7.71653 5.3749 7.63405 5.3749 7.54481V5.87505C5.3749 5.69556 5.22939 5.55005 5.0499 5.55005ZM4.2249 5.87505C4.2249 5.41941 4.59427 5.05005 5.0499 5.05005C5.50554 5.05005 5.8749 5.41941 5.8749 5.87505V7.40978C6.22308 7.66414 6.4499 8.07594 6.4499 8.54096C6.4499 9.31416 5.8231 9.94096 5.0499 9.94096C4.2767 9.94096 3.6499 9.31416 3.6499 8.54096C3.6499 8.07594 3.87672 7.66414 4.2249 7.40978V5.87505Z" fill="#333333" class='xian'/>
<path fill-rule="evenodd" clip-rule="evenodd" d="M5.5099 8.29089C5.64797 8.29089 5.7599 8.40282 5.7599 8.54089C5.7599 8.93302 5.44202 9.25089 5.0499 9.25089C4.91183 9.25089 4.7999 9.13896 4.7999 9.00089C4.7999 8.86282 4.91183 8.75089 5.0499 8.75089C5.16588 8.75089 5.2599 8.65687 5.2599 8.54089C5.2599 8.40282 5.37183 8.29089 5.5099 8.29089Z" fill="#333333" class='xian'/>
<path fill-rule="evenodd" clip-rule="evenodd" d="M5 17.75C4.30964 17.75 3.75 17.1904 3.75 16.5C3.75 15.8096 4.30964 15.25 5 15.25C5.69036 15.25 6.25 15.8096 6.25 16.5C6.25 17.1904 5.69036 17.75 5 17.75ZM3.25 16.5C3.25 17.4665 4.0335 18.25 5 18.25C5.9665 18.25 6.75 17.4665 6.75 16.5C6.75 15.5335 5.9665 14.75 5 14.75C4.0335 14.75 3.25 15.5335 3.25 16.5Z" fill="#333333" class='xian'/>
<path fill-rule="evenodd" clip-rule="evenodd" d="M7.25 21V3H8.75V21H7.25Z" fill="#333333" class='xian'/>
<path fill-rule="evenodd" clip-rule="evenodd" d="M2 11.25L8 11.25L8 12.75L2 12.75L2 11.25Z" fill="#333333" class='xian'/>
<path fill-rule="evenodd" clip-rule="evenodd" d="M9.75 6C9.75 5.72386 9.97386 5.5 10.25 5.5H19.75C20.0261 5.5 20.25 5.72386 20.25 6V18C20.25 18.2761 20.0261 18.5 19.75 18.5H10.25C9.97386 18.5 9.75 18.2761 9.75 18V6ZM10.75 6.5V17.5H19.25V6.5H10.75Z" fill="#333333" class='xian'/>
<path fill-rule="evenodd" clip-rule="evenodd" d="M14.2744 9.8419C14.3617 10.1039 14.2201 10.387 13.9582 10.4744C13.8343 10.5156 13.7833 10.5598 13.762 10.5837C13.7424 10.6059 13.7248 10.6369 13.7143 10.6963C13.6872 10.8502 13.7222 11.0613 13.7904 11.402C13.7929 11.4147 13.7955 11.4278 13.7982 11.4411C13.855 11.7234 13.9342 12.1172 13.8706 12.4775C13.8342 12.6838 13.7502 12.8949 13.5863 13.0798C13.4239 13.2629 13.2093 13.3906 12.9582 13.4744C12.6962 13.5617 12.413 13.4201 12.3257 13.1581C12.2384 12.8962 12.38 12.613 12.6419 12.5257C12.7658 12.4844 12.8169 12.4402 12.8381 12.4163C12.8577 12.3942 12.8753 12.3631 12.8858 12.3037C12.913 12.1498 12.8779 11.9388 12.8098 11.5981C12.8072 11.5853 12.8046 11.5722 12.8019 11.559C12.7451 11.2766 12.666 10.8829 12.7295 10.5225C12.7659 10.3163 12.8499 10.1051 13.0139 9.92022C13.1762 9.73712 13.3908 9.60938 13.6419 9.52567C13.9039 9.43835 14.1871 9.57993 14.2744 9.8419Z" fill="#FF4B4B" class='mian'/>
<path fill-rule="evenodd" clip-rule="evenodd" d="M16.2744 9.8419C16.3617 10.1039 16.2201 10.387 15.9582 10.4744C15.8343 10.5156 15.7833 10.5598 15.762 10.5837C15.7424 10.6059 15.7248 10.6369 15.7143 10.6963C15.6872 10.8502 15.7222 11.0613 15.7904 11.402C15.7929 11.4147 15.7955 11.4278 15.7982 11.4411C15.855 11.7234 15.9342 12.1172 15.8706 12.4775C15.8342 12.6838 15.7502 12.8949 15.5863 13.0798C15.4239 13.2629 15.2093 13.3906 14.9582 13.4744C14.6962 13.5617 14.413 13.4201 14.3257 13.1581C14.2384 12.8962 14.38 12.613 14.6419 12.5257C14.7658 12.4844 14.8169 12.4402 14.8381 12.4163C14.8577 12.3942 14.8753 12.3631 14.8858 12.3037C14.913 12.1498 14.8779 11.9388 14.8098 11.5981C14.8072 11.5853 14.8046 11.5722 14.8019 11.559C14.7451 11.2766 14.666 10.8829 14.7295 10.5225C14.7659 10.3163 14.8499 10.1051 15.0139 9.92022C15.1762 9.73712 15.3908 9.60938 15.6419 9.52567C15.9039 9.43835 16.1871 9.57993 16.2744 9.8419Z" fill="#FF4B4B" class='mian'/>
<path fill-rule="evenodd" clip-rule="evenodd" d="M18.2744 9.8419C18.3617 10.1039 18.2201 10.387 17.9582 10.4744C17.8343 10.5156 17.7833 10.5598 17.762 10.5837C17.7424 10.6059 17.7248 10.6369 17.7143 10.6963C17.6872 10.8502 17.7222 11.0613 17.7904 11.402C17.7929 11.4147 17.7955 11.4278 17.7982 11.4411C17.855 11.7234 17.9342 12.1172 17.8706 12.4775C17.8342 12.6838 17.7502 12.8949 17.5863 13.0798C17.4239 13.2629 17.2093 13.3906 16.9582 13.4744C16.6962 13.5617 16.413 13.4201 16.3257 13.1581C16.2384 12.8962 16.38 12.613 16.6419 12.5257C16.7658 12.4844 16.8169 12.4402 16.8381 12.4163C16.8577 12.3942 16.8753 12.3631 16.8858 12.3037C16.913 12.1498 16.8779 11.9388 16.8098 11.5981C16.8072 11.5853 16.8046 11.5722 16.8019 11.559C16.7451 11.2766 16.666 10.8829 16.7295 10.5225C16.7659 10.3163 16.8499 10.1051 17.0139 9.92022C17.1762 9.73712 17.3908 9.60938 17.6419 9.52567C17.9039 9.43835 18.1871 9.57993 18.2744 9.8419Z" fill="#FF4B4B" class='mian'/>
<path fill-rule="evenodd" clip-rule="evenodd" d="M11.1464 13.1464C11.3417 12.9512 11.6583 12.9512 11.8536 13.1464L12.7071 14H17.2929L18.1464 13.1464C18.3417 12.9512 18.6583 12.9512 18.8536 13.1464C19.0488 13.3417 19.0488 13.6583 18.8536 13.8536L17.8536 14.8536C17.7598 14.9473 17.6326 15 17.5 15H12.5C12.3674 15 12.2402 14.9473 12.1464 14.8536L11.1464 13.8536C10.9512 13.6583 10.9512 13.3417 11.1464 13.1464Z" fill="#FF4B4B" class='mian'/>
<path fill-rule="evenodd" clip-rule="evenodd" d="M5 15.5C5.13807 15.5 5.25 15.6119 5.25 15.75V16.5C5.25 16.6381 5.13807 16.75 5 16.75C4.86193 16.75 4.75 16.6381 4.75 16.5V15.75C4.75 15.6119 4.86193 15.5 5 15.5Z" fill="#333333" class='xian'/>
<path fill-rule="evenodd" clip-rule="evenodd" d="M4.75 16.5C4.75 16.3619 4.86193 16.25 5 16.25H5.75C5.88807 16.25 6 16.3619 6 16.5C6 16.6381 5.88807 16.75 5.75 16.75H5C4.86193 16.75 4.75 16.6381 4.75 16.5Z" fill="#333333" class='xian'/>
</svg>
