<svg width="24" height="24" viewBox="0 0 24 24" fill="none" xmlns="http://www.w3.org/2000/svg">
<path d="M2 21.5V12L4 11.5L5 11L6 11.5L7 12L8 11.5V16H15.5V11.5L17 11L18 11.5L19 12L20 11.5L22 11V21.5H2Z" fill="#64C2FF"  class='mian'/>
<path fill-rule="evenodd" clip-rule="evenodd" d="M1.25 2.5C1.25 2.08579 1.58579 1.75 2 1.75H22C22.4142 1.75 22.75 2.08579 22.75 2.5V21.5C22.75 21.9142 22.4142 22.25 22 22.25H2C1.58579 22.25 1.25 21.9142 1.25 21.5V2.5ZM2.75 3.25V20.75H21.25V3.25H2.75Z" fill="#333333" class='xian'/>
<path d="M8.5 14H15.5V17.5H8.5V14Z" fill="#999999" class='mian'/>
<path fill-rule="evenodd" clip-rule="evenodd" d="M3.64645 11.1465C4.394 10.3989 5.60601 10.3989 6.35356 11.1465C6.71058 11.5035 7.28943 11.5035 7.64645 11.1465C7.84172 10.9512 8.1583 10.9512 8.35356 11.1465C8.54882 11.3417 8.54882 11.6583 8.35356 11.8536C7.60601 12.6011 6.394 12.6011 5.64645 11.8536C5.28943 11.4966 4.71058 11.4966 4.35356 11.8536C3.60601 12.6011 2.394 12.6011 1.64645 11.8536L2.35356 11.1465C2.71058 11.5035 3.28943 11.5035 3.64645 11.1465ZM15.6465 11.1465C16.394 10.3989 17.606 10.3989 18.3536 11.1465C18.7106 11.5035 19.2894 11.5035 19.6465 11.1465C20.394 10.3989 21.606 10.3989 22.3536 11.1465L21.6465 11.8536C21.2894 11.4966 20.7106 11.4966 20.3536 11.8536C19.606 12.6011 18.394 12.6011 17.6465 11.8536C17.2894 11.4966 16.7106 11.4966 16.3536 11.8536C16.1583 12.0488 15.8417 12.0488 15.6465 11.8536C15.4512 11.6583 15.4512 11.3417 15.6465 11.1465Z" fill="#333333" class='xian'/>
<path fill-rule="evenodd" clip-rule="evenodd" d="M18.0514 16.9209C18.0951 17.0519 18.0243 17.1935 17.8933 17.2371C17.818 17.2622 17.783 17.2904 17.7658 17.3098C17.7494 17.3283 17.737 17.3524 17.7301 17.3916C17.7132 17.4875 17.7352 17.6154 17.7737 17.8081C17.7751 17.8149 17.7764 17.8218 17.7779 17.8288C17.8105 17.9915 17.8545 18.2104 17.8194 18.4095C17.7995 18.5221 17.7539 18.6363 17.6654 18.7361C17.5776 18.8351 17.4608 18.9051 17.3219 18.9514C17.1909 18.9951 17.0493 18.9243 17.0057 18.7933C16.962 18.6623 17.0328 18.5207 17.1638 18.4771C17.2391 18.4519 17.2741 18.4237 17.2913 18.4044C17.3077 18.3859 17.3201 18.3618 17.327 18.3226C17.3439 18.2266 17.3219 18.0988 17.2834 17.9061C17.282 17.8993 17.2807 17.8924 17.2792 17.8854C17.2466 17.7227 17.2026 17.5038 17.2377 17.3047C17.2576 17.1921 17.3032 17.0779 17.3917 16.978C17.4795 16.8791 17.5963 16.8091 17.7352 16.7628C17.8662 16.7191 18.0078 16.7899 18.0514 16.9209Z" fill="#FF4B4B" class='xian'/>
<path fill-rule="evenodd" clip-rule="evenodd" d="M19.1943 16.9209C19.238 17.0519 19.1672 17.1935 19.0362 17.2371C18.9609 17.2622 18.9259 17.2904 18.9087 17.3098C18.8923 17.3283 18.8799 17.3524 18.873 17.3916C18.8561 17.4875 18.8781 17.6154 18.9166 17.8081C18.918 17.8149 18.9194 17.8218 18.9208 17.8288C18.9534 17.9915 18.9974 18.2104 18.9623 18.4095C18.9424 18.5221 18.8968 18.6363 18.8083 18.7361C18.7205 18.8351 18.6038 18.9051 18.4648 18.9514C18.3338 18.9951 18.1922 18.9243 18.1486 18.7933C18.1049 18.6623 18.1757 18.5207 18.3067 18.4771C18.382 18.4519 18.417 18.4237 18.4342 18.4044C18.4506 18.3859 18.463 18.3618 18.4699 18.3226C18.4868 18.2266 18.4649 18.0988 18.4263 17.9061C18.425 17.8993 18.4236 17.8924 18.4222 17.8854C18.3895 17.7227 18.3455 17.5038 18.3806 17.3047C18.4005 17.1921 18.4461 17.0779 18.5346 16.978C18.6224 16.8791 18.7392 16.8091 18.8781 16.7628C19.0091 16.7191 19.1507 16.7899 19.1943 16.9209Z" fill="#FF4B4B" class='xian'/>
<path fill-rule="evenodd" clip-rule="evenodd" d="M20.3372 16.9209C20.3809 17.0519 20.3101 17.1935 20.1791 17.2371C20.1038 17.2622 20.0688 17.2904 20.0516 17.3098C20.0352 17.3283 20.0228 17.3524 20.0159 17.3916C19.999 17.4875 20.021 17.6154 20.0595 17.8081C20.0609 17.8149 20.0622 17.8218 20.0637 17.8288C20.0963 17.9915 20.1403 18.2104 20.1052 18.4095C20.0853 18.5221 20.0397 18.6363 19.9512 18.7361C19.8634 18.8351 19.7466 18.9051 19.6077 18.9514C19.4767 18.9951 19.3351 18.9243 19.2915 18.7933C19.2478 18.6623 19.3186 18.5207 19.4496 18.4771C19.5249 18.4519 19.5599 18.4237 19.5771 18.4044C19.5935 18.3859 19.6059 18.3618 19.6128 18.3226C19.6297 18.2266 19.6077 18.0988 19.5692 17.9061C19.5678 17.8993 19.5665 17.8924 19.565 17.8854C19.5324 17.7227 19.4884 17.5038 19.5235 17.3047C19.5434 17.1921 19.589 17.0779 19.6775 16.978C19.7653 16.8791 19.8821 16.8091 20.021 16.7628C20.152 16.7191 20.2936 16.7899 20.3372 16.9209Z" fill="#FF4B4B" class='xian'/>
<path fill-rule="evenodd" clip-rule="evenodd" d="M16.3232 18.8232C16.4209 18.7256 16.5791 18.7256 16.6768 18.8232L17.175 19.3214H19.825L20.3232 18.8232C20.4209 18.7256 20.5791 18.7256 20.6768 18.8232C20.7744 18.9209 20.7744 19.0791 20.6768 19.1768L20.1053 19.7482C20.0585 19.7951 19.9949 19.8214 19.9286 19.8214H17.0714C17.0051 19.8214 16.9415 19.7951 16.8947 19.7482L16.3232 19.1768C16.2256 19.0791 16.2256 18.9209 16.3232 18.8232Z" fill="#FF4B4B" class='xian'/>
<path fill-rule="evenodd" clip-rule="evenodd" d="M10.5833 6.75V7.33303C10.9748 7.49629 11.25 7.88268 11.25 8.33333V9.29825C11.25 9.73184 10.8985 10.0833 10.4649 10.0833H9.5C9.36193 10.0833 9.25 10.1953 9.25 10.3333V17C9.25 17.1381 9.36193 17.25 9.5 17.25H14.5C14.6381 17.25 14.75 17.1381 14.75 17V10.3333C14.75 10.1953 14.6381 10.0833 14.5 10.0833H13.5351C13.1015 10.0833 12.75 9.73184 12.75 9.29825V8.33333C12.75 7.88268 13.0252 7.49629 13.4167 7.33303V6.75H10.5833ZM9.08333 6.42553C9.08333 5.7763 9.60964 5.25 10.2589 5.25H13.7411C14.3904 5.25 14.9167 5.7763 14.9167 6.42553V7.66667C14.9167 8.05263 14.7148 8.39145 14.4109 8.58333H14.5C15.4665 8.58333 16.25 9.36684 16.25 10.3333V17C16.25 17.9665 15.4665 18.75 14.5 18.75H9.5C8.5335 18.75 7.75 17.9665 7.75 17V10.3333C7.75 9.36684 8.5335 8.58333 9.5 8.58333H9.58905C9.28517 8.39145 9.08333 8.05263 9.08333 7.66667V6.42553Z" fill="#333333" class='xian'/>
<path fill-rule="evenodd" clip-rule="evenodd" d="M12 9.75C12.2761 9.75 12.5 9.97386 12.5 10.25L12.5 16.25C12.5 16.5261 12.2761 16.75 12 16.75C11.7239 16.75 11.5 16.5261 11.5 16.25L11.5 10.25C11.5 9.97386 11.7239 9.75 12 9.75Z" fill="#333333" class='xian'/>
<path fill-rule="evenodd" clip-rule="evenodd" d="M11.75 10.5C11.75 10.3619 11.8619 10.25 12 10.25L14 10.25C14.1381 10.25 14.25 10.3619 14.25 10.5C14.25 10.6381 14.1381 10.75 14 10.75L12 10.75C11.8619 10.75 11.75 10.6381 11.75 10.5Z" fill="#333333" class='xian'/>
<path fill-rule="evenodd" clip-rule="evenodd" d="M11.9 11.06C11.9 11.0047 11.9448 10.96 12 10.96L13 10.96C13.0552 10.96 13.1 11.0047 13.1 11.06C13.1 11.1152 13.0552 11.16 13 11.16L12 11.16C11.9448 11.16 11.9 11.1152 11.9 11.06Z" fill="#333333" class='xian'/>
<path fill-rule="evenodd" clip-rule="evenodd" d="M11.9 11.62C11.9 11.5648 11.9448 11.52 12 11.52L13 11.52C13.0552 11.52 13.1 11.5648 13.1 11.62C13.1 11.6752 13.0552 11.72 13 11.72L12 11.72C11.9448 11.72 11.9 11.6752 11.9 11.62Z" fill="#333333" class='xian'/>
<path fill-rule="evenodd" clip-rule="evenodd" d="M11.9 12.18C11.9 12.1247 11.9448 12.08 12 12.08L13 12.08C13.0552 12.08 13.1 12.1247 13.1 12.18C13.1 12.2352 13.0552 12.28 13 12.28L12 12.28C11.9448 12.28 11.9 12.2352 11.9 12.18Z" fill="#333333" class='xian'/>
<path fill-rule="evenodd" clip-rule="evenodd" d="M11.9 12.74C11.9 12.6848 11.9448 12.64 12 12.64L13 12.64C13.0552 12.64 13.1 12.6848 13.1 12.74C13.1 12.7952 13.0552 12.84 13 12.84L12 12.84C11.9448 12.84 11.9 12.7952 11.9 12.74Z" fill="#333333" class='xian'/>
<path fill-rule="evenodd" clip-rule="evenodd" d="M11.75 13.3C11.75 13.162 11.8619 13.05 12 13.05L14 13.05C14.1381 13.05 14.25 13.162 14.25 13.3C14.25 13.4381 14.1381 13.55 14 13.55L12 13.55C11.8619 13.55 11.75 13.4381 11.75 13.3Z" fill="#333333" class='xian'/>
<path fill-rule="evenodd" clip-rule="evenodd" d="M11.9 13.86C11.9 13.8048 11.9448 13.76 12 13.76L13 13.76C13.0552 13.76 13.1 13.8048 13.1 13.86C13.1 13.9152 13.0552 13.96 13 13.96L12 13.96C11.9448 13.96 11.9 13.9152 11.9 13.86Z" fill="#333333" class='xian'/>
<path fill-rule="evenodd" clip-rule="evenodd" d="M11.9 14.4199C11.9 14.3647 11.9448 14.3199 12 14.3199L13 14.3199C13.0552 14.3199 13.1 14.3647 13.1 14.4199C13.1 14.4752 13.0552 14.5199 13 14.5199L12 14.5199C11.9448 14.5199 11.9 14.4752 11.9 14.4199Z" fill="#333333" class='xian'/>
<path fill-rule="evenodd" clip-rule="evenodd" d="M11.9 14.98C11.9 14.9248 11.9448 14.88 12 14.88L13 14.88C13.0552 14.88 13.1 14.9248 13.1 14.98C13.1 15.0352 13.0552 15.08 13 15.08L12 15.08C11.9448 15.08 11.9 15.0352 11.9 14.98Z" fill="#333333" class='xian'/>
<path fill-rule="evenodd" clip-rule="evenodd" d="M11.9 15.5399C11.9 15.4847 11.9448 15.4399 12 15.4399L13 15.4399C13.0552 15.4399 13.1 15.4847 13.1 15.5399C13.1 15.5952 13.0552 15.6399 13 15.6399L12 15.6399C11.9448 15.6399 11.9 15.5952 11.9 15.5399Z" fill="#333333" class='xian'/>
<path fill-rule="evenodd" clip-rule="evenodd" d="M11.75 16.1C11.75 15.9619 11.8619 15.85 12 15.85L14 15.85C14.1381 15.85 14.25 15.9619 14.25 16.1C14.25 16.238 14.1381 16.35 14 16.35L12 16.35C11.8619 16.35 11.75 16.238 11.75 16.1Z" fill="#333333" class='xian'/>
<path fill-rule="evenodd" clip-rule="evenodd" d="M10.25 8C10.25 7.58579 10.5858 7.25 11 7.25H14C14.4142 7.25 14.75 7.58579 14.75 8C14.75 8.41421 14.4142 8.75 14 8.75H11C10.5858 8.75 10.25 8.41421 10.25 8Z" fill="#333333" class='xian'/>
</svg>
