<svg width="24" height="24" viewBox="0 0 24 24" fill="none" xmlns="http://www.w3.org/2000/svg">
<path d="M6 21V7H12H18V21H6Z" fill="rgba(0,0,0,0)" class='mian'/>
<path fill-rule="evenodd" clip-rule="evenodd" d="M5.25 7C5.25 6.58579 5.58579 6.25 6 6.25H18C18.4142 6.25 18.75 6.58579 18.75 7V21C18.75 21.4142 18.4142 21.75 18 21.75H6C5.58579 21.75 5.25 21.4142 5.25 21V7ZM6.75 7.75V20.25H17.25V7.75H6.75Z" fill="#333333" class='xian'/>
<path d="M7 7V4H17V7H7Z" fill="rgba(0,0,0,0)" class='mian'/>
<path fill-rule="evenodd" clip-rule="evenodd" d="M6.25 4C6.25 3.58579 6.58579 3.25 7 3.25H17C17.4142 3.25 17.75 3.58579 17.75 4V7C17.75 7.41421 17.4142 7.75 17 7.75H7C6.58579 7.75 6.25 7.41421 6.25 7V4ZM7.75 4.75V6.25H16.25V4.75H7.75Z" fill="#333333" class='xian'/>
<path fill-rule="evenodd" clip-rule="evenodd" d="M2.25 7C2.25 6.58579 2.58579 6.25 3 6.25H21C21.4142 6.25 21.75 6.58579 21.75 7C21.75 7.41421 21.4142 7.75 21 7.75H3C2.58579 7.75 2.25 7.41421 2.25 7Z" fill="#333333" class='xian'/>
<path d="M10.6703 17.0361C10.4354 16.9081 10.2201 16.7471 10.031 16.5578C9.52709 16.0539 9.21539 15.3577 9.21539 14.589C9.21539 14.5611 9.21583 14.5337 9.21664 14.5062C9.36583 14.4786 9.51827 14.4733 9.66902 14.4904C9.66767 14.5232 9.66699 14.5561 9.66697 14.589C9.66697 15.2332 9.9281 15.8164 10.3503 16.2387C10.5156 16.4042 10.7048 16.5439 10.9117 16.653C10.8507 16.7919 10.7693 16.921 10.6703 17.0361ZM14.7836 14.5107C14.7843 14.5366 14.7847 14.5626 14.7847 14.589C14.7847 15.3577 14.473 16.0539 13.969 16.5578C13.7757 16.7513 13.5549 16.9154 13.3139 17.0447C13.2141 16.9303 13.1317 16.8017 13.0695 16.6631C13.2836 16.5523 13.4794 16.4092 13.6498 16.2387C14.072 15.8164 14.3331 15.2332 14.3331 14.589C14.3331 14.5551 14.3324 14.5216 14.3309 14.4881C14.4805 14.4734 14.633 14.4802 14.7836 14.5107V14.5107ZM12.0001 11.8043C12.5325 11.8043 13.0302 11.9537 13.4532 12.2129C13.4047 12.3569 13.335 12.4929 13.2464 12.6164C12.8858 12.3879 12.4584 12.2559 12.0001 12.2559C11.5351 12.2559 11.1018 12.3917 10.738 12.6261C10.6484 12.5036 10.5776 12.3684 10.5278 12.225C10.9549 11.9582 11.4595 11.8043 12.0001 11.8043L12.0001 11.8043Z" fill="#333333" class='xian'/>
<path d="M12.15 13.5571C12.6003 13.521 13.005 13.3234 13.3062 13.0224C13.6404 12.6878 13.8472 12.2261 13.8472 11.7162C13.8472 11.2951 13.7065 10.9072 13.4698 10.5967C13.2269 10.2787 12.8836 10.0417 12.4875 9.93367C12.4209 9.91558 12.3769 9.85499 12.3769 9.78877L12.3764 9.77712C12.3764 9.69395 12.4437 9.62659 12.5269 9.62659C12.5423 9.62648 12.5577 9.62876 12.5725 9.63335C13.1412 9.76391 13.6375 10.0853 13.9904 10.5267C14.3392 10.9628 14.5477 11.5153 14.5477 12.1158C14.5477 12.3691 14.5105 12.6144 14.4411 12.8462C14.3961 12.9962 14.3374 13.1418 14.2655 13.2809C14.422 13.288 14.5774 13.3098 14.7298 13.346C14.9637 13.4016 15.1946 13.492 15.4155 13.6196C15.9366 13.9206 16.3112 14.377 16.5141 14.8964C16.7213 15.4262 16.7502 16.0215 16.5746 16.5834C16.55 16.6628 16.4657 16.7068 16.3864 16.6823C16.3739 16.6783 16.3619 16.6727 16.3507 16.6658L16.3455 16.6627C16.2849 16.6274 16.258 16.5567 16.2761 16.4923C16.3799 16.0956 16.3462 15.6806 16.1924 15.3122C16.0435 14.9551 15.782 14.642 15.4238 14.432C15.4157 14.4283 15.408 14.4237 15.4007 14.4185C14.9619 14.1693 14.4632 14.1197 14.0101 14.2409C13.5986 14.3511 13.2251 14.6029 12.9686 14.9747L12.6692 14.8019C12.6911 14.7331 12.7022 14.6612 12.7021 14.589C12.7021 14.2525 12.4657 13.9718 12.15 13.9029L12.15 13.5571ZM11.0318 14.9747C10.7754 14.6029 10.4017 14.3515 9.9899 14.2409C9.53283 14.1186 9.02921 14.1701 8.58757 14.4253C8.22353 14.6356 7.95807 14.9514 7.80754 15.3122C7.65345 15.6814 7.61998 16.0972 7.72449 16.4946C7.74246 16.5627 7.71059 16.6319 7.65158 16.6643L7.64416 16.6684C7.57234 16.7102 7.48046 16.6857 7.43895 16.6139C7.43329 16.6043 7.42878 16.594 7.42549 16.5834C7.24983 16.0216 7.27871 15.4262 7.4859 14.8964C7.68887 14.3771 8.06331 13.9206 8.58448 13.6196C8.80544 13.492 9.03634 13.4017 9.27029 13.346C9.4227 13.3098 9.57816 13.288 9.73465 13.2809C9.66328 13.1424 9.60419 12.9972 9.55906 12.8462C9.48968 12.6144 9.45242 12.3691 9.45242 12.1158C9.45242 11.5152 9.66101 10.9628 10.0098 10.5267C10.3653 10.0819 10.8663 9.75944 11.4403 9.63034C11.5212 9.61229 11.6014 9.66307 11.6196 9.744C11.6221 9.75487 11.6233 9.76597 11.6233 9.77711L11.6237 9.78876C11.6237 9.86288 11.5705 9.92426 11.5001 9.93704C11.1093 10.0466 10.7707 10.2821 10.5304 10.5967C10.2936 10.9071 10.153 11.2951 10.153 11.7162C10.153 12.2261 10.3597 12.6878 10.694 13.0224C10.9951 13.3234 11.3999 13.521 11.8501 13.5571V13.9029C11.5344 13.9718 11.298 14.2525 11.298 14.589C11.2979 14.6612 11.309 14.7331 11.3309 14.802L11.0318 14.9747ZM16.0148 17.5527C16.0223 17.5447 16.0288 17.5359 16.0342 17.5264C16.0758 17.4545 16.0513 17.3627 15.9796 17.3213L15.9692 17.3153C15.9118 17.2822 15.8372 17.2897 15.7881 17.3386C15.4963 17.628 15.1196 17.8067 14.7233 17.8579C14.3383 17.9076 13.9346 17.8368 13.572 17.6299C13.5697 17.6284 13.5673 17.6269 13.5647 17.6253C13.1229 17.3702 12.8264 16.9601 12.704 16.5036C12.5937 16.0919 12.6248 15.6426 12.8182 15.2347L12.5189 15.062C12.3905 15.2027 12.2055 15.2911 12 15.2912C11.7945 15.2912 11.6096 15.2027 11.4812 15.062L11.1818 15.2347C11.3752 15.6426 11.4063 16.0919 11.296 16.5036C11.1736 16.9601 10.877 17.3702 10.4352 17.6253C10.0707 17.8357 9.66429 17.9079 9.27667 17.8579C8.88185 17.8071 8.50656 17.6291 8.21522 17.342C8.16848 17.2923 8.09229 17.2795 8.03085 17.3153L8.02501 17.3187C8.01395 17.3243 8.00355 17.3318 7.99399 17.3405C7.93293 17.3969 7.92897 17.4918 7.98516 17.5527C8.38419 17.9862 8.91433 18.2587 9.47673 18.3445C10.0246 18.4276 10.6036 18.3332 11.1224 18.0363C11.1254 18.0348 11.1285 18.0333 11.1315 18.0314C11.3514 17.9046 11.5453 17.7495 11.7113 17.5734C11.8188 17.4595 11.9154 17.3358 12 17.2039C12.0846 17.3357 12.1812 17.4594 12.2886 17.5734C12.4546 17.7495 12.6486 17.9046 12.8685 18.0314C13.3894 18.3321 13.9724 18.428 14.5232 18.3445C15.0856 18.2587 15.6158 17.9862 16.0148 17.5527Z" fill="#333333" class='xian'/>
</svg>
