<svg width="24" height="24" viewBox="0 0 24 24" fill="none" xmlns="http://www.w3.org/2000/svg">
<path d="M10 17H14V22H10V17Z" fill="rgba(0,0,0,0)" class='mian'/>
<path fill-rule="evenodd" clip-rule="evenodd" d="M8.36201 1.6057C8.49867 1.38459 8.74007 1.25 9 1.25H14C14.4142 1.25 14.75 1.58579 14.75 2V22C14.75 22.4142 14.4142 22.75 14 22.75H10C9.58579 22.75 9.25 22.4142 9.25 22V4.17705L8.32918 2.33541C8.21293 2.10292 8.22536 1.82681 8.36201 1.6057ZM10.2135 2.75L10.6708 3.66459C10.7229 3.76873 10.75 3.88357 10.75 4V21.25H13.25V2.75H10.2135Z" fill="#333333" class='xian'/>
<path fill-rule="evenodd" clip-rule="evenodd" d="M7.25 22C7.25 21.5858 7.58579 21.25 8 21.25H16C16.4142 21.25 16.75 21.5858 16.75 22C16.75 22.4142 16.4142 22.75 16 22.75H8C7.58579 22.75 7.25 22.4142 7.25 22Z" fill="#333333" class='xian'/>
<path fill-rule="evenodd" clip-rule="evenodd" d="M9.75 7C9.75 6.86193 9.86193 6.75 10 6.75L14 6.75C14.1381 6.75 14.25 6.86193 14.25 7C14.25 7.13807 14.1381 7.25 14 7.25L10 7.25C9.86193 7.25 9.75 7.13807 9.75 7Z" fill="#333333" class='xian'/>
<path fill-rule="evenodd" clip-rule="evenodd" d="M11.4 7.79995C11.4 7.74472 11.4448 7.69995 11.5 7.69995L12.5002 7.69996C12.5555 7.69996 12.6002 7.74473 12.6002 7.79996C12.6002 7.85519 12.5555 7.89996 12.5002 7.89996L11.5 7.89995C11.4448 7.89995 11.4 7.85518 11.4 7.79995Z" fill="#333333" class='xian'/>
<path fill-rule="evenodd" clip-rule="evenodd" d="M11.4 8.6C11.4 8.54477 11.4448 8.5 11.5 8.5L12.5 8.5C12.5552 8.5 12.6 8.54477 12.6 8.6C12.6 8.65523 12.5552 8.7 12.5 8.7L11.5 8.7C11.4448 8.7 11.4 8.65523 11.4 8.6Z" fill="#333333" class='xian'/>
<path fill-rule="evenodd" clip-rule="evenodd" d="M11.4 9.40005C11.4 9.34482 11.4448 9.30005 11.5 9.30005L12.5 9.30005C12.5552 9.30005 12.6 9.34482 12.6 9.40005C12.6 9.45528 12.5552 9.50005 12.5 9.50005L11.5 9.50005C11.4448 9.50005 11.4 9.45528 11.4 9.40005Z" fill="#333333" class='xian'/>
<path fill-rule="evenodd" clip-rule="evenodd" d="M11.4 10.2C11.4 10.1447 11.4448 10.1 11.5 10.1L12.5 10.1C12.5552 10.1 12.6 10.1447 12.6 10.2C12.6 10.2552 12.5552 10.3 12.5 10.3L11.5 10.3C11.4448 10.3 11.4 10.2552 11.4 10.2Z" fill="#333333" class='xian'/>
<path fill-rule="evenodd" clip-rule="evenodd" d="M9.75 11C9.75 10.8619 9.86193 10.75 10 10.75L14 10.75C14.1381 10.75 14.25 10.8619 14.25 11C14.25 11.1381 14.1381 11.25 14 11.25L10 11.25C9.86193 11.25 9.75 11.1381 9.75 11Z" fill="#333333" class='xian'/>
<path fill-rule="evenodd" clip-rule="evenodd" d="M11.4 11.8C11.4 11.7447 11.4448 11.7 11.5 11.7L12.5002 11.7C12.5555 11.7 12.6002 11.7447 12.6002 11.8C12.6002 11.8552 12.5555 11.9 12.5002 11.9L11.5 11.9C11.4448 11.9 11.4 11.8552 11.4 11.8Z" fill="#333333" class='xian'/>
<path fill-rule="evenodd" clip-rule="evenodd" d="M11.4 12.6C11.4 12.5448 11.4448 12.5 11.5 12.5L12.5 12.5C12.5552 12.5 12.6 12.5448 12.6 12.6C12.6 12.6552 12.5552 12.7 12.5 12.7L11.5 12.7C11.4448 12.7 11.4 12.6552 11.4 12.6Z" fill="#333333" class='xian'/>
<path fill-rule="evenodd" clip-rule="evenodd" d="M11.4 13.4C11.4 13.3448 11.4448 13.3 11.5 13.3L12.5 13.3C12.5552 13.3 12.6 13.3448 12.6 13.4C12.6 13.4553 12.5552 13.5 12.5 13.5L11.5 13.5C11.4448 13.5 11.4 13.4553 11.4 13.4Z" fill="#333333" class='xian'/>
<path fill-rule="evenodd" clip-rule="evenodd" d="M11.4 14.2C11.4 14.1447 11.4448 14.1 11.5 14.1L12.5 14.1C12.5552 14.1 12.6 14.1447 12.6 14.2C12.6 14.2552 12.5552 14.3 12.5 14.3L11.5 14.3C11.4448 14.3 11.4 14.2552 11.4 14.2Z" fill="#333333" class='xian'/>
<path fill-rule="evenodd" clip-rule="evenodd" d="M10.1874 15C10.1874 14.8619 10.2993 14.75 10.4374 14.75L13.9999 14.75C14.1379 14.75 14.2499 14.8619 14.2499 15C14.2499 15.1381 14.1379 15.25 13.9999 15.25L10.4374 15.25C10.2993 15.25 10.1874 15.1381 10.1874 15Z" fill="#333333" class='xian'/>
<path fill-rule="evenodd" clip-rule="evenodd" d="M11.4 15.8001C11.4 15.7448 11.4448 15.7001 11.5 15.7001L12.5002 15.7001C12.5555 15.7001 12.6002 15.7449 12.6002 15.8001C12.6002 15.8553 12.5555 15.9001 12.5002 15.9001L11.5 15.9001C11.4448 15.9001 11.4 15.8553 11.4 15.8001Z" fill="#333333" class='xian'/>
<path fill-rule="evenodd" clip-rule="evenodd" d="M11.4 16.6C11.4 16.5448 11.4448 16.5 11.5 16.5L12.5 16.5C12.5552 16.5 12.6 16.5448 12.6 16.6C12.6 16.6552 12.5552 16.7 12.5 16.7L11.5 16.7C11.4448 16.7 11.4 16.6552 11.4 16.6Z" fill="#333333" class='xian'/>
<path fill-rule="evenodd" clip-rule="evenodd" d="M11.4 17.4C11.4 17.3448 11.4448 17.3 11.5 17.3L12.5 17.3C12.5552 17.3 12.6 17.3448 12.6 17.4C12.6 17.4553 12.5552 17.5 12.5 17.5L11.5 17.5C11.4448 17.5 11.4 17.4553 11.4 17.4Z" fill="#333333" class='xian'/>
<path fill-rule="evenodd" clip-rule="evenodd" d="M11.4 18.2C11.4 18.1447 11.4448 18.1 11.5 18.1L12.5 18.1C12.5552 18.1 12.6 18.1447 12.6 18.2C12.6 18.2552 12.5552 18.3 12.5 18.3L11.5 18.3C11.4448 18.3 11.4 18.2552 11.4 18.2Z" fill="#333333" class='xian'/>
<path fill-rule="evenodd" clip-rule="evenodd" d="M9.75 19C9.75 18.8619 9.86193 18.75 10 18.75L14 18.75C14.1381 18.75 14.25 18.8619 14.25 19C14.25 19.1381 14.1381 19.25 14 19.25L10 19.25C9.86193 19.25 9.75 19.1381 9.75 19Z" fill="#333333" class='xian'/>
</svg>
