<svg width="24" height="24" viewBox="0 0 24 24" fill="none" xmlns="http://www.w3.org/2000/svg">
<g filter="url(#filter0_i_2280_1630)">
<path d="M9.54995 2.84913V5.80012C9.54995 5.91057 9.46041 6.00012 9.34995 6.00012H6.7C6.58954 6.00012 6.5 5.91057 6.5 5.80012V2.84967C6.5 2.69251 6.57389 2.5445 6.69949 2.45005L7.425 1.90448H8.62822L9.35114 2.45003C9.47634 2.54451 9.54995 2.69228 9.54995 2.84913Z" fill="#EBEBEB" class='xian'/>
</g>
<path d="M7.42505 1.1C7.42505 1.04477 7.46982 1 7.52505 1H8.52498C8.5802 1 8.62498 1.04477 8.62498 1.1V1.9204H7.42505L7.42505 1.1Z" fill="#556EA4" class='xian'/>
<g filter="url(#filter1_i_2280_1630)">
<path d="M13.5999 2.84913V5.80012C13.5999 5.91057 13.5103 6.00012 13.3999 6.00012H10.7499C10.6395 6.00012 10.5499 5.91057 10.5499 5.80012V2.84967C10.5499 2.69251 10.6238 2.5445 10.7494 2.45005L11.4749 1.90448H12.6781L13.4011 2.45003C13.5263 2.54451 13.5999 2.69228 13.5999 2.84913Z" fill="#EBEBEB" class='xian'/>
</g>
<path d="M11.475 1.1C11.475 1.04477 11.5197 1 11.575 1H12.5749C12.6301 1 12.6749 1.04477 12.6749 1.1V1.9204H11.475L11.475 1.1Z" fill="#556EA4" class='xian'/>
<g filter="url(#filter2_i_2280_1630)">
<path d="M17.6498 2.84913V5.80012C17.6498 5.91057 17.5603 6.00012 17.4498 6.00012H14.7999C14.6894 6.00012 14.5999 5.91057 14.5999 5.80012V2.84967C14.5999 2.69251 14.6737 2.5445 14.7993 2.45005L15.5249 1.90448H16.7281L17.451 2.45003C17.5762 2.54451 17.6498 2.69228 17.6498 2.84913Z" fill="#EBEBEB" class='xian'/>
</g>
<path d="M15.5249 1.1C15.5249 1.04477 15.5697 1 15.6249 1H16.6248C16.6801 1 16.7248 1.04477 16.7248 1.1V1.9204H15.5249L15.5249 1.1Z" fill="#556EA4" class='xian'/>
<path d="M6 4V22H18V4H6Z" fill="#596672" class='mian'/>
<path d="M13.75 13.1V15.9C13.75 15.9552 13.7948 16 13.85 16H14.65C14.7052 16 14.75 15.9552 14.75 15.9V13.1C14.75 13.0448 14.7052 13 14.65 13H13.85C13.7948 13 13.75 13.0448 13.75 13.1Z" fill="#BABABC"/>
<path d="M15.2 13.1V15.9C15.2 15.9552 15.2447 16 15.3 16H16.6C16.6552 16 16.7 15.9552 16.7 15.9V13.1C16.7 13.0448 16.6552 13 16.6 13H15.3C15.2447 13 15.2 13.0448 15.2 13.1Z" fill="#7A8491"/>
<path d="M13.5 9.1V10.4C13.5 10.4552 13.5448 10.5 13.6 10.5H18.4C18.4552 10.5 18.5 10.4552 18.5 10.4V9.1C18.5 9.04477 18.4552 9 18.4 9H13.6C13.5448 9 13.5 9.04477 13.5 9.1Z" fill="#7A8491"/>
<path d="M16.75 17.7V20.5C16.75 20.5552 16.7948 20.6 16.85 20.6H17.65C17.7052 20.6 17.75 20.5552 17.75 20.5V17.7C17.75 17.6447 17.7052 17.6 17.65 17.6H16.85C16.7948 17.6 16.75 17.6447 16.75 17.7Z" fill="#7A8491"/>
<path d="M16.75 5.35V7.15C16.75 7.20523 16.7948 7.25 16.85 7.25H17.65C17.7052 7.25 17.75 7.20523 17.75 7.15V5.35C17.75 5.29477 17.7052 5.25 17.65 5.25H16.85C16.7948 5.25 16.75 5.29477 16.75 5.35Z" fill="#7A8491"/>
<path fill-rule="evenodd" clip-rule="evenodd" d="M7.94995 20C7.94995 19.9724 7.97234 19.95 7.99995 19.95H14.5C14.5276 19.95 14.55 19.9724 14.55 20C14.55 20.0276 14.5276 20.05 14.5 20.05H7.99995C7.97234 20.05 7.94995 20.0276 7.94995 20Z" fill="#30404D"/>
<path fill-rule="evenodd" clip-rule="evenodd" d="M7.94995 20.25C7.94995 20.2224 7.97234 20.2 7.99995 20.2H14.5C14.5276 20.2 14.55 20.2224 14.55 20.25C14.55 20.2776 14.5276 20.3 14.5 20.3H7.99995C7.97234 20.3 7.94995 20.2776 7.94995 20.25Z" fill="#30404D"/>
<path fill-rule="evenodd" clip-rule="evenodd" d="M7.94995 20.5C7.94995 20.4724 7.97234 20.45 7.99995 20.45H14.5C14.5276 20.45 14.55 20.4724 14.55 20.5C14.55 20.5276 14.5276 20.55 14.5 20.55H7.99995C7.97234 20.55 7.94995 20.5276 7.94995 20.5Z" fill="#30404D"/>
<path fill-rule="evenodd" clip-rule="evenodd" d="M7.94995 20.75C7.94995 20.7224 7.97234 20.7 7.99995 20.7H14.5C14.5276 20.7 14.55 20.7224 14.55 20.75C14.55 20.7776 14.5276 20.8 14.5 20.8H7.99995C7.97234 20.8 7.94995 20.7776 7.94995 20.75Z" fill="#30404D"/>
<path fill-rule="evenodd" clip-rule="evenodd" d="M7.94995 21C7.94995 20.9724 7.97234 20.95 7.99995 20.95H14.5C14.5276 20.95 14.55 20.9724 14.55 21C14.55 21.0276 14.5276 21.05 14.5 21.05H7.99995C7.97234 21.05 7.94995 21.0276 7.94995 21Z" fill="#30404D"/>
<path fill-rule="evenodd" clip-rule="evenodd" d="M18 17.15H6V16.85H18V17.15Z" fill="#21211F" class='xian'/>
<path fill-rule="evenodd" clip-rule="evenodd" d="M18 11.15H6V10.85H18V11.15Z" fill="#21211F" class='xian'/>
<path fill-rule="evenodd" clip-rule="evenodd" d="M6.89998 7.75002L6.89998 6.00002C6.89998 5.9448 6.94475 5.90002 6.99998 5.90002C7.0552 5.90002 7.09998 5.9448 7.09998 6.00002L7.09998 7.75002C7.09998 7.80525 7.0552 7.85002 6.99998 7.85002C6.94475 7.85002 6.89998 7.80525 6.89998 7.75002Z" fill="#21211F" class='xian'/>
<path fill-rule="evenodd" clip-rule="evenodd" d="M6.99998 8.90002C7.0552 8.90002 7.09998 8.9448 7.09998 9.00002L7.09998 10.5C7.09998 10.5553 7.0552 10.6 6.99998 10.6C6.94475 10.6 6.89998 10.5553 6.89998 10.5L6.89998 9.00002C6.89998 8.9448 6.94475 8.90002 6.99998 8.90002Z" fill="#21211F" class='xian'/>
<path fill-rule="evenodd" clip-rule="evenodd" d="M6.89998 20.5L6.89998 18C6.89998 17.9448 6.94475 17.9 6.99998 17.9C7.0552 17.9 7.09998 17.9448 7.09998 18L7.09998 20.5C7.09998 20.5553 7.0552 20.6 6.99998 20.6C6.94475 20.6 6.89998 20.5553 6.89998 20.5Z" fill="#21211F" class='xian'/>
<path fill-rule="evenodd" clip-rule="evenodd" d="M6.89998 16.25L6.89997 12C6.89997 11.9448 6.94475 11.9 6.99998 11.9C7.0552 11.9 7.09997 11.9448 7.09997 12L7.09998 16.25C7.09998 16.3053 7.0552 16.35 6.99998 16.35C6.94475 16.35 6.89998 16.3053 6.89998 16.25Z" fill="#21211F" class='xian'/>
<path fill-rule="evenodd" clip-rule="evenodd" d="M18 8.75H6V8.25H18V8.75Z" fill="#21211F" class='xian'/>
<path fill-rule="evenodd" clip-rule="evenodd" d="M5.25 4C5.25 3.58579 5.58579 3.25 6 3.25H18C18.4142 3.25 18.75 3.58579 18.75 4V22C18.75 22.4142 18.4142 22.75 18 22.75H6C5.58579 22.75 5.25 22.4142 5.25 22V4ZM6.75 4.75V21.25H17.25V4.75H6.75Z" fill="#333333" class='xian'/>
<path fill-rule="evenodd" clip-rule="evenodd" d="M14.95 22L14.95 10.9999L15.05 10.9999L15.05 22L14.95 22ZM14.95 8.5L14.95 4L15.05 4L15.05 8.5L14.95 8.5Z" fill="#333333" class='xian'/>
<path d="M8.65002 17.725C8.65002 17.794 8.59406 17.85 8.52502 17.85C8.45599 17.85 8.40002 17.794 8.40002 17.725C8.40002 17.6559 8.45599 17.6 8.52502 17.6C8.59406 17.6 8.65002 17.6559 8.65002 17.725Z" fill="#5BA651"/>
<path fill-rule="evenodd" clip-rule="evenodd" d="M8.525 17.625C8.46977 17.625 8.425 17.6697 8.425 17.725C8.425 17.7802 8.46977 17.825 8.525 17.825C8.58023 17.825 8.625 17.7802 8.625 17.725C8.625 17.6697 8.58023 17.625 8.525 17.625ZM8.375 17.725C8.375 17.6421 8.44216 17.575 8.525 17.575C8.60784 17.575 8.675 17.6421 8.675 17.725C8.675 17.8078 8.60784 17.875 8.525 17.875C8.44216 17.875 8.375 17.8078 8.375 17.725Z" fill="#454E62"/>
<path d="M9.15002 17.725C9.15002 17.794 9.09406 17.85 9.02502 17.85C8.95599 17.85 8.90002 17.794 8.90002 17.725C8.90002 17.6559 8.95599 17.6 9.02502 17.6C9.09406 17.6 9.15002 17.6559 9.15002 17.725Z" fill="#5BA651"/>
<path fill-rule="evenodd" clip-rule="evenodd" d="M9.025 17.625C8.96977 17.625 8.925 17.6697 8.925 17.725C8.925 17.7802 8.96977 17.825 9.025 17.825C9.08023 17.825 9.125 17.7802 9.125 17.725C9.125 17.6697 9.08023 17.625 9.025 17.625ZM8.875 17.725C8.875 17.6421 8.94216 17.575 9.025 17.575C9.10784 17.575 9.175 17.6421 9.175 17.725C9.175 17.8078 9.10784 17.875 9.025 17.875C8.94216 17.875 8.875 17.8078 8.875 17.725Z" fill="#454E62"/>
<path d="M8 17.75C8 17.8881 7.88807 18 7.75 18C7.61193 18 7.5 17.8881 7.5 17.75C7.5 17.6119 7.61193 17.5 7.75 17.5C7.88807 17.5 8 17.6119 8 17.75Z" fill="#303031"/>
<path fill-rule="evenodd" clip-rule="evenodd" d="M7.74998 17.525C7.62571 17.525 7.52498 17.6257 7.52498 17.75C7.52498 17.8742 7.62571 17.975 7.74998 17.975C7.87424 17.975 7.97498 17.8742 7.97498 17.75C7.97498 17.6257 7.87424 17.525 7.74998 17.525ZM7.47498 17.75C7.47498 17.5981 7.5981 17.475 7.74998 17.475C7.90185 17.475 8.02498 17.5981 8.02498 17.75C8.02498 17.9019 7.90185 18.025 7.74998 18.025C7.5981 18.025 7.47498 17.9019 7.47498 17.75Z" fill="#0C0910"/>
<path fill-rule="evenodd" clip-rule="evenodd" d="M7.74998 17.575C7.76378 17.575 7.77498 17.5861 7.77498 17.6V17.725C7.77498 17.7388 7.76378 17.75 7.74998 17.75C7.73617 17.75 7.72498 17.7388 7.72498 17.725V17.6C7.72498 17.5861 7.73617 17.575 7.74998 17.575Z" fill="white"/>
<path fill-rule="evenodd" clip-rule="evenodd" d="M7.69906 17.633C7.70696 17.6443 7.70418 17.6599 7.69286 17.6678C7.66688 17.6859 7.64998 17.716 7.64998 17.7499C7.64998 17.8051 7.69475 17.8499 7.74998 17.8499C7.8052 17.8499 7.84998 17.8051 7.84998 17.7499C7.84998 17.716 7.83307 17.6859 7.8071 17.6678C7.79577 17.6599 7.79299 17.6443 7.80089 17.633C7.80879 17.6217 7.82437 17.6189 7.8357 17.6268C7.8745 17.6539 7.89998 17.6989 7.89998 17.7499C7.89998 17.8328 7.83282 17.8999 7.74998 17.8999C7.66713 17.8999 7.59998 17.8328 7.59998 17.7499C7.59998 17.6989 7.62545 17.6539 7.66425 17.6268C7.67558 17.6189 7.69116 17.6217 7.69906 17.633Z" fill="white"/>
<path d="M8.65002 11.765C8.65002 11.8341 8.59406 11.89 8.52502 11.89C8.45599 11.89 8.40002 11.8341 8.40002 11.765C8.40002 11.696 8.45599 11.64 8.52502 11.64C8.59406 11.64 8.65002 11.696 8.65002 11.765Z" fill="#5BA651"/>
<path fill-rule="evenodd" clip-rule="evenodd" d="M8.525 11.665C8.46977 11.665 8.425 11.7098 8.425 11.765C8.425 11.8202 8.46977 11.865 8.525 11.865C8.58023 11.865 8.625 11.8202 8.625 11.765C8.625 11.7098 8.58023 11.665 8.525 11.665ZM8.375 11.765C8.375 11.6821 8.44216 11.615 8.525 11.615C8.60784 11.615 8.675 11.6821 8.675 11.765C8.675 11.8478 8.60784 11.915 8.525 11.915C8.44216 11.915 8.375 11.8478 8.375 11.765Z" fill="#454E62"/>
<path d="M9.15002 11.765C9.15002 11.8341 9.09406 11.89 9.02502 11.89C8.95599 11.89 8.90002 11.8341 8.90002 11.765C8.90002 11.696 8.95599 11.64 9.02502 11.64C9.09406 11.64 9.15002 11.696 9.15002 11.765Z" fill="#5BA651"/>
<path fill-rule="evenodd" clip-rule="evenodd" d="M9.025 11.665C8.96977 11.665 8.925 11.7098 8.925 11.765C8.925 11.8202 8.96977 11.865 9.025 11.865C9.08023 11.865 9.125 11.8202 9.125 11.765C9.125 11.7098 9.08023 11.665 9.025 11.665ZM8.875 11.765C8.875 11.6821 8.94216 11.615 9.025 11.615C9.10784 11.615 9.175 11.6821 9.175 11.765C9.175 11.8478 9.10784 11.915 9.025 11.915C8.94216 11.915 8.875 11.8478 8.875 11.765Z" fill="#454E62"/>
<path d="M8 11.79C8 11.9281 7.88807 12.04 7.75 12.04C7.61193 12.04 7.5 11.9281 7.5 11.79C7.5 11.652 7.61193 11.54 7.75 11.54C7.88807 11.54 8 11.652 8 11.79Z" fill="#303031"/>
<path fill-rule="evenodd" clip-rule="evenodd" d="M7.74998 11.565C7.62571 11.565 7.52498 11.6658 7.52498 11.79C7.52498 11.9143 7.62571 12.015 7.74998 12.015C7.87424 12.015 7.97498 11.9143 7.97498 11.79C7.97498 11.6658 7.87424 11.565 7.74998 11.565ZM7.47498 11.79C7.47498 11.6381 7.5981 11.515 7.74998 11.515C7.90185 11.515 8.02498 11.6381 8.02498 11.79C8.02498 11.9419 7.90185 12.065 7.74998 12.065C7.5981 12.065 7.47498 11.9419 7.47498 11.79Z" fill="#0C0910"/>
<path fill-rule="evenodd" clip-rule="evenodd" d="M7.74998 11.615C7.76378 11.615 7.77498 11.6262 7.77498 11.64V11.765C7.77498 11.7788 7.76378 11.79 7.74998 11.79C7.73617 11.79 7.72498 11.7788 7.72498 11.765V11.64C7.72498 11.6262 7.73617 11.615 7.74998 11.615Z" fill="white"/>
<path fill-rule="evenodd" clip-rule="evenodd" d="M7.69906 11.6731C7.70696 11.6844 7.70418 11.7 7.69286 11.7079C7.66688 11.726 7.64998 11.756 7.64998 11.79C7.64998 11.8452 7.69475 11.89 7.74998 11.89C7.8052 11.89 7.84998 11.8452 7.84998 11.79C7.84998 11.756 7.83307 11.726 7.8071 11.7079C7.79577 11.7 7.79299 11.6844 7.80089 11.6731C7.80879 11.6617 7.82437 11.659 7.8357 11.6669C7.8745 11.6939 7.89998 11.739 7.89998 11.79C7.89998 11.8728 7.83282 11.94 7.74998 11.94C7.66713 11.94 7.59998 11.8728 7.59998 11.79C7.59998 11.739 7.62545 11.6939 7.66425 11.6669C7.67558 11.659 7.69116 11.6617 7.69906 11.6731Z" fill="white"/>
<path d="M8.65002 5.47498C8.65002 5.54401 8.59406 5.59998 8.52502 5.59998C8.45599 5.59998 8.40002 5.54401 8.40002 5.47498C8.40002 5.40594 8.45599 5.34998 8.52502 5.34998C8.59406 5.34998 8.65002 5.40594 8.65002 5.47498Z" fill="#5BA651"/>
<path fill-rule="evenodd" clip-rule="evenodd" d="M8.525 5.37495C8.46977 5.37495 8.425 5.41972 8.425 5.47495C8.425 5.53018 8.46977 5.57495 8.525 5.57495C8.58023 5.57495 8.625 5.53018 8.625 5.47495C8.625 5.41972 8.58023 5.37495 8.525 5.37495ZM8.375 5.47495C8.375 5.39211 8.44216 5.32495 8.525 5.32495C8.60784 5.32495 8.675 5.39211 8.675 5.47495C8.675 5.55779 8.60784 5.62495 8.525 5.62495C8.44216 5.62495 8.375 5.55779 8.375 5.47495Z" fill="#454E62"/>
<path d="M9.15002 5.47498C9.15002 5.54401 9.09406 5.59998 9.02502 5.59998C8.95599 5.59998 8.90002 5.54401 8.90002 5.47498C8.90002 5.40594 8.95599 5.34998 9.02502 5.34998C9.09406 5.34998 9.15002 5.40594 9.15002 5.47498Z" fill="#5BA651"/>
<path fill-rule="evenodd" clip-rule="evenodd" d="M9.025 5.37495C8.96977 5.37495 8.925 5.41972 8.925 5.47495C8.925 5.53018 8.96977 5.57495 9.025 5.57495C9.08023 5.57495 9.125 5.53018 9.125 5.47495C9.125 5.41972 9.08023 5.37495 9.025 5.37495ZM8.875 5.47495C8.875 5.39211 8.94216 5.32495 9.025 5.32495C9.10784 5.32495 9.175 5.39211 9.175 5.47495C9.175 5.55779 9.10784 5.62495 9.025 5.62495C8.94216 5.62495 8.875 5.55779 8.875 5.47495Z" fill="#454E62"/>
<path d="M8 5.5C8 5.63807 7.88807 5.75 7.75 5.75C7.61193 5.75 7.5 5.63807 7.5 5.5C7.5 5.36193 7.61193 5.25 7.75 5.25C7.88807 5.25 8 5.36193 8 5.5Z" fill="#303031"/>
<path fill-rule="evenodd" clip-rule="evenodd" d="M7.74998 5.27498C7.62571 5.27498 7.52498 5.37571 7.52498 5.49998C7.52498 5.62424 7.62571 5.72498 7.74998 5.72498C7.87424 5.72498 7.97498 5.62424 7.97498 5.49998C7.97498 5.37571 7.87424 5.27498 7.74998 5.27498ZM7.47498 5.49998C7.47498 5.3481 7.5981 5.22498 7.74998 5.22498C7.90185 5.22498 8.02498 5.3481 8.02498 5.49998C8.02498 5.65185 7.90185 5.77498 7.74998 5.77498C7.5981 5.77498 7.47498 5.65185 7.47498 5.49998Z" fill="#0C0910"/>
<path fill-rule="evenodd" clip-rule="evenodd" d="M7.74998 5.32495C7.76378 5.32495 7.77498 5.33614 7.77498 5.34995V5.47495C7.77498 5.48876 7.76378 5.49995 7.74998 5.49995C7.73617 5.49995 7.72498 5.48876 7.72498 5.47495V5.34995C7.72498 5.33614 7.73617 5.32495 7.74998 5.32495Z" fill="white"/>
<path fill-rule="evenodd" clip-rule="evenodd" d="M7.69906 5.38302C7.70696 5.39434 7.70418 5.40992 7.69286 5.41782C7.66688 5.43594 7.64998 5.46595 7.64998 5.49992C7.64998 5.55514 7.69475 5.59992 7.74998 5.59992C7.8052 5.59992 7.84998 5.55514 7.84998 5.49992C7.84998 5.46595 7.83307 5.43594 7.8071 5.41782C7.79577 5.40992 7.79299 5.39434 7.80089 5.38302C7.80879 5.37169 7.82437 5.36891 7.8357 5.37681C7.8745 5.40387 7.89998 5.44892 7.89998 5.49992C7.89998 5.58276 7.83282 5.64992 7.74998 5.64992C7.66713 5.64992 7.59998 5.58276 7.59998 5.49992C7.59998 5.44892 7.62545 5.40387 7.66425 5.37681C7.67558 5.36891 7.69116 5.37169 7.69906 5.38302Z" fill="white"/>
<path fill-rule="evenodd" clip-rule="evenodd" d="M8.49998 18.525C8.23764 18.525 8.02498 18.7376 8.02498 19C8.02498 19.2623 8.23764 19.475 8.49998 19.475C8.76231 19.475 8.97498 19.2623 8.97498 19C8.97498 18.7376 8.76231 18.525 8.49998 18.525ZM7.97498 19C7.97498 18.71 8.21003 18.475 8.49998 18.475C8.78993 18.475 9.02498 18.71 9.02498 19C9.02498 19.2899 8.78993 19.525 8.49998 19.525C8.21003 19.525 7.97498 19.2899 7.97498 19Z" fill="#2E3A44"/>
<path fill-rule="evenodd" clip-rule="evenodd" d="M10.3 18.525C10.0377 18.525 9.82502 18.7376 9.82502 19C9.82502 19.2623 10.0377 19.475 10.3 19.475C10.5624 19.475 10.775 19.2623 10.775 19C10.775 18.7376 10.5624 18.525 10.3 18.525ZM9.77502 19C9.77502 18.71 10.0101 18.475 10.3 18.475C10.59 18.475 10.825 18.71 10.825 19C10.825 19.2899 10.59 19.525 10.3 19.525C10.0101 19.525 9.77502 19.2899 9.77502 19Z" fill="#2E3A44"/>
<path fill-rule="evenodd" clip-rule="evenodd" d="M12.1 18.525C11.8376 18.525 11.625 18.7376 11.625 19C11.625 19.2623 11.8376 19.475 12.1 19.475C12.3623 19.475 12.575 19.2623 12.575 19C12.575 18.7376 12.3623 18.525 12.1 18.525ZM11.575 19C11.575 18.71 11.81 18.475 12.1 18.475C12.3899 18.475 12.625 18.71 12.625 19C12.625 19.2899 12.3899 19.525 12.1 19.525C11.81 19.525 11.575 19.2899 11.575 19Z" fill="#2E3A44"/>
<path fill-rule="evenodd" clip-rule="evenodd" d="M13.9 18.525C13.6377 18.525 13.425 18.7376 13.425 19C13.425 19.2623 13.6377 19.475 13.9 19.475C14.1623 19.475 14.375 19.2623 14.375 19C14.375 18.7376 14.1623 18.525 13.9 18.525ZM13.375 19C13.375 18.71 13.6101 18.475 13.9 18.475C14.1899 18.475 14.425 18.71 14.425 19C14.425 19.2899 14.1899 19.525 13.9 19.525C13.6101 19.525 13.375 19.2899 13.375 19Z" fill="#2E3A44"/>
<defs>
<filter id="filter0_i_2280_1630" x="6.25" y="1.90448" width="3.29993" height="4.09564" filterUnits="userSpaceOnUse" color-interpolation-filters="sRGB">
<feFlood flood-opacity="0" result="BackgroundImageFix"/>
<feBlend mode="normal" in="SourceGraphic" in2="BackgroundImageFix" result="shape"/>
<feColorMatrix in="SourceAlpha" type="matrix" values="0 0 0 0 0 0 0 0 0 0 0 0 0 0 0 0 0 0 127 0" result="hardAlpha"/>
<feOffset dx="-0.25"/>
<feGaussianBlur stdDeviation="0.25"/>
<feComposite in2="hardAlpha" operator="arithmetic" k2="-1" k3="1"/>
<feColorMatrix type="matrix" values="0 0 0 0 0 0 0 0 0 0 0 0 0 0 0 0 0 0 0.25 0"/>
<feBlend mode="normal" in2="shape" result="effect1_innerShadow_2280_1630"/>
</filter>
<filter id="filter1_i_2280_1630" x="10.2999" y="1.90448" width="3.29993" height="4.09564" filterUnits="userSpaceOnUse" color-interpolation-filters="sRGB">
<feFlood flood-opacity="0" result="BackgroundImageFix"/>
<feBlend mode="normal" in="SourceGraphic" in2="BackgroundImageFix" result="shape"/>
<feColorMatrix in="SourceAlpha" type="matrix" values="0 0 0 0 0 0 0 0 0 0 0 0 0 0 0 0 0 0 127 0" result="hardAlpha"/>
<feOffset dx="-0.25"/>
<feGaussianBlur stdDeviation="0.25"/>
<feComposite in2="hardAlpha" operator="arithmetic" k2="-1" k3="1"/>
<feColorMatrix type="matrix" values="0 0 0 0 0 0 0 0 0 0 0 0 0 0 0 0 0 0 0.25 0"/>
<feBlend mode="normal" in2="shape" result="effect1_innerShadow_2280_1630"/>
</filter>
<filter id="filter2_i_2280_1630" x="14.3499" y="1.90448" width="3.29993" height="4.09564" filterUnits="userSpaceOnUse" color-interpolation-filters="sRGB">
<feFlood flood-opacity="0" result="BackgroundImageFix"/>
<feBlend mode="normal" in="SourceGraphic" in2="BackgroundImageFix" result="shape"/>
<feColorMatrix in="SourceAlpha" type="matrix" values="0 0 0 0 0 0 0 0 0 0 0 0 0 0 0 0 0 0 127 0" result="hardAlpha"/>
<feOffset dx="-0.25"/>
<feGaussianBlur stdDeviation="0.25"/>
<feComposite in2="hardAlpha" operator="arithmetic" k2="-1" k3="1"/>
<feColorMatrix type="matrix" values="0 0 0 0 0 0 0 0 0 0 0 0 0 0 0 0 0 0 0.25 0"/>
<feBlend mode="normal" in2="shape" result="effect1_innerShadow_2280_1630"/>
</filter>
</defs>
</svg>
