<svg width="24" height="24" viewBox="0 0 24 24" fill="none" xmlns="http://www.w3.org/2000/svg">
<g filter="url(#filter0_i_2280_1518)">
<path d="M9 3.56162V5.3C9 5.41046 8.91046 5.5 8.8 5.5H7.2C7.08954 5.5 7 5.41046 7 5.3V3.56185C7 3.52156 7.01217 3.48221 7.03492 3.44895L7.54718 2.69995H8.45528L8.96532 3.44906C8.98792 3.48225 9 3.52147 9 3.56162Z" fill="#EBEBEB" class='xian'/>
</g>
<path d="M7.54736 1.6C7.54736 1.54477 7.59214 1.5 7.64736 1.5H8.35298C8.40821 1.5 8.45298 1.54477 8.45298 1.6V2.7H7.54736L7.54736 1.6Z" fill="#3D3D3F" class='xian'/>
<g filter="url(#filter1_i_2280_1518)">
<path d="M13 3.56162V5.3C13 5.41046 12.9105 5.5 12.8 5.5H11.2C11.0895 5.5 11 5.41046 11 5.3V3.56185C11 3.52156 11.0122 3.48221 11.0349 3.44895L11.5472 2.69995H12.4553L12.9653 3.44906C12.9879 3.48225 13 3.52147 13 3.56162Z" fill="#EBEBEB" class='xian'/>
</g>
<path d="M11.5474 1.6C11.5474 1.54477 11.5921 1.5 11.6474 1.5H12.353C12.4082 1.5 12.453 1.54477 12.453 1.6V2.7H11.5474L11.5474 1.6Z" fill="#3D3D3F" class='xian'/>
<path d="M5 17V22H15V17H5Z" fill="#999999" class='mian'/>
<path fill-rule="evenodd" clip-rule="evenodd" d="M4.25 17C4.25 16.5858 4.58579 16.25 5 16.25H15C15.4142 16.25 15.75 16.5858 15.75 17V22C15.75 22.4142 15.4142 22.75 15 22.75H5C4.58579 22.75 4.25 22.4142 4.25 22V17ZM5.75 17.75V21.25H14.25V17.75H5.75Z" fill="#333333" class='xian'/>
<path d="M15 9V22H19V9H15Z" fill="#999999" class='mian'/>
<path fill-rule="evenodd" clip-rule="evenodd" d="M14.25 9C14.25 8.58579 14.5858 8.25 15 8.25H19C19.4142 8.25 19.75 8.58579 19.75 9V22C19.75 22.4142 19.4142 22.75 19 22.75H15C14.5858 22.75 14.25 22.4142 14.25 22V9ZM15.75 9.75V21.25H18.25V9.75H15.75Z" fill="#333333" class='xian'/>
<path d="M5 6V17H15V6H5Z" fill="#3F4B52" class='mian'/>
<path fill-rule="evenodd" clip-rule="evenodd" d="M15 11.1H5V10.9H15V11.1Z" fill="#21211F"/>
<path fill-rule="evenodd" clip-rule="evenodd" d="M11.9 16.5V11H12.1V16.5H11.9Z" fill="#21211F"/>
<path fill-rule="evenodd" clip-rule="evenodd" d="M4.25 6C4.25 5.58579 4.58579 5.25 5 5.25H15C15.4142 5.25 15.75 5.58579 15.75 6V17C15.75 17.4142 15.4142 17.75 15 17.75H5C4.58579 17.75 4.25 17.4142 4.25 17V6ZM5.75 6.75V16.25H14.25V6.75H5.75Z" fill="#333333" class='xian'/>
<path fill-rule="evenodd" clip-rule="evenodd" d="M11.5 11.9C11.5553 11.9 11.6 11.9448 11.6 12V15C11.6 15.0553 11.5553 15.1 11.5 15.1C11.4448 15.1 11.4 15.0553 11.4 15V12C11.4 11.9448 11.4448 11.9 11.5 11.9Z" fill="url(#paint0_linear_2280_1518)"/>
<path fill-rule="evenodd" clip-rule="evenodd" d="M12.5 11.9C12.5553 11.9 12.6 11.9448 12.6 12V15C12.6 15.0553 12.5553 15.1 12.5 15.1C12.4448 15.1 12.4 15.0553 12.4 15V12C12.4 11.9448 12.4448 11.9 12.5 11.9Z" fill="url(#paint1_linear_2280_1518)"/>
<path fill-rule="evenodd" clip-rule="evenodd" d="M13.5 7.40002C13.5553 7.40002 13.6 7.4448 13.6 7.50002V10C13.6 10.0553 13.5553 10.1 13.5 10.1C13.4448 10.1 13.4 10.0553 13.4 10V7.50002C13.4 7.4448 13.4448 7.40002 13.5 7.40002Z" fill="url(#paint2_linear_2280_1518)"/>
<path fill-rule="evenodd" clip-rule="evenodd" d="M13.5 18.4C13.5553 18.4 13.6 18.4448 13.6 18.5V20.5C13.6 20.5553 13.5553 20.6 13.5 20.6C13.4448 20.6 13.4 20.5553 13.4 20.5V18.5C13.4 18.4448 13.4448 18.4 13.5 18.4Z" fill="url(#paint3_linear_2280_1518)"/>
<path fill-rule="evenodd" clip-rule="evenodd" d="M16.5 11.9C16.5553 11.9 16.6 11.9448 16.6 12V15C16.6 15.0553 16.5553 15.1 16.5 15.1C16.4448 15.1 16.4 15.0553 16.4 15V12C16.4 11.9448 16.4448 11.9 16.5 11.9Z" fill="url(#paint4_linear_2280_1518)"/>
<path d="M6.5 7.60002V10.2C6.5 10.3105 6.58954 10.4 6.7 10.4H11.8C11.9105 10.4 12 10.3105 12 10.2V7.60002C12 7.48957 11.9105 7.40002 11.8 7.40002H6.7C6.58954 7.40002 6.5 7.48957 6.5 7.60002Z" fill="white"/>
<path fill-rule="evenodd" clip-rule="evenodd" d="M6.75 7.65002V10.15H11.75V7.65002H6.75ZM6.25 7.60002C6.25 7.3515 6.45147 7.15002 6.7 7.15002H11.8C12.0485 7.15002 12.25 7.3515 12.25 7.60002V10.2C12.25 10.4486 12.0485 10.65 11.8 10.65H6.7C6.45147 10.65 6.25 10.4486 6.25 10.2V7.60002Z" fill="#333333" class='xian'/>
<path d="M9.5 9.75C9.5 9.88807 9.38807 10 9.25 10C9.11193 10 9 9.88807 9 9.75C9 9.61193 9.11193 9.5 9.25 9.5C9.38807 9.5 9.5 9.61193 9.5 9.75Z" fill="#333333" class='xian'/>
<path fill-rule="evenodd" clip-rule="evenodd" d="M12 9.40002H6.5V8.90002H12V9.40002Z" fill="#333333" class='xian'/>
<path fill-rule="evenodd" clip-rule="evenodd" d="M9.17678 7.82322C9.27441 7.92085 9.27441 8.07915 9.17678 8.17678L8.67678 8.67678C8.57915 8.77441 8.42085 8.77441 8.32322 8.67678C8.22559 8.57915 8.22559 8.42085 8.32322 8.32322L8.82322 7.82322C8.92085 7.72559 9.07915 7.72559 9.17678 7.82322Z" fill="#333333" class='xian'/>
<path fill-rule="evenodd" clip-rule="evenodd" d="M10.1768 7.97325C10.2744 8.07088 10.2744 8.22917 10.1768 8.3268L9.92678 8.5768C9.82915 8.67443 9.67085 8.67443 9.57322 8.5768C9.47559 8.47917 9.47559 8.32088 9.57322 8.22325L9.82322 7.97325C9.92085 7.87562 10.0791 7.87562 10.1768 7.97325Z" fill="#333333" class='xian'/>
<defs>
<filter id="filter0_i_2280_1518" x="6.75" y="2.69995" width="2.25" height="2.80005" filterUnits="userSpaceOnUse" color-interpolation-filters="sRGB">
<feFlood flood-opacity="0" result="BackgroundImageFix"/>
<feBlend mode="normal" in="SourceGraphic" in2="BackgroundImageFix" result="shape"/>
<feColorMatrix in="SourceAlpha" type="matrix" values="0 0 0 0 0 0 0 0 0 0 0 0 0 0 0 0 0 0 127 0" result="hardAlpha"/>
<feOffset dx="-0.25"/>
<feGaussianBlur stdDeviation="0.25"/>
<feComposite in2="hardAlpha" operator="arithmetic" k2="-1" k3="1"/>
<feColorMatrix type="matrix" values="0 0 0 0 0 0 0 0 0 0 0 0 0 0 0 0 0 0 0.25 0"/>
<feBlend mode="normal" in2="shape" result="effect1_innerShadow_2280_1518"/>
</filter>
<filter id="filter1_i_2280_1518" x="10.75" y="2.69995" width="2.25" height="2.80005" filterUnits="userSpaceOnUse" color-interpolation-filters="sRGB">
<feFlood flood-opacity="0" result="BackgroundImageFix"/>
<feBlend mode="normal" in="SourceGraphic" in2="BackgroundImageFix" result="shape"/>
<feColorMatrix in="SourceAlpha" type="matrix" values="0 0 0 0 0 0 0 0 0 0 0 0 0 0 0 0 0 0 127 0" result="hardAlpha"/>
<feOffset dx="-0.25"/>
<feGaussianBlur stdDeviation="0.25"/>
<feComposite in2="hardAlpha" operator="arithmetic" k2="-1" k3="1"/>
<feColorMatrix type="matrix" values="0 0 0 0 0 0 0 0 0 0 0 0 0 0 0 0 0 0 0.25 0"/>
<feBlend mode="normal" in2="shape" result="effect1_innerShadow_2280_1518"/>
</filter>
<linearGradient id="paint0_linear_2280_1518" x1="12" y1="12" x2="12" y2="15" gradientUnits="userSpaceOnUse">
<stop stop-color="#5DD5B6"/>
<stop offset="1" stop-color="#4C4C96"/>
</linearGradient>
<linearGradient id="paint1_linear_2280_1518" x1="13" y1="12" x2="13" y2="15" gradientUnits="userSpaceOnUse">
<stop stop-color="#5DD5B6"/>
<stop offset="1" stop-color="#4C4C96"/>
</linearGradient>
<linearGradient id="paint2_linear_2280_1518" x1="14" y1="7.25002" x2="14" y2="10.25" gradientUnits="userSpaceOnUse">
<stop stop-color="#5DD5B6"/>
<stop offset="1" stop-color="#4C4C96"/>
</linearGradient>
<linearGradient id="paint3_linear_2280_1518" x1="14" y1="18" x2="14" y2="21" gradientUnits="userSpaceOnUse">
<stop stop-color="#5DD5B6"/>
<stop offset="1" stop-color="#4C4C96"/>
</linearGradient>
<linearGradient id="paint4_linear_2280_1518" x1="17" y1="12" x2="17" y2="15" gradientUnits="userSpaceOnUse">
<stop stop-color="#5DD5B6"/>
<stop offset="1" stop-color="#4C4C96"/>
</linearGradient>
</defs>
</svg>
