<svg width="24" height="24" viewBox="0 0 24 24" fill="none" xmlns="http://www.w3.org/2000/svg">
<path d="M3 8V22H12V8H3Z" fill="#969490" class='mian'/>
<path d="M12 8V22H16V8H12Z" fill="#637581" class='mian'/>
<path d="M7.5 13V18.5H12V13H7.5Z" fill="#637581" class='mian'/>
<path d="M8 14.2V15.55C8 15.6605 8.08954 15.75 8.2 15.75H11.3C11.4105 15.75 11.5 15.6605 11.5 15.55V14.2C11.5 14.0895 11.4105 14 11.3 14H8.2C8.08954 14 8 14.0895 8 14.2Z" fill="#36444F"/>
<path d="M8.25 14.1V15.4C8.25 15.4552 8.29477 15.5 8.35 15.5H11.15C11.2052 15.5 11.25 15.4552 11.25 15.4V14.1C11.25 14.0448 11.2052 14 11.15 14H8.35C8.29477 14 8.25 14.0448 8.25 14.1Z" fill="#6A7179"/>
<path d="M8 14.2V14.5H11.5V14.2C11.5 14.0895 11.4105 14 11.3 14H8.2C8.08954 14 8 14.0895 8 14.2Z" fill="#F5F6F3"/>
<path fill-rule="evenodd" clip-rule="evenodd" d="M12 18.6H3V18.4H12V18.6Z" fill="#21211F" class='xian'/>
<path fill-rule="evenodd" clip-rule="evenodd" d="M4.40002 18.95C4.40002 18.8947 4.4448 18.85 4.50002 18.85H11.25C11.3053 18.85 11.35 18.8947 11.35 18.95C11.35 19.0052 11.3053 19.05 11.25 19.05H4.50002C4.4448 19.05 4.40002 19.0052 4.40002 18.95Z" fill="#21211F" class='xian'/>
<path fill-rule="evenodd" clip-rule="evenodd" d="M4.40002 19.45C4.40002 19.3947 4.4448 19.35 4.50002 19.35H11.25C11.3053 19.35 11.35 19.3947 11.35 19.45C11.35 19.5052 11.3053 19.55 11.25 19.55H4.50002C4.4448 19.55 4.40002 19.5052 4.40002 19.45Z" fill="#21211F" class='xian'/>
<path fill-rule="evenodd" clip-rule="evenodd" d="M4.40002 19.95C4.40002 19.8947 4.4448 19.85 4.50002 19.85H11.25C11.3053 19.85 11.35 19.8947 11.35 19.95C11.35 20.0052 11.3053 20.05 11.25 20.05H4.50002C4.4448 20.05 4.40002 20.0052 4.40002 19.95Z" fill="#21211F" class='xian'/>
<path fill-rule="evenodd" clip-rule="evenodd" d="M4.40002 20.45C4.40002 20.3947 4.4448 20.35 4.50002 20.35H11.25C11.3053 20.35 11.35 20.3947 11.35 20.45C11.35 20.5052 11.3053 20.55 11.25 20.55H4.50002C4.4448 20.55 4.40002 20.5052 4.40002 20.45Z" fill="#21211F" class='xian'/>
<path fill-rule="evenodd" clip-rule="evenodd" d="M4.40002 20.95C4.40002 20.8947 4.4448 20.85 4.50002 20.85H11.25C11.3053 20.85 11.35 20.8947 11.35 20.95C11.35 21.0052 11.3053 21.05 11.25 21.05H4.50002C4.4448 21.05 4.40002 21.0052 4.40002 20.95Z" fill="#21211F" class='xian'/>
<path fill-rule="evenodd" clip-rule="evenodd" d="M12 13.1H3V12.9H12V13.1Z" fill="#21211F" class='xian'/>
<path fill-rule="evenodd" clip-rule="evenodd" d="M16 17.1H12V16.9H16V17.1Z" fill="#21211F" class='xian'/>
<path fill-rule="evenodd" clip-rule="evenodd" d="M7.39998 18.5L7.39998 13L7.59998 13L7.59998 18.5L7.39998 18.5Z" fill="#21211F" class='xian'/>
<path fill-rule="evenodd" clip-rule="evenodd" d="M11.9 22L11.9 8L12.1 8L12.1 22L11.9 22Z" fill="#21211F" class='xian'/>
<path fill-rule="evenodd" clip-rule="evenodd" d="M2.25 8C2.25 7.58579 2.58579 7.25 3 7.25H16C16.4142 7.25 16.75 7.58579 16.75 8V22C16.75 22.4142 16.4142 22.75 16 22.75H3C2.58579 22.75 2.25 22.4142 2.25 22V8ZM3.75 8.75V21.25H15.25V8.75H3.75Z" fill="#333333" class='xian'/>
<path d="M11 3V8H21V3H11Z" fill="#637581" class='mian'/>
<path fill-rule="evenodd" clip-rule="evenodd" d="M10.25 3C10.25 2.58579 10.5858 2.25 11 2.25H21C21.4142 2.25 21.75 2.58579 21.75 3V8C21.75 8.41421 21.4142 8.75 21 8.75H11C10.5858 8.75 10.25 8.41421 10.25 8V3ZM11.75 3.75V7.25H20.25V3.75H11.75Z" fill="#333333" class='xian'/>
<path d="M16 8V22H21V8H16Z" fill="#637581" class='mian'/>
<path fill-rule="evenodd" clip-rule="evenodd" d="M15.25 8C15.25 7.58579 15.5858 7.25 16 7.25H21C21.4142 7.25 21.75 7.58579 21.75 8V22C21.75 22.4142 21.4142 22.75 21 22.75H16C15.5858 22.75 15.25 22.4142 15.25 22V8ZM16.75 8.75V21.25H20.25V8.75H16.75Z" fill="#333333" class='xian'/>
<path fill-rule="evenodd" clip-rule="evenodd" d="M17.4 18.5C17.4 18.4448 17.4448 18.4 17.5 18.4H19.5C19.5553 18.4 19.6 18.4448 19.6 18.5C19.6 18.5553 19.5553 18.6 19.5 18.6H17.5C17.4448 18.6 17.4 18.5553 17.4 18.5Z" fill="#30404D"/>
<path fill-rule="evenodd" clip-rule="evenodd" d="M17.4 19C17.4 18.9448 17.4448 18.9 17.5 18.9H19.5C19.5553 18.9 19.6 18.9448 19.6 19C19.6 19.0553 19.5553 19.1 19.5 19.1H17.5C17.4448 19.1 17.4 19.0553 17.4 19Z" fill="#30404D"/>
<path fill-rule="evenodd" clip-rule="evenodd" d="M17.4 19.5C17.4 19.4448 17.4448 19.4 17.5 19.4H19.5C19.5553 19.4 19.6 19.4448 19.6 19.5C19.6 19.5553 19.5553 19.6 19.5 19.6H17.5C17.4448 19.6 17.4 19.5553 17.4 19.5Z" fill="#30404D"/>
<path fill-rule="evenodd" clip-rule="evenodd" d="M17.4 20C17.4 19.9448 17.4448 19.9 17.5 19.9H19.5C19.5553 19.9 19.6 19.9448 19.6 20C19.6 20.0553 19.5553 20.1 19.5 20.1H17.5C17.4448 20.1 17.4 20.0553 17.4 20Z" fill="#30404D"/>
<path fill-rule="evenodd" clip-rule="evenodd" d="M17.4 20.5C17.4 20.4448 17.4448 20.4 17.5 20.4H19.5C19.5553 20.4 19.6 20.4448 19.6 20.5C19.6 20.5553 19.5553 20.6 19.5 20.6H17.5C17.4448 20.6 17.4 20.5553 17.4 20.5Z" fill="#30404D"/>
<path d="M14.25 4.42499C14.25 4.49402 14.194 4.54999 14.125 4.54999C14.056 4.54999 14 4.49402 14 4.42499C14 4.35595 14.056 4.29999 14.125 4.29999C14.194 4.29999 14.25 4.35595 14.25 4.42499Z" fill="#5BA651"/>
<path fill-rule="evenodd" clip-rule="evenodd" d="M14.125 4.32502C14.0697 4.32502 14.025 4.3698 14.025 4.42502C14.025 4.48025 14.0697 4.52502 14.125 4.52502C14.1802 4.52502 14.225 4.48025 14.225 4.42502C14.225 4.3698 14.1802 4.32502 14.125 4.32502ZM13.975 4.42502C13.975 4.34218 14.0421 4.27502 14.125 4.27502C14.2078 4.27502 14.275 4.34218 14.275 4.42502C14.275 4.50787 14.2078 4.57502 14.125 4.57502C14.0421 4.57502 13.975 4.50787 13.975 4.42502Z" fill="#454E62"/>
<path d="M15 4.42499C15 4.49402 14.944 4.54999 14.875 4.54999C14.806 4.54999 14.75 4.49402 14.75 4.42499C14.75 4.35595 14.806 4.29999 14.875 4.29999C14.944 4.29999 15 4.35595 15 4.42499Z" fill="#5BA651"/>
<path fill-rule="evenodd" clip-rule="evenodd" d="M14.875 4.32502C14.8197 4.32502 14.775 4.3698 14.775 4.42502C14.775 4.48025 14.8197 4.52502 14.875 4.52502C14.9302 4.52502 14.975 4.48025 14.975 4.42502C14.975 4.3698 14.9302 4.32502 14.875 4.32502ZM14.725 4.42502C14.725 4.34218 14.7921 4.27502 14.875 4.27502C14.9578 4.27502 15.025 4.34218 15.025 4.42502C15.025 4.50787 14.9578 4.57502 14.875 4.57502C14.7921 4.57502 14.725 4.50787 14.725 4.42502Z" fill="#454E62"/>
<path d="M13 4.5C13 4.77614 12.7761 5 12.5 5C12.2239 5 12 4.77614 12 4.5C12 4.22386 12.2239 4 12.5 4C12.7761 4 13 4.22386 13 4.5Z" fill="#303031"/>
<path fill-rule="evenodd" clip-rule="evenodd" d="M12.5 4.05001C12.2514 4.05001 12.05 4.25148 12.05 4.50001C12.05 4.74854 12.2514 4.95001 12.5 4.95001C12.7485 4.95001 12.95 4.74854 12.95 4.50001C12.95 4.25148 12.7485 4.05001 12.5 4.05001ZM11.95 4.50001C11.95 4.19626 12.1962 3.95001 12.5 3.95001C12.8037 3.95001 13.05 4.19626 13.05 4.50001C13.05 4.80377 12.8037 5.05001 12.5 5.05001C12.1962 5.05001 11.95 4.80377 11.95 4.50001Z" fill="#0C0910"/>
<path fill-rule="evenodd" clip-rule="evenodd" d="M12.5 4.14996C12.5276 4.14996 12.55 4.17235 12.55 4.19996V4.44996C12.55 4.47758 12.5276 4.49996 12.5 4.49996C12.4723 4.49996 12.45 4.47758 12.45 4.44996V4.19996C12.45 4.17235 12.4723 4.14996 12.5 4.14996Z" fill="white"/>
<path fill-rule="evenodd" clip-rule="evenodd" d="M12.3981 4.26609C12.4139 4.28874 12.4084 4.31991 12.3857 4.33571C12.3338 4.37193 12.3 4.43197 12.3 4.49989C12.3 4.61035 12.3895 4.69989 12.5 4.69989C12.6104 4.69989 12.7 4.61035 12.7 4.49989C12.7 4.43197 12.6661 4.37193 12.6142 4.33571C12.5915 4.31991 12.586 4.28874 12.6018 4.26609C12.6176 4.24344 12.6487 4.23789 12.6714 4.25368C12.749 4.30781 12.8 4.3979 12.8 4.49989C12.8 4.66558 12.6656 4.79989 12.5 4.79989C12.3343 4.79989 12.2 4.66558 12.2 4.49989C12.2 4.3979 12.2509 4.30781 12.3285 4.25368C12.3512 4.23789 12.3823 4.24344 12.3981 4.26609Z" fill="white"/>
<path d="M6 9.50005V12.1C6 12.2105 6.08954 12.3 6.2 12.3H9.8C9.91046 12.3 10 12.2105 10 12.1V9.50005C10 9.38959 9.91046 9.30005 9.8 9.30005H6.2C6.08954 9.30005 6 9.38959 6 9.50005Z" fill="white"/>
<path fill-rule="evenodd" clip-rule="evenodd" d="M6.25 9.55005V12.05H9.75V9.55005H6.25ZM5.75 9.50005C5.75 9.25152 5.95147 9.05005 6.2 9.05005H9.8C10.0485 9.05005 10.25 9.25152 10.25 9.50005V12.1C10.25 12.3486 10.0485 12.55 9.8 12.55H6.2C5.95147 12.55 5.75 12.3486 5.75 12.1V9.50005Z" fill="#333333" class='xian'/>
<path d="M8.25 11.65C8.25 11.7881 8.13807 11.9 8 11.9C7.86193 11.9 7.75 11.7881 7.75 11.65C7.75 11.512 7.86193 11.4 8 11.4C8.13807 11.4 8.25 11.512 8.25 11.65Z" fill="#333333" class='xian'/>
<path fill-rule="evenodd" clip-rule="evenodd" d="M9.75811 11.3H6.25V10.8H9.75811V11.3Z" fill="#333333" class='xian'/>
<path fill-rule="evenodd" clip-rule="evenodd" d="M7.92678 9.72325C8.02441 9.82088 8.02441 9.97917 7.92678 10.0768L7.42678 10.5768C7.32915 10.6744 7.17085 10.6744 7.07322 10.5768C6.97559 10.4792 6.97559 10.3209 7.07322 10.2232L7.57322 9.72325C7.67085 9.62562 7.82915 9.62562 7.92678 9.72325Z" fill="#333333" class='xian'/>
<path fill-rule="evenodd" clip-rule="evenodd" d="M8.92678 9.87327C9.02441 9.9709 9.02441 10.1292 8.92678 10.2268L8.67678 10.4768C8.57915 10.5745 8.42085 10.5745 8.32322 10.4768C8.22559 10.3792 8.22559 10.2209 8.32322 10.1233L8.57322 9.87327C8.67085 9.77564 8.82915 9.77564 8.92678 9.87327Z" fill="#333333" class='xian'/>
</svg>
