<svg width="24" height="24" viewBox="0 0 24 24" fill="none" xmlns="http://www.w3.org/2000/svg">
<path d="M3 4V22H15V4H3Z" fill="#596672" class='mian'/>
<path d="M10.75 12.1V14.9C10.75 14.9552 10.7948 15 10.85 15H11.65C11.7052 15 11.75 14.9552 11.75 14.9V12.1C11.75 12.0448 11.7052 12 11.65 12H10.85C10.7948 12 10.75 12.0448 10.75 12.1Z" fill="#BABABC"/>
<path d="M12.2 12.1V14.9C12.2 14.9552 12.2447 15 12.3 15H13.6C13.6552 15 13.7 14.9552 13.7 14.9V12.1C13.7 12.0448 13.6552 12 13.6 12H12.3C12.2447 12 12.2 12.0448 12.2 12.1Z" fill="#7A8491"/>
<path d="M13.75 17.7V20.5C13.75 20.5552 13.7948 20.6 13.85 20.6H14.65C14.7052 20.6 14.75 20.5552 14.75 20.5V17.7C14.75 17.6447 14.7052 17.6 14.65 17.6H13.85C13.7948 17.6 13.75 17.6447 13.75 17.7Z" fill="#7A8491"/>
<path d="M13.75 6.6V9.4C13.75 9.45523 13.7948 9.5 13.85 9.5H14.65C14.7052 9.5 14.75 9.45523 14.75 9.4V6.6C14.75 6.54477 14.7052 6.5 14.65 6.5H13.85C13.7948 6.5 13.75 6.54477 13.75 6.6Z" fill="#7A8491"/>
<path fill-rule="evenodd" clip-rule="evenodd" d="M4.94995 20C4.94995 19.9724 4.97234 19.95 4.99995 19.95H11.5C11.5276 19.95 11.55 19.9724 11.55 20C11.55 20.0276 11.5276 20.05 11.5 20.05H4.99995C4.97234 20.05 4.94995 20.0276 4.94995 20Z" fill="#30404D"/>
<path fill-rule="evenodd" clip-rule="evenodd" d="M4.94995 20.25C4.94995 20.2224 4.97234 20.2 4.99995 20.2H11.5C11.5276 20.2 11.55 20.2224 11.55 20.25C11.55 20.2776 11.5276 20.3 11.5 20.3H4.99995C4.97234 20.3 4.94995 20.2776 4.94995 20.25Z" fill="#30404D"/>
<path fill-rule="evenodd" clip-rule="evenodd" d="M4.94995 20.5C4.94995 20.4724 4.97234 20.45 4.99995 20.45H11.5C11.5276 20.45 11.55 20.4724 11.55 20.5C11.55 20.5276 11.5276 20.55 11.5 20.55H4.99995C4.97234 20.55 4.94995 20.5276 4.94995 20.5Z" fill="#30404D"/>
<path fill-rule="evenodd" clip-rule="evenodd" d="M4.94995 20.75C4.94995 20.7224 4.97234 20.7 4.99995 20.7H11.5C11.5276 20.7 11.55 20.7224 11.55 20.75C11.55 20.7776 11.5276 20.8 11.5 20.8H4.99995C4.97234 20.8 4.94995 20.7776 4.94995 20.75Z" fill="#30404D"/>
<path fill-rule="evenodd" clip-rule="evenodd" d="M4.94995 21C4.94995 20.9724 4.97234 20.95 4.99995 20.95H11.5C11.5276 20.95 11.55 20.9724 11.55 21C11.55 21.0276 11.5276 21.05 11.5 21.05H4.99995C4.97234 21.05 4.94995 21.0276 4.94995 21Z" fill="#30404D"/>
<path fill-rule="evenodd" clip-rule="evenodd" d="M15 17.1H3V16.9H15V17.1Z" fill="#21211F"/>
<path fill-rule="evenodd" clip-rule="evenodd" d="M13.5 10.25H4.5V9.75H13.5V10.25Z" fill="#21211F"/>
<path fill-rule="evenodd" clip-rule="evenodd" d="M3.89998 9.50002L3.89998 6.50002C3.89998 6.4448 3.94475 6.40002 3.99998 6.40002C4.0552 6.40002 4.09998 6.4448 4.09998 6.50002L4.09998 9.50002C4.09998 9.55525 4.0552 9.60002 3.99998 9.60002C3.94475 9.60002 3.89998 9.55525 3.89998 9.50002Z" fill="#21211F"/>
<path fill-rule="evenodd" clip-rule="evenodd" d="M3.89998 20.5L3.89998 18C3.89998 17.9448 3.94475 17.9 3.99998 17.9C4.0552 17.9 4.09998 17.9448 4.09998 18L4.09998 20.5C4.09998 20.5553 4.0552 20.6 3.99998 20.6C3.94475 20.6 3.89998 20.5553 3.89998 20.5Z" fill="#21211F"/>
<path fill-rule="evenodd" clip-rule="evenodd" d="M3.89998 16L3.89998 11C3.89998 10.9448 3.94475 10.9 3.99998 10.9C4.0552 10.9 4.09998 10.9448 4.09998 11L4.09998 16C4.09998 16.0553 4.0552 16.1 3.99998 16.1C3.94475 16.1 3.89998 16.0553 3.89998 16Z" fill="#21211F"/>
<path fill-rule="evenodd" clip-rule="evenodd" d="M15 6.10002H3V5.90002H15V6.10002Z" fill="#21211F"/>
<path fill-rule="evenodd" clip-rule="evenodd" d="M3.90002 2.00002C3.90002 1.9448 3.9448 1.90002 4.00002 1.90002H14C14.0553 1.90002 14.1 1.9448 14.1 2.00002V4.00002H13.9V2.10002H4.10002V4.00002H3.90002V2.00002Z" fill="#6C6A68" class='xian'/>
<path fill-rule="evenodd" clip-rule="evenodd" d="M10.9694 1.84539C10.3329 1.68629 9.66712 1.68628 9.03069 1.84539L8.99442 1.85446C8.46878 1.98587 8.10002 2.45816 8.10002 2.99998V3.39998H11.9V2.99998C11.9 2.45816 11.5313 1.98587 11.0056 1.85446L10.9694 1.84539ZM8.98218 1.65136C9.65046 1.48429 10.3496 1.48429 11.0179 1.65136L11.0541 1.66043C11.6688 1.8141 12.1 2.36639 12.1 2.99998V3.49998C12.1 3.55521 12.0553 3.59998 12 3.59998H8.00002C7.9448 3.59998 7.90002 3.55521 7.90002 3.49998V2.99998C7.90002 2.36639 8.33124 1.8141 8.94591 1.66043L8.98218 1.65136Z" fill="#6C6A68" class='xian'/>
<path fill-rule="evenodd" clip-rule="evenodd" d="M2.25 4C2.25 3.58579 2.58579 3.25 3 3.25H15C15.4142 3.25 15.75 3.58579 15.75 4V22C15.75 22.4142 15.4142 22.75 15 22.75H3C2.58579 22.75 2.25 22.4142 2.25 22V4ZM3.75 4.75V21.25H14.25V4.75H3.75Z" fill="#333333" class='xian'/>
<path d="M15 8V22H21V8H15Z" fill="#5A6773" class='mian'/>
<path fill-rule="evenodd" clip-rule="evenodd" d="M14.25 8C14.25 7.58579 14.5858 7.25 15 7.25H21C21.4142 7.25 21.75 7.58579 21.75 8V22C21.75 22.4142 21.4142 22.75 21 22.75H15C14.5858 22.75 14.25 22.4142 14.25 22V8ZM15.75 8.75V21.25H20.25V8.75H15.75Z" fill="#333333" class='xian'/>
<path fill-rule="evenodd" clip-rule="evenodd" d="M17.95 21.5L17.95 8L18.05 8L18.05 21.5L17.95 21.5Z" fill="#333333" class='xian'/>
<path fill-rule="evenodd" clip-rule="evenodd" d="M11.95 21.5L11.95 4.5L12.05 4.5L12.05 21.5L11.95 21.5Z" fill="#333333" class='xian'/>
<path fill-rule="evenodd" clip-rule="evenodd" d="M18.4 18.5C18.4 18.4448 18.4448 18.4 18.5 18.4H20C20.0553 18.4 20.1 18.4448 20.1 18.5C20.1 18.5553 20.0553 18.6 20 18.6H18.5C18.4448 18.6 18.4 18.5553 18.4 18.5Z" fill="#30404D"/>
<path fill-rule="evenodd" clip-rule="evenodd" d="M18.4 19C18.4 18.9448 18.4448 18.9 18.5 18.9H20C20.0553 18.9 20.1 18.9448 20.1 19C20.1 19.0553 20.0553 19.1 20 19.1H18.5C18.4448 19.1 18.4 19.0553 18.4 19Z" fill="#30404D"/>
<path fill-rule="evenodd" clip-rule="evenodd" d="M18.4 19.5C18.4 19.4448 18.4448 19.4 18.5 19.4H20C20.0553 19.4 20.1 19.4448 20.1 19.5C20.1 19.5553 20.0553 19.6 20 19.6H18.5C18.4448 19.6 18.4 19.5553 18.4 19.5Z" fill="#30404D"/>
<path fill-rule="evenodd" clip-rule="evenodd" d="M18.4 20C18.4 19.9448 18.4448 19.9 18.5 19.9H20C20.0553 19.9 20.1 19.9448 20.1 20C20.1 20.0553 20.0553 20.1 20 20.1H18.5C18.4448 20.1 18.4 20.0553 18.4 20Z" fill="#30404D"/>
<path fill-rule="evenodd" clip-rule="evenodd" d="M18.4 20.5C18.4 20.4448 18.4448 20.4 18.5 20.4H20C20.0553 20.4 20.1 20.4448 20.1 20.5C20.1 20.5553 20.0553 20.6 20 20.6H18.5C18.4448 20.6 18.4 20.5553 18.4 20.5Z" fill="#30404D"/>
<path d="M5.65002 17.725C5.65002 17.794 5.59406 17.85 5.52502 17.85C5.45599 17.85 5.40002 17.794 5.40002 17.725C5.40002 17.6559 5.45599 17.6 5.52502 17.6C5.59406 17.6 5.65002 17.6559 5.65002 17.725Z" fill="#5BA651"/>
<path fill-rule="evenodd" clip-rule="evenodd" d="M5.525 17.625C5.46977 17.625 5.425 17.6697 5.425 17.725C5.425 17.7802 5.46977 17.825 5.525 17.825C5.58023 17.825 5.625 17.7802 5.625 17.725C5.625 17.6697 5.58023 17.625 5.525 17.625ZM5.375 17.725C5.375 17.6421 5.44216 17.575 5.525 17.575C5.60784 17.575 5.675 17.6421 5.675 17.725C5.675 17.8078 5.60784 17.875 5.525 17.875C5.44216 17.875 5.375 17.8078 5.375 17.725Z" fill="#454E62"/>
<path d="M6.15002 17.725C6.15002 17.794 6.09406 17.85 6.02502 17.85C5.95599 17.85 5.90002 17.794 5.90002 17.725C5.90002 17.6559 5.95599 17.6 6.02502 17.6C6.09406 17.6 6.15002 17.6559 6.15002 17.725Z" fill="#5BA651"/>
<path fill-rule="evenodd" clip-rule="evenodd" d="M6.025 17.625C5.96977 17.625 5.925 17.6697 5.925 17.725C5.925 17.7802 5.96977 17.825 6.025 17.825C6.08023 17.825 6.125 17.7802 6.125 17.725C6.125 17.6697 6.08023 17.625 6.025 17.625ZM5.875 17.725C5.875 17.6421 5.94216 17.575 6.025 17.575C6.10784 17.575 6.175 17.6421 6.175 17.725C6.175 17.8078 6.10784 17.875 6.025 17.875C5.94216 17.875 5.875 17.8078 5.875 17.725Z" fill="#454E62"/>
<path d="M5 17.75C5 17.8881 4.88807 18 4.75 18C4.61193 18 4.5 17.8881 4.5 17.75C4.5 17.6119 4.61193 17.5 4.75 17.5C4.88807 17.5 5 17.6119 5 17.75Z" fill="#303031"/>
<path fill-rule="evenodd" clip-rule="evenodd" d="M4.74998 17.525C4.62571 17.525 4.52498 17.6257 4.52498 17.75C4.52498 17.8742 4.62571 17.975 4.74998 17.975C4.87424 17.975 4.97498 17.8742 4.97498 17.75C4.97498 17.6257 4.87424 17.525 4.74998 17.525ZM4.47498 17.75C4.47498 17.5981 4.5981 17.475 4.74998 17.475C4.90185 17.475 5.02498 17.5981 5.02498 17.75C5.02498 17.9019 4.90185 18.025 4.74998 18.025C4.5981 18.025 4.47498 17.9019 4.47498 17.75Z" fill="#0C0910"/>
<path fill-rule="evenodd" clip-rule="evenodd" d="M4.74998 17.575C4.76378 17.575 4.77498 17.5861 4.77498 17.6V17.725C4.77498 17.7388 4.76378 17.75 4.74998 17.75C4.73617 17.75 4.72498 17.7388 4.72498 17.725V17.6C4.72498 17.5861 4.73617 17.575 4.74998 17.575Z" fill="white"/>
<path fill-rule="evenodd" clip-rule="evenodd" d="M4.69906 17.633C4.70696 17.6443 4.70418 17.6599 4.69286 17.6678C4.66688 17.6859 4.64998 17.716 4.64998 17.7499C4.64998 17.8051 4.69475 17.8499 4.74998 17.8499C4.8052 17.8499 4.84998 17.8051 4.84998 17.7499C4.84998 17.716 4.83307 17.6859 4.8071 17.6678C4.79577 17.6599 4.79299 17.6443 4.80089 17.633C4.80879 17.6217 4.82437 17.6189 4.8357 17.6268C4.8745 17.6539 4.89998 17.6989 4.89998 17.7499C4.89998 17.8328 4.83282 17.8999 4.74998 17.8999C4.66713 17.8999 4.59998 17.8328 4.59998 17.7499C4.59998 17.6989 4.62545 17.6539 4.66425 17.6268C4.67558 17.6189 4.69116 17.6217 4.69906 17.633Z" fill="white"/>
<path d="M5.65002 10.765C5.65002 10.8341 5.59406 10.89 5.52502 10.89C5.45599 10.89 5.40002 10.8341 5.40002 10.765C5.40002 10.696 5.45599 10.64 5.52502 10.64C5.59406 10.64 5.65002 10.696 5.65002 10.765Z" fill="#5BA651"/>
<path fill-rule="evenodd" clip-rule="evenodd" d="M5.525 10.665C5.46977 10.665 5.425 10.7098 5.425 10.765C5.425 10.8202 5.46977 10.865 5.525 10.865C5.58023 10.865 5.625 10.8202 5.625 10.765C5.625 10.7098 5.58023 10.665 5.525 10.665ZM5.375 10.765C5.375 10.6821 5.44216 10.615 5.525 10.615C5.60784 10.615 5.675 10.6821 5.675 10.765C5.675 10.8478 5.60784 10.915 5.525 10.915C5.44216 10.915 5.375 10.8478 5.375 10.765Z" fill="#454E62"/>
<path d="M6.15002 10.765C6.15002 10.8341 6.09406 10.89 6.02502 10.89C5.95599 10.89 5.90002 10.8341 5.90002 10.765C5.90002 10.696 5.95599 10.64 6.02502 10.64C6.09406 10.64 6.15002 10.696 6.15002 10.765Z" fill="#5BA651"/>
<path fill-rule="evenodd" clip-rule="evenodd" d="M6.025 10.665C5.96977 10.665 5.925 10.7098 5.925 10.765C5.925 10.8202 5.96977 10.865 6.025 10.865C6.08023 10.865 6.125 10.8202 6.125 10.765C6.125 10.7098 6.08023 10.665 6.025 10.665ZM5.875 10.765C5.875 10.6821 5.94216 10.615 6.025 10.615C6.10784 10.615 6.175 10.6821 6.175 10.765C6.175 10.8478 6.10784 10.915 6.025 10.915C5.94216 10.915 5.875 10.8478 5.875 10.765Z" fill="#454E62"/>
<path d="M5 10.79C5 10.9281 4.88807 11.04 4.75 11.04C4.61193 11.04 4.5 10.9281 4.5 10.79C4.5 10.652 4.61193 10.54 4.75 10.54C4.88807 10.54 5 10.652 5 10.79Z" fill="#303031"/>
<path fill-rule="evenodd" clip-rule="evenodd" d="M4.74998 10.565C4.62571 10.565 4.52498 10.6658 4.52498 10.79C4.52498 10.9143 4.62571 11.015 4.74998 11.015C4.87424 11.015 4.97498 10.9143 4.97498 10.79C4.97498 10.6658 4.87424 10.565 4.74998 10.565ZM4.47498 10.79C4.47498 10.6381 4.5981 10.515 4.74998 10.515C4.90185 10.515 5.02498 10.6381 5.02498 10.79C5.02498 10.9419 4.90185 11.065 4.74998 11.065C4.5981 11.065 4.47498 10.9419 4.47498 10.79Z" fill="#0C0910"/>
<path fill-rule="evenodd" clip-rule="evenodd" d="M4.74998 10.615C4.76378 10.615 4.77498 10.6262 4.77498 10.64V10.765C4.77498 10.7788 4.76378 10.79 4.74998 10.79C4.73617 10.79 4.72498 10.7788 4.72498 10.765V10.64C4.72498 10.6262 4.73617 10.615 4.74998 10.615Z" fill="white"/>
<path fill-rule="evenodd" clip-rule="evenodd" d="M4.69906 10.6731C4.70696 10.6844 4.70418 10.7 4.69286 10.7079C4.66688 10.726 4.64998 10.756 4.64998 10.79C4.64998 10.8452 4.69475 10.89 4.74998 10.89C4.8052 10.89 4.84998 10.8452 4.84998 10.79C4.84998 10.756 4.83307 10.726 4.8071 10.7079C4.79577 10.7 4.79299 10.6844 4.80089 10.6731C4.80879 10.6617 4.82437 10.659 4.8357 10.6669C4.8745 10.6939 4.89998 10.739 4.89998 10.79C4.89998 10.8728 4.83282 10.94 4.74998 10.94C4.66713 10.94 4.59998 10.8728 4.59998 10.79C4.59998 10.739 4.62545 10.6939 4.66425 10.6669C4.67558 10.659 4.69116 10.6617 4.69906 10.6731Z" fill="white"/>
<path d="M5.65002 6.72498C5.65002 6.79401 5.59406 6.84998 5.52502 6.84998C5.45599 6.84998 5.40002 6.79401 5.40002 6.72498C5.40002 6.65594 5.45599 6.59998 5.52502 6.59998C5.59406 6.59998 5.65002 6.65594 5.65002 6.72498Z" fill="#5BA651"/>
<path fill-rule="evenodd" clip-rule="evenodd" d="M5.525 6.62495C5.46977 6.62495 5.425 6.66972 5.425 6.72495C5.425 6.78018 5.46977 6.82495 5.525 6.82495C5.58023 6.82495 5.625 6.78018 5.625 6.72495C5.625 6.66972 5.58023 6.62495 5.525 6.62495ZM5.375 6.72495C5.375 6.64211 5.44216 6.57495 5.525 6.57495C5.60784 6.57495 5.675 6.64211 5.675 6.72495C5.675 6.80779 5.60784 6.87495 5.525 6.87495C5.44216 6.87495 5.375 6.80779 5.375 6.72495Z" fill="#454E62"/>
<path d="M6.15002 6.72498C6.15002 6.79401 6.09406 6.84998 6.02502 6.84998C5.95599 6.84998 5.90002 6.79401 5.90002 6.72498C5.90002 6.65594 5.95599 6.59998 6.02502 6.59998C6.09406 6.59998 6.15002 6.65594 6.15002 6.72498Z" fill="#5BA651"/>
<path fill-rule="evenodd" clip-rule="evenodd" d="M6.025 6.62495C5.96977 6.62495 5.925 6.66972 5.925 6.72495C5.925 6.78018 5.96977 6.82495 6.025 6.82495C6.08023 6.82495 6.125 6.78018 6.125 6.72495C6.125 6.66972 6.08023 6.62495 6.025 6.62495ZM5.875 6.72495C5.875 6.64211 5.94216 6.57495 6.025 6.57495C6.10784 6.57495 6.175 6.64211 6.175 6.72495C6.175 6.80779 6.10784 6.87495 6.025 6.87495C5.94216 6.87495 5.875 6.80779 5.875 6.72495Z" fill="#454E62"/>
<path d="M5 6.75C5 6.88807 4.88807 7 4.75 7C4.61193 7 4.5 6.88807 4.5 6.75C4.5 6.61193 4.61193 6.5 4.75 6.5C4.88807 6.5 5 6.61193 5 6.75Z" fill="#303031"/>
<path fill-rule="evenodd" clip-rule="evenodd" d="M4.74998 6.52498C4.62571 6.52498 4.52498 6.62571 4.52498 6.74998C4.52498 6.87424 4.62571 6.97498 4.74998 6.97498C4.87424 6.97498 4.97498 6.87424 4.97498 6.74998C4.97498 6.62571 4.87424 6.52498 4.74998 6.52498ZM4.47498 6.74998C4.47498 6.5981 4.5981 6.47498 4.74998 6.47498C4.90185 6.47498 5.02498 6.5981 5.02498 6.74998C5.02498 6.90185 4.90185 7.02498 4.74998 7.02498C4.5981 7.02498 4.47498 6.90185 4.47498 6.74998Z" fill="#0C0910"/>
<path fill-rule="evenodd" clip-rule="evenodd" d="M4.74998 6.57495C4.76378 6.57495 4.77498 6.58614 4.77498 6.59995V6.72495C4.77498 6.73876 4.76378 6.74995 4.74998 6.74995C4.73617 6.74995 4.72498 6.73876 4.72498 6.72495V6.59995C4.72498 6.58614 4.73617 6.57495 4.74998 6.57495Z" fill="white"/>
<path fill-rule="evenodd" clip-rule="evenodd" d="M4.69906 6.63302C4.70696 6.64434 4.70418 6.65992 4.69286 6.66782C4.66688 6.68594 4.64998 6.71595 4.64998 6.74992C4.64998 6.80514 4.69475 6.84992 4.74998 6.84992C4.8052 6.84992 4.84998 6.80514 4.84998 6.74992C4.84998 6.71595 4.83307 6.68594 4.8071 6.66782C4.79577 6.65992 4.79299 6.64434 4.80089 6.63302C4.80879 6.62169 4.82437 6.61891 4.8357 6.62681C4.8745 6.65387 4.89998 6.69892 4.89998 6.74992C4.89998 6.83276 4.83282 6.89992 4.74998 6.89992C4.66713 6.89992 4.59998 6.83276 4.59998 6.74992C4.59998 6.69892 4.62545 6.65387 4.66425 6.62681C4.67558 6.61891 4.69116 6.62169 4.69906 6.63302Z" fill="white"/>
<path fill-rule="evenodd" clip-rule="evenodd" d="M5.49998 18.525C5.23764 18.525 5.02498 18.7376 5.02498 19C5.02498 19.2623 5.23764 19.475 5.49998 19.475C5.76231 19.475 5.97498 19.2623 5.97498 19C5.97498 18.7376 5.76231 18.525 5.49998 18.525ZM4.97498 19C4.97498 18.71 5.21003 18.475 5.49998 18.475C5.78993 18.475 6.02498 18.71 6.02498 19C6.02498 19.2899 5.78993 19.525 5.49998 19.525C5.21003 19.525 4.97498 19.2899 4.97498 19Z" fill="#2E3A44"/>
<path fill-rule="evenodd" clip-rule="evenodd" d="M7.30002 18.525C7.03769 18.525 6.82502 18.7376 6.82502 19C6.82502 19.2623 7.03769 19.475 7.30002 19.475C7.56236 19.475 7.77502 19.2623 7.77502 19C7.77502 18.7376 7.56236 18.525 7.30002 18.525ZM6.77502 19C6.77502 18.71 7.01007 18.475 7.30002 18.475C7.58997 18.475 7.82502 18.71 7.82502 19C7.82502 19.2899 7.58997 19.525 7.30002 19.525C7.01007 19.525 6.77502 19.2899 6.77502 19Z" fill="#2E3A44"/>
<path fill-rule="evenodd" clip-rule="evenodd" d="M9.09995 18.525C8.83762 18.525 8.62495 18.7376 8.62495 19C8.62495 19.2623 8.83762 19.475 9.09995 19.475C9.36229 19.475 9.57495 19.2623 9.57495 19C9.57495 18.7376 9.36229 18.525 9.09995 18.525ZM8.57495 19C8.57495 18.71 8.81 18.475 9.09995 18.475C9.3899 18.475 9.62495 18.71 9.62495 19C9.62495 19.2899 9.3899 19.525 9.09995 19.525C8.81 19.525 8.57495 19.2899 8.57495 19Z" fill="#2E3A44"/>
<path fill-rule="evenodd" clip-rule="evenodd" d="M10.9 18.525C10.6377 18.525 10.425 18.7376 10.425 19C10.425 19.2623 10.6377 19.475 10.9 19.475C11.1623 19.475 11.375 19.2623 11.375 19C11.375 18.7376 11.1623 18.525 10.9 18.525ZM10.375 19C10.375 18.71 10.6101 18.475 10.9 18.475C11.1899 18.475 11.425 18.71 11.425 19C11.425 19.2899 11.1899 19.525 10.9 19.525C10.6101 19.525 10.375 19.2899 10.375 19Z" fill="#2E3A44"/>
</svg>
