<svg width="24" height="24" viewBox="0 0 24 24" fill="none" xmlns="http://www.w3.org/2000/svg">
<path fill-rule="evenodd" clip-rule="evenodd" d="M1.25 2C1.25 1.58579 1.58579 1.25 2 1.25H22C22.4142 1.25 22.75 1.58579 22.75 2V22C22.75 22.4142 22.4142 22.75 22 22.75H2C1.58579 22.75 1.25 22.4142 1.25 22V2ZM2.75 2.75V21.25H21.25V2.75H2.75Z" fill="#333333" class='xian'/>
<path fill-rule="evenodd" clip-rule="evenodd" d="M5.32919 16.6646C5.45624 16.4105 5.71593 16.25 6.00001 16.25H18C18.2841 16.25 18.5438 16.4105 18.6708 16.6646L19.1708 17.6646C19.3561 18.0351 19.2059 18.4856 18.8354 18.6708C18.4649 18.8561 18.0144 18.7059 17.8292 18.3354L17.5365 17.75H6.46354L6.17083 18.3354C5.98559 18.7059 5.53509 18.8561 5.1646 18.6708C4.79412 18.4856 4.64395 18.0351 4.82919 17.6646L5.32919 16.6646Z" fill="#333333" class='xian'/>
<path d="M10.5 15C10.5 14.7239 10.7239 14.5 11 14.5H13C13.2761 14.5 13.5 14.7239 13.5 15V16.5C13.5 16.7761 13.2761 17 13 17H11C10.7239 17 10.5 16.7761 10.5 16.5V15Z" fill="#4D4D4D"  class='mian'/>
<path fill-rule="evenodd" clip-rule="evenodd" d="M17 11.25C16.8619 11.25 16.75 11.1381 16.75 11L16.75 4C16.75 3.86193 16.8619 3.75 17 3.75L20 3.75C20.1381 3.75 20.25 3.86193 20.25 4L20.25 11C20.25 11.1381 20.1381 11.25 20 11.25L17 11.25ZM17.25 10.75L19.75 10.75L19.75 4.25L17.25 4.25L17.25 10.75Z" fill="#333333" class='xian'/>
<path fill-rule="evenodd" clip-rule="evenodd" d="M16.75 10C16.75 9.86193 16.8619 9.75 17 9.75L19 9.75C19.1381 9.75 19.25 9.86193 19.25 10C19.25 10.1381 19.1381 10.25 19 10.25L17 10.25C16.8619 10.25 16.75 10.1381 16.75 10Z" fill="#333333" class='xian'/>
<path fill-rule="evenodd" clip-rule="evenodd" d="M16.75 9C16.75 8.86193 16.8619 8.75 17 8.75L18.5 8.75C18.6381 8.75 18.75 8.86193 18.75 9C18.75 9.13807 18.6381 9.25 18.5 9.25L17 9.25C16.8619 9.25 16.75 9.13807 16.75 9Z" fill="#333333" class='xian'/>
<path fill-rule="evenodd" clip-rule="evenodd" d="M16.75 8C16.75 7.86193 16.8619 7.75 17 7.75L19 7.75C19.1381 7.75 19.25 7.86193 19.25 8C19.25 8.13807 19.1381 8.25 19 8.25L17 8.25C16.8619 8.25 16.75 8.13807 16.75 8Z" fill="#333333" class='xian'/>
<path fill-rule="evenodd" clip-rule="evenodd" d="M16.75 7C16.75 6.86193 16.8619 6.75 17 6.75L18.5 6.75C18.6381 6.75 18.75 6.86193 18.75 7C18.75 7.13807 18.6381 7.25 18.5 7.25L17 7.25C16.8619 7.25 16.75 7.13807 16.75 7Z" fill="#333333" class='xian'/>
<path fill-rule="evenodd" clip-rule="evenodd" d="M16.75 6C16.75 5.86193 16.8619 5.75 17 5.75L19 5.75C19.1381 5.75 19.25 5.86193 19.25 6C19.25 6.13807 19.1381 6.25 19 6.25L17 6.25C16.8619 6.25 16.75 6.13807 16.75 6Z" fill="#333333" class='xian'/>
<path fill-rule="evenodd" clip-rule="evenodd" d="M16.75 5C16.75 4.86193 16.8619 4.75 17 4.75L18.5 4.75C18.6381 4.75 18.75 4.86193 18.75 5C18.75 5.13807 18.6381 5.25 18.5 5.25L17 5.25C16.8619 5.25 16.75 5.13807 16.75 5Z" fill="#333333" class='xian'/>
</svg>
