<svg width="24" height="24" viewBox="0 0 24 24" fill="none" xmlns="http://www.w3.org/2000/svg">
<path fill-rule="evenodd" clip-rule="evenodd" d="M1.25 2C1.25 1.58579 1.58579 1.25 2 1.25H4C4.41421 1.25 4.75 1.58579 4.75 2C4.75 2.41421 4.41421 2.75 4 2.75H2.75V4C2.75 4.41421 2.41421 4.75 2 4.75C1.58579 4.75 1.25 4.41421 1.25 4V2Z" fill="#666666" class='xian'/>
<path fill-rule="evenodd" clip-rule="evenodd" d="M22.75 22C22.75 22.4142 22.4142 22.75 22 22.75H20C19.5858 22.75 19.25 22.4142 19.25 22C19.25 21.5858 19.5858 21.25 20 21.25H21.25V20C21.25 19.5858 21.5858 19.25 22 19.25C22.4142 19.25 22.75 19.5858 22.75 20V22Z" fill="#666666" class='xian'/>
<path fill-rule="evenodd" clip-rule="evenodd" d="M22.75 2C22.75 1.58579 22.4142 1.25 22 1.25H20C19.5858 1.25 19.25 1.58579 19.25 2C19.25 2.41421 19.5858 2.75 20 2.75H21.25V4C21.25 4.41421 21.5858 4.75 22 4.75C22.4142 4.75 22.75 4.41421 22.75 4V2Z" fill="#666666" class='xian'/>
<path fill-rule="evenodd" clip-rule="evenodd" d="M1.25 22C1.25 22.4142 1.58579 22.75 2 22.75H4C4.41421 22.75 4.75 22.4142 4.75 22C4.75 21.5858 4.41421 21.25 4 21.25H2.75V20C2.75 19.5858 2.41421 19.25 2 19.25C1.58579 19.25 1.25 19.5858 1.25 20V22Z" fill="#666666" class='xian'/>
<path fill-rule="evenodd" clip-rule="evenodd" d="M3.25 12C3.25 11.5858 3.58579 11.25 4 11.25H21C21.4142 11.25 21.75 11.5858 21.75 12C21.75 12.4142 21.4142 12.75 21 12.75H4C3.58579 12.75 3.25 12.4142 3.25 12Z" fill="#666666" class='xian'/>
<path fill-rule="evenodd" clip-rule="evenodd" d="M15.4039 3.8145C15.0708 4.07167 14.8374 4.47031 14.7339 5.06058C14.6958 5.27817 14.4885 5.42364 14.2709 5.38548C14.0533 5.34733 13.9078 5.14 13.946 4.92241C14.0753 4.18501 14.3883 3.5879 14.9151 3.18124C15.4369 2.77843 16.1199 2.6 16.9197 2.6C18.1639 2.6 19.0474 3.13402 19.6104 3.84821C20.1623 4.5482 20.4 5.41095 20.4 6.0938C20.4 7.39866 19.3887 8.73676 17.9382 9.17648C18.017 9.31219 18.1551 9.49584 18.3686 9.73125C18.5171 9.89488 18.5047 10.1478 18.3411 10.2963C18.1775 10.4447 17.9245 10.4324 17.7761 10.2687C17.5133 9.97903 17.3102 9.71302 17.1913 9.4766C17.0851 9.26533 16.9767 8.93484 17.1755 8.6453C17.2352 8.55838 17.3268 8.49854 17.4303 8.47879C18.7226 8.23248 19.6 7.08957 19.6 6.0938C19.6 5.57389 19.4129 4.88975 18.9822 4.34352C18.5628 3.8115 17.9061 3.4 16.9197 3.4C16.2324 3.4 15.742 3.55348 15.4039 3.8145Z" fill="#333333" class='xian'/>
<path fill-rule="evenodd" clip-rule="evenodd" d="M14.6965 4.81032C14.7966 5.00727 14.718 5.24805 14.5211 5.34811C14.1133 5.55528 13.8039 5.71905 13.5899 5.84043C13.4824 5.90138 13.4039 5.94892 13.3508 5.98403C13.3222 6.00294 13.3075 6.01411 13.3021 6.01824C13.1622 6.16996 12.9269 6.1911 12.7616 6.06158C12.5877 5.92532 12.5572 5.67389 12.6935 5.50001C12.7565 5.41968 12.8517 5.35503 12.9093 5.3169C12.9843 5.26727 13.0807 5.2095 13.1952 5.14457C13.425 5.01419 13.7472 4.84396 14.1587 4.63488C14.3557 4.53482 14.5965 4.61337 14.6965 4.81032Z" fill="#333333" class='xian'/>
<path fill-rule="evenodd" clip-rule="evenodd" d="M12.9742 7.84349C13.1538 7.71478 13.4037 7.75599 13.5324 7.93553C13.5428 7.95012 13.5664 7.97469 13.6453 8.00065C13.732 8.02917 13.8424 8.04611 14.0029 8.0672C14.0188 8.06928 14.0353 8.07139 14.0522 8.07357C14.3353 8.10988 14.7619 8.1646 15.1039 8.43598L15.1039 8.43599C15.5308 8.77486 15.8261 9.27087 16.0137 9.88273C16.0785 10.0939 15.9598 10.3177 15.7485 10.3824C15.5373 10.4472 15.3136 10.3285 15.2489 10.1173C15.0935 9.61066 14.8714 9.27286 14.6065 9.06259C14.45 8.93837 14.2359 8.90467 13.8988 8.86039C13.7503 8.84088 13.565 8.81643 13.3953 8.76059C13.2177 8.70219 13.024 8.59945 12.8822 8.40164C12.7535 8.2221 12.7947 7.97221 12.9742 7.84349Z" fill="#333333" class='xian'/>
<path fill-rule="evenodd" clip-rule="evenodd" d="M13.7492 6.12942C13.9547 6.21045 14.0556 6.44274 13.9746 6.64826C13.929 6.76375 13.866 6.89474 13.8072 7.01703C13.7987 7.03477 13.7902 7.05233 13.7819 7.06963C13.7126 7.21424 13.6474 7.35396 13.5973 7.48838C13.5464 7.62486 13.5194 7.73448 13.5143 7.81811C13.5094 7.89802 13.5258 7.92623 13.5324 7.93553C13.6611 8.11508 13.6199 8.36497 13.4404 8.49368C13.2608 8.62239 13.0109 8.58118 12.8822 8.40163C12.7366 8.19852 12.7035 7.96976 12.7158 7.76931C12.7278 7.57256 12.7845 7.37841 12.8477 7.20885C12.9117 7.03724 12.9911 6.86867 13.0605 6.72387C13.0694 6.7052 13.0782 6.68706 13.0866 6.6694C13.1476 6.54251 13.1963 6.44107 13.2303 6.35483C13.3113 6.14932 13.5436 6.0484 13.7492 6.12942Z" fill="#333333" class='xian'/>
<path fill-rule="evenodd" clip-rule="evenodd" d="M13.3579 5.55212C13.3328 5.50689 13.2984 5.46582 13.2551 5.43189C13.0812 5.29563 12.8298 5.32614 12.6935 5.50003C12.6339 5.57609 12.5907 5.68304 12.6017 5.80717C12.6116 5.91888 12.6618 5.99902 12.6956 6.04276C12.7568 6.12171 12.8367 6.17242 12.8707 6.19378C12.9107 6.21891 12.9569 6.24455 12.9943 6.2653C12.9979 6.2673 13.0014 6.26926 13.0049 6.27118C13.0483 6.2953 13.0869 6.31704 13.1235 6.33982C13.1675 6.36726 13.1962 6.389 13.2143 6.4046C13.1661 6.59656 13.2666 6.79913 13.4557 6.87367C13.6612 6.9547 13.8935 6.85379 13.9745 6.64827C14.0731 6.39817 14.0246 6.16416 13.9039 5.9845C13.7998 5.82952 13.65 5.72531 13.5467 5.66091C13.4912 5.62633 13.4366 5.59587 13.3935 5.5719L13.3912 5.57062C13.3789 5.56378 13.3679 5.55766 13.3579 5.55212Z" fill="#333333" class='xian'/>
<path fill-rule="evenodd" clip-rule="evenodd" d="M15.5844 4.36563C15.4067 4.91462 15.4237 5.30921 15.6353 5.54941C15.847 5.78963 16.144 6.02707 16.6842 6.13157C16.5144 6.84346 17.1556 6.95589 17.1556 6.95589C17.6053 7.05262 17.9505 6.62032 17.9505 6.62032C18.6024 6.85242 18.9725 6.71704 19.0608 6.21418C19.1933 5.45988 18.9247 4.92106 18.6631 4.81729C18.4976 4.80665 18.2359 4.87678 18.0851 4.52639C17.8209 4.15844 17.3626 4.11492 17.1556 4.10161C16.9025 4.0994 16.9173 3.8698 16.367 3.86311C15.948 3.91795 15.6871 4.08545 15.5844 4.36563Z" fill="#FEB8A5" class='mian'/>
<path fill-rule="evenodd" clip-rule="evenodd" d="M19.1041 5.96795C19.24 5.99183 19.3309 6.12143 19.307 6.25742C19.2527 6.56687 19.0968 6.82014 18.8029 6.92764C18.5348 7.02571 18.2101 6.97813 17.8666 6.85583C17.7366 6.80952 17.6687 6.66653 17.715 6.53646C17.7613 6.40639 17.9043 6.33848 18.0344 6.3848C18.3428 6.4946 18.5291 6.49538 18.6311 6.45807C18.7073 6.4302 18.7806 6.36435 18.8146 6.17094C18.8385 6.03495 18.9681 5.94407 19.1041 5.96795Z" fill="#333333" class='xian'/>
<path fill-rule="evenodd" clip-rule="evenodd" d="M18.4308 4.72511C18.4817 4.59677 18.627 4.534 18.7553 4.58491C18.9844 4.67578 19.1524 4.91812 19.2462 5.19042C19.3445 5.47614 19.3799 5.84263 19.3071 6.25743C19.2832 6.39342 19.1536 6.4843 19.0176 6.46041C18.8816 6.43653 18.7907 6.30692 18.8146 6.17093C18.8742 5.83143 18.8416 5.55137 18.7734 5.35316C18.7005 5.14153 18.6035 5.06258 18.571 5.04968C18.4426 4.99876 18.3798 4.85345 18.4308 4.72511Z" fill="#333333" class='xian'/>
<path fill-rule="evenodd" clip-rule="evenodd" d="M17.9863 4.29675C18.1131 4.24217 18.2602 4.30074 18.3148 4.42757C18.3408 4.48803 18.3657 4.51699 18.3817 4.53115C18.3967 4.54451 18.4122 4.55222 18.4322 4.55747C18.4549 4.56346 18.4837 4.5663 18.5262 4.56664C18.5337 4.5667 18.5448 4.56658 18.558 4.56643C18.5933 4.56606 18.6435 4.56552 18.6792 4.56781C18.817 4.57667 18.9215 4.69555 18.9126 4.83333C18.9038 4.97112 18.7849 5.07564 18.6471 5.06678C18.6285 5.06559 18.6146 5.06583 18.5937 5.0662C18.5767 5.0665 18.5549 5.06688 18.5222 5.06662C18.4643 5.06616 18.3872 5.06265 18.305 5.04104C18.1204 4.9925 17.9591 4.86595 17.8555 4.62521C17.8009 4.49838 17.8595 4.35133 17.9863 4.29675Z" fill="#333333" class='xian'/>
<path fill-rule="evenodd" clip-rule="evenodd" d="M16.6148 3.83067C16.6328 3.96758 16.5363 4.09308 16.3994 4.111C16.0323 4.15904 15.8796 4.2913 15.8206 4.44761C15.6503 4.97644 15.705 5.25031 15.8229 5.38415C15.9142 5.48774 15.9042 5.64572 15.8006 5.737C15.697 5.82827 15.539 5.81828 15.4477 5.71468C15.1428 5.36855 15.1634 4.85454 15.3465 4.28866L15.3494 4.27951L15.3496 4.27957C15.4971 3.87729 15.8667 3.67644 16.3345 3.61523C16.4714 3.59731 16.5969 3.69377 16.6148 3.83067Z" fill="#333333" class='xian'/>
<path fill-rule="evenodd" clip-rule="evenodd" d="M15.47 5.36182C15.5736 5.27055 15.7316 5.28055 15.8229 5.38415C16.0045 5.59034 16.2548 5.79387 16.7317 5.88612C16.8673 5.91234 16.9559 6.04349 16.9297 6.17905C16.9034 6.31461 16.7723 6.40324 16.6367 6.37702C16.0332 6.26028 15.6893 5.98893 15.4477 5.71467C15.3564 5.61107 15.3664 5.4531 15.47 5.36182Z" fill="#333333" class='xian'/>
<path fill-rule="evenodd" clip-rule="evenodd" d="M17.9505 6.62031C17.7551 6.46432 17.7552 6.46425 17.7552 6.46418L17.7478 6.47281C17.7406 6.48089 17.729 6.49344 17.7136 6.50874C17.6823 6.53973 17.6372 6.57988 17.582 6.61702C17.4682 6.69372 17.3398 6.73978 17.2082 6.71148C17.0732 6.68244 16.9403 6.76833 16.9112 6.90331C16.8822 7.0383 16.9681 7.17126 17.1031 7.2003C17.4212 7.26873 17.6902 7.147 17.8614 7.03173C17.9487 6.97289 18.018 6.91101 18.0655 6.86396C18.0894 6.84024 18.1084 6.81977 18.1218 6.80459C18.1286 6.79698 18.134 6.79066 18.138 6.78588L18.143 6.77986L18.1447 6.77777L18.1453 6.77696C18.1454 6.77688 18.1459 6.77631 17.9505 6.62031Z" fill="#333333" class='xian'/>
<path fill-rule="evenodd" clip-rule="evenodd" d="M16.7423 5.8884C16.8766 5.92044 16.9595 6.05529 16.9274 6.18959C16.8938 6.33077 16.9044 6.42345 16.9239 6.48291C16.9433 6.54226 16.9771 6.58565 17.0173 6.61945C17.059 6.65459 17.1067 6.67833 17.1463 6.69327C17.1655 6.70053 17.1813 6.70512 17.1912 6.70769L17.2009 6.71C17.3355 6.73497 17.4256 6.86389 17.4019 6.99907C17.378 7.13506 17.2485 7.22598 17.1125 7.20213C17.1129 7.20221 17.1845 6.79106 17.1125 7.20213L17.1113 7.20192L17.1098 7.20166L17.1062 7.20097L17.0961 7.19891C17.0882 7.19721 17.0779 7.19484 17.0656 7.19165C17.0411 7.18529 17.0081 7.17554 16.9699 7.16113C16.8946 7.13275 16.7926 7.08389 16.6952 7.00193C16.5963 6.91863 16.5017 6.80044 16.4487 6.63849C16.3957 6.47665 16.3899 6.28832 16.4411 6.07355C16.4731 5.93925 16.608 5.85635 16.7423 5.8884Z" fill="#333333" class='xian'/>
<path fill-rule="evenodd" clip-rule="evenodd" d="M17.1365 3.8504C17.1422 3.85159 17.1482 3.85154 17.1578 3.85162L17.1717 3.85174L17.1717 3.85213C17.3746 3.86517 17.9491 3.90828 18.2882 4.38059C18.3687 4.49275 18.3431 4.64895 18.2309 4.72947C18.1188 4.80999 17.9626 4.78434 17.882 4.67218C17.6946 4.41103 17.357 4.36549 17.1455 4.35148C16.9657 4.34747 16.8399 4.26253 16.7725 4.21704C16.7611 4.20936 16.7514 4.2028 16.7434 4.19795C16.6859 4.16318 16.5959 4.11591 16.364 4.11309C16.2259 4.11141 16.1154 3.99813 16.117 3.86007C16.1187 3.72201 16.232 3.61145 16.3701 3.61313C16.6885 3.617 16.8662 3.68787 17.0022 3.77013C17.1049 3.83225 17.1196 3.84685 17.1365 3.8504Z" fill="#333333" class='xian'/>
<path fill-rule="evenodd" clip-rule="evenodd" d="M17.4739 6.97357C17.5176 7.10456 17.4468 7.24613 17.3158 7.2898C17.1088 7.3588 16.9419 7.5139 16.8107 7.7036C16.6799 7.8926 16.5972 8.09824 16.5538 8.23396C16.5118 8.36548 16.3711 8.43805 16.2396 8.39603C16.1081 8.35402 16.0355 8.21334 16.0775 8.08182C16.1304 7.91631 16.2319 7.66143 16.3995 7.41916C16.5666 7.17758 16.8121 6.93066 17.1577 6.81545C17.2887 6.77179 17.4303 6.84258 17.4739 6.97357Z" fill="#333333" class='xian'/>
<path d="M17.811 5.55236C17.7201 4.78973 16.665 4.37414 16.2928 4.49589C15.9206 4.61763 16.3291 4.80092 16.567 4.8499L16.5672 4.84993C16.805 4.8989 17.0428 4.94787 17.1282 5.01502C17.2135 5.08219 17.4696 5.28369 17.4878 5.43621C17.506 5.58874 17.0919 5.47628 16.9541 5.40191C16.8164 5.32754 16.4873 5.4782 16.5727 5.54537C16.658 5.61253 17.152 5.86301 17.3045 5.84482C17.457 5.82662 17.5424 5.89379 17.7131 6.02812C17.8838 6.16245 18.2742 6.19323 18.256 6.04071C18.2378 5.88819 17.874 5.64798 17.811 5.55236Z" fill="#92C0C5" class='mian'/>
<path fill-rule="evenodd" clip-rule="evenodd" d="M16.6527 4.6C16.5072 4.56783 16.3921 4.56861 16.3239 4.59093C16.2937 4.6008 16.2727 4.61009 16.2584 4.61792C16.2584 4.61792 16.2613 4.62032 16.263 4.62159C16.3305 4.67474 16.4745 4.72874 16.5872 4.75196L16.5893 4.75238C16.7068 4.77658 16.8281 4.80155 16.9308 4.82907C16.9825 4.84294 17.0315 4.85797 17.0743 4.8746C17.1158 4.89076 17.1573 4.91067 17.19 4.93644C17.2329 4.97017 17.3229 5.04102 17.4043 5.1233C17.4452 5.16468 17.4862 5.21118 17.5189 5.25961C17.5506 5.30667 17.5798 5.36343 17.5871 5.42437C17.5922 5.46694 17.5824 5.51122 17.5513 5.54704C17.5231 5.57966 17.4861 5.59497 17.4561 5.60259C17.3974 5.61746 17.3266 5.61263 17.2641 5.60297C17.1362 5.58316 16.9871 5.53333 16.9066 5.4899C16.8973 5.48484 16.874 5.47919 16.834 5.48304C16.7963 5.48668 16.7546 5.49781 16.718 5.51296L16.7128 5.51514C16.7239 5.52134 16.7359 5.52797 16.7489 5.53498C16.8076 5.5665 16.8799 5.60248 16.9543 5.63586C17.029 5.66937 17.104 5.69944 17.1681 5.71985C17.2375 5.74191 17.2782 5.74724 17.2927 5.74552C17.4867 5.72238 17.6033 5.81433 17.76 5.9378C17.765 5.94168 17.7699 5.94559 17.7749 5.94953C17.8393 6.00015 17.9574 6.03732 18.0601 6.04209C18.1013 6.04401 18.1316 6.0402 18.1503 6.03488C18.1439 6.02204 18.1319 6.00297 18.1107 5.97729C18.0778 5.93758 18.033 5.89417 17.9834 5.8495C17.9537 5.82275 17.9259 5.7987 17.8987 5.7751C17.8784 5.75758 17.8585 5.74031 17.8382 5.72237C17.7975 5.68627 17.752 5.64444 17.7275 5.60736L17.7146 5.58764L17.7118 5.5642C17.6716 5.22747 17.4159 4.95558 17.1077 4.77928C16.9553 4.69208 16.7951 4.63149 16.6527 4.6ZM17.9065 5.51174C17.8452 5.10031 17.5346 4.79306 17.207 4.60568C17.0378 4.50888 16.8588 4.44074 16.6958 4.40471C16.536 4.36937 16.3796 4.36229 16.2617 4.40084C16.2101 4.41773 16.1657 4.43762 16.1307 4.46207C16.0959 4.48636 16.0631 4.52045 16.0492 4.56744C16.0346 4.617 16.0464 4.66278 16.0663 4.6978C16.0851 4.73097 16.1126 4.75773 16.1393 4.77877C16.2425 4.85994 16.4217 4.92208 16.5469 4.94785C16.6666 4.9725 16.7826 4.99641 16.879 5.02225C16.9271 5.03514 16.9684 5.04801 17.0017 5.06097C17.0362 5.07441 17.0564 5.0858 17.0663 5.09361C17.1091 5.12728 17.19 5.19101 17.2621 5.26392C17.2981 5.30037 17.3299 5.33704 17.353 5.3714C17.3634 5.38682 17.3711 5.40036 17.3767 5.412C17.3563 5.41243 17.3289 5.41061 17.2948 5.40532C17.1857 5.38844 17.059 5.34486 17.0017 5.31391C16.9422 5.28179 16.8727 5.27839 16.8148 5.28396C16.7548 5.28976 16.6937 5.30654 16.6415 5.32816C16.5914 5.34888 16.539 5.37835 16.5039 5.41577C16.487 5.43386 16.4639 5.46459 16.4595 5.50636C16.4541 5.5568 16.4781 5.59821 16.5108 5.62396C16.5398 5.64676 16.5938 5.67865 16.6542 5.71112C16.717 5.74488 16.7936 5.78298 16.8725 5.81834C16.951 5.85358 17.0335 5.8869 17.1075 5.91044C17.1763 5.93233 17.2545 5.95149 17.3164 5.94411C17.4213 5.93159 17.4742 5.96736 17.6513 6.10671C17.7577 6.19042 17.9201 6.23581 18.0508 6.24188C18.116 6.24491 18.1865 6.23891 18.2438 6.21322C18.2733 6.19998 18.3047 6.17907 18.3274 6.14609C18.3513 6.11125 18.3603 6.07039 18.3553 6.02887C18.3471 5.96019 18.3043 5.89748 18.2647 5.84972C18.2223 5.79851 18.1688 5.74729 18.1173 5.70089C18.0879 5.67444 18.0555 5.64634 18.0258 5.62063C18.0056 5.60314 17.9867 5.58675 17.9709 5.57273C17.9397 5.54504 17.9188 5.52506 17.9065 5.51174Z" fill="#333333" class='xian'/>
<path d="M5.65588 20.8V17.8485H10.2471V20.8H5.65588Z" fill="#FFD872" class='mian'/>
<path d="M5 15.397V16.8647H10.903V15.397C10.903 15.1209 10.6791 14.897 10.403 14.897H5.5C5.22386 14.897 5 15.1209 5 15.397Z" fill="#EA972E" class='mian'/>
<path fill-rule="evenodd" clip-rule="evenodd" d="M5.49998 15.297C5.44475 15.297 5.39998 15.3418 5.39998 15.397V16.4647H10.503V15.397C10.503 15.3418 10.4582 15.297 10.403 15.297H5.49998ZM4.59998 15.397C4.59998 14.9 5.00292 14.497 5.49998 14.497H10.403C10.9 14.497 11.303 14.9 11.303 15.397V16.8647C11.303 17.0856 11.1239 17.2647 10.903 17.2647H4.99998C4.77906 17.2647 4.59998 17.0856 4.59998 16.8647V15.397Z" fill="#333333" class='xian'/>
<path fill-rule="evenodd" clip-rule="evenodd" d="M5.09192 16.8647C5.09192 16.6438 5.27101 16.4647 5.49192 16.4647H10.4111C10.632 16.4647 10.8111 16.6438 10.8111 16.8647V20.8C10.8111 21.0209 10.632 21.2 10.4111 21.2H5.49192C5.27101 21.2 5.09192 21.0209 5.09192 20.8V16.8647ZM5.89192 17.2647V20.4H10.0111V17.2647H5.89192Z" fill="#333333" class='xian'/>
<path d="M6.31171 14.2V14.897H9.59114V14.2C9.59114 14.0895 9.5016 14 9.39114 14H6.51171C6.40125 14 6.31171 14.0895 6.31171 14.2Z" fill="#EA972E" class='mian'/>
<path fill-rule="evenodd" clip-rule="evenodd" d="M6.71174 14.4V14.497H9.19118V14.4H6.71174ZM5.91174 14.2C5.91174 13.8686 6.18037 13.6 6.51174 13.6H9.39118C9.72255 13.6 9.99118 13.8686 9.99118 14.2V14.897C9.99118 15.1179 9.81209 15.297 9.59118 15.297H6.31174C6.09083 15.297 5.91174 15.1179 5.91174 14.897V14.2Z" fill="#333333" class='xian'/>
<path fill-rule="evenodd" clip-rule="evenodd" d="M5.9838 15.4809C6.20472 15.4809 6.3838 15.6599 6.3838 15.8809V16.7007C6.3838 16.9216 6.20472 17.1007 5.9838 17.1007C5.76289 17.1007 5.5838 16.9216 5.5838 16.7007V15.8809C5.5838 15.6599 5.76289 15.4809 5.9838 15.4809Z" fill="#333333" class='xian'/>
<path fill-rule="evenodd" clip-rule="evenodd" d="M7.29557 15.4809C7.51648 15.4809 7.69557 15.6599 7.69557 15.8809V16.7007C7.69557 16.9216 7.51648 17.1007 7.29557 17.1007C7.07465 17.1007 6.89557 16.9216 6.89557 16.7007V15.8809C6.89557 15.6599 7.07465 15.4809 7.29557 15.4809Z" fill="#333333" class='xian'/>
<path fill-rule="evenodd" clip-rule="evenodd" d="M8.60734 15.4809C8.82825 15.4809 9.00734 15.6599 9.00734 15.8809V16.7007C9.00734 16.9216 8.82825 17.1007 8.60734 17.1007C8.38642 17.1007 8.20734 16.9216 8.20734 16.7007V15.8809C8.20734 15.6599 8.38642 15.4809 8.60734 15.4809Z" fill="#333333" class='xian'/>
<path fill-rule="evenodd" clip-rule="evenodd" d="M9.9191 15.4809C10.14 15.4809 10.3191 15.6599 10.3191 15.8809V16.7007C10.3191 16.9216 10.14 17.1007 9.9191 17.1007C9.69819 17.1007 9.5191 16.9216 9.5191 16.7007V15.8809C9.5191 15.6599 9.69819 15.4809 9.9191 15.4809Z" fill="#333333" class='xian'/>
<path d="M14 17.7692C14 16.2823 15.2054 15.0769 16.6923 15.0769V15.0769C18.1792 15.0769 19.3846 16.2823 19.3846 17.7692V20.4615L18.6535 20.6078C17.3588 20.8667 16.0258 20.8667 14.7311 20.6078L14 20.4615V17.7692Z" fill="#FFE9ED" class='mian'/>
<path fill-rule="evenodd" clip-rule="evenodd" d="M13.6 17.7692C13.6 16.0614 14.9844 14.6769 16.6923 14.6769C18.4001 14.6769 19.7846 16.0614 19.7846 17.7692V20.4615C19.7846 20.6522 19.65 20.8164 19.463 20.8538L18.7319 21C17.3855 21.2693 15.9991 21.2693 14.6527 21L13.9215 20.8538C13.7346 20.8164 13.6 20.6522 13.6 20.4615V17.7692ZM16.6923 15.4769C15.4263 15.4769 14.4 16.5032 14.4 17.7692V20.1336L14.8096 20.2155C16.0524 20.4641 17.3322 20.4641 18.575 20.2155L18.9846 20.1336V17.7692C18.9846 16.5032 17.9583 15.4769 16.6923 15.4769Z" fill="#333333" class='xian'/>
<path fill-rule="evenodd" clip-rule="evenodd" d="M14.6769 14.8C14.6769 14.1373 15.2141 13.6 15.8769 13.6H17.5076C18.1704 13.6 18.7076 14.1373 18.7076 14.8V18.8951C18.7076 19.0713 18.5923 19.2268 18.4237 19.2779L17.9683 19.4159C17.1363 19.668 16.2482 19.668 15.4162 19.4159L14.9609 19.2779C14.7922 19.2268 14.6769 19.0713 14.6769 18.8951V14.8ZM15.8769 14.4C15.656 14.4 15.4769 14.5791 15.4769 14.8V18.5984L15.6482 18.6503C16.329 18.8566 17.0556 18.8566 17.7363 18.6503L17.9076 18.5984V14.8C17.9076 14.5791 17.7286 14.4 17.5076 14.4H15.8769Z" fill="#333333" class='xian'/>
<path d="M7.24713 9.94778C7.65715 10.0188 8.07676 10.0174 8.48639 9.94358C9.82278 9.70281 10.7282 8.34905 10.5734 7L9.47208 4.5C8.71482 3.54295 7.85488 3 7.85488 3C7.85488 3 5.21282 4.53811 5.01205 7C4.89994 8.37479 5.88801 9.71241 7.24713 9.94778Z" fill="#CA3A26" class='mian'/>
<path fill-rule="evenodd" clip-rule="evenodd" d="M8.06841 2.66177L7.85487 3L7.65362 2.65431C7.78247 2.5793 7.94235 2.58218 8.06841 2.66177ZM7.8458 3.48133C7.92264 3.53809 8.01762 3.61115 8.12499 3.6997C8.41923 3.94236 8.80178 4.29751 9.15839 4.7482L9.78575 4.2518C9.38509 3.74543 8.95904 3.35059 8.63399 3.08251C8.47103 2.94811 8.33229 2.84462 8.23313 2.77399C8.18353 2.73866 8.14373 2.71148 8.11567 2.69271C8.10163 2.68332 8.09052 2.67603 8.08257 2.67086L8.07303 2.66471L8.0701 2.66284L8.06841 2.66177C8.06834 2.66173 8.06841 2.66177 7.85487 3C7.65362 2.65431 7.65375 2.65423 7.65362 2.65431L7.65224 2.65512L7.64989 2.65649L7.64238 2.66095L7.61643 2.67665C7.59443 2.6901 7.56323 2.70953 7.52408 2.73479C7.44583 2.78528 7.33557 2.85922 7.20343 2.95545C6.93971 3.1475 6.58587 3.43048 6.22453 3.79532C5.50882 4.51797 4.72474 5.60174 4.61336 6.96749C4.48526 8.53832 5.60583 10.0695 7.17887 10.3419C7.63494 10.4209 8.10165 10.4193 8.5573 10.3372C10.1232 10.0551 11.147 8.49025 10.9708 6.95441L10.176 7.04559C10.3093 8.20785 9.52234 9.35049 8.41546 9.54991C8.05183 9.61543 7.67933 9.61667 7.31537 9.55364C6.17015 9.35532 5.31459 8.21127 5.41071 7.03251C5.5001 5.93637 6.13744 5.02013 6.79294 4.35826C7.11722 4.03084 7.43644 3.77542 7.67438 3.60214C7.73806 3.55577 7.7957 3.51543 7.8458 3.48133Z" fill="#333333" class='xian'/>
<path d="M10.0989 4.05C10.0989 4.05 10.9189 4.56769 11.2038 5.42172C11.4725 6.22732 10.8388 7.16731 9.99153 7.1088V7.1088C9.28596 7.06007 8.74968 6.33973 8.87568 5.64379C9.05411 4.65825 10.0989 4.05 10.0989 4.05Z" fill="#CA3A26" class='mian'/>
<path fill-rule="evenodd" clip-rule="evenodd" d="M10.3125 3.71178L10.099 4.05L9.89772 3.70431C10.0266 3.6293 10.1864 3.63218 10.3125 3.71178ZM10.0894 4.54253C10.1423 4.58679 10.202 4.63983 10.2643 4.70105C10.4804 4.91314 10.7094 5.20382 10.8244 5.5483C10.9136 5.81588 10.8562 6.1213 10.6889 6.35933C10.523 6.59549 10.2777 6.72761 10.0191 6.70975C9.56244 6.67821 9.18377 6.18759 9.26932 5.71505C9.33731 5.33956 9.5772 5.01255 9.83289 4.76431C9.92435 4.67552 10.0135 4.60106 10.0894 4.54253ZM9.89772 3.70431C9.89783 3.70425 9.89772 3.70431 10.099 4.05C10.3125 3.71178 10.3124 3.71171 10.3125 3.71178L10.3134 3.71236L10.3147 3.71315L10.318 3.7153L10.3282 3.72195C10.3365 3.72741 10.3478 3.73493 10.3616 3.74448C10.3893 3.76356 10.4276 3.79082 10.4738 3.82591C10.5657 3.89589 10.6903 3.99816 10.8248 4.13015C11.0899 4.39041 11.4133 4.78559 11.5832 5.29513C11.7627 5.83315 11.6377 6.40053 11.3435 6.81927C11.0479 7.23988 10.5526 7.5485 9.96401 7.50785C9.00956 7.44193 8.31568 6.49186 8.48212 5.57253C8.59257 4.96248 8.96429 4.49259 9.27562 4.19033C9.4345 4.03607 9.58658 3.91679 9.69944 3.83566C9.75609 3.79493 9.80347 3.76337 9.83769 3.74142C9.85482 3.73043 9.8687 3.72181 9.87885 3.71561L9.89124 3.70813L9.89524 3.70577L9.89667 3.70492L9.89772 3.70431Z" fill="#333333" class='xian'/>
<path fill-rule="evenodd" clip-rule="evenodd" d="M6.69995 7.725C6.69995 7.50408 6.87904 7.325 7.09995 7.325H8.49995C8.72086 7.325 8.89995 7.50408 8.89995 7.725C8.89995 7.94591 8.72086 8.125 8.49995 8.125H7.09995C6.87904 8.125 6.69995 7.94591 6.69995 7.725Z" fill="#333333" class='xian'/>
<path fill-rule="evenodd" clip-rule="evenodd" d="M7.40007 8.425L7.40007 7.025C7.40007 6.80409 7.57916 6.625 7.80007 6.625C8.02099 6.625 8.20007 6.80409 8.20007 7.025L8.20007 8.425C8.20007 8.64591 8.02099 8.825 7.80007 8.825C7.57916 8.825 7.40007 8.64591 7.40007 8.425Z" fill="#333333" class='xian'/>
</svg>
