<svg width="24" height="24" viewBox="0 0 24 24" fill="none" xmlns="http://www.w3.org/2000/svg">
<path fill-rule="evenodd" clip-rule="evenodd" d="M1.25 2C1.25 1.58579 1.58579 1.25 2 1.25H4C4.41421 1.25 4.75 1.58579 4.75 2C4.75 2.41421 4.41421 2.75 4 2.75H2.75V4C2.75 4.41421 2.41421 4.75 2 4.75C1.58579 4.75 1.25 4.41421 1.25 4V2Z" fill="#666666"  class='xian'/>
<path fill-rule="evenodd" clip-rule="evenodd" d="M22.75 22C22.75 22.4142 22.4142 22.75 22 22.75H20C19.5858 22.75 19.25 22.4142 19.25 22C19.25 21.5858 19.5858 21.25 20 21.25H21.25V20C21.25 19.5858 21.5858 19.25 22 19.25C22.4142 19.25 22.75 19.5858 22.75 20V22Z" fill="#666666"  class='xian'/>
<path fill-rule="evenodd" clip-rule="evenodd" d="M22.75 2C22.75 1.58579 22.4142 1.25 22 1.25H20C19.5858 1.25 19.25 1.58579 19.25 2C19.25 2.41421 19.5858 2.75 20 2.75H21.25V4C21.25 4.41421 21.5858 4.75 22 4.75C22.4142 4.75 22.75 4.41421 22.75 4V2Z" fill="#666666"  class='xian'/>
<path fill-rule="evenodd" clip-rule="evenodd" d="M1.25 22C1.25 22.4142 1.58579 22.75 2 22.75H4C4.41421 22.75 4.75 22.4142 4.75 22C4.75 21.5858 4.41421 21.25 4 21.25H2.75V20C2.75 19.5858 2.41421 19.25 2 19.25C1.58579 19.25 1.25 19.5858 1.25 20V22Z" fill="#666666"  class='xian'/>
<path fill-rule="evenodd" clip-rule="evenodd" d="M3.25 12C3.25 11.5858 3.58579 11.25 4 11.25H21C21.4142 11.25 21.75 11.5858 21.75 12C21.75 12.4142 21.4142 12.75 21 12.75H4C3.58579 12.75 3.25 12.4142 3.25 12Z" fill="#666666"  class='xian'/>
<path d="M8 3.85477H10V4.85477L11.5 6V7.5L9.5 9L7.5 9.5L7 9L5.5 9.5L4.5 8.5L6.5 4.85477L8 3.85477Z" fill="#7A8588" class='mian'/>
<path fill-rule="evenodd" clip-rule="evenodd" d="M5.24811 7.55347C4.86778 7.83499 4.78768 8.37153 5.06921 8.75187C5.35073 9.1322 5.88727 9.2123 6.2676 8.93077C6.64793 8.64925 6.72803 8.11271 6.44651 7.73238L7.08952 7.25642C7.63391 7.99187 7.47902 9.0294 6.74356 9.57378C6.00811 10.1182 4.97058 9.96328 4.42619 9.22783C3.88181 8.49237 4.0367 7.45485 4.77215 6.91046C5.02415 6.72393 5.31276 6.61913 5.60472 6.59224L5.67808 7.38887C5.52773 7.40272 5.37921 7.45643 5.24811 7.55347Z" fill="#333333" class='xian'/>
<path fill-rule="evenodd" clip-rule="evenodd" d="M5.76752 7.6892C5.47569 7.6892 5.23912 7.92577 5.23912 8.21759C5.23912 8.50941 5.47569 8.74598 5.76752 8.74598C6.05934 8.74598 6.29591 8.50941 6.29591 8.21759C6.29591 7.92577 6.05934 7.6892 5.76752 7.6892ZM5.03912 8.21759C5.03912 7.81531 5.36524 7.4892 5.76752 7.4892C6.1698 7.4892 6.49591 7.81531 6.49591 8.21759C6.49591 8.61987 6.1698 8.94598 5.76752 8.94598C5.36524 8.94598 5.03912 8.61987 5.03912 8.21759Z" fill="#333333" class='xian'/>
<path fill-rule="evenodd" clip-rule="evenodd" d="M9.99994 5.94085C10.347 5.81514 10.7493 5.92512 10.9801 6.23695C11.2617 6.61728 11.1816 7.15385 10.8012 7.43539L8.78112 8.93071C8.60356 9.06215 8.56617 9.31264 8.6976 9.4902C8.82904 9.66776 9.07953 9.70515 9.25709 9.57372L11.2772 8.07839C12.0127 7.53398 12.1676 6.4964 11.6231 5.76095C11.236 5.2381 10.5997 5.00872 9.99994 5.11544V5.94085Z" fill="#333333" class='xian'/>
<path fill-rule="evenodd" clip-rule="evenodd" d="M7.50614 7.85603C7.36491 8.13673 7.38398 8.48346 7.58265 8.75187C7.86417 9.1322 8.40071 9.2123 8.78105 8.93077C9.16138 8.64925 9.24148 8.11271 8.95995 7.73238C8.79611 7.51104 8.54631 7.39119 8.28948 7.38547L8.30728 6.58567C8.80072 6.59665 9.28576 6.82788 9.60296 7.25642C10.1474 7.99187 9.99246 9.0294 9.25701 9.57378C8.52155 10.1182 7.48403 9.96328 6.93964 9.22783C6.55445 8.70745 6.51984 8.03638 6.79149 7.49647L7.50614 7.85603Z" fill="#333333" class='xian'/>
<path fill-rule="evenodd" clip-rule="evenodd" d="M8.28101 7.68919C7.98918 7.68919 7.75261 7.92576 7.75261 8.21759C7.75261 8.50941 7.98918 8.74598 8.28101 8.74598C8.57283 8.74598 8.8094 8.50941 8.8094 8.21759C8.8094 7.92576 8.57283 7.68919 8.28101 7.68919ZM7.55261 8.21759C7.55261 7.81531 7.87872 7.48919 8.28101 7.48919C8.68329 7.48919 9.0094 7.81531 9.0094 8.21759C9.0094 8.61987 8.68329 8.94598 8.28101 8.94598C7.87872 8.94598 7.55261 8.61987 7.55261 8.21759Z" fill="#333333" class='xian'/>
<path fill-rule="evenodd" clip-rule="evenodd" d="M9.58967 4.38222C9.30814 4.00193 8.77163 3.92185 8.39131 4.20336L6.37106 5.69877C6.1935 5.8302 5.94301 5.79281 5.81158 5.61524C5.68014 5.43768 5.71754 5.18719 5.8951 5.05576L7.91535 3.56035C8.65077 3.01599 9.68824 3.17083 10.2327 3.90622C10.7771 4.64167 10.6223 5.67925 9.88677 6.22366L7.86664 7.71899C7.68908 7.85042 7.43859 7.81303 7.30716 7.63547C7.17572 7.45791 7.21312 7.20742 7.39068 7.07598L9.4108 5.58066C9.79115 5.29912 9.87123 4.76255 9.58967 4.38222Z" fill="#333333" class='xian'/>
<path fill-rule="evenodd" clip-rule="evenodd" d="M6.3711 5.69874C5.99077 5.98027 5.91067 6.51681 6.19219 6.89714C6.47372 7.27747 7.01026 7.35757 7.39059 7.07605C7.77092 6.79452 7.85102 6.25798 7.5695 5.87765C7.28797 5.49732 6.75143 5.41722 6.3711 5.69874ZM5.54918 7.3731C5.00479 6.63764 5.15968 5.60012 5.89514 5.05573C6.6306 4.51134 7.66812 4.66623 8.21251 5.40169C8.7569 6.13715 8.602 7.17467 7.86655 7.71906C7.13109 8.26345 6.09357 8.10855 5.54918 7.3731Z" fill="#333333" class='xian'/>
<path fill-rule="evenodd" clip-rule="evenodd" d="M6.8905 5.83446C6.59868 5.83446 6.36211 6.07103 6.36211 6.36286C6.36211 6.65468 6.59868 6.89125 6.8905 6.89125C7.18233 6.89125 7.41889 6.65468 7.41889 6.36286C7.41889 6.07103 7.18233 5.83446 6.8905 5.83446ZM6.16211 6.36286C6.16211 5.96058 6.48822 5.63446 6.8905 5.63446C7.29278 5.63446 7.61889 5.96058 7.61889 6.36286C7.61889 6.76514 7.29278 7.09125 6.8905 7.09125C6.48822 7.09125 6.16211 6.76514 6.16211 6.36286Z" fill="#333333" class='xian'/>
<path d="M9.3869 19.7717L9.29489 20.8758C9.28904 20.946 9.23033 21 9.15987 21H8.05436C7.9839 21 7.92519 20.946 7.91935 20.8758L7.82733 19.7717" fill="#808080" class='mian'/>
<path fill-rule="evenodd" clip-rule="evenodd" d="M7.79411 19.373C8.01426 19.3547 8.2076 19.5183 8.22595 19.7384L8.29775 20.6H8.91648L8.98828 19.7384C9.00662 19.5183 9.19996 19.3547 9.42011 19.373C9.64026 19.3914 9.80386 19.5847 9.78552 19.8049L9.69351 20.909L9.69351 20.909C9.67037 21.1866 9.43832 21.4 9.15987 21.4H8.05436C7.77595 21.4 7.54386 21.1866 7.52073 20.909C7.52073 20.909 7.52073 20.9089 7.52073 20.9089L7.42871 19.8049C7.41036 19.5847 7.57396 19.3914 7.79411 19.373Z" fill="#333333" class='xian'/>
<path d="M10.7856 17.7484C10.7856 18.6707 10.2095 19.4585 9.39759 19.7716H8.61781H7.83804C7.0261 19.4585 6.45007 18.6707 6.45007 17.7484C6.45007 16.5512 7.4206 15.5806 8.61781 15.5806C9.81503 15.5806 10.7856 16.5512 10.7856 17.7484Z" fill="#F9FFD3" class='mian'/>
<path fill-rule="evenodd" clip-rule="evenodd" d="M8.61779 15.9806C7.64149 15.9806 6.85005 16.7721 6.85005 17.7484C6.85005 18.4749 7.28846 19.0999 7.91643 19.3716H9.31914C9.94712 19.0999 10.3855 18.4749 10.3855 17.7484C10.3855 16.7721 9.59409 15.9806 8.61779 15.9806ZM6.05005 17.7484C6.05005 16.3303 7.19966 15.1806 8.61779 15.1806C10.0359 15.1806 11.1855 16.3303 11.1855 17.7484C11.1855 18.8415 10.5026 19.7742 9.5415 20.1449C9.49558 20.1626 9.44678 20.1716 9.39757 20.1716H7.83801C7.7888 20.1716 7.74 20.1626 7.69408 20.1449C6.73299 19.7742 6.05005 18.8415 6.05005 17.7484Z" fill="#333333" class='xian'/>
<path fill-rule="evenodd" clip-rule="evenodd" d="M8.53418 16.7097C8.53418 16.4888 8.71327 16.3097 8.93418 16.3097C9.59534 16.3097 10.1084 16.8602 10.1084 17.5106C10.1084 17.7315 9.92929 17.9106 9.70837 17.9106C9.48746 17.9106 9.30837 17.7315 9.30837 17.5106C9.30837 17.2763 9.12817 17.1097 8.93418 17.1097C8.71327 17.1097 8.53418 16.9306 8.53418 16.7097Z" fill="#333333" class='xian'/>
<path fill-rule="evenodd" clip-rule="evenodd" d="M8.61783 13.6C8.83875 13.6 9.01783 13.7791 9.01783 14V14.4516C9.01783 14.6725 8.83875 14.8516 8.61783 14.8516C8.39692 14.8516 8.21783 14.6725 8.21783 14.4516V14C8.21783 13.7791 8.39692 13.6 8.61783 13.6Z" fill="#333333" class='xian'/>
<path fill-rule="evenodd" clip-rule="evenodd" d="M8.61783 13.6C8.83875 13.6 9.01783 13.7791 9.01783 14V14.4516C9.01783 14.6725 8.83875 14.8516 8.61783 14.8516C8.39692 14.8516 8.21783 14.6725 8.21783 14.4516V14C8.21783 13.7791 8.39692 13.6 8.61783 13.6Z" fill="#333333" class='xian'/>
<path fill-rule="evenodd" clip-rule="evenodd" d="M10.9065 14.2132C11.0978 14.3237 11.1633 14.5683 11.0529 14.7597L10.8271 15.1508C10.7166 15.3421 10.472 15.4076 10.2807 15.2972C10.0893 15.1867 10.0238 14.9421 10.1343 14.7508L10.3601 14.3597C10.4705 14.1683 10.7152 14.1028 10.9065 14.2132Z" fill="#333333" class='xian'/>
<path fill-rule="evenodd" clip-rule="evenodd" d="M12.582 15.8887C12.6925 16.08 12.6269 16.3247 12.4356 16.4351L12.0445 16.6609C11.8532 16.7714 11.6085 16.7058 11.4981 16.5145C11.3876 16.3232 11.4532 16.0786 11.6445 15.9681L12.0356 15.7423C12.2269 15.6318 12.4716 15.6974 12.582 15.8887Z" fill="#333333" class='xian'/>
<path fill-rule="evenodd" clip-rule="evenodd" d="M6.3292 14.2132C6.52052 14.1028 6.76515 14.1683 6.87561 14.3597L7.10141 14.7508C7.21187 14.9421 7.14632 15.1867 6.955 15.2972C6.76369 15.4076 6.51905 15.3421 6.40859 15.1508L6.18279 14.7597C6.07233 14.5683 6.13788 14.3237 6.3292 14.2132Z" fill="#333333" class='xian'/>
<path fill-rule="evenodd" clip-rule="evenodd" d="M4.65361 15.8887C4.76407 15.6974 5.00871 15.6318 5.20002 15.7423L5.59113 15.9681C5.78245 16.0786 5.848 16.3232 5.73754 16.5145C5.62708 16.7058 5.38245 16.7714 5.19113 16.6609L4.80002 16.4351C4.60871 16.3247 4.54316 16.08 4.65361 15.8887Z" fill="#333333" class='xian'/>
<path d="M15.0001 4L16.5001 3.5L17 5H19L19.5 6.5L19 8H17.5L16.5 9.5L15 9L14 8L15.0001 6.5L14 5L15.0001 4Z" fill="#6D7394" class='mian'/>
<path fill-rule="evenodd" clip-rule="evenodd" d="M19.2869 8.14491C19.2153 8.27127 19.0808 8.3489 18.9356 8.34772L18.1432 8.34128L17.3508 8.33484C17.209 8.33369 17.0785 8.25761 17.0076 8.13485L16.2041 6.74303C16.1332 6.62027 16.1326 6.46918 16.2024 6.34585L16.5931 5.65638L16.9837 4.9669C17.0553 4.84054 17.1898 4.76291 17.335 4.76409L18.9198 4.77697C19.0616 4.77812 19.1921 4.8542 19.263 4.97696L20.0665 6.36878C20.1374 6.49154 20.138 6.64263 20.0682 6.76596L19.2869 8.14491ZM18.7068 7.54583L19.2593 6.57065L18.6845 5.57508L17.5638 5.56598L17.2891 6.05073L17.0113 6.54115L17.5861 7.53673L18.1497 7.54131L18.7068 7.54583Z" fill="#333333" class='xian'/>
<path fill-rule="evenodd" clip-rule="evenodd" d="M16.9207 9.51096C16.8491 9.63732 16.7146 9.71494 16.5694 9.71377L15.777 9.70733L14.9846 9.70089C14.8428 9.69974 14.7123 9.62366 14.6414 9.5009L13.8378 8.10907C13.767 7.98632 13.7664 7.83522 13.8362 7.7119L14.2269 7.02243L14.6175 6.33295C14.6891 6.20659 14.8235 6.12896 14.9688 6.13014L16.5536 6.14302C16.6953 6.14417 16.8259 6.22025 16.8968 6.343L17.7003 7.73483C17.7712 7.85758 17.7718 8.00868 17.702 8.13201L16.9207 9.51096ZM16.3406 8.91188L16.8931 7.9367L16.3183 6.94113L15.1976 6.93202L14.9229 7.41678L14.6451 7.9072L15.2198 8.90277L15.7835 8.90736L16.3406 8.91188Z" fill="#333333" class='xian'/>
<path d="M15.9936 6.86446C15.8161 6.55698 15.9214 6.16382 16.2289 5.9863C16.5364 5.80878 16.9295 5.91413 17.107 6.2216C17.2846 6.52907 17.1792 6.92224 16.8717 7.09976C16.5643 7.27728 16.1711 7.17193 15.9936 6.86446Z" fill="#333333" class='xian'/>
<path d="M13.6274 8.23051C13.4498 7.92303 13.5552 7.52987 13.8627 7.35235C14.1701 7.17483 14.5633 7.28017 14.7408 7.58765C14.9183 7.89512 14.813 8.28829 14.5055 8.46581C14.1981 8.64333 13.8049 8.53798 13.6274 8.23051Z" fill="#333333" class='xian'/>
<path d="M18.3595 5.4984C18.182 5.19092 18.2874 4.79776 18.5948 4.62024C18.9023 4.44272 19.2955 4.54807 19.473 4.85554C19.6505 5.16301 19.5452 5.55618 19.2377 5.7337C18.9302 5.91122 18.5371 5.80587 18.3595 5.4984Z" fill="#333333" class='xian'/>
<path d="M15.9936 6.86446C15.8161 6.55698 15.9214 6.16382 16.2289 5.9863C16.5364 5.80878 16.9295 5.91413 17.107 6.2216C17.2846 6.52907 17.1792 6.92224 16.8717 7.09976C16.5643 7.27728 16.1711 7.17193 15.9936 6.86446Z" fill="#333333" class='xian'/>
<path d="M16.7973 8.25627C16.6198 7.9488 16.7251 7.55563 17.0326 7.37811C17.3401 7.20059 17.7332 7.30594 17.9107 7.61341C18.0883 7.92089 17.9829 8.31405 17.6754 8.49157C17.368 8.66909 16.9748 8.56374 16.7973 8.25627Z" fill="#333333" class='xian'/>
<path d="M14.4311 9.62233C14.2536 9.31485 14.3589 8.92169 14.6664 8.74417C14.9739 8.56665 15.367 8.672 15.5445 8.97947C15.7221 9.28694 15.6167 9.68011 15.3092 9.85763C15.0018 10.0352 14.6086 9.9298 14.4311 9.62233Z" fill="#333333" class='xian'/>
<path d="M19.1633 6.89022C18.9857 6.58275 19.0911 6.18958 19.3986 6.01206C19.706 5.83454 20.0992 5.93989 20.2767 6.24737C20.4542 6.55484 20.3489 6.948 20.0414 7.12552C19.7339 7.30304 19.3408 7.1977 19.1633 6.89022Z" fill="#333333" class='xian'/>
<path d="M16.7973 8.25627C16.6198 7.9488 16.7251 7.55563 17.0326 7.37811C17.3401 7.20059 17.7332 7.30594 17.9107 7.61341C18.0883 7.92089 17.9829 8.31405 17.6754 8.49157C17.368 8.66909 16.9748 8.56374 16.7973 8.25627Z" fill="#333333" class='xian'/>
<path d="M18.3819 8.26916C18.2044 7.96168 18.3097 7.56852 18.6172 7.391C18.9247 7.21348 19.3178 7.31882 19.4953 7.6263C19.6729 7.93377 19.5675 8.32694 19.26 8.50446C18.9526 8.68198 18.5594 8.57663 18.3819 8.26916Z" fill="#333333" class='xian'/>
<path d="M16.0159 9.6352C15.8384 9.32773 15.9437 8.93456 16.2512 8.75704C16.5587 8.57952 16.9519 8.68487 17.1294 8.99235C17.3069 9.29982 17.2015 9.69298 16.8941 9.8705C16.5866 10.048 16.1934 9.94268 16.0159 9.6352Z" fill="#333333" class='xian'/>
<path d="M16.7749 5.48549C16.5974 5.17802 16.7028 4.78485 17.0103 4.60733C17.3177 4.42981 17.7109 4.53516 17.8884 4.84263C18.0659 5.15011 17.9606 5.54327 17.6531 5.72079C17.3456 5.89831 16.9525 5.79296 16.7749 5.48549Z" fill="#333333" class='xian'/>
<path d="M14.4089 6.85157C14.2314 6.54409 14.3367 6.15093 14.6442 5.97341C14.9517 5.79589 15.3449 5.90124 15.5224 6.20871C15.6999 6.51619 15.5946 6.90935 15.2871 7.08687C14.9796 7.26439 14.5864 7.15904 14.4089 6.85157Z" fill="#333333" class='xian'/>
<path fill-rule="evenodd" clip-rule="evenodd" d="M16.8987 6.74014C16.8271 6.8665 16.6926 6.94413 16.5474 6.94295L15.755 6.93652L14.9625 6.93007C14.8208 6.92892 14.6903 6.85284 14.6194 6.73009L13.8158 5.33826C13.7449 5.21551 13.7443 5.06441 13.8142 4.94108L14.2048 4.25161L14.5955 3.56213C14.6671 3.43577 14.8015 3.35815 14.9467 3.35933L16.5316 3.3722C16.6733 3.37335 16.8039 3.44943 16.8747 3.57219L17.6783 4.96402C17.7492 5.08677 17.7498 5.23787 17.6799 5.3612L16.8987 6.74014ZM16.3186 6.14107L16.8711 5.16589L16.2963 4.17032L15.1755 4.16121L14.9009 4.64597L14.623 5.13639L15.1978 6.13196L15.7614 6.13654L16.3186 6.14107Z" fill="#333333" class='xian'/>
<path d="M13.6055 5.45969C13.428 5.15222 13.5333 4.75905 13.8408 4.58153C14.1483 4.40401 14.5415 4.50936 14.719 4.81684C14.8965 5.12431 14.7911 5.51747 14.4837 5.69499C14.1762 5.87251 13.783 5.76717 13.6055 5.45969Z" fill="#333333" class='xian'/>
<path d="M15.9715 4.09365C15.794 3.78617 15.8994 3.39301 16.2068 3.21549C16.5143 3.03797 16.9075 3.14331 17.085 3.45079C17.2625 3.75826 17.1572 4.15143 16.8497 4.32895C16.5422 4.50647 16.1491 4.40112 15.9715 4.09365Z" fill="#333333" class='xian'/>
<path d="M14.4093 6.85153C14.2318 6.54406 14.3371 6.15089 14.6446 5.97337C14.9521 5.79585 15.3452 5.9012 15.5227 6.20867C15.7003 6.51615 15.5949 6.90931 15.2874 7.08683C14.98 7.26435 14.5868 7.159 14.4093 6.85153Z" fill="#333333" class='xian'/>
<path d="M16.775 5.48547C16.5975 5.17799 16.7028 4.78483 17.0103 4.60731C17.3178 4.42979 17.711 4.53514 17.8885 4.84261C18.066 5.15008 17.9606 5.54325 17.6532 5.72077C17.3457 5.89829 16.9525 5.79294 16.775 5.48547Z" fill="#333333" class='xian'/>
<path d="M15.9936 6.86444C15.8161 6.55696 15.9215 6.1638 16.2289 5.98628C16.5364 5.80876 16.9296 5.9141 17.1071 6.22158C17.2846 6.52905 17.1793 6.92222 16.8718 7.09974C16.5643 7.27726 16.1712 7.17191 15.9936 6.86444Z" fill="#333333" class='xian'/>
<path d="M14.3869 4.08074C14.2094 3.77327 14.3147 3.3801 14.6222 3.20258C14.9297 3.02506 15.3228 3.13041 15.5003 3.43788C15.6779 3.74536 15.5725 4.13852 15.265 4.31604C14.9576 4.49356 14.5644 4.38821 14.3869 4.08074Z" fill="#333333" class='xian'/>
<path d="M14.5 15.2353H18.6176V21H14.5V15.2353Z" fill="#93C045" class='mian'/>
<path fill-rule="evenodd" clip-rule="evenodd" d="M14.1 15.2353C14.1 15.0144 14.2791 14.8353 14.5 14.8353H18.6176C18.8385 14.8353 19.0176 15.0144 19.0176 15.2353V21C19.0176 21.2209 18.8385 21.4 18.6176 21.4H14.5C14.2791 21.4 14.1 21.2209 14.1 21V15.2353ZM14.9 15.6353V20.6H18.2176V15.6353H14.9Z" fill="#333333" class='xian'/>
<path fill-rule="evenodd" clip-rule="evenodd" d="M15.0735 16.0588C15.0735 15.9208 15.1854 15.8088 15.3235 15.8088H17.7941C17.9321 15.8088 18.0441 15.9208 18.0441 16.0588V20.1765C18.0441 20.3145 17.9321 20.4265 17.7941 20.4265H15.3235C15.1854 20.4265 15.0735 20.3145 15.0735 20.1765V16.0588ZM15.5735 16.3088V19.9265H17.5441V16.3088H15.5735Z" fill="#333333" class='xian'/>
<path d="M15.7353 14H17.3823V15.2353H15.7353V14Z" fill="#737566" class='mian'/>
<path fill-rule="evenodd" clip-rule="evenodd" d="M15.3353 14C15.3353 13.7791 15.5144 13.6 15.7353 13.6H17.3823C17.6032 13.6 17.7823 13.7791 17.7823 14V15.2353C17.7823 15.4562 17.6032 15.6353 17.3823 15.6353H15.7353C15.5144 15.6353 15.3353 15.4562 15.3353 15.2353V14ZM16.1353 14.4V14.8353H16.9823V14.4H16.1353Z" fill="#333333" class='xian'/>
<path fill-rule="evenodd" clip-rule="evenodd" d="M17.1473 16.9115C17.245 17.0091 17.245 17.1674 17.1473 17.265L16.5691 17.8433L17.0824 18.0999C17.1542 18.1359 17.2045 18.2042 17.2173 18.2835C17.2302 18.3628 17.2042 18.4435 17.1473 18.5003L16.3238 19.3238C16.2262 19.4215 16.0679 19.4215 15.9703 19.3238C15.8726 19.2262 15.8726 19.0679 15.9703 18.9703L16.5485 18.392L16.0352 18.1354C15.9634 18.0994 15.9131 18.0311 15.9003 17.9518C15.8874 17.8725 15.9134 17.7918 15.9703 17.735L16.7938 16.9115C16.8914 16.8138 17.0497 16.8138 17.1473 16.9115Z" fill="#333333" class='xian'/>
</svg>
