<svg width="24" height="24" viewBox="0 0 24 24" fill="none" xmlns="http://www.w3.org/2000/svg">
<g filter="url(#filter0_i_2277_508)">
<path d="M8.5 3.02344V5.32358C8.5 5.43403 8.41046 5.52358 8.3 5.52358H6.7C6.58954 5.52358 6.5 5.43403 6.5 5.32358V3.0237C6.5 2.96777 6.52342 2.91439 6.56458 2.87652L7.04718 2.4325H7.95528L8.43575 2.87656C8.47671 2.91442 8.5 2.96766 8.5 3.02344Z" fill="#EBEBEB" class='xian'/>
</g>
<path d="M7.04736 1.85C7.04736 1.79477 7.09214 1.75 7.14736 1.75H7.85298C7.90821 1.75 7.95298 1.79477 7.95298 1.85V2.44465H7.04736L7.04736 1.85Z" fill="#488ECE" class='xian'/>
<g filter="url(#filter1_i_2277_508)">
<path d="M11.5 3.02344V5.32358C11.5 5.43403 11.4105 5.52358 11.3 5.52358H9.7C9.58954 5.52358 9.5 5.43403 9.5 5.32358V3.0237C9.5 2.96777 9.52342 2.91439 9.56458 2.87652L10.0472 2.4325H10.9553L11.4357 2.87656C11.4767 2.91442 11.5 2.96766 11.5 3.02344Z" fill="#EBEBEB" class='xian'/>
</g>
<path d="M10.0474 1.85C10.0474 1.79477 10.0921 1.75 10.1474 1.75H10.853C10.9082 1.75 10.953 1.79477 10.953 1.85V2.44465H10.0474L10.0474 1.85Z" fill="#488ECE" class='xian'/>
<path d="M4 12V22H14V12H4Z" fill="#EAEFF5" class='mian'/>
<path d="M5.5 13.2V20.8C5.5 20.9105 5.58954 21 5.7 21H12.3C12.4105 21 12.5 20.9105 12.5 20.8V13.2C12.5 13.0895 12.4105 13 12.3 13H5.7C5.58954 13 5.5 13.0895 5.5 13.2Z" fill="#223554"/>
<path fill-rule="evenodd" clip-rule="evenodd" d="M3.25 12C3.25 11.5858 3.58579 11.25 4 11.25H14C14.4142 11.25 14.75 11.5858 14.75 12V22C14.75 22.4142 14.4142 22.75 14 22.75H4C3.58579 22.75 3.25 22.4142 3.25 22V12ZM4.75 12.75V21.25H13.25V12.75H4.75Z" fill="#B3B3B3" class='xian'/>
<path d="M4 7V12H14V7H4Z" fill="#D4D9E3" class='mian'/>
<path d="M5.5 8.2V10.8C5.5 10.9105 5.58954 11 5.7 11H12.3C12.4105 11 12.5 10.9105 12.5 10.8V8.2C12.5 8.08954 12.4105 8 12.3 8H5.7C5.58954 8 5.5 8.08954 5.5 8.2Z" fill="#223554"/>
<path fill-rule="evenodd" clip-rule="evenodd" d="M3.25 7C3.25 6.58579 3.58579 6.25 4 6.25H14C14.4142 6.25 14.75 6.58579 14.75 7V12C14.75 12.4142 14.4142 12.75 14 12.75H4C3.58579 12.75 3.25 12.4142 3.25 12V7ZM4.75 7.75V11.25H13.25V7.75H4.75Z" fill="#B3B3B3" class='xian'/>
<path d="M4 4V7H14V4H4Z" fill="#EAEFF5" class='mian'/>
<path fill-rule="evenodd" clip-rule="evenodd" d="M3.25 4C3.25 3.58579 3.58579 3.25 4 3.25H14C14.4142 3.25 14.75 3.58579 14.75 4V7C14.75 7.41421 14.4142 7.75 14 7.75H4C3.58579 7.75 3.25 7.41421 3.25 7V4ZM4.75 4.75V6.25H13.25V4.75H4.75Z" fill="#B3B3B3" class='xian'/>
<path d="M14 7V22H20V7H14Z" fill="#EAEFF5" class='mian'/>
<path fill-rule="evenodd" clip-rule="evenodd" d="M13.25 7C13.25 6.58579 13.5858 6.25 14 6.25H20C20.4142 6.25 20.75 6.58579 20.75 7V22C20.75 22.4142 20.4142 22.75 20 22.75H14C13.5858 22.75 13.25 22.4142 13.25 22V7ZM14.75 7.75V21.25H19.25V7.75H14.75Z" fill="#B3B3B3" class='xian'/>
<path fill-rule="evenodd" clip-rule="evenodd" d="M9.00002 8.40002C9.05525 8.40002 9.10002 8.4448 9.10002 8.50002V10.5C9.10002 10.5553 9.05525 10.6 9.00002 10.6C8.9448 10.6 8.90002 10.5553 8.90002 10.5V8.50002C8.90002 8.4448 8.9448 8.40002 9.00002 8.40002Z" fill="white"/>
<path d="M15.5 16.2V16.8C15.5 16.9105 15.5895 17 15.7 17H16.8C16.9105 17 17 16.9105 17 16.8V16.2C17 16.0895 16.9105 16 16.8 16H15.7C15.5895 16 15.5 16.0895 15.5 16.2Z" fill="#A8AFBA"/>
<path fill-rule="evenodd" clip-rule="evenodd" d="M9.00002 13.9C9.05525 13.9 9.10002 13.9448 9.10002 14V20C9.10002 20.0553 9.05525 20.1 9.00002 20.1C8.9448 20.1 8.90002 20.0553 8.90002 20V14C8.90002 13.9448 8.9448 13.9 9.00002 13.9Z" fill="white"/>
<defs>
<filter id="filter0_i_2277_508" x="6.25" y="2.4325" width="2.25" height="3.09106" filterUnits="userSpaceOnUse" color-interpolation-filters="sRGB">
<feFlood flood-opacity="0" result="BackgroundImageFix"/>
<feBlend mode="normal" in="SourceGraphic" in2="BackgroundImageFix" result="shape"/>
<feColorMatrix in="SourceAlpha" type="matrix" values="0 0 0 0 0 0 0 0 0 0 0 0 0 0 0 0 0 0 127 0" result="hardAlpha"/>
<feOffset dx="-0.25"/>
<feGaussianBlur stdDeviation="0.25"/>
<feComposite in2="hardAlpha" operator="arithmetic" k2="-1" k3="1"/>
<feColorMatrix type="matrix" values="0 0 0 0 0 0 0 0 0 0 0 0 0 0 0 0 0 0 0.25 0"/>
<feBlend mode="normal" in2="shape" result="effect1_innerShadow_2277_508"/>
</filter>
<filter id="filter1_i_2277_508" x="9.25" y="2.4325" width="2.25" height="3.09106" filterUnits="userSpaceOnUse" color-interpolation-filters="sRGB">
<feFlood flood-opacity="0" result="BackgroundImageFix"/>
<feBlend mode="normal" in="SourceGraphic" in2="BackgroundImageFix" result="shape"/>
<feColorMatrix in="SourceAlpha" type="matrix" values="0 0 0 0 0 0 0 0 0 0 0 0 0 0 0 0 0 0 127 0" result="hardAlpha"/>
<feOffset dx="-0.25"/>
<feGaussianBlur stdDeviation="0.25"/>
<feComposite in2="hardAlpha" operator="arithmetic" k2="-1" k3="1"/>
<feColorMatrix type="matrix" values="0 0 0 0 0 0 0 0 0 0 0 0 0 0 0 0 0 0 0.25 0"/>
<feBlend mode="normal" in2="shape" result="effect1_innerShadow_2277_508"/>
</filter>
</defs>
</svg>
