<svg width="24" height="24" viewBox="0 0 24 24" fill="none" xmlns="http://www.w3.org/2000/svg">
<path d="M6 10V21H18V10H6Z" fill="#5C6A84" class='mian'/>
<path fill-rule="evenodd" clip-rule="evenodd" d="M5.25 10C5.25 9.58579 5.58579 9.25 6 9.25H18C18.4142 9.25 18.75 9.58579 18.75 10V21C18.75 21.4142 18.4142 21.75 18 21.75H6C5.58579 21.75 5.25 21.4142 5.25 21V10ZM6.75 10.75V20.25H17.25V10.75H6.75Z" fill="#333333" class='xian'/>
<path d="M6 3V10H18V3H6Z" fill="#5C6A84" class='mian'/>
<path fill-rule="evenodd" clip-rule="evenodd" d="M5.25 3C5.25 2.58579 5.58579 2.25 6 2.25H18C18.4142 2.25 18.75 2.58579 18.75 3V10C18.75 10.4142 18.4142 10.75 18 10.75H6C5.58579 10.75 5.25 10.4142 5.25 10V3ZM6.75 3.75V9.25H17.25V3.75H6.75Z" fill="#333333" class='xian'/>
<path d="M9 10.5V13.5C9 13.7761 9.22386 14 9.5 14H14.5C14.7761 14 15 13.7761 15 13.5V10.5C15 10.2239 14.7761 10 14.5 10H9.5C9.22386 10 9 10.2239 9 10.5Z" fill="#30446A" class='mian'/>
<path d="M12.25 13.5C12.25 13.6381 12.1381 13.75 12 13.75C11.8619 13.75 11.75 13.6381 11.75 13.5C11.75 13.3619 11.8619 13.25 12 13.25C12.1381 13.25 12.25 13.3619 12.25 13.5Z" fill="#333333" class='xian'/>
<path fill-rule="evenodd" clip-rule="evenodd" d="M15 13H9V12.5H15V13Z" fill="#333333" class='xian'/>
<path fill-rule="evenodd" clip-rule="evenodd" d="M12.0767 10.8232C12.1743 10.9209 12.1743 11.0791 12.0767 11.1768L11.5767 11.6768C11.479 11.7744 11.3208 11.7744 11.2231 11.6768C11.1255 11.5791 11.1255 11.4209 11.2231 11.3232L11.7231 10.8232C11.8208 10.7256 11.979 10.7256 12.0767 10.8232Z" fill="#333333" class='xian'/>
<path fill-rule="evenodd" clip-rule="evenodd" d="M12.8267 11.0732C12.9243 11.1709 12.9243 11.3291 12.8267 11.4268L12.5767 11.6768C12.479 11.7744 12.3208 11.7744 12.2231 11.6768C12.1255 11.5791 12.1255 11.4209 12.2231 11.3232L12.4731 11.0732C12.5708 10.9756 12.729 10.9756 12.8267 11.0732Z" fill="#333333" class='xian'/>
<path fill-rule="evenodd" clip-rule="evenodd" d="M9.4999 10.1C9.27899 10.1 9.0999 10.2791 9.0999 10.5V13.5C9.0999 13.7209 9.27899 13.9 9.4999 13.9H14.4999C14.7208 13.9 14.8999 13.7209 14.8999 13.5V10.5C14.8999 10.2791 14.7208 10.1 14.4999 10.1H9.4999ZM8.8999 10.5C8.8999 10.1686 9.16853 9.89999 9.4999 9.89999H14.4999C14.8313 9.89999 15.0999 10.1686 15.0999 10.5V13.5C15.0999 13.8314 14.8313 14.1 14.4999 14.1H9.4999C9.16853 14.1 8.8999 13.8314 8.8999 13.5V10.5Z" fill="#DFDEE0"/>
<path d="M11.05 15.0875V16.8C11.05 16.9105 10.9605 17 10.85 17H9.45C9.33954 17 9.25 16.9105 9.25 16.8V15.0875C9.25 15.0228 9.2813 14.9621 9.33402 14.9246L9.74799 14.6299C9.77435 14.6111 9.79 14.5808 9.79 14.5484V14.1C9.79 14.0448 9.83477 14 9.89 14H10.41C10.4652 14 10.51 14.0448 10.51 14.1V14.5484C10.51 14.5808 10.5257 14.6111 10.552 14.6299L10.966 14.9246C11.0187 14.9621 11.05 15.0228 11.05 15.0875Z" fill="white"/>
<path d="M13.05 14.9234V16.3C13.05 16.4105 12.9605 16.5 12.85 16.5H11.75C11.6396 16.5 11.55 16.4105 11.55 16.3V14.9234C11.55 14.8587 11.5814 14.798 11.6341 14.7605L11.958 14.5299C11.9844 14.5111 12 14.4808 12 14.4484V14.1C12 14.0448 12.0448 14 12.1 14H12.5001C12.5553 14 12.6001 14.0448 12.6001 14.1V14.4484C12.6001 14.4808 12.6157 14.5111 12.6421 14.5299L12.966 14.7605C13.0187 14.798 13.05 14.8587 13.05 14.9234Z" fill="white"/>
<path d="M14.75 14.7594V15.8C14.75 15.9105 14.6605 16 14.55 16H13.75C13.6396 16 13.55 15.9105 13.55 15.8V14.7594C13.55 14.6947 13.5814 14.634 13.6341 14.5964L13.868 14.4299C13.8944 14.4111 13.91 14.3808 13.91 14.3484V14.1C13.91 14.0448 13.9548 14 14.01 14H14.2901C14.3453 14 14.3901 14.0448 14.3901 14.1V14.3484C14.3901 14.3808 14.4057 14.4111 14.4321 14.4299L14.666 14.5964C14.7187 14.634 14.75 14.6947 14.75 14.7594Z" fill="white"/>
</svg>
