<svg width="24" height="24" viewBox="0 0 24 24" fill="none" xmlns="http://www.w3.org/2000/svg">
<path d="M3 4V9H21V4H3Z" fill="#4F4C4F" class='mian'/>
<path fill-rule="evenodd" clip-rule="evenodd" d="M2.25 4C2.25 3.58579 2.58579 3.25 3 3.25H21C21.4142 3.25 21.75 3.58579 21.75 4V9C21.75 9.41421 21.4142 9.75 21 9.75H3C2.58579 9.75 2.25 9.41421 2.25 9V4ZM3.75 4.75V8.25H20.25V4.75H3.75Z" fill="#333333" class='xian'/>
<path d="M3 9V20H21V9H3Z" fill="#4F4C4F" class='mian'/>
<path fill-rule="evenodd" clip-rule="evenodd" d="M2.25 9C2.25 8.58579 2.58579 8.25 3 8.25H21C21.4142 8.25 21.75 8.58579 21.75 9V20C21.75 20.4142 21.4142 20.75 21 20.75H3C2.58579 20.75 2.25 20.4142 2.25 20V9ZM3.75 9.75V19.25H20.25V9.75H3.75Z" fill="#333333" class='xian'/>
<path d="M7 6.5C7 7.05228 6.55228 7.5 6 7.5C5.44772 7.5 5 7.05228 5 6.5C5 5.94772 5.44772 5.5 6 5.5C6.55228 5.5 7 5.94772 7 6.5Z" fill="#676268"/>
<path fill-rule="evenodd" clip-rule="evenodd" d="M5.99995 5.55C5.47528 5.55 5.04995 5.97533 5.04995 6.5C5.04995 7.02467 5.47528 7.45 5.99995 7.45C6.52462 7.45 6.94995 7.02467 6.94995 6.5C6.94995 5.97533 6.52462 5.55 5.99995 5.55ZM4.94995 6.5C4.94995 5.9201 5.42005 5.45 5.99995 5.45C6.57985 5.45 7.04995 5.9201 7.04995 6.5C7.04995 7.0799 6.57985 7.55 5.99995 7.55C5.42005 7.55 4.94995 7.0799 4.94995 6.5Z" fill="#434343"/>
<path fill-rule="evenodd" clip-rule="evenodd" d="M5.99995 5.85001C6.02757 5.85001 6.04995 5.87239 6.04995 5.90001V6.40001C6.04995 6.42762 6.02757 6.45001 5.99995 6.45001C5.97234 6.45001 5.94995 6.42762 5.94995 6.40001V5.90001C5.94995 5.87239 5.97234 5.85001 5.99995 5.85001Z" fill="white"/>
<path fill-rule="evenodd" clip-rule="evenodd" d="M5.75528 6.06086C5.77107 6.08351 5.76552 6.11468 5.74287 6.13047C5.62615 6.21188 5.54995 6.34697 5.54995 6.49986C5.54995 6.74839 5.75142 6.94986 5.99995 6.94986C6.24848 6.94986 6.44995 6.74839 6.44995 6.49986C6.44995 6.34697 6.37375 6.21188 6.25704 6.13047C6.23439 6.11468 6.22883 6.08351 6.24463 6.06086C6.26042 6.03821 6.29159 6.03266 6.31424 6.04845C6.45662 6.14775 6.54995 6.31291 6.54995 6.49986C6.54995 6.80362 6.30371 7.04986 5.99995 7.04986C5.69619 7.04986 5.44995 6.80362 5.44995 6.49986C5.44995 6.31291 5.54328 6.14775 5.68566 6.04845C5.70831 6.03266 5.73948 6.03821 5.75528 6.06086Z" fill="white"/>
<path fill-rule="evenodd" clip-rule="evenodd" d="M5 10.75C5.13807 10.75 5.25 10.8619 5.25 11V18C5.25 18.1381 5.13807 18.25 5 18.25C4.86193 18.25 4.75 18.1381 4.75 18V11C4.75 10.8619 4.86193 10.75 5 10.75Z" fill="#333333" class='xian'/>
<path fill-rule="evenodd" clip-rule="evenodd" d="M19.5 11.25C19.3619 11.25 19.25 11.3619 19.25 11.5V17.5C19.25 17.6381 19.3619 17.75 19.5 17.75H21C21.1381 17.75 21.25 17.8619 21.25 18C21.25 18.1381 21.1381 18.25 21 18.25H19.5C19.0858 18.25 18.75 17.9142 18.75 17.5V11.5C18.75 11.0858 19.0858 10.75 19.5 10.75H21C21.1381 10.75 21.25 10.8619 21.25 11C21.25 11.1381 21.1381 11.25 21 11.25H19.5Z" fill="#333333" class='xian'/>
<path d="M11 14.1V17.9C11 17.9552 11.0448 18 11.1 18H16.9C16.9552 18 17 17.9552 17 17.9V14.1C17 14.0448 16.9552 14 16.9 14H11.1C11.0448 14 11 14.0448 11 14.1Z" fill="#313037"/>
<path fill-rule="evenodd" clip-rule="evenodd" d="M11.25 14.25V17.75H16.75V14.25H11.25ZM10.75 14.1C10.75 13.9067 10.9067 13.75 11.1 13.75H16.9C17.0933 13.75 17.25 13.9067 17.25 14.1V17.9C17.25 18.0933 17.0933 18.25 16.9 18.25H11.1C10.9067 18.25 10.75 18.0933 10.75 17.9V14.1Z" fill="#0F0F10"/>
<path d="M11.3 14.4V17.6C11.3 17.6553 11.3448 17.7 11.4 17.7H15.2C15.2553 17.7 15.3 17.6553 15.3 17.6V14.4C15.3 14.3448 15.2553 14.3 15.2 14.3H11.4C11.3448 14.3 11.3 14.3448 11.3 14.4Z" fill="#131515"/>
<path d="M14 15.6V16.4C14 16.4552 14.0448 16.5 14.1 16.5H15.9C15.9552 16.5 16 16.4552 16 16.4V15.6C16 15.5448 15.9552 15.5 15.9 15.5H14.1C14.0448 15.5 14 15.5448 14 15.6Z" fill="#131515"/>
</svg>
