<svg width="24" height="24" viewBox="0 0 24 24" fill="none" xmlns="http://www.w3.org/2000/svg">
<path d="M5 3V20H19V3H5Z" fill="#1E2225" class='mian'/>
<path fill-rule="evenodd" clip-rule="evenodd" d="M4.25 3C4.25 2.58579 4.58579 2.25 5 2.25H19C19.4142 2.25 19.75 2.58579 19.75 3V20C19.75 20.4142 19.4142 20.75 19 20.75H5C4.58579 20.75 4.25 20.4142 4.25 20V3ZM5.75 3.75V19.25H18.25V3.75H5.75Z" fill="#333333" class='xian'/>
<path d="M11 9C11 8.44772 11.4477 8 12 8H17V12H12C11.4477 12 11 11.5523 11 11V9Z" fill="#BACFD3" class='mian'/>
<path fill-rule="evenodd" clip-rule="evenodd" d="M12 8.25C11.5858 8.25 11.25 8.58579 11.25 9V11C11.25 11.4142 11.5858 11.75 12 11.75H16.75V8.25H12ZM10.75 9C10.75 8.30964 11.3096 7.75 12 7.75H17C17.1381 7.75 17.25 7.86193 17.25 8V12C17.25 12.1381 17.1381 12.25 17 12.25H12C11.3096 12.25 10.75 11.6904 10.75 11V9Z" fill="#333333" class='xian'/>
<path d="M13 9.7V10.3C13 10.4105 13.0895 10.5 13.2 10.5H14.8C14.9105 10.5 15 10.4105 15 10.3V10V9.7C15 9.58954 14.9105 9.5 14.8 9.5H13.2C13.0895 9.5 13 9.58954 13 9.7Z" fill="#1E2225"/>
<path d="M12 9.5V10.5C12 10.7761 12.2239 11 12.5 11H13.5C13.7761 11 14 10.7761 14 10.5V10V9.5C14 9.22386 13.7761 9 13.5 9H12.5C12.2239 9 12 9.22386 12 9.5Z" fill="#1E2225"/>
<path fill-rule="evenodd" clip-rule="evenodd" d="M12.5 9.25C12.3619 9.25 12.25 9.36193 12.25 9.5V10.5C12.25 10.6381 12.3619 10.75 12.5 10.75H13.5C13.6381 10.75 13.75 10.6381 13.75 10.5V9.5C13.75 9.36193 13.6381 9.25 13.5 9.25H12.5ZM11.75 9.5C11.75 9.08579 12.0858 8.75 12.5 8.75H13.5C13.9142 8.75 14.25 9.08579 14.25 9.5V10.5C14.25 10.9142 13.9142 11.25 13.5 11.25H12.5C12.0858 11.25 11.75 10.9142 11.75 10.5V9.5Z" fill="#333333" class='xian'/>
<path fill-rule="evenodd" clip-rule="evenodd" d="M9.9999 8.9C10.0551 8.9 10.0999 8.94477 10.0999 9V11.5C10.0999 12.2732 10.7267 12.9 11.4999 12.9H16.4999C16.5551 12.9 16.5999 12.9448 16.5999 13C16.5999 13.0552 16.5551 13.1 16.4999 13.1H11.4999C10.6162 13.1 9.8999 12.3837 9.8999 11.5V9C9.8999 8.94477 9.94467 8.9 9.9999 8.9Z" fill="#80F4FE"/>
<path d="M12.5 9.9V10.1C12.5 10.2105 12.5895 10.3 12.7 10.3H13.3C13.4105 10.3 13.5 10.2105 13.5 10.1V10V9.9C13.5 9.78954 13.4105 9.7 13.3 9.7H12.7C12.5895 9.7 12.5 9.78954 12.5 9.9Z" fill="#BACFD3"/>
<path fill-rule="evenodd" clip-rule="evenodd" d="M6.25 6C6.25 5.58579 6.58579 5.25 7 5.25H17C17.4142 5.25 17.75 5.58579 17.75 6V20C17.75 20.4142 17.4142 20.75 17 20.75H7C6.58579 20.75 6.25 20.4142 6.25 20V6ZM7.75 6.75V19.25H16.25V6.75H7.75Z" fill="#333333" class='xian'/>
<path fill-rule="evenodd" clip-rule="evenodd" d="M19.0001 7.1C18.9449 7.1 18.9001 7.05523 18.9001 7V4C18.9001 3.50294 18.4972 3.1 18.0001 3.1H13.0001C12.9449 3.1 12.9001 3.05523 12.9001 3C12.9001 2.94477 12.9449 2.9 13.0001 2.9H18.0001C18.6076 2.9 19.1001 3.39249 19.1001 4V7C19.1001 7.05523 19.0553 7.1 19.0001 7.1Z" fill="#80F4FE"/>
<path fill-rule="evenodd" clip-rule="evenodd" d="M6 19.25C6.41421 19.25 6.75 19.5858 6.75 20V22C6.75 22.4142 6.41421 22.75 6 22.75C5.58579 22.75 5.25 22.4142 5.25 22V20C5.25 19.5858 5.58579 19.25 6 19.25Z" fill="#333333" class='xian'/>
<path fill-rule="evenodd" clip-rule="evenodd" d="M18 19.25C18.4142 19.25 18.75 19.5858 18.75 20V22C18.75 22.4142 18.4142 22.75 18 22.75C17.5858 22.75 17.25 22.4142 17.25 22V20C17.25 19.5858 17.5858 19.25 18 19.25Z" fill="#333333" class='xian'/>
</svg>
