<svg width="24" height="24" viewBox="0 0 24 24" fill="none" xmlns="http://www.w3.org/2000/svg">
<path d="M12 4C17.5228 4 22 7.58172 22 12C22 16.4183 17.5228 20 12 20C6.47715 20 2 16.4183 2 12C2 7.58172 6.47715 4 12 4Z" fill="rgba(0,0,0,0)" class='mian'/>
<path fill-rule="evenodd" clip-rule="evenodd" d="M2.75 12C2.75 15.8565 6.72654 19.25 12 19.25C17.2735 19.25 21.25 15.8565 21.25 12C21.25 8.14346 17.2735 4.75 12 4.75C6.72654 4.75 2.75 8.14346 2.75 12ZM12 20.75C6.22776 20.75 1.25 16.98 1.25 12C1.25 7.01998 6.22776 3.25 12 3.25C17.7722 3.25 22.75 7.01998 22.75 12C22.75 16.98 17.7722 20.75 12 20.75Z" fill="#333333" class='xian'/>
<path fill-rule="evenodd" clip-rule="evenodd" d="M6.14145 16.3976C7.63232 17.5377 9.7028 18.25 12 18.25C14.2972 18.25 16.3677 17.5377 17.8585 16.3976C19.3492 15.2577 20.25 13.7007 20.25 12C20.25 10.2993 19.3492 8.74229 17.8585 7.60239C16.3677 6.46232 14.2972 5.75 12 5.75C9.7028 5.75 7.63232 6.46232 6.14145 7.60239C4.65082 8.74229 3.75 10.2993 3.75 12C3.75 13.7007 4.65082 15.2577 6.14145 16.3976ZM5.83773 16.7948C4.25197 15.5821 3.25 13.8892 3.25 12C3.25 10.1108 4.25197 8.41785 5.83773 7.20522C7.42326 5.99275 9.60278 5.25 12 5.25C14.3972 5.25 16.5767 5.99275 18.1623 7.20522C19.748 8.41785 20.75 10.1108 20.75 12C20.75 13.8892 19.748 15.5821 18.1623 16.7948C16.5767 18.0072 14.3972 18.75 12 18.75C9.60278 18.75 7.42326 18.0072 5.83773 16.7948Z" fill="#E5FCFB" class='mian'/>
<path d="M14.5 9C16.433 9 18 10.1193 18 11.5C18 12.8807 16.433 14 14.5 14C12.567 14 11 12.8807 11 11.5C11 10.1193 12.567 9 14.5 9Z" fill="white"/>
<path fill-rule="evenodd" clip-rule="evenodd" d="M12.4611 12.6575C12.9533 13.0091 13.6718 13.25 14.5 13.25C15.3282 13.25 16.0467 13.0091 16.5389 12.6575C17.0326 12.3048 17.25 11.8853 17.25 11.5C17.25 11.1147 17.0326 10.6952 16.5389 10.3425C16.0467 9.99092 15.3282 9.75 14.5 9.75C13.6718 9.75 12.9533 9.99092 12.4611 10.3425C11.9674 10.6952 11.75 11.1147 11.75 11.5C11.75 11.8853 11.9674 12.3048 12.4611 12.6575ZM11.5892 13.8781C10.8161 13.3259 10.25 12.4954 10.25 11.5C10.25 10.5046 10.8161 9.67411 11.5892 9.12193C12.3637 8.56872 13.3952 8.25 14.5 8.25C15.6048 8.25 16.6363 8.56872 17.4108 9.12193C18.1839 9.67411 18.75 10.5046 18.75 11.5C18.75 12.4954 18.1839 13.3259 17.4108 13.8781C16.6363 14.4313 15.6048 14.75 14.5 14.75C13.3952 14.75 12.3637 14.4313 11.5892 13.8781Z" fill="#333333" class='xian'/>
<path d="M7.16667 9C7.811 9 8.33333 9.44772 8.33333 10C8.33333 10.5523 7.811 11 7.16667 11C6.52233 11 6 10.5523 6 10C6 9.44772 6.52233 9 7.16667 9Z" fill="#333333" class='xian'/>
</svg>
