<svg width="24" height="24" viewBox="0 0 24 24" fill="none" xmlns="http://www.w3.org/2000/svg">
<path d="M4.27799 11.6787C4.5487 10.0802 4.50544 8.10251 4.41357 7C7.41356 10.6667 6.91357 13.6667 5.66357 15.75C4.41357 17.8333 5.2469 20.1944 5.2469 22C3.1554 20.1409 2.83255 17.6337 3.06413 15.721C3.23375 14.32 4.04235 13.0701 4.27799 11.6787Z" fill="rgba(0,0,0,0)" class='mian'/>
<path fill-rule="evenodd" clip-rule="evenodd" d="M4.13229 6.30479C4.43679 6.18159 4.78603 6.27089 4.99403 6.52512C6.5723 8.45411 7.27513 10.2657 7.38079 11.921C7.48633 13.5745 6.99119 14.9951 6.30669 16.1359C5.79038 16.9964 5.68688 17.9359 5.73561 18.943C5.758 19.4058 5.81106 19.8632 5.86549 20.3325C5.87075 20.3778 5.87602 20.4232 5.88128 20.4688C5.9394 20.9725 5.9969 21.4994 5.9969 22C5.9969 22.2954 5.82356 22.5632 5.55414 22.6842C5.28471 22.8052 4.96937 22.7568 4.74862 22.5606C2.40817 20.4802 2.07072 17.6862 2.31957 15.6309C2.41694 14.8266 2.69561 14.083 2.94571 13.4285C2.95602 13.4016 2.96628 13.3748 2.97648 13.3481C3.22426 12.7003 3.43969 12.137 3.53851 11.5535C3.79449 10.042 3.75546 8.13403 3.66615 7.06233C3.63887 6.73498 3.82778 6.42798 4.13229 6.30479ZM5.22128 9.60894C5.19708 10.3421 5.13595 11.1042 5.01745 11.804C4.89292 12.5393 4.62752 13.2317 4.39287 13.8439C4.37739 13.8843 4.36204 13.9243 4.34688 13.964C4.09138 14.6326 3.88093 15.2145 3.80869 15.8111C3.67515 16.9141 3.74448 18.1918 4.26139 19.3944C4.25171 19.269 4.24351 19.1425 4.23736 19.0155C4.18192 17.8698 4.28676 16.587 5.02045 15.3642C5.58595 14.4217 5.9658 13.3006 5.88384 12.0166C5.83743 11.2896 5.64144 10.4856 5.22128 9.60894Z" fill="#333333" class='xian'/>
<path d="M12.5195 8.50849C12.0291 6.39216 12.0873 3.53352 12.2245 2C8.10925 6.68519 9.16359 11.5833 9.9969 13.6667C10.8302 15.75 9.99689 19.5 10.4136 22C13.5318 19.4181 14.1675 15.3795 13.8781 12.6477C13.7242 11.196 12.8491 9.93065 12.5195 8.50849Z" fill="rgba(0,0,0,0)" class='mian'/>
<path fill-rule="evenodd" clip-rule="evenodd" d="M12.52 1.3107C12.2218 1.18286 11.8751 1.2613 11.661 1.50509C7.28872 6.48291 8.40907 11.7165 9.30054 13.9452C9.64841 14.8149 9.6651 16.1089 9.61192 17.6513C9.60478 17.8582 9.5964 18.0693 9.58791 18.2832C9.53659 19.5765 9.48133 20.9687 9.67377 22.1233C9.71788 22.388 9.90003 22.609 10.1514 22.7027C10.4028 22.7965 10.6852 22.7488 10.8919 22.5777C14.2755 19.7761 14.9282 15.4409 14.6239 12.5687C14.5346 11.7257 14.2382 10.9589 13.9578 10.2806C13.9187 10.1859 13.88 10.0932 13.842 10.0021C13.5959 9.41222 13.3776 8.88919 13.2502 8.33922C12.7864 6.33763 12.8369 3.57172 12.9715 2.06686C13.0004 1.74368 12.8182 1.43854 12.52 1.3107ZM11.3781 4.44559C11.3835 5.82134 11.4865 7.37281 11.7889 8.67782C11.9472 9.36088 12.2197 10.0119 12.4629 10.5928C12.4999 10.6814 12.5364 10.7683 12.5716 10.8535C12.8496 11.5263 13.0677 12.118 13.1322 12.7268C13.367 14.9425 12.9488 17.9992 11.0394 20.3155C11.0344 19.7049 11.0598 19.0502 11.0862 18.3689C11.0947 18.1495 11.1033 17.9273 11.111 17.703C11.162 16.2245 11.1787 14.6018 10.6933 13.3882C10.0327 11.7368 9.2174 8.17945 11.3781 4.44559Z" fill="#333333" class='xian'/>
<path d="M18.1083 11.6787C18.379 10.0802 18.3358 8.10251 18.2439 7C21.2439 10.6667 20.7439 13.6667 19.4939 15.75C18.2439 17.8333 19.0772 20.1944 19.0772 22C16.9857 20.1409 16.6629 17.6337 16.8945 15.721C17.0641 14.32 17.8727 13.0701 18.1083 11.6787Z" fill="rgba(0,0,0,0)" class='mian'/>
<path fill-rule="evenodd" clip-rule="evenodd" d="M17.9626 6.30479C18.2671 6.18159 18.6164 6.27089 18.8244 6.52512C20.4026 8.45411 21.1055 10.2657 21.2111 11.921C21.3167 13.5745 20.8215 14.9951 20.137 16.1359C19.6207 16.9964 19.5172 17.9359 19.5659 18.943C19.5883 19.4058 19.6414 19.8632 19.6958 20.3325C19.7011 20.3778 19.7064 20.4232 19.7116 20.4688C19.7697 20.9725 19.8272 21.4994 19.8272 22C19.8272 22.2954 19.6539 22.5632 19.3845 22.6842C19.115 22.8052 18.7997 22.7568 18.579 22.5606C16.2385 20.4802 15.9011 17.6862 16.1499 15.6309C16.2473 14.8266 16.5259 14.083 16.7761 13.4285C16.7864 13.4016 16.7966 13.3748 16.8068 13.3481C17.0546 12.7003 17.27 12.137 17.3688 11.5535C17.6248 10.042 17.5858 8.13403 17.4965 7.06233C17.4692 6.73498 17.6581 6.42798 17.9626 6.30479ZM19.0516 9.60894C19.0274 10.3421 18.9663 11.1042 18.8478 11.804C18.7233 12.5393 18.4579 13.2317 18.2232 13.8439C18.2077 13.8843 18.1924 13.9243 18.1772 13.964C17.9217 14.6326 17.7113 15.2145 17.639 15.8111C17.5055 16.9141 17.5748 18.1918 18.0917 19.3944C18.082 19.269 18.0738 19.1425 18.0677 19.0155C18.0123 17.8698 18.1171 16.587 18.8508 15.3642C19.4163 14.4217 19.7961 13.3006 19.7142 12.0166C19.6678 11.2896 19.4718 10.4856 19.0516 9.60894Z" fill="#333333" class='xian'/>
<path d="M7 4.5C7 4.77614 6.77614 5 6.5 5C6.22386 5 6 4.77614 6 4.5C6 4.22386 6.22386 4 6.5 4C6.77614 4 7 4.22386 7 4.5Z" fill="#333333" class='xian'/>
<path d="M21 5.5C21 5.77614 20.7761 6 20.5 6C20.2239 6 20 5.77614 20 5.5C20 5.22386 20.2239 5 20.5 5C20.7761 5 21 5.22386 21 5.5Z" fill="#333333" class='xian'/>
<path d="M16.5 3.75C16.5 4.16421 16.1642 4.5 15.75 4.5C15.3358 4.5 15 4.16421 15 3.75C15 3.33579 15.3358 3 15.75 3C16.1642 3 16.5 3.33579 16.5 3.75Z" fill="#333333" class='xian'/>
<path d="M2.5 8.25C2.5 8.38807 2.38807 8.5 2.25 8.5C2.11193 8.5 2 8.38807 2 8.25C2 8.11193 2.11193 8 2.25 8C2.38807 8 2.5 8.11193 2.5 8.25Z" fill="#333333" class='xian'/>
</svg>
