<svg width="24" height="24" viewBox="0 0 24 24" fill="none" xmlns="http://www.w3.org/2000/svg">
<path fill-rule="evenodd" clip-rule="evenodd" d="M4.25 1C4.25 0.861929 4.36193 0.75 4.5 0.75H19.4898C19.6279 0.75 19.7398 0.861929 19.7398 1V19.9997L19.75 22.9991C19.7502 23.0656 19.724 23.1294 19.6771 23.1765C19.6302 23.2235 19.5665 23.25 19.5 23.25H4.5C4.36193 23.25 4.25 23.1381 4.25 23V1ZM4.75 22.75H19.2491L19.2398 20.0009L19.2398 1.25H4.75V22.75Z" fill="#333333" class='xian'/>
<path d="M16.5 17.3878H14.5V18.0612H16.5V17.3878Z" fill="#666666" class='mian'/>
<path fill-rule="evenodd" clip-rule="evenodd" d="M14.25 17.3878C14.25 17.2497 14.3619 17.1378 14.5 17.1378H16.5C16.6381 17.1378 16.75 17.2497 16.75 17.3878V18.0612C16.75 18.1993 16.6381 18.3112 16.5 18.3112H14.5C14.3619 18.3112 14.25 18.1993 14.25 18.0612V17.3878ZM14.75 17.6378V17.8112H16.25V17.6378H14.75Z" fill="#333333" class='xian'/>
<path fill-rule="evenodd" clip-rule="evenodd" d="M4.27969 20.3061C4.27969 20.0852 4.45878 19.9061 4.67969 19.9061H13.0373C13.2582 19.9061 13.4373 20.0852 13.4373 20.3061C13.4373 20.527 13.2582 20.7061 13.0373 20.7061H4.67969C4.45878 20.7061 4.27969 20.527 4.27969 20.3061Z" fill="#333333" class='xian'/>
<path fill-rule="evenodd" clip-rule="evenodd" d="M9.94 8.41972C9.30459 11.1852 8.86559 15.1669 8.74721 20.0061L8.24736 19.9939C8.36619 15.1364 8.80697 11.1181 9.4527 8.30775C9.77509 6.90462 10.1517 5.7882 10.5732 5.01656C10.9834 4.2657 11.4876 3.75 12.0995 3.75C12.3804 3.75 12.6295 3.88866 12.8427 4.09608C13.0553 4.30299 13.2509 4.5955 13.4324 4.95042C13.796 5.66123 14.129 6.67409 14.4263 7.90429C15.022 10.3687 15.4867 13.7587 15.7494 17.4824L15.2506 17.5176C14.989 13.8093 14.5271 10.4493 13.9403 8.02176C13.6465 6.80594 13.3244 5.8373 12.9873 5.1781C12.8184 4.84801 12.6522 4.60839 12.494 4.45443C12.3363 4.30096 12.2054 4.25 12.0995 4.25C11.7901 4.25 11.413 4.52221 11.012 5.25625C10.6224 5.96949 10.2582 7.03494 9.94 8.41972Z" fill="#333333" class='xian'/>
</svg>
