<svg width="24" height="24" viewBox="0 0 24 24" fill="none" xmlns="http://www.w3.org/2000/svg">
<path d="M8 14H16V18C16 20.2091 14.2091 22 12 22L-nan -nanL12 22C9.79086 22 8 20.2091 8 18V14Z" fill="white"/>
<path d="M8 8H16V14H8V8Z" fill="#666666" class='mian'/>
<path fill-rule="evenodd" clip-rule="evenodd" d="M7.25 2C7.25 1.58579 7.58579 1.25 8 1.25L16 1.25C16.4142 1.25 16.75 1.58579 16.75 2V18C16.75 20.6234 14.6234 22.75 12 22.75C9.37665 22.75 7.25 20.6234 7.25 18L7.25 2ZM8.75 2.75V18C8.75 19.7949 10.2051 21.25 12 21.25C13.7949 21.25 15.25 19.7949 15.25 18V2.75L8.75 2.75Z" fill="#333333" class='xian'/>
<path fill-rule="evenodd" clip-rule="evenodd" d="M7.25 14C7.25 13.5858 7.58579 13.25 8 13.25H16C16.4142 13.25 16.75 13.5858 16.75 14C16.75 14.4142 16.4142 14.75 16 14.75H8C7.58579 14.75 7.25 14.4142 7.25 14Z" fill="#333333" class='xian'/>
<path fill-rule="evenodd" clip-rule="evenodd" d="M7.25 8C7.25 7.58579 7.58579 7.25 8 7.25H16C16.4142 7.25 16.75 7.58579 16.75 8C16.75 8.41421 16.4142 8.75 16 8.75H8C7.58579 8.75 7.25 8.41421 7.25 8Z" fill="#333333" class='xian'/>
</svg>
