<svg width="24" height="24" viewBox="0 0 24 24" fill="none" xmlns="http://www.w3.org/2000/svg">
<path d="M8.39026 20.3166H15.3333V12.5388L12 3.6499L9.2222 11.9832L8.39026 15.8721V20.3166Z" fill="#B3B3B3" class='mian'/>
<path fill-rule="evenodd" clip-rule="evenodd" d="M11.9861 2.90003C12.3038 2.89415 12.5907 3.08907 12.7022 3.38656L16.0356 12.2754C16.0671 12.3597 16.0833 12.4489 16.0833 12.5388V21.0666H7.64026V15.8721C7.64026 15.8194 7.64582 15.7668 7.65685 15.7152L8.4888 11.8263C8.4946 11.7992 8.50191 11.7724 8.51069 11.7461L11.2885 3.41273C11.3889 3.11132 11.6684 2.90591 11.9861 2.90003ZM12.0416 5.89683L9.94689 12.1809L9.14026 15.9515V19.5666H14.5833V12.6748L12.0416 5.89683Z" fill="#B3B3B3" class='mian'/>
<path fill-rule="evenodd" clip-rule="evenodd" d="M8.37745 16.2615C8.19145 16.4501 7.91458 16.6221 7.55554 16.6221C7.14133 16.6221 6.80554 16.2863 6.80554 15.8721C6.80554 15.5301 7.03451 15.2415 7.34753 15.1513C7.36395 15.1231 7.38322 15.086 7.4047 15.0384C7.51948 14.7841 7.63443 14.375 7.74958 13.8121C7.89955 13.0789 8.02929 12.1981 8.17047 11.2396C8.2461 10.7262 8.32501 10.1904 8.41208 9.64318C8.65501 8.11615 8.95969 6.51712 9.43407 5.28932C9.67102 4.67605 9.97044 4.1004 10.3681 3.66763C10.779 3.22036 11.323 2.8999 12 2.8999C13.2598 2.8999 14.0139 3.77425 14.4645 4.7147C14.9122 5.64886 15.1692 6.8528 15.376 7.95613C15.421 8.19577 15.4635 8.43045 15.505 8.65886C15.663 9.53006 15.8045 10.31 15.9971 10.9262C16.118 11.3132 16.2377 11.5594 16.3445 11.6968C16.3937 11.7601 16.4258 11.7814 16.435 11.7866C16.4367 11.7876 16.4374 11.7881 16.4381 11.7884C16.4392 11.7888 16.4404 11.7888 16.4444 11.7888C16.7885 11.7888 17.1766 11.612 17.7757 11.3124C17.7964 11.302 17.8176 11.2915 17.839 11.2807C18.3464 11.0263 19.0418 10.6777 19.7778 10.6777C20.3626 10.6777 20.73 11.1108 20.9185 11.396C21.133 11.7205 21.3073 12.1405 21.4533 12.5801C21.7489 13.4697 21.9885 14.6268 22.1766 15.748C22.3661 16.8771 22.5085 18.0026 22.6036 18.8435C22.6511 19.2646 22.687 19.6157 22.7109 19.862C22.7229 19.9852 22.7319 20.0822 22.738 20.1487L22.7449 20.2252L22.7466 20.2452L22.7472 20.252C22.7472 20.2521 22.7473 20.2526 22 20.3166L22.7472 20.252C22.7825 20.6647 22.4766 21.0285 22.0639 21.0638C21.6512 21.0992 21.288 20.7932 21.2527 20.3805L21.2507 20.357L21.2442 20.2848C21.2384 20.2211 21.2296 20.1271 21.218 20.0073C21.1946 19.7675 21.1596 19.4241 21.113 19.0119C21.0197 18.1861 20.8807 17.0894 20.6973 15.9962C20.5126 14.8952 20.288 13.8301 20.0298 13.053C19.899 12.6593 19.7741 12.3849 19.6672 12.2232C19.658 12.2093 19.6496 12.1971 19.6419 12.1864C19.3299 12.2254 18.9682 12.3932 18.4465 12.6541C18.4257 12.6644 18.4046 12.675 18.3832 12.6858C17.8758 12.9402 17.1804 13.2888 16.4444 13.2888C15.8715 13.2888 15.4466 12.9861 15.1599 12.6169C14.889 12.2682 14.7049 11.8199 14.5654 11.3736C14.3422 10.6595 14.1786 9.75536 14.0191 8.87341C13.98 8.65742 13.9411 8.44277 13.9017 8.23256C13.6919 7.11367 13.4628 6.09538 13.1118 5.36288C12.7638 4.63667 12.4068 4.3999 12 4.3999C11.8437 4.3999 11.6758 4.46139 11.4726 4.68252C11.2561 4.91816 11.039 5.29737 10.8333 5.82992C10.4222 6.8938 10.1366 8.35032 9.89345 9.87885C9.81362 10.3806 9.73803 10.8932 9.66374 11.3969C9.51791 12.3857 9.3771 13.3405 9.21915 14.1127C9.09991 14.6956 8.95879 15.2414 8.77192 15.6555C8.67886 15.8617 8.55388 16.0827 8.37745 16.2615ZM19.5856 12.1204C19.5856 12.12 19.5888 12.1223 19.595 12.1286C19.5887 12.124 19.5855 12.1209 19.5856 12.1204Z" fill="#333333" class='xian'/>
<path d="M2.74932 20.3489C2.73146 20.7627 2.38157 21.0837 1.96777 21.0659C1.55394 21.0481 1.2329 20.6982 1.25071 20.2844L1.25102 20.2773L1.25186 20.2591L1.25521 20.191C1.25823 20.1318 1.26288 20.046 1.26944 19.9372C1.28257 19.7197 1.30342 19.4101 1.3344 19.0389C1.39622 18.2984 1.49906 17.3049 1.66324 16.3061C1.82569 15.3178 2.05515 14.2794 2.38406 13.4713C2.54753 13.0698 2.75429 12.6773 3.02525 12.3736C3.30106 12.0646 3.70055 11.7888 4.22224 11.7888C4.95883 11.7888 5.49269 12.131 5.87181 12.5685C6.22208 12.9728 6.46366 13.4863 6.6513 13.8882L6.66803 13.924L6.66803 13.924C6.86864 14.3538 7.01472 14.6668 7.18896 14.8907C7.34188 15.0873 7.44333 15.1222 7.55557 15.1222C7.96978 15.1222 8.30557 15.4579 8.30557 15.8722C8.30557 16.2864 7.96978 16.6222 7.55557 16.6222C6.83447 16.6222 6.33853 16.2404 6.00513 15.8119C5.72204 15.4481 5.508 14.9873 5.33549 14.6159L5.29214 14.5228C5.09072 14.0913 4.92943 13.7715 4.73816 13.5508C4.60175 13.3933 4.32233 13.173 4.1444 13.3724C4.03578 13.4941 3.90672 13.7093 3.77337 14.0369C3.50867 14.6872 3.30054 15.5932 3.14338 16.5494C2.98794 17.495 2.88913 18.4459 2.8292 19.1637C2.79932 19.5217 2.77927 19.8197 2.76672 20.0276C2.76045 20.1315 2.75606 20.2127 2.75325 20.2675L2.75021 20.3295L2.74951 20.3446L2.74932 20.3489Z" fill="#333333" class='xian'/>
</svg>
