<svg width="24" height="24" viewBox="0 0 24 24" fill="none" xmlns="http://www.w3.org/2000/svg">
<g filter="url(#filter0_i_2277_145)">
<path d="M10.2499 4.34907V7.30005C10.2499 7.41051 10.1604 7.50005 10.0499 7.50005H7.39995C7.28949 7.50005 7.19995 7.41051 7.19995 7.30005V4.3496C7.19995 4.19245 7.27384 4.04444 7.39945 3.94998L8.12495 3.40442H9.32817L10.0511 3.94997C10.1763 4.04445 10.2499 4.19222 10.2499 4.34907Z" fill="#EBEBEB" class='xian'/>
</g>
<path d="M8.125 2.6C8.125 2.54477 8.16977 2.5 8.225 2.5H9.22493C9.28015 2.5 9.32493 2.54477 9.32493 2.6V3.4204H8.125L8.125 2.6Z" fill="#556EA4" class='xian'/>
<g filter="url(#filter1_i_2277_145)">
<path d="M8.35 3.84907V6.80005C8.35 6.91051 8.26046 7.00005 8.15 7.00005H5.50005C5.38959 7.00005 5.30005 6.91051 5.30005 6.80005V3.8496C5.30005 3.69245 5.37394 3.54444 5.49954 3.44998L6.22505 2.90442H7.42827L8.15119 3.44997C8.27639 3.54445 8.35 3.69222 8.35 3.84907Z" fill="#EBEBEB" class='xian'/>
</g>
<path d="M6.2251 2.1C6.2251 2.04477 6.26987 2 6.3251 2H7.32502C7.38025 2 7.42502 2.04477 7.42502 2.1V2.9204H6.2251L6.2251 2.1Z" fill="#556EA4" class='xian'/>
<g filter="url(#filter2_i_2277_145)">
<path d="M12.05 3.84907V6.80005C12.05 6.91051 11.9604 7.00005 11.85 7.00005H9.2C9.08954 7.00005 9 6.91051 9 6.80005V3.8496C9 3.69245 9.07389 3.54444 9.19949 3.44998L9.925 2.90442H11.1282L11.8511 3.44997C11.9763 3.54445 12.05 3.69222 12.05 3.84907Z" fill="#EBEBEB" class='xian'/>
</g>
<path d="M9.92505 2.1C9.92505 2.04477 9.96982 2 10.025 2H11.025C11.0802 2 11.125 2.04477 11.125 2.1V2.9204H9.92505L9.92505 2.1Z" fill="#556EA4" class='xian'/>
<path d="M5 6V8H15V6H5Z" fill="#E2E2EA" class='mian'/>
<path d="M5 20V22H19V20H5Z" fill="#070707" class='mian'/>
<path fill-rule="evenodd" clip-rule="evenodd" d="M15 8.02498H5V7.97498H15V8.02498Z" fill="#686C75" class='xian'/>
<path d="M5 8V10.5H11V8H5Z" fill="#0D0D0D" class='mian'/>
<path d="M13 8V10.5H15V8H13Z" fill="#7192CC" class='xian'/>
<path d="M11 8V10.5H14V8H11Z" fill="#E2E2EA" class='mian'/>
<path d="M5 10.3V10.5H11V10.3H5Z" fill="#7192CC" class='xian'/>
<path fill-rule="evenodd" clip-rule="evenodd" d="M15 10.525H5V10.475H15V10.525Z" fill="#686C75" class='xian'/>
<path d="M5 10.5V13H11V10.5H5Z" fill="#0D0D0D" class='mian'/>
<path d="M13 10.5V13H15V10.5H13Z" fill="#7192CC" class='xian'/>
<path d="M11 10.5V13H14V10.5H11Z" fill="#E2E2EA" class='mian'/>
<path d="M5 12.8V13H11V12.8H5Z" fill="#7192CC" class='xian'/>
<path fill-rule="evenodd" clip-rule="evenodd" d="M15 13.025H5V12.975H15V13.025Z" fill="#686C75" class='xian'/>
<path d="M5 17V20H11V17H5Z" fill="#0D0D0D" class='mian'/>
<path d="M13 17V20H15V17H13Z" fill="#7192CC" class='xian'/>
<path d="M11 17V20H14V17H11Z" fill="#E2E2EA" class='mian'/>
<path d="M5 19.8V20H11V19.8H5Z" fill="#7192CC" class='xian'/>
<path fill-rule="evenodd" clip-rule="evenodd" d="M15 20.025H5V19.975H15V20.025Z" fill="#686C75" class='xian'/>
<path d="M5 13V17H11V13H5Z" fill="#0D0D0D" class='mian'/>
<path d="M7 14.45V15.55C7 15.6605 7.08954 15.75 7.2 15.75H9.55C9.66046 15.75 9.75 15.6605 9.75 15.55V14.45C9.75 14.3395 9.66046 14.25 9.55 14.25H7.2C7.08954 14.25 7 14.3395 7 14.45Z" fill="#4F4F4F" class='xian'/>
<path d="M13 13V17H15V13H13Z" fill="#7192CC" class='xian'/>
<path d="M11 13V17H14V13H11Z" fill="#E2E2EA" class='mian'/>
<path d="M5 16.8V17H11V16.8H5Z" fill="#7192CC" class='xian'/>
<path fill-rule="evenodd" clip-rule="evenodd" d="M15 17.025H5V16.975H15V17.025Z" fill="#686C75" class='mian'/>
<path fill-rule="evenodd" clip-rule="evenodd" d="M4.25 6C4.25 5.58579 4.58579 5.25 5 5.25H15C15.4142 5.25 15.75 5.58579 15.75 6V22C15.75 22.4142 15.4142 22.75 15 22.75H5C4.58579 22.75 4.25 22.4142 4.25 22V6ZM5.75 6.75V21.25H14.25V6.75H5.75Z" fill="#333333" class='xian'/>
<path d="M16 11V21H19V11H16Z" fill="#070707" class='mian'/>
<path d="M15.5 11V21H16.5V11H15.5Z" fill="#D9D9D9" class='mian'/>
<path d="M15 20V22H19V20H15Z" fill="#070707" class='mian'/>
<path d="M16.5 19.8V20H19.5V19.8H16.5Z" fill="#7192CC" class='xian'/>
<path fill-rule="evenodd" clip-rule="evenodd" d="M14.25 11C14.25 10.5858 14.5858 10.25 15 10.25H19C19.4142 10.25 19.75 10.5858 19.75 11V22C19.75 22.4142 19.4142 22.75 19 22.75H15C14.5858 22.75 14.25 22.4142 14.25 22V11ZM15.75 11.75V21.25H18.25V11.75H15.75Z" fill="#333333" class='xian'/>
<path d="M13 4H15V6H13V4Z" fill="#D9D9D9" class='xian'/>
<path fill-rule="evenodd" clip-rule="evenodd" d="M12.25 4C12.25 3.58579 12.5858 3.25 13 3.25H15C15.4142 3.25 15.75 3.58579 15.75 4V6C15.75 6.41421 15.4142 6.75 15 6.75H13C12.5858 6.75 12.25 6.41421 12.25 6V4ZM13.75 4.75V5.25H14.25V4.75H13.75Z" fill="#333333" class='xian'/>
<path d="M6.75 10.2V12.8C6.75 12.9105 6.83954 13 6.95 13H10.55C10.6605 13 10.75 12.9105 10.75 12.8V10.2C10.75 10.0895 10.6605 10 10.55 10H6.95C6.83954 10 6.75 10.0895 6.75 10.2Z" fill="white" class='mian'/>
<path fill-rule="evenodd" clip-rule="evenodd" d="M7 10.25V12.75H10.5V10.25H7ZM6.5 10.2C6.5 9.95147 6.70147 9.75 6.95 9.75H10.55C10.7985 9.75 11 9.95147 11 10.2V12.8C11 13.0485 10.7985 13.25 10.55 13.25H6.95C6.70147 13.25 6.5 13.0485 6.5 12.8V10.2Z" fill="#454643" class='xian'/>
<path d="M9 12.35C9 12.488 8.88807 12.6 8.75 12.6C8.61193 12.6 8.5 12.488 8.5 12.35C8.5 12.2119 8.61193 12.1 8.75 12.1C8.88807 12.1 9 12.2119 9 12.35Z" fill="#333333" class='xian'/>
<path fill-rule="evenodd" clip-rule="evenodd" d="M10.5 12H7V11.5H10.5V12Z" fill="#333333" class='xian'/>
<path fill-rule="evenodd" clip-rule="evenodd" d="M8.67678 10.4532C8.77441 10.5509 8.77441 10.7092 8.67678 10.8068L8.17678 11.3068C8.07915 11.4044 7.92085 11.4044 7.82322 11.3068C7.72559 11.2092 7.72559 11.0509 7.82322 10.9532L8.32322 10.4532C8.42085 10.3556 8.57915 10.3556 8.67678 10.4532Z" fill="#333333" class='xian'/>
<path fill-rule="evenodd" clip-rule="evenodd" d="M9.67678 10.5732C9.77441 10.6709 9.77441 10.8291 9.67678 10.9268L9.42678 11.1768C9.32915 11.2744 9.17085 11.2744 9.07322 11.1768C8.97559 11.0791 8.97559 10.9209 9.07322 10.8232L9.32322 10.5732C9.42085 10.4756 9.57915 10.4756 9.67678 10.5732Z" fill="#333333" class='xian'/>
<defs>
<filter id="filter0_i_2277_145" x="6.94995" y="3.40442" width="3.29993" height="4.09558" filterUnits="userSpaceOnUse" color-interpolation-filters="sRGB">
<feFlood flood-opacity="0" result="BackgroundImageFix"/>
<feBlend mode="normal" in="SourceGraphic" in2="BackgroundImageFix" result="shape"/>
<feColorMatrix in="SourceAlpha" type="matrix" values="0 0 0 0 0 0 0 0 0 0 0 0 0 0 0 0 0 0 127 0" result="hardAlpha"/>
<feOffset dx="-0.25"/>
<feGaussianBlur stdDeviation="0.25"/>
<feComposite in2="hardAlpha" operator="arithmetic" k2="-1" k3="1"/>
<feColorMatrix type="matrix" values="0 0 0 0 0 0 0 0 0 0 0 0 0 0 0 0 0 0 0.25 0"/>
<feBlend mode="normal" in2="shape" result="effect1_innerShadow_2277_145"/>
</filter>
<filter id="filter1_i_2277_145" x="5.05005" y="2.90442" width="3.29993" height="4.09558" filterUnits="userSpaceOnUse" color-interpolation-filters="sRGB">
<feFlood flood-opacity="0" result="BackgroundImageFix"/>
<feBlend mode="normal" in="SourceGraphic" in2="BackgroundImageFix" result="shape"/>
<feColorMatrix in="SourceAlpha" type="matrix" values="0 0 0 0 0 0 0 0 0 0 0 0 0 0 0 0 0 0 127 0" result="hardAlpha"/>
<feOffset dx="-0.25"/>
<feGaussianBlur stdDeviation="0.25"/>
<feComposite in2="hardAlpha" operator="arithmetic" k2="-1" k3="1"/>
<feColorMatrix type="matrix" values="0 0 0 0 0 0 0 0 0 0 0 0 0 0 0 0 0 0 0.25 0"/>
<feBlend mode="normal" in2="shape" result="effect1_innerShadow_2277_145"/>
</filter>
<filter id="filter2_i_2277_145" x="8.75" y="2.90442" width="3.29993" height="4.09558" filterUnits="userSpaceOnUse" color-interpolation-filters="sRGB">
<feFlood flood-opacity="0" result="BackgroundImageFix"/>
<feBlend mode="normal" in="SourceGraphic" in2="BackgroundImageFix" result="shape"/>
<feColorMatrix in="SourceAlpha" type="matrix" values="0 0 0 0 0 0 0 0 0 0 0 0 0 0 0 0 0 0 127 0" result="hardAlpha"/>
<feOffset dx="-0.25"/>
<feGaussianBlur stdDeviation="0.25"/>
<feComposite in2="hardAlpha" operator="arithmetic" k2="-1" k3="1"/>
<feColorMatrix type="matrix" values="0 0 0 0 0 0 0 0 0 0 0 0 0 0 0 0 0 0 0.25 0"/>
<feBlend mode="normal" in2="shape" result="effect1_innerShadow_2277_145"/>
</filter>
</defs>
</svg>
