<svg width="24" height="24" viewBox="0 0 24 24" fill="none" xmlns="http://www.w3.org/2000/svg">
<path d="M2 5V13H9V5H2Z" fill="url(#paint0_linear_2249_4750)" class='mian'/>
<path fill-rule="evenodd" clip-rule="evenodd" d="M1.25 5C1.25 4.58579 1.58579 4.25 2 4.25H9C9.41421 4.25 9.75 4.58579 9.75 5V13C9.75 13.4142 9.41421 13.75 9 13.75H2C1.58579 13.75 1.25 13.4142 1.25 13V5ZM2.75 5.75V12.25H8.25V5.75H2.75Z" fill="#333333" class='xian'/>
<path d="M4.5 3V5H6.5V3H4.5Z" fill="#D9D9D9" class='mian'/>
<path fill-rule="evenodd" clip-rule="evenodd" d="M3.75 3C3.75 2.58579 4.08579 2.25 4.5 2.25H6.5C6.91421 2.25 7.25 2.58579 7.25 3V5C7.25 5.41421 6.91421 5.75 6.5 5.75H4.5C4.08579 5.75 3.75 5.41421 3.75 5V3ZM5.25 3.75V4.25H5.75V3.75H5.25Z" fill="#333333" class='xian'/>
<path d="M11 8V12H18V8H11Z" fill="#DEDEDE" class='mian'/>
<path fill-rule="evenodd" clip-rule="evenodd" d="M18.5 9.45H11V9.25H18.5V9.45Z" fill="#666666"/>
<path fill-rule="evenodd" clip-rule="evenodd" d="M18.5 10.1H11V9.90002H18.5V10.1Z" fill="#333333" class='xian'/>
<path d="M18 8V12H22V8H18Z" fill="#243755" class='xian'/>
<path fill-rule="evenodd" clip-rule="evenodd" d="M10.25 8C10.25 7.58579 10.5858 7.25 11 7.25H22C22.4142 7.25 22.75 7.58579 22.75 8V12C22.75 12.4142 22.4142 12.75 22 12.75H11C10.5858 12.75 10.25 12.4142 10.25 12V8ZM11.75 8.75V11.25H21.25V8.75H11.75Z" fill="#333333" class='xian'/>
<path d="M11 12V21H22V12H11Z" fill="#DEDEDE" class='mian'/>
<path fill-rule="evenodd" clip-rule="evenodd" d="M10.25 12C10.25 11.5858 10.5858 11.25 11 11.25H22C22.4142 11.25 22.75 11.5858 22.75 12V21C22.75 21.4142 22.4142 21.75 22 21.75H11C10.5858 21.75 10.25 21.4142 10.25 21V12ZM11.75 12.75V20.25H21.25V12.75H11.75Z" fill="#333333" class='xian'/>
<path d="M2 10V21H4V14.5L4.5 10H2Z" fill="#D9D9D9" class='mian'/>
<path fill-rule="evenodd" clip-rule="evenodd" d="M1.25 10C1.25 9.58579 1.58579 9.25 2 9.25H4.5C4.71333 9.25 4.91657 9.34085 5.05885 9.49981C5.20112 9.65877 5.26897 9.8708 5.24541 10.0828L4.75 14.5415V21C4.75 21.4142 4.41421 21.75 4 21.75H2C1.58579 21.75 1.25 21.4142 1.25 21V10ZM2.75 10.75V20.25H3.25V14.5C3.25 14.4723 3.25153 14.4447 3.25459 14.4172L3.66205 10.75H2.75Z" fill="#333333" class='xian'/>
<path d="M9 10V21H7V14.5L6.5 10H9Z" fill="#D9D9D9" class='mian'/>
<path fill-rule="evenodd" clip-rule="evenodd" d="M9.75 10C9.75 9.58579 9.41421 9.25 9 9.25H6.5C6.28667 9.25 6.08343 9.34085 5.94115 9.49981C5.79888 9.65877 5.73103 9.8708 5.75459 10.0828L6.25 14.5415V21C6.25 21.4142 6.58579 21.75 7 21.75H9C9.41421 21.75 9.75 21.4142 9.75 21V10ZM8.25 10.75V20.25H7.75V14.5C7.75 14.4723 7.74847 14.4447 7.74541 14.4172L7.33795 10.75H8.25Z" fill="#333333" class='xian'/>
<path d="M20.5 10C20.5 10.4142 20.1642 10.75 19.75 10.75C19.3358 10.75 19 10.4142 19 10C19 9.58579 19.3358 9.25 19.75 9.25C20.1642 9.25 20.5 9.58579 20.5 10Z" fill="#18487D" class='mian'/>
<path d="M20 10C20 10.1381 19.8881 10.25 19.75 10.25C19.6119 10.25 19.5 10.1381 19.5 10C19.5 9.86193 19.6119 9.75 19.75 9.75C19.8881 9.75 20 9.86193 20 10Z" fill="#333333" class='xian'/>
<defs>
<linearGradient id="paint0_linear_2249_4750" x1="5.5" y1="5.5" x2="5.5" y2="12.5" gradientUnits="userSpaceOnUse">
<stop offset="0.0272037" stop-color="#AEB5C0"/>
<stop offset="0.322917" stop-color="white"/>
<stop offset="0.348958" stop-color="white"/>
<stop offset="0.380208" stop-color="white"/>
<stop offset="0.958726" stop-color="#6C6E72"/>
</linearGradient>
</defs>
</svg>
