<svg width="24" height="24" viewBox="0 0 24 24" fill="none" xmlns="http://www.w3.org/2000/svg">
<path d="M2 22H10V19H2V22Z" fill="#435566" class='mian'/>
<path fill-rule="evenodd" clip-rule="evenodd" d="M1.25 19C1.25 18.5858 1.58579 18.25 2 18.25H10C10.4142 18.25 10.75 18.5858 10.75 19V22C10.75 22.4142 10.4142 22.75 10 22.75H2C1.58579 22.75 1.25 22.4142 1.25 22V19ZM2.75 19.75V21.25H9.25V19.75H2.75Z" fill="#333333" class='xian'/>
<path d="M10 22H22V19H10V22Z" fill="#2B3646" class='mian'/>
<path fill-rule="evenodd" clip-rule="evenodd" d="M9.25 19C9.25 18.5858 9.58579 18.25 10 18.25H22C22.4142 18.25 22.75 18.5858 22.75 19V22C22.75 22.4142 22.4142 22.75 22 22.75H10C9.58579 22.75 9.25 22.4142 9.25 22V19ZM10.75 19.75V21.25H21.25V19.75H10.75Z" fill="#333333" class='xian'/>
<path d="M10 19H22V10H10V19Z" fill="#F5F4F7" class='mian'/>
<path fill-rule="evenodd" clip-rule="evenodd" d="M9.25 10C9.25 9.58579 9.58579 9.25 10 9.25H22C22.4142 9.25 22.75 9.58579 22.75 10V19C22.75 19.4142 22.4142 19.75 22 19.75H10C9.58579 19.75 9.25 19.4142 9.25 19V10ZM10.75 10.75V18.25H21.25V10.75H10.75Z" fill="#333333" class='xian'/>
<path d="M2 15H10V12H2V15Z" fill="#435566" class='mian'/>
<path fill-rule="evenodd" clip-rule="evenodd" d="M1.25 12C1.25 11.5858 1.58579 11.25 2 11.25H10C10.4142 11.25 10.75 11.5858 10.75 12V15C10.75 15.4142 10.4142 15.75 10 15.75H2C1.58579 15.75 1.25 15.4142 1.25 15V12ZM2.75 12.75V14.25H9.25V12.75H2.75Z" fill="#333333" class='xian'/>
<path d="M2 19H10V15H2V19Z" fill="#716B68" class='mian'/>
<path fill-rule="evenodd" clip-rule="evenodd" d="M1.25 15C1.25 14.5858 1.58579 14.25 2 14.25H10C10.4142 14.25 10.75 14.5858 10.75 15V19C10.75 19.4142 10.4142 19.75 10 19.75H2C1.58579 19.75 1.25 19.4142 1.25 19V15ZM2.75 15.75V18.25H9.25V15.75H2.75Z" fill="#333333" class='xian'/>
<path d="M10 2C10 1.72386 10.2239 1.5 10.5 1.5L11.5 1.5C11.7761 1.5 12 1.72386 12 2L12 5.5L10 5.5L10 2Z" fill="#333333" class='xian'/>
<path d="M9.5 6.5C9.5 6.22386 9.72386 6 10 6C10.2761 6 10.5 6.22386 10.5 6.5L10.5 11L9.5 11L9.5 6.5Z" fill="#333333" class='xian'/>
<path d="M18 10.5C18 10.2239 18.2239 10 18.5 10C18.7761 10 19 10.2239 19 10.5L19 19L18 19L18 10.5Z" fill="#333333" class='xian'/>
<path d="M15.5 9.7C15.5 9.58954 15.5895 9.5 15.7 9.5L19 9.5L19 10.3C19 10.4105 18.9105 10.5 18.8 10.5L15.7 10.5C15.5895 10.5 15.5 10.4105 15.5 10.3L15.5 9.7Z" fill="#333333" class='xian'/>
<path fill-rule="evenodd" clip-rule="evenodd" d="M9.25 22V13H10.75V22H9.25Z" fill="#333333" class='xian'/>
<path fill-rule="evenodd" clip-rule="evenodd" d="M19.75 6.5L3.65 6.5C3.42909 6.5 3.25 6.32091 3.25 6.1L3.25 5.4C3.25 5.17909 3.42908 5 3.65 5L19.75 5L19.75 6.5Z" fill="#333333" class='xian'/>
<path fill-rule="evenodd" clip-rule="evenodd" d="M8 7.3C8 7.41046 7.91046 7.5 7.8 7.5L2.2 7.5C2.08954 7.5 2 7.41046 2 7.3L2 6.2C2 6.08954 2.08954 6 2.2 6L7.8 6C7.91046 6 8 6.08954 8 6.2L8 7.3Z" fill="#333333" class='xian'/>
<path d="M15.3 6C15.4105 6 15.5 6.08954 15.5 6.2L15.5 8.8C15.5 8.91046 15.4105 9 15.3 9L14.7 9C14.5895 9 14.5 8.91046 14.5 8.8L14.5 6.2C14.5 6.08954 14.5895 6 14.7 6L15.3 6Z" fill="#333333"/>
<path d="M16.8 6C16.9105 6 17 6.08954 17 6.2V7H19V6.2C19 6.08954 19.0895 6 19.2 6H19.8C19.9105 6 20 6.08954 20 6.2V8.8C20 8.91046 19.9105 9 19.8 9H16.2C16.0895 9 16 8.91046 16 8.8V6.2C16 6.08954 16.0895 6 16.2 6H16.8Z" fill="#333333" class='xian'/>
<path d="M11.6 6C11.6828 6 11.75 6.08954 11.75 6.2V7H13.25V6.2C13.25 6.08954 13.3172 6 13.4 6H13.85C13.9328 6 14 6.08954 14 6.2V8.8C14 8.91046 13.9328 9 13.85 9H11.15C11.0672 9 11 8.91046 11 8.8V6.2C11 6.08954 11.0672 6 11.15 6H11.6Z" fill="#333333" class='xian'/>
<path d="M17 8.8C17 8.91046 16.9105 9 16.8 9L15.2 9C15.0895 9 15 8.91046 15 8.8L15 8.2C15 8.08954 15.0895 8 15.2 8L16.8 8C16.9105 8 17 8.08954 17 8.2L17 8.8Z" fill="#333333" class='xian'/>
<path fill-rule="evenodd" clip-rule="evenodd" d="M19.6001 3.7C19.6001 3.58954 19.6896 3.5 19.8001 3.5H21.4001C21.5106 3.5 21.6001 3.58954 21.6001 3.7V6.3C21.6001 6.41046 21.5106 6.5 21.4001 6.5H19.8001C19.6896 6.5 19.6001 6.41046 19.6001 6.3V3.7ZM20.0001 4.04999C20.0001 3.96715 20.0672 3.89999 20.1501 3.89999H21.0501C21.1329 3.89999 21.2001 3.96715 21.2001 4.04999V4.94999C21.2001 5.03284 21.1329 5.09999 21.0501 5.09999H20.1501C20.0672 5.09999 20.0001 5.03284 20.0001 4.94999V4.04999ZM20.6001 5.25C20.324 5.25 20.1001 5.47386 20.1001 5.75C20.1001 6.02614 20.324 6.25 20.6001 6.25C20.8762 6.25 21.1001 6.02614 21.1001 5.75C21.1001 5.47386 20.8762 5.25 20.6001 5.25Z" fill="#333333" class='xian'/>
<path d="M18 9V12H22V9H18Z" fill="#4F4F4F" class='mian'/>
<path fill-rule="evenodd" clip-rule="evenodd" d="M17.25 9C17.25 8.58579 17.5858 8.25 18 8.25H22C22.4142 8.25 22.75 8.58579 22.75 9V12C22.75 12.4142 22.4142 12.75 22 12.75H18C17.5858 12.75 17.25 12.4142 17.25 12V9ZM18.75 9.75V11.25H21.25V9.75H18.75Z" fill="#333333" class='xian'/>
<path d="M18 9.2V11.8C18 11.9105 18.0895 12 18.2 12H21.8C21.9105 12 22 11.9105 22 11.8V9.2C22 9.08954 21.9105 9 21.8 9H18.2C18.0895 9 18 9.08954 18 9.2Z" fill="white" class='mian'/>
<path d="M20.25 11.5C20.25 11.6381 20.1381 11.75 20 11.75C19.8619 11.75 19.75 11.6381 19.75 11.5C19.75 11.3619 19.8619 11.25 20 11.25C20.1381 11.25 20.25 11.3619 20.25 11.5Z" fill="#333333" class='xian'/>
<path fill-rule="evenodd" clip-rule="evenodd" d="M22.5 11H18V10.5H22.5V11Z" fill="#333333" class='xian'/>
<path fill-rule="evenodd" clip-rule="evenodd" d="M19.9268 9.32322C20.0244 9.42085 20.0244 9.57915 19.9268 9.67678L19.4268 10.1768C19.3291 10.2744 19.1709 10.2744 19.0732 10.1768C18.9756 10.0791 18.9756 9.92085 19.0732 9.82322L19.5732 9.32322C19.6709 9.22559 19.8291 9.22559 19.9268 9.32322Z" fill="#333333" class='xian'/>
<path fill-rule="evenodd" clip-rule="evenodd" d="M20.6768 9.57322C20.7744 9.67085 20.7744 9.82915 20.6768 9.92678L20.4268 10.1768C20.3291 10.2744 20.1709 10.2744 20.0732 10.1768C19.9756 10.0791 19.9756 9.92085 20.0732 9.82322L20.3232 9.57322C20.4209 9.47559 20.5791 9.47559 20.6768 9.57322Z" fill="#333333" class='xian'/>
</svg>
