<svg width="24" height="24" viewBox="0 0 24 24" fill="none" xmlns="http://www.w3.org/2000/svg">
<g filter="url(#filter0_i_2277_378)">
<path d="M12.0619 3.09299V5.49991C12.0619 5.61037 11.9724 5.69991 11.8619 5.69991H9.7C9.58954 5.69991 9.5 5.61037 9.5 5.49991V3.09353C9.5 2.93637 9.57389 2.78836 9.69949 2.69391L10.277 2.25964H11.2877L11.8631 2.69389C11.9883 2.78837 12.0619 2.93614 12.0619 3.09299Z" fill="#EBEBEB" class='xian'/>
</g>
<path d="M10.277 1.6C10.277 1.54477 10.3217 1.5 10.377 1.5H11.1849C11.2401 1.5 11.2849 1.54477 11.2849 1.6V2.27312H10.277L10.277 1.6Z" fill="#985649" class='xian'/>
<g filter="url(#filter1_i_2277_378)">
<path d="M7.56191 3.09299V5.49991C7.56191 5.61037 7.47237 5.69991 7.36191 5.69991H5.2C5.08954 5.69991 5 5.61037 5 5.49991V3.09353C5 2.93637 5.07389 2.78836 5.19949 2.69391L5.77699 2.25964H6.78767L7.3631 2.69389C7.4883 2.78837 7.56191 2.93614 7.56191 3.09299Z" fill="#EBEBEB" class='xian'/>
</g>
<path d="M5.77698 1.6C5.77698 1.54477 5.82175 1.5 5.87698 1.5H6.6849C6.74013 1.5 6.7849 1.54477 6.7849 1.6V2.27312H5.77698L5.77698 1.6Z" fill="#985649" class='xian'/>
<path d="M3 5V22H5V5H3Z" fill="#D9D9D9" class='mian'/>
<path d="M5 5V22H7V5H5Z" fill="#416881" class='xian'/>
<path d="M7 5V22H14V5H7Z" fill="#D9D9D9" class='mian'/>
<path fill-rule="evenodd" clip-rule="evenodd" d="M14.5 8.10002H3V7.90002H14.5V8.10002Z" fill="#18191A" class='xian'/>
<path fill-rule="evenodd" clip-rule="evenodd" d="M14.5 12.1H3V11.9H14.5V12.1Z" fill="#18191A" class='xian'/>
<path fill-rule="evenodd" clip-rule="evenodd" d="M14.5 15.1H3V14.9H14.5V15.1Z" fill="#18191A" class='xian'/>
<path d="M8.75 16.7V19.8C8.75 19.9105 8.83954 20 8.95 20H12.05C12.1605 20 12.25 19.9105 12.25 19.8V16.7C12.25 16.5895 12.1605 16.5 12.05 16.5H8.95C8.83954 16.5 8.75 16.5895 8.75 16.7Z" fill="#BEBEBE"/>
<path d="M9 18.45V19.55C9 19.6605 9.08954 19.75 9.2 19.75H11.8C11.9105 19.75 12 19.6605 12 19.55V18.45C12 18.3395 11.9105 18.25 11.8 18.25H9.2C9.08954 18.25 9 18.3395 9 18.45Z" fill="#D5D5D5"/>
<path fill-rule="evenodd" clip-rule="evenodd" d="M2.25 5C2.25 4.58579 2.58579 4.25 3 4.25H14C14.4142 4.25 14.75 4.58579 14.75 5V22C14.75 22.4142 14.4142 22.75 14 22.75H3C2.58579 22.75 2.25 22.4142 2.25 22V5ZM3.75 5.75V21.25H13.25V5.75H3.75Z" fill="#B3B3B3" class='xian'/>
<path d="M17.5 14V22H18.5V14H17.5Z" fill="#D9D9D9" class='mian'/>
<path d="M19 14V22H21V14H19Z" fill="#D9D9D9" class='mian'/>
<path d="M18.25 14V22H19.75V14H18.25Z" fill="#416881" class='xian'/>
<path fill-rule="evenodd" clip-rule="evenodd" d="M16.25 14C16.25 13.5858 16.5858 13.25 17 13.25H21C21.4142 13.25 21.75 13.5858 21.75 14V22C21.75 22.4142 21.4142 22.75 21 22.75H17C16.5858 22.75 16.25 22.4142 16.25 22V14ZM17.75 14.75V21.25H20.25V14.75H17.75Z" fill="#B3B3B3" class='xian'/>
<defs>
<filter id="filter0_i_2277_378" x="9.25" y="2.25964" width="2.81189" height="3.44031" filterUnits="userSpaceOnUse" color-interpolation-filters="sRGB">
<feFlood flood-opacity="0" result="BackgroundImageFix"/>
<feBlend mode="normal" in="SourceGraphic" in2="BackgroundImageFix" result="shape"/>
<feColorMatrix in="SourceAlpha" type="matrix" values="0 0 0 0 0 0 0 0 0 0 0 0 0 0 0 0 0 0 127 0" result="hardAlpha"/>
<feOffset dx="-0.25"/>
<feGaussianBlur stdDeviation="0.25"/>
<feComposite in2="hardAlpha" operator="arithmetic" k2="-1" k3="1"/>
<feColorMatrix type="matrix" values="0 0 0 0 0 0 0 0 0 0 0 0 0 0 0 0 0 0 0.25 0"/>
<feBlend mode="normal" in2="shape" result="effect1_innerShadow_2277_378"/>
</filter>
<filter id="filter1_i_2277_378" x="4.75" y="2.25964" width="2.81189" height="3.44031" filterUnits="userSpaceOnUse" color-interpolation-filters="sRGB">
<feFlood flood-opacity="0" result="BackgroundImageFix"/>
<feBlend mode="normal" in="SourceGraphic" in2="BackgroundImageFix" result="shape"/>
<feColorMatrix in="SourceAlpha" type="matrix" values="0 0 0 0 0 0 0 0 0 0 0 0 0 0 0 0 0 0 127 0" result="hardAlpha"/>
<feOffset dx="-0.25"/>
<feGaussianBlur stdDeviation="0.25"/>
<feComposite in2="hardAlpha" operator="arithmetic" k2="-1" k3="1"/>
<feColorMatrix type="matrix" values="0 0 0 0 0 0 0 0 0 0 0 0 0 0 0 0 0 0 0.25 0"/>
<feBlend mode="normal" in2="shape" result="effect1_innerShadow_2277_378"/>
</filter>
</defs>
</svg>
