<svg width="24" height="24" viewBox="0 0 24 24" fill="none" xmlns="http://www.w3.org/2000/svg">
<path d="M4 2V5H12V2H4Z" fill="#356483" class='mian'/>
<path d="M4 10.5V13H12V10.5H4Z" fill="#356483" class='mian'/>
<path fill-rule="evenodd" clip-rule="evenodd" d="M19.5404 16.197L16.5404 9.19702L17.4596 8.8031L20.4596 15.8031L19.5404 16.197Z" fill="#D2D2CF" class='xian'/>
<path d="M15.0975 12.1964L15.6171 12.4964C15.7128 12.5517 15.8351 12.5189 15.8903 12.4232L19.1903 6.70746C19.2456 6.6118 19.2128 6.48949 19.1171 6.43426L18.5975 6.13426C18.5019 6.07903 18.3795 6.1118 18.3243 6.20746L15.0243 11.9232C14.9691 12.0189 15.0019 12.1412 15.0975 12.1964Z" fill="#3474A0"/>
<path d="M19.1941 6.70106L15.8867 12.4298C15.8335 12.5219 15.7157 12.5534 15.6237 12.5002L19.1237 6.43807C19.2157 6.49123 19.2473 6.60898 19.1941 6.70106Z" fill="#323F50"/>
<path d="M4 13V16H12V13H4Z" fill="#66809B"/>
<path d="M5 13V16H11V13H5Z" fill="#294069"/>
<path d="M6 13.5V15H10V13.5H6Z" fill="#232B32"/>
<path d="M4 5V11H12V5H4Z" fill="#356483" class='mian'/>
<path d="M5 5V11H11V5H5Z" fill="#294069"/>
<path d="M6 6V11H10V6H6Z" fill="#232B32"/>
<path fill-rule="evenodd" clip-rule="evenodd" d="M12 5.10002H4V4.90002H12V5.10002Z" fill="#013150"/>
<path fill-rule="evenodd" clip-rule="evenodd" d="M12 11.1H4V10.9H12V11.1Z" fill="#013150"/>
<path fill-rule="evenodd" clip-rule="evenodd" d="M12 13.1H4V12.9H12V13.1Z" fill="#013150"/>
<path fill-rule="evenodd" clip-rule="evenodd" d="M3.25 2C3.25 1.58579 3.58579 1.25 4 1.25H12C12.4142 1.25 12.75 1.58579 12.75 2V16C12.75 16.4142 12.4142 16.75 12 16.75H4C3.58579 16.75 3.25 16.4142 3.25 16V2ZM4.75 2.75V15.25H11.25V2.75H4.75Z" fill="#B3B3B3" class='xian'/>
<path d="M4 16V22H20V16H4Z" fill="#356483" class='mian'/>
<path d="M5.5 17.45V20.55C5.5 20.6605 5.58954 20.75 5.7 20.75H18.3C18.4105 20.75 18.5 20.6605 18.5 20.55V17.45C18.5 17.3395 18.4105 17.25 18.3 17.25H5.7C5.58954 17.25 5.5 17.3395 5.5 17.45Z" fill="#0F1014"/>
<path d="M5.5 20.5V21H18.5L18.5 20.5C14.192 19.8372 9.80799 19.8372 5.5 20.5Z" fill="#F4F1F0"/>
<path d="M7 10.5V11H9L9 10.5C9 10.2239 8.77614 10 8.5 10H8H7.5C7.22386 10 7 10.2239 7 10.5Z" fill="#F4F1F0"/>
<path fill-rule="evenodd" clip-rule="evenodd" d="M3.25 16C3.25 15.5858 3.58579 15.25 4 15.25H20C20.4142 15.25 20.75 15.5858 20.75 16V22C20.75 22.4142 20.4142 22.75 20 22.75H4C3.58579 22.75 3.25 22.4142 3.25 22V16ZM4.75 16.75V21.25H19.25V16.75H4.75Z" fill="#B3B3B3" class='xian'/>
</svg>
