<svg width="24" height="24" viewBox="0 0 24 24" fill="none" xmlns="http://www.w3.org/2000/svg">
<path d="M15.034 20.5767C15.034 20.5767 10.3749 21.1113 5.84185 17.4319C1.30884 13.7524 3.14122 3.54404 3.14122 3.54404C3.14122 3.54404 10.8915 1.47732 16.5751 5.09411C22.2586 8.71091 20.0897 15.6348 20.0897 15.6348" fill="rgbc(0,0,0,0)" class='mian'/>
<path fill-rule="evenodd" clip-rule="evenodd" d="M3.14123 3.54404C2.37839 3.40711 2.37835 3.40734 2.3783 3.4076L2.37779 3.41045L2.37655 3.4175L2.37221 3.44255C2.36853 3.46405 2.3633 3.49507 2.35679 3.53509C2.34376 3.61513 2.32557 3.73126 2.30424 3.87935C2.26158 4.17543 2.20626 4.59991 2.15452 5.11984C2.05123 6.15788 1.96126 7.5854 2.01713 9.13605C2.07287 10.6828 2.27452 12.379 2.76847 13.943C3.26175 15.5049 4.06312 16.9863 5.35341 18.0336C7.73855 19.9696 10.1624 20.8005 11.9943 21.1457C12.9096 21.3182 13.6785 21.3698 14.224 21.3777C14.4969 21.3817 14.7145 21.3747 14.8672 21.3664C14.9436 21.3622 15.0038 21.3577 15.0467 21.354C15.0682 21.3522 15.0853 21.3505 15.098 21.3493L15.1136 21.3476L15.1189 21.3471L15.1208 21.3469C15.1212 21.3468 15.1224 21.3467 15.034 20.5767L15.1224 21.3467C15.5476 21.2979 15.8528 20.9136 15.804 20.4883C15.7552 20.0633 15.3713 19.7582 14.9463 19.8067L14.9431 19.807L14.9145 19.8096C14.8869 19.812 14.8426 19.8153 14.7828 19.8186C14.663 19.8251 14.4812 19.8312 14.2465 19.8278C13.7767 19.821 13.0974 19.7762 12.2813 19.6225C10.6504 19.3151 8.47816 18.5736 6.33029 16.8301C5.35408 16.0377 4.68461 14.8632 4.24656 13.4762C3.80917 12.0913 3.61898 10.5455 3.56618 9.08024C3.51353 7.61887 3.59834 6.26434 3.69696 5.27333C3.74156 4.82514 3.7888 4.45316 3.82692 4.18151C4.02272 4.1405 4.27302 4.09183 4.56966 4.04191C5.35727 3.90934 6.46621 3.76878 7.74572 3.73758C10.3211 3.67477 13.5018 4.05703 16.159 5.74798C18.7357 7.38769 19.5354 9.76057 19.691 11.7803C19.7692 12.7952 19.6823 13.71 19.5748 14.3723C19.5212 14.7023 19.4631 14.9666 19.4191 15.1455C19.3972 15.2349 19.3789 15.3027 19.3666 15.3465C19.3604 15.3684 19.3558 15.3843 19.3529 15.3938L19.3502 15.4031C19.3501 15.4033 19.3499 15.404 19.3498 15.4042C19.3498 15.4042 19.3499 15.4041 19.3498 15.4042C19.2227 15.8123 19.45 16.2466 19.8581 16.3744C20.2665 16.5023 20.7014 16.2749 20.8293 15.8665L20.0897 15.6348C20.8293 15.8665 20.8292 15.8669 20.8293 15.8665L20.8305 15.8626L20.8325 15.8562L20.8386 15.8358C20.8437 15.819 20.8505 15.7955 20.8588 15.7658C20.8755 15.7064 20.8983 15.622 20.9245 15.515C20.977 15.3011 21.0439 14.9962 21.1048 14.6206C21.2264 13.8716 21.3265 12.8294 21.2365 11.6612C21.0557 9.3148 20.098 6.41734 16.9912 4.44026C13.9648 2.51441 10.4286 2.12163 7.70793 2.18798C6.33942 2.22136 5.15556 2.37143 4.31238 2.51335C3.8903 2.58439 3.55225 2.65362 3.31759 2.70565C3.20022 2.73167 3.1086 2.75342 3.04514 2.76897C3.01341 2.77675 2.98871 2.78298 2.97135 2.78743L2.95083 2.79273L2.94477 2.79432L2.94279 2.79485C2.94251 2.79492 2.94153 2.79518 3.14123 3.54404ZM3.14123 3.54404L2.94153 2.79518C2.65101 2.87265 2.43142 3.11165 2.3783 3.4076L3.14123 3.54404Z" fill="#333333" class='xian'/>
<path fill-rule="evenodd" clip-rule="evenodd" d="M6.41146 6.46755C6.79431 6.27613 7.25984 6.43131 7.45127 6.81415C7.5379 6.98743 7.74567 7.28385 8.10871 7.72757C8.46025 8.15723 8.91853 8.67902 9.46697 9.29198C9.72343 9.57861 9.99875 9.88422 10.2901 10.2077C11.2328 11.254 12.3435 12.4869 13.5272 13.8672C15.0514 15.389 17.0869 17.1706 18.7549 18.582C19.5906 19.2891 20.33 19.8999 20.8603 20.3338C21.1254 20.5507 21.3381 20.7233 21.4843 20.8415C21.5575 20.9006 21.614 20.9461 21.6521 20.9767L21.7086 21.0221L21.2252 21.6279C20.7411 22.2331 20.741 22.2331 20.741 22.2331L20.6809 22.1848C20.6418 22.1534 20.5842 22.107 20.51 22.047C20.3616 21.9271 20.1464 21.7525 19.8787 21.5335C19.3434 21.0955 18.5972 20.4791 17.7537 19.7653C16.0709 18.3414 13.984 16.5161 12.4103 14.9424C12.3962 14.9283 12.3827 14.9138 12.3698 14.8987C11.1926 13.5253 10.0928 12.3045 9.14667 11.2543C8.8528 10.9281 8.57375 10.6183 8.31181 10.3256C7.76229 9.71139 7.28408 9.16752 6.90903 8.70912C6.54549 8.26479 6.23656 7.85077 6.06486 7.50736C5.87343 7.12451 6.02861 6.65897 6.41146 6.46755ZM21.2252 21.6279L20.741 22.2331C21.0752 22.5004 21.563 22.4463 21.8304 22.1121C22.0978 21.7779 22.0429 21.2895 21.7086 21.0221L21.2252 21.6279Z" fill="#333333" class='xian'/>
<path fill-rule="evenodd" clip-rule="evenodd" d="M14.1617 7.50094C14.5446 7.30951 15.0101 7.46469 15.2015 7.84754C15.3817 8.20785 15.5262 8.74865 15.6271 9.32884C15.7313 9.92767 15.8001 10.6341 15.8001 11.3588C15.8001 12.081 15.7318 12.8444 15.5491 13.5478C15.3681 14.2446 15.0601 14.9386 14.5397 15.4591C14.237 15.7617 13.7463 15.7617 13.4436 15.4591C13.141 15.1564 13.141 14.6657 13.4436 14.363C13.6982 14.1084 13.9069 13.7045 14.0488 13.1581C14.1891 12.6181 14.25 11.993 14.25 11.3588C14.25 10.7273 14.1896 10.1097 14.1 9.59443C14.0071 9.06052 13.8933 8.69712 13.8151 8.54075C13.6237 8.1579 13.7789 7.69236 14.1617 7.50094Z" fill="#333333" class='xian'/>
<path fill-rule="evenodd" clip-rule="evenodd" d="M6.06486 13.0144C6.25628 12.6316 6.72182 12.4764 7.10466 12.6678C7.2869 12.7589 7.49212 12.8775 7.67934 12.9857C7.77304 13.0399 7.86222 13.0914 7.94177 13.1356C8.21009 13.2847 8.4867 13.4217 8.81154 13.53C9.44768 13.742 10.3508 13.871 11.7975 13.6299C12.2197 13.5595 12.619 13.8448 12.6894 14.267C12.7598 14.6892 12.4745 15.0885 12.0523 15.1589C10.3989 15.4344 9.23529 15.3051 8.32137 15.0005C7.8712 14.8504 7.50194 14.6645 7.189 14.4906C7.05214 14.4146 6.9394 14.3491 6.83784 14.2901C6.68504 14.2013 6.55759 14.1273 6.41146 14.0542C6.02861 13.8628 5.87343 13.3973 6.06486 13.0144Z" fill="#333333" class='xian'/>
</svg>
