<svg width="24" height="24" viewBox="0 0 24 24" fill="none" xmlns="http://www.w3.org/2000/svg">
<path fill-rule="evenodd" clip-rule="evenodd" d="M1.25 2C1.25 1.58579 1.58579 1.25 2 1.25H4C4.41421 1.25 4.75 1.58579 4.75 2C4.75 2.41421 4.41421 2.75 4 2.75H2.75V4C2.75 4.41421 2.41421 4.75 2 4.75C1.58579 4.75 1.25 4.41421 1.25 4V2Z" fill="#666666" class='xian'/>
<path fill-rule="evenodd" clip-rule="evenodd" d="M22.75 22C22.75 22.4142 22.4142 22.75 22 22.75H20C19.5858 22.75 19.25 22.4142 19.25 22C19.25 21.5858 19.5858 21.25 20 21.25H21.25V20C21.25 19.5858 21.5858 19.25 22 19.25C22.4142 19.25 22.75 19.5858 22.75 20V22Z" fill="#666666" class='xian'/>
<path fill-rule="evenodd" clip-rule="evenodd" d="M22.75 2C22.75 1.58579 22.4142 1.25 22 1.25H20C19.5858 1.25 19.25 1.58579 19.25 2C19.25 2.41421 19.5858 2.75 20 2.75H21.25V4C21.25 4.41421 21.5858 4.75 22 4.75C22.4142 4.75 22.75 4.41421 22.75 4V2Z" fill="#666666" class='xian'/>
<path fill-rule="evenodd" clip-rule="evenodd" d="M1.25 22C1.25 22.4142 1.58579 22.75 2 22.75H4C4.41421 22.75 4.75 22.4142 4.75 22C4.75 21.5858 4.41421 21.25 4 21.25H2.75V20C2.75 19.5858 2.41421 19.25 2 19.25C1.58579 19.25 1.25 19.5858 1.25 20V22Z" fill="#666666" class='xian'/>
<path fill-rule="evenodd" clip-rule="evenodd" d="M2.75 12C2.75 11.5858 3.08579 11.25 3.5 11.25H20.5C20.9142 11.25 21.25 11.5858 21.25 12C21.25 12.4142 20.9142 12.75 20.5 12.75H3.5C3.08579 12.75 2.75 12.4142 2.75 12Z" fill="#666666" class='xian'/>
<path fill-rule="evenodd" clip-rule="evenodd" d="M16.9004 15.489C16.9362 15.531 16.9312 15.5941 16.8891 15.63L15.1133 17.1435C15.0712 17.1793 15.0081 17.1743 14.9723 17.1323C14.9365 17.0902 14.9415 17.0271 14.9835 16.9913L16.7594 15.4778C16.8014 15.4419 16.8646 15.447 16.9004 15.489Z" fill="#104990"  class='mian'/>
<path fill-rule="evenodd" clip-rule="evenodd" d="M17.2789 15.933C17.3147 15.975 17.3097 16.0381 17.2677 16.0739L15.4918 17.5875C15.4498 17.6233 15.3867 17.6183 15.3508 17.5762C15.315 17.5342 15.3201 17.4711 15.3621 17.4352L17.1379 15.9217C17.18 15.8859 17.2431 15.8909 17.2789 15.933Z" fill="#104990" class='mian'/>
<path fill-rule="evenodd" clip-rule="evenodd" d="M15.7654 14.1571C15.8012 14.1992 15.7962 14.2623 15.7541 14.2981L13.9783 15.8116C13.9362 15.8474 13.8731 15.8424 13.8373 15.8004C13.8015 15.7583 13.8065 15.6952 13.8485 15.6594L15.6244 14.1459C15.6664 14.1101 15.7295 14.1151 15.7654 14.1571Z" fill="#104990" class='mian'/>
<path fill-rule="evenodd" clip-rule="evenodd" d="M18.4139 17.2649C18.4497 17.3069 18.4447 17.37 18.4026 17.4058L16.6268 18.9194C16.5847 18.9552 16.5216 18.9502 16.4858 18.9081C16.45 18.8661 16.455 18.803 16.497 18.7672L18.2729 17.2536C18.3149 17.2178 18.378 17.2228 18.4139 17.2649Z" fill="#104990" class='mian'/>
<path fill-rule="evenodd" clip-rule="evenodd" d="M18.7924 17.7088C18.8282 17.7509 18.8232 17.814 18.7812 17.8498L17.0053 19.3633C16.9633 19.3992 16.9002 19.3941 16.8643 19.3521C16.8285 19.3101 16.8335 19.2469 16.8756 19.2111L18.6514 17.6976C18.6935 17.6618 18.7566 17.6668 18.7924 17.7088Z" fill="#104990" class='mian'/>
<path fill-rule="evenodd" clip-rule="evenodd" d="M19.9276 19.0407C19.9634 19.0828 19.9584 19.1459 19.9164 19.1817L18.1405 20.6952C18.0985 20.7311 18.0353 20.726 17.9995 20.684C17.9637 20.642 17.9687 20.5788 18.0108 20.543L19.7866 19.0295C19.8287 18.9937 19.8918 18.9987 19.9276 19.0407Z" fill="#104990" class='mian'/>
<path fill-rule="evenodd" clip-rule="evenodd" d="M17.4824 19.7559C17.1249 19.7599 16.7385 19.667 16.4468 19.3247C16.3035 19.1566 16.3236 18.9041 16.4917 18.7608C16.6599 18.6175 16.9123 18.6377 17.0556 18.8058C17.1423 18.9075 17.2616 18.9583 17.4736 18.956C17.7027 18.9535 17.9711 18.8893 18.3 18.8081C18.3077 18.8062 18.3155 18.8042 18.3234 18.8023C18.6228 18.7283 18.9777 18.6406 19.3093 18.6369C19.6668 18.6329 20.0533 18.7258 20.345 19.0681C20.4883 19.2362 20.4682 19.4887 20.3 19.632C20.1319 19.7753 19.8794 19.7552 19.7361 19.587C19.6495 19.4853 19.5302 19.4345 19.3182 19.4368C19.0891 19.4394 18.8207 19.5035 18.4918 19.5847C18.484 19.5867 18.4762 19.5886 18.4684 19.5905C18.1689 19.6646 17.8141 19.7523 17.4824 19.7559Z" fill="#333333" class='xian'/>
<path fill-rule="evenodd" clip-rule="evenodd" d="M19.0931 18.3832C19.1537 18.0308 19.1232 17.6345 18.8315 17.2922C18.6882 17.1241 18.4357 17.104 18.2676 17.2473C18.0995 17.3906 18.0793 17.643 18.2226 17.8112C18.3093 17.9129 18.3406 18.0387 18.3047 18.2476C18.2659 18.4734 18.16 18.7283 18.0277 19.0401C18.0246 19.0475 18.0214 19.0549 18.0183 19.0624C17.8977 19.3463 17.7549 19.6827 17.6987 20.0096C17.6381 20.362 17.6686 20.7583 17.9603 21.1006C18.1036 21.2687 18.3561 21.2888 18.5242 21.1455C18.6923 21.0022 18.7125 20.7498 18.5692 20.5816C18.4825 20.4799 18.4512 20.3541 18.4871 20.1452C18.5259 19.9194 18.6318 19.6645 18.7641 19.3527C18.7672 19.3453 18.7704 19.3379 18.7735 19.3305C18.8941 19.0465 19.0369 18.7101 19.0931 18.3832Z" fill="#333333" class='xian'/>
<path fill-rule="evenodd" clip-rule="evenodd" d="M14.4554 16.2042C14.0979 16.2082 13.7114 16.1153 13.4197 15.773C13.2764 15.6049 13.2966 15.3524 13.4647 15.2091C13.6328 15.0658 13.8853 15.0859 14.0286 15.2541C14.1153 15.3558 14.2346 15.4066 14.4465 15.4043C14.6756 15.4017 14.944 15.3376 15.2729 15.2564C15.2807 15.2544 15.2885 15.2525 15.2963 15.2506C15.5958 15.1765 15.9506 15.0888 16.2823 15.0852C16.6398 15.0812 17.0263 15.1741 17.318 15.5164C17.4613 15.6845 17.4411 15.937 17.273 16.0803C17.1049 16.2236 16.8524 16.2035 16.7091 16.0353C16.6224 15.9336 16.5031 15.8828 16.2912 15.8851C16.0621 15.8877 15.7936 15.9518 15.4648 16.033C15.457 16.0349 15.4492 16.0369 15.4414 16.0388C15.1419 16.1128 14.7871 16.2005 14.4554 16.2042Z" fill="#333333" class='xian'/>
<path fill-rule="evenodd" clip-rule="evenodd" d="M16.0661 14.8315C16.1267 14.4791 16.0962 14.0828 15.8045 13.7405C15.6612 13.5724 15.4087 13.5523 15.2406 13.6956C15.0724 13.8389 15.0523 14.0913 15.1956 14.2595C15.2823 14.3611 15.3136 14.487 15.2777 14.6959C15.2388 14.9217 15.133 15.1766 15.0007 15.4884C14.9975 15.4958 14.9944 15.5032 14.9912 15.5106C14.8707 15.7946 14.7278 16.131 14.6716 16.4579C14.6111 16.8103 14.6416 17.2066 14.9333 17.5488C15.225 17.8911 15.6114 17.984 15.9689 17.9801C16.3006 17.9764 16.6554 17.8887 16.9549 17.8147C16.9627 17.8127 16.9706 17.8108 16.9783 17.8089C17.3072 17.7276 17.5756 17.6635 17.8047 17.661C18.0167 17.6586 18.136 17.7095 18.2227 17.8112C18.366 17.9793 18.6184 17.9994 18.7866 17.8561C18.9547 17.7128 18.9748 17.4604 18.8315 17.2922C18.5398 16.95 18.1534 16.8571 17.7959 16.861C17.4642 16.8647 17.1094 16.9524 16.8099 17.0264C16.802 17.0284 16.7942 17.0303 16.7865 17.0322C16.4576 17.1135 16.1892 17.1776 15.9601 17.1801C15.7481 17.1825 15.6288 17.1316 15.5421 17.0299C15.4555 16.9282 15.4242 16.8024 15.4601 16.5935C15.4989 16.3676 15.6047 16.1128 15.7371 15.8009C15.7402 15.7936 15.7434 15.7862 15.7465 15.7787C15.8671 15.4948 16.0099 15.1583 16.0661 14.8315Z" fill="#333333" class='xian'/>
<path fill-rule="evenodd" clip-rule="evenodd" d="M16.754 15.4714C16.9222 15.3281 17.1746 15.3483 17.3179 15.5164C17.6096 15.8587 17.6401 16.255 17.5796 16.6073C17.5234 16.9342 17.3805 17.2706 17.26 17.5546C17.2568 17.562 17.2537 17.5694 17.2506 17.5768C17.1182 17.8886 17.0124 18.1435 16.9735 18.3693C16.9376 18.5782 16.9689 18.7041 17.0556 18.8058C17.1989 18.9739 17.1788 19.2264 17.0106 19.3697C16.8425 19.513 16.59 19.4928 16.4467 19.3247C16.155 18.9824 16.1245 18.5861 16.1851 18.2338C16.2413 17.9069 16.3841 17.5704 16.5047 17.2865C16.5079 17.2791 16.511 17.2716 16.5141 17.2643C16.6465 16.9524 16.7523 16.6976 16.7911 16.4718C16.827 16.2629 16.7957 16.137 16.7091 16.0353C16.5658 15.8672 16.5859 15.6147 16.754 15.4714Z" fill="#333333" class='xian'/>
<path d="M16 6.5L14.9999 5.50002L16.9703 3.52962L18.5 4L19 5L18.5 6.5L17 7L16 6.5Z" fill="#4B9F53" class='mian'/>
<path d="M15.005 6.11347L16.3709 6.70023L16.3033 8.23866L15.8135 9.55529L14.7001 9.45368L13.6883 8.23866L14.0533 6.70021L15.005 6.11347Z" fill="white"/>
<path fill-rule="evenodd" clip-rule="evenodd" d="M14.1248 9.75607C13.1949 9.07843 12.9905 7.77531 13.6681 6.84548L15.6509 4.12477C16.3286 3.19494 17.6317 2.99049 18.5615 3.66813C19.4913 4.34577 19.6958 5.64889 19.0181 6.57872L18.9157 6.71925L18.1485 6.41365L18.3716 6.10755C18.789 5.53478 18.6631 4.73208 18.0903 4.31466C17.5176 3.89724 16.7149 4.02317 16.2974 4.59594L14.3147 7.31665C13.8972 7.88942 14.0232 8.69212 14.5959 9.10954C15.133 9.50092 15.8722 9.41462 16.3064 8.93021L16.8751 9.49385C16.1669 10.2547 14.9858 10.3836 14.1248 9.75607Z" fill="#333333" class='xian'/>
<path fill-rule="evenodd" clip-rule="evenodd" d="M14.6597 5.4851C14.7898 5.30657 15.04 5.26731 15.2185 5.39742L16.9189 6.63666C17.0975 6.76677 17.1367 7.01698 17.0066 7.19551C16.8765 7.37404 16.6263 7.4133 16.4478 7.28319L14.7473 6.04395C14.5688 5.91384 14.5295 5.66363 14.6597 5.4851Z" fill="#333333" class='xian'/>
<path d="M18.091 9.89389C16.5001 9.89389 16.1818 8.93935 16.1818 8.93935V7.66664C16.1818 7.66664 16.5 6.7121 18.0909 6.7121C19.6818 6.7121 20 7.66664 20 7.66664L20 8.06923L20 8.93935C20 8.93935 19.6818 9.89389 18.091 9.89389Z" fill="white"/>
<path fill-rule="evenodd" clip-rule="evenodd" d="M16.5588 7.53317C16.4863 7.32806 16.2625 7.21807 16.0552 7.28715C15.8457 7.35701 15.7324 7.58354 15.8023 7.79312L16.1817 7.66663C15.8023 7.79312 15.8023 7.7934 15.8024 7.79368L15.8026 7.79428L15.8031 7.79553L15.804 7.7983L15.8064 7.80492L15.8129 7.82232C15.8181 7.83571 15.8251 7.85261 15.8341 7.87251C15.8521 7.91228 15.8783 7.96431 15.915 8.02435C15.9884 8.14454 16.1041 8.2974 16.2794 8.4476C16.6366 8.75382 17.2086 9.02116 18.0908 9.02116C18.973 9.02116 19.545 8.75382 19.9022 8.4476C20.0775 8.2974 20.1932 8.14454 20.2666 8.02435C20.3033 7.96431 20.3296 7.91228 20.3475 7.87251C20.3565 7.85261 20.3635 7.83571 20.3687 7.82232L20.3752 7.80492L20.3776 7.7983L20.3785 7.79553L20.379 7.79428L20.3792 7.79368C20.3793 7.7934 20.3794 7.79312 19.9999 7.66663L20.3794 7.79312C20.4492 7.58354 20.3359 7.35701 20.1264 7.28715C19.9191 7.21807 19.6953 7.32806 19.6228 7.53317C19.623 7.53277 19.6231 7.5325 19.6231 7.53237C19.6232 7.53207 19.623 7.53253 19.6226 7.5338L19.6217 7.53634L19.6211 7.53807L19.6208 7.53906L19.6206 7.53959C19.6213 7.53744 19.622 7.5353 19.6228 7.53317C19.6222 7.53464 19.6209 7.53791 19.6187 7.54277C19.613 7.55521 19.602 7.57775 19.584 7.60719C19.5481 7.66598 19.4848 7.75175 19.3816 7.84019C19.1821 8.01124 18.7995 8.22116 18.0908 8.22116C17.3821 8.22116 16.9995 8.01124 16.8 7.84019C16.6968 7.75175 16.6335 7.66598 16.5976 7.60719C16.5796 7.57775 16.5686 7.55521 16.5629 7.54277C16.5607 7.53791 16.5594 7.53464 16.5588 7.53317Z" fill="#4D4D4D" class='xian'/>
<path fill-rule="evenodd" clip-rule="evenodd" d="M16.2794 6.88566C16.6367 6.57944 17.2087 6.3121 18.0909 6.3121C18.9731 6.3121 19.5451 6.57944 19.9023 6.88566C20.0775 7.03586 20.1932 7.18872 20.2667 7.30891C20.3034 7.36895 20.3296 7.42098 20.3476 7.46075C20.3566 7.48066 20.3636 7.49756 20.3688 7.51094L20.3753 7.52834L20.3777 7.53496L20.3786 7.53773L20.379 7.53899C20.3791 7.53927 20.3794 7.54014 20 7.66663L20.3794 7.54014C20.393 7.58091 20.3999 7.62361 20.4 7.66658V8.93938C20.4 8.98236 20.393 9.02506 20.3794 9.06584L20 8.93935C20.3794 9.06584 20.3795 9.06556 20.3794 9.06584L20.379 9.067L20.3786 9.06825L20.3777 9.07103L20.3753 9.07765L20.3688 9.09505C20.3636 9.10843 20.3566 9.12533 20.3476 9.14523C20.3296 9.185 20.3034 9.23703 20.2667 9.29708C20.1933 9.41726 20.0776 9.57013 19.9023 9.72032C19.5451 10.0265 18.9731 10.2939 18.0909 10.2939C17.2087 10.2939 16.6368 10.0265 16.2795 9.72033C16.1043 9.57014 15.9885 9.41728 15.9151 9.2971C15.8784 9.23706 15.8521 9.18503 15.8342 9.14527C15.8251 9.12536 15.8182 9.10846 15.813 9.09508L15.8064 9.07769L15.8041 9.07106L15.8031 9.06829L15.8027 9.06704C15.8026 9.06675 15.8023 9.06588 16.1818 8.93935L15.8023 9.06588C15.7887 9.02508 15.7818 8.98236 15.7818 8.93935V7.66663C15.7818 7.62364 15.7887 7.58093 15.8023 7.54014L16.1818 7.66663C15.8023 7.54014 15.8022 7.54043 15.8023 7.54014L15.8027 7.53899L15.8031 7.53773L15.8041 7.53496L15.8064 7.52834L15.813 7.51094C15.8182 7.49756 15.8251 7.48066 15.8341 7.46075C15.8521 7.42098 15.8784 7.36895 15.9151 7.30891C15.9885 7.18872 16.1042 7.03586 16.2794 6.88566ZM16.5818 7.75337V8.8526C16.5863 8.86083 16.5916 8.86997 16.5977 8.8799C16.6336 8.93869 16.6969 9.02446 16.8001 9.11291C16.9997 9.28397 17.3823 9.49389 18.0909 9.49389C18.7996 9.49389 19.1821 9.28397 19.3817 9.11292C19.4849 9.02448 19.5481 8.93871 19.5841 8.87992C19.5901 8.86999 19.5954 8.86085 19.6 8.85261L19.6 7.75339C19.5954 7.74515 19.5901 7.736 19.5841 7.72607C19.5481 7.66728 19.4849 7.58151 19.3817 7.49307C19.1821 7.32202 18.7996 7.1121 18.0909 7.1121C17.3822 7.1121 16.9996 7.32202 16.8001 7.49307C16.6969 7.58151 16.6336 7.66728 16.5977 7.72607C16.5916 7.73599 16.5863 7.74513 16.5818 7.75337Z" fill="#333333" class='xian'/>
<path fill-rule="evenodd" clip-rule="evenodd" d="M18.6075 7.40821C18.7063 7.60581 18.6262 7.84607 18.4286 7.94487L18.1105 8.10396C17.9129 8.20276 17.6726 8.12267 17.5738 7.92507C17.475 7.72748 17.5551 7.48721 17.7527 7.38842L18.0709 7.22933C18.2685 7.13053 18.5087 7.21062 18.6075 7.40821Z" fill="#333333" class='xian'/>
<path d="M5 6.27274C5 5.72046 5.44772 5.27274 6 5.27274H10.5C11.0523 5.27274 11.5 5.72046 11.5 6.27274V9.00002C11.5 9.5523 11.0523 10 10.5 10H6C5.44772 10 5 9.5523 5 9.00002V6.27274Z" fill="white"/>
<path fill-rule="evenodd" clip-rule="evenodd" d="M4.59998 6.27275C4.59998 5.49955 5.22678 4.87275 5.99998 4.87275H10.5C11.2732 4.87275 11.9 5.49955 11.9 6.27275V9.00002C11.9 9.77322 11.2732 10.4 10.5 10.4H5.99998C5.22678 10.4 4.59998 9.77322 4.59998 9.00002V6.27275ZM5.99998 5.67275C5.6686 5.67275 5.39998 5.94138 5.39998 6.27275V9.00002C5.39998 9.33139 5.6686 9.60002 5.99998 9.60002H10.5C10.8313 9.60002 11.1 9.33139 11.1 9.00002V6.27275C11.1 5.94138 10.8313 5.67275 10.5 5.67275H5.99998Z" fill="#333333" class='xian'/>
<path fill-rule="evenodd" clip-rule="evenodd" d="M6.37256 4.5C6.37256 3.7268 6.99936 3.1 7.77256 3.1H8.7271C9.5003 3.1 10.1271 3.7268 10.1271 4.5V5.27273C10.1271 5.49364 9.94802 5.67273 9.7271 5.67273H6.77256C6.55164 5.67273 6.37256 5.49364 6.37256 5.27273V4.5ZM7.77256 3.9C7.44119 3.9 7.17256 4.16863 7.17256 4.5V4.87273H9.3271V4.5C9.3271 4.16863 9.05847 3.9 8.7271 3.9H7.77256Z" fill="#333333" class='xian'/>
<path fill-rule="evenodd" clip-rule="evenodd" d="M6.66791 7.63637C6.66791 7.41545 6.84699 7.23637 7.06791 7.23637H9.43154C9.65246 7.23637 9.83154 7.41545 9.83154 7.63637C9.83154 7.85728 9.65246 8.03637 9.43154 8.03637H7.06791C6.84699 8.03637 6.66791 7.85728 6.66791 7.63637Z" fill="#FD6663" class='mian'/>
<path fill-rule="evenodd" clip-rule="evenodd" d="M8.2499 6.05458C8.47082 6.05458 8.6499 6.23367 8.6499 6.45458L8.6499 8.81822C8.6499 9.03913 8.47082 9.21822 8.2499 9.21822C8.02899 9.21822 7.8499 9.03913 7.8499 8.81822L7.8499 6.45458C7.8499 6.23367 8.02899 6.05458 8.2499 6.05458Z" fill="#FD6663" class='mian'/>
<path fill-rule="evenodd" clip-rule="evenodd" d="M6.22504 15.625C6.22504 14.5066 7.13166 13.6 8.25004 13.6C9.36841 13.6 10.275 14.5066 10.275 15.625C10.275 16.7434 9.36841 17.65 8.25004 17.65C7.13166 17.65 6.22504 16.7434 6.22504 15.625ZM8.25004 14.4C7.57349 14.4 7.02504 14.9484 7.02504 15.625C7.02504 16.3015 7.57349 16.85 8.25004 16.85C8.92659 16.85 9.47504 16.3015 9.47504 15.625C9.47504 14.9484 8.92659 14.4 8.25004 14.4Z" fill="#333333" class='xian'/>
<path fill-rule="evenodd" clip-rule="evenodd" d="M7.85004 18.3333C7.85004 18.1124 8.02912 17.9333 8.25004 17.9333C9.72754 17.9333 10.6472 18.531 11.1917 19.1533C11.4594 19.4592 11.6312 19.7647 11.7367 19.9948C11.7896 20.1102 11.8263 20.2077 11.8503 20.2784C11.8623 20.3138 11.8711 20.3426 11.8773 20.3637C11.8804 20.3742 11.8828 20.3829 11.8846 20.3894L11.8868 20.3978L11.8875 20.4008L11.8878 20.402C11.8878 20.402 11.2403 20.5649 11.8881 20.403C11.9417 20.6173 11.8114 20.8345 11.5971 20.888C11.3829 20.9416 11.1659 20.8115 11.1121 20.5975L11.1125 20.599V20.599L11.1093 20.5877C11.1062 20.577 11.1008 20.5593 11.0927 20.5354C11.0765 20.4876 11.0497 20.4159 11.0095 20.3281C10.9287 20.152 10.7959 19.9158 10.5896 19.6801C10.1862 19.219 9.48087 18.7333 8.25004 18.7333C8.02912 18.7333 7.85004 18.5542 7.85004 18.3333Z" fill="#333333" class='xian'/>
<path fill-rule="evenodd" clip-rule="evenodd" d="M5.38796 20.5974C5.3342 20.8115 5.11717 20.9416 4.90299 20.888C4.68868 20.8345 4.55837 20.6173 4.61195 20.403C5.25977 20.5649 4.61178 20.4036 4.61195 20.403L4.6122 20.402L4.61251 20.4008L4.61328 20.3978L4.61549 20.3894C4.61727 20.3829 4.61968 20.3742 4.62275 20.3637C4.62891 20.3426 4.63778 20.3138 4.64978 20.2784C4.67377 20.2077 4.71045 20.1102 4.76334 19.9948C4.86881 19.7647 5.04068 19.4592 5.30835 19.1533C5.85284 18.531 6.7725 17.9333 8.25001 17.9333C8.47092 17.9333 8.65001 18.1124 8.65001 18.3333C8.65001 18.5542 8.47092 18.7333 8.25001 18.7333C7.01918 18.7333 6.31384 19.219 5.91041 19.6801C5.70413 19.9158 5.57132 20.152 5.49059 20.3281C5.45037 20.4159 5.42358 20.4876 5.40737 20.5354C5.39927 20.5593 5.39386 20.577 5.39075 20.5877L5.38796 20.5974ZM5.38771 20.5984C5.38769 20.5985 5.3877 20.5985 5.38771 20.5984Z" fill="#333333" class='xian'/>
</svg>
