<svg width="24" height="24" viewBox="0 0 24 24" fill="none" xmlns="http://www.w3.org/2000/svg">
<path fill-rule="evenodd" clip-rule="evenodd" d="M3.49996 3.50003C2.76175 3.36752 2.76172 3.36774 2.76167 3.36799L2.76118 3.37076L2.75997 3.37758L2.75578 3.40182C2.75221 3.42262 2.74716 3.45264 2.74085 3.49137C2.72825 3.56883 2.71064 3.6812 2.69 3.82451C2.64872 4.11103 2.59519 4.5218 2.54512 5.02494C2.44516 6.02946 2.3581 7.41088 2.41217 8.91146C2.4661 10.4083 2.66124 12.0497 3.13924 13.5632C3.61659 15.0747 4.39208 16.5082 5.64071 17.5217C7.94883 19.3952 10.2944 20.1992 12.0671 20.5333C12.9529 20.7002 13.697 20.7501 14.2248 20.7578C14.4889 20.7616 14.6995 20.7549 14.8473 20.7468C14.9212 20.7428 14.9795 20.7384 15.021 20.7349C15.0418 20.7331 15.0584 20.7315 15.0706 20.7303L15.0857 20.7287L15.0908 20.7282L15.0927 20.7279C15.0931 20.7279 15.0942 20.7278 15.0087 19.9827L15.0942 20.7278C15.5057 20.6805 15.8011 20.3087 15.7538 19.8972C15.7066 19.4858 15.3351 19.1906 14.9238 19.2375L14.9207 19.2378L14.893 19.2403C14.8664 19.2426 14.8235 19.2459 14.7656 19.249C14.6497 19.2554 14.4737 19.2612 14.2466 19.2579C13.792 19.2513 13.1347 19.2081 12.3449 19.0592C10.7666 18.7618 8.66455 18.0442 6.58604 16.3571C5.64135 15.5902 4.9935 14.4537 4.5696 13.1115C4.14633 11.7713 3.96228 10.2754 3.91119 8.85745C3.86024 7.44328 3.94231 6.13248 4.03775 5.17348C4.08091 4.73976 4.12662 4.37979 4.1635 4.11692C4.35299 4.07723 4.5952 4.03013 4.88226 3.98182C5.64444 3.85353 6.71757 3.71751 7.95576 3.68732C10.448 3.62654 13.5259 3.99645 16.0973 5.6328C18.5908 7.21956 19.3647 9.51581 19.5153 11.4703C19.591 12.4524 19.5069 13.3377 19.4029 13.9786C19.351 14.298 19.2947 14.5537 19.2522 14.7268C19.231 14.8133 19.2133 14.879 19.2014 14.9214C19.1954 14.9426 19.1909 14.9579 19.1882 14.9672L19.1855 14.9762C19.1854 14.9763 19.1852 14.977 19.1851 14.9772C19.1852 14.9771 19.1851 14.9772 19.1851 14.9772C19.0621 15.3721 19.2821 15.7924 19.677 15.9161C20.0722 16.0399 20.4931 15.8198 20.6169 15.4245L19.9012 15.2004C20.6169 15.4245 20.6168 15.4249 20.6169 15.4245L20.618 15.4208L20.6199 15.4146L20.6259 15.3949C20.6307 15.3786 20.6374 15.3559 20.6454 15.3271C20.6616 15.2697 20.6836 15.188 20.709 15.0844C20.7598 14.8774 20.8245 14.5824 20.8835 14.2189C21.0011 13.4941 21.098 12.4856 21.0109 11.3551C20.8359 9.08444 19.9092 6.28054 16.9027 4.3673C13.9741 2.50365 10.552 2.12355 7.91919 2.18776C6.59488 2.22006 5.44924 2.36529 4.63329 2.50262C4.22484 2.57137 3.89771 2.63836 3.67062 2.68871C3.55704 2.71389 3.46838 2.73494 3.40698 2.74999C3.37627 2.75751 3.35237 2.76354 3.33556 2.76785L3.31571 2.77298L3.30984 2.77452L3.30793 2.77503C3.30766 2.7751 3.30671 2.77535 3.49996 3.50003ZM3.49996 3.50003L3.30671 2.77535C3.02557 2.85032 2.81308 3.0816 2.76167 3.36799L3.49996 3.50003Z" fill="#333333"/>
<path fill-rule="evenodd" clip-rule="evenodd" d="M6.5119 6.43057C6.8264 6.161 7.29987 6.19743 7.56944 6.51192L7 7.00001L6.43056 7.48811C6.16099 7.17361 6.19741 6.70014 6.5119 6.43057ZM13.5506 13.4899L7.56944 6.51192L7 7.00001L6.43056 7.48811L12.4306 14.4881C12.443 14.5027 12.4561 14.5168 12.4697 14.5303C13.9926 16.0532 16.0121 17.8196 17.6405 19.1976C18.4569 19.8883 19.1789 20.4847 19.6969 20.9086C19.956 21.1206 20.1642 21.2895 20.3079 21.4056C20.3797 21.4636 20.4354 21.5085 20.4732 21.5389L20.5314 21.5856C20.5314 21.5856 20.5315 21.5857 21 21L20.5314 21.5856C20.8548 21.8443 21.3269 21.792 21.5856 21.4685C21.8444 21.1451 21.792 20.6731 21.4685 20.4144L21.413 20.3698C21.3762 20.3402 21.3215 20.2962 21.2507 20.239C21.1092 20.1246 20.9033 19.9576 20.6468 19.7477C20.1336 19.3278 19.4181 18.7367 18.6095 18.0525C16.9953 16.6867 15.0255 14.9626 13.5506 13.4899Z" fill="#333333"/>
<path fill-rule="evenodd" clip-rule="evenodd" d="M14.3529 7.26459C14.7591 7.18335 15.1542 7.44677 15.2354 7.85294L14.5 8.00002C15.2354 7.85294 15.2354 7.85277 15.2354 7.85294L15.2358 7.85485L15.2366 7.85858L15.2391 7.87142L15.2479 7.91788C15.2555 7.95784 15.266 8.01545 15.2788 8.08864C15.3044 8.23492 15.3389 8.44385 15.3753 8.69864C15.4479 9.20674 15.5292 9.90433 15.5618 10.6549C15.5942 11.4009 15.5799 12.2256 15.45 12.979C15.3237 13.7118 15.0694 14.4913 14.5303 15.0304C14.2374 15.3232 13.7626 15.3232 13.4697 15.0304C13.1768 14.7375 13.1768 14.2626 13.4697 13.9697C13.6806 13.7588 13.8638 13.3508 13.9718 12.7242C14.0763 12.1182 14.0933 11.4117 14.0632 10.7201C14.0333 10.0332 13.9584 9.38706 13.8904 8.91078C13.8564 8.67338 13.8245 8.47997 13.8012 8.34696C13.7896 8.28049 13.7802 8.22922 13.7738 8.1952L13.7666 8.15741L13.7649 8.14872L13.7646 8.14711C13.7645 8.14702 13.7646 8.14713 13.7646 8.14711C13.6835 7.74101 13.9468 7.34581 14.3529 7.26459ZM13.7646 8.14711C13.7645 8.14702 13.7646 8.14713 13.7646 8.14711Z" fill="#333333"/>
<path fill-rule="evenodd" clip-rule="evenodd" d="M7 13C6.55 13.6 6.55026 13.6002 6.55054 13.6004L6.55112 13.6008L6.55244 13.6018L6.55563 13.6042L6.56427 13.6105L6.59049 13.6293C6.6119 13.6444 6.64119 13.6646 6.6781 13.689C6.75189 13.7378 6.85638 13.8036 6.98961 13.8791C7.25575 14.0299 7.63878 14.2209 8.12275 14.3938C9.09154 14.7398 10.4722 15.015 12.1233 14.7398C12.5319 14.6717 12.8079 14.2853 12.7398 13.8767C12.6717 13.4681 12.2853 13.1921 11.8767 13.2602C10.5278 13.485 9.40846 13.2602 8.62725 12.9812C8.23622 12.8415 7.93175 12.6888 7.72913 12.574C7.62799 12.5167 7.5528 12.4692 7.50549 12.4379C7.48185 12.4222 7.46524 12.4107 7.45589 12.4041L7.44738 12.398M7.44732 12.398C7.1161 12.1518 6.64786 12.2195 6.4 12.55C6.15147 12.8814 6.21863 13.3515 6.55 13.6L7 13" fill="#333333"/>
</svg>
