<svg width="24" height="24" viewBox="0 0 24 24" fill="none" xmlns="http://www.w3.org/2000/svg">
<path fill-rule="evenodd" clip-rule="evenodd" d="M12.1754 1.84324C12.5766 1.94634 12.8182 2.35513 12.7151 2.75631C12.1524 4.94608 12.2158 6.36442 12.6515 7.18744L12.6516 7.18747C12.7535 7.37997 12.8605 7.56982 12.9715 7.76618L12.981 7.7829C13.0873 7.97106 13.1978 8.16655 13.3013 8.36166C13.5126 8.76013 13.7185 9.19999 13.8307 9.6695C13.9458 10.1515 13.9634 10.67 13.7961 11.214C13.6305 11.7521 13.3006 12.2609 12.8063 12.7555C12.7915 12.7704 12.776 12.7847 12.7599 12.7983C11.2631 14.063 9.72984 14.1585 8.41723 13.9526C7.85971 13.8652 7.327 13.7209 6.87305 13.5979C6.81028 13.5809 6.74901 13.5643 6.68939 13.5483C6.16528 13.4078 5.79644 13.3238 5.51002 13.3238C5.01047 13.3238 4.46616 13.6034 4.01763 14.2436C3.56935 14.8834 3.25 15.8499 3.25 17.0696C3.25 18.7739 3.56355 20.1418 4.14696 21.2102C4.34547 21.5737 4.21169 22.0294 3.84814 22.2279C3.48459 22.4264 3.02896 22.2926 2.83044 21.9291C2.09558 20.5833 1.75 18.9512 1.75 17.0696C1.75 15.6 2.13351 14.3186 2.78916 13.3828C3.44456 12.4474 4.40526 11.8238 5.51002 11.8238C6.02577 11.8238 6.58338 11.9669 7.0778 12.0995C7.14181 12.1166 7.20553 12.1339 7.26904 12.151C7.72924 12.2754 8.17873 12.3969 8.64966 12.4707C9.67031 12.6308 10.7097 12.5545 11.7675 11.6729C12.1201 11.3148 12.2874 11.0167 12.3624 10.7729C12.4371 10.53 12.4364 10.2891 12.3717 10.0179C12.304 9.73431 12.1686 9.42741 11.9761 9.06445C11.8822 8.88738 11.7803 8.70717 11.6707 8.51323L11.6656 8.50415C11.5558 8.30983 11.4389 8.10271 11.3259 7.8893C10.6155 6.54752 10.6789 4.65341 11.2623 2.38297C11.3654 1.98179 11.7742 1.74015 12.1754 1.84324Z" fill="#333333"/>
<path fill-rule="evenodd" clip-rule="evenodd" d="M15.7032 1.77602C16.1031 1.88417 16.3395 2.29598 16.2314 2.69583C15.8848 3.9773 15.7788 5.0222 15.8546 5.77099C15.9335 6.55062 16.1813 6.8218 16.3354 6.89884C16.6608 7.06151 17.0155 7.0844 17.5248 7.08306C17.5648 7.08296 17.6064 7.08263 17.6495 7.0823C18.0978 7.07879 18.7046 7.07405 19.2785 7.30365C20.9321 7.96506 21.6149 9.73713 21.755 11.4746C21.8983 13.2525 21.5118 15.2775 20.7353 16.8943C19.1271 20.243 15.4803 21.7627 11.8997 21.3138C9.88196 21.0609 8.97011 19.8047 8.34793 18.7268C8.24512 18.5487 8.15477 18.3852 8.07083 18.2332C7.88765 17.9016 7.73499 17.6252 7.54991 17.3733C7.32987 17.0738 7.12943 16.9087 6.89792 16.8311C6.74585 16.8362 6.65544 16.8557 6.58039 16.9088C6.51594 16.9545 6.30698 17.1397 6.23181 17.8565L6.23181 17.8565C6.13566 18.773 6.40201 19.8788 7.14514 21.2025C7.34791 21.5637 7.21949 22.0209 6.8583 22.2236C6.49712 22.4264 6.03994 22.298 5.83716 21.9368C5.00419 20.4531 4.60034 19.0312 4.73999 17.7C4.84162 16.731 5.17383 16.0669 5.7135 15.6847C6.21583 15.329 6.75714 15.3295 6.98159 15.3297C6.98683 15.3297 6.9919 15.3297 6.9968 15.3297C7.05684 15.3297 7.11666 15.3369 7.17499 15.3512C7.91058 15.5311 8.39918 15.9958 8.75874 16.4852C9.00444 16.8196 9.23079 17.2291 9.43482 17.5982C9.50852 17.7315 9.57931 17.8596 9.64705 17.977C10.1898 18.9172 10.7744 19.661 12.0862 19.8255C15.1647 20.2113 18.1099 18.8963 19.3832 16.245C20.0474 14.8619 20.3813 13.102 20.2598 11.5951C20.1351 10.0477 19.5679 9.03495 18.7215 8.69636C18.4317 8.58047 18.1118 8.58139 17.5824 8.58291C17.5648 8.58296 17.5469 8.58301 17.5288 8.58306C17.0202 8.58439 16.3392 8.5778 15.6646 8.24047C14.8186 7.8175 14.4598 6.88611 14.3622 5.92203C14.2616 4.92713 14.4093 3.68721 14.7834 2.30418C14.8916 1.90433 15.3034 1.66787 15.7032 1.77602Z" fill="#333333"/>
<path fill-rule="evenodd" clip-rule="evenodd" d="M18.0676 13.5099C18.4569 13.6515 18.6576 14.0819 18.5159 14.4711C18.1808 15.3919 17.0049 17.8196 14 17.8196C13.5858 17.8196 13.25 17.4839 13.25 17.0696C13.25 16.6554 13.5858 16.3196 14 16.3196C15.9951 16.3196 16.8192 14.7474 17.1064 13.9582C17.248 13.5689 17.6784 13.3682 18.0676 13.5099Z" fill="#333333"/>
</svg>
