<svg width="26" height="26" viewBox="0 0 26 26" fill="none" xmlns="http://www.w3.org/2000/svg">
<rect x="0.95" y="0.95" width="24.1" height="24.1" stroke="black" stroke-width="0.1"/>
<path fill-rule="evenodd" clip-rule="evenodd" d="M23 22.25C23 22.6642 22.6642 23 22.25 23L3.75 23C3.33579 23 3 22.6642 3 22.25C3 21.8358 3.33579 21.5 3.75 21.5L22.25 21.5C22.6642 21.5 23 21.8358 23 22.25Z" fill="#333333"/>
<path d="M23.0191 3.28V5.52C23.0191 5.59734 22.9924 5.66267 22.9391 5.716C22.8831 5.772 22.8164 5.8 22.7391 5.8C22.6617 5.8 22.5964 5.772 22.5431 5.716C22.4871 5.66267 22.4591 5.59734 22.4591 5.52V3.764L22.3191 3.844C22.2524 3.88134 22.1817 3.89067 22.1071 3.872C22.0324 3.85067 21.9751 3.80667 21.9351 3.74C21.8977 3.67334 21.8897 3.60267 21.9111 3.528C21.9297 3.45334 21.9724 3.396 22.0391 3.356L22.5991 3.036C22.6951 2.98267 22.7884 2.98267 22.8791 3.036C22.9724 3.092 23.0191 3.17334 23.0191 3.28Z" fill="#333333"/>
<path d="M20.0506 5.176C20.1893 5.21867 20.3453 5.24 20.5186 5.24C20.708 5.24 20.8613 5.21333 20.9786 5.16C21.0986 5.10933 21.1586 5.04267 21.1586 4.96V4.948V4.936C21.156 4.92533 21.152 4.91467 21.1466 4.904C21.136 4.87733 21.112 4.852 21.0746 4.828C20.9706 4.75867 20.776 4.70933 20.4906 4.68C19.7626 4.60267 19.3986 4.32267 19.3986 3.84C19.3986 3.61067 19.4893 3.41867 19.6706 3.264C19.8733 3.088 20.156 3 20.5186 3C20.956 3 21.2973 3.10933 21.5426 3.328C21.6013 3.37867 21.6333 3.44267 21.6386 3.52C21.644 3.59733 21.62 3.664 21.5666 3.72C21.516 3.77867 21.452 3.81067 21.3746 3.816C21.2973 3.82133 21.2306 3.79733 21.1746 3.744C21.116 3.69333 21.0346 3.652 20.9306 3.62C20.808 3.58 20.6706 3.56 20.5186 3.56C20.348 3.56 20.212 3.58533 20.1106 3.636C20.0093 3.68667 19.9586 3.75467 19.9586 3.84V3.852V3.864C19.9613 3.87733 19.964 3.88933 19.9666 3.9C19.98 3.92933 20.0026 3.956 20.0346 3.98C20.1253 4.04933 20.296 4.096 20.5466 4.12L20.5786 4.124L20.6146 4.128L20.6906 4.14C20.752 4.148 20.8106 4.15733 20.8666 4.168C21.016 4.19733 21.1453 4.23733 21.2546 4.288C21.564 4.42933 21.7186 4.65333 21.7186 4.96C21.7186 5.184 21.6293 5.372 21.4506 5.524C21.2373 5.708 20.9266 5.8 20.5186 5.8C20.044 5.8 19.6773 5.68933 19.4186 5.468C19.36 5.41733 19.3266 5.35467 19.3186 5.28C19.3133 5.20267 19.336 5.13467 19.3866 5.076C19.4373 5.01733 19.5013 4.984 19.5786 4.976C19.6533 4.97067 19.72 4.99333 19.7786 5.044C19.8426 5.09733 19.9333 5.14133 20.0506 5.176Z" fill="#333333"/>
<path d="M18.8311 5.72001C18.7751 5.77334 18.7084 5.80001 18.6311 5.80001C18.5538 5.80001 18.4871 5.77334 18.4311 5.72001C18.3778 5.66401 18.3511 5.59734 18.3511 5.52001V4.08801L17.6511 4.97201C17.5978 5.04134 17.5244 5.07601 17.4311 5.07601C17.3378 5.07601 17.2644 5.04134 17.2111 4.97201L16.5111 4.08801V5.52001C16.5111 5.59734 16.4844 5.66401 16.4311 5.72001C16.3751 5.77334 16.3084 5.80001 16.2311 5.80001C16.1538 5.80001 16.0871 5.77334 16.0311 5.72001C15.9778 5.66401 15.9511 5.59734 15.9511 5.52001V3.28001C15.9511 3.14667 16.0138 3.05868 16.1391 3.01601C16.2644 2.97067 16.3684 3.00134 16.4511 3.10801L17.4311 4.34801L18.4111 3.10801C18.4938 3.00401 18.5978 2.97334 18.7231 3.01601C18.8484 3.05868 18.9111 3.14667 18.9111 3.28001V5.52001C18.9111 5.59734 18.8844 5.66401 18.8311 5.72001Z" fill="#333333"/>
<path fill-rule="evenodd" clip-rule="evenodd" d="M6.25 12.75L6.25 19.25C6.25 19.6642 5.91421 20 5.5 20C5.08579 20 4.75 19.6642 4.75 19.25L4.75 12.75C4.75 12.3358 5.08579 12 5.5 12C5.91421 12 6.25 12.3358 6.25 12.75Z" fill="#333333"/>
<path fill-rule="evenodd" clip-rule="evenodd" d="M9.25 7.25L9.25 19.25C9.25 19.6642 8.91421 20 8.5 20C8.08579 20 7.75 19.6642 7.75 19.25L7.75 7.25C7.75 6.83579 8.08579 6.5 8.5 6.5C8.91421 6.5 9.25 6.83579 9.25 7.25Z" fill="#333333"/>
<path fill-rule="evenodd" clip-rule="evenodd" d="M12.25 11.25L12.25 19.25C12.25 19.6642 11.9142 20 11.5 20C11.0858 20 10.75 19.6642 10.75 19.25L10.75 11.25C10.75 10.8358 11.0858 10.5 11.5 10.5C11.9142 10.5 12.25 10.8358 12.25 11.25Z" fill="#333333"/>
<path fill-rule="evenodd" clip-rule="evenodd" d="M15.25 15.25L15.25 19.25C15.25 19.6642 14.9142 20 14.5 20C14.0858 20 13.75 19.6642 13.75 19.25L13.75 15.25C13.75 14.8358 14.0858 14.5 14.5 14.5C14.9142 14.5 15.25 14.8358 15.25 15.25Z" fill="#333333"/>
<path fill-rule="evenodd" clip-rule="evenodd" d="M18.25 14.25L18.25 19.25C18.25 19.6642 17.9142 20 17.5 20C17.0858 20 16.75 19.6642 16.75 19.25L16.75 14.25C16.75 13.8358 17.0858 13.5 17.5 13.5C17.9142 13.5 18.25 13.8358 18.25 14.25Z" fill="#333333"/>
<path fill-rule="evenodd" clip-rule="evenodd" d="M21.25 10.25L21.25 19.25C21.25 19.6642 20.9142 20 20.5 20C20.0858 20 19.75 19.6642 19.75 19.25L19.75 10.25C19.75 9.83579 20.0858 9.5 20.5 9.5C20.9142 9.5 21.25 9.83579 21.25 10.25Z" fill="#333333"/>
</svg>
