<svg width="26" height="26" viewBox="0 0 26 26" fill="none" xmlns="http://www.w3.org/2000/svg">
<rect x="0.95" y="0.95" width="24.1" height="24.1" stroke="black" stroke-width="0.1"/>
<path fill-rule="evenodd" clip-rule="evenodd" d="M23 22.25C23 22.6642 22.6642 23 22.25 23L3.75 23C3.33579 23 3 22.6642 3 22.25C3 21.8358 3.33579 21.5 3.75 21.5L22.25 21.5C22.6642 21.5 23 21.8358 23 22.25Z" fill="#333333"/>
<path d="M22.8965 5.32C22.9525 5.376 22.9805 5.44267 22.9805 5.52C22.9805 5.59733 22.9525 5.66267 22.8965 5.716C22.8432 5.772 22.7779 5.8 22.7005 5.8H20.7805C20.7032 5.8 20.6365 5.772 20.5805 5.716C20.5272 5.66267 20.5005 5.59733 20.5005 5.52C20.5005 5.20533 20.6499 4.95333 20.9485 4.764C21.0632 4.692 21.2019 4.62667 21.3645 4.568C21.4285 4.54667 21.5005 4.524 21.5805 4.5L21.6845 4.472L21.7805 4.444L21.8645 4.42L21.9445 4.4C22.0005 4.38133 22.0485 4.36533 22.0885 4.352C22.2299 4.304 22.3259 4.23867 22.3765 4.156C22.3952 4.12667 22.4072 4.096 22.4125 4.064C22.4152 4.05333 22.4179 4.04133 22.4205 4.028V4.012V4C22.4205 3.87733 22.3539 3.77333 22.2205 3.688C22.0899 3.60267 21.9299 3.56 21.7405 3.56C21.5912 3.56 21.4432 3.592 21.2965 3.656C21.1632 3.71467 21.0605 3.784 20.9885 3.864C20.9379 3.92267 20.8739 3.95467 20.7965 3.96C20.7192 3.96533 20.6512 3.94267 20.5925 3.892C20.5365 3.83867 20.5059 3.77333 20.5005 3.696C20.4952 3.62133 20.5179 3.55467 20.5685 3.496C20.6992 3.34667 20.8725 3.22667 21.0885 3.136C21.3019 3.04533 21.5192 3 21.7405 3C22.0925 3 22.3872 3.096 22.6245 3.288C22.8619 3.47733 22.9805 3.71467 22.9805 4C22.9805 4.20267 22.9192 4.38 22.7965 4.532C22.6712 4.68667 22.4965 4.80267 22.2725 4.88C22.2085 4.904 22.0952 4.93867 21.9325 4.984C21.5912 5.07733 21.3605 5.16267 21.2405 5.24H22.7005C22.7779 5.24 22.8432 5.26667 22.8965 5.32Z" fill="#333333"/>
<path d="M18.6241 5.176C18.7627 5.21867 18.9187 5.24 19.0921 5.24C19.2814 5.24 19.4347 5.21333 19.5521 5.16C19.6721 5.10933 19.7321 5.04267 19.7321 4.96V4.948V4.936C19.7294 4.92533 19.7254 4.91467 19.7201 4.904C19.7094 4.87733 19.6854 4.852 19.6481 4.828C19.5441 4.75867 19.3494 4.70933 19.0641 4.68C18.3361 4.60267 17.9721 4.32267 17.9721 3.84C17.9721 3.61067 18.0627 3.41867 18.2441 3.264C18.4467 3.088 18.7294 3 19.0921 3C19.5294 3 19.8707 3.10933 20.1161 3.328C20.1747 3.37867 20.2067 3.44267 20.2121 3.52C20.2174 3.59733 20.1934 3.664 20.1401 3.72C20.0894 3.77867 20.0254 3.81067 19.9481 3.816C19.8707 3.82133 19.8041 3.79733 19.7481 3.744C19.6894 3.69333 19.6081 3.652 19.5041 3.62C19.3814 3.58 19.2441 3.56 19.0921 3.56C18.9214 3.56 18.7854 3.58533 18.6841 3.636C18.5827 3.68667 18.5321 3.75467 18.5321 3.84V3.852V3.864C18.5347 3.87733 18.5374 3.88933 18.5401 3.9C18.5534 3.92933 18.5761 3.956 18.6081 3.98C18.6987 4.04933 18.8694 4.096 19.1201 4.12L19.1521 4.124L19.1881 4.128L19.2641 4.14C19.3254 4.148 19.3841 4.15733 19.4401 4.168C19.5894 4.19733 19.7187 4.23733 19.8281 4.288C20.1374 4.42933 20.2921 4.65333 20.2921 4.96C20.2921 5.184 20.2027 5.372 20.0241 5.524C19.8107 5.708 19.5001 5.8 19.0921 5.8C18.6174 5.8 18.2507 5.68933 17.9921 5.468C17.9334 5.41733 17.9001 5.35467 17.8921 5.28C17.8867 5.20267 17.9094 5.13467 17.9601 5.076C18.0107 5.01733 18.0747 4.984 18.1521 4.976C18.2267 4.97067 18.2934 4.99333 18.3521 5.044C18.4161 5.09733 18.5067 5.14133 18.6241 5.176Z" fill="#333333"/>
<path d="M17.4045 5.72001C17.3485 5.77334 17.2819 5.80001 17.2045 5.80001C17.1272 5.80001 17.0605 5.77334 17.0045 5.72001C16.9512 5.66401 16.9245 5.59734 16.9245 5.52001V4.08801L16.2245 4.97201C16.1712 5.04134 16.0979 5.07601 16.0045 5.07601C15.9112 5.07601 15.8379 5.04134 15.7845 4.97201L15.0845 4.08801V5.52001C15.0845 5.59734 15.0579 5.66401 15.0045 5.72001C14.9485 5.77334 14.8819 5.80001 14.8045 5.80001C14.7272 5.80001 14.6605 5.77334 14.6045 5.72001C14.5512 5.66401 14.5245 5.59734 14.5245 5.52001V3.28001C14.5245 3.14667 14.5872 3.05868 14.7125 3.01601C14.8379 2.97067 14.9419 3.00134 15.0245 3.10801L16.0045 4.34801L16.9845 3.10801C17.0672 3.00401 17.1712 2.97334 17.2965 3.01601C17.4219 3.05868 17.4845 3.14667 17.4845 3.28001V5.52001C17.4845 5.59734 17.4579 5.66401 17.4045 5.72001Z" fill="#333333"/>
<path fill-rule="evenodd" clip-rule="evenodd" d="M6.25 12.75L6.25 19.25C6.25 19.6642 5.91421 20 5.5 20C5.08579 20 4.75 19.6642 4.75 19.25L4.75 12.75C4.75 12.3358 5.08579 12 5.5 12C5.91421 12 6.25 12.3358 6.25 12.75Z" fill="#333333"/>
<path fill-rule="evenodd" clip-rule="evenodd" d="M9.25 7.25L9.25 19.25C9.25 19.6642 8.91421 20 8.5 20C8.08579 20 7.75 19.6642 7.75 19.25L7.75 7.25C7.75 6.83579 8.08579 6.5 8.5 6.5C8.91421 6.5 9.25 6.83579 9.25 7.25Z" fill="#333333"/>
<path fill-rule="evenodd" clip-rule="evenodd" d="M12.25 11.25L12.25 19.25C12.25 19.6642 11.9142 20 11.5 20C11.0858 20 10.75 19.6642 10.75 19.25L10.75 11.25C10.75 10.8358 11.0858 10.5 11.5 10.5C11.9142 10.5 12.25 10.8358 12.25 11.25Z" fill="#333333"/>
<path fill-rule="evenodd" clip-rule="evenodd" d="M15.25 15.25L15.25 19.25C15.25 19.6642 14.9142 20 14.5 20C14.0858 20 13.75 19.6642 13.75 19.25L13.75 15.25C13.75 14.8358 14.0858 14.5 14.5 14.5C14.9142 14.5 15.25 14.8358 15.25 15.25Z" fill="#333333"/>
<path fill-rule="evenodd" clip-rule="evenodd" d="M18.25 14.25L18.25 19.25C18.25 19.6642 17.9142 20 17.5 20C17.0858 20 16.75 19.6642 16.75 19.25L16.75 14.25C16.75 13.8358 17.0858 13.5 17.5 13.5C17.9142 13.5 18.25 13.8358 18.25 14.25Z" fill="#333333"/>
<path fill-rule="evenodd" clip-rule="evenodd" d="M21.25 10.25L21.25 19.25C21.25 19.6642 20.9142 20 20.5 20C20.0858 20 19.75 19.6642 19.75 19.25L19.75 10.25C19.75 9.83579 20.0858 9.5 20.5 9.5C20.9142 9.5 21.25 9.83579 21.25 10.25Z" fill="#333333"/>
</svg>
