<svg width="24" height="24" viewBox="0 0 24 24" fill="none" xmlns="http://www.w3.org/2000/svg">
<path fill-rule="evenodd" clip-rule="evenodd" d="M1.75 1C1.75 0.861929 1.86193 0.75 2 0.75H17C17.1381 0.75 17.25 0.861929 17.25 1V5.68622C17.25 5.8243 17.1381 5.93622 17 5.93622C16.8619 5.93622 16.75 5.8243 16.75 5.68622V1.25H2.25V22.75H13.7594L13.75 20.0009C13.7498 19.9344 13.776 19.8706 13.8229 19.8235C13.8698 19.7765 13.9335 19.75 14 19.75H19.75V17.25H17C16.8619 17.25 16.75 17.1381 16.75 17V10C16.75 9.86193 16.8619 9.75 17 9.75C17.1381 9.75 17.25 9.86193 17.25 10V16.75H20C20.1381 16.75 20.25 16.8619 20.25 17V20C20.25 20.1381 20.1381 20.25 20 20.25H14.2509L14.2602 22.9991C14.2604 23.0656 14.2342 23.1294 14.1873 23.1765C14.1404 23.2235 14.0767 23.25 14.0102 23.25H2C1.86193 23.25 1.75 23.1381 1.75 23V1Z" fill="#333333"/>
<path fill-rule="evenodd" clip-rule="evenodd" d="M16.75 7C16.75 6.86193 16.8619 6.75 17 6.75H22C22.1381 6.75 22.25 6.86193 22.25 7V9C22.25 9.13807 22.1381 9.25 22 9.25H17C16.8619 9.25 16.75 9.13807 16.75 9V7ZM17.25 7.25V8.75H21.75V7.25H17.25Z" fill="#333333"/>
<path fill-rule="evenodd" clip-rule="evenodd" d="M10.5051 19.4082C10.5051 19.2701 10.6171 19.1582 10.7551 19.1582H11.8776C12.0157 19.1582 12.1276 19.2701 12.1276 19.4082V20.9796C12.1276 21.1177 12.0157 21.2296 11.8776 21.2296H10.7551C10.6171 21.2296 10.5051 21.1177 10.5051 20.9796V19.4082ZM11.0051 19.6582V20.7296H11.6276V19.6582H11.0051Z" fill="#333333"/>
<path d="M14.3469 17.3878H12.3265V18.0612H14.3469V17.3878Z" fill="#666666"/>
<path fill-rule="evenodd" clip-rule="evenodd" d="M12.0765 17.3878C12.0765 17.2497 12.1885 17.1378 12.3265 17.1378H14.3469C14.485 17.1378 14.5969 17.2497 14.5969 17.3878V18.0612C14.5969 18.1993 14.485 18.3112 14.3469 18.3112H12.3265C12.1885 18.3112 12.0765 18.1993 12.0765 18.0612V17.3878ZM12.5765 17.6378V17.8112H14.0969V17.6378H12.5765Z" fill="#333333"/>
<path fill-rule="evenodd" clip-rule="evenodd" d="M3.3214 2.7959C3.3214 2.65783 3.43332 2.5459 3.5714 2.5459H14.9081C15.0462 2.5459 15.1581 2.65783 15.1581 2.7959C15.1581 2.93397 15.0462 3.0459 14.9081 3.0459H3.5714C3.43332 3.0459 3.3214 2.93397 3.3214 2.7959Z" fill="#333333"/>
<path fill-rule="evenodd" clip-rule="evenodd" d="M1.77969 20.3061C1.77969 20.0852 1.95878 19.9061 2.17969 19.9061H10.543C10.7639 19.9061 10.943 20.0852 10.943 20.3061C10.943 20.527 10.7639 20.7061 10.543 20.7061H2.17969C1.95878 20.7061 1.77969 20.527 1.77969 20.3061Z" fill="#333333"/>
<path fill-rule="evenodd" clip-rule="evenodd" d="M7.44352 8.41975C6.80768 11.1852 6.36839 15.1669 6.24993 20.0061L5.75008 19.9939C5.86898 15.1364 6.31007 11.1181 6.95624 8.30772C7.27885 6.90458 7.65576 5.78815 8.07755 5.01649C8.488 4.26558 8.9925 3.75 9.60466 3.75C9.88566 3.75 10.1348 3.88864 10.3479 4.09611C10.5605 4.30306 10.7559 4.59561 10.9372 4.95054C11.3003 5.66137 11.6326 6.67425 11.9292 7.90443C12.5234 10.3688 12.9865 13.7588 13.2494 17.4824L12.7506 17.5176C12.4888 13.8093 12.0284 10.4492 11.4432 8.02162C11.15 6.80579 10.8287 5.83716 10.492 5.17798C10.3234 4.84791 10.1573 4.60832 9.99918 4.45439C9.8416 4.30099 9.71074 4.25 9.60466 4.25C9.29487 4.25 8.91748 4.52233 8.51628 5.25631C8.12643 5.96954 7.76192 7.03498 7.44352 8.41975Z" fill="#333333"/>
</svg>
