<svg width="24" height="24" viewBox="0 0 24 24" fill="none" xmlns="http://www.w3.org/2000/svg">
<path d="M2 3V21H8V3H2Z" fill="#2E5A75" stroke="#333333" stroke-width="1.5" stroke-linecap="round" stroke-linejoin="round"/>
<path d="M15 3V21H22V3H15Z" fill="#2E5A75" stroke="#333333" stroke-width="1.5" stroke-linecap="round" stroke-linejoin="round"/>
<path d="M8 11V3H16V11C16 11 17 12 17 13.5C17 15 16 16 16 16V21H8V16C8 16 7 15 7 13.5C7 12 8 11 8 11Z" fill="#DEDEDE" stroke="#333333" stroke-width="1.5" stroke-linecap="round" stroke-linejoin="round"/>
<circle cx="12" cy="13.5" r="1.5" stroke="#333333" stroke-width="1.5"/>
<path d="M11 9.5C11 9.22386 11.2239 9 11.5 9H12.5C12.7761 9 13 9.22386 13 9.5V12H11V9.5Z" fill="#333333"/>
<path d="M13 16.5C13 16.7761 12.7761 17 12.5 17L11.5 17C11.2239 17 11 16.7761 11 16.5L11 15L13 15L13 16.5Z" fill="#333333"/>
<path d="M11.5 8.2C11.5 8.08954 11.5895 8 11.7 8H12.3C12.4105 8 12.5 8.08954 12.5 8.2V11H11.5V8.2Z" fill="#333333"/>
<path d="M2 3V21H8V3H2Z" fill="#2E5A75" stroke="#333333" stroke-width="1.5" stroke-linecap="round" stroke-linejoin="round"/>
<path d="M16 3V21H22V3H16Z" fill="#2E5A75" stroke="#333333" stroke-width="1.5" stroke-linecap="round" stroke-linejoin="round"/>
<path d="M8 11V3H16V11C16 11 17 12 17 13.5C17 15 16 16 16 16V21H8V16C8 16 7 15 7 13.5C7 12 8 11 8 11Z" fill="#DEDEDE" stroke="#333333" stroke-width="1.5" stroke-linecap="round" stroke-linejoin="round"/>
<circle cx="12" cy="13.5" r="1.5" stroke="#333333" stroke-width="1.5"/>
<path d="M11 9.5C11 9.22386 11.2239 9 11.5 9H12.5C12.7761 9 13 9.22386 13 9.5V12H11V9.5Z" fill="#333333"/>
<path d="M13 16.5C13 16.7761 12.7761 17 12.5 17L11.5 17C11.2239 17 11 16.7761 11 16.5L11 15L13 15L13 16.5Z" fill="#333333"/>
<path d="M11.5 8.2C11.5 8.08954 11.5895 8 11.7 8H12.3C12.4105 8 12.5 8.08954 12.5 8.2V11H11.5V8.2Z" fill="#333333"/>
<path d="M5 4.99999C4.17157 4.99999 3.5 5.67156 3.5 6.49999C3.5 6.94424 3.69313 7.34338 4 7.61804L4 9L6 9L6 7.61804C6.30687 7.34338 6.5 6.94424 6.5 6.49999C6.5 5.67156 5.82843 4.99999 5 4.99999Z" fill="#2E5A75" stroke="#333333" stroke-width="0.5" stroke-linejoin="round"/>
<path d="M5 8.49999C4.17157 8.49999 3.5 9.17156 3.5 9.99999C3.5 10.4442 3.69313 10.8434 4 11.118L4 12.5L6 12.5L6 11.118C6.30687 10.8434 6.5 10.4442 6.5 9.99999C6.5 9.17156 5.82843 8.49999 5 8.49999Z" fill="#2E5A75" stroke="#333333" stroke-width="0.5" stroke-linejoin="round"/>
<path d="M18.5 5H20.5" stroke="#73E2C9" stroke-width="0.5" stroke-linecap="round" stroke-linejoin="round"/>
<path d="M18.5 6H20.5" stroke="#73E2C9" stroke-width="0.5" stroke-linecap="round" stroke-linejoin="round"/>
<path d="M18.5 7H20.5" stroke="#73E2C9" stroke-width="0.5" stroke-linecap="round" stroke-linejoin="round"/>
<path d="M18.5 8H20.5" stroke="#2038EB" stroke-width="0.5" stroke-linecap="round" stroke-linejoin="round"/>
<path d="M18.5 9H20.5" stroke="#A4A4A4" stroke-width="0.5" stroke-linecap="round" stroke-linejoin="round"/>
<circle cx="5" cy="6.5" r="0.75" fill="#C7C7BE"/>
<circle cx="4.7" cy="7.7" r="0.2" fill="#68CEAC"/>
<circle cx="5.3001" cy="7.7" r="0.2" fill="#68CEAC"/>
<path d="M18 15.5C18 15.2239 18.2239 15 18.5 15H19.5C19.7761 15 20 15.2239 20 15.5V17.5C20 17.7761 19.7761 18 19.5 18H18.5C18.2239 18 18 17.7761 18 17.5V15.5Z" fill="#2D383E"/>
</svg>
