<svg width="24" height="24" viewBox="0 0 24 24" fill="none" xmlns="http://www.w3.org/2000/svg">
<path d="M22 22H2V2H22V22Z" stroke="#333333" stroke-width="1.5" stroke-linecap="round" stroke-linejoin="round"/>
<path d="M17.4628 8.82844C17.8533 8.43792 17.8533 7.80476 17.4628 7.41423" stroke="#333333" stroke-width="1.5" stroke-linecap="round"/>
<path d="M6.53548 8.82844C6.14495 8.43792 6.14495 7.80476 6.53548 7.41423" stroke="#333333" stroke-width="1.5" stroke-linecap="round"/>
<path d="M18.8787 10.2427C20.0503 9.07109 20.0503 7.17159 18.8787 6.00002" stroke="#333333" stroke-width="1.5" stroke-linecap="round"/>
<path d="M5.12132 10.2427C3.94975 9.07109 3.94975 7.17159 5.12132 6.00002" stroke="#333333" stroke-width="1.5" stroke-linecap="round"/>
<path d="M9 7.375V5.5H15V7.375M9 7.375H15M9 7.375H9.75V16.0833C9.75 16.5161 9.89036 16.9371 10.15 17.2833L11.2 18.6833C11.6 19.2167 12.4 19.2167 12.8 18.6833L13.85 17.2833C14.1096 16.9371 14.25 16.5161 14.25 16.0833V7.375H15" stroke="#333333" stroke-width="1.5" stroke-linejoin="round"/>
</svg>
