<svg width="24" height="24" viewBox="0 0 24 24" fill="none" xmlns="http://www.w3.org/2000/svg">
<path d="M22 21.5H2V2.5H22V21.5Z" stroke="#333333" stroke-width="1.5" stroke-linejoin="round"/>
<path d="M15.6464 11.1464C15.4512 11.3417 15.4512 11.6583 15.6464 11.8536C15.8417 12.0488 16.1583 12.0488 16.3536 11.8536L15.6464 11.1464ZM8.35355 11.8536C8.54882 11.6583 8.54882 11.3417 8.35355 11.1464C8.15829 10.9512 7.84171 10.9512 7.64645 11.1464L8.35355 11.8536ZM20.3536 11.8536C20.7106 11.4965 21.2894 11.4965 21.6464 11.8536L22.3536 11.1464C21.606 10.3989 20.394 10.3989 19.6464 11.1464L20.3536 11.8536ZM3.64645 11.1464C3.28942 11.5035 2.71058 11.5035 2.35355 11.1464L1.64645 11.8536C2.39399 12.6011 3.60601 12.6011 4.35355 11.8536L3.64645 11.1464ZM6.35355 11.1464C5.60601 10.3989 4.39399 10.3989 3.64645 11.1464L4.35355 11.8536C4.71058 11.4965 5.28942 11.4965 5.64645 11.8536L6.35355 11.1464ZM18.3536 11.1464C17.606 10.3989 16.394 10.3989 15.6464 11.1464L16.3536 11.8536C16.7106 11.4965 17.2894 11.4965 17.6464 11.8536L18.3536 11.1464ZM17.6464 11.8536C18.394 12.6011 19.606 12.6011 20.3536 11.8536L19.6464 11.1464C19.2894 11.5035 18.7106 11.5035 18.3536 11.1464L17.6464 11.8536ZM5.64645 11.8536C6.39399 12.6011 7.60601 12.6011 8.35355 11.8536L7.64645 11.1464C7.28942 11.5035 6.71058 11.5035 6.35355 11.1464L5.64645 11.8536Z" fill="#333333"/>
<path d="M9.5 18H14.5C15.0523 18 15.5 17.5523 15.5 17V10.3333C15.5 9.78105 15.0523 9.33333 14.5 9.33333H13.5351C13.5157 9.33333 13.5 9.31762 13.5 9.29825V8.33333C13.5 8.14924 13.6492 8 13.8333 8C14.0174 8 14.1667 7.85076 14.1667 7.66667V6.42553C14.1667 6.19052 13.9761 6 13.7411 6H10.2589C10.0239 6 9.83333 6.19052 9.83333 6.42553V7.66667C9.83333 7.85076 9.98257 8 10.1667 8C10.3508 8 10.5 8.14924 10.5 8.33333V9.29825C10.5 9.31762 10.4843 9.33333 10.4649 9.33333H9.5C8.94772 9.33333 8.5 9.78105 8.5 10.3333V17C8.5 17.5523 8.94772 18 9.5 18Z" stroke="#333333" stroke-width="1.5" stroke-linejoin="round"/>
<path d="M11 8H14" stroke="#333333" stroke-width="1.5" stroke-linecap="round" stroke-linejoin="round"/>
<circle cx="18.5001" cy="18.5" r="0.378807" fill="#333333"/>
<path d="M19.2143 19.2143C19.6088 18.8198 19.6088 18.1802 19.2143 17.7857M17.7857 19.2143C17.3912 18.8198 17.3912 18.1802 17.7857 17.7857" stroke="#333333" stroke-width="0.5" stroke-linecap="round"/>
<path d="M19.75 19.75C20.4404 19.0596 20.4404 17.9404 19.75 17.25M17.25 19.75C16.5596 19.0596 16.5596 17.9404 17.25 17.25" stroke="#333333" stroke-width="0.5" stroke-linecap="round"/>
</svg>
