<svg width="24" height="24" viewBox="0 0 24 24" fill="none" xmlns="http://www.w3.org/2000/svg">
<path d="M6 11L4.3769 19.1155C4.17335 20.1333 4.87707 21.1096 5.90696 21.2384V21.2384C9.95324 21.7442 14.0468 21.7442 18.093 21.2384V21.2384C19.1229 21.1096 19.8267 20.1333 19.6231 19.1155L18 11" stroke="#333333" stroke-width="1.5" stroke-linecap="round" stroke-linejoin="round"/>
<path d="M9.23077 9C7.31087 9.35345 6 10.063 6 10.8806C6 12.0511 8.68629 13 12 13C15.3137 13 18 12.0511 18 10.8806C18 10.063 16.6891 9.35345 14.7692 9" stroke="#333333" stroke-width="1.5" stroke-linecap="round"/>
<path d="M10 10.1128C9.38625 10.2583 9 10.4698 9 10.7052C9 11.1441 10.3431 11.4999 12 11.4999C13.6569 11.4999 15 11.1441 15 10.7052C15 10.4698 14.6137 10.2583 14 10.1128" stroke="#333333" stroke-width="0.8" stroke-linecap="round"/>
<path d="M10 3.25V2H14V3.25M10 3.25H14M10 3.25H10.5V8.17157C10.5 8.70201 10.7107 9.21071 11.0858 9.58579L11.6464 10.1464C11.8417 10.3417 12.1583 10.3417 12.3536 10.1464L12.9142 9.58579C13.2893 9.21071 13.5 8.70201 13.5 8.17157V3.25H14" stroke="#333333" stroke-linejoin="round"/>
<path d="M17.4628 4.82844C17.8533 4.43792 17.8533 3.80476 17.4628 3.41423" stroke="#333333" stroke-width="1.5" stroke-linecap="round"/>
<path d="M6.53548 4.82844C6.14495 4.43792 6.14495 3.80476 6.53548 3.41423" stroke="#333333" stroke-width="1.5" stroke-linecap="round"/>
<path d="M18.8787 6.24266C20.0503 5.07109 20.0503 3.17159 18.8787 2.00002" stroke="#333333" stroke-width="1.5" stroke-linecap="round"/>
<path d="M5.12132 6.24266C3.94975 5.07109 3.94975 3.17159 5.12132 2.00002" stroke="#333333" stroke-width="1.5" stroke-linecap="round"/>
<path d="M12 16C10.8954 16 10 16.8954 10 18C10 19.1046 10.8954 20 12 20C13.1046 20 14 19.1046 14 18C14 16.8954 13.1046 16 12 16Z" stroke="#333333" stroke-width="0.5"/>
<path d="M12 16V16.5" stroke="#333333" stroke-width="0.5" stroke-linecap="round" stroke-linejoin="round"/>
<path d="M13.4142 16.5858L13.0607 16.9394" stroke="#333333" stroke-width="0.5" stroke-linecap="round" stroke-linejoin="round"/>
<path d="M10.5858 16.5858L10.9393 16.9394" stroke="#333333" stroke-width="0.5" stroke-linecap="round" stroke-linejoin="round"/>
<path d="M14 18L13.5 18" stroke="#333333" stroke-width="0.5" stroke-linecap="round" stroke-linejoin="round"/>
<path d="M10.5 18L10 18" stroke="#333333" stroke-width="0.5" stroke-linecap="round" stroke-linejoin="round"/>
<circle cx="0.7" cy="0.7" r="0.7" transform="matrix(1 0 0 -1 11.3 18.7)" fill="#333333" stroke="#333333" stroke-width="0.5"/>
<circle cx="11.7" cy="17.6" r="0.2" fill="white"/>
</svg>
