<svg width="24" height="24" viewBox="0 0 24 24" fill="none" xmlns="http://www.w3.org/2000/svg">
<path fill-rule="evenodd" clip-rule="evenodd" d="M2.33437 10.07C2.33437 10.2081 2.44629 10.32 2.58437 10.32C4.3659 10.32 5.32802 9.70713 6.34068 9.06206C6.45194 8.99119 6.56381 8.91993 6.67744 8.84905C7.80505 8.14569 9.16775 7.43101 12.0038 7.38788C12.1419 7.38578 12.2521 7.27216 12.25 7.13411C12.2479 6.99605 12.1343 6.88584 11.9962 6.88794C9.05075 6.93273 7.60032 7.6841 6.41282 8.42481C6.29674 8.49722 6.1838 8.56903 6.07274 8.63964C5.06718 9.27897 4.21623 9.82001 2.58437 9.82001C2.44629 9.82001 2.33437 9.93194 2.33437 10.07Z" fill="#333333"/>
<path fill-rule="evenodd" clip-rule="evenodd" d="M21.6656 10.07C21.6656 10.2081 21.5537 10.32 21.4156 10.32C19.6341 10.32 18.672 9.70712 17.6593 9.06206C17.5481 8.99118 17.4362 8.91992 17.3225 8.84904C16.1949 8.14568 14.8323 7.431 11.9962 7.38787C11.8581 7.38577 11.7479 7.27216 11.75 7.1341C11.7521 6.99604 11.8657 6.88583 12.0038 6.88793C14.9492 6.93272 16.3997 7.68409 17.5872 8.4248C17.7033 8.49721 17.8162 8.56902 17.9272 8.63963C18.9328 9.27896 19.7838 9.82 21.4156 9.82C21.5537 9.82 21.6656 9.93193 21.6656 10.07Z" fill="#333333"/>
<path fill-rule="evenodd" clip-rule="evenodd" d="M2.33437 13.5103C2.33437 13.3722 2.44629 13.2603 2.58437 13.2603C4.36699 13.2603 5.3299 13.886 6.34218 14.5437C6.45358 14.6161 6.56558 14.6889 6.67933 14.7612C7.80686 15.4786 9.16891 16.2069 12.0038 16.25C12.1419 16.2521 12.2521 16.3658 12.25 16.5038C12.2479 16.6419 12.1343 16.7521 11.9962 16.75C9.0496 16.7052 7.59851 15.9386 6.41094 15.1831C6.2947 15.1092 6.18163 15.0358 6.07046 14.9637C5.06483 14.3116 4.2147 13.7603 2.58437 13.7603C2.44629 13.7603 2.33437 13.6484 2.33437 13.5103Z" fill="#333333"/>
<path fill-rule="evenodd" clip-rule="evenodd" d="M21.6656 13.5103C21.6656 13.3722 21.5537 13.2603 21.4156 13.2603C19.6334 13.2603 18.6566 13.8857 17.629 14.5436C17.5204 14.6131 17.4113 14.683 17.3006 14.7525C16.1608 15.4684 14.7944 16.1966 11.9952 16.2501C11.8572 16.2527 11.7474 16.3667 11.75 16.5048C11.7527 16.6428 11.8667 16.7526 12.0048 16.75C14.9157 16.6944 16.3697 15.9277 17.5665 15.176C17.6791 15.1052 17.7889 15.0351 17.8969 14.966C18.9188 14.3131 19.7838 13.7603 21.4156 13.7603C21.5537 13.7603 21.6656 13.6484 21.6656 13.5103Z" fill="#333333"/>
<path fill-rule="evenodd" clip-rule="evenodd" d="M14.2402 9.87169C14.2402 9.8716 14.2402 9.87151 13.993 9.84377L14.2402 9.87151C14.2248 10.0087 14.1011 10.1075 13.9639 10.0921C13.8267 10.0767 13.7279 9.95297 13.7433 9.81576L13.9918 9.84363C13.7433 9.81576 13.7433 9.81566 13.7433 9.81555L13.7434 9.81533L13.7434 9.81483L13.7436 9.81359L13.744 9.81024L13.7453 9.8001C13.7465 9.79188 13.7481 9.78076 13.7505 9.76719C13.7551 9.74014 13.7624 9.70287 13.7734 9.65917C13.795 9.57346 13.833 9.45494 13.8986 9.33885C13.964 9.22333 14.0651 9.09569 14.2192 9.0147C14.3795 8.93043 14.5701 8.91094 14.7818 8.96869C14.8934 8.99913 14.9737 9.07451 15.0277 9.1415C15.0842 9.21149 15.1316 9.29683 15.1721 9.38725C15.2533 9.56872 15.3217 9.80527 15.3749 10.0711C15.4819 10.6048 15.5356 11.2946 15.4918 11.984C15.4482 12.6702 15.3067 13.379 15.0061 13.9362C14.7014 14.5012 14.2203 14.9284 13.5126 14.9818C13.375 14.9922 13.2549 14.889 13.2445 14.7513C13.2341 14.6137 13.3373 14.4936 13.475 14.4832C13.9669 14.4461 14.3176 14.1594 14.566 13.6988C14.8186 13.2306 14.9515 12.6024 14.9928 11.9523C15.0339 11.3052 14.9829 10.6591 14.8847 10.1694C14.8354 9.92352 14.7761 9.7265 14.7157 9.59152C14.6853 9.5237 14.6585 9.4801 14.6385 9.4553C14.6354 9.45147 14.6328 9.44845 14.6306 9.44611C14.5377 9.42453 14.4845 9.4401 14.4518 9.45727C14.4107 9.4789 14.3703 9.5205 14.3338 9.58503C14.2976 9.64898 14.2734 9.7213 14.2582 9.78143C14.2508 9.81065 14.2461 9.83505 14.2433 9.85143C14.2419 9.85958 14.241 9.86562 14.2405 9.86913L14.2402 9.87169ZM14.2401 9.87241L14.2402 9.87169L14.2402 9.87186L14.2401 9.87214L14.2401 9.87241ZM14.2401 9.87241L14.2401 9.8725L14.2401 9.87259C14.2401 9.87258 14.2401 9.87252 14.2401 9.87241Z" fill="#333333"/>
<path fill-rule="evenodd" clip-rule="evenodd" d="M20.5772 11.2922C20.5772 11.1541 20.6891 11.0422 20.8272 11.0422H22.8272C22.9652 11.0422 23.0772 11.1541 23.0772 11.2922V12.2922C23.0772 12.4303 22.9652 12.5422 22.8272 12.5422H20.8272C20.6891 12.5422 20.5772 12.4303 20.5772 12.2922V11.2922ZM21.0772 11.5422V12.0422H22.5772V11.5422H21.0772Z" fill="#333333"/>
<path fill-rule="evenodd" clip-rule="evenodd" d="M0.919891 11.2922C0.919891 11.1541 1.03182 11.0422 1.16989 11.0422H3.16989C3.30796 11.0422 3.41989 11.1541 3.41989 11.2922V12.2922C3.41989 12.4303 3.30796 12.5422 3.16989 12.5422H1.16989C1.03182 12.5422 0.919891 12.4303 0.919891 12.2922V11.2922ZM1.41989 11.5422V12.0422H2.91989V11.5422H1.41989Z" fill="#333333"/>
<path fill-rule="evenodd" clip-rule="evenodd" d="M8.98249 9.87758C8.8767 10.0511 8.79089 10.3528 8.85265 10.8057C8.91626 11.2722 9.17491 12.2418 9.86603 13.0668C10.5472 13.88 11.6609 14.5695 13.4819 14.4828C13.6198 14.4762 13.737 14.5827 13.7435 14.7206C13.7501 14.8585 13.6436 14.9757 13.5057 14.9822C11.5242 15.0766 10.2614 14.3175 9.48274 13.3879C8.71399 12.4702 8.42943 11.4027 8.35724 10.8733C8.2832 10.3304 8.37847 9.90777 8.5556 9.61728C8.72072 9.34648 8.99723 9.14252 9.27979 9.18962C9.46136 9.21988 9.58493 9.33328 9.66126 9.4339C9.7447 9.5439 9.72318 9.70072 9.61317 9.78416C9.50317 9.86761 9.34635 9.84608 9.26291 9.73608C9.22988 9.69254 9.20716 9.68441 9.19759 9.68281C9.19916 9.68308 9.19828 9.6833 9.19528 9.68405C9.17734 9.68854 9.08342 9.71207 8.98249 9.87758Z" fill="#333333"/>
<path fill-rule="evenodd" clip-rule="evenodd" d="M13.732 13.7736C13.8583 13.8294 13.9154 13.977 13.8596 14.1033L13.6477 14.5827L14.1238 14.8448C14.2448 14.9114 14.2889 15.0634 14.2223 15.1844C14.1557 15.3053 14.0037 15.3494 13.8827 15.2828L13.2058 14.9103C13.0923 14.8477 13.0453 14.7088 13.0977 14.5902L13.4023 13.9011C13.4581 13.7749 13.6057 13.7177 13.732 13.7736Z" fill="#333333"/>
<path fill-rule="evenodd" clip-rule="evenodd" d="M9.57577 10.9571C9.48299 11.0593 9.32489 11.067 9.22264 10.9742L8.66529 10.4684L8.17337 10.942C8.0739 11.0378 7.91564 11.0348 7.81988 10.9353C7.72412 10.8359 7.72712 10.6776 7.82659 10.5818L8.48685 9.94617C8.5816 9.85495 8.73083 9.85274 8.82824 9.94113L9.55863 10.6039C9.66088 10.6967 9.66856 10.8548 9.57577 10.9571Z" fill="#333333"/>
<path fill-rule="evenodd" clip-rule="evenodd" d="M21 11.6085C15.1268 9.85623 8.87091 9.85676 3 11.608V11.0866C8.87502 9.36388 15.1227 9.36337 21 11.0871V11.6085ZM21 12.0093C15.1268 13.7615 8.87091 13.761 3 12.0097V12.5311C8.87502 14.2539 15.1227 14.2544 21 12.5307V12.0093Z" fill="#333333"/>
</svg>
