<svg width="24" height="24" viewBox="0 0 24 24" fill="none" xmlns="http://www.w3.org/2000/svg">
<path d="M2 12V22H21V12H2Z" fill="#DEDEDE" stroke="#333333" stroke-width="1.5" stroke-linejoin="round"/>
<path d="M10 12V17H14V12H10Z" fill="#4984B0" stroke="#333333" stroke-width="1.5" stroke-linejoin="round"/>
<path d="M13 4.5V11.5C13 11.7761 13.2239 12 13.5 12H16.5C16.7761 12 17 11.7761 17 11.5V4.5C17 4.22386 16.7761 4 16.5 4H13.5C13.2239 4 13 4.22386 13 4.5Z" fill="#DEDEDE" stroke="#333333" stroke-width="1.5"/>
<path d="M7 9.5C7 9.22386 7.22386 9 7.5 9H8.5C8.77614 9 9 9.22386 9 9.5V12H7V9.5Z" fill="#333333"/>
<path d="M7.5 8.2C7.5 8.08954 7.58954 8 7.7 8H8.3C8.41046 8 8.5 8.08954 8.5 8.2V11H7.5V8.2Z" fill="#333333"/>
</svg>
