<svg width="24" height="24" viewBox="0 0 24 24" fill="none" xmlns="http://www.w3.org/2000/svg">
<path d="M3 2V19.5H11V2H3Z" fill="#DEDEDE" stroke="#333333" stroke-width="1.5" stroke-linejoin="round"/>
<path d="M3 19.5V22H11V19.5H3Z" fill="black" stroke="#333333" stroke-width="1.5" stroke-linejoin="round"/>
<path d="M11 7.5V12H15V7.5H11Z" fill="#DEDEDE" stroke="#333333" stroke-width="1.5" stroke-linejoin="round"/>
<path d="M11 12.5V19C11 19.2761 11.2239 19.5 11.5 19.5H20.5C20.7761 19.5 21 19.2761 21 19V12.5C21 12.2239 20.7761 12 20.5 12H11.5C11.2239 12 11 12.2239 11 12.5Z" fill="#353A4E" stroke="#333333" stroke-width="1.5"/>
<path d="M11 19.5V22H21V19.5H11Z" fill="black" stroke="#333333" stroke-width="1.5" stroke-linejoin="round"/>
<path d="M15 12V17H21V12H15Z" fill="black" stroke="#333333" stroke-width="1.5" stroke-linejoin="round"/>
<path d="M3 12H11" stroke="#333333" stroke-width="1.5" stroke-linecap="square"/>
<circle cx="18" cy="14.5" r="0.75" stroke="#333333"/>
</svg>
