<svg width="24" height="24" viewBox="0 0 24 24" fill="" xmlns="http://www.w3.org/2000/svg">
<path d="M2 21H22V3H2V21Z" stroke="#333333" stroke-width="1.5" stroke-linejoin="round"/>
<path d="M11.25 21C11.25 21.4142 11.5858 21.75 12 21.75C12.4142 21.75 12.75 21.4142 12.75 21H11.25ZM11.25 10.5C11.25 10.9142 11.5858 11.25 12 11.25C12.4142 11.25 12.75 10.9142 12.75 10.5H11.25ZM12.75 17.5C12.75 17.0858 12.4142 16.75 12 16.75C11.5858 16.75 11.25 17.0858 11.25 17.5H12.75ZM11.25 3V10.5H12.75V3H11.25ZM11.25 17.5V21H12.75V17.5H11.25Z" fill="#333333"/>
<path d="M5.33252 12.5L6.33252 11V15L5.83252 15.5L4.83252 15V13.5L5.33252 12.5Z" fill="#B3B3B3" stroke="#333333" stroke-width="0.5" stroke-linejoin="round"/>
<path d="M5.03518 13.0461L8 7.91089L9.29904 8.66089L10.1651 9.16089L7.07928 14.5056C6.81406 14.965 6.37722 15.3002 5.86486 15.4375L5.69497 15.483C5.46475 15.5447 5.223 15.4353 5.11736 15.2217L4.97442 14.9326C4.67803 14.3331 4.70083 13.6252 5.03518 13.0461Z" stroke="#333333" stroke-linejoin="round"/>
<path d="M18.6675 12.5L17.6675 11V15L18.1675 15.5L19.1675 15V13.5L18.6675 12.5Z" fill="#B3B3B3" stroke="#333333" stroke-width="0.5" stroke-linejoin="round"/>
<path d="M18.9648 13.0461L16 7.91089L14.701 8.66089L13.8349 9.16089L16.9207 14.5056C17.1859 14.965 17.6228 15.3002 18.1351 15.4375L18.305 15.483C18.5352 15.5447 18.777 15.4353 18.8826 15.2217L19.0256 14.9326C19.322 14.3331 19.2992 13.6252 18.9648 13.0461Z" stroke="#333333" stroke-linejoin="round"/>
<path d="M11.9993 11.8295V16.1962" stroke="#333333" stroke-width="0.5" stroke-linecap="round"/>
<path d="M12.6552 12.0133L12.4368 12.2113L12.0001 12.6072L11.5635 12.2113L11.3452 12.0133" stroke="#333333" stroke-width="0.5" stroke-linecap="round"/>
<path d="M11.3452 16.0011L11.5635 15.8202L12.0001 15.4586L12.4368 15.8202L12.6552 16.0011" stroke="#333333" stroke-width="0.5" stroke-linecap="round"/>
<path d="M13.8909 12.9208L10.1092 15.1041" stroke="#333333" stroke-width="0.5" stroke-linecap="round"/>
<path d="M14.0592 13.5803L13.7785 13.4902L13.2173 13.3099L13.3419 12.7338L13.4042 12.4458" stroke="#333333" stroke-width="0.5" stroke-linecap="round"/>
<path d="M9.95044 14.4397L10.2162 14.5383L10.7477 14.7356L10.6529 15.2947L10.6054 15.5742" stroke="#333333" stroke-width="0.5" stroke-linecap="round"/>
<path d="M10.1091 12.9215L13.8908 15.1049" stroke="#333333" stroke-width="0.5" stroke-linecap="round"/>
<path d="M10.5959 12.4458L10.6581 12.7339L10.7827 13.3101L10.2215 13.4903L9.94086 13.5803" stroke="#333333" stroke-width="0.5" stroke-linecap="round"/>
<path d="M13.3942 15.5742L13.3468 15.2947L13.2518 14.7358L13.7834 14.5384L14.0492 14.4397" stroke="#333333" stroke-width="0.5" stroke-linecap="round"/>
<path d="M9.66667 5C8.66667 5.33333 10 6.66667 9 7" stroke="#343434" stroke-width="0.5" stroke-linecap="round" stroke-linejoin="round"/>
<path d="M10.6667 5C9.66667 5.33333 11 6.66667 10 7" stroke="#343434" stroke-width="0.5" stroke-linecap="round" stroke-linejoin="round"/>
<path d="M14.3333 5C15.3333 5.33333 14 6.66667 15 7" stroke="#343434" stroke-width="0.5" stroke-linecap="round" stroke-linejoin="round"/>
<path d="M13.3333 5C14.3333 5.33333 13 6.66667 14 7" stroke="#343434" stroke-width="0.5" stroke-linecap="round" stroke-linejoin="round"/>
</svg>
