<svg width="24" height="24" viewBox="0 0 24 24" fill="none" xmlns="http://www.w3.org/2000/svg">
<path d="M2 22H22V2H2V22Z" stroke="#333333" stroke-width="1.5" stroke-linejoin="round"/>
<path d="M12 2V22" stroke="#333333" stroke-width="1.5"/>
<path d="M5.33252 13.5L6.33252 12V16L5.83252 16.5L4.83252 16V14.5L5.33252 13.5Z" fill="#B3B3B3" stroke="#333333" stroke-width="0.5" stroke-linejoin="round"/>
<path d="M5.03518 14.0461L8 8.91089L9.29904 9.66089L10.1651 10.1609L7.07928 15.5056C6.81406 15.965 6.37722 16.3002 5.86486 16.4375L5.69497 16.483C5.46475 16.5447 5.223 16.4353 5.11736 16.2217L4.97442 15.9326C4.67803 15.3331 4.70083 14.6252 5.03518 14.0461Z" stroke="#333333" stroke-linejoin="round"/>
<path d="M6.83252 11.25L7.08252 11.125C7.2399 11.0463 7.42514 11.0463 7.58252 11.125V11.125C7.7399 11.2037 7.92514 11.2037 8.08252 11.125V11.125C8.2399 11.0463 8.42514 11.0463 8.58252 11.125V11.125C8.7399 11.2037 8.92514 11.2037 9.08252 11.125V11.125C9.2399 11.0463 9.42514 11.0463 9.58252 11.125L9.83252 11.25" stroke="#333333" stroke-width="0.5" stroke-linejoin="round"/>
<path d="M18.6675 13.5L17.6675 12V16L18.1675 16.5L19.1675 16V14.5L18.6675 13.5Z" fill="#B3B3B3" stroke="#333333" stroke-width="0.5" stroke-linejoin="round"/>
<path d="M18.9648 14.0461L16 8.91089L14.701 9.66089L13.8349 10.1609L16.9207 15.5056C17.1859 15.965 17.6228 16.3002 18.1351 16.4375L18.305 16.483C18.5352 16.5447 18.777 16.4353 18.8826 16.2217L19.0256 15.9326C19.322 15.3331 19.2992 14.6252 18.9648 14.0461Z" stroke="#333333" stroke-linejoin="round"/>
<path d="M17.1675 11.25L16.9175 11.125C16.7601 11.0463 16.5749 11.0463 16.4175 11.125V11.125C16.2601 11.2037 16.0749 11.2037 15.9175 11.125V11.125C15.7601 11.0463 15.5749 11.0463 15.4175 11.125V11.125C15.2601 11.2037 15.0749 11.2037 14.9175 11.125V11.125C14.7601 11.0463 14.5749 11.0463 14.4175 11.125L14.1675 11.25" stroke="#333333" stroke-width="0.5" stroke-linejoin="round"/>
<path d="M8.07391 4.76337C8.34702 4.72255 8.53533 4.46805 8.49451 4.19495C8.45369 3.92184 8.19919 3.73353 7.92609 3.77435L8.07391 4.76337ZM8 6.73114L8.12982 7.21399C8.35852 7.1525 8.51271 6.93901 8.49918 6.70258C8.48566 6.46615 8.30813 6.27164 8.07391 6.23663L8 6.73114ZM16 4.26886L15.8702 3.78601C15.6415 3.84749 15.4873 4.06098 15.5008 4.29741C15.5143 4.53384 15.6919 4.72836 15.9261 4.76337L16 4.26886ZM15.9261 6.23663C15.653 6.27745 15.4647 6.53194 15.5055 6.80505C15.5463 7.07816 15.8008 7.26646 16.0739 7.22564L15.9261 6.23663ZM17.1298 4.48285C17.3965 4.41116 17.5546 4.13685 17.4829 3.87018C17.4112 3.60351 17.1369 3.44545 16.8702 3.51715L17.1298 4.48285ZM6.87018 6.51715C6.60351 6.58885 6.44545 6.86315 6.51715 7.12982C6.58885 7.39649 6.86315 7.55455 7.12982 7.48285L6.87018 6.51715ZM5.5 5.5C5.5 5.58178 5.45122 5.58475 5.53676 5.51235C5.61848 5.44318 5.76827 5.3545 6.0063 5.2589C6.47782 5.06952 7.18444 4.89632 8.07391 4.76337L7.92609 3.77435C7.00207 3.91246 6.20869 4.09997 5.63359 4.33095C5.3483 4.44554 5.08812 4.58196 4.8907 4.74906C4.6971 4.91293 4.5 5.16335 4.5 5.5H5.5ZM8.07391 6.23663C7.18444 6.10368 6.47782 5.93048 6.0063 5.74109C5.76827 5.64549 5.61848 5.55682 5.53676 5.48765C5.45122 5.41524 5.5 5.41821 5.5 5.5H4.5C4.5 5.83665 4.6971 6.08706 4.8907 6.25093C5.08812 6.41803 5.3483 6.55446 5.63359 6.66904C6.20869 6.90003 7.00207 7.08753 7.92609 7.22564L8.07391 6.23663ZM15.9261 4.76337C16.8156 4.89632 17.5222 5.06952 17.9937 5.2589C18.2317 5.3545 18.3815 5.44318 18.4632 5.51235C18.5488 5.58475 18.5 5.58178 18.5 5.5H19.5C19.5 5.16335 19.3029 4.91293 19.1093 4.74906C18.9119 4.58196 18.6517 4.44554 18.3664 4.33095C17.7913 4.09997 16.9979 3.91246 16.0739 3.77435L15.9261 4.76337ZM18.5 5.5C18.5 5.41821 18.5488 5.41524 18.4632 5.48765C18.3815 5.55682 18.2317 5.64549 17.9937 5.74109C17.5222 5.93048 16.8156 6.10368 15.9261 6.23663L16.0739 7.22564C16.9979 7.08753 17.7913 6.90003 18.3664 6.66904C18.6517 6.55446 18.9119 6.41803 19.1093 6.25093C19.3029 6.08706 19.5 5.83665 19.5 5.5H18.5ZM16.1298 4.75171L17.1298 4.48285L16.8702 3.51715L15.8702 3.78601L16.1298 4.75171ZM7.87018 6.24828L6.87018 6.51715L7.12982 7.48285L8.12982 7.21399L7.87018 6.24828Z" fill="#333333"/>
</svg>
