<svg width="26" height="26" viewBox="0 0 26 26" fill="none" xmlns="http://www.w3.org/2000/svg">
<rect x="0.95" y="0.95" width="24.1" height="24.1" stroke="black" stroke-width="0.1"/>
<path fill-rule="evenodd" clip-rule="evenodd" d="M9.40533 17.7803C8.0583 19.1274 6.35143 20.75 4 20.75C3.58579 20.75 3.25 20.4142 3.25 20C3.25 19.5858 3.58579 19.25 4 19.25C5.64857 19.25 6.9417 18.1226 8.34467 16.7197C8.4394 16.6249 8.53491 16.5287 8.63113 16.4318C9.21008 15.8487 9.81499 15.2395 10.434 14.7644C11.1631 14.2049 12.0113 13.75 13 13.75C13.9887 13.75 14.8369 14.2049 15.566 14.7644C16.185 15.2395 16.7899 15.8487 17.3689 16.4318C17.4651 16.5287 17.5606 16.6249 17.6553 16.7197C19.0583 18.1226 20.3514 19.25 22 19.25C22.4142 19.25 22.75 19.5858 22.75 20C22.75 20.4142 22.4142 20.75 22 20.75C19.6486 20.75 17.9417 19.1274 16.5947 17.7803C16.492 17.6777 16.3915 17.5766 16.2928 17.4772C15.7079 16.8889 15.1848 16.3626 14.6528 15.9544C14.0381 15.4826 13.5113 15.25 13 15.25C12.4887 15.25 11.9619 15.4826 11.3472 15.9544C10.8152 16.3626 10.2921 16.8889 9.70724 17.4772C9.60847 17.5766 9.50795 17.6777 9.40533 17.7803Z" fill="#333333"/>
<path fill-rule="evenodd" clip-rule="evenodd" d="M13 4.25C13.2361 4.25 13.4584 4.36115 13.6 4.55L16.0811 7.85819L16.4697 7.46967C16.7626 7.17678 17.2374 7.17678 17.5303 7.46967L19.1481 9.08743L20.6646 8.32918C21.0351 8.14394 21.4856 8.29411 21.6708 8.66459L22.6708 10.6646C22.8561 11.0351 22.7059 11.4856 22.3354 11.6708C21.9649 11.8561 21.5144 11.7059 21.3292 11.3354L20.6646 10.0062L19.3354 10.6708C19.0467 10.8152 18.6979 10.7586 18.4697 10.5303L17 9.06066L16.5303 9.53033C16.3766 9.68407 16.1637 9.76353 15.9468 9.74811C15.73 9.7327 15.5305 9.62393 15.4 9.45L13 6.25L10.6 9.45C10.4695 9.62393 10.27 9.7327 10.0532 9.74811C9.8363 9.76353 9.62341 9.68407 9.46967 9.53033L9 9.06066L7.53033 10.5303C7.23744 10.8232 6.76256 10.8232 6.46967 10.5303L6 10.0607L4.53033 11.5303C4.23744 11.8232 3.76256 11.8232 3.46967 11.5303C3.17678 11.2374 3.17678 10.7626 3.46967 10.4697L5.46967 8.46967C5.76256 8.17678 6.23744 8.17678 6.53033 8.46967L7 8.93934L8.46967 7.46967C8.76256 7.17678 9.23744 7.17678 9.53033 7.46967L9.91885 7.85819L12.4 4.55C12.5416 4.36115 12.7639 4.25 13 4.25Z" fill="#333333"/>
</svg>
