<svg width="26" height="26" viewBox="0 0 26 26" fill="none" xmlns="http://www.w3.org/2000/svg">
<rect x="0.95" y="0.95" width="24.1" height="24.1" stroke="black" stroke-width="0.1"/>
<path d="M13 5C10 5 10 17.5 9 20H17C16 17 16 5 13 5Z" fill="#CCCCCC"/>
<path fill-rule="evenodd" clip-rule="evenodd" d="M9.98318 19.25H16.039C15.8832 18.472 15.7546 17.5051 15.6305 16.4809C15.5788 16.0544 15.5274 15.6135 15.4751 15.1637C15.3354 13.9646 15.1885 12.7027 15.0081 11.4849C14.7591 9.80424 14.4554 8.27717 14.0474 7.18419C13.8425 6.63552 13.6303 6.24944 13.4251 6.0123C13.2292 5.78592 13.0918 5.75 13 5.75C12.9203 5.75 12.7847 5.78139 12.5838 6.02229C12.3755 6.27222 12.1613 6.67704 11.9554 7.24703C11.5455 8.38159 11.2413 9.95786 10.9922 11.6705C10.8208 12.8489 10.6799 14.0569 10.5467 15.1995C10.4867 15.7135 10.4283 16.2143 10.3694 16.6932C10.2753 17.4577 10.1797 18.1664 10.0747 18.7668C10.0457 18.9328 10.0154 19.0945 9.98318 19.25ZM11.4318 5.06169C11.809 4.60923 12.3297 4.25 13 4.25C13.6582 4.25 14.1771 4.58908 14.5593 5.03067C14.9322 5.4615 15.22 6.03636 15.4526 6.65956C15.9196 7.91033 16.2409 9.57076 16.4919 11.2651C16.676 12.5078 16.8272 13.8061 16.9676 15.0123C17.0193 15.4566 17.0696 15.8884 17.1196 16.3004C17.3099 17.8711 17.4905 19.0998 17.7115 19.7628C17.7878 19.9915 17.7494 20.243 17.6084 20.4385C17.4675 20.6341 17.2411 20.75 17 20.75H9C8.75114 20.75 8.51848 20.6266 8.37895 20.4205C8.23943 20.2144 8.21122 19.9525 8.30365 19.7215C8.39772 19.4863 8.49669 19.0832 8.59714 18.5086C8.69532 17.9469 8.78722 17.2689 8.88062 16.5099C8.93723 16.05 8.99437 15.5601 9.05362 15.0521C9.18803 13.8998 9.33328 12.6545 9.50781 11.4545C9.75871 9.72964 10.0795 8.02466 10.5446 6.73734C10.7762 6.09639 11.062 5.50513 11.4318 5.06169Z" fill="#CCCCCC"/>
<path fill-rule="evenodd" clip-rule="evenodd" d="M9.79313 16.4031C9.61595 16.5828 9.34863 16.75 9.00001 16.75C8.32059 16.75 7.85451 16.389 7.54542 15.9918C7.28509 15.6573 7.08891 15.2348 6.93436 14.902C6.92092 14.873 6.90779 14.8447 6.89497 14.8173C6.713 14.4275 6.57186 14.1494 6.40767 13.9599C6.28263 13.8156 6.17723 13.7588 6.03577 13.751C6.02471 13.76 6.00813 13.7753 5.98592 13.8002C5.89628 13.9006 5.78401 14.0854 5.6655 14.3765C5.43048 14.9539 5.24423 15.7627 5.10305 16.6216C4.96359 17.4701 4.87486 18.3237 4.82102 18.9686C4.79418 19.2902 4.77618 19.5578 4.76491 19.7444C4.75928 19.8377 4.75534 19.9106 4.75283 19.9597L4.7501 20.0151L4.74948 20.0286L4.74934 20.0317C4.73148 20.4455 4.38157 20.7671 3.96777 20.7493C3.55394 20.7315 3.2329 20.3816 3.25071 19.9678L4.00001 20C3.25071 19.9678 3.2507 19.9679 3.25071 19.9678L3.25099 19.9612L3.25175 19.9447L3.25479 19.8831C3.25752 19.8297 3.26171 19.7522 3.26764 19.654C3.27948 19.4578 3.29828 19.1785 3.32622 18.8439C3.38195 18.1763 3.47471 17.2799 3.62291 16.3784C3.76938 15.4873 3.97696 14.5461 4.27619 13.811C4.42482 13.4459 4.61478 13.0838 4.86677 12.8014C5.1236 12.5136 5.50192 12.25 6.00001 12.25C6.68942 12.25 7.18927 12.5713 7.54132 12.9776C7.86451 13.3506 8.08594 13.8225 8.25413 14.1827L8.26583 14.2078C8.44938 14.601 8.57773 14.8759 8.72925 15.0707C8.76194 15.1127 8.79094 15.1449 8.81718 15.1696C8.91011 14.9459 9.00509 14.6007 9.10116 14.131C9.23575 13.473 9.35197 12.6839 9.47879 11.8229C9.54691 11.3603 9.6181 10.877 9.69683 10.3822C9.91546 9.00792 10.1906 7.56166 10.6207 6.44845C10.8355 5.89247 11.1091 5.36456 11.4761 4.96521C11.8563 4.55136 12.3647 4.25 13 4.25C14.1765 4.25 14.875 5.06879 15.2858 5.92591C15.6934 6.77674 15.9261 7.86957 16.1122 8.86178C16.1529 9.07903 16.1914 9.29128 16.2288 9.49746C16.371 10.2808 16.4972 10.9766 16.669 11.5263C16.7769 11.8716 16.8814 12.0831 16.9693 12.1962C16.9916 12.2249 17.0083 12.2413 17.0182 12.2498C17.3025 12.2437 17.6325 12.0953 18.1646 11.8292C18.1844 11.8193 18.2045 11.8092 18.2251 11.7989C18.6789 11.5712 19.3193 11.25 20 11.25C20.5666 11.25 20.9168 11.6692 21.0893 11.9302C21.2877 12.2303 21.447 12.6156 21.5792 13.0135C21.8471 13.8198 22.0635 14.8658 22.233 15.8759C22.4037 16.8938 22.5322 17.9082 22.6178 18.6658C22.6606 19.0452 22.6929 19.3616 22.7145 19.5836C22.7253 19.6946 22.7334 19.7821 22.7389 19.8421L22.7451 19.9111L22.7467 19.9293L22.7472 19.9354C22.7472 19.9356 22.7473 19.9361 22 20L22.7472 19.9354C22.7825 20.3482 22.4767 20.712 22.064 20.7473C21.6513 20.7826 21.2881 20.4767 21.2527 20.064L21.2527 20.063L21.2523 20.0591L21.2509 20.043L21.2451 19.9782C21.2399 19.921 21.232 19.8366 21.2216 19.7289C21.2006 19.5134 21.1691 19.2048 21.1272 18.8342C21.0434 18.0918 20.9184 17.1062 20.7536 16.1241C20.5875 15.1342 20.3862 14.1802 20.1557 13.4865C20.0406 13.1399 19.9322 12.9021 19.8422 12.7638C19.5875 12.8064 19.283 12.947 18.8354 13.1708C18.8157 13.1807 18.7955 13.1908 18.775 13.2011C18.3211 13.4288 17.6807 13.75 17 13.75C16.4549 13.75 16.0525 13.4612 15.7847 13.1163C15.5327 12.7919 15.3637 12.3784 15.2373 11.9737C15.0349 11.3261 14.8866 10.5061 14.7429 9.712C14.7078 9.51824 14.6731 9.32601 14.6379 9.13822C14.4489 8.13043 14.2441 7.22326 13.933 6.57409C13.625 5.93121 13.3235 5.75 13 5.75C12.8854 5.75 12.7531 5.79239 12.5806 5.9801C12.3948 6.18232 12.2036 6.51378 12.0199 6.98905C11.6532 7.93834 11.3971 9.24208 11.1782 10.6178C11.1067 11.0672 11.0388 11.5274 10.9721 11.9802C10.8406 12.8715 10.7133 13.7346 10.5707 14.4315C10.4632 14.9572 10.3349 15.4552 10.1631 15.8359C10.0776 16.0253 9.96072 16.2332 9.79313 16.4031ZM19.7751 12.677C19.7751 12.6765 19.7787 12.6794 19.7858 12.6872C19.7786 12.6814 19.775 12.6775 19.7751 12.677Z" fill="#333333"/>
</svg>
