<svg width="24" height="24" viewBox="0 0 24 24" fill="none" xmlns="http://www.w3.org/2000/svg">
<path fill-rule="evenodd" clip-rule="evenodd" d="M5.71105 18.2842C5.01083 19.9943 3.91585 21.5278 2 21.5278C1.58579 21.5278 1.25 21.192 1.25 20.7778C1.25 20.3636 1.58579 20.0278 2 20.0278C2.91909 20.0278 3.65825 19.339 4.32291 17.7158C4.92334 16.2494 5.33851 14.3145 5.7809 12.2527C5.81804 12.0796 5.85538 11.9056 5.89304 11.7309C6.36816 9.52647 6.89414 7.21282 7.7473 5.45091C8.60404 3.68161 9.90572 2.25 12 2.25C14.0943 2.25 15.396 3.68161 16.2527 5.45091C17.1059 7.21282 17.6318 9.52647 18.107 11.7309C18.1446 11.9056 18.182 12.0796 18.2191 12.2528C18.6615 14.3145 19.0767 16.2494 19.6771 17.7158C20.3418 19.339 21.0809 20.0278 22 20.0278C22.4142 20.0278 22.75 20.3636 22.75 20.7778C22.75 21.192 22.4142 21.5278 22 21.5278C20.0842 21.5278 18.9892 19.9943 18.289 18.2842C17.6349 16.6868 17.1919 14.619 16.7594 12.6003C16.7198 12.4153 16.6802 12.2307 16.6406 12.0469C16.1578 9.80686 15.6636 7.67607 14.9026 6.10464C14.1453 4.54061 13.2391 3.75 12 3.75C10.7609 3.75 9.85469 4.54061 9.09735 6.10464C8.33643 7.67607 7.84218 9.80686 7.35937 12.0469C7.31976 12.2307 7.28021 12.4153 7.24058 12.6003C6.80813 14.6189 6.36514 16.6868 5.71105 18.2842Z" fill="#333333"/>
</svg>
