<svg width="24" height="24" viewBox="0 0 24 24" fill="none" xmlns="http://www.w3.org/2000/svg">
<path fill-rule="evenodd" clip-rule="evenodd" d="M16.1982 3.2501C16.598 3.24354 16.9327 3.55178 16.9589 3.95077L17.9654 19.25H18.2547L18.6403 17.687C18.7229 17.352 19.0234 17.1167 19.3684 17.1167C19.7134 17.1167 20.0139 17.352 20.0966 17.687L20.4822 19.25H22C22.4142 19.25 22.75 19.5858 22.75 20C22.75 20.4142 22.4142 20.75 22 20.75H19.8947C19.6923 20.75 19.5052 20.669 19.3684 20.5343C19.2317 20.669 19.0445 20.75 18.8421 20.75H17.2632C16.8681 20.75 16.5407 20.4435 16.5148 20.0492L16.4603 19.2205L16.4338 20.0247C16.4205 20.4291 16.0888 20.75 15.6842 20.75H11.4737C11.2735 20.75 11.0854 20.6703 10.9474 20.5343C10.8093 20.6703 10.6213 20.75 10.4211 20.75H9.36842C8.98585 20.75 8.66459 20.462 8.62289 20.0817L8.27197 16.8813L8.00752 19.0252C7.97231 19.3106 7.77702 19.5507 7.50479 19.6433C7.23255 19.736 6.93132 19.6648 6.72933 19.4601L6.61778 19.3471L6.41238 20.1796C6.32974 20.5146 6.02923 20.75 5.68421 20.75H2C1.58579 20.75 1.25 20.4142 1.25 20C1.25 19.5858 1.58579 19.25 2 19.25H5.09676L5.48236 17.687C5.54739 17.4234 5.74982 17.2155 6.0116 17.1435C6.25732 17.0759 6.51932 17.1379 6.70826 17.3056L7.57143 10.3082C7.61803 9.93041 7.94023 9.64745 8.32086 9.65002C8.70149 9.65259 9.01983 9.93988 9.06132 10.3183L10.0251 19.1076L10.2748 18.6015C10.4011 18.3454 10.6619 18.1833 10.9474 18.1833C11.2329 18.1833 11.4936 18.3454 11.6199 18.6015L11.9399 19.25H14.9585L15.4609 3.97534C15.4741 3.57571 15.7984 3.25666 16.1982 3.2501Z" fill="#333333"/>
</svg>
