<svg width="24" height="24" viewBox="0 0 24 24" fill="none" xmlns="http://www.w3.org/2000/svg">
<path fill-rule="evenodd" clip-rule="evenodd" d="M22 21.25C22 21.6642 21.6642 22 21.25 22L2.75 22C2.33579 22 2 21.6642 2 21.25C2 20.8358 2.33579 20.5 2.75 20.5L21.25 20.5C21.6642 20.5 22 20.8358 22 21.25Z" fill="#333333"/>
<path d="M21.8965 4.32C21.9525 4.376 21.9805 4.44267 21.9805 4.52C21.9805 4.59733 21.9525 4.66267 21.8965 4.716C21.8432 4.772 21.7779 4.8 21.7005 4.8H19.7805C19.7032 4.8 19.6365 4.772 19.5805 4.716C19.5272 4.66267 19.5005 4.59733 19.5005 4.52C19.5005 4.20533 19.6499 3.95333 19.9485 3.764C20.0632 3.692 20.2019 3.62667 20.3645 3.568C20.4285 3.54667 20.5005 3.524 20.5805 3.5L20.6845 3.472L20.7805 3.444L20.8645 3.42L20.9445 3.4C21.0005 3.38133 21.0485 3.36533 21.0885 3.352C21.2299 3.304 21.3259 3.23867 21.3765 3.156C21.3952 3.12667 21.4072 3.096 21.4125 3.064C21.4152 3.05333 21.4179 3.04133 21.4205 3.028V3.012V3C21.4205 2.87733 21.3539 2.77333 21.2205 2.688C21.0899 2.60267 20.9299 2.56 20.7405 2.56C20.5912 2.56 20.4432 2.592 20.2965 2.656C20.1632 2.71467 20.0605 2.784 19.9885 2.864C19.9379 2.92267 19.8739 2.95467 19.7965 2.96C19.7192 2.96533 19.6512 2.94267 19.5925 2.892C19.5365 2.83867 19.5059 2.77333 19.5005 2.696C19.4952 2.62133 19.5179 2.55467 19.5685 2.496C19.6992 2.34667 19.8725 2.22667 20.0885 2.136C20.3019 2.04533 20.5192 2 20.7405 2C21.0925 2 21.3872 2.096 21.6245 2.288C21.8619 2.47733 21.9805 2.71467 21.9805 3C21.9805 3.20267 21.9192 3.38 21.7965 3.532C21.6712 3.68667 21.4965 3.80267 21.2725 3.88C21.2085 3.904 21.0952 3.93867 20.9325 3.984C20.5912 4.07733 20.3605 4.16267 20.2405 4.24H21.7005C21.7779 4.24 21.8432 4.26667 21.8965 4.32Z" fill="#333333"/>
<path d="M17.6241 4.176C17.7627 4.21867 17.9187 4.24 18.0921 4.24C18.2814 4.24 18.4347 4.21333 18.5521 4.16C18.6721 4.10933 18.7321 4.04267 18.7321 3.96V3.948V3.936C18.7294 3.92533 18.7254 3.91467 18.7201 3.904C18.7094 3.87733 18.6854 3.852 18.6481 3.828C18.5441 3.75867 18.3494 3.70933 18.0641 3.68C17.3361 3.60267 16.9721 3.32267 16.9721 2.84C16.9721 2.61067 17.0627 2.41867 17.2441 2.264C17.4467 2.088 17.7294 2 18.0921 2C18.5294 2 18.8707 2.10933 19.1161 2.328C19.1747 2.37867 19.2067 2.44267 19.2121 2.52C19.2174 2.59733 19.1934 2.664 19.1401 2.72C19.0894 2.77867 19.0254 2.81067 18.9481 2.816C18.8707 2.82133 18.8041 2.79733 18.7481 2.744C18.6894 2.69333 18.6081 2.652 18.5041 2.62C18.3814 2.58 18.2441 2.56 18.0921 2.56C17.9214 2.56 17.7854 2.58533 17.6841 2.636C17.5827 2.68667 17.5321 2.75467 17.5321 2.84V2.852V2.864C17.5347 2.87733 17.5374 2.88933 17.5401 2.9C17.5534 2.92933 17.5761 2.956 17.6081 2.98C17.6987 3.04933 17.8694 3.096 18.1201 3.12L18.1521 3.124L18.1881 3.128L18.2641 3.14C18.3254 3.148 18.3841 3.15733 18.4401 3.168C18.5894 3.19733 18.7187 3.23733 18.8281 3.288C19.1374 3.42933 19.2921 3.65333 19.2921 3.96C19.2921 4.184 19.2027 4.372 19.0241 4.524C18.8107 4.708 18.5001 4.8 18.0921 4.8C17.6174 4.8 17.2507 4.68933 16.9921 4.468C16.9334 4.41733 16.9001 4.35467 16.8921 4.28C16.8867 4.20267 16.9094 4.13467 16.9601 4.076C17.0107 4.01733 17.0747 3.984 17.1521 3.976C17.2267 3.97067 17.2934 3.99333 17.3521 4.044C17.4161 4.09733 17.5067 4.14133 17.6241 4.176Z" fill="#333333"/>
<path d="M16.4045 4.71989C16.3485 4.77322 16.2819 4.79989 16.2045 4.79989C16.1272 4.79989 16.0605 4.77322 16.0045 4.71989C15.9512 4.66389 15.9245 4.59722 15.9245 4.51989V3.08789L15.2245 3.97189C15.1712 4.04122 15.0979 4.07589 15.0045 4.07589C14.9112 4.07589 14.8379 4.04122 14.7845 3.97189L14.0845 3.08789V4.51989C14.0845 4.59722 14.0579 4.66389 14.0045 4.71989C13.9485 4.77322 13.8819 4.79989 13.8045 4.79989C13.7272 4.79989 13.6605 4.77322 13.6045 4.71989C13.5512 4.66389 13.5245 4.59722 13.5245 4.51989V2.27989C13.5245 2.14655 13.5872 2.05855 13.7125 2.01589C13.8379 1.97055 13.9419 2.00122 14.0245 2.10789L15.0045 3.34789L15.9845 2.10789C16.0672 2.00389 16.1712 1.97322 16.2965 2.01589C16.4219 2.05855 16.4845 2.14655 16.4845 2.27989V4.51989C16.4845 4.59722 16.4579 4.66389 16.4045 4.71989Z" fill="#333333"/>
<path fill-rule="evenodd" clip-rule="evenodd" d="M5.25 11.75L5.25 18.25C5.25 18.6642 4.91421 19 4.5 19C4.08579 19 3.75 18.6642 3.75 18.25L3.75 11.75C3.75 11.3358 4.08579 11 4.5 11C4.91421 11 5.25 11.3358 5.25 11.75Z" fill="#333333"/>
<path fill-rule="evenodd" clip-rule="evenodd" d="M8.25 6.25L8.25 18.25C8.25 18.6642 7.91421 19 7.5 19C7.08579 19 6.75 18.6642 6.75 18.25L6.75 6.25C6.75 5.83579 7.08579 5.5 7.5 5.5C7.91421 5.5 8.25 5.83579 8.25 6.25Z" fill="#333333"/>
<path fill-rule="evenodd" clip-rule="evenodd" d="M11.25 10.25L11.25 18.25C11.25 18.6642 10.9142 19 10.5 19C10.0858 19 9.75 18.6642 9.75 18.25L9.75 10.25C9.75 9.83579 10.0858 9.5 10.5 9.5C10.9142 9.5 11.25 9.83579 11.25 10.25Z" fill="#333333"/>
<path fill-rule="evenodd" clip-rule="evenodd" d="M14.25 14.25L14.25 18.25C14.25 18.6642 13.9142 19 13.5 19C13.0858 19 12.75 18.6642 12.75 18.25L12.75 14.25C12.75 13.8358 13.0858 13.5 13.5 13.5C13.9142 13.5 14.25 13.8358 14.25 14.25Z" fill="#333333"/>
<path fill-rule="evenodd" clip-rule="evenodd" d="M17.25 13.25L17.25 18.25C17.25 18.6642 16.9142 19 16.5 19C16.0858 19 15.75 18.6642 15.75 18.25L15.75 13.25C15.75 12.8358 16.0858 12.5 16.5 12.5C16.9142 12.5 17.25 12.8358 17.25 13.25Z" fill="#333333"/>
<path fill-rule="evenodd" clip-rule="evenodd" d="M20.25 9.25L20.25 18.25C20.25 18.6642 19.9142 19 19.5 19C19.0858 19 18.75 18.6642 18.75 18.25L18.75 9.25C18.75 8.83579 19.0858 8.5 19.5 8.5C19.9142 8.5 20.25 8.83579 20.25 9.25Z" fill="#333333"/>
</svg>
