<svg width="24" height="24" viewBox="0 0 24 24" fill="none" xmlns="http://www.w3.org/2000/svg">
<path fill-rule="evenodd" clip-rule="evenodd" d="M22 21.25C22 21.6642 21.6642 22 21.25 22L2.75 22C2.33579 22 2 21.6642 2 21.25C2 20.8358 2.33579 20.5 2.75 20.5L21.25 20.5C21.6642 20.5 22 20.8358 22 21.25Z" fill="#333333"/>
<path d="M21.9416 2.484L21.3296 3.048C21.551 3.11733 21.723 3.224 21.8456 3.368C21.9683 3.512 22.0296 3.68267 22.0296 3.88C22.0296 4.15467 21.9163 4.37733 21.6896 4.548C21.4603 4.716 21.1603 4.8 20.7896 4.8C20.5843 4.8 20.3843 4.772 20.1896 4.716C19.9603 4.64933 19.7763 4.55067 19.6376 4.42C19.5816 4.36933 19.5523 4.30533 19.5496 4.228C19.547 4.15067 19.5723 4.08267 19.6256 4.024C19.679 3.968 19.7443 3.93867 19.8216 3.936C19.899 3.93333 19.9656 3.95867 20.0216 4.012C20.1843 4.164 20.4403 4.24 20.7896 4.24C20.971 4.24 21.1256 4.21067 21.2536 4.152C21.3976 4.08533 21.4696 3.99467 21.4696 3.88C21.4696 3.73333 21.3523 3.62933 21.1176 3.568C21.043 3.54933 20.9576 3.536 20.8616 3.528C20.8296 3.52533 20.7976 3.52267 20.7656 3.52C20.7523 3.52 20.7403 3.52 20.7296 3.52H20.7096C20.5816 3.52 20.495 3.46 20.4496 3.34C20.4016 3.22267 20.4256 3.12 20.5216 3.032L21.0336 2.56H19.9896C19.9123 2.56 19.847 2.53333 19.7936 2.48C19.7376 2.424 19.7096 2.35733 19.7096 2.28C19.7096 2.20267 19.7376 2.136 19.7936 2.08C19.847 2.02667 19.9123 2 19.9896 2H21.7496C21.8776 2 21.9643 2.05867 22.0096 2.176C22.0576 2.296 22.035 2.39867 21.9416 2.484Z" fill="#333333"/>
<path d="M17.6772 4.176C17.8158 4.21867 17.9718 4.24 18.1452 4.24C18.3345 4.24 18.4878 4.21333 18.6052 4.16C18.7252 4.10933 18.7852 4.04267 18.7852 3.96V3.948V3.936C18.7825 3.92533 18.7785 3.91467 18.7732 3.904C18.7625 3.87733 18.7385 3.852 18.7012 3.828C18.5972 3.75867 18.4025 3.70933 18.1172 3.68C17.3892 3.60267 17.0252 3.32267 17.0252 2.84C17.0252 2.61067 17.1158 2.41867 17.2972 2.264C17.4998 2.088 17.7825 2 18.1452 2C18.5825 2 18.9238 2.10933 19.1692 2.328C19.2278 2.37867 19.2598 2.44267 19.2652 2.52C19.2705 2.59733 19.2465 2.664 19.1932 2.72C19.1425 2.77867 19.0785 2.81067 19.0012 2.816C18.9238 2.82133 18.8572 2.79733 18.8012 2.744C18.7425 2.69333 18.6612 2.652 18.5572 2.62C18.4345 2.58 18.2972 2.56 18.1452 2.56C17.9745 2.56 17.8385 2.58533 17.7372 2.636C17.6358 2.68667 17.5852 2.75467 17.5852 2.84V2.852V2.864C17.5878 2.87733 17.5905 2.88933 17.5932 2.9C17.6065 2.92933 17.6292 2.956 17.6612 2.98C17.7518 3.04933 17.9225 3.096 18.1732 3.12L18.2052 3.124L18.2412 3.128L18.3172 3.14C18.3785 3.148 18.4372 3.15733 18.4932 3.168C18.6425 3.19733 18.7718 3.23733 18.8812 3.288C19.1905 3.42933 19.3452 3.65333 19.3452 3.96C19.3452 4.184 19.2558 4.372 19.0772 4.524C18.8638 4.708 18.5532 4.8 18.1452 4.8C17.6705 4.8 17.3038 4.68933 17.0452 4.468C16.9865 4.41733 16.9532 4.35467 16.9452 4.28C16.9398 4.20267 16.9625 4.13467 17.0132 4.076C17.0638 4.01733 17.1278 3.984 17.2052 3.976C17.2798 3.97067 17.3465 3.99333 17.4052 4.044C17.4692 4.09733 17.5598 4.14133 17.6772 4.176Z" fill="#333333"/>
<path d="M16.4576 4.71989C16.4016 4.77322 16.335 4.79989 16.2576 4.79989C16.1803 4.79989 16.1136 4.77322 16.0576 4.71989C16.0043 4.66389 15.9776 4.59722 15.9776 4.51989V3.08789L15.2776 3.97189C15.2243 4.04122 15.151 4.07589 15.0576 4.07589C14.9643 4.07589 14.891 4.04122 14.8376 3.97189L14.1376 3.08789V4.51989C14.1376 4.59722 14.111 4.66389 14.0576 4.71989C14.0016 4.77322 13.935 4.79989 13.8576 4.79989C13.7803 4.79989 13.7136 4.77322 13.6576 4.71989C13.6043 4.66389 13.5776 4.59722 13.5776 4.51989V2.27989C13.5776 2.14655 13.6403 2.05855 13.7656 2.01589C13.891 1.97055 13.995 2.00122 14.0776 2.10789L15.0576 3.34789L16.0376 2.10789C16.1203 2.00389 16.2243 1.97322 16.3496 2.01589C16.475 2.05855 16.5376 2.14655 16.5376 2.27989V4.51989C16.5376 4.59722 16.511 4.66389 16.4576 4.71989Z" fill="#333333"/>
<path fill-rule="evenodd" clip-rule="evenodd" d="M5.25 11.75L5.25 18.25C5.25 18.6642 4.91421 19 4.5 19C4.08579 19 3.75 18.6642 3.75 18.25L3.75 11.75C3.75 11.3358 4.08579 11 4.5 11C4.91421 11 5.25 11.3358 5.25 11.75Z" fill="#333333"/>
<path fill-rule="evenodd" clip-rule="evenodd" d="M8.25 6.25L8.25 18.25C8.25 18.6642 7.91421 19 7.5 19C7.08579 19 6.75 18.6642 6.75 18.25L6.75 6.25C6.75 5.83579 7.08579 5.5 7.5 5.5C7.91421 5.5 8.25 5.83579 8.25 6.25Z" fill="#333333"/>
<path fill-rule="evenodd" clip-rule="evenodd" d="M11.25 10.25L11.25 18.25C11.25 18.6642 10.9142 19 10.5 19C10.0858 19 9.75 18.6642 9.75 18.25L9.75 10.25C9.75 9.83579 10.0858 9.5 10.5 9.5C10.9142 9.5 11.25 9.83579 11.25 10.25Z" fill="#333333"/>
<path fill-rule="evenodd" clip-rule="evenodd" d="M14.25 14.25L14.25 18.25C14.25 18.6642 13.9142 19 13.5 19C13.0858 19 12.75 18.6642 12.75 18.25L12.75 14.25C12.75 13.8358 13.0858 13.5 13.5 13.5C13.9142 13.5 14.25 13.8358 14.25 14.25Z" fill="#333333"/>
<path fill-rule="evenodd" clip-rule="evenodd" d="M17.25 13.25L17.25 18.25C17.25 18.6642 16.9142 19 16.5 19C16.0858 19 15.75 18.6642 15.75 18.25L15.75 13.25C15.75 12.8358 16.0858 12.5 16.5 12.5C16.9142 12.5 17.25 12.8358 17.25 13.25Z" fill="#333333"/>
<path fill-rule="evenodd" clip-rule="evenodd" d="M20.25 9.25L20.25 18.25C20.25 18.6642 19.9142 19 19.5 19C19.0858 19 18.75 18.6642 18.75 18.25L18.75 9.25C18.75 8.83579 19.0858 8.5 19.5 8.5C19.9142 8.5 20.25 8.83579 20.25 9.25Z" fill="#333333"/>
</svg>
