<svg width="24" height="24" viewBox="0 0 24 24" fill="none" xmlns="http://www.w3.org/2000/svg">
<path d="M5.33333 7.33325C3.11111 8.44436 2 19.5555 2 19.5555H10.8889V12.3332C10.351 10.3606 8.66854 9.45566 5.33333 7.33325Z" fill="#CCCCCC"/>
<path fill-rule="evenodd" clip-rule="evenodd" d="M4.99792 6.66243C5.23355 6.54462 5.51373 6.55907 5.73599 6.70051C6.02179 6.88238 6.29774 7.05666 6.56361 7.22458C7.81943 8.01772 8.85058 8.66896 9.63423 9.30827C10.6172 10.1102 11.2899 10.953 11.6125 12.136C11.63 12.2003 11.6389 12.2666 11.6389 12.3332V20.3055H2C1.78811 20.3055 1.5861 20.2158 1.44391 20.0587C1.30173 19.9016 1.23264 19.6917 1.25373 19.4808L2 19.5555C1.25373 19.4808 1.25371 19.481 1.25373 19.4808L1.25465 19.4717L1.25721 19.4467L1.26723 19.3511C1.27608 19.2678 1.2893 19.1462 1.30687 18.9913C1.34201 18.6816 1.39462 18.2389 1.4647 17.7045C1.60473 16.6367 1.81521 15.1979 2.09658 13.7207C2.37692 12.2489 2.7322 10.7143 3.16663 9.46533C3.38347 8.8419 3.62835 8.26508 3.90686 7.79508C4.17483 7.34289 4.52668 6.89805 4.99792 6.66243ZM2.83858 18.8055H10.1389V12.4383C9.91502 11.6939 9.48008 11.1184 8.68602 10.4706C7.97937 9.89406 7.04587 9.3041 5.79253 8.512C5.66417 8.43088 5.53245 8.34764 5.39728 8.26207C5.33692 8.33962 5.26983 8.4374 5.1973 8.55979C4.98971 8.9101 4.78319 9.38363 4.58337 9.95811C4.18446 11.105 3.8453 12.5565 3.57009 14.0014C3.2959 15.4408 3.08972 16.8492 2.95197 17.8995C2.90671 18.2446 2.86891 18.5505 2.83858 18.8055Z" fill="#CCCCCC"/>
<path d="M22 19.5555C20.8889 14.5555 20.3333 8.44444 16.4445 4C14.6207 6.22904 12.5556 8.99999 11.731 11.2222L11.731 19.5555H22Z" fill="#B3B3B3"/>
<path fill-rule="evenodd" clip-rule="evenodd" d="M16.432 3.2501C16.6526 3.24645 16.8636 3.3401 17.0089 3.50612C19.0551 5.84463 20.206 8.60134 20.9857 11.3658C21.4906 13.1559 21.8531 15.0099 22.1948 16.7579C22.3737 17.6734 22.547 18.5599 22.7321 19.3928C22.7815 19.6149 22.7274 19.8474 22.585 20.0248C22.4427 20.2023 22.2275 20.3055 22 20.3055H10.981L10.981 11.2222C10.981 11.1332 10.9969 11.0448 11.0279 10.9613C11.9018 8.606 14.0472 5.74559 15.864 3.52507C16.0037 3.35433 16.2115 3.25375 16.432 3.2501ZM16.4489 5.18806C14.8296 7.21983 13.2012 9.50947 12.481 11.3599L12.481 18.8055H21.0724C20.9454 18.1919 20.8247 17.5733 20.7033 16.9507C20.3706 15.2456 20.0323 13.5113 19.5421 11.773C18.8745 9.40637 17.9496 7.14411 16.4489 5.18806Z" fill="#B3B3B3"/>
<path fill-rule="evenodd" clip-rule="evenodd" d="M12.9318 10.035C12.5047 10.6893 11.8576 11.4167 10.8889 11.4167C10.1324 11.4167 9.49902 11.1295 8.96891 10.7625C8.4615 10.4112 8.00441 9.95403 7.60392 9.55348L7.58077 9.53032C7.15344 9.10299 6.78504 8.73773 6.39947 8.4708C6.0268 8.2128 5.68797 8.08333 5.33333 8.08333H5.33319C5.32587 8.08332 5.24697 8.08323 5.08937 8.24506C4.92792 8.41083 4.74443 8.68816 4.55361 9.09365C4.17371 9.90093 3.84073 11.0499 3.56724 12.3489C3.02186 14.9395 2.75 17.9433 2.75 19.5555C2.75 19.9697 2.41421 20.3055 2 20.3055C1.58579 20.3055 1.25 19.9697 1.25 19.5555C1.25 17.8344 1.5337 14.7271 2.09942 12.0399C2.38148 10.7001 2.74295 9.4185 3.19638 8.45495C3.42223 7.97502 3.69013 7.53186 4.01479 7.19851C4.34225 6.86227 4.78419 6.58333 5.33333 6.58333C6.0898 6.58333 6.72319 6.87052 7.25329 7.23752C7.7607 7.5888 8.21778 8.04595 8.61827 8.4465L8.64143 8.46966C9.06876 8.897 9.43717 9.26225 9.82273 9.52918C10.1954 9.78718 10.5342 9.91666 10.8889 9.91666C11.0312 9.91666 11.2869 9.81071 11.6758 9.21502C12.0051 8.71054 12.308 8.04681 12.6503 7.29699C12.6917 7.20616 12.7338 7.11407 12.7765 7.02084C13.154 6.19716 13.585 5.28806 14.121 4.58638C14.6583 3.88295 15.4081 3.25 16.4444 3.25C17.0763 3.25 17.6037 3.59531 18.0101 4.00051C18.4243 4.41333 18.8011 4.97391 19.1433 5.60367C19.8303 6.86769 20.4554 8.55607 20.9822 10.3123C22.0316 13.8101 22.75 17.7808 22.75 19.5555C22.75 19.9697 22.4142 20.3055 22 20.3055C21.5858 20.3055 21.25 19.9697 21.25 19.5555C21.25 17.997 20.5795 14.1899 19.5455 10.7433C19.0307 9.02725 18.4405 7.45175 17.8254 6.31994C17.5166 5.75178 17.2206 5.33146 16.9512 5.06286C16.6741 4.78664 16.5069 4.75 16.4444 4.75C16.0919 4.75 15.7305 4.95038 15.313 5.49694C14.8941 6.04526 14.5265 6.80283 14.1401 7.64582C14.0982 7.73728 14.056 7.83 14.0133 7.92352C13.6815 8.65187 13.3278 9.42843 12.9318 10.035Z" fill="#333333"/>
</svg>
