<svg width="24" height="24" viewBox="0 0 24 24" fill="none" xmlns="http://www.w3.org/2000/svg">
<path d="M12 4C7 4 3 19 3 19L12 10L21 19C21 19 17 4 12 4Z" fill="#CCCCCC"/>
<path fill-rule="evenodd" clip-rule="evenodd" d="M4.59383 16.3455L11.4697 9.46967C11.7626 9.17678 12.2374 9.17678 12.5303 9.46967L19.4062 16.3455C18.9706 15.033 18.3869 13.4136 17.6868 11.7982C16.8838 9.94501 15.9437 8.13481 14.9204 6.80007C13.8667 5.42565 12.8749 4.75 12 4.75C11.1252 4.75 10.1333 5.42565 9.07959 6.80007C8.05629 8.13481 7.11622 9.94501 6.31317 11.7982C5.61315 13.4136 5.0294 15.033 4.59383 16.3455ZM21 19C21.7247 18.8068 21.7246 18.8066 21.7246 18.8064L21.7213 18.7941L21.7121 18.7601C21.704 18.7305 21.6921 18.6871 21.6765 18.6308C21.6453 18.5183 21.599 18.3543 21.5386 18.1463C21.4177 17.7302 21.2398 17.1372 21.0107 16.4262C20.5531 15.0061 19.8885 13.1065 19.0632 11.2018C18.2412 9.30499 17.2438 7.36519 16.1108 5.88743C15.0083 4.44935 13.6252 3.25 12 3.25C10.3749 3.25 8.9917 4.44935 7.88918 5.88743C6.75623 7.36519 5.75879 9.30499 4.93684 11.2018C4.11147 13.1065 3.44688 15.0061 2.98928 16.4262C2.76018 17.1372 2.58228 17.7302 2.46142 18.1463C2.40097 18.3543 2.35476 18.5183 2.32351 18.6308C2.30788 18.6871 2.296 18.7305 2.28794 18.7601L2.27873 18.7941L2.27563 18.8056C2.27557 18.8059 2.27533 18.8068 3.00001 19L2.27533 18.8068C2.18791 19.1346 2.33146 19.4803 2.6254 19.6497C2.91933 19.8192 3.29042 19.7702 3.53034 19.5303L12 11.0607L20.4697 19.5303C20.7096 19.7702 21.0807 19.8192 21.3746 19.6497C21.6686 19.4803 21.812 19.1342 21.7246 18.8064L21 19Z" fill="#CCCCCC"/>
<path fill-rule="evenodd" clip-rule="evenodd" d="M3.00002 19C2.27535 18.8068 2.27539 18.8066 2.27545 18.8064L2.27875 18.7941L2.28795 18.7601C2.29601 18.7305 2.3079 18.6871 2.32353 18.6308C2.35478 18.5183 2.40099 18.3543 2.46143 18.1463C2.5823 17.7302 2.76019 17.1372 2.98929 16.4262C3.4469 15.0061 4.11149 13.1065 4.93686 11.2018C5.75881 9.30499 6.75624 7.36519 7.88919 5.88743C8.99172 4.44935 10.3749 3.25 12 3.25C13.6252 3.25 15.0083 4.44935 16.1109 5.88743C17.2438 7.36519 18.2412 9.30499 19.0632 11.2018C19.8886 13.1065 20.5531 15.0061 21.0108 16.4262C21.2399 17.1372 21.4178 17.7302 21.5386 18.1463C21.5991 18.3543 21.6453 18.5183 21.6765 18.6308C21.6921 18.6871 21.704 18.7305 21.7121 18.7601L21.7213 18.7941L21.7244 18.8056C21.7245 18.8059 21.7247 18.8068 21 19L21.7247 18.8068C21.8314 19.207 21.5935 19.6179 21.1933 19.7247C20.793 19.8314 20.3821 19.5935 20.2753 19.1932L20.2729 19.1842L20.2647 19.1538C20.2573 19.1267 20.2461 19.0859 20.2312 19.0323C20.2015 18.9251 20.1569 18.7668 20.0982 18.5647C19.9807 18.1604 19.8071 17.5815 19.583 16.8863C19.1344 15.4939 18.4865 13.6435 17.6869 11.7982C16.8838 9.94501 15.9437 8.13481 14.9204 6.80007C13.8667 5.42565 12.8749 4.75 12 4.75C11.1252 4.75 10.1333 5.42565 9.0796 6.80007C8.0563 8.13481 7.11624 9.94501 6.31319 11.7982C5.51356 13.6435 4.86565 15.4939 4.41701 16.8863C4.19298 17.5815 4.01932 18.1604 3.9019 18.5647C3.8432 18.7668 3.79859 18.9251 3.76881 19.0323C3.75391 19.0859 3.74273 19.1267 3.73535 19.1538L3.72714 19.1842L3.72477 19.193" fill="#333333"/>
<path d="M12 10.5C8.5 10.5 4 18 3 19L12 15L21 19C20 18 15.5 10.5 12 10.5Z" fill="#999999"/>
<path fill-rule="evenodd" clip-rule="evenodd" d="M5.35271 17.1336L11.6954 14.3146C11.8893 14.2285 12.1107 14.2285 12.3046 14.3146L18.6473 17.1336C18.1191 16.4209 17.5143 15.6291 16.8643 14.8587C16.0352 13.876 15.1526 12.9528 14.2835 12.2809C13.396 11.5947 12.6235 11.25 12 11.25C11.3765 11.25 10.604 11.5947 9.71655 12.2809C8.84739 12.9528 7.96481 13.876 7.13573 14.8587C6.48569 15.6291 5.88096 16.4209 5.35271 17.1336ZM8.7991 11.0941C9.77099 10.3428 10.8735 9.75 12 9.75C13.1265 9.75 14.229 10.3428 15.2009 11.0941C16.1911 11.8597 17.1523 12.874 18.0107 13.8913C18.8723 14.9124 19.6507 15.9614 20.2694 16.8072C20.3514 16.9193 20.4303 17.0274 20.506 17.1311C20.7184 17.4222 20.9061 17.6794 21.0697 17.8977C21.3002 18.205 21.4491 18.3885 21.5303 18.4697C21.7859 18.7252 21.8229 19.1267 21.6182 19.4246C21.4136 19.7225 21.0257 19.8321 20.6954 19.6854L12 15.8207L3.30462 19.6854C2.97436 19.8321 2.58638 19.7225 2.38178 19.4246C2.17717 19.1267 2.21413 18.7252 2.46968 18.4697C2.5509 18.3885 2.69977 18.205 2.93028 17.8977C3.09396 17.6794 3.28164 17.4222 3.49407 17.1311C3.56976 17.0274 3.6486 16.9193 3.73061 16.8072C4.34929 15.9614 5.12774 14.9124 5.98929 13.8913C6.84771 12.874 7.80888 11.8597 8.7991 11.0941Z" fill="#999999"/>
<path fill-rule="evenodd" clip-rule="evenodd" d="M4.13027 18.7977C3.90961 19.0919 3.69912 19.3615 3.53033 19.5303C3.23744 19.8232 2.76256 19.8232 2.46967 19.5303C2.17678 19.2374 2.17678 18.7626 2.46967 18.4697C2.55088 18.3885 2.69976 18.205 2.93027 17.8977C3.09395 17.6794 3.28163 17.4222 3.49406 17.1311C3.56975 17.0274 3.64859 16.9193 3.7306 16.8072C4.34927 15.9614 5.12773 14.9124 5.98928 13.8913C6.8477 12.874 7.80887 11.8597 8.79909 11.0941C9.77098 10.3428 10.8735 9.75 12 9.75C13.1265 9.75 14.229 10.3428 15.2009 11.0941C16.1911 11.8597 17.1523 12.874 18.0107 13.8913C18.8723 14.9124 19.6507 15.9614 20.2694 16.8072C20.3514 16.9193 20.4303 17.0274 20.506 17.1311C20.7184 17.4222 20.9061 17.6794 21.0697 17.8977C21.3002 18.205 21.4491 18.3885 21.5303 18.4697C21.8232 18.7626 21.8232 19.2374 21.5303 19.5303C21.2374 19.8232 20.7626 19.8232 20.4697 19.5303C20.3009 19.3615 20.0904 19.0919 19.8697 18.7977C19.6996 18.5709 19.5033 18.3018 19.2886 18.0076C19.2141 17.9055 19.1374 17.8003 19.0587 17.6928C18.443 16.8511 17.6902 15.8376 16.8643 14.8587C16.0352 13.876 15.1526 12.9528 14.2835 12.2809C13.396 11.5947 12.6235 11.25 12 11.25C11.3765 11.25 10.604 11.5947 9.71654 12.2809C8.84738 12.9528 7.9648 13.876 7.13572 14.8587C6.30977 15.8376 5.55698 16.8511 4.94128 17.6928C4.86264 17.8003 4.78587 17.9055 4.71132 18.0077C4.49669 18.3018 4.30036 18.5709 4.13027 18.7977Z" fill="#333333"/>
<path d="M12 15C9 15 5 19 3 19H21C19 19 15 15 12 15Z" fill="#808080"/>
<path fill-rule="evenodd" clip-rule="evenodd" d="M3 18.25C3.29605 18.25 3.77469 18.0868 4.47518 17.7132C5.0125 17.4267 5.59593 17.0649 6.23003 16.6717C6.39392 16.5701 6.56119 16.4663 6.73193 16.3613C7.54626 15.8601 8.42496 15.338 9.29999 14.9418C10.1687 14.5484 11.0949 14.25 12 14.25C12.9051 14.25 13.8313 14.5484 14.7 14.9418C15.575 15.338 16.4537 15.8601 17.2681 16.3613C17.4388 16.4663 17.6061 16.5701 17.77 16.6717C18.4041 17.0649 18.9875 17.4267 19.5248 17.7132C20.2253 18.0868 20.704 18.25 21 18.25C21.4142 18.25 21.75 18.5858 21.75 19C21.75 19.4142 21.4142 19.75 21 19.75H3C2.58579 19.75 2.25 19.4142 2.25 19C2.25 18.5858 2.58579 18.25 3 18.25ZM17.4702 18.25C17.2998 18.1453 17.1283 18.0389 16.9568 17.9326C16.7983 17.8342 16.6397 17.7359 16.4819 17.6387C15.6713 17.1399 14.8625 16.662 14.0812 16.3082C13.2937 15.9516 12.5949 15.75 12 15.75C11.4051 15.75 10.7063 15.9516 9.91876 16.3082C9.13754 16.662 8.32874 17.1399 7.51807 17.6387C7.36027 17.7359 7.2017 17.8342 7.04316 17.9326C6.87167 18.0389 6.70022 18.1453 6.52983 18.25H17.4702Z" fill="#808080"/>
<path fill-rule="evenodd" clip-rule="evenodd" d="M5.18107 19.0368C4.47531 19.4132 3.70395 19.75 3 19.75C2.58579 19.75 2.25 19.4142 2.25 19C2.25 18.5858 2.58579 18.25 3 18.25C3.29605 18.25 3.77469 18.0868 4.47518 17.7132C5.0125 17.4267 5.59593 17.0649 6.23003 16.6717C6.39392 16.5701 6.56119 16.4663 6.73193 16.3613C7.54626 15.8601 8.42496 15.338 9.29999 14.9418C10.1687 14.5484 11.0949 14.25 12 14.25C12.9051 14.25 13.8313 14.5484 14.7 14.9418C15.575 15.338 16.4537 15.8601 17.2681 16.3613C17.4388 16.4663 17.6061 16.5701 17.77 16.6717C18.4041 17.0649 18.9875 17.4267 19.5248 17.7132C20.2253 18.0868 20.704 18.25 21 18.25C21.4142 18.25 21.75 18.5858 21.75 19C21.75 19.4142 21.4142 19.75 21 19.75C20.296 19.75 19.5247 19.4132 18.8189 19.0368C18.234 18.7248 17.5957 18.3289 16.9568 17.9326C16.7983 17.8342 16.6397 17.7359 16.4819 17.6387C15.6713 17.1399 14.8625 16.662 14.0812 16.3082C13.2937 15.9516 12.5949 15.75 12 15.75C11.4051 15.75 10.7063 15.9516 9.91876 16.3082C9.13754 16.662 8.32874 17.1399 7.51807 17.6387C7.36027 17.7359 7.2017 17.8342 7.04316 17.9326C6.40429 18.3289 5.76597 18.7248 5.18107 19.0368Z" fill="#333333"/>
</svg>
