<svg width="24" height="24" viewBox="0 0 24 24" fill="none" xmlns="http://www.w3.org/2000/svg">
<path fill-rule="evenodd" clip-rule="evenodd" d="M8.16835 5.11463C9.0527 3.75617 10.2625 2.75 12 2.75C13.7375 2.75 14.9473 3.75617 15.8317 5.11463C16.7008 6.44964 17.3344 8.2378 17.922 10.055C18.0454 10.4365 18.167 10.8203 18.2886 11.204C18.7581 12.6852 19.2278 14.1671 19.8008 15.5309C20.5226 17.2485 21.3676 18.6722 22.4774 19.5882C22.7969 19.8519 22.8421 20.3246 22.5784 20.6441C22.3148 20.9635 21.842 21.0088 21.5226 20.7451C20.1325 19.5977 19.1719 17.9062 18.418 16.112C17.8157 14.6787 17.3193 13.1117 16.8479 11.6238C16.729 11.2485 16.6117 10.8783 16.4947 10.5165C15.9018 8.68283 15.3201 7.07814 14.5746 5.93299C13.8444 4.81129 13.0403 4.25 12 4.25C10.9598 4.25 10.1557 4.81129 9.42544 5.93299C8.67995 7.07814 8.09825 8.68283 7.5053 10.5165C7.38831 10.8783 7.27101 11.2485 7.15213 11.6238C6.68075 13.1118 6.18434 14.6787 5.58208 16.112C4.82813 17.9062 3.86758 19.5977 2.47744 20.7451C2.15799 21.0088 1.68528 20.9635 1.4216 20.6441C1.15793 20.3246 1.20315 19.8519 1.5226 19.5882C2.63246 18.6722 3.47747 17.2485 4.19921 15.5309C4.77227 14.1671 5.24196 12.6852 5.71142 11.204C5.83305 10.8203 5.95467 10.4366 6.07807 10.055C6.66568 8.2378 7.29926 6.44964 8.16835 5.11463Z" fill="#333333"/>
<path fill-rule="evenodd" clip-rule="evenodd" d="M12 2.25C12.0947 2.25 12.1813 2.3035 12.2236 2.3882L13.0309 4.00288L13.792 2.86132C13.8531 2.76966 13.967 2.7288 14.0724 2.76073C14.1779 2.79265 14.25 2.88983 14.25 3V4.17431L14.792 3.36133C14.8531 3.26966 14.967 3.2288 15.0724 3.26073C15.1779 3.29265 15.25 3.38983 15.25 3.5V6.17431L15.792 5.36133C15.8531 5.26966 15.967 5.2288 16.0724 5.26073C16.1779 5.29265 16.25 5.38983 16.25 5.5V8.17431L16.792 7.36132C16.8531 7.26966 16.967 7.2288 17.0724 7.26073C17.1779 7.29265 17.25 7.38983 17.25 7.5V10.941L17.7764 9.8882C17.8282 9.78449 17.9446 9.73005 18.0574 9.75669C18.1703 9.78333 18.25 9.88406 18.25 10V13.941L18.7764 12.8882C18.8282 12.7845 18.9446 12.73 19.0574 12.7567C19.1703 12.7833 19.25 12.8841 19.25 13V16.1743L19.792 15.3613C19.8531 15.2697 19.967 15.2288 20.0724 15.2607C20.1779 15.2927 20.25 15.3898 20.25 15.5V18.1743L20.792 17.3613C20.8531 17.2697 20.967 17.2288 21.0724 17.2607C21.1779 17.2927 21.25 17.3898 21.25 17.5V19.1743L21.792 18.3613C21.8473 18.2783 21.9468 18.2361 22.0449 18.2541C22.1431 18.272 22.2212 18.3466 22.2436 18.4438L22.7436 20.6105C22.7746 20.7451 22.6907 20.8793 22.5562 20.9103C22.4217 20.9414 22.2874 20.8575 22.2564 20.723L21.8867 19.1207L21.208 20.1387C21.1469 20.2303 21.033 20.2712 20.9275 20.2393C20.8221 20.2073 20.75 20.1102 20.75 20V18.3257L20.208 19.1387C20.1469 19.2303 20.033 19.2712 19.9275 19.2393C19.8221 19.2073 19.75 19.1102 19.75 19V16.3257L19.208 17.1387C19.1469 17.2303 19.033 17.2712 18.9275 17.2393C18.8221 17.2073 18.75 17.1102 18.75 17V14.059L18.2236 15.1118C18.1717 15.2155 18.0554 15.27 17.9426 15.2433C17.8297 15.2167 17.75 15.1159 17.75 15V11.059L17.2236 12.1118C17.1717 12.2155 17.0554 12.27 16.9426 12.2433C16.8297 12.2167 16.75 12.1159 16.75 12V8.32569L16.208 9.13868C16.1469 9.23034 16.033 9.2712 15.9275 9.23927C15.8221 9.20735 15.75 9.11017 15.75 9V6.32569L15.208 7.13868C15.1469 7.23034 15.033 7.2712 14.9275 7.23927C14.8221 7.20735 14.75 7.11017 14.75 7V4.32569L14.208 5.13867C14.1469 5.23034 14.033 5.2712 13.9275 5.23927C13.8221 5.20735 13.75 5.11017 13.75 5V3.82569L13.208 4.63867C13.1586 4.71283 13.0734 4.75505 12.9845 4.74952C12.8955 4.74398 12.8162 4.69151 12.7764 4.6118L12 3.05902L11.2236 4.6118C11.1837 4.69151 11.1045 4.74398 11.0155 4.74952C10.9266 4.75505 10.8414 4.71283 10.792 4.63867L10.25 3.82569V5C10.25 5.11017 10.1779 5.20735 10.0724 5.23927C9.967 5.2712 9.85309 5.23034 9.79198 5.13867L9.24999 4.32569V7C9.24999 7.11017 9.17788 7.20735 9.07244 7.23927C8.967 7.2712 8.85309 7.23034 8.79198 7.13868L8.24999 6.32569V9C8.24999 9.11017 8.17788 9.20735 8.07244 9.23927C7.967 9.2712 7.85309 9.23034 7.79198 9.13868L7.24999 8.32569V12C7.24999 12.1159 7.17028 12.2167 7.05743 12.2433C6.94459 12.27 6.82824 12.2155 6.77639 12.1118L6.24999 11.059V15C6.24999 15.1159 6.17028 15.2167 6.05743 15.2433C5.94459 15.27 5.82824 15.2155 5.77639 15.1118L5.24999 14.059V17C5.24999 17.1102 5.17788 17.2073 5.07244 17.2393C4.967 17.2712 4.85309 17.2303 4.79198 17.1387L4.24999 16.3257V19C4.24999 19.1102 4.17788 19.2073 4.07244 19.2393C3.967 19.2712 3.85309 19.2303 3.79198 19.1387L3.24999 18.3257V20C3.24999 20.1102 3.17788 20.2073 3.07244 20.2393C2.967 20.2712 2.85309 20.2303 2.79198 20.1387L2.11333 19.1207L1.74359 20.723C1.71255 20.8575 1.57832 20.9414 1.44378 20.9103C1.30925 20.8793 1.22535 20.7451 1.2564 20.6105L1.75639 18.4438C1.77883 18.3466 1.85693 18.272 1.95508 18.2541C2.05324 18.2361 2.15265 18.2783 2.208 18.3613L2.74999 19.1743V17.5C2.74999 17.3898 2.82211 17.2927 2.92755 17.2607C3.03299 17.2288 3.1469 17.2697 3.20801 17.3613L3.74999 18.1743V15.5C3.74999 15.3898 3.82211 15.2927 3.92755 15.2607C4.03299 15.2288 4.1469 15.2697 4.20801 15.3613L4.74999 16.1743V13C4.74999 12.8841 4.82971 12.7833 4.94256 12.7567C5.0554 12.73 5.17175 12.7845 5.2236 12.8882L5.74999 13.941V10C5.74999 9.88406 5.82971 9.78333 5.94256 9.75669C6.0554 9.73005 6.17175 9.78449 6.2236 9.8882L6.74999 10.941V7.5C6.74999 7.38983 6.82211 7.29265 6.92755 7.26073C7.03299 7.2288 7.1469 7.26966 7.20801 7.36132L7.74999 8.17431V5.5C7.74999 5.38983 7.82211 5.29265 7.92755 5.26073C8.03299 5.2288 8.1469 5.26966 8.20801 5.36133L8.74999 6.17431V3.5C8.74999 3.38983 8.82211 3.29265 8.92755 3.26073C9.03299 3.2288 9.1469 3.26966 9.20801 3.36133L9.74999 4.17431V3C9.74999 2.88983 9.82211 2.79265 9.92755 2.76073C10.033 2.7288 10.1469 2.76966 10.208 2.86132L10.969 4.00288L11.7764 2.3882C11.8187 2.3035 11.9053 2.25 12 2.25Z" fill="#999999"/>
</svg>
