<svg width="24" height="24" viewBox="0 0 24 24" fill="none" xmlns="http://www.w3.org/2000/svg">
<path fill-rule="evenodd" clip-rule="evenodd" d="M5.48253 1.94115C5.59338 1.8466 5.79618 1.72864 6.06717 1.75299C6.08133 1.75427 6.11366 1.75583 6.1611 1.75811C6.3879 1.76904 6.96005 1.7966 7.54366 1.88929C8.25462 2.00221 9.18113 2.23342 9.88272 2.76434C10.7109 3.39109 10.9577 4.47969 10.9367 5.34116C10.9256 5.79293 10.8419 6.24809 10.6844 6.64575C10.5325 7.02951 10.2793 7.43901 9.87481 7.68596C9.7455 7.76489 9.59541 7.80276 9.44434 7.79475C8.29308 7.91665 7.36947 7.6606 6.66753 7.1334C5.96621 6.60668 5.56352 5.86759 5.33983 5.17243C5.11597 4.47674 5.05426 3.7748 5.07063 3.24267C5.07875 2.97869 5.10685 2.72997 5.15599 2.52872C5.17894 2.43475 5.21659 2.30785 5.28345 2.18742C5.31612 2.12858 5.37785 2.03043 5.48253 1.94115ZM9.17673 6.31327C9.21021 6.26474 9.25 6.19398 9.2898 6.09348C9.37345 5.88223 9.42976 5.60495 9.43711 5.3045C9.45283 4.66151 9.24986 4.16651 8.97757 3.96047C8.57866 3.6586 7.95494 3.47341 7.30838 3.37073C7.02843 3.32626 6.78093 3.30127 6.57003 3.28547C6.56999 3.28658 6.56996 3.28769 6.56992 3.2888C6.55783 3.68171 6.60541 4.20853 6.76772 4.71296C6.93021 5.21791 7.19057 5.65029 7.56833 5.93401C7.90683 6.18824 8.40681 6.37419 9.17673 6.31327Z" fill="#333333" class='xian'/>
<path fill-rule="evenodd" clip-rule="evenodd" d="M15.24 1.46366C14.4492 1.67944 13.511 2.13136 12.8759 3.08357C11.651 4.92021 12.1675 7.27753 13.48 8.5402C13.6213 8.67613 13.8102 8.75133 14.0063 8.74968C15.3978 8.738 16.4356 8.30106 17.1504 7.56867C17.85 6.85179 18.1628 5.93095 18.2751 5.08274C18.3875 4.23322 18.3077 3.39685 18.1652 2.76624C18.0943 2.4525 18.002 2.16341 17.8944 1.93559C17.8423 1.82531 17.7718 1.69736 17.6771 1.58455C17.6157 1.51138 17.3871 1.24997 17.0004 1.24971L16.9971 1.24971C16.7337 1.24953 16.0266 1.24904 15.24 1.46366ZM16.6093 2.75891C16.6398 2.85019 16.672 2.96336 16.7021 3.09686C16.8124 3.58483 16.8734 4.2407 16.788 4.88597C16.7025 5.53256 16.4789 6.10908 16.0769 6.52101C15.7307 6.87575 15.1906 7.17196 14.3161 7.23676C13.6216 6.379 13.4138 4.98052 14.1239 3.91585C14.489 3.3684 15.0507 3.07014 15.6349 2.91076C15.9972 2.81191 16.3423 2.77366 16.6093 2.75891Z" fill="#333333" class='xian'/>
<path fill-rule="evenodd" clip-rule="evenodd" d="M11.8529 8.26453C12.2591 8.18329 12.6542 8.4467 12.7354 8.85287L12 8.99996C12.7354 8.85287 12.7354 8.85275 12.7354 8.85287L12.7361 8.85625L12.7375 8.86325L12.7422 8.88772C12.7462 8.90857 12.7518 8.93835 12.7586 8.97607C12.7722 9.05147 12.7908 9.1589 12.8113 9.29042C12.8523 9.55256 12.9018 9.91489 12.9349 10.3127C12.9679 10.7079 12.986 11.1535 12.9595 11.578C12.934 11.9865 12.8634 12.4502 12.6708 12.8354C12.5915 12.9941 12.4818 13.3304 12.4402 13.7175C12.3988 14.1042 12.4368 14.4348 12.5418 14.6533C12.7251 14.9891 12.9671 15.6274 13.1165 16.3311C13.2666 17.0379 13.3539 17.9474 13.0873 18.7393C12.9589 19.1207 12.6979 20.3717 13.7525 21.4839C14.0375 21.7845 14.0249 22.2592 13.7243 22.5442C13.4237 22.8292 12.949 22.8166 12.664 22.516C11.0552 20.8193 11.4574 18.8793 11.6657 18.2607C11.8036 17.851 11.7804 17.2606 11.6492 16.6427C11.5202 16.0352 11.3163 15.5351 11.2217 15.3655C11.2161 15.3556 11.2108 15.3456 11.2057 15.3354C10.9149 14.7537 10.8918 14.089 10.9488 13.5575C11.0065 13.0196 11.1585 12.5059 11.3292 12.1646C11.3866 12.0497 11.4411 11.826 11.4624 11.4844C11.4828 11.1589 11.4697 10.7921 11.4401 10.4372C11.4107 10.085 11.3665 9.75986 11.3293 9.522C11.3108 9.40352 11.2942 9.30783 11.2824 9.2426C11.2766 9.21001 11.2719 9.18511 11.2688 9.16884L11.2654 9.15108L11.2646 9.1473C11.2646 9.14725 11.2646 9.14736 11.2646 9.1473M11.8529 8.26453C11.4468 8.34575 11.1835 8.74119 11.2646 9.1473L11.8529 8.26453Z" fill="#765E32" class='mian'/>
<path fill-rule="evenodd" clip-rule="evenodd" d="M10.7372 8.28844C11.1301 8.41942 11.3425 8.84415 11.2115 9.23711C10.885 10.2169 10.5116 10.8141 10.0554 11.3048C9.839 11.5377 9.61196 11.7376 9.399 11.9243C9.3902 11.932 9.38141 11.9397 9.37262 11.9474C9.16371 12.1305 8.95912 12.3098 8.73865 12.5303C8.51186 12.7571 8.4783 12.9091 8.41338 13.2032C8.38715 13.322 8.3558 13.464 8.30452 13.6435C8.21811 13.9459 8.06656 14.295 7.72091 14.6008C7.39325 14.8906 6.95248 15.087 6.3902 15.2276C5.64103 15.4149 5.00633 15.9779 4.5596 16.7294C4.11 17.4857 3.91146 18.3345 3.95615 18.9453C3.98638 19.3584 3.67599 19.7178 3.26288 19.748C2.84977 19.7782 2.49038 19.4678 2.46015 19.0547C2.38946 18.0886 2.69093 16.9374 3.27023 15.9629C3.85239 14.9836 4.77546 14.0851 6.02642 13.7724C6.46419 13.6629 6.64846 13.5468 6.72707 13.4773C6.78769 13.4237 6.82364 13.3665 6.86222 13.2315C6.87395 13.1904 6.88542 13.1339 6.89939 13.0652C6.97092 12.7133 7.10777 12.0399 7.67797 11.4697C7.93423 11.2134 8.17193 11.0051 8.37695 10.8255C8.38812 10.8157 8.3992 10.806 8.41018 10.7964C8.62772 10.6056 8.79958 10.4527 8.95673 10.2836C9.24774 9.97051 9.52021 9.5677 9.78849 8.76281C9.91946 8.36985 10.3442 8.15746 10.7372 8.28844Z" fill="#765E32" class='mian'/>
<path fill-rule="evenodd" clip-rule="evenodd" d="M14 8.24994C13.5858 8.24994 13.25 8.58573 13.25 8.99994H14C13.25 8.99994 13.25 8.99964 13.25 8.99994L13.25 9.00119L13.25 9.00268L13.25 9.00635L13.2501 9.01645L13.2507 9.04733C13.2514 9.07252 13.2526 9.10683 13.2549 9.14912C13.2595 9.23353 13.2684 9.35065 13.286 9.49119C13.3207 9.76981 13.3907 10.1532 13.5341 10.5611C13.8178 11.3685 14.438 12.3879 15.7452 12.726C16.1181 12.8225 16.2173 12.9366 16.246 12.9756C16.2873 13.0318 16.319 13.1162 16.3528 13.3552C16.356 13.3777 16.3593 13.4036 16.363 13.4323C16.3893 13.6373 16.4341 13.9875 16.5856 14.2977C16.7927 14.722 17.1574 15.032 17.6959 15.2115C19.1263 15.6883 20.577 16.5674 20.9806 18.1818C21.081 18.5837 21.4882 18.828 21.8901 18.7275C22.2919 18.6271 22.5362 18.2199 22.4358 17.818C21.8394 15.4325 19.7398 14.3116 18.1702 13.7884C17.97 13.7217 17.9426 13.6599 17.9347 13.6422C17.9343 13.6412 17.9339 13.6404 17.9335 13.6397C17.897 13.5649 17.8854 13.4818 17.8514 13.2398C17.8473 13.2105 17.8428 13.1789 17.838 13.1447C17.801 12.8837 17.7347 12.4681 17.4542 12.0868C17.1611 11.6882 16.7145 11.4274 16.1208 11.2738C15.495 11.112 15.1487 10.6314 14.9492 10.0638C14.851 9.78422 14.8001 9.51132 14.7744 9.30556C14.7618 9.20392 14.7556 9.12182 14.7527 9.06756C14.7512 9.04051 14.7505 9.02062 14.7502 9.00894L14.75 8.9978C14.75 8.99745 14.75 8.99703 14.75 8.9978L14.75 8.99892C14.7497 8.58495 14.414 8.24994 14 8.24994Z" fill="#765E32" class='mian'/>
<path fill-rule="evenodd" clip-rule="evenodd" d="M6.92963 13.8036C7.31422 13.6498 7.7507 13.8368 7.90453 14.2214C7.90687 14.2273 7.90923 14.2332 7.9116 14.2391C8.07219 14.6404 8.30511 15.2225 8.28275 15.8877C8.25854 16.6078 7.94663 17.3222 7.23851 18.0303C6.94561 18.3232 6.47074 18.3232 6.17785 18.0303C5.88495 17.7374 5.88495 17.2625 6.17785 16.9696C6.66972 16.4777 6.77447 16.1088 6.7836 15.8373C6.79424 15.5206 6.68443 15.21 6.51182 14.7785C6.35798 14.3939 6.54504 13.9574 6.92963 13.8036Z" fill="#765E32" class='mian'/>
<path fill-rule="evenodd" clip-rule="evenodd" d="M18.5036 14.3106C18.8843 14.4738 19.0606 14.9147 18.8975 15.2954C18.6889 15.782 18.464 16.6668 18.5194 17.6451C18.574 18.6099 18.8972 19.6284 19.7385 20.4696C20.0313 20.7625 20.0313 21.2374 19.7385 21.5303C19.4456 21.8232 18.9707 21.8232 18.6778 21.5303C17.519 20.3715 17.0922 18.9734 17.0218 17.7298C16.9522 16.4998 17.2273 15.3846 17.5188 14.7045C17.6819 14.3238 18.1228 14.1474 18.5036 14.3106Z" fill="#765E32" class='mian'/>
<path fill-rule="evenodd" clip-rule="evenodd" d="M12.9506 15.8939C13.0092 16.304 12.7243 16.6839 12.3142 16.7424C11.5273 16.8549 9.45818 17.8628 9.45818 21.5C9.45818 21.9142 9.12239 22.25 8.70818 22.25C8.29396 22.25 7.95818 21.9142 7.95818 21.5C7.95818 17.1372 10.5557 15.4784 12.1021 15.2575C12.5122 15.1989 12.8921 15.4839 12.9506 15.8939Z" fill="#765E32" class='mian'/>
<path fill-rule="evenodd" clip-rule="evenodd" d="M13.2968 15.0303C12.7762 14.7174 12.1886 14.6803 11.8315 14.7398C11.4229 14.8079 11.0365 14.5319 10.9684 14.1233C10.9003 13.7147 11.1763 13.3283 11.5849 13.2602C12.2278 13.1531 13.1901 13.216 14.0696 13.7447C14.9837 14.2943 15.7223 15.2957 15.9506 16.8939C16.0092 17.304 15.7243 17.6839 15.3143 17.7425C14.9042 17.801 14.5243 17.5161 14.4657 17.1061C14.294 15.9043 13.7826 15.3224 13.2968 15.0303Z" fill="#765E32" class='mian'/>
<path fill-rule="evenodd" clip-rule="evenodd" d="M7.59799 4.38047C7.83875 4.04342 8.30716 3.96535 8.64422 4.2061C9.25492 4.64232 10.0566 5.30079 10.6298 6.12229C11.2076 6.95036 11.6115 8.03708 11.2115 9.23715C11.0805 9.63011 10.6558 9.84249 10.2628 9.71152C9.86988 9.58054 9.6575 9.1558 9.78848 8.76284C9.98332 8.17826 9.82473 7.58985 9.39964 6.98063C8.96995 6.36482 8.32833 5.82382 7.77237 5.4267C7.43531 5.18595 7.35724 4.71753 7.59799 4.38047Z" fill="#333333" class='xian'/>
<path fill-rule="evenodd" clip-rule="evenodd" d="M15.2372 4.78851C14.8443 4.65752 14.4195 4.86988 14.2885 5.26284C13.7853 6.77256 13.5288 7.66746 13.3974 8.19311C13.3316 8.45618 13.2957 8.63277 13.2758 8.75172C13.2659 8.81151 13.2595 8.85927 13.2557 8.89805C13.2537 8.91757 13.2523 8.93548 13.2514 8.95207C13.2509 8.96039 13.2506 8.96851 13.2503 8.97644L13.2501 8.98828L13.25 8.99416L13.25 8.99709L13.25 8.99856C13.25 8.99929 13.25 9.00002 14 9.00002H13.25C13.25 9.41423 13.5858 9.75002 14 9.75002C14.4001 9.75002 14.727 9.43675 14.7488 9.04212C14.7491 9.04036 14.7493 9.03814 14.7497 9.03544C14.7508 9.02732 14.7526 9.01514 14.7554 8.99833C14.7668 8.92977 14.7934 8.79386 14.8526 8.55693C14.9712 8.08258 15.2148 7.22748 15.7115 5.7372C15.8425 5.34425 15.6302 4.9195 15.2372 4.78851Z" fill="#333333" class='xian'/>
<path fill-rule="evenodd" clip-rule="evenodd" d="M2.25 9C2.25 8.58579 2.58579 8.25 3 8.25H22C22.4142 8.25 22.75 8.58579 22.75 9C22.75 9.41421 22.4142 9.75 22 9.75H3C2.58579 9.75 2.25 9.41421 2.25 9Z" fill="#333333" class='xian'/>
</svg>
