<svg width="24" height="24" viewBox="0 0 24 24" fill="none" xmlns="http://www.w3.org/2000/svg">
<path d="M11.6331 3.00388C15.5 3.22974 15.6104 7.1854 15.1425 8.8115C19.8216 7.3246 21.6152 9.43105 21.9272 10.6702C22.4886 13.6437 19.6656 14.542 18.1839 14.6194C21.1785 18.3363 19.7436 20.1947 18.6518 20.6593C15.2828 21.5886 13.3488 19.1881 12.8029 17.8717C11.3056 21.031 8.7477 21.2014 7.65595 20.8916C4.47413 19.9624 5.86225 16.6327 6.95405 15.084C2.46213 14.3406 1.80706 12.1415 2.04101 11.1348C2.78967 7.4179 6.7201 8.03725 8.59175 8.8115C7.8431 3.97956 10.3074 2.92644 11.6331 3.00388Z" fill="rgba(0,0,0,0)" class='mian'/>
<path fill-rule="evenodd" clip-rule="evenodd" d="M9.91949 4.53609C9.4099 5.1711 8.97722 6.40099 9.33291 8.69667C9.3744 8.96442 9.26824 9.23373 9.05522 9.40117C8.8422 9.5686 8.55543 9.60812 8.30506 9.50455C7.4433 9.14806 6.1398 8.84649 5.01561 9.02926C4.46641 9.11854 3.9906 9.31794 3.61883 9.65241C3.25222 9.98223 2.93627 10.4884 2.77625 11.2829C2.77479 11.2902 2.77322 11.2974 2.77155 11.3046C2.71382 11.553 2.7393 12.1063 3.28125 12.7047C3.82628 13.3065 4.93291 13.9893 7.0765 14.344C7.33116 14.3862 7.54625 14.5563 7.6459 14.7944C7.74556 15.0325 7.71577 15.3051 7.56705 15.5161C7.05856 16.2374 6.52168 17.3257 6.45029 18.2763C6.41572 18.7367 6.49369 19.1126 6.68129 19.4044C6.86354 19.6878 7.20416 19.9778 7.86334 20.1708C8.64769 20.3919 10.8046 20.3369 12.1252 17.5504C12.2522 17.2825 12.5251 17.1146 12.8215 17.1219C13.1179 17.1292 13.3822 17.3105 13.4957 17.5844C13.721 18.1276 14.2541 18.9298 15.0847 19.4835C15.878 20.0124 16.9637 20.3318 18.3995 19.9506C18.7308 19.7942 19.1257 19.4218 19.2058 18.7678C19.2917 18.066 19.0356 16.8719 17.5999 15.0899C17.4231 14.8705 17.3842 14.5706 17.4992 14.3134C17.6141 14.0562 17.8634 13.8851 18.1448 13.8704C18.793 13.8365 19.7109 13.6186 20.3763 13.1274C20.6988 12.8893 20.9476 12.5984 21.0948 12.2435C21.2388 11.8963 21.3054 11.4404 21.1946 10.833C21.0849 10.4251 20.7039 9.79043 19.8579 9.39937C19.0039 9.00467 17.5889 8.82106 15.3696 9.52628C15.1061 9.61005 14.8178 9.54194 14.6195 9.34908C14.4213 9.15622 14.3453 8.86991 14.4217 8.60411C14.6203 7.91414 14.6967 6.68605 14.3101 5.64333C14.1218 5.13528 13.8325 4.69431 13.4163 4.36853C13.0042 4.04595 12.4233 3.80131 11.5894 3.75261C11.1278 3.72565 10.4317 3.89788 9.91949 4.53609ZM8.74961 3.59727C9.61388 2.52029 10.8127 2.20468 11.6769 2.25516C12.7764 2.31938 13.6594 2.6539 14.3409 3.18735C15.0183 3.71759 15.4525 4.40951 15.7166 5.12188C16.0461 6.01069 16.1248 6.96605 16.0692 7.78465C17.9556 7.36877 19.4072 7.53859 20.4872 8.03779C21.7717 8.63148 22.445 9.65483 22.6545 10.4871C22.6582 10.5016 22.6614 10.5163 22.6642 10.531C22.828 11.3985 22.7522 12.1627 22.4803 12.8181C22.2098 13.4704 21.7654 13.9664 21.2672 14.3342C20.7234 14.7357 20.0994 14.9972 19.5093 15.1577C20.4929 16.6454 20.8226 17.9057 20.6947 18.9501C20.5364 20.2432 19.6983 21.029 18.9455 21.3494C18.9148 21.3625 18.8833 21.3734 18.8512 21.3823C16.9443 21.9083 15.3955 21.4934 14.2527 20.7317C13.6546 20.3329 13.1739 19.8442 12.8073 19.3574C11.1015 21.7828 8.67949 21.9616 7.45124 21.6131L7.4457 21.6116L7.44571 21.6115C6.51585 21.34 5.83753 20.8657 5.41955 20.2155C5.00665 19.5733 4.9033 18.8457 4.95451 18.1639C5.02215 17.2633 5.36474 16.3547 5.75972 15.6049C4.02477 15.1763 2.87935 14.4955 2.16943 13.7116C1.32367 12.7777 1.13616 11.734 1.30783 10.9766C1.52298 9.91761 1.97821 9.1107 2.61559 8.53728C3.24982 7.96669 4.01398 7.6724 4.77491 7.54869C5.78098 7.38514 6.83292 7.51029 7.72118 7.73686C7.61002 5.84192 8.02586 4.49915 8.74961 3.59727Z" fill="#333333" class='xian'/>
<path fill-rule="evenodd" clip-rule="evenodd" d="M12.9685 12.4144C13.292 12.6731 13.3444 13.1451 13.0856 13.4685L11.0856 15.9685C10.8269 16.292 10.3549 16.3444 10.0315 16.0857C9.70803 15.8269 9.65559 15.355 9.91435 15.0315L11.9143 12.5315C12.1731 12.2081 12.6451 12.1556 12.9685 12.4144Z" fill="#333333" class='xian'/>
<path fill-rule="evenodd" clip-rule="evenodd" d="M8.7602 12.3767C8.8283 11.9681 9.21472 11.6921 9.62329 11.7602L12.6233 12.2602C13.0319 12.3283 13.3079 12.7147 13.2398 13.1233C13.1717 13.5319 12.7853 13.8079 12.3767 13.7398L9.3767 13.2398C8.96812 13.1717 8.6921 12.7853 8.7602 12.3767Z" fill="#333333" class='xian'/>
<path fill-rule="evenodd" clip-rule="evenodd" d="M11.8939 8.75751C12.304 8.69893 12.6839 8.98386 12.7425 9.39391L13.2425 12.8939C13.301 13.304 13.0161 13.6839 12.6061 13.7424C12.196 13.801 11.8161 13.5161 11.7575 13.106L11.2575 9.60604C11.199 9.19599 11.4839 8.81609 11.8939 8.75751Z" fill="#333333" class='xian'/>
<path fill-rule="evenodd" clip-rule="evenodd" d="M16.2115 11.7628C16.3425 12.1558 16.1301 12.5805 15.7372 12.7115L12.7372 13.7115C12.3442 13.8425 11.9195 13.6301 11.7885 13.2372C11.6575 12.8442 11.8699 12.4195 12.2628 12.2885L15.2628 11.2885C15.6558 11.1575 16.0805 11.3699 16.2115 11.7628Z" fill="#333333" class='xian'/>
<path fill-rule="evenodd" clip-rule="evenodd" d="M11.9143 12.5315C12.1731 12.2081 12.6451 12.1556 12.9685 12.4144L15.4685 14.4144C15.792 14.6731 15.8444 15.1451 15.5856 15.4685C15.3269 15.792 14.8549 15.8444 14.5315 15.5857L12.0315 13.5857C11.708 13.3269 11.6556 12.855 11.9143 12.5315Z" fill="#333333" class='xian'/>
</svg>
