<svg width="24" height="24" viewBox="0 0 24 24" fill="none" xmlns="http://www.w3.org/2000/svg">
<path d="M2 9H16V11H2V9Z" fill="rgba(0,0,0,0)" class='mian'/>
<path d="M2 19H16V21H2V19Z" fill="rgba(0,0,0,0)" class='mian'/>
<path fill-rule="evenodd" clip-rule="evenodd" d="M1.75 9C1.75 8.58579 2.08579 8.25 2.5 8.25H16C16.4142 8.25 16.75 8.58579 16.75 9V21C16.75 21.4142 16.4142 21.75 16 21.75H2.5C2.08579 21.75 1.75 21.4142 1.75 21V9ZM3.25 9.75V20.25H15.25V9.75H3.25Z" fill="#333333" class='xian'/>
<path fill-rule="evenodd" clip-rule="evenodd" d="M6.63048 11.8474C6.86561 11.7142 7.15417 11.7179 7.38587 11.8569L9.5 13.1254L11.6141 11.8569C11.8458 11.7179 12.1344 11.7142 12.3695 11.8474C12.6047 11.9805 12.75 12.2298 12.75 12.5V17.5C12.75 17.9142 12.4142 18.25 12 18.25C11.5858 18.25 11.25 17.9142 11.25 17.5V13.8246L9.88587 14.6431C9.64836 14.7856 9.35164 14.7856 9.11413 14.6431L7.75 13.8246V17.5C7.75 17.9142 7.41421 18.25 7 18.25C6.58579 18.25 6.25 17.9142 6.25 17.5V12.5C6.25 12.2298 6.39534 11.9805 6.63048 11.8474Z" fill="#333333" class='xian'/>
<path d="M5 3V6H18.5V3H5Z" fill="rgba(0,0,0,0)" class='mian'/>
<path fill-rule="evenodd" clip-rule="evenodd" d="M4.25 3C4.25 2.58579 4.58579 2.25 5 2.25H18.5C18.9142 2.25 19.25 2.58579 19.25 3V6C19.25 6.41421 18.9142 6.75 18.5 6.75H5C4.58579 6.75 4.25 6.41421 4.25 6V3ZM5.75 3.75V5.25H17.75V3.75H5.75Z" fill="#333333" class='xian'/>
<path fill-rule="evenodd" clip-rule="evenodd" d="M18.5 5.25C18.7225 5.25 18.9336 5.34887 19.0761 5.51986L21.5761 8.51986C21.6884 8.65465 21.75 8.82455 21.75 9V21C21.75 21.4142 21.4142 21.75 21 21.75H16C15.5857 21.75 15.25 21.4142 15.25 21V9C15.25 8.82455 15.3115 8.65465 15.4238 8.51986L17.9238 5.51986C18.0663 5.34887 18.2774 5.25 18.5 5.25ZM16.75 9.27154V20.25H20.25V9.27154L18.5 7.17154L16.75 9.27154Z" fill="#333333" class='xian'/>
<path fill-rule="evenodd" clip-rule="evenodd" d="M4.42383 5.51986C4.56632 5.34887 4.77741 5.25 4.99999 5.25H18.5C18.791 5.25 19.0558 5.41834 19.1792 5.68188C19.3026 5.94542 19.2625 6.25658 19.0762 6.48014L16.5762 9.48014C16.4337 9.65113 16.2226 9.75 16 9.75H2.49999C2.20898 9.75 1.94424 9.58166 1.8208 9.31812C1.69737 9.05458 1.73753 8.74342 1.92383 8.51986L4.42383 5.51986ZM5.35127 6.75L4.10127 8.25H15.6487L16.8987 6.75H5.35127Z" fill="#333333" class='xian'/>
</svg>
