<svg width="24" height="24" viewBox="0 0 24 24" fill="none" xmlns="http://www.w3.org/2000/svg">
<path fill-rule="evenodd" clip-rule="evenodd" d="M17.3644 7.10568C17.7264 7.30695 17.8567 7.76359 17.6555 8.12562C14.8562 13.1606 10.9561 17.4983 6.24617 20.8153L4.76219 21.8604C4.42353 22.0989 3.95565 22.0177 3.71715 21.679C3.47865 21.3404 3.55985 20.8725 3.89851 20.634L5.38249 19.5889C9.90779 16.402 13.655 12.2343 16.3444 7.39675C16.5457 7.03473 17.0024 6.90441 17.3644 7.10568Z" fill="#333333" class='xian'/>
<path d="M16.7925 7.93477C19.5339 8.01619 20.0252 4.68154 19.9282 3.00403C19.1756 4.1874 18.1551 4.87719 17.7389 5.07417C16.4891 5.94135 16.5872 7.34256 16.7925 7.93477Z" fill="rgba(0,0,0,0)"  class='mian'/>
<path fill-rule="evenodd" clip-rule="evenodd" d="M20.1169 2.27814C19.8019 2.19624 19.47 2.32688 19.2953 2.60153C18.6258 3.65431 17.7188 4.25387 17.418 4.39624C17.3808 4.41385 17.3451 4.43449 17.3113 4.45795C15.6726 5.59503 15.8209 7.42194 16.0838 8.18039C16.1858 8.47459 16.459 8.67518 16.7702 8.68442C17.621 8.70969 18.3353 8.46645 18.9069 8.03133C19.4666 7.60522 19.8502 7.02585 20.1115 6.43035C20.628 5.25331 20.7296 3.8717 20.677 2.96071C20.6582 2.63577 20.4319 2.36004 20.1169 2.27814ZM17.4166 7.12178C17.4206 6.67234 17.5812 6.11876 18.1245 5.72028C18.3412 5.61035 18.638 5.42586 18.967 5.16652C18.9057 5.39478 18.83 5.61773 18.738 5.8276C18.5459 6.26527 18.2987 6.60914 17.9983 6.83781C17.8355 6.96177 17.6451 7.06133 17.4166 7.12178Z" fill="#333333" class='xian'/>
<path d="M14.5221 12.3214C16.5077 14.2132 19.1009 12.0599 20.1493 10.7468C18.7987 11.1246 17.5785 10.9562 17.1372 10.8248C15.6279 10.6353 14.7649 11.7435 14.5221 12.3214Z" fill="rgba(0,0,0,0)"  class='mian'/>
<path fill-rule="evenodd" clip-rule="evenodd" d="M20.7746 10.3327C20.5949 10.0613 20.2606 9.93681 19.9472 10.0245C18.7457 10.3607 17.6703 10.201 17.3513 10.106C17.3118 10.0943 17.2715 10.0858 17.2307 10.0807C15.2516 9.83213 14.1416 11.2908 13.8306 12.0308C13.71 12.3179 13.7793 12.6496 14.0047 12.8644C14.621 13.4515 15.315 13.7477 16.031 13.8057C16.7322 13.8625 17.4046 13.6876 17.9969 13.419C19.1675 12.8881 20.1661 11.9278 20.7354 11.2147C20.9385 10.9604 20.9543 10.604 20.7746 10.3327ZM15.5296 12.1333C15.8328 11.8015 16.3221 11.4969 16.9925 11.5632C17.2273 11.6262 17.5713 11.6871 17.9895 11.714C17.7914 11.8429 17.5861 11.9582 17.3774 12.0529C16.9421 12.2503 16.5284 12.3411 16.1522 12.3106C15.9482 12.294 15.74 12.2409 15.5296 12.1333Z" fill="#333333" class='xian'/>
<path d="M12.0768 15.7968C13.5765 18.093 16.5938 16.5906 17.915 15.5524C16.5138 15.6111 15.3646 15.1677 14.9651 14.9387C13.5393 14.4087 12.4454 15.2899 12.0768 15.7968Z" fill="rgba(0,0,0,0)"  class='mian'/>
<path fill-rule="evenodd" clip-rule="evenodd" d="M18.6185 15.2924C18.5057 14.9871 18.2089 14.7894 17.8837 14.803C16.6371 14.8552 15.6268 14.4535 15.3381 14.288C15.3023 14.2675 15.265 14.25 15.2264 14.2357C13.3568 13.5407 11.9424 14.7064 11.4702 15.3556C11.2871 15.6074 11.2786 15.9462 11.4488 16.2069C11.9143 16.9195 12.5221 17.3667 13.2058 17.5871C13.8753 17.8029 14.57 17.7866 15.208 17.6608C16.4691 17.412 17.6609 16.7059 18.3784 16.1421C18.6343 15.941 18.7313 15.5977 18.6185 15.2924ZM13.1006 15.8444C13.4717 15.5908 14.0177 15.4063 14.6552 15.6244C14.8693 15.7394 15.1902 15.8775 15.5911 15.9994C15.3688 16.0795 15.1426 16.1448 14.9177 16.1891C14.4488 16.2816 14.0253 16.2753 13.666 16.1594C13.4712 16.0967 13.2807 15.9973 13.1006 15.8444Z" fill="#333333" class='xian'/>
<path d="M8.13799 18.4339C9.28252 20.9263 12.4885 19.8855 13.9484 19.0536C12.5539 18.9049 11.4826 18.2968 11.1213 18.0114C9.7893 17.2768 8.57742 17.987 8.13799 18.4339Z" fill="rgba(0,0,0,0)"  class='mian'/>
<path fill-rule="evenodd" clip-rule="evenodd" d="M14.6826 18.9003C14.616 18.5817 14.3516 18.3424 14.0279 18.3079C12.7873 18.1755 11.8474 17.6292 11.5862 17.4229C11.5539 17.3974 11.5196 17.3746 11.4835 17.3547C9.73693 16.3914 8.16598 17.3357 7.60319 17.9081C7.38488 18.1301 7.32647 18.4639 7.45641 18.7469C7.81162 19.5204 8.34677 20.0524 8.99048 20.3713C9.62084 20.6835 10.3103 20.7699 10.9599 20.7396C12.2439 20.6796 13.5269 20.157 14.3197 19.7053C14.6025 19.5441 14.7491 19.219 14.6826 18.9003ZM9.14356 18.6321C9.54802 18.436 10.1153 18.3341 10.7136 18.6439C10.9084 18.7892 11.2055 18.9732 11.584 19.1529C11.3522 19.1993 11.1189 19.2305 10.8899 19.2412C10.4125 19.2635 9.99461 19.1947 9.65633 19.0271C9.47295 18.9363 9.29918 18.8099 9.14356 18.6321Z" fill="#333333" class='xian'/>
<path d="M14.1007 12.1586C11.733 10.7744 13.0842 7.68639 14.0557 6.31542C14.0665 7.71779 14.5662 8.84369 14.8147 9.23135C15.4147 10.6292 14.5887 11.7653 14.1007 12.1586Z" fill="rgba(0,0,0,0)"  class='mian'/>
<path fill-rule="evenodd" clip-rule="evenodd" d="M14.2805 5.59989C14.591 5.69744 14.8032 5.98415 14.8057 6.30962C14.8153 7.55724 15.2665 8.54641 15.4461 8.8266C15.4683 8.86126 15.4876 8.89768 15.5039 8.93551C16.2906 10.7684 15.1963 12.2388 14.5713 12.7425C14.3289 12.9379 13.9909 12.9632 13.7221 12.8061C12.9873 12.3765 12.5106 11.7916 12.2566 11.1196C12.0079 10.4616 11.9898 9.76698 12.0839 9.12351C12.2699 7.85166 12.9162 6.62629 13.4438 5.88177C13.6319 5.61621 13.9699 5.50234 14.2805 5.59989ZM14.0024 11.1384C14.2373 10.7552 14.3946 10.2007 14.1452 9.5748C14.0197 9.36669 13.8659 9.05294 13.7243 8.65859C13.6553 8.88463 13.6013 9.1138 13.5681 9.34057C13.4989 9.8135 13.5263 10.2361 13.6597 10.5893C13.7321 10.7807 13.8408 10.966 14.0024 11.1384Z" fill="#333333" class='xian'/>
<path d="M11.1354 15.4178C8.59996 14.3722 9.51374 11.1278 10.2876 9.63624C10.4911 11.0238 11.1408 12.0703 11.4402 12.4201C12.2267 13.7222 11.5647 14.9611 11.1354 15.4178Z" fill="rgba(0,0,0,0)"  class='mian'/>
<path fill-rule="evenodd" clip-rule="evenodd" d="M10.4118 8.89661C10.7328 8.95054 10.9824 9.20536 11.0296 9.5274C11.2107 10.7618 11.7936 11.6796 12.01 11.9324C12.0368 11.9637 12.0609 11.9971 12.0822 12.0324C13.1134 13.7397 12.2317 15.3466 11.6819 15.9315C11.4686 16.1583 11.1374 16.2298 10.8495 16.1111C10.0626 15.7866 9.51 15.2728 9.16604 14.6421C8.82921 14.0246 8.71578 13.339 8.72053 12.6888C8.72992 11.4034 9.20159 10.1008 9.62182 9.29084C9.77172 9.00193 10.0909 8.84267 10.4118 8.89661ZM10.8979 14.4208C11.0778 14.0089 11.1574 13.438 10.8243 12.8524C10.6714 12.6635 10.4759 12.3739 10.2815 12.0027C10.2442 12.2361 10.2222 12.4705 10.2205 12.6997C10.217 13.1777 10.3022 13.5925 10.4829 13.9239C10.5809 14.1036 10.714 14.2723 10.8979 14.4208Z" fill="#333333" class='xian'/>
<path d="M7.95027 18.412C5.45058 17.2836 6.4706 14.071 7.29307 12.6057C7.45083 13.9992 8.06576 15.0665 8.35351 15.426C9.09673 16.7533 8.39436 17.9697 7.95027 18.412Z" fill="rgba(0,0,0,0)"  class='mian'/>
<path fill-rule="evenodd" clip-rule="evenodd" d="M7.44163 11.8705C7.76067 11.935 8.00171 12.1979 8.03832 12.5213C8.17866 13.761 8.73105 14.6974 8.93903 14.9573C8.96476 14.9894 8.98779 15.0236 9.0079 15.0595C9.98244 16.7998 9.04829 18.3769 8.47955 18.9433C8.25893 19.1631 7.92549 19.2236 7.64169 19.0955C6.86591 18.7453 6.3305 18.2136 6.00748 17.5719C5.69115 16.9436 5.60033 16.2547 5.62647 15.6049C5.67814 14.3206 6.19242 13.0343 6.63907 12.2385C6.79839 11.9547 7.12259 11.806 7.44163 11.8705ZM7.74564 17.4077C7.93906 17.0019 8.03733 16.434 7.72372 15.8377C7.57711 15.6439 7.39123 15.348 7.20912 14.9706C7.16418 15.2027 7.13447 15.4363 7.12526 15.6652C7.10605 16.1428 7.17751 16.5602 7.34727 16.8974C7.43929 17.0802 7.5668 17.2532 7.74564 17.4077Z" fill="#333333" class='xian'/>
</svg>
