<svg width="24" height="24" viewBox="0 0 24 24" fill="none" xmlns="http://www.w3.org/2000/svg">
<path fill-rule="evenodd" clip-rule="evenodd" d="M1.25 2.5C1.25 2.08579 1.58579 1.75 2 1.75H22C22.4142 1.75 22.75 2.08579 22.75 2.5V21.5C22.75 21.9142 22.4142 22.25 22 22.25H2C1.58579 22.25 1.25 21.9142 1.25 21.5V2.5ZM2.75 3.25V20.75H21.25V3.25H2.75Z" fill="#333333" class='xian'/>
<path d="M8.5 14H15.5V17.5H8.5V14Z" fill="#999999" class='mian'/>
<path fill-rule="evenodd" clip-rule="evenodd" d="M3.64645 11.1465C4.394 10.3989 5.60601 10.3989 6.35356 11.1465C6.71058 11.5035 7.28943 11.5035 7.64645 11.1465C7.84172 10.9512 8.1583 10.9512 8.35356 11.1465C8.54882 11.3417 8.54882 11.6583 8.35356 11.8536C7.60601 12.6011 6.394 12.6011 5.64645 11.8536C5.28943 11.4966 4.71058 11.4966 4.35356 11.8536C3.60601 12.6011 2.394 12.6011 1.64645 11.8536L2.35356 11.1465C2.71058 11.5035 3.28943 11.5035 3.64645 11.1465ZM15.6465 11.1465C16.394 10.3989 17.606 10.3989 18.3536 11.1465C18.7106 11.5035 19.2894 11.5035 19.6465 11.1465C20.394 10.3989 21.606 10.3989 22.3536 11.1465L21.6465 11.8536C21.2894 11.4966 20.7106 11.4966 20.3536 11.8536C19.606 12.6011 18.394 12.6011 17.6465 11.8536C17.2894 11.4966 16.7106 11.4966 16.3536 11.8536C16.1583 12.0488 15.8417 12.0488 15.6465 11.8536C15.4512 11.6583 15.4512 11.3417 15.6465 11.1465Z" fill="#333333" class='xian'/>
<path fill-rule="evenodd" clip-rule="evenodd" d="M10.5833 6.75V7.33303C10.9748 7.49629 11.25 7.88268 11.25 8.33333V9.29825C11.25 9.73184 10.8985 10.0833 10.4649 10.0833H9.5C9.36193 10.0833 9.25 10.1953 9.25 10.3333V17C9.25 17.1381 9.36193 17.25 9.5 17.25H14.5C14.6381 17.25 14.75 17.1381 14.75 17V10.3333C14.75 10.1953 14.6381 10.0833 14.5 10.0833H13.5351C13.1015 10.0833 12.75 9.73184 12.75 9.29825V8.33333C12.75 7.88268 13.0252 7.49629 13.4167 7.33303V6.75H10.5833ZM9.08333 6.42553C9.08333 5.7763 9.60964 5.25 10.2589 5.25H13.7411C14.3904 5.25 14.9167 5.7763 14.9167 6.42553V7.66667C14.9167 8.05263 14.7148 8.39145 14.4109 8.58333H14.5C15.4665 8.58333 16.25 9.36684 16.25 10.3333V17C16.25 17.9665 15.4665 18.75 14.5 18.75H9.5C8.5335 18.75 7.75 17.9665 7.75 17V10.3333C7.75 9.36684 8.5335 8.58333 9.5 8.58333H9.58905C9.28517 8.39145 9.08333 8.05263 9.08333 7.66667V6.42553Z" fill="#333333" class='xian'/>
<path fill-rule="evenodd" clip-rule="evenodd" d="M12 9.75C12.2761 9.75 12.5 9.97386 12.5 10.25L12.5 16.25C12.5 16.5261 12.2761 16.75 12 16.75C11.7239 16.75 11.5 16.5261 11.5 16.25L11.5 10.25C11.5 9.97386 11.7239 9.75 12 9.75Z" fill="#333333" class='xian'/>
<path fill-rule="evenodd" clip-rule="evenodd" d="M11.75 10.5C11.75 10.3619 11.8619 10.25 12 10.25L14 10.25C14.1381 10.25 14.25 10.3619 14.25 10.5C14.25 10.6381 14.1381 10.75 14 10.75L12 10.75C11.8619 10.75 11.75 10.6381 11.75 10.5Z" fill="#333333" class='xian'/>
<path fill-rule="evenodd" clip-rule="evenodd" d="M11.9 11.06C11.9 11.0047 11.9448 10.96 12 10.96L13 10.96C13.0552 10.96 13.1 11.0047 13.1 11.06C13.1 11.1152 13.0552 11.16 13 11.16L12 11.16C11.9448 11.16 11.9 11.1152 11.9 11.06Z" fill="#333333" class='xian'/>
<path fill-rule="evenodd" clip-rule="evenodd" d="M11.9 11.62C11.9 11.5648 11.9448 11.52 12 11.52L13 11.52C13.0552 11.52 13.1 11.5648 13.1 11.62C13.1 11.6752 13.0552 11.72 13 11.72L12 11.72C11.9448 11.72 11.9 11.6752 11.9 11.62Z" fill="#333333" class='xian'/>
<path fill-rule="evenodd" clip-rule="evenodd" d="M11.9 12.18C11.9 12.1247 11.9448 12.08 12 12.08L13 12.08C13.0552 12.08 13.1 12.1247 13.1 12.18C13.1 12.2352 13.0552 12.28 13 12.28L12 12.28C11.9448 12.28 11.9 12.2352 11.9 12.18Z" fill="#333333" class='xian'/>
<path fill-rule="evenodd" clip-rule="evenodd" d="M11.9 12.74C11.9 12.6848 11.9448 12.64 12 12.64L13 12.64C13.0552 12.64 13.1 12.6848 13.1 12.74C13.1 12.7952 13.0552 12.84 13 12.84L12 12.84C11.9448 12.84 11.9 12.7952 11.9 12.74Z" fill="#333333" class='xian'/>
<path fill-rule="evenodd" clip-rule="evenodd" d="M11.75 13.3C11.75 13.162 11.8619 13.05 12 13.05L14 13.05C14.1381 13.05 14.25 13.162 14.25 13.3C14.25 13.4381 14.1381 13.55 14 13.55L12 13.55C11.8619 13.55 11.75 13.4381 11.75 13.3Z" fill="#333333" class='xian'/>
<path fill-rule="evenodd" clip-rule="evenodd" d="M11.9 13.86C11.9 13.8048 11.9448 13.76 12 13.76L13 13.76C13.0552 13.76 13.1 13.8048 13.1 13.86C13.1 13.9152 13.0552 13.96 13 13.96L12 13.96C11.9448 13.96 11.9 13.9152 11.9 13.86Z" fill="#333333" class='xian'/>
<path fill-rule="evenodd" clip-rule="evenodd" d="M11.9 14.4199C11.9 14.3647 11.9448 14.3199 12 14.3199L13 14.3199C13.0552 14.3199 13.1 14.3647 13.1 14.4199C13.1 14.4752 13.0552 14.5199 13 14.5199L12 14.5199C11.9448 14.5199 11.9 14.4752 11.9 14.4199Z" fill="#333333" class='xian'/>
<path fill-rule="evenodd" clip-rule="evenodd" d="M11.9 14.98C11.9 14.9248 11.9448 14.88 12 14.88L13 14.88C13.0552 14.88 13.1 14.9248 13.1 14.98C13.1 15.0352 13.0552 15.08 13 15.08L12 15.08C11.9448 15.08 11.9 15.0352 11.9 14.98Z" fill="#333333" class='xian'/>
<path fill-rule="evenodd" clip-rule="evenodd" d="M11.9 15.5399C11.9 15.4847 11.9448 15.4399 12 15.4399L13 15.4399C13.0552 15.4399 13.1 15.4847 13.1 15.5399C13.1 15.5952 13.0552 15.6399 13 15.6399L12 15.6399C11.9448 15.6399 11.9 15.5952 11.9 15.5399Z" fill="#333333" class='xian'/>
<path fill-rule="evenodd" clip-rule="evenodd" d="M11.75 16.1C11.75 15.9619 11.8619 15.85 12 15.85L14 15.85C14.1381 15.85 14.25 15.9619 14.25 16.1C14.25 16.238 14.1381 16.35 14 16.35L12 16.35C11.8619 16.35 11.75 16.238 11.75 16.1Z" fill="#333333" class='xian'/>
<path fill-rule="evenodd" clip-rule="evenodd" d="M10.25 8C10.25 7.58579 10.5858 7.25 11 7.25H14C14.4142 7.25 14.75 7.58579 14.75 8C14.75 8.41421 14.4142 8.75 14 8.75H11C10.5858 8.75 10.25 8.41421 10.25 8Z" fill="#333333" class='xian'/>
<path d="M18.8789 18.5C18.8789 18.7092 18.7093 18.8788 18.5001 18.8788C18.2909 18.8788 18.1213 18.7092 18.1213 18.5C18.1213 18.2908 18.2909 18.1212 18.5001 18.1212C18.7093 18.1212 18.8789 18.2908 18.8789 18.5Z" fill="#333333" class='xian'/>
<path fill-rule="evenodd" clip-rule="evenodd" d="M19.0375 17.609C19.1351 17.5113 19.2934 17.5113 19.3911 17.609C19.8832 18.1011 19.8832 18.899 19.3911 19.3911C19.2934 19.4887 19.1351 19.4887 19.0375 19.3911C18.9399 19.2935 18.9399 19.1352 19.0375 19.0375C19.3344 18.7407 19.3344 18.2594 19.0375 17.9625C18.9399 17.8649 18.9399 17.7066 19.0375 17.609ZM17.9625 17.609C18.0601 17.7066 18.0601 17.8649 17.9625 17.9625C17.6656 18.2594 17.6656 18.7407 17.9625 19.0375C18.0601 19.1352 18.0601 19.2935 17.9625 19.3911C17.8649 19.4887 17.7066 19.4887 17.6089 19.3911C17.1168 18.899 17.1168 18.1011 17.6089 17.609C17.7066 17.5113 17.8649 17.5113 17.9625 17.609Z" fill="#333333" class='xian'/>
<path fill-rule="evenodd" clip-rule="evenodd" d="M19.5732 17.0733C19.6709 16.9756 19.8291 16.9756 19.9268 17.0733C20.7148 17.8612 20.7148 19.1388 19.9268 19.9268C19.8291 20.0244 19.6709 20.0244 19.5732 19.9268C19.4756 19.8292 19.4756 19.6709 19.5732 19.5733C20.1659 18.9805 20.1659 18.0195 19.5732 17.4268C19.4756 17.3292 19.4756 17.1709 19.5732 17.0733ZM17.4268 17.0733C17.5244 17.1709 17.5244 17.3292 17.4268 17.4268C16.8341 18.0195 16.8341 18.9805 17.4268 19.5733C17.5244 19.6709 17.5244 19.8292 17.4268 19.9268C17.3291 20.0244 17.1709 20.0244 17.0732 19.9268C16.2852 19.1388 16.2852 17.8612 17.0732 17.0733C17.1709 16.9756 17.3291 16.9756 17.4268 17.0733Z" fill="#333333" class='xian'/>
</svg>
