<svg width="24" height="24" viewBox="0 0 24 24" fill="none" xmlns="http://www.w3.org/2000/svg">
<path fill-rule="evenodd" clip-rule="evenodd" d="M1.25 2C1.25 1.58579 1.58579 1.25 2 1.25H22C22.4142 1.25 22.75 1.58579 22.75 2V22C22.75 22.4142 22.4142 22.75 22 22.75H2C1.58579 22.75 1.25 22.4142 1.25 22V2ZM2.75 2.75V21.25H21.25V2.75H2.75Z" fill="#333333" class='xian'/>
<path fill-rule="evenodd" clip-rule="evenodd" d="M16.9325 7.94456C17.0301 8.04219 17.0301 8.20048 16.9325 8.29811C16.6396 8.59101 16.6396 9.06588 16.9325 9.35877C17.2254 9.65167 17.7003 9.65167 17.9932 9.35877C18.6766 8.67536 18.6766 7.56732 17.9932 6.8839C17.7003 6.59101 17.2254 6.59101 16.9325 6.8839C16.6396 7.17679 16.6396 7.65167 16.9325 7.94456Z" fill="#333333" class='xian'/>
<path fill-rule="evenodd" clip-rule="evenodd" d="M7.0658 7.94456C6.96817 8.04219 6.96817 8.20048 7.0658 8.29811C7.35869 8.59101 7.35869 9.06588 7.0658 9.35878C6.7729 9.65167 6.29803 9.65167 6.00514 9.35877C5.32172 8.67536 5.32172 7.56732 6.00514 6.8839C6.29803 6.59101 6.7729 6.59101 7.0658 6.8839C7.35869 7.17679 7.35869 7.65167 7.0658 7.94456Z" fill="#333333" class='xian'/>
<path fill-rule="evenodd" clip-rule="evenodd" d="M18.3484 6.53035C19.227 7.40903 19.227 8.83365 18.3484 9.71233C18.0555 10.0052 18.0555 10.4801 18.3484 10.773C18.6413 11.0659 19.1161 11.0659 19.409 10.773C20.8735 9.30852 20.8735 6.93415 19.409 5.46969C19.1161 5.17679 18.6413 5.17679 18.3484 5.46969C18.0555 5.76258 18.0555 6.23745 18.3484 6.53035Z" fill="#333333" class='xian'/>
<path fill-rule="evenodd" clip-rule="evenodd" d="M5.65164 6.53035C4.77296 7.40903 4.77296 8.83365 5.65164 9.71233C5.94453 10.0052 5.94453 10.4801 5.65164 10.773C5.35875 11.0659 4.88387 11.0659 4.59098 10.773C3.12652 9.30852 3.12652 6.93415 4.59098 5.46969C4.88388 5.17679 5.35875 5.17679 5.65164 5.46969C5.94454 5.76258 5.94454 6.23746 5.65164 6.53035Z" fill="#333333" class='xian'/>
<path fill-rule="evenodd" clip-rule="evenodd" d="M8.25 5.5C8.25 5.08579 8.58579 4.75 9 4.75H15C15.4142 4.75 15.75 5.08579 15.75 5.5V7.375C15.75 7.78921 15.4142 8.125 15 8.125V16.0833C15 16.6784 14.807 17.2573 14.45 17.7333L13.4 19.1333C12.7 20.0667 11.3 20.0667 10.6 19.1333L9.55 17.7333C9.19299 17.2573 9 16.6784 9 16.0833V8.125C8.58579 8.125 8.25 7.78921 8.25 7.375V5.5ZM10.5 8.125V16.0833C10.5 16.3538 10.5877 16.617 10.75 16.8333L11.8 18.2333C11.9 18.3667 12.1 18.3667 12.2 18.2333L13.25 16.8333C13.4123 16.617 13.5 16.3538 13.5 16.0833V8.125H10.5ZM14.25 6.625H9.75V6.25H14.25V6.625Z" fill="#333333" class='xian'/>
</svg>
