<svg width="24" height="24" viewBox="0 0 24 24" fill="none" xmlns="http://www.w3.org/2000/svg">
<path d="M9 3C4 3 2 19 2 19L15.871 18.9142C14.9069 17.6571 13.7856 3 9 3Z" fill="#CCCCCC" class='mian'/>
<path fill-rule="evenodd" clip-rule="evenodd" d="M2.8641 18.2446L14.7985 18.1709C14.7884 18.1325 14.7783 18.0935 14.7683 18.054C14.6309 17.5129 14.486 16.8201 14.3287 16.0468C14.2931 15.8719 14.2568 15.6924 14.2197 15.5089C13.9257 14.0556 13.5807 12.3498 13.1429 10.6754C12.6476 8.78081 12.0483 6.98677 11.3051 5.68077C10.5406 4.33742 9.76681 3.75 9 3.75C8.17992 3.75 7.31125 4.41851 6.44177 5.8829C5.601 7.29894 4.90332 9.225 4.34699 11.2031C3.79349 13.1711 3.39224 15.145 3.12914 16.6308C3.01481 17.2764 2.92688 17.828 2.8641 18.2446ZM15.6298 19.6658L2.00464 19.75C1.78871 19.7513 1.58269 19.6595 1.43928 19.4981C1.29588 19.3367 1.22901 19.1212 1.2558 18.907L2 19C1.2558 18.907 1.25577 18.9072 1.2558 18.907L1.25749 18.8936L1.26216 18.8574C1.26626 18.8258 1.27235 18.7796 1.28047 18.7197C1.2967 18.5998 1.32104 18.425 1.35372 18.2032C1.41906 17.7596 1.51786 17.1274 1.65212 16.3692C1.92027 14.855 2.33152 12.8289 2.90302 10.7969C3.47169 8.775 4.21151 6.70106 5.15199 5.1171C6.06376 3.58149 7.32008 2.25 9 2.25C10.626 2.25 11.7869 3.49472 12.6088 4.93887C13.4519 6.42036 14.0904 8.36916 14.5942 10.296C15.0433 12.0141 15.397 13.7629 15.6902 15.2125C15.7272 15.396 15.7634 15.5746 15.7986 15.7478C15.9568 16.5254 16.095 17.1839 16.2222 17.685C16.2858 17.9356 16.3432 18.1328 16.3947 18.2784C16.4116 18.3262 16.426 18.363 16.4376 18.3908C16.6268 18.527 16.75 18.7491 16.75 19C16.75 19.4142 16.4142 19.75 16 19.75C15.8555 19.75 15.7323 19.7153 15.6298 19.6658Z" fill="#CCCCCC" class='mian'/>
<path d="M15.5 11.5001C11 11.0001 3 18.0001 2 19.0001H11.5L22 19.0001C19 19.0001 20 12.0001 15.5 11.5001Z" fill="#999999" class='mian'/>
<path fill-rule="evenodd" clip-rule="evenodd" d="M3.97161 18.2501L19.6881 18.2501C19.3318 17.6455 19.0487 16.8811 18.7823 16.1617C18.7247 16.0062 18.6679 15.8528 18.6113 15.7036C17.9094 13.8533 17.1701 12.4403 15.4172 12.2455C14.4852 12.142 13.2859 12.4258 11.9292 13.0094C10.5897 13.5856 9.17944 14.4174 7.85688 15.3094C6.33474 16.336 4.95676 17.4229 3.97161 18.2501ZM22 18.2501C21.6241 18.2501 21.3263 18.0654 20.9947 17.5127C20.7077 17.0344 20.48 16.4219 20.2096 15.6946C20.147 15.5263 20.0822 15.3519 20.0138 15.1716C19.3406 13.3969 18.3299 11.0599 15.5828 10.7547C14.2648 10.6082 12.7766 11.0119 11.3365 11.6315C9.87912 12.2584 8.3831 13.1453 7.01817 14.0658C4.29241 15.9041 2.00499 17.9345 1.46969 18.4698C1.25519 18.6843 1.19103 19.0069 1.30711 19.2871C1.4232 19.5674 1.69668 19.7501 2.00002 19.7501L22 19.7501C22.4142 19.7501 22.75 19.4143 22.75 19.0001C22.75 18.5859 22.4142 18.2501 22 18.2501Z" fill="#999999" class='mian'/>
<path fill-rule="evenodd" clip-rule="evenodd" d="M7.63983 15.0357C5.12092 16.9403 3.02626 19.0344 2.53033 19.5303C2.23744 19.8232 1.76256 19.8232 1.46967 19.5303C1.17678 19.2374 1.17678 18.7625 1.46967 18.4696L1.47098 18.4683C1.97745 17.9619 4.13132 15.808 6.73517 13.8392C8.03735 12.8547 9.47249 11.9006 10.8865 11.2222C12.2837 10.5519 13.75 10.1065 15.0828 10.2545C17.7821 10.5545 19.1877 12.9494 20.1126 14.8608C20.3078 15.2642 20.4797 15.6415 20.6397 15.9927C20.8912 16.5446 21.1131 17.0317 21.3496 17.4536C21.5361 17.7864 21.6947 18.0064 21.8299 18.1366C21.8941 18.1985 21.9398 18.227 21.9659 18.2395C21.9877 18.25 21.9966 18.25 21.9997 18.25L22 18.25C22.4142 18.25 22.75 18.5857 22.75 19C22.75 19.4142 22.4142 19.75 22 19.75C21.4921 19.75 21.0889 19.5056 20.7892 19.2168C20.4967 18.935 20.253 18.5651 20.0411 18.1869C19.7791 17.7195 19.5077 17.1257 19.2322 16.5229C19.0766 16.1824 18.9196 15.8391 18.7624 15.5141C17.8123 13.5506 16.7179 11.9455 14.9172 11.7454C14 11.6435 12.8413 11.948 11.5354 12.5746C10.2463 13.1931 8.90015 14.0828 7.63983 15.0357Z" fill="#333333" class='xian'/>
<path d="M9 15C6.5 15 4 19 2 19H16C12.5 19 11.5 15 9 15Z" fill="#808080" class='mian'/>
<path fill-rule="evenodd" clip-rule="evenodd" d="M2 18.25C2.2667 18.25 2.64066 18.1087 3.16588 17.7537C3.62311 17.4446 4.10159 17.0406 4.63206 16.5928C4.69704 16.5379 4.7628 16.4824 4.8294 16.4263C5.42042 15.9286 6.07042 15.3929 6.74337 14.984C7.41397 14.5766 8.1783 14.25 9 14.25C9.84372 14.25 10.5303 14.593 11.1062 15.025C11.571 15.3736 12.0126 15.8203 12.4207 16.2332C12.5002 16.3136 12.5784 16.3928 12.6553 16.4697C13.6475 17.4618 14.5798 18.25 16 18.25C16.4142 18.25 16.75 18.5858 16.75 19C16.75 19.4142 16.4142 19.75 16 19.75H2C1.58579 19.75 1.25 19.4142 1.25 19C1.25 18.5858 1.58579 18.25 2 18.25ZM12.3552 18.25C12.0811 18.011 11.8295 17.7651 11.5947 17.5303C11.5033 17.439 11.4154 17.3502 11.3301 17.2641C10.9218 16.8519 10.5741 16.5009 10.2063 16.225C9.78219 15.907 9.40628 15.75 9 15.75C8.5717 15.75 8.08603 15.9234 7.52226 16.266C6.96083 16.6071 6.39208 17.0714 5.7956 17.5737C5.73028 17.6287 5.66446 17.6843 5.59822 17.7403C5.39811 17.9094 5.19421 18.0816 4.9889 18.25H12.3552Z" fill="#808080" class='mian'/>
<path fill-rule="evenodd" clip-rule="evenodd" d="M3.95675 18.9816C3.40558 19.3824 2.74379 19.75 2 19.75C1.58579 19.75 1.25 19.4142 1.25 19C1.25 18.5858 1.58579 18.25 2 18.25C2.25621 18.25 2.59442 18.1176 3.0745 17.7684C3.45146 17.4943 3.83512 17.1496 4.2704 16.7584C4.3853 16.6552 4.5038 16.5487 4.62673 16.4394C5.72767 15.4608 7.17806 14.25 9 14.25C10.8134 14.25 12.013 15.4511 12.959 16.3983C12.9829 16.4222 13.0067 16.446 13.0303 16.4697C14.0733 17.5127 14.8593 18.25 16 18.25C16.4142 18.25 16.75 18.5858 16.75 19C16.75 19.4142 16.4142 19.75 16 19.75C14.1866 19.75 12.987 18.5489 12.041 17.6017C12.0171 17.5778 11.9933 17.554 11.9697 17.5303C10.9267 16.4873 10.1407 15.75 9 15.75C7.82194 15.75 6.77233 16.5392 5.62327 17.5606C5.51829 17.6539 5.41182 17.7496 5.30431 17.8463C4.86246 18.2438 4.40296 18.657 3.95675 18.9816Z" fill="#333333" class='xian'/>
<path fill-rule="evenodd" clip-rule="evenodd" d="M2.74416 19.0931C2.69276 19.5041 2.31793 19.7956 1.90693 19.7442C1.49592 19.6928 1.20437 19.318 1.25575 18.907L1.93727 18.9922C1.25575 18.907 1.25572 18.9072 1.25575 18.907L1.25745 18.8936L1.26211 18.8574C1.26621 18.8258 1.2723 18.7796 1.28042 18.7197C1.29666 18.5998 1.32099 18.425 1.35367 18.2032C1.41901 17.7596 1.51781 17.1274 1.65207 16.3692C1.92022 14.855 2.33148 12.8289 2.90297 10.7969C3.47164 8.775 4.21146 6.70106 5.15194 5.1171C6.06371 3.58149 7.32004 2.25 8.99996 2.25C10.6972 2.25 11.8883 3.60385 12.7219 5.14279C13.581 6.72885 14.2241 8.80422 14.7276 10.8181C15.1141 12.3643 15.428 13.9164 15.6924 15.2235C15.7732 15.6233 15.8494 16.0002 15.9217 16.347C16.0784 17.0995 16.213 17.6935 16.3348 18.0946C16.3763 18.2313 16.411 18.3273 16.4374 18.3907C16.6267 18.5269 16.75 18.749 16.75 19C16.75 19.4142 16.4142 19.75 16 19.75C15.7027 19.75 15.4946 19.5992 15.3853 19.4938C15.2758 19.3882 15.2014 19.2687 15.152 19.1775C15.0517 18.9923 14.9698 18.762 14.8995 18.5304C14.7556 18.0565 14.609 17.4005 14.4532 16.653C14.3779 16.2915 14.2996 15.9045 14.2174 15.4978C13.9539 14.1952 13.6497 12.6915 13.2724 11.1819C12.7758 9.19578 12.1689 7.27115 11.403 5.85721C10.6116 4.39615 9.80274 3.75 8.99996 3.75C8.17988 3.75 7.31121 4.41851 6.44172 5.8829C5.60095 7.29894 4.90327 9.225 4.34695 11.2031C3.79344 13.1711 3.39219 15.145 3.12909 16.6308C2.99773 17.3726 2.90121 17.9904 2.83765 18.4218C2.80588 18.6375 2.78236 18.8065 2.76686 18.921C2.7591 18.9782 2.75336 19.0218 2.74958 19.0508L2.7454 19.0832L2.74416 19.0931Z" fill="#333333" class='xian'/>
</svg>
