<svg width="24" height="24" viewBox="0 0 24 24" fill="none" xmlns="http://www.w3.org/2000/svg">
<path fill-rule="evenodd" clip-rule="evenodd" d="M1.75 5C1.75 4.86193 1.86193 4.75 2 4.75H22C22.1381 4.75 22.25 4.86193 22.25 5C22.25 5.13807 22.1381 5.25 22 5.25H2C1.86193 5.25 1.75 5.13807 1.75 5Z" fill="#333333" class='xian'/>
<path fill-rule="evenodd" clip-rule="evenodd" d="M1.75 19.5455C1.75 19.4074 1.86193 19.2955 2 19.2955H22C22.1381 19.2955 22.25 19.4074 22.25 19.5455C22.25 19.6835 22.1381 19.7955 22 19.7955H2C1.86193 19.7955 1.75 19.6835 1.75 19.5455Z" fill="#333333" class='xian'/>
<path fill-rule="evenodd" clip-rule="evenodd" d="M8.40683 5C8.40683 4.86193 8.51876 4.75 8.65683 4.75H15.343C15.4811 4.75 15.593 4.86193 15.593 5V6.36364C15.593 6.50171 15.4811 6.61364 15.343 6.61364H8.65683C8.51876 6.61364 8.40683 6.50171 8.40683 6.36364V5ZM8.90683 5.25V6.11364H15.093V5.25H8.90683Z" fill="#333333" class='xian'/>
<path fill-rule="evenodd" clip-rule="evenodd" d="M8.42029 6.28272C8.45489 6.18159 8.54995 6.11365 8.65683 6.11365H15.343C15.4499 6.11365 15.545 6.18159 15.5796 6.28272C15.6142 6.38384 15.5807 6.49578 15.4962 6.56125L14.3232 7.47034C14.2793 7.50431 14.2255 7.52274 14.17 7.52274H9.82985C9.7744 7.52274 9.72053 7.50431 9.67671 7.47034L8.50369 6.56125C8.41921 6.49578 8.38569 6.38384 8.42029 6.28272ZM9.38753 6.61365L9.91539 7.02274H14.0845L14.6124 6.61365H9.38753Z" fill="#333333" class='xian'/>
<path fill-rule="evenodd" clip-rule="evenodd" d="M8.40683 19.5455C8.40683 19.6835 8.51876 19.7955 8.65683 19.7955H15.343C15.4811 19.7955 15.593 19.6835 15.593 19.5455V18.1818C15.593 18.0438 15.4811 17.9318 15.343 17.9318H8.65683C8.51876 17.9318 8.40683 18.0438 8.40683 18.1818V19.5455ZM8.90683 19.2955V18.4318H15.093V19.2955H8.90683Z" fill="#333333" class='xian'/>
<path fill-rule="evenodd" clip-rule="evenodd" d="M8.42029 18.2628C8.45489 18.3639 8.54995 18.4318 8.65683 18.4318H15.343C15.4499 18.4318 15.545 18.3639 15.5796 18.2628C15.6142 18.1616 15.5807 18.0497 15.4962 17.9842L14.3232 17.0751C14.2793 17.0412 14.2255 17.0227 14.17 17.0227H9.82985C9.7744 17.0227 9.72053 17.0412 9.67671 17.0751L8.50369 17.9842C8.41921 18.0497 8.38569 18.1616 8.42029 18.2628ZM9.38753 17.9318L9.91539 17.5227H14.0845L14.6124 17.9318H9.38753Z" fill="#333333" class='xian'/>
<path fill-rule="evenodd" clip-rule="evenodd" d="M6.35316 18.3416C6.26492 18.2354 6.27948 18.0778 6.38567 17.9895L6.5725 17.8343C9.75074 15.1934 14.3356 15.1105 17.6073 17.6348C17.7166 17.7192 17.7368 17.8762 17.6525 17.9855C17.5681 18.0948 17.4111 18.115 17.3018 18.0307C14.2155 15.6494 9.89028 15.7275 6.89205 18.2189L6.70522 18.3741C6.59903 18.4623 6.4414 18.4478 6.35316 18.3416Z" fill="#333333" class='xian'/>
<path fill-rule="evenodd" clip-rule="evenodd" d="M6.35316 6.20388C6.26492 6.31008 6.27948 6.4677 6.38567 6.55594L6.5725 6.71117C9.75074 9.35206 14.3356 9.43494 17.6073 6.91065C17.7166 6.8263 17.7368 6.66931 17.6525 6.56C17.5681 6.45068 17.4111 6.43044 17.3018 6.51478C14.2155 8.89611 9.89028 8.81792 6.89205 6.32661L6.70522 6.17137C6.59903 6.08313 6.4414 6.09769 6.35316 6.20388Z" fill="#333333" class='xian'/>
<path fill-rule="evenodd" clip-rule="evenodd" d="M2 9.54547L1.9999 9.29547C1.86183 9.29553 1.74995 9.4075 1.75 9.54557C1.75005 9.68363 1.86201 9.79551 2.00007 9.79547M2.00007 9.79547L2.00386 9.79548L2.01663 9.79554L2.06801 9.79608C2.11336 9.79671 2.18036 9.79798 2.26592 9.80055C2.43709 9.8057 2.68225 9.81605 2.97669 9.83687C3.56655 9.87857 4.34959 9.96195 5.12977 10.128C5.91393 10.295 6.67525 10.5414 7.23464 10.8991C7.79029 11.2544 8.11364 11.6952 8.11364 12.2573C8.11364 12.8278 7.78883 13.274 7.23359 13.633C6.67429 13.9946 5.91316 14.2438 5.12915 14.4128C4.34911 14.5809 3.5662 14.6654 2.97641 14.7078C2.68201 14.729 2.43688 14.7395 2.26574 14.7448C2.1802 14.7474 2.11321 14.7487 2.06788 14.7494L2.01652 14.7499L2.00376 14.75L2.00073 14.75C2.00072 14.75 2.00075 14.75 2.00073 14.75C1.86268 14.75 1.75 14.862 1.75 15C1.75 15.1381 1.86193 15.25 2 15.25V15C2 15.25 1.9999 15.25 2 15.25L2.00158 15.25L2.00547 15.25L2.01999 15.2499L2.07506 15.2493C2.12294 15.2486 2.19267 15.2473 2.28113 15.2445C2.45801 15.2391 2.71004 15.2282 3.01223 15.2065C3.61562 15.1632 4.42362 15.0763 5.23448 14.9016C6.04139 14.7277 6.87116 14.4627 7.50505 14.0529C8.14299 13.6405 8.61364 13.0582 8.61364 12.2573C8.61364 11.4623 8.14153 10.8855 7.50399 10.4778C6.8702 10.0726 6.04061 9.81073 5.23387 9.63899C4.42314 9.4664 3.61526 9.38076 3.01195 9.33811C2.70979 9.31675 2.4578 9.3061 2.28095 9.30078C2.19251 9.29812 2.12279 9.29679 2.07492 9.29613L2.01988 9.29555L2.00536 9.29548L2.00148 9.29547L1.9999 9.29547C1.9998 9.29547 1.9999 9.29547 2 9.54547" fill="#333333" class='xian'/>
<path fill-rule="evenodd" clip-rule="evenodd" d="M22 9.54547L22.0001 9.29547C22.1382 9.29553 22.2501 9.4075 22.25 9.54557C22.2499 9.68363 22.138 9.79551 21.9999 9.79547M21.9999 9.79547L21.9961 9.79548L21.9834 9.79554L21.932 9.79608C21.8866 9.79671 21.8196 9.79798 21.7341 9.80055C21.5629 9.8057 21.3177 9.81605 21.0233 9.83687C20.4334 9.87857 19.6504 9.96195 18.8702 10.128C18.0861 10.295 17.3247 10.5414 16.7654 10.8991C16.2097 11.2544 15.8864 11.6952 15.8864 12.2573C15.8864 12.8278 16.2112 13.274 16.7664 13.633C17.3257 13.9946 18.0868 14.2438 18.8708 14.4128C19.6509 14.5809 20.4338 14.6654 21.0236 14.7078C21.318 14.729 21.5631 14.7395 21.7343 14.7448C21.8198 14.7474 21.8868 14.7487 21.9321 14.7494L21.9835 14.7499L21.9962 14.75L21.9993 14.75C21.9993 14.75 21.9993 14.75 21.9993 14.75C22.1373 14.75 22.25 14.862 22.25 15C22.25 15.1381 22.1381 15.25 22 15.25V15C22 15.25 22.0001 15.25 22 15.25L21.9984 15.25L21.9945 15.25L21.98 15.2499L21.9249 15.2493C21.8771 15.2486 21.8073 15.2473 21.7189 15.2445C21.542 15.2391 21.29 15.2282 20.9878 15.2065C20.3844 15.1632 19.5764 15.0763 18.7655 14.9016C17.9586 14.7277 17.1288 14.4627 16.495 14.0529C15.857 13.6405 15.3864 13.0582 15.3864 12.2573C15.3864 11.4623 15.8585 10.8855 16.496 10.4778C17.1298 10.0726 17.9594 9.81073 18.7661 9.63899C19.5769 9.4664 20.3847 9.38076 20.9881 9.33811C21.2902 9.31675 21.5422 9.3061 21.719 9.30078C21.8075 9.29812 21.8772 9.29679 21.9251 9.29613L21.9801 9.29555L21.9946 9.29548L21.9985 9.29547L22.0001 9.29547C22.0002 9.29547 22.0001 9.29547 22 9.54547" fill="#333333" class='xian'/>
</svg>
