<svg width="24" height="24" viewBox="0 0 24 24" fill="none" xmlns="http://www.w3.org/2000/svg">
<path d="M6 4.5L9 2L12 2.5H15.5L18.5 5L20.25 8.5L21 11V16L19 20.5L15.5 21.75L12 21L8.5 22L5.5 20.5L3.5 17L2.5 15V12L4 7L6 4.5Z" fill="#DDB6A1"/>
<path fill-rule="evenodd" clip-rule="evenodd" d="M12 2.69661C12.4142 2.69661 12.75 3.0324 12.75 3.44661V18.9101C12.75 19.3243 12.4142 19.6601 12 19.6601C11.5858 19.6601 11.25 19.3243 11.25 18.9101V3.44661C11.25 3.0324 11.5858 2.69661 12 2.69661Z" fill="#333333"/>
<path fill-rule="evenodd" clip-rule="evenodd" d="M8.54439 10.2966C8.95861 10.2966 9.29439 10.6324 9.29439 11.0466C9.29439 12.0519 8.77608 12.7359 8.20845 13.1413C7.67574 13.5218 7.0502 13.6966 6.64439 13.6966C6.23018 13.6966 5.89439 13.3608 5.89439 12.9466C5.89439 12.5324 6.23018 12.1966 6.64439 12.1966C6.64433 12.1966 6.64434 12.1966 6.64441 12.1966C6.64511 12.1966 6.65212 12.1965 6.66587 12.195C6.6806 12.1935 6.70032 12.1907 6.72468 12.1862C6.77379 12.177 6.83521 12.1617 6.90449 12.1386C7.04472 12.0919 7.19821 12.0195 7.33659 11.9207C7.60021 11.7324 7.79439 11.4664 7.79439 11.0466C7.79439 10.6324 8.13018 10.2966 8.54439 10.2966Z" fill="#333333"/>
<path fill-rule="evenodd" clip-rule="evenodd" d="M9.94374 1.27741C11.0932 1.4211 12.2273 2.14848 12.581 3.20946C12.712 3.60241 12.4996 4.02715 12.1066 4.15814C11.7137 4.28912 11.2889 4.07675 11.158 3.6838C11.0366 3.31977 10.5082 2.85964 9.75769 2.76583C9.0848 2.68172 8.31338 2.91449 7.76259 3.83249C7.54948 4.18767 7.08878 4.30285 6.7336 4.08974C6.37841 3.87662 6.26324 3.41593 6.47635 3.06074C7.35055 1.60374 8.71663 1.12402 9.94374 1.27741Z" fill="#333333"/>
<path fill-rule="evenodd" clip-rule="evenodd" d="M6.8187 3.13463C7.78037 2.89421 8.88376 3.20037 9.54966 3.86629C9.84255 4.15919 9.84254 4.63406 9.54965 4.92695C9.25675 5.21984 8.78187 5.21983 8.48899 4.92693C8.20491 4.64285 7.64583 4.47401 7.18251 4.58984C6.97216 4.64243 6.80321 4.74825 6.68198 4.91117C6.55984 5.07529 6.44437 5.35405 6.44437 5.82162C6.44437 6.23583 6.10858 6.57162 5.69437 6.57162C5.28015 6.57162 4.94437 6.23583 4.94437 5.82162C4.94437 5.10168 5.12576 4.48982 5.47862 4.01566C5.83238 3.54029 6.31656 3.26017 6.8187 3.13463Z" fill="#333333"/>
<path fill-rule="evenodd" clip-rule="evenodd" d="M8.20592 6.45305C8.86783 7.10999 9.18537 7.95494 9.28426 8.54833C9.35236 8.95691 9.07634 9.34333 8.66777 9.41142C8.25919 9.47952 7.87277 9.2035 7.80467 8.79493C7.74524 8.43831 7.54027 7.90577 7.14927 7.51771C6.79345 7.16456 6.24699 6.88929 5.35583 7.03427C5.11134 7.08607 4.76459 7.25755 4.54841 7.58061C4.35184 7.87435 4.18262 8.41438 4.50598 9.38445C4.59581 9.65395 4.52567 9.95108 4.32479 10.152C3.82627 10.6505 3.40297 11.3651 3.41614 11.9684C3.42197 12.2354 3.51178 12.5086 3.77711 12.7832C4.05699 13.0728 4.56033 13.3909 5.43494 13.6533C5.83169 13.7723 6.05682 14.1904 5.9378 14.5871C5.81878 14.9839 5.40066 15.209 5.00392 15.09C3.97854 14.7824 3.21521 14.3603 2.69848 13.8255C2.1672 13.2758 1.93046 12.6406 1.9165 12.0011C1.8944 10.9888 2.42597 10.0601 2.95739 9.42662C2.68407 8.3176 2.85094 7.42011 3.30178 6.74639C3.787 6.02128 4.5257 5.67053 5.07238 5.56119C5.08029 5.55961 5.08822 5.55816 5.09617 5.55683C6.47728 5.32665 7.51055 5.76291 8.20592 6.45305Z" fill="#333333"/>
<path fill-rule="evenodd" clip-rule="evenodd" d="M3.84973 12.8913C4.14263 13.1842 4.14263 13.6591 3.84973 13.952C3.52532 14.2764 3.24763 14.7599 3.25002 15.1868C3.25178 15.5027 3.41073 16.0377 4.56484 16.5323C4.91191 16.681 5.09428 17.0646 4.99055 17.4277C4.85413 17.9051 4.79367 18.5692 4.95758 19.0638C5.03405 19.2945 5.14987 19.462 5.30709 19.5763C5.46339 19.6899 5.72344 19.7966 6.16942 19.7966C6.4535 19.7966 6.7132 19.9571 6.84024 20.2112C6.87079 20.2723 7.00751 20.4398 7.32225 20.6442C7.61584 20.8349 7.99504 21.0122 8.40303 21.1307C9.2663 21.3813 10.0051 21.3084 10.4193 20.9377C11.0373 20.3848 11.2677 19.6956 11.1323 19.0417C10.9951 18.3786 10.445 17.5854 9.15901 16.9425C8.78853 16.7572 8.63836 16.3067 8.8236 15.9362C9.00884 15.5657 9.45935 15.4156 9.82983 15.6008C11.3938 16.3828 12.3444 17.497 12.6012 18.7376C12.8599 19.9874 12.3778 21.1982 11.4195 22.0556C10.424 22.9463 9.02525 22.8733 7.98472 22.5711C7.44081 22.4132 6.92654 22.1758 6.50525 21.9022C6.23974 21.7298 5.97449 21.5193 5.76559 21.2762C5.24532 21.2218 4.79564 21.0589 4.42518 20.7896C3.96292 20.4536 3.68686 19.9977 3.53375 19.5357C3.32301 18.8999 3.32867 18.2092 3.41471 17.6366C2.2911 17.0053 1.75537 16.1499 1.75004 15.1952C1.74451 14.205 2.32182 13.3586 2.78907 12.8913C3.08197 12.5984 3.55684 12.5984 3.84973 12.8913Z" fill="#333333"/>
<path fill-rule="evenodd" clip-rule="evenodd" d="M5.41945 17.2216C5.41945 16.8074 5.75524 16.4716 6.16945 16.4716C6.74912 16.4716 7.51882 16.6133 8.1632 17.0966C8.84392 17.6072 9.29445 18.4325 9.29445 19.5966C9.29445 20.0108 8.95866 20.3466 8.54445 20.3466C8.13024 20.3466 7.79445 20.0108 7.79445 19.5966C7.79445 18.8608 7.53248 18.4986 7.2632 18.2966C6.95758 18.0674 6.53978 17.9716 6.16945 17.9716C5.75524 17.9716 5.41945 17.6358 5.41945 17.2216Z" fill="#333333"/>
<path fill-rule="evenodd" clip-rule="evenodd" d="M7.02571 14.2466C7.67011 13.7633 8.43983 13.6216 9.01949 13.6216C9.43371 13.6216 9.76949 13.9574 9.76949 14.3716C9.76949 14.7858 9.43371 15.1216 9.01949 15.1216C8.64916 15.1216 8.23133 15.2174 7.92568 15.4466C7.65637 15.6486 7.39439 16.0108 7.39439 16.7466C7.39439 17.1608 7.05861 17.4966 6.64439 17.4966C6.23018 17.4966 5.89439 17.1608 5.89439 16.7466C5.89439 15.5824 6.34496 14.7571 7.02571 14.2466Z" fill="#333333"/>
<path fill-rule="evenodd" clip-rule="evenodd" d="M6.04614 8.40682C6.45472 8.33872 6.84114 8.61474 6.90924 9.02332C6.9833 9.46771 7.85911 10.6602 9.82148 9.87526C10.2061 9.72142 10.6425 9.90849 10.7964 10.2931C10.9502 10.6777 10.7632 11.1141 10.3786 11.268C7.59094 12.383 5.67225 10.7255 5.42965 9.26992C5.36155 8.86134 5.63757 8.47492 6.04614 8.40682Z" fill="#333333"/>
<path fill-rule="evenodd" clip-rule="evenodd" d="M15.4556 10.2966C15.0414 10.2966 14.7056 10.6324 14.7056 11.0466C14.7056 12.0519 15.2239 12.7359 15.7916 13.1413C16.3243 13.5218 16.9498 13.6966 17.3556 13.6966C17.7698 13.6966 18.1056 13.3608 18.1056 12.9466C18.1056 12.5324 17.7698 12.1966 17.3556 12.1966C17.3557 12.1966 17.3557 12.1966 17.3556 12.1966C17.3549 12.1966 17.3479 12.1965 17.3341 12.195C17.3194 12.1935 17.2997 12.1907 17.2753 12.1862C17.2262 12.177 17.1648 12.1617 17.0955 12.1386C16.9553 12.0919 16.8018 12.0195 16.6634 11.9207C16.3998 11.7324 16.2056 11.4664 16.2056 11.0466C16.2056 10.6324 15.8698 10.2966 15.4556 10.2966Z" fill="#333333"/>
<path fill-rule="evenodd" clip-rule="evenodd" d="M14.0563 1.27741C12.9068 1.4211 11.7727 2.14848 11.419 3.20946C11.288 3.60241 11.5004 4.02715 11.8934 4.15814C12.2863 4.28912 12.7111 4.07675 12.842 3.6838C12.9634 3.31977 13.4918 2.85964 14.2423 2.76583C14.9152 2.68172 15.6866 2.91449 16.2374 3.83249C16.4505 4.18767 16.9112 4.30285 17.2664 4.08974C17.6216 3.87662 17.7368 3.41593 17.5237 3.06074C16.6494 1.60374 15.2834 1.12402 14.0563 1.27741Z" fill="#333333"/>
<path fill-rule="evenodd" clip-rule="evenodd" d="M17.1813 3.13463C16.2196 2.89421 15.1162 3.20037 14.4503 3.86629C14.1574 4.15919 14.1575 4.63406 14.4504 4.92695C14.7433 5.21984 15.2181 5.21983 15.511 4.92693C15.7951 4.64285 16.3542 4.47401 16.8175 4.58984C17.0278 4.64243 17.1968 4.74825 17.318 4.91117C17.4402 5.07529 17.5556 5.35405 17.5556 5.82162C17.5556 6.23583 17.8914 6.57162 18.3056 6.57162C18.7198 6.57162 19.0556 6.23583 19.0556 5.82162C19.0556 5.10168 18.8742 4.48982 18.5214 4.01566C18.1676 3.54029 17.6834 3.26017 17.1813 3.13463Z" fill="#333333"/>
<path fill-rule="evenodd" clip-rule="evenodd" d="M15.7941 6.45305C15.1322 7.10999 14.8146 7.95494 14.7157 8.54833C14.6476 8.95691 14.9237 9.34333 15.3322 9.41142C15.7408 9.47952 16.1272 9.2035 16.1953 8.79493C16.2548 8.43831 16.4597 7.90577 16.8507 7.51771C17.2066 7.16456 17.753 6.88929 18.6442 7.03427C18.8887 7.08607 19.2354 7.25755 19.4516 7.58061C19.6482 7.87435 19.8174 8.41438 19.494 9.38445C19.4042 9.65395 19.4743 9.95108 19.6752 10.152C20.1737 10.6505 20.597 11.3651 20.5839 11.9684C20.578 12.2354 20.4882 12.5086 20.2229 12.7832C19.943 13.0728 19.4397 13.3909 18.5651 13.6533C18.1683 13.7723 17.9432 14.1904 18.0622 14.5871C18.1812 14.9839 18.5993 15.209 18.9961 15.09C20.0215 14.7824 20.7848 14.3603 21.3015 13.8255C21.8328 13.2758 22.0695 12.6406 22.0835 12.0011C22.1056 10.9888 21.574 10.0601 21.0426 9.42662C21.3159 8.3176 21.1491 7.42011 20.6982 6.74639C20.213 6.02128 19.4743 5.67053 18.9276 5.56119C18.9197 5.55961 18.9118 5.55816 18.9038 5.55683C17.5227 5.32665 16.4894 5.76291 15.7941 6.45305Z" fill="#333333"/>
<path fill-rule="evenodd" clip-rule="evenodd" d="M20.1503 12.8913C19.8574 13.1842 19.8574 13.6591 20.1503 13.952C20.4747 14.2764 20.7524 14.7599 20.75 15.1868C20.7482 15.5027 20.5893 16.0377 19.4352 16.5323C19.0881 16.681 18.9057 17.0646 19.0095 17.4277C19.1459 17.9051 19.2063 18.5692 19.0424 19.0638C18.9659 19.2945 18.8501 19.462 18.6929 19.5763C18.5366 19.6899 18.2766 19.7966 17.8306 19.7966C17.5465 19.7966 17.2868 19.9571 17.1598 20.2112C17.1292 20.2723 16.9925 20.4398 16.6778 20.6442C16.3842 20.8349 16.005 21.0122 15.597 21.1307C14.7337 21.3813 13.9949 21.3084 13.5807 20.9377C12.9627 20.3848 12.7323 19.6956 12.8677 19.0417C13.0049 18.3786 13.555 17.5854 14.841 16.9425C15.2115 16.7572 15.3616 16.3067 15.1764 15.9362C14.9912 15.5657 14.5407 15.4156 14.1702 15.6008C12.6062 16.3828 11.6556 17.497 11.3988 18.7376C11.1401 19.9874 11.6222 21.1982 12.5805 22.0556C13.576 22.9463 14.9747 22.8733 16.0153 22.5711C16.5592 22.4132 17.0735 22.1758 17.4948 21.9022C17.7603 21.7298 18.0255 21.5193 18.2344 21.2762C18.7547 21.2218 19.2044 21.0589 19.5748 20.7896C20.0371 20.4536 20.3131 19.9977 20.4663 19.5357C20.677 18.8999 20.6713 18.2092 20.5853 17.6366C21.7089 17.0053 22.2446 16.1499 22.25 15.1952C22.2555 14.205 21.6782 13.3586 21.2109 12.8913C20.918 12.5984 20.4432 12.5984 20.1503 12.8913Z" fill="#333333"/>
<path fill-rule="evenodd" clip-rule="evenodd" d="M18.5806 17.2216C18.5806 16.8074 18.2448 16.4716 17.8306 16.4716C17.2509 16.4716 16.4812 16.6133 15.8368 17.0966C15.1561 17.6072 14.7056 18.4325 14.7056 19.5966C14.7056 20.0108 15.0413 20.3466 15.4556 20.3466C15.8698 20.3466 16.2056 20.0108 16.2056 19.5966C16.2056 18.8608 16.4675 18.4986 16.7368 18.2966C17.0424 18.0674 17.4602 17.9716 17.8306 17.9716C18.2448 17.9716 18.5806 17.6358 18.5806 17.2216Z" fill="#333333"/>
<path fill-rule="evenodd" clip-rule="evenodd" d="M16.9743 14.2466C16.3299 13.7633 15.5602 13.6216 14.9805 13.6216C14.5663 13.6216 14.2305 13.9574 14.2305 14.3716C14.2305 14.7858 14.5663 15.1216 14.9805 15.1216C15.3508 15.1216 15.7687 15.2174 16.0743 15.4466C16.3436 15.6486 16.6056 16.0108 16.6056 16.7466C16.6056 17.1608 16.9414 17.4966 17.3556 17.4966C17.7698 17.4966 18.1056 17.1608 18.1056 16.7466C18.1056 15.5824 17.655 14.7571 16.9743 14.2466Z" fill="#333333"/>
<path fill-rule="evenodd" clip-rule="evenodd" d="M17.9539 8.40682C17.5453 8.33872 17.1589 8.61474 17.0908 9.02332C17.0167 9.46771 16.1409 10.6602 14.1785 9.87526C13.7939 9.72142 13.3575 9.90849 13.2036 10.2931C13.0498 10.6777 13.2368 11.1141 13.6214 11.268C16.4091 12.383 18.3278 10.7255 18.5704 9.26992C18.6384 8.86134 18.3624 8.47492 17.9539 8.40682Z" fill="#333333"/>
</svg>
