<svg width="24" height="24" viewBox="0 0 24 24" fill="none" xmlns="http://www.w3.org/2000/svg">
<path d="M11.1568 2C11.1568 2 13.6438 3.57023 15.8169 6.33582C16.5441 7.26135 17.2362 8.32076 17.7882 9.5C18.3365 10.6715 18.7466 11.9612 18.9154 13.3554C19.0031 14.08 19.0257 14.8328 18.9687 15.6119C18.7905 18.0462 17.3096 20.2875 15.0553 21.2233C12.3664 22.3395 9.314 22.2526 6.68172 20.9626C4.8564 20.0681 3.58152 18.297 3.19615 16.3012C1.51824 7.6112 11.1568 2 11.1568 2Z" fill="#CA3A26"/>
<path fill-rule="evenodd" clip-rule="evenodd" d="M11.5572 1.36583L11.1568 2L10.7795 1.35184C11.0211 1.21119 11.3208 1.21658 11.5572 1.36583ZM11.1401 2.89648C11.1414 2.89741 11.1427 2.89833 11.144 2.89926C11.3984 3.08066 11.7629 3.35255 12.1942 3.70896C13.0585 4.42317 14.1823 5.46942 15.2272 6.7992L16.4066 5.87243C15.2784 4.43663 14.0722 3.31497 13.1497 2.55267C12.6876 2.17082 12.2945 1.8773 12.0147 1.67786C11.8748 1.5781 11.763 1.50174 11.685 1.44952C11.6459 1.42341 11.6153 1.40332 11.5938 1.38934L11.5684 1.37297L11.561 1.36824L11.5572 1.36583C11.5571 1.36574 11.5572 1.36583 11.1568 2C10.7795 1.35184 10.7798 1.35165 10.7795 1.35184L10.7781 1.35265L10.7758 1.35398L10.7687 1.35819L10.7441 1.37278C10.7233 1.38525 10.6936 1.40319 10.6557 1.42651C10.58 1.47315 10.4714 1.54138 10.3351 1.6306C10.0627 1.80895 9.67894 2.07163 9.22535 2.41377C8.31988 3.09678 7.12719 4.10319 5.9853 5.39517C3.71097 7.96843 1.55802 11.7732 2.45976 16.4434C2.88633 18.6526 4.29944 20.6304 6.35168 21.6361C9.17818 23.0213 12.4556 23.1145 15.3428 21.916C17.8836 20.8613 19.5199 18.3557 19.7167 15.6666C19.7773 14.8377 19.7533 14.0364 19.6599 13.2652L18.1708 13.4455C18.2529 14.1235 18.2741 14.8278 18.2207 15.5571C18.0612 17.7367 16.7356 19.7137 14.7677 20.5306C12.2772 21.5645 9.44983 21.484 7.01177 20.2892C5.41337 19.5059 4.27672 17.9415 3.93256 16.159C3.15638 12.1392 4.98376 8.79337 7.10923 6.38853C8.16724 5.19146 9.27932 4.25195 10.1287 3.61129C10.5431 3.29869 10.8928 3.05885 11.1401 2.89648Z" fill="#333333"/>
<path d="M17.5686 5C17.5686 5 19.9113 6.47912 20.7253 8.91918C21.4931 11.2209 19.6824 13.9066 17.2618 13.7394V13.7394C15.2458 13.6002 13.7136 11.5421 14.0736 9.55367C14.5834 6.73786 17.5686 5 17.5686 5Z" fill="#CA3A26"/>
<path fill-rule="evenodd" clip-rule="evenodd" d="M17.969 4.36583L17.5686 5L17.1913 4.35184C17.4329 4.21119 17.7326 4.21658 17.969 4.36583ZM17.5513 5.9107C17.7576 6.07072 18.0271 6.29591 18.3163 6.57979C18.9577 7.2094 19.6584 8.09124 20.0138 9.15652C20.3132 10.0538 20.1158 11.0551 19.5756 11.8239C19.0378 12.5893 18.2144 13.0534 17.3134 12.9912C15.7642 12.8842 14.5275 11.2568 14.8116 9.68729C15.0267 8.49927 15.7769 7.49481 16.5347 6.75901C16.9076 6.39697 17.2669 6.11509 17.532 5.9245C17.5385 5.91984 17.5449 5.91524 17.5513 5.9107ZM17.1913 4.35184C17.1915 4.35171 17.1913 4.35184 17.5686 5C17.969 4.36583 17.9688 4.3657 17.969 4.36583L17.9709 4.36702L17.9736 4.36877L17.9817 4.37392L18.0076 4.39081C18.0291 4.40498 18.059 4.42496 18.0962 4.45063C18.1708 4.50195 18.2751 4.5762 18.4015 4.67238C18.6538 4.86436 18.9968 5.14589 19.3671 5.50934C20.1005 6.2293 20.9781 7.30706 21.4367 8.68184C21.9052 10.0862 21.5812 11.5787 20.8029 12.6863C20.0221 13.7975 18.7298 14.5926 17.2101 14.4876C14.7275 14.3162 12.8998 11.8273 13.3356 9.42006C13.6303 7.79226 14.6277 6.51989 15.4898 5.6828C15.927 5.2584 16.3459 4.92983 16.6564 4.70657C16.8121 4.59464 16.9417 4.50836 17.0343 4.44896C17.0806 4.41924 17.1177 4.39619 17.1443 4.37996L17.1762 4.36074L17.1859 4.35499L17.1891 4.35309L17.1913 4.35184Z" fill="#333333"/>
<path fill-rule="evenodd" clip-rule="evenodd" d="M8.25 15.5C8.25 15.0858 8.58579 14.75 9 14.75H13C13.4142 14.75 13.75 15.0858 13.75 15.5C13.75 15.9142 13.4142 16.25 13 16.25H9C8.58579 16.25 8.25 15.9142 8.25 15.5Z" fill="#333333"/>
<path fill-rule="evenodd" clip-rule="evenodd" d="M10.25 17.5L10.25 13.5C10.25 13.0858 10.5858 12.75 11 12.75C11.4142 12.75 11.75 13.0858 11.75 13.5L11.75 17.5C11.75 17.9142 11.4142 18.25 11 18.25C10.5858 18.25 10.25 17.9142 10.25 17.5Z" fill="#333333"/>
</svg>
