<svg width="24" height="24" viewBox="0 0 24 24" fill="none" xmlns="http://www.w3.org/2000/svg">
<path d="M8 14H16V18C16 20.2091 14.2091 22 12 22V22C9.79086 22 8 20.2091 8 18V14Z" fill="#D9D9D9"/>
<path d="M8 8H16V15.5L12 16L8 18V8Z" fill="#F3C454"/>
<path fill-rule="evenodd" clip-rule="evenodd" d="M7.25 2C7.25 1.58579 7.58579 1.25 8 1.25L16 1.25C16.4142 1.25 16.75 1.58579 16.75 2V18C16.75 20.6234 14.6234 22.75 12 22.75C9.37665 22.75 7.25 20.6234 7.25 18L7.25 2ZM8.75 2.75V18C8.75 19.7949 10.2051 21.25 12 21.25C13.7949 21.25 15.25 19.7949 15.25 18V2.75L8.75 2.75Z" fill="#333333"/>
<path fill-rule="evenodd" clip-rule="evenodd" d="M16.7442 15.407C16.7956 15.818 16.504 16.1928 16.093 16.2442L12.2572 16.7237L8.39749 19.136C8.04624 19.3555 7.58353 19.2488 7.36399 18.8975C7.14446 18.5462 7.25124 18.0835 7.60249 17.864L11.6025 15.364C11.6949 15.3062 11.7988 15.2693 11.907 15.2558L15.907 14.7558C16.318 14.7044 16.6928 14.996 16.7442 15.407Z" fill="#333333"/>
<path fill-rule="evenodd" clip-rule="evenodd" d="M7.25 8C7.25 7.58579 7.58579 7.25 8 7.25H16C16.4142 7.25 16.75 7.58579 16.75 8C16.75 8.41421 16.4142 8.75 16 8.75H8C7.58579 8.75 7.25 8.41421 7.25 8Z" fill="#333333"/>
</svg>
