<svg width="24" height="24" viewBox="0 0 24 24" fill="none" xmlns="http://www.w3.org/2000/svg">
<path d="M2 9C2 7.34315 3.34315 6 5 6H13V10.3913C13 15.1458 9.14576 19 4.3913 19L-nan -nanL-nan -nanL4.3913 19C3.07062 19 2 17.9294 2 16.6087V9Z" fill="#CE6748"/>
<path fill-rule="evenodd" clip-rule="evenodd" d="M1.25 9C1.25 6.92893 2.92893 5.25 5 5.25H13C13.4142 5.25 13.75 5.58579 13.75 6V10.3913C13.75 15.56 9.55997 19.75 4.3913 19.75C2.65641 19.75 1.25 18.3436 1.25 16.6087V9ZM5 6.75C3.75736 6.75 2.75 7.75736 2.75 9V16.6087C2.75 17.5152 3.48484 18.25 4.3913 18.25C8.73154 18.25 12.25 14.7315 12.25 10.3913V6.75H5Z" fill="#333333"/>
<path d="M13 6H20.4C21.2837 6 22 6.71634 22 7.6L-nan -nanL-nan -nanL22 7.6C22 11.1346 19.1346 14 15.6 14H14.8C13.8059 14 13 13.1941 13 12.2V6Z" fill="#CE6748"/>
<path fill-rule="evenodd" clip-rule="evenodd" d="M12.25 6C12.25 5.58579 12.5858 5.25 13 5.25H20.4C21.6979 5.25 22.75 6.30213 22.75 7.6C22.75 11.5488 19.5488 14.75 15.6 14.75H14.8C13.3917 14.75 12.25 13.6083 12.25 12.2V6ZM13.75 6.75V12.2C13.75 12.7799 14.2201 13.25 14.8 13.25H15.6C18.7204 13.25 21.25 10.7204 21.25 7.6C21.25 7.13056 20.8694 6.75 20.4 6.75H13.75Z" fill="#333333"/>
<path fill-rule="evenodd" clip-rule="evenodd" d="M5.56407 12.3897C5.90113 12.1489 6.36954 12.227 6.6103 12.5641C6.96779 13.0646 7.61387 13.7058 8.47092 14.0556C9.29725 14.3929 10.3631 14.4799 11.6646 13.8292C12.0351 13.6439 12.4856 13.7941 12.6708 14.1646C12.8561 14.5351 12.7059 14.9856 12.3354 15.1708C10.6369 16.0201 9.11941 15.9404 7.90407 15.4444C6.71946 14.9609 5.86554 14.1021 5.3897 13.4359C5.14894 13.0989 5.22701 12.6305 5.56407 12.3897Z" fill="#333333"/>
<path fill-rule="evenodd" clip-rule="evenodd" d="M9.69613 10.7209C9.54209 10.3367 9.10585 10.1499 8.72146 10.3036C8.33687 10.4575 8.14981 10.894 8.30364 11.2785L8.30409 11.2796L8.30462 11.281L8.30598 11.2843L8.30985 11.2938L8.32225 11.3232C8.3326 11.3474 8.34715 11.3806 8.36605 11.4219C8.40383 11.5043 8.4591 11.6191 8.53298 11.7581C8.68039 12.0356 8.90377 12.4134 9.2125 12.825C9.82653 13.6437 10.803 14.629 12.2215 15.1964C13.2377 15.6029 13.8747 16.4265 14.2667 17.2104C14.4606 17.5982 14.586 17.9602 14.6624 18.2242C14.7004 18.3555 14.7258 18.4609 14.7413 18.5309C14.749 18.5659 14.7542 18.5919 14.7573 18.6077L14.7602 18.6236L14.7606 18.6255C14.8293 19.0334 15.2152 19.3078 15.6233 19.2398C16.0319 19.1717 16.3079 18.7853 16.2398 18.3767L16.2393 18.374L16.2387 18.3701L16.2367 18.3591L16.2303 18.3244C16.2248 18.2958 16.2168 18.2564 16.206 18.2073C16.1843 18.1094 16.1511 17.9726 16.1032 17.8071C16.0078 17.4773 15.8519 17.0268 15.6083 16.5396C15.1253 15.5735 14.2623 14.3971 12.7785 13.8036C11.697 13.371 10.9235 12.6063 10.4125 11.925C10.1587 11.5866 9.97586 11.2769 9.85765 11.0544C9.79871 10.9434 9.75633 10.8551 9.72965 10.7969C9.71632 10.7678 9.70696 10.7463 9.70144 10.7334L9.69613 10.7209L9.69549 10.7193L9.69613 10.7209Z" fill="#333333"/>
<path fill-rule="evenodd" clip-rule="evenodd" d="M15.1471 11.2646C15.5533 11.3458 15.8167 11.7409 15.7354 12.1471C15.5127 13.2607 14.4763 14.6318 12.7372 15.2115C12.3442 15.3425 11.9195 15.1301 11.7885 14.7372C11.6575 14.3442 11.8699 13.9195 12.2628 13.7885C13.5237 13.3682 14.154 12.406 14.2646 11.8529C14.3458 11.4467 14.7409 11.1833 15.1471 11.2646Z" fill="#333333"/>
</svg>
