<svg width="24" height="24" viewBox="0 0 24 24" fill="none" xmlns="http://www.w3.org/2000/svg">
<path d="M2.72992 10.9999C0.80878 7.63785 3.13016 4.79617 4.53099 3.79557C6.45213 2.35472 8.13313 3.19521 8.73349 3.79557C9.5 4.5 10.9348 4.99628 11.7353 4.99628C13.1761 4.99628 14.0998 6.19953 14.5 7C15.5 6.5 15.9378 8.39831 15.9378 9.19878C18.9396 7.99807 18.9396 10.9999 19.5399 10.9999C21.9413 10.5196 22.1415 13.2012 21.9413 14.602C21.4611 17.964 17.3386 20.0052 15.3374 20.6056C9.09371 22.0464 4.33087 14.8021 2.72992 10.9999Z" fill="#CA7A61"/>
<path fill-rule="evenodd" clip-rule="evenodd" d="M9.25073 3.25225C9.54071 3.51519 9.99259 3.76949 10.4896 3.95959C10.996 4.15329 11.4596 4.24629 11.7353 4.24629C13.2998 4.24629 14.3329 5.31259 14.8869 6.16907C15.1244 6.18115 15.3534 6.25766 15.5603 6.39452C15.9134 6.62807 16.1353 6.99252 16.2758 7.29954C16.4087 7.58977 16.507 7.91422 16.5741 8.22761C17.047 8.13773 17.4784 8.14528 17.8719 8.24794C18.515 8.4157 18.9464 8.80843 19.2394 9.19906C19.4755 9.5139 19.6476 9.8676 19.7621 10.1028C19.7801 10.1398 19.7967 10.1739 19.8119 10.2045C20.3816 10.1569 20.8945 10.2591 21.3338 10.515C21.8695 10.8269 22.2044 11.3141 22.4092 11.8086C22.8074 12.7706 22.7928 13.9449 22.6838 14.7081C22.4033 16.6716 21.0736 18.179 19.6597 19.2394C18.2367 20.3067 16.6228 21.003 15.5529 21.3239C15.5374 21.3286 15.5218 21.3327 15.5061 21.3364C12.03 22.1385 9.02921 20.4983 6.77043 18.3072C4.52445 16.1285 2.89004 13.2983 2.05605 11.332C0.991956 9.44226 1.10249 7.66128 1.69087 6.22746C2.26813 4.82073 3.29727 3.7571 4.08795 3.19037C5.20068 2.35838 6.29761 2.15395 7.2336 2.28766C8.13395 2.41628 8.84398 2.8513 9.25073 3.25225ZM7.02147 3.77259C6.48854 3.69645 5.78701 3.79107 4.98099 4.39558L4.96692 4.40588C4.3577 4.84104 3.53018 5.69639 3.07857 6.79692C2.64049 7.86448 2.54829 9.17032 3.38111 10.6278C3.39607 10.6539 3.40944 10.681 3.42115 10.7088C4.19355 12.5433 5.73393 15.212 7.81484 17.2305C9.89272 19.2462 12.387 20.5063 15.1452 19.8802C16.0772 19.5974 17.5116 18.9755 18.7597 18.0394C20.0274 17.0886 20.9991 15.8944 21.1989 14.4959C21.29 13.8583 21.2754 12.9914 21.0232 12.3824C20.9028 12.0915 20.7499 11.9108 20.579 11.8112C20.4169 11.7168 20.149 11.6429 19.687 11.7353C19.6386 11.745 19.5893 11.7499 19.5399 11.7499C19.1181 11.7499 18.8595 11.4794 18.7486 11.3396C18.6308 11.1913 18.5392 11.0131 18.4751 10.885C18.4486 10.8319 18.4233 10.7804 18.3987 10.7303C18.2827 10.4941 18.1821 10.2893 18.0394 10.0991C17.8821 9.88932 17.7132 9.75674 17.4932 9.69937C17.2644 9.63968 16.8713 9.63316 16.2163 9.89515C15.9852 9.98757 15.7234 9.95936 15.5173 9.81984C15.3112 9.68032 15.1878 9.44766 15.1878 9.19879C15.1878 8.88839 15.0946 8.323 14.9119 7.9239C14.8692 7.83045 14.8276 7.75995 14.791 7.71038C14.7871 7.70516 14.7835 7.70032 14.7799 7.69585C14.421 7.84068 14.0053 7.68759 13.8292 7.33542C13.46 6.597 12.7272 5.74629 11.7353 5.74629C11.2105 5.74629 10.5564 5.59115 9.9537 5.3606C9.34716 5.1286 8.70296 4.78614 8.226 4.3478C8.21823 4.34066 8.21062 4.33337 8.20317 4.32591C8.00731 4.13006 7.58226 3.8527 7.02147 3.77259Z" fill="#333333"/>
<path d="M10.14 14.5L10.14 15C9.64002 15.5 8.64009 14.5 9.14004 14H9.64001L10.14 14.5Z" fill="#832D1B"/>
<path fill-rule="evenodd" clip-rule="evenodd" d="M8.96326 13.8232C9.01015 13.7763 9.07374 13.75 9.14005 13.75H9.64001C9.70632 13.75 9.76991 13.7763 9.81679 13.8232L10.3168 14.3232C10.3637 14.3701 10.39 14.4337 10.39 14.5L10.39 15C10.3901 15.0663 10.3637 15.1299 10.3168 15.1768C10.1232 15.3703 9.87767 15.415 9.65351 15.3701C9.43809 15.3271 9.2395 15.203 9.08828 15.0518C8.93706 14.9005 8.81301 14.7019 8.76992 14.4865C8.72509 14.2624 8.76971 14.0168 8.96326 13.8232ZM9.26753 14.25C9.25181 14.29 9.24959 14.3354 9.26021 14.3885C9.27963 14.4856 9.34307 14.5995 9.44184 14.6982C9.54061 14.797 9.6545 14.8604 9.75157 14.8799C9.80468 14.8905 9.85004 14.8883 9.89004 14.8725L9.89002 14.6036L9.53646 14.25H9.26753Z" fill="#333333"/>
<path d="M13.14 15L13.14 15.5C12.64 16 11.64 15.5 12.1399 14.5H12.64L13.14 15Z" fill="#674B78"/>
<path fill-rule="evenodd" clip-rule="evenodd" d="M11.9163 14.3882C11.9586 14.3035 12.0452 14.25 12.1399 14.25H12.64C12.7063 14.25 12.7699 14.2763 12.8168 14.3232L13.3168 14.8232C13.3637 14.8701 13.39 14.9337 13.39 15L13.39 15.5C13.39 15.5663 13.3636 15.6299 13.3168 15.6768C12.9723 16.0212 12.457 16.019 12.115 15.7625C11.9405 15.6316 11.8112 15.4355 11.7687 15.1913C11.7264 14.9483 11.7728 14.6753 11.9163 14.3882ZM12.3041 14.75C12.2516 14.8973 12.2456 15.0158 12.2613 15.1056C12.2813 15.2208 12.3395 15.3059 12.415 15.3625C12.5498 15.4636 12.7403 15.4768 12.89 15.382L12.89 15.1035L12.5365 14.75H12.3041Z" fill="#333333"/>
<path d="M16.14 16.5C15.64 16 14.64 14.8333 14.14 14.5L15.14 14C16.34 14.4 16.64 15 17.14 16C17.64 17 16.64 17 16.14 16.5Z" fill="#674B78"/>
<path fill-rule="evenodd" clip-rule="evenodd" d="M15.0282 13.7764C15.0875 13.7467 15.1562 13.7419 15.2191 13.7628C15.8523 13.9739 16.2677 14.2453 16.5898 14.6094C16.8991 14.959 17.1118 15.3845 17.354 15.869L17.3636 15.8882C17.4993 16.1596 17.5592 16.4114 17.5084 16.6276C17.452 16.867 17.2749 17.0052 17.0756 17.055C16.889 17.1017 16.681 17.0745 16.4949 17.0094C16.3056 16.9431 16.1165 16.83 15.9632 16.6768C15.8092 16.5228 15.6057 16.3035 15.3871 16.068C15.2474 15.9175 15.1015 15.7604 14.9585 15.6094C14.5782 15.208 14.2232 14.8559 14.0013 14.708C13.9272 14.6586 13.885 14.5734 13.8905 14.4845C13.896 14.3955 13.9485 14.3162 14.0282 14.2764L15.0282 13.7764ZM15.1578 14.2706L14.6007 14.5492C14.825 14.7497 15.0787 15.0093 15.3215 15.2656C15.4744 15.427 15.6243 15.5885 15.765 15.7402C15.977 15.9686 16.168 16.1744 16.3168 16.3232C16.4135 16.42 16.5369 16.4944 16.6601 16.5375C16.7865 16.5817 16.8911 16.5858 16.9544 16.57C17.0051 16.5573 17.0155 16.5393 17.0217 16.5131C17.0333 16.4636 17.0307 16.3404 16.9164 16.1118C16.6627 15.6043 16.4769 15.2364 16.2153 14.9406C15.9771 14.6714 15.6665 14.453 15.1578 14.2706Z" fill="#333333"/>
<path d="M18.14 15C17.64 15 16.9733 14 16.64 13.5H17.64C18.84 14.3 18.64 15 18.14 15Z" fill="#674B78"/>
<path fill-rule="evenodd" clip-rule="evenodd" d="M16.4196 13.382C16.4631 13.3007 16.5478 13.25 16.64 13.25H17.64C17.6894 13.25 17.7376 13.2646 17.7787 13.292C18.3992 13.7056 18.7231 14.1341 18.7752 14.5162C18.8023 14.7145 18.7545 14.9041 18.6274 15.0454C18.5019 15.1848 18.3233 15.25 18.14 15.25C17.936 15.25 17.7476 15.1507 17.5934 15.0373C17.4343 14.9202 17.2799 14.7643 17.1386 14.6012C16.8574 14.2768 16.6004 13.8912 16.4348 13.6429L16.432 13.6387C16.3809 13.562 16.3761 13.4633 16.4196 13.382ZM17.1127 13.75C17.2356 13.9244 17.3734 14.1087 17.5164 14.2738C17.646 14.4232 17.7728 14.5485 17.8897 14.6346C18.0116 14.7243 18.094 14.75 18.14 14.75C18.2067 14.75 18.2407 14.7277 18.2558 14.7109C18.2693 14.6959 18.2903 14.6605 18.2798 14.5838C18.2578 14.4221 18.0935 14.1176 17.5631 13.75H17.1127Z" fill="#333333"/>
<path d="M16.64 12C16.14 12.5 16.3067 12.8333 16.14 13H17.14C17.94 11.4 17.14 11.5 16.64 12Z" fill="#674B78"/>
<path fill-rule="evenodd" clip-rule="evenodd" d="M17.1368 11.9515C17.0405 11.9911 16.9236 12.07 16.8168 12.1768C16.6018 12.3918 16.5393 12.5587 16.5076 12.6856C16.5021 12.7073 16.4975 12.7284 16.493 12.75H16.9835C17.1319 12.434 17.2011 12.2113 17.2222 12.0631C17.2326 11.9904 17.2303 11.9481 17.2264 11.9254C17.2092 11.9274 17.1804 11.9335 17.1368 11.9515ZM17.2196 11.9027C17.2196 11.9026 17.2201 11.9033 17.2208 11.9049C17.2199 11.9035 17.2195 11.9028 17.2196 11.9027ZM17.7172 12.1338C17.682 12.3805 17.5684 12.7022 17.3636 13.1118C17.3213 13.1965 17.2347 13.25 17.14 13.25H16.14C16.0389 13.25 15.9477 13.1891 15.9091 13.0957C15.8706 13.0028 15.8915 12.896 15.962 12.8245C15.9639 12.821 15.9689 12.81 15.9756 12.7831C15.9812 12.7606 15.9862 12.7354 15.9933 12.6993L15.9943 12.694C16.0015 12.6573 16.0104 12.6128 16.0225 12.5644C16.0741 12.358 16.1783 12.1082 16.4632 11.8232C16.6065 11.68 16.777 11.5589 16.9464 11.4892C17.1001 11.4259 17.3298 11.3754 17.5198 11.507C17.7226 11.6474 17.7506 11.9001 17.7172 12.1338ZM15.9612 12.8258C15.9612 12.8257 15.9614 12.8254 15.9618 12.8249Z" fill="#333333"/>
<path d="M6.64007 11C7.13999 10.5 8.30673 9.83333 8.64007 9.5L9.63999 10L7.64007 11.5C6.44007 12.3 6.14014 11.5 6.64007 11Z" fill="#832D1B"/>
<path fill-rule="evenodd" clip-rule="evenodd" d="M8.46329 9.32323C8.53938 9.24714 8.65562 9.22828 8.75187 9.2764L9.7518 9.7764C9.82929 9.81515 9.8812 9.89126 9.88898 9.97756C9.89676 10.0638 9.8593 10.148 9.78999 10.2L7.77895 11.7083C7.46214 11.9195 7.1838 12.0393 6.94604 12.0767C6.70703 12.1142 6.48152 12.07 6.32581 11.9143C6.17159 11.76 6.13708 11.5473 6.17046 11.3581C6.20402 11.1679 6.30731 10.9792 6.46327 10.8232C6.73298 10.5535 7.17092 10.2483 7.56136 9.98118C7.60207 9.95333 7.64234 9.92584 7.68202 9.89876C7.83721 9.79284 7.98343 9.69304 8.11193 9.60126C8.27628 9.48387 8.3962 9.39032 8.46329 9.32323ZM8.67947 9.79922C8.5978 9.86606 8.50257 9.93669 8.40254 10.0081C8.26925 10.1033 8.11721 10.2071 7.96151 10.3134C7.92239 10.3401 7.88304 10.3669 7.8437 10.3938C7.44246 10.6684 7.04707 10.9465 6.81685 11.1768C6.72285 11.2708 6.67616 11.3696 6.66285 11.445C6.64937 11.5215 6.6711 11.5525 6.67937 11.5607C6.68615 11.5675 6.72938 11.6046 6.86848 11.5827C7.0079 11.5608 7.2154 11.4819 7.49571 11.2958L9.1664 10.0427L8.67947 9.79922Z" fill="#333333"/>
<path d="M7.40637 7.2601L7.14001 8L8.64001 8.5L8.08773 7.20562C8.03452 7.08092 7.91203 7 7.77644 7C7.61058 7 7.46255 7.10405 7.40637 7.2601Z" fill="#832D1B"/>
<path fill-rule="evenodd" clip-rule="evenodd" d="M7.77644 7.25C7.716 7.25 7.66206 7.28791 7.64159 7.34478L7.46195 7.84379L8.19206 8.08716L7.85779 7.30373C7.84389 7.27115 7.81187 7.25 7.77644 7.25ZM7.17114 7.17543C7.26303 6.92018 7.50516 6.75 7.77644 6.75C8.01218 6.75 8.22516 6.89069 8.31768 7.10751L8.86996 8.40189C8.90857 8.49237 8.89052 8.59709 8.82385 8.66942C8.75718 8.74176 8.65428 8.76828 8.56096 8.73717L7.06096 8.23717C6.99708 8.21588 6.94449 8.16972 6.91509 8.10914C6.8857 8.04856 6.88198 7.97868 6.90479 7.91532L7.17114 7.17543Z" fill="#333333"/>
<path d="M12.14 14.4999C10.94 14.4999 10.3067 14.8332 10.14 14.9999C10.14 14.1999 9.47336 13.9999 9.14002 13.9999C10.14 13.9999 11.3067 13.6665 11.64 13.4999C11.64 12.6999 10.64 11.4999 10.14 10.9999C9.64002 10.4999 6.48243 8.34226 6.13999 7.99988C5.64002 7.5 6.63998 7.49994 6.63998 7.49994C7.64002 7.5 9.51672 8.78766 10.14 9.5C12.94 12.7 15.14 13.9999 12.14 14.4999Z" fill="#832D1B"/>
<path fill-rule="evenodd" clip-rule="evenodd" d="M6.63983 7.24994L6.63824 7.24994L6.63508 7.24996L6.62462 7.2501C6.6159 7.25025 6.60372 7.25053 6.58872 7.25109C6.55883 7.2522 6.51717 7.2544 6.4689 7.25879C6.37574 7.26726 6.24414 7.28505 6.12344 7.32528C6.06295 7.34545 5.99473 7.37462 5.93317 7.41858C5.87122 7.46283 5.80353 7.53131 5.77002 7.6318C5.69828 7.84699 5.82569 8.03916 5.96322 8.17667C6.06588 8.27931 6.3476 8.49221 6.69126 8.74433C6.97773 8.95449 7.32387 9.20371 7.68275 9.4621C7.76626 9.52223 7.85046 9.58286 7.93476 9.6436C8.38222 9.96603 8.83282 10.2921 9.20251 10.5686C9.5786 10.8498 9.85357 11.067 9.96324 11.1767C10.2042 11.4176 10.5684 11.8304 10.8704 12.2773C11.0212 12.5006 11.1532 12.7275 11.2468 12.942C11.3108 13.0888 11.3537 13.2227 11.3748 13.341C11.1953 13.4083 10.9171 13.493 10.5846 13.5686C10.1373 13.6703 9.61523 13.7499 9.14002 13.7499V13.7499C9.00195 13.7499 8.89001 13.8618 8.89001 13.9999C8.89001 14.1379 9.00193 14.2499 9.14 14.2499V14.2499C9.26667 14.2499 9.46223 14.2899 9.61892 14.4028C9.76287 14.5064 9.88998 14.6814 9.88998 14.9999C9.88998 15.101 9.95089 15.1922 10.0443 15.2308C10.1377 15.2695 10.2453 15.2482 10.3168 15.1767C10.3605 15.1329 10.5182 15.0237 10.8279 14.9257C11.1303 14.83 11.563 14.7499 12.14 14.7499C12.2781 14.7499 12.39 14.6379 12.39 14.4999C12.39 14.3618 12.2781 14.2499 12.14 14.2499C11.517 14.2499 11.033 14.3364 10.6771 14.449C10.5465 14.4904 10.4308 14.536 10.3307 14.5833C10.2802 14.4191 10.2002 14.282 10.1016 14.1696C10.3087 14.1377 10.5093 14.0985 10.6954 14.0562C11.16 13.9506 11.5581 13.8203 11.7518 13.7235C11.8365 13.6811 11.89 13.5946 11.89 13.4999C11.89 13.2517 11.8135 12.9907 11.7051 12.7421C11.5955 12.491 11.4463 12.2366 11.2847 11.9974C10.9616 11.5194 10.5759 11.0822 10.3168 10.8231C10.1765 10.6828 9.86923 10.4428 9.50194 10.1681C9.12826 9.88869 8.67431 9.56022 8.22707 9.23795C8.14227 9.17684 8.05773 9.11597 7.974 9.05569C7.61525 8.79739 7.2715 8.54989 6.98703 8.34119C6.62671 8.07684 6.38531 7.89164 6.31675 7.82309C6.307 7.81334 6.29859 7.80448 6.29134 7.79647C6.35671 7.77608 6.43928 7.76355 6.51419 7.75673C6.55186 7.75331 6.58441 7.75159 6.60726 7.75075C6.61862 7.75032 6.62744 7.75012 6.63312 7.75003L6.63917 7.74995L6.64019 7.74994C6.77821 7.74987 6.88999 7.63796 6.88998 7.49992C6.88997 7.36185 6.7779 7.24993 6.63983 7.24994C6.63983 7.24994 6.64008 7.66729 6.63983 7.24994Z" fill="#333333"/>
<path fill-rule="evenodd" clip-rule="evenodd" d="M6.38998 7.49992C6.38999 7.36185 6.50193 7.24993 6.64 7.24994C6.93691 7.24996 7.27648 7.34381 7.61477 7.48051C7.9572 7.61888 8.31751 7.80912 8.6617 8.01958C9.34553 8.43772 9.99364 8.95307 10.3282 9.33537C10.9278 10.0206 11.4994 10.6179 12.0012 11.1422C12.0815 11.2261 12.16 11.3081 12.2365 11.3883C12.7855 11.9636 13.246 12.4583 13.523 12.8738C13.6618 13.0819 13.7679 13.2893 13.8089 13.4925C13.8519 13.7055 13.8229 13.9162 13.6908 14.1024C13.5658 14.2785 13.367 14.4061 13.124 14.5045C12.8787 14.6038 12.5649 14.6825 12.1811 14.7465C12.0449 14.7692 11.9161 14.6772 11.8934 14.541C11.8707 14.4048 11.9627 14.276 12.0989 14.2533C12.465 14.1923 12.7388 14.121 12.9364 14.041C13.1364 13.9601 13.2361 13.8791 13.283 13.813C13.3227 13.7571 13.3391 13.692 13.3188 13.5913C13.2965 13.4808 13.2307 13.3367 13.107 13.1511C12.859 12.7791 12.4321 12.3176 11.8748 11.7335C11.7989 11.654 11.7209 11.5725 11.6409 11.4889C11.1392 10.9647 10.5594 10.359 9.95187 9.66463C9.66309 9.33459 9.06121 8.84994 8.40086 8.44615C8.07295 8.24564 7.73763 8.06944 7.42744 7.94409C7.11311 7.81708 6.84308 7.74995 6.63997 7.74994C6.5019 7.74993 6.38998 7.63799 6.38998 7.49992Z" fill="#333333"/>
<path d="M12.7582 14.7139C12.5287 14.5332 12.3308 14.1789 12.452 13.9131C13.1585 12.3637 12.3859 11.7983 11.6401 11.5C11.2401 11.2822 11.4734 11.0759 11.6401 11C13.2401 11 13.9733 12.5 14.14 13.5C16.94 12.3 19.3067 13.1667 20.1401 13.5C20.86 13.788 20.3067 14 20.1401 14C17.2673 13.3616 15.0526 14.1666 13.8515 14.9413C13.5702 15.1228 13.0212 14.921 12.7582 14.7139V14.7139Z" fill="#674B78"/>
<path fill-rule="evenodd" clip-rule="evenodd" d="M11.5364 10.7725C11.5689 10.7577 11.6043 10.75 11.6401 10.75C12.5296 10.75 13.1799 11.171 13.622 11.7178C13.9793 12.1599 14.2042 12.687 14.3228 13.1557C17.093 12.0879 19.4097 12.9386 20.2329 13.2679C20.4214 13.3433 20.5752 13.4308 20.6649 13.5465C20.7141 13.6101 20.7511 13.6917 20.7504 13.7866C20.7497 13.8808 20.7121 13.9571 20.6699 14.0114C20.5931 14.1102 20.4791 14.1661 20.4005 14.196C20.3181 14.2274 20.2213 14.25 20.1401 14.25C20.1218 14.25 20.1036 14.248 20.0858 14.244C16.5756 13.464 14.0945 14.8991 13.3168 15.6768C13.2453 15.7483 13.1378 15.7697 13.0444 15.731C12.951 15.6923 12.8901 15.6011 12.8901 15.5C12.89 15.0858 12.5542 14.75 12.14 14.75C12.05 14.75 11.9668 14.7016 11.9225 14.6232C11.8781 14.5448 11.8793 14.4486 11.9256 14.3714C12.5118 13.3945 12.5492 12.8135 12.4183 12.4623C12.2864 12.1086 11.9502 11.8933 11.5472 11.7321C11.5381 11.7285 11.5292 11.7243 11.5205 11.7196C11.4013 11.6547 11.2992 11.5752 11.2355 11.4726C11.1652 11.3594 11.152 11.2339 11.1902 11.1184C11.2244 11.0148 11.2929 10.9392 11.351 10.8896C11.4111 10.8381 11.4778 10.7992 11.5364 10.7725ZM11.7106 11.2511C11.7211 11.2581 11.7334 11.2657 11.7478 11.2739C12.175 11.4466 12.6794 11.7312 12.8868 12.2877C13.0753 12.7934 12.9918 13.4485 12.533 14.313C12.8807 14.4281 13.1608 14.6916 13.2981 15.0286C14.3955 14.1637 16.796 13.0641 20.0071 13.7162C19.1585 13.3797 16.9016 12.5885 14.2385 13.7298C14.1679 13.76 14.0874 13.7562 14.0201 13.7194C13.9527 13.6825 13.906 13.6168 13.8934 13.5411C13.8155 13.0737 13.6045 12.4916 13.2331 12.0322C12.8791 11.5941 12.3848 11.2721 11.7106 11.2511Z" fill="#333333"/>
</svg>
