<svg width="24" height="24" viewBox="0 0 24 24" fill="none" xmlns="http://www.w3.org/2000/svg">
<path d="M15.5217 7.63027C14.1055 5.85999 15.5 4.50001 16.4068 4.0897C20 3.00001 21.4227 7.04018 21.7177 8.95799C22.7799 14.2688 19.4166 15.9494 17.6463 15.5069C15.876 15.0643 14.9909 11.9663 15.9643 10.7283C15.2562 10.0202 15.3742 8.36789 15.5217 7.63027Z" fill="#CA3A26"/>
<path fill-rule="evenodd" clip-rule="evenodd" d="M22.4564 8.82717C23.0155 11.6417 22.4268 13.6463 21.3007 14.8927C20.2009 16.1101 18.6397 16.5283 17.4644 16.2345C16.2147 15.922 15.4193 14.7405 15.0634 13.6483C14.8778 13.0789 14.7867 12.4686 14.8187 11.8933C14.8397 11.5156 14.9157 11.1276 15.0724 10.7722C14.8022 10.2817 14.7059 9.70979 14.6739 9.24146C14.6388 8.72829 14.6737 8.21909 14.7297 7.8194C14.4333 7.38202 14.2554 6.93775 14.1924 6.49313C14.1156 5.95094 14.2165 5.45627 14.4131 5.03364C14.7934 4.21615 15.5288 3.6638 16.0977 3.40638C16.1274 3.39293 16.158 3.38144 16.1892 3.37197C17.2334 3.05529 18.1716 3.09969 18.9879 3.42392C19.7926 3.74355 20.419 4.31087 20.8974 4.94378C21.8365 6.18624 22.2961 7.79963 22.4564 8.82717ZM16.6741 4.79271C17.4027 4.5816 17.9743 4.63535 18.4342 4.81799C18.916 5.00935 19.3375 5.36761 19.7008 5.84826C20.4399 6.82614 20.8394 8.18091 20.9765 9.07203C20.9782 9.08308 20.9801 9.0941 20.9823 9.10506C21.4799 11.5929 20.9181 13.0786 20.1877 13.8872C19.4288 14.7272 18.4232 14.928 17.8282 14.7793C17.3077 14.6491 16.7753 14.0604 16.4895 13.1834C16.3542 12.7683 16.2959 12.3442 16.3164 11.9767C16.3372 11.6019 16.4357 11.3422 16.5539 11.1918C16.7886 10.8933 16.7632 10.4665 16.4947 10.1979C16.3413 10.0445 16.2081 9.69097 16.1704 9.13919C16.1352 8.62345 16.1939 8.09353 16.2571 7.77733C16.3006 7.56008 16.2458 7.33474 16.1074 7.16174C15.8208 6.8035 15.7096 6.50876 15.6776 6.28269C15.6459 6.05916 15.6848 5.85627 15.7732 5.66632C15.955 5.27541 16.3444 4.95332 16.6741 4.79271Z" fill="#333333"/>
<path fill-rule="evenodd" clip-rule="evenodd" d="M14.2971 9.87775C14.6967 9.98674 14.9323 10.399 14.8233 10.7987C14.3439 12.5565 13.75 16.054 13.75 21C13.75 21.4142 13.4142 21.75 13 21.75C12.5858 21.75 12.25 21.4142 12.25 21C12.25 15.946 12.8556 12.3128 13.3762 10.404C13.4852 10.0044 13.8975 9.76876 14.2971 9.87775Z" fill="#333333"/>
<path fill-rule="evenodd" clip-rule="evenodd" d="M12.6837 8.9773C13.0284 8.74753 13.494 8.84067 13.7238 9.18531C13.8338 9.35038 14.0733 9.6102 14.3852 9.78114C14.681 9.94324 15.0049 10.009 15.3626 9.88982C15.7555 9.75884 16.1803 9.97121 16.3113 10.3642C16.4422 10.7571 16.2299 11.1819 15.8369 11.3128C14.9946 11.5936 14.2352 11.4094 13.6643 11.0965C13.1095 10.7925 12.699 10.3523 12.4757 10.0174C12.2459 9.67272 12.3391 9.20706 12.6837 8.9773Z" fill="#333333"/>
<path d="M8.47915 7.63027C9.89538 5.85999 8.50083 4.50001 7.59401 4.0897C4.00086 3.00001 2.57818 7.04018 2.2831 8.95799C1.22092 14.2688 4.58423 15.9494 6.35452 15.5069C8.1248 15.0643 9.00995 11.9663 8.03653 10.7283C8.74464 10.0202 8.62666 8.36789 8.47915 7.63027Z" fill="#CA3A26"/>
<path fill-rule="evenodd" clip-rule="evenodd" d="M1.5444 8.82717C0.985304 11.6417 1.57404 13.6463 2.7001 14.8927C3.79992 16.1101 5.36113 16.5283 6.53641 16.2345C7.78618 15.922 8.58151 14.7405 8.93748 13.6483C9.12307 13.0789 9.21418 12.4686 9.18215 11.8933C9.16113 11.5156 9.08519 11.1276 8.92842 10.7722C9.19864 10.2817 9.29493 9.70979 9.32694 9.24146C9.36201 8.72829 9.32712 8.21909 9.27112 7.8194C9.56757 7.38202 9.74541 6.93775 9.80841 6.49313C9.88523 5.95094 9.78433 5.45627 9.58773 5.03364C9.20744 4.21615 8.47209 3.6638 7.90317 3.40638C7.87345 3.39293 7.84288 3.38144 7.81166 3.37197C6.76743 3.05529 5.82928 3.09969 5.01296 3.42392C4.20821 3.74355 3.58184 4.31087 3.10346 4.94378C2.16432 6.18624 1.70477 7.79963 1.5444 8.82717ZM7.32678 4.79271C6.59813 4.5816 6.0265 4.63535 5.56665 4.81799C5.08485 5.00935 4.66339 5.36761 4.30008 5.84826C3.56093 6.82614 3.16147 8.18091 3.02436 9.07203C3.02266 9.08308 3.02071 9.0941 3.01852 9.10506C2.52096 11.5929 3.0827 13.0786 3.81315 13.8872C4.57201 14.7272 5.5776 14.928 6.17261 14.7793C6.69312 14.6491 7.2255 14.0604 7.51132 13.1834C7.64663 12.7683 7.70493 12.3442 7.68447 11.9767C7.66361 11.6019 7.56516 11.3422 7.44694 11.1918C7.21222 10.8933 7.23766 10.4665 7.50619 10.1979C7.65958 10.0445 7.79272 9.69097 7.83043 9.13919C7.86568 8.62345 7.80693 8.09353 7.7437 7.77733C7.70025 7.56008 7.75508 7.33474 7.89349 7.16174C8.18008 6.8035 8.29121 6.50876 8.32324 6.28269C8.35492 6.05916 8.31605 5.85627 8.22769 5.66632C8.04584 5.27541 7.65642 4.95332 7.32678 4.79271Z" fill="#333333"/>
<path fill-rule="evenodd" clip-rule="evenodd" d="M9.70352 9.87775C9.3039 9.98674 9.0683 10.399 9.17728 10.7987C9.65668 12.5564 10.25 16.0539 10.25 21C10.25 21.4142 10.5858 21.75 11 21.75C11.4142 21.75 11.75 21.4142 11.75 21C11.75 15.9461 11.145 12.3129 10.6244 10.404C10.5154 10.0044 10.1031 9.76876 9.70352 9.87775Z" fill="#333333"/>
<path fill-rule="evenodd" clip-rule="evenodd" d="M11.3171 8.9773C10.9725 8.74753 10.5068 8.84067 10.2771 9.18531C10.167 9.35038 9.92751 9.6102 9.61562 9.78114C9.31987 9.94324 8.9959 10.009 8.63826 9.88982C8.2453 9.75884 7.82056 9.97121 7.68958 10.3642C7.55859 10.7571 7.77096 11.1819 8.16392 11.3128C9.00628 11.5936 9.76564 11.4094 10.3366 11.0965C10.8913 10.7925 11.3018 10.3523 11.5251 10.0174C11.7549 9.67272 11.6618 9.20706 11.3171 8.9773Z" fill="#333333"/>
</svg>
