<svg width="24" height="24" viewBox="0 0 24 24" fill="none" xmlns="http://www.w3.org/2000/svg">
<path d="M7.99999 9.5L6.49999 9.5L6.1737 10.1461L4.26229 6.32557L4.49999 5L5.99999 5L7.20175 6.32557L7.8228 7.08771L7.99999 7.5L7.99999 9L7.99999 9.5Z" fill="#CA3A26"/>
<path d="M5 10H8L9 7L13 5.5L15.5 6.5L18 11.5L17.5 16.5L13 21.5L8 21L5 16V10Z" fill="#F3A88D"/>
<path fill-rule="evenodd" clip-rule="evenodd" d="M6.90981 8.86126C7.5219 9.03333 8.05204 9.48504 8.5158 10.0554C8.77713 10.3767 8.72846 10.8491 8.40709 11.1104C8.08572 11.3718 7.61334 11.3231 7.35201 11.0017C6.97203 10.5344 6.68411 10.356 6.50386 10.3053C6.37817 10.2699 6.23981 10.2746 6.02509 10.4462C5.89177 10.5527 5.72652 10.7759 5.58042 11.1642C5.43777 11.5433 5.33286 12.0289 5.28379 12.5915C5.18556 13.718 5.31813 15.0727 5.73339 16.34C6.14033 17.5819 6.94052 18.833 7.92437 19.7662C8.91771 20.7084 10.0134 21.25 11 21.25C11.9674 21.25 12.9153 20.7227 13.8476 19.819C14.7738 18.9212 15.5946 17.7389 16.3047 16.6179C16.9999 15.5205 17.4861 14.5101 17.655 13.4883C17.8201 12.4895 17.6904 11.428 17.0582 10.2046C16.868 9.83662 17.0122 9.38416 17.3801 9.19399C17.7481 9.00383 18.2006 9.14798 18.3907 9.51596C19.1624 11.0091 19.3558 12.3966 19.1349 13.7329C18.9178 15.0462 18.309 16.257 17.5719 17.4206C16.8497 18.5607 15.9514 19.8688 14.8916 20.8961C13.8377 21.9175 12.5326 22.75 11 22.75C9.48663 22.75 8.03981 21.9431 6.89209 20.8545C5.73487 19.7569 4.79541 18.2947 4.30796 16.8071C3.82887 15.3449 3.67386 13.7869 3.78947 12.4612C3.84733 11.7977 3.97469 11.1723 4.17651 10.6359C4.37489 10.1087 4.66631 9.61189 5.08867 9.27438C5.61488 8.85387 6.24316 8.67385 6.90981 8.86126Z" fill="#333333"/>
<path fill-rule="evenodd" clip-rule="evenodd" d="M5.65417 4.45325C5.95793 4.17164 6.43247 4.1896 6.71407 4.49336C7.31719 5.14393 8.10602 6.08827 9.07603 7.31699C9.3327 7.6421 9.27721 8.11372 8.95209 8.37038C8.62698 8.62704 8.15536 8.57155 7.8987 8.24644C6.93692 7.02815 6.17684 6.1202 5.61406 5.51315C5.33245 5.20939 5.35041 4.73485 5.65417 4.45325ZM3.74496 5.89733C4.08848 5.66587 4.55458 5.75672 4.78603 6.10023C5.27042 6.81914 5.939 7.82815 6.79104 9.12608C7.01835 9.47235 6.92192 9.93733 6.57565 10.1646C6.22938 10.392 5.76441 10.2955 5.53709 9.94925C4.6862 8.65307 4.02145 7.64989 3.54206 6.9384C3.31061 6.59488 3.40145 6.12878 3.74496 5.89733Z" fill="#333333"/>
<path fill-rule="evenodd" clip-rule="evenodd" d="M4.76283 5.92615C4.74074 5.99506 4.7458 6.04052 4.78602 6.10022C5.01748 6.44373 4.92664 6.90984 4.58313 7.14129C4.23961 7.37275 3.77351 7.28191 3.54205 6.9384C3.22086 6.4617 3.18591 5.93156 3.33442 5.46826C3.47595 5.02675 3.77505 4.66172 4.11344 4.40649C4.74244 3.93209 5.89882 3.61401 6.71405 4.49334C6.99567 4.79709 6.97772 5.27163 6.67396 5.55324C6.37021 5.83486 5.89568 5.81691 5.61406 5.51315C5.56449 5.45969 5.51002 5.43588 5.41807 5.44044C5.30799 5.44588 5.15866 5.49698 5.01668 5.60406C4.87402 5.71166 4.7919 5.83545 4.76283 5.92615Z" fill="#333333"/>
<path fill-rule="evenodd" clip-rule="evenodd" d="M13.1658 6.27075C11.6062 6.27075 10.1351 6.76166 9.38317 7.84437C9.17444 8.14494 8.98264 8.71398 8.88829 9.65901C8.79588 10.5846 8.80425 11.7871 8.92348 13.2793C8.95647 13.6922 8.64849 14.0536 8.2356 14.0866C7.8227 14.1196 7.46123 13.8116 7.42824 13.3987C7.30522 11.859 7.29102 10.5586 7.39571 9.50999C7.49846 8.48088 7.72343 7.60462 8.15114 6.98874C9.30851 5.32225 11.385 4.77075 13.1658 4.77075C14.4007 4.77075 15.4939 5.30583 16.4286 6.26914C16.717 6.56642 16.7099 7.04124 16.4126 7.32968C16.1153 7.61812 15.6405 7.61095 15.352 7.31367C14.6429 6.58278 13.9199 6.27075 13.1658 6.27075Z" fill="#333333"/>
<path d="M11 12L12.5 9L14 7.5L18 6L20.5 7L20 8.5L18 9.5L15.5 11.5L13.5 14H12L11 12Z" fill="#53A2B1"/>
<path fill-rule="evenodd" clip-rule="evenodd" d="M12.168 1.76929C12.5822 1.76929 12.918 2.10507 12.918 2.51929V5.15064C12.918 5.56485 12.5822 5.90064 12.168 5.90064C11.7538 5.90064 11.418 5.56485 11.418 5.15064V2.51929C11.418 2.10507 11.7538 1.76929 12.168 1.76929Z" fill="#333333"/>
<path fill-rule="evenodd" clip-rule="evenodd" d="M6.43794 2.52915C6.53403 2.12624 6.93855 1.8775 7.34146 1.97359C7.97665 2.12506 8.6214 2.53607 9.26546 3.09633C9.92082 3.66641 10.634 4.44315 11.4043 5.41112C11.6622 5.73524 11.6085 6.20707 11.2844 6.46499C10.9603 6.7229 10.4884 6.66923 10.2305 6.34511C9.49187 5.41686 8.84228 4.71632 8.28099 4.22807C7.70842 3.73 7.28267 3.50163 6.99351 3.43267C6.59059 3.33658 6.34186 2.93207 6.43794 2.52915Z" fill="#333333"/>
<path fill-rule="evenodd" clip-rule="evenodd" d="M9.83873 1.2713C10.2412 1.36931 10.488 1.77501 10.39 2.17746L9.89473 4.21115C9.79672 4.6136 9.39102 4.8604 8.98857 4.76239C8.58611 4.66439 8.33931 4.25869 8.43732 3.85623L8.93257 1.82255C9.03057 1.4201 9.43628 1.1733 9.83873 1.2713Z" fill="#333333"/>
<path fill-rule="evenodd" clip-rule="evenodd" d="M18.9247 5.25379C18.9497 5.25127 18.9749 5.25 19 5.25C19.3248 5.25 19.6547 5.39102 19.9121 5.5558C20.1918 5.73477 20.4777 5.99928 20.6985 6.3525C21.1653 7.09935 21.2737 8.12969 20.6708 9.33541C20.5608 9.55548 20.3498 9.70759 20.1062 9.74244C18.7893 9.93088 17.6776 10.531 16.9621 11.0907C16.6359 11.3459 16.1645 11.2884 15.9093 10.9621C15.6541 10.6359 15.7116 10.1645 16.0379 9.90928C16.8381 9.28326 18.0329 8.61839 19.4729 8.32983C19.6836 7.73475 19.5611 7.36281 19.4265 7.1475C19.3348 7.00072 19.2145 6.89023 19.1035 6.8192C19.0469 6.78299 19.0062 6.76505 18.9839 6.7564C17.8219 6.89797 16.2222 7.53774 14.8657 8.28726C14.1787 8.6669 13.5898 9.05518 13.1835 9.38727C12.9785 9.55484 12.8405 9.69157 12.7607 9.79062C12.7445 9.81084 12.7325 9.82704 12.724 9.83939C12.6676 10.1977 12.3574 10.4718 11.9832 10.4718C11.569 10.4718 11.2332 10.136 11.2332 9.72179C11.2332 9.33967 11.448 9.0292 11.5924 8.84985C11.7625 8.63861 11.9873 8.42769 12.2342 8.2259C12.7317 7.81925 13.4026 7.38196 14.1403 6.97437C15.5972 6.1693 17.4568 5.40195 18.9247 5.25379ZM12.7055 9.86972C12.7054 9.86974 12.7063 9.86776 12.7086 9.8637C12.7068 9.86767 12.7057 9.8697 12.7055 9.86972Z" fill="#333333"/>
<path fill-rule="evenodd" clip-rule="evenodd" d="M17.0907 10.0379C17.346 10.3642 17.2884 10.8355 16.9621 11.0907C16.6194 11.3588 16.0097 11.96 15.4438 12.6243C15.1646 12.9521 14.9082 13.2812 14.7086 13.577C14.4996 13.8868 14.388 14.1093 14.3512 14.2334L14.3512 14.2334C14.2011 14.7401 13.8302 15.053 13.3813 15.1572C12.998 15.2462 12.6087 15.1737 12.3137 15.0854C11.7168 14.9067 11.1124 14.5399 10.8179 14.2814C10.5066 14.0082 10.4757 13.5343 10.749 13.223C11.0222 12.9117 11.4961 12.8808 11.8074 13.1541C11.9444 13.2744 12.3592 13.5333 12.7438 13.6484C12.8263 13.6731 12.8954 13.6874 12.9502 13.6938C13.0636 13.3765 13.2592 13.0434 13.4651 12.7381C13.7052 12.3823 13.9989 12.0074 14.3019 11.6516C14.9007 10.9486 15.5843 10.2641 16.0379 9.90926C16.3642 9.65406 16.8355 9.71166 17.0907 10.0379Z" fill="#333333"/>
<path fill-rule="evenodd" clip-rule="evenodd" d="M11.8393 11.1082C12.1342 11.3991 12.1374 11.8739 11.8465 12.1688C11.5613 12.4579 11.5573 12.6542 11.572 12.7548C11.5928 12.8976 11.6878 13.0491 11.8074 13.1541C12.1187 13.4274 12.1495 13.9013 11.8762 14.2126C11.603 14.5238 11.1291 14.5547 10.8178 14.2814C10.5059 14.0075 10.1729 13.555 10.0877 12.9715C9.99636 12.3458 10.2081 11.6937 10.7787 11.1153C11.0696 10.8205 11.5445 10.8172 11.8393 11.1082Z" fill="#333333"/>
<path fill-rule="evenodd" clip-rule="evenodd" d="M11.9832 8.9718C12.3974 8.9718 12.7332 9.30759 12.7332 9.7218C12.7332 9.85552 12.7373 9.95398 12.7416 10.0572C12.7441 10.1177 12.7466 10.1797 12.7485 10.2515C12.7529 10.4223 12.7517 10.6303 12.6994 10.856C12.5893 11.3307 12.2934 11.7158 11.8465 12.1688C11.5556 12.4636 11.0808 12.4669 10.7859 12.176C10.491 11.8851 10.4878 11.4102 10.7787 11.1153C11.1876 10.7009 11.2269 10.5657 11.2382 10.5171C11.2466 10.481 11.2526 10.4266 11.249 10.2905C11.2482 10.2574 11.2464 10.2144 11.2444 10.1644C11.2396 10.0439 11.2332 9.88279 11.2332 9.7218C11.2332 9.30759 11.569 8.9718 11.9832 8.9718Z" fill="#333333"/>
<path fill-rule="evenodd" clip-rule="evenodd" d="M19.45 5.39999C19.7813 5.64852 19.8485 6.11862 19.6 6.44999C19.291 6.86195 19.2061 7.16269 19.1938 7.35927C19.1818 7.55184 19.2351 7.71105 19.3235 7.85249C19.4168 8.00173 19.5468 8.12552 19.6655 8.21592C19.7228 8.25957 19.7722 8.29146 19.8047 8.31107C19.8207 8.32079 19.8322 8.3272 19.8378 8.33029C19.8393 8.33107 19.8403 8.33164 19.841 8.33197C20.2074 8.51892 20.3552 8.96677 20.1708 9.33541C19.9856 9.70589 19.5351 9.85606 19.1646 9.67082C19.7245 8.55095 19.1656 9.6713 19.1646 9.67082L19.1631 9.67005L19.1613 9.66918L19.1573 9.66713L19.147 9.66182C19.1392 9.65773 19.1295 9.65255 19.118 9.64627C19.0951 9.63373 19.065 9.61671 19.0294 9.59517C18.9583 9.55229 18.8632 9.49042 18.7564 9.40907C18.5469 9.24947 18.2707 8.99826 18.0515 8.6475C17.8274 8.28895 17.6619 7.82315 17.6968 7.26573C17.7313 6.71231 17.9589 6.13805 18.4 5.55C18.6485 5.21863 19.1186 5.15147 19.45 5.39999Z" fill="#333333"/>
</svg>
