<svg width="24" height="24" viewBox="0 0 24 24" fill="none" xmlns="http://www.w3.org/2000/svg">
<path d="M9.50001 11.25C9.35376 8.7723 8.50001 7.75 7.00001 7.75C5.50001 7.75 3.65513 10.1043 2.90063 13.9184C2.14613 17.7324 2.51198 20.0478 3.50599 20.6489C4.50001 21.25 6.5 20.7978 7 20.6489C7.5 20.5 10.5 20.1085 10.5 18.66C10.5 18.1956 10.5 16.7103 10.5 14.25" fill="#CA7A61"/>
<path fill-rule="evenodd" clip-rule="evenodd" d="M4.0556 8.97486C4.84042 7.84961 5.8723 7 7.00001 7C7.94555 7 8.77614 7.3367 9.36008 8.12411C9.90744 8.86219 10.1723 9.91092 10.2487 11.2058C10.2731 11.6193 9.95769 11.9743 9.5442 11.9987C9.13071 12.0231 8.77572 11.7077 8.75131 11.2942C8.68149 10.1114 8.44632 9.41011 8.15524 9.01762C7.90075 8.67445 7.55447 8.5 7.00001 8.5C6.62772 8.5 5.98715 8.82754 5.28591 9.83296C4.61446 10.7957 3.99808 12.2355 3.63637 14.0639C3.26747 15.9287 3.18289 17.3797 3.29333 18.4084C3.40942 19.4897 3.71495 19.8988 3.89409 20.0071C4.17259 20.1755 4.70899 20.2376 5.37673 20.1827C6.0031 20.1311 6.57656 19.9925 6.78594 19.9301C6.88416 19.9008 7.06771 19.8615 7.26326 19.8195C7.373 19.796 7.48652 19.7717 7.59085 19.7478C7.92982 19.6704 8.31658 19.5705 8.67959 19.4375C9.05118 19.3014 9.34864 19.1482 9.54115 18.9865C9.72438 18.8327 9.75001 18.7288 9.75001 18.66V14.25C9.75001 13.8358 10.0858 13.5 10.5 13.5C10.9142 13.5 11.25 13.8358 11.25 14.25V18.66C11.25 19.3154 10.9006 19.8037 10.5057 20.1352C10.1201 20.4591 9.63633 20.6846 9.19542 20.846C8.74592 21.0107 8.28894 21.127 7.92478 21.2102C7.72529 21.2557 7.57522 21.2873 7.46248 21.3111C7.34189 21.3364 7.26402 21.3528 7.21406 21.3677C6.92345 21.4543 6.2469 21.6161 5.49977 21.6776C4.79401 21.7357 3.83341 21.7234 3.1179 21.2907C2.30302 20.7979 1.92862 19.7488 1.80191 18.5685C1.66955 17.3358 1.77929 15.722 2.16489 13.7728C2.55769 11.7872 3.24099 10.1428 4.0556 8.97486Z" fill="#333333"/>
<path d="M10 2.5H14V8.5V12L14.5 12.5L14 14H10L9.5 12.5L10 12V8.5V2.5Z" fill="#CA7A61"/>
<path d="M14.4983 11.25C14.6445 8.7723 15.4983 7.75 16.9983 7.75C18.4983 7.75 20.3432 10.1043 21.0977 13.9184C21.8522 17.7324 21.4863 20.0478 20.4923 20.6489C19.4983 21.25 17.4983 20.7978 16.9983 20.6489C16.4983 20.5 13.4983 20.1085 13.4983 18.66C13.4983 18.1956 13.4983 16.7103 13.4983 14.25" fill="#CA7A61"/>
<path fill-rule="evenodd" clip-rule="evenodd" d="M19.9427 8.97486C19.1579 7.84961 18.126 7 16.9983 7C16.0527 7 15.2222 7.3367 14.6382 8.12411C14.0908 8.86219 13.826 9.91092 13.7496 11.2058C13.7252 11.6193 14.0406 11.9743 14.4541 11.9987C14.8676 12.0231 15.2226 11.7077 15.247 11.2942C15.3168 10.1114 15.552 9.41011 15.843 9.01762C16.0975 8.67445 16.4438 8.5 16.9983 8.5C17.3706 8.5 18.0111 8.82754 18.7124 9.83296C19.3838 10.7957 20.0002 12.2355 20.3619 14.0639C20.7308 15.9287 20.8154 17.3797 20.705 18.4084C20.5889 19.4897 20.2833 19.8988 20.1042 20.0071C19.8257 20.1755 19.2893 20.2376 18.6216 20.1827C17.9952 20.1311 17.4217 19.9925 17.2124 19.9301C17.1141 19.9008 16.9306 19.8615 16.735 19.8195C16.6253 19.796 16.5118 19.7717 16.4074 19.7478C16.0685 19.6704 15.6817 19.5705 15.3187 19.4375C14.9471 19.3014 14.6496 19.1482 14.4571 18.9865C14.2739 18.8327 14.2483 18.7288 14.2483 18.66V14.25C14.2483 13.8358 13.9125 13.5 13.4983 13.5C13.0841 13.5 12.7483 13.8358 12.7483 14.25V18.66C12.7483 19.3154 13.0977 19.8037 13.4926 20.1352C13.8782 20.4591 14.362 20.6846 14.8029 20.846C15.2524 21.0107 15.7094 21.127 16.0735 21.2102C16.273 21.2557 16.4231 21.2873 16.5358 21.3111C16.6564 21.3364 16.7343 21.3528 16.7842 21.3677C17.0748 21.4543 17.7514 21.6161 18.4985 21.6776C19.2043 21.7357 20.1649 21.7234 20.8804 21.2907C21.6953 20.7979 22.0697 19.7488 22.1964 18.5685C22.3287 17.3358 22.219 15.722 21.8334 13.7728C21.4406 11.7872 20.7573 10.1428 19.9427 8.97486Z" fill="#333333"/>
<path fill-rule="evenodd" clip-rule="evenodd" d="M10.5 2C10.9142 2 11.25 2.33579 11.25 2.75V10.25C11.25 10.2722 11.2501 10.2953 11.2502 10.3193C11.2517 10.7654 11.2543 11.5164 10.7637 12.1051C10.2266 12.7497 9.30052 13 8 13C7.58579 13 7.25 12.6642 7.25 12.25C7.25 11.8358 7.58579 11.5 8 11.5C9.19948 11.5 9.52344 11.2503 9.61133 11.1449C9.71927 11.0153 9.75 10.8159 9.75 10.25V2.75C9.75 2.33579 10.0858 2 10.5 2Z" fill="#333333"/>
<path fill-rule="evenodd" clip-rule="evenodd" d="M13.5 2C13.0858 2 12.75 2.33579 12.75 2.75V10.25C12.75 10.2722 12.7499 10.2953 12.7498 10.3193C12.7483 10.7654 12.7457 11.5164 13.2363 12.1051C13.7734 12.7497 14.6995 13 16 13C16.4142 13 16.75 12.6642 16.75 12.25C16.75 11.8358 16.4142 11.5 16 11.5C14.8005 11.5 14.4766 11.2503 14.3887 11.1449C14.2807 11.0153 14.25 10.8159 14.25 10.25V2.75C14.25 2.33579 13.9142 2 13.5 2Z" fill="#333333"/>
<path fill-rule="evenodd" clip-rule="evenodd" d="M10.4305 15.1084C9.90085 15.5035 9.23504 16.0002 8 16.0002C7.58579 16.0002 7.25 15.6644 7.25 15.2502C7.25 14.836 7.58579 14.5002 8 14.5002C8.7352 14.5002 9.06883 14.2527 9.54319 13.8989C10.0781 13.4999 10.7488 13 12 13C13.2513 13 13.9216 13.5 14.4562 13.899C14.9299 14.2526 15.2636 14.5002 16 14.5002C16.4142 14.5002 16.75 14.836 16.75 15.2502C16.75 15.6644 16.4142 16.0002 16 16.0002C14.7635 16.0002 14.0977 15.5032 13.5679 15.1078L13.559 15.1011C13.0885 14.75 12.7487 14.5 12 14.5C11.2512 14.5 10.9107 14.7502 10.44 15.1013L10.4305 15.1084Z" fill="#333333"/>
</svg>
