<svg width="24" height="24" viewBox="0 0 24 24" fill="none" xmlns="http://www.w3.org/2000/svg">
<path d="M2 2H5.5L6.5 5H20L22 8.5L21 11.5L18 12.5H8L5 13L6 15H19.5L22 18V21H18.5L17.5 17.5H5L2.5 16V11.5L5 10L18.5 9.5L18 7H3.5L2 2Z" fill="#CA7A61"/>
<path fill-rule="evenodd" clip-rule="evenodd" d="M5.5516 1.25013C5.96574 1.2579 6.29518 1.59992 6.28741 2.01406C6.26955 2.96653 6.39422 3.57381 6.56461 3.91459C6.70941 4.20419 6.84863 4.25 7.00004 4.25H17.9625C19.6572 4.25 20.8848 4.81462 21.6807 5.67971C22.4616 6.52853 22.7636 7.59832 22.7499 8.51124C22.7367 9.39352 22.4482 10.5571 21.712 11.5185C20.9523 12.5106 19.7405 13.25 18.0001 13.25H6.5C6.16079 13.25 5.97826 13.3528 5.88673 13.4384C5.79113 13.5278 5.74614 13.6421 5.74529 13.7556C5.74443 13.8694 5.78786 13.9815 5.87792 14.0677C5.96344 14.1496 6.1362 14.25 6.46246 14.25H18.4999C19.4074 14.25 20.1664 14.5188 20.775 14.9955C21.3727 15.4637 21.7829 16.0986 22.0662 16.7715C22.6258 18.1005 22.75 19.7232 22.75 21C22.75 21.4142 22.4142 21.75 22 21.75C21.5858 21.75 21.25 21.4142 21.25 21C21.25 19.7768 21.1242 18.3995 20.6838 17.3535C20.4671 16.8389 20.1898 16.4426 19.85 16.1764C19.521 15.9187 19.0925 15.75 18.4999 15.75H6.46246C5.80749 15.75 5.24433 15.5379 4.8404 15.151C4.44103 14.7685 4.24149 14.2556 4.24533 13.7444C4.24917 13.2329 4.45652 12.7222 4.8621 12.3429C5.27174 11.9597 5.83921 11.75 6.5 11.75H18.0001C19.2595 11.75 20.0365 11.2394 20.5211 10.6065C21.0293 9.9429 21.2408 9.10649 21.2501 8.48876C21.2589 7.90168 21.0609 7.22148 20.5768 6.69529C20.1077 6.18539 19.3053 5.75 17.9625 5.75H7.00004C6.18895 5.75 5.57818 5.29582 5.22297 4.58541C4.89336 3.92619 4.76803 3.03348 4.78768 1.98594C4.79544 1.5718 5.13746 1.24237 5.5516 1.25013ZM1.99439 1.25002C2.40859 1.24692 2.74688 1.58019 2.74998 1.99439C2.76819 4.42643 3.2587 5.57233 3.75909 6.1182C4.2325 6.63464 4.8412 6.75 5.53754 6.75H17C18.45 6.75 19.625 7.52502 19.625 8.75C19.625 9.97499 18.45 10.75 17 10.75H5.53754C4.55624 10.75 3.88524 11.2178 3.43219 11.8668C2.9609 12.5419 2.75 13.3889 2.75 14C2.75 14.5997 2.95369 15.2994 3.39572 15.8352C3.81857 16.3478 4.4897 16.75 5.53754 16.75H17C17.6181 16.75 18.1018 17.0213 18.4404 17.4226C18.7562 17.7969 18.9333 18.2659 19.0401 18.6931C19.2501 19.5333 19.25 20.483 19.2499 20.9763V21C19.2499 21.4142 18.9141 21.75 18.4999 21.75C18.0857 21.75 17.7499 21.4142 17.7499 21C17.7499 20.4861 17.7464 19.703 17.5849 19.0569C17.5042 18.7341 17.4 18.5156 17.294 18.3899C17.2106 18.2912 17.1319 18.25 17 18.25H5.53754C4.04785 18.25 2.9502 17.6523 2.23867 16.7898C1.54632 15.9506 1.25 14.9003 1.25 14C1.25 13.1111 1.53913 11.9581 2.20224 11.0082C2.8836 10.0322 3.98137 9.25 5.53754 9.25H17C17.505 9.25 17.8037 9.12375 17.9562 9.00938C18.104 8.89854 18.125 8.79781 18.125 8.75C18.125 8.7022 18.104 8.60146 17.9562 8.49062C17.8037 8.37625 17.505 8.25 17 8.25H5.53754C4.69634 8.25 3.55499 8.11537 2.65337 7.1318C1.77874 6.17768 1.26925 4.57358 1.25002 2.00562C1.24692 1.59142 1.58018 1.25312 1.99439 1.25002Z" fill="#333333"/>
<path fill-rule="evenodd" clip-rule="evenodd" d="M12.25 6.24443C12.2515 6.38249 12.1408 6.49566 12.0028 6.4972L11.5028 6.50278C11.3648 6.50432 11.2516 6.39365 11.25 6.25559C11.2485 6.11753 11.3592 6.00436 11.4972 6.00281L11.9972 5.99724C12.1353 5.99569 12.2484 6.10637 12.25 6.24443Z" fill="#333333"/>
<path fill-rule="evenodd" clip-rule="evenodd" d="M12.75 11.2472C12.7515 11.3853 12.6408 11.4984 12.5028 11.5L12.0028 11.5056C11.8648 11.5071 11.7516 11.3964 11.75 11.2584C11.7485 11.1203 11.8592 11.0071 11.9972 11.0056L12.4972 11C12.6353 10.9985 12.7484 11.1091 12.75 11.2472Z" fill="#333333"/>
<path fill-rule="evenodd" clip-rule="evenodd" d="M6.99999 6.14999C7.05522 6.14999 7.09999 6.19477 7.09999 6.24999C7.09999 6.27566 7.10852 6.31638 7.13115 6.34781C7.15011 6.37415 7.18259 6.39999 7.24999 6.39999C7.30522 6.39999 7.34999 6.44477 7.34999 6.49999C7.34999 6.55522 7.30522 6.59999 7.24999 6.59999C7.1174 6.59999 7.02488 6.54251 6.96884 6.46467C6.91647 6.39194 6.89999 6.30766 6.89999 6.24999C6.89999 6.19477 6.94477 6.14999 6.99999 6.14999Z" fill="#333333"/>
<path fill-rule="evenodd" clip-rule="evenodd" d="M20.5999 7.9954C20.6024 8.05057 20.5598 8.09735 20.5046 8.09988C20.4789 8.10106 20.4387 8.11144 20.4083 8.13549C20.3829 8.15564 20.3585 8.18927 20.3616 8.25661C20.3642 8.31178 20.3215 8.35856 20.2663 8.36109C20.2111 8.36362 20.1644 8.32095 20.1618 8.26578C20.1558 8.13333 20.2089 8.03827 20.2841 7.97872C20.3544 7.92307 20.4378 7.90274 20.4954 7.9001C20.5506 7.89756 20.5974 7.94023 20.5999 7.9954Z" fill="#333333"/>
<path fill-rule="evenodd" clip-rule="evenodd" d="M3.84989 12.9954C3.85243 13.0506 3.80976 13.0974 3.75459 13.0999C3.72895 13.1011 3.68866 13.1114 3.6583 13.1355C3.63286 13.1556 3.60853 13.1893 3.61163 13.2566C3.61416 13.3118 3.57149 13.3586 3.51632 13.3611C3.46115 13.3636 3.41437 13.321 3.41184 13.2658C3.40575 13.1333 3.45894 13.0383 3.53412 12.9787C3.60437 12.9231 3.6878 12.9027 3.74541 12.9001C3.80058 12.8976 3.84736 12.9402 3.84989 12.9954Z" fill="#333333"/>
<path fill-rule="evenodd" clip-rule="evenodd" d="M11.878 16.4692C11.895 16.4166 11.9514 16.3878 12.004 16.4049C12.0284 16.4128 12.0697 16.4172 12.1066 16.4054C12.1375 16.3955 12.1721 16.3725 12.1929 16.3084C12.2099 16.2559 12.2663 16.2271 12.3189 16.2441C12.3714 16.2611 12.4002 16.3175 12.3832 16.3701C12.3423 16.4962 12.2591 16.5665 12.1678 16.5958C12.0824 16.6232 11.9972 16.6129 11.9423 16.5951C11.8898 16.5781 11.861 16.5217 11.878 16.4692Z" fill="#333333"/>
<path fill-rule="evenodd" clip-rule="evenodd" d="M20.5025 19.4344C20.3833 19.5041 20.2301 19.464 20.1604 19.3448L19.908 18.9132C19.8383 18.7941 19.8783 18.6409 19.9975 18.5712C20.1167 18.5015 20.2698 18.5416 20.3395 18.6608L20.592 19.0923C20.6617 19.2115 20.6216 19.3647 20.5025 19.4344Z" fill="#333333"/>
<path fill-rule="evenodd" clip-rule="evenodd" d="M15.6262 16.2158C15.6262 16.3539 15.5143 16.4658 15.3762 16.4658L14.8762 16.4658C14.7381 16.4658 14.6262 16.3539 14.6262 16.2158C14.6262 16.0777 14.7381 15.9658 14.8762 15.9658L15.3762 15.9658C15.5143 15.9658 15.6262 16.0777 15.6262 16.2158Z" fill="#333333"/>
<path d="M4.25 4.25C4.25 4.38807 4.13807 4.5 4 4.5C3.86193 4.5 3.75 4.38807 3.75 4.25C3.75 4.11193 3.86193 4 4 4C4.13807 4 4.25 4.11193 4.25 4.25Z" fill="#333333"/>
<path d="M5.25 5.75C5.25 5.88807 5.13807 6 5 6C4.86193 6 4.75 5.88807 4.75 5.75C4.75 5.61193 4.86193 5.5 5 5.5C5.13807 5.5 5.25 5.61193 5.25 5.75Z" fill="#333333"/>
<path d="M16.5 6.25C16.5 6.38807 16.3881 6.5 16.25 6.5C16.1119 6.5 16 6.38807 16 6.25C16 6.11193 16.1119 6 16.25 6C16.3881 6 16.5 6.11193 16.5 6.25Z" fill="#333333"/>
<path d="M19.5 10.75C19.5 10.8881 19.3881 11 19.25 11C19.1119 11 19 10.8881 19 10.75C19 10.6119 19.1119 10.5 19.25 10.5C19.3881 10.5 19.5 10.6119 19.5 10.75Z" fill="#333333"/>
<path d="M4.5 15.25C4.5 15.3881 4.38807 15.5 4.25 15.5C4.11193 15.5 4 15.3881 4 15.25C4 15.1119 4.11193 15 4.25 15C4.38807 15 4.5 15.1119 4.5 15.25Z" fill="#333333"/>
<path d="M7.5 11.25C7.5 11.3881 7.38807 11.5 7.25 11.5C7.11193 11.5 7 11.3881 7 11.25C7 11.1119 7.11193 11 7.25 11C7.38807 11 7.5 11.1119 7.5 11.25Z" fill="#333333"/>
<path d="M8.5 16.25C8.5 16.3881 8.38807 16.5 8.25 16.5C8.11193 16.5 8 16.3881 8 16.25C8 16.1119 8.11193 16 8.25 16C8.38807 16 8.5 16.1119 8.5 16.25Z" fill="#333333"/>
<path d="M19.5 17.25C19.5 17.3881 19.3881 17.5 19.25 17.5C19.1119 17.5 19 17.3881 19 17.25C19 17.1119 19.1119 17 19.25 17C19.3881 17 19.5 17.1119 19.5 17.25Z" fill="#333333"/>
</svg>
