<svg width="24" height="24" viewBox="0 0 24 24" fill="none" xmlns="http://www.w3.org/2000/svg">
<path d="M15 21.5C19.4 12.3 14.3333 8 11 7L9.5 9H7C7.4 11.4 7.66667 13.3333 8 14.5C5.2 15.3 6.16666 18.5 7 20C5 20 4.83333 21 5 21.5H15Z" fill="#D6AE5D"/>
<path d="M5.5 6.00006C5.5 6.00006 6.5 3.00002 5.5 2.5L4.5 3L3.5 3.5V5L5.5 6.00006Z" fill="#D6AE5D"/>
<path d="M13 6.00006C13 6.00006 14 3.00002 13 2.5L12 3L11 3.5V5L13 6.00006Z" fill="#D6AE5D"/>
<path fill-rule="evenodd" clip-rule="evenodd" d="M12.6963 14.7214C12.8502 15.106 12.6631 15.5425 12.2785 15.6963C11.914 15.8421 11.5121 16.0561 11.1698 16.3194C10.8218 16.5871 10.5806 16.8707 10.4657 17.1422C10.3633 17.3842 10.345 17.6477 10.5021 17.9774C10.6737 18.3377 11.0761 18.8159 11.916 19.3759C12.1385 19.5242 12.2652 19.7797 12.2485 20.0466C12.2319 20.3134 12.0745 20.5512 11.8354 20.6708C11.7753 20.7008 11.7142 20.7326 11.6532 20.7656C11.9939 20.8363 12.25 21.1382 12.25 21.5C12.25 21.9142 11.9142 22.25 11.5 22.25C10.8953 22.25 10.364 22.1948 9.99421 21.9978C9.7865 21.8871 9.54406 21.6844 9.45592 21.3465C9.37083 21.0203 9.47562 20.7406 9.57061 20.571C9.71625 20.3109 9.95846 20.0929 10.176 19.9286C9.70382 19.5055 9.36162 19.0712 9.1479 18.6225C8.80078 17.8938 8.81999 17.1824 9.08427 16.5577C9.33608 15.9625 9.79071 15.4878 10.2552 15.1305C10.7253 14.7688 11.2527 14.4911 11.7214 14.3036C12.106 14.1498 12.5425 14.3368 12.6963 14.7214Z" fill="#333333"/>
<path fill-rule="evenodd" clip-rule="evenodd" d="M15.2245 11.5008C14.2009 9.3784 12.2938 8.17115 10.7845 7.71836L11.2155 6.28162C13.0395 6.82882 15.3324 8.27157 16.5755 10.8492C17.8328 13.4561 17.947 17.0765 15.6766 21.8236C15.552 22.0841 15.2888 22.25 15 22.25H4.99999C4.67717 22.25 4.39057 22.0434 4.28848 21.7372C4.14206 21.2979 4.13745 20.6289 4.62073 20.0713C4.91589 19.7307 5.33771 19.4963 5.87895 19.3676C5.60199 18.6557 5.38433 17.8115 5.3875 16.9846C5.38996 16.3413 5.52668 15.6628 5.92092 15.0704C6.20595 14.6421 6.60265 14.2935 7.11144 14.0406C6.91138 13.1514 6.72616 12.0001 6.51477 10.6862C6.43444 10.1869 6.35034 9.6641 6.2602 9.12329L7.73979 8.87669C7.83739 9.46226 7.92625 10.0139 8.00932 10.5297C8.27364 12.1707 8.47933 13.4476 8.72114 14.2939C8.83493 14.6922 8.60431 15.1073 8.20603 15.2211C7.65319 15.3791 7.34799 15.6335 7.16969 15.9014C6.98373 16.1809 6.88919 16.5461 6.88749 16.9904C6.884 17.901 7.27257 18.9463 7.65561 19.6358C7.78467 19.8681 7.78116 20.1513 7.6464 20.3803C7.51163 20.6094 7.26573 20.75 6.99999 20.75H14.522C16.4381 16.5229 16.2013 13.5264 15.2245 11.5008Z" fill="#333333"/>
<path fill-rule="evenodd" clip-rule="evenodd" d="M19.7384 6.09463C19.3886 5.99177 19.0348 6.07122 18.8354 6.17092C18.8168 6.18022 18.7978 6.18874 18.7785 6.19646C18.0298 6.49597 17.7255 7.00702 17.6854 7.54345C17.6423 8.12064 17.9017 8.84121 18.5303 9.46976C19.3083 10.2477 19.8944 10.9612 20.2625 11.9184C20.6249 12.8605 20.75 13.9708 20.75 15.5001C20.75 17.1575 20.2 18.8216 19.217 20.0855C18.2277 21.3575 16.7732 22.2501 15 22.2501C14.5858 22.2501 14.25 21.9143 14.25 21.5001C14.25 21.0859 14.5858 20.7501 15 20.7501C16.2268 20.7501 17.2723 20.1426 18.033 19.1646C18.8 18.1785 19.25 16.8427 19.25 15.5001C19.25 14.0295 19.1251 13.1397 18.8625 12.4568C18.6056 11.7889 18.1917 11.2524 17.4697 10.5305C16.5983 9.65909 16.1077 8.52966 16.1896 7.43182C16.2739 6.3016 16.96 5.31878 18.194 4.81486C18.6628 4.58877 19.3942 4.42988 20.1616 4.65558C20.9853 4.89783 21.7261 5.54585 22.1964 6.72156C22.3502 7.10615 22.1631 7.54263 21.7785 7.69646C21.394 7.8503 20.9575 7.66323 20.8036 7.27865C20.4739 6.45436 20.0481 6.18571 19.7384 6.09463Z" fill="#333333"/>
<path fill-rule="evenodd" clip-rule="evenodd" d="M1.80364 12.7214C1.95748 12.3368 2.39396 12.1498 2.77854 12.3036L2.91138 12.3567C4.321 12.9206 5.86419 13.0623 7.35291 12.7645C7.75908 12.6833 8.1542 12.9467 8.23544 13.3529C8.31667 13.759 8.05326 14.1542 7.64709 14.2354C5.87304 14.5902 4.03408 14.4214 2.3543 13.7494L2.22146 13.6963C1.83687 13.5425 1.64981 13.106 1.80364 12.7214Z" fill="#333333"/>
<path d="M11.5 5.875C11.5 7.73896 10.5 9.25 8.5 9.25C6.5 9.25 5.5 7.73896 5.5 5.875C5.5 4.01104 7 2.5 8.5 2.5C10 2.5 11.5 4.01104 11.5 5.875Z" fill="#D6AE5D"/>
<path fill-rule="evenodd" clip-rule="evenodd" d="M8.5 3.25C7.47114 3.25 6.25 4.36594 6.25 5.875C6.25 6.68192 6.4671 7.3427 6.83033 7.78639C7.17751 8.21048 7.70798 8.5 8.5 8.5C9.29202 8.5 9.82249 8.21048 10.1697 7.78639C10.5329 7.3427 10.75 6.68192 10.75 5.875C10.75 4.36594 9.52886 3.25 8.5 3.25ZM4.75 5.875C4.75 3.65614 6.52886 1.75 8.5 1.75C10.4711 1.75 12.25 3.65614 12.25 5.875C12.25 6.93204 11.9671 7.95876 11.3303 8.73658C10.6775 9.53401 9.70798 10 8.5 10C7.29202 10 6.32249 9.53401 5.66967 8.73658C5.0329 7.95876 4.75 6.93204 4.75 5.875Z" fill="#333333"/>
<path fill-rule="evenodd" clip-rule="evenodd" d="M5 3.5C4.58579 3.5 4.25 3.83579 4.25 4.25C4.25 4.66421 4.58579 5 5 5V6.5C3.75736 6.5 2.75 5.49264 2.75 4.25C2.75 3.00736 3.75736 2 5 2C5.99749 2 6.84153 2.64859 7.13713 3.54501L5.71258 4.01476C5.61369 3.71487 5.33096 3.5 5 3.5Z" fill="#333333"/>
<path fill-rule="evenodd" clip-rule="evenodd" d="M12 3.5C11.6746 3.5 11.3958 3.70763 11.2925 3.99993L9.87823 3.50007C10.1868 2.62718 11.0192 2 12 2C13.2427 2 14.25 3.00736 14.25 4.25C14.25 5.49264 13.2427 6.5 12 6.5V5C12.4142 5 12.75 4.66421 12.75 4.25C12.75 3.83579 12.4142 3.5 12 3.5Z" fill="#333333"/>
<path d="M8.25 5.5C8.25 5.91421 7.91421 6.25 7.5 6.25C7.08579 6.25 6.75 5.91421 6.75 5.5C6.75 5.08579 7.08579 4.75 7.5 4.75C7.91421 4.75 8.25 5.08579 8.25 5.5Z" fill="#333333"/>
<path d="M10.25 5.5C10.25 5.91421 9.91421 6.25 9.5 6.25C9.08579 6.25 8.75 5.91421 8.75 5.5C8.75 5.08579 9.08579 4.75 9.5 4.75C9.91421 4.75 10.25 5.08579 10.25 5.5Z" fill="#333333"/>
</svg>
