<svg width="24" height="24" viewBox="0 0 24 24" fill="none" xmlns="http://www.w3.org/2000/svg">
<path d="M9.98335 5.21035C9.12728 6.06641 8.91327 7.7072 8.91327 8.42059L12.5 11L13.7286 8.95563C12.6585 8.42059 12.1235 4.67531 12.1235 2.53516C10.5184 2.53516 9.44831 3.60523 9.98335 5.21035Z" fill="#FFF9EC"/>
<path d="M12.1235 20.1914C8.27122 23.1876 5.16799 21.7965 4.09791 20.7264L8.91326 15.376C5.91704 15.376 5.16798 13.2358 5.16798 12.1657C2.59979 10.4536 3.38452 7.17204 4.09791 5.74527C3.24185 2.74905 4.8113 2 5.70303 2C5.70303 6.70834 10.34 10.0256 12.6585 11.0957L14.7987 7.88545C16.05 6 17.05 6 17.55 6C19.1311 6 19.2283 7.78661 19.05 8.5L20.55 10.0256H17.4739C18.0089 11.0957 17.6522 13.0575 17.4739 13.7709C16.1898 17.1951 13.3719 17.6945 12.1235 17.5162V20.1914Z" fill="#FFF9EC"/>
<path fill-rule="evenodd" clip-rule="evenodd" d="M3.63246 2.31635C4.2029 1.50876 5.07716 1.25 5.70303 1.25C6.11724 1.25 6.45303 1.58579 6.45303 2C6.45303 4.09696 7.48557 5.92914 8.85948 7.40027C10.01 8.63219 11.358 9.56389 12.4023 10.128L14.1738 7.47073C14.1739 7.47059 14.1737 7.47087 14.1738 7.47073C14.8487 6.4539 15.5018 5.87591 16.1193 5.56556C16.7472 5.24998 17.2661 5.24999 17.5464 5.25H17.55C18.0959 5.25 18.5651 5.40776 18.9382 5.69927C19.3028 5.98406 19.5277 6.35863 19.6626 6.72061C19.8541 7.23466 19.891 7.7932 19.8496 8.24346L21.0848 9.49976C21.2967 9.71524 21.3585 10.0368 21.2417 10.3155C21.1249 10.5942 20.8522 10.7756 20.55 10.7756H18.4573C18.5174 11.2234 18.515 11.6786 18.4899 12.0788C18.4418 12.8485 18.2988 13.5636 18.2015 13.9528C18.1946 13.9804 18.1861 14.0076 18.1761 14.0342C16.9757 17.2354 14.5304 18.1912 12.8735 18.2883V20.1914C12.8735 20.4228 12.7666 20.6413 12.584 20.7834C8.41787 24.0237 4.89124 22.5804 3.56758 21.2567C3.28552 20.9747 3.2736 20.5212 3.54044 20.2247L7.39988 15.9364C6.49792 15.6909 5.8227 15.2259 5.34276 14.6545C4.77608 13.9799 4.51801 13.2007 4.44259 12.5667C3.14564 11.555 2.6907 10.1631 2.65268 8.87055C2.61675 7.64883 2.94687 6.47834 3.30256 5.67471C2.93244 4.19669 3.08817 3.08692 3.63246 2.31635ZM4.85764 3.18176C4.64173 3.48743 4.42499 4.15999 4.81906 5.53923C4.87061 5.71966 4.85265 5.91285 4.76873 6.08068C4.45389 6.71037 4.1208 7.76465 4.15203 8.82645C4.18247 9.86152 4.55084 10.8529 5.58401 11.5417C5.79266 11.6808 5.91798 11.915 5.91798 12.1657C5.91798 12.5548 6.06119 13.1777 6.49132 13.6897C6.8969 14.1726 7.61448 14.626 8.91327 14.626C9.20945 14.626 9.47789 14.8003 9.59839 15.0709C9.71889 15.3414 9.66887 15.6576 9.47073 15.8777L5.1934 20.6303C6.33139 21.3235 8.56573 21.8528 11.3735 19.8169V17.5162C11.3735 17.2987 11.4678 17.092 11.6321 16.9496C11.7963 16.8071 12.0143 16.7429 12.2296 16.7737C13.1985 16.9121 15.6138 16.5408 16.7564 13.5477C16.8374 13.2138 16.9535 12.6154 16.9929 11.9852C17.0358 11.2979 16.9773 10.7095 16.8031 10.361C16.6868 10.1285 16.6992 9.8524 16.8359 9.63129C16.9725 9.41018 17.2139 9.27559 17.4739 9.27559H18.7608L18.5152 9.02583C18.3321 8.83958 18.259 8.57149 18.3224 8.3181C18.3809 8.08396 18.3956 7.61622 18.257 7.24435C18.1922 7.07051 18.1076 6.95383 18.0148 6.88134C17.9306 6.81557 17.7947 6.75 17.55 6.75C17.3294 6.75 17.1001 6.75137 16.7929 6.9058C16.4726 7.06677 15.9999 7.43182 15.4236 8.30018L13.2826 11.5117C13.0777 11.819 12.6796 11.9314 12.3442 11.7766C11.1093 11.2067 9.28732 10.0561 7.76321 8.42409C6.43901 7.00617 5.29463 5.17424 5.0171 3.00552C4.9593 3.05564 4.90542 3.11411 4.85764 3.18176Z" fill="#333333"/>
<path fill-rule="evenodd" clip-rule="evenodd" d="M10.8203 3.75893C10.6199 3.99277 10.4953 4.37449 10.6949 4.97318C10.7847 5.24268 10.7146 5.53981 10.5137 5.74068C10.221 6.03341 9.99813 6.51002 9.85231 7.06089C9.70965 7.59983 9.66327 8.12351 9.66327 8.42059C9.66327 8.8348 9.32748 9.17059 8.91327 9.17059C8.49906 9.17059 8.16327 8.8348 8.16327 8.42059C8.16327 8.00428 8.22389 7.35087 8.40226 6.67705C8.5441 6.14119 8.77576 5.53327 9.15777 5.02226C8.98624 4.17463 9.16483 3.38543 9.68142 2.78274C10.2623 2.10506 11.1663 1.78516 12.1235 1.78516C12.5377 1.78516 12.8735 2.12094 12.8735 2.53516C12.8735 3.55619 13.0024 4.97563 13.2587 6.1928C13.3871 6.8027 13.5416 7.33308 13.7138 7.72771C13.7997 7.92455 13.882 8.06894 13.9548 8.16711C14.0245 8.26106 14.065 8.28503 14.0649 8.28521C14.0649 8.28522 14.0646 8.28508 14.064 8.2848C14.4345 8.47005 14.5847 8.92055 14.3994 9.29104C14.2142 9.66152 13.7637 9.81169 13.3932 9.62645C12.8728 9.36625 12.5499 8.81097 12.339 8.32762C12.1099 7.80265 11.93 7.16264 11.7909 6.50182C11.5784 5.49245 11.4473 4.36747 11.397 3.39397C11.1373 3.48137 10.9452 3.61325 10.8203 3.75893Z" fill="#333333"/>
<path d="M17.7 8.25C17.7 8.66421 17.3642 9 16.95 9C16.5358 9 16.2 8.66421 16.2 8.25C16.2 7.83579 16.5358 7.5 16.95 7.5C17.3642 7.5 17.7 7.83579 17.7 8.25Z" fill="#333333"/>
</svg>
