<svg width="24" height="24" viewBox="0 0 24 24" fill="none" xmlns="http://www.w3.org/2000/svg">
<path d="M2 14.2917C2 10.0812 4.10526 9.02856 5.15789 9.02856V10.6075C4.63158 11.1338 4.2807 13.4145 4.10526 14.818L2 14.2917Z" fill="#D37B37"/>
<path d="M11.4737 20.0812C10.9474 19.5549 9.89474 16.9233 9.89474 16.9233V14.2917L12 14.8181V16.397L13.0526 20.0812H11.4737Z" fill="#D37B37"/>
<path d="M19.3684 14.2917L16.7368 13.2391L17.2632 11.6602C20.4211 12.1865 21.4737 13.0637 21.4737 13.7654V17.9759L19.3684 16.9233V14.2917Z" fill="#D37B37"/>
<path fill-rule="evenodd" clip-rule="evenodd" d="M2.60804 9.60106C3.40389 8.64605 4.40199 8.27856 5.15789 8.27856C5.57211 8.27856 5.90789 8.61435 5.90789 9.02856C5.90789 9.44278 5.57211 9.77856 5.15789 9.77856C4.86117 9.77856 4.28032 9.9374 3.76038 10.5613C3.29754 11.1167 2.85139 12.0831 2.76501 13.7099L3.47414 13.8872C3.55237 13.3509 3.64984 12.7669 3.76694 12.2253C3.85794 11.8044 3.96445 11.3918 4.08904 11.0398C4.2031 10.7176 4.36856 10.3362 4.62756 10.0772C4.92046 9.78429 5.39533 9.78429 5.68822 10.0772C5.98112 10.3701 5.98112 10.8449 5.68822 11.1378C5.68946 11.1366 5.69007 11.136 5.6901 11.136C5.69029 11.1362 5.66928 11.1608 5.63355 11.2292C5.5945 11.3039 5.5503 11.4069 5.50306 11.5403C5.40836 11.8079 5.31749 12.1518 5.23306 12.5423C5.06466 13.3212 4.9363 14.2164 4.84947 14.9111C4.82285 15.124 4.70625 15.3154 4.5292 15.4367C4.35214 15.5581 4.13159 15.5977 3.92336 15.5456L1.8181 15.0193C1.48422 14.9359 1.25 14.6359 1.25 14.2917C1.25 12.0645 1.8078 10.5614 2.60804 9.60106Z" fill="#333333"/>
<path fill-rule="evenodd" clip-rule="evenodd" d="M9.89474 13.5417C10.309 13.5417 10.6447 13.8775 10.6447 14.2917V16.7769C10.6732 16.8464 10.7121 16.9406 10.7591 17.0527C10.8642 17.3032 11.0091 17.6415 11.1696 17.9946C11.3309 18.3494 11.504 18.7106 11.6653 19.0102C11.7317 19.1334 11.7934 19.2413 11.8491 19.3312H12.0583L11.2789 16.6031C11.2597 16.536 11.25 16.4667 11.25 16.397V14.8181C11.25 14.4039 11.5858 14.0681 12 14.0681C12.4142 14.0681 12.75 14.4039 12.75 14.8181V16.292L13.7738 19.8752C13.8384 20.1015 13.7931 20.345 13.6514 20.5329C13.5097 20.7208 13.288 20.8312 13.0526 20.8312H11.4737C11.2748 20.8312 11.084 20.7522 10.9434 20.6116C10.7239 20.3921 10.5136 20.0353 10.3446 19.7213C10.1605 19.3795 9.97174 18.9841 9.80408 18.6153C9.63563 18.2447 9.48455 17.8921 9.3758 17.6328C9.32133 17.5029 9.27726 17.3959 9.24669 17.321L9.21129 17.2339L9.20189 17.2106L9.19869 17.2026C9.19867 17.2026 9.19839 17.2019 9.89474 16.9233L9.19869 17.2026C9.16326 17.114 9.14474 17.0187 9.14474 16.9233V14.2917C9.14474 13.8775 9.48053 13.5417 9.89474 13.5417Z" fill="#333333"/>
<path fill-rule="evenodd" clip-rule="evenodd" d="M16.5234 11.537C16.5915 11.1284 16.9779 10.8524 17.3865 10.9205C19.0056 11.1903 20.1557 11.5602 20.9224 11.9946C21.6623 12.4139 22.2237 13.0056 22.2237 13.7655V17.9761C22.2237 18.236 22.0891 18.4774 21.868 18.6141C21.6469 18.7507 21.3708 18.7631 21.1383 18.6469L19.033 17.5943C18.7789 17.4672 18.6184 17.2075 18.6184 16.9234V14.7996L16.4583 13.9356C16.0737 13.7817 15.8867 13.3453 16.0405 12.9607C16.1943 12.5761 16.6308 12.389 17.0154 12.5429L19.647 13.5955C19.9317 13.7094 20.1184 13.9852 20.1184 14.2919V16.4599L20.7237 16.7625V13.7741C20.7189 13.7559 20.6649 13.5728 20.1829 13.2996C19.6337 12.9885 18.6786 12.6565 17.1399 12.4001C16.7313 12.332 16.4553 11.9456 16.5234 11.537Z" fill="#333333"/>
<path d="M17.2632 10.0812C17.2632 11.7654 17.2632 12.1863 16.7368 13.2391L17.2632 20.6074H15.6842L14.6316 13.7653C12.5263 15.0284 10.2456 14.2916 9.36842 13.7653C9.36842 14.6074 8.31579 15.5197 7.78947 15.8705L8.84211 20.6074H6.73684L5.68421 15.8705L6.21053 13.7653C5.15789 12.7126 5.1579 11.66 5.1579 11.66C5.1579 7.97579 7.08772 7.62491 8.31579 7.97579C9.36842 8.27654 12 8.50219 13.0526 7.97587C14.7368 2.50219 18.6667 2.88815 20.4211 3.76535L19.3684 4.81798L22 7.97587L20.9474 9.0285C20.9474 9.0285 20.4211 8.50211 19.3684 8.50219C18.3158 8.50227 17.7895 7.44961 17.7895 7.44961C17.3684 7.02856 17.2632 9.02856 17.2632 10.0812Z" fill="#D37B37"/>
<path fill-rule="evenodd" clip-rule="evenodd" d="M16.4701 2.77857C18.1167 2.22116 19.7476 2.59002 20.7565 3.09447C20.9721 3.20228 21.1228 3.40718 21.1614 3.64515C21.2 3.88312 21.1219 4.12515 20.9514 4.29562L20.3831 4.86395L22.5762 7.49568C22.8245 7.79367 22.8046 8.23186 22.5303 8.50615L21.4777 9.55878C21.337 9.69944 21.1463 9.77845 20.9473 9.77845C20.7537 9.77844 20.5678 9.70356 20.4284 9.56985C20.4248 9.56674 20.4149 9.55833 20.3987 9.54617C20.3647 9.52071 20.3041 9.47954 20.2172 9.43607C20.0458 9.35035 19.7652 9.2521 19.3685 9.25213C18.829 9.25217 18.3912 9.06767 18.0578 8.84133C18.0258 9.26597 18.0132 9.72476 18.0132 10.0811L18.0132 10.1391C18.0132 10.9289 18.0132 11.5039 17.9394 12.006C17.8673 12.4959 17.7286 12.903 17.4993 13.3866L18.0113 20.5539C18.0261 20.7615 17.9539 20.966 17.8121 21.1184C17.6702 21.2708 17.4714 21.3573 17.2632 21.3573H15.6842C15.314 21.3573 14.9992 21.0872 14.9429 20.7214L14.0433 14.8736C12.4463 15.455 10.8796 15.1942 9.82975 14.8056C9.68539 15.072 9.50666 15.3057 9.34156 15.495C9.11269 15.7574 8.85937 15.9916 8.62683 16.1813L9.57425 20.4446C9.62359 20.6667 9.56948 20.8992 9.42714 21.0766C9.28479 21.2541 9.06959 21.3573 8.8421 21.3573H6.73684C6.38532 21.3573 6.08096 21.1132 6.0047 20.77L4.95207 16.0332C4.92681 15.9195 4.92836 15.8015 4.9566 15.6886L5.38521 13.9742C4.95601 13.4634 4.71357 12.9618 4.57796 12.555C4.49639 12.3103 4.45396 12.1015 4.43188 11.9469C4.42083 11.8696 4.41485 11.8056 4.41161 11.7571C4.41 11.7329 4.40907 11.7125 4.40854 11.6962L4.40802 11.6749L4.40793 11.6666L4.4079 11.6631L4.4079 11.6615C4.4079 11.6604 5.6408 11.6599 4.4079 11.6599C4.4079 9.70931 4.91805 8.42468 5.81027 7.71706C6.70082 7.01077 7.76889 7.03947 8.52183 7.25459C8.96994 7.38262 9.82521 7.50926 10.7072 7.53628C11.1426 7.54962 11.5647 7.53793 11.9292 7.49523C12.1381 7.47076 12.3117 7.43789 12.4504 7.40073C13.3598 4.72264 14.8486 3.32744 16.4701 2.77857ZM18.4575 7.10858C18.4584 7.11033 18.461 7.11518 18.4653 7.12269C18.4742 7.13823 18.4899 7.16454 18.5122 7.19801C18.5577 7.2662 18.6259 7.35687 18.7145 7.44554C18.8959 7.62694 19.1111 7.75215 19.3684 7.75213C19.9969 7.75208 20.4905 7.90352 20.8428 8.07232L20.9854 7.92979L18.7923 5.29806C18.5439 5.00006 18.5638 4.56188 18.8381 4.28759L19.0407 4.08494C18.4084 3.95909 17.6734 3.95483 16.951 4.19938C15.818 4.58292 14.5582 5.6331 13.7695 8.19638C13.7092 8.39228 13.5714 8.55497 13.388 8.64664C13.0111 8.8351 12.5494 8.93284 12.1037 8.98504C11.6459 9.03866 11.1468 9.05045 10.6612 9.03557C9.70111 9.00616 8.71427 8.8696 8.10975 8.69688C7.63462 8.56113 7.12375 8.58983 6.74237 8.89231C6.36332 9.19293 5.9095 9.9238 5.9079 11.6508C5.90798 11.6524 5.90811 11.6546 5.90829 11.6573C5.90917 11.6706 5.91141 11.697 5.91681 11.7348C5.92762 11.8105 5.95098 11.9306 6.00099 12.0807C6.10014 12.3781 6.30616 12.8002 6.74086 13.2349C6.92714 13.4212 7.00203 13.6915 6.93813 13.9471L6.45476 15.8806L7.33847 19.8573H7.90714L7.05733 16.0332C6.99014 15.7308 7.11573 15.4182 7.37345 15.2464C7.59197 15.1008 7.93354 14.8273 8.21107 14.5091C8.51235 14.1636 8.61842 13.9025 8.61842 13.7652C8.61842 13.495 8.76377 13.2457 8.9989 13.1126C9.23403 12.9794 9.52259 12.9831 9.75429 13.1221C10.4991 13.569 12.4673 14.1891 14.2457 13.1221C14.4599 12.9936 14.7241 12.9801 14.9503 13.0863C15.1764 13.1924 15.3349 13.4042 15.3729 13.6512L16.3276 19.8573H16.4577L15.9888 13.2925C15.9792 13.1583 16.0059 13.024 16.066 12.9037C16.3076 12.4204 16.405 12.1304 16.4554 11.7877C16.5113 11.4074 16.5132 10.9456 16.5132 10.0811C16.5132 9.54111 16.5397 8.73927 16.6253 8.11138C16.665 7.81993 16.7285 7.47233 16.8527 7.21203C16.9025 7.10781 17.0488 6.82348 17.379 6.6977C17.8198 6.52975 18.1691 6.76851 18.3198 6.91922C18.3753 6.97476 18.4218 7.03866 18.4575 7.10858Z" fill="#333333"/>
<path d="M18.25 5.55005C18.25 5.96426 17.9142 6.30005 17.5 6.30005C17.0858 6.30005 16.75 5.96426 16.75 5.55005C16.75 5.13584 17.0858 4.80005 17.5 4.80005C17.9142 4.80005 18.25 5.13584 18.25 5.55005Z" fill="#333333"/>
</svg>
