<svg width="24" height="24" viewBox="0 0 24 24" fill="none" xmlns="http://www.w3.org/2000/svg">
<path d="M5.25 9.99999C6.05 5.99999 10.9167 5.33332 13.25 5.49999C16.7361 5.49999 18.4499 7.27231 19.0534 8.5L22 8L19.8975 11.152C20.4264 12.9486 21.6494 13.1502 22.25 13C22.25 13.8 22 15 22 15C21.1356 15.6483 19.8187 16.0339 18.6329 16.2515C18.4072 16.2929 18.7122 18.4701 18.5 18.5C18.2819 18.5307 17.5472 16.4138 17.352 16.4337C16.8881 16.4811 16.5012 16.5 16.25 16.5V19.5H15.25L14.25 16.5C13.4711 16.6298 12.7063 16.6578 12 16.625C11.6506 16.6088 11.8154 19.541 11.5 19.5C11.2986 19.4738 10.9504 18.526 10.6291 17.6791L10 16.3639C9.45792 16.246 9.02558 16.1102 8.75 16C7.95 16.8 7.75 18.6667 7.75 19.5H6.75C4.35 17.5 4.75 12.3333 5.25 9.99999Z" fill="#EFA3A3"/>
<path fill-rule="evenodd" clip-rule="evenodd" d="M18.5307 15.5127C18.9268 15.3916 19.3461 15.6145 19.4672 16.0106L20.4672 19.2807C20.5367 19.5081 20.4943 19.755 20.3529 19.9461C20.2115 20.1373 19.9878 20.25 19.75 20.25H18.75C18.6336 20.25 18.5187 20.2229 18.4146 20.1708C18.0573 19.9922 17.7874 19.6947 17.588 19.411C17.3827 19.1189 17.2121 18.7837 17.0726 18.4568C16.794 17.8037 16.6056 17.1025 16.5146 16.6471C16.4333 16.2409 16.6967 15.8458 17.1029 15.7646C17.5091 15.6833 17.9042 15.9468 17.9854 16.3529C18.061 16.7309 18.2226 17.3297 18.4523 17.8682C18.468 17.9049 18.4838 17.9409 18.4997 17.9762L18.0328 16.4493C17.9116 16.0532 18.1346 15.6339 18.5307 15.5127Z" fill="#333333"/>
<path fill-rule="evenodd" clip-rule="evenodd" d="M9.6267 15.7602C10.0353 15.6921 10.4217 15.9681 10.4898 16.3767C10.5675 16.8432 10.7307 17.5353 10.9572 18.0925C11.072 18.3746 11.1857 18.5784 11.2836 18.6988C11.3022 18.7217 11.3174 18.7383 11.3291 18.75H11.3542L11.0117 16.8318C10.9389 16.4241 11.2104 16.0345 11.6182 15.9617C12.0259 15.8889 12.4155 16.1604 12.4883 16.5682L12.9883 19.3682C13.0273 19.5867 12.9676 19.8113 12.8251 19.9815C12.6826 20.1517 12.472 20.25 12.25 20.25H11.25C10.7164 20.25 10.3413 19.9177 10.1196 19.6449C9.88721 19.3591 9.70716 19.0003 9.56775 18.6575C9.28598 17.9647 9.09911 17.1568 9.0102 16.6233C8.9421 16.2147 9.21812 15.8283 9.6267 15.7602ZM11.3582 18.7751C11.3582 18.7752 11.3565 18.7743 11.3532 18.7717C11.3566 18.7736 11.3582 18.7749 11.3582 18.7751Z" fill="#333333"/>
<path fill-rule="evenodd" clip-rule="evenodd" d="M13.2766 4.74998C17.0415 4.75909 19.0031 6.69755 19.7265 8.16911C19.9092 8.54085 19.756 8.99032 19.3843 9.17305C19.0125 9.35577 18.563 9.20255 18.3803 8.83082C17.8984 7.85046 16.4401 6.24995 13.25 6.24995C13.2322 6.24995 13.2144 6.24932 13.1966 6.24805C12.1124 6.17061 10.4318 6.29022 8.95449 6.88344C7.49261 7.47046 6.31965 8.47603 5.98545 10.147L5.98343 10.1571C5.74509 11.2694 5.52934 13.0713 5.66041 14.8189C5.78511 16.4815 6.20995 17.9144 7.03709 18.7467C7.06998 18.3865 7.12718 17.9804 7.21808 17.5738C7.37527 16.8708 7.66267 16.0266 8.21968 15.4696C8.43182 15.2575 8.74999 15.1922 9.02855 15.3036C9.76363 15.5976 11.8901 16.1329 14.1267 15.7602C14.4907 15.6995 14.8448 15.9127 14.9615 16.2628L15.5 17.8783V16.5C15.5 16.0858 15.8358 15.75 16.25 15.75C16.6985 15.75 17.6862 15.6803 18.7513 15.4648C19.7177 15.2694 20.6589 14.971 21.3213 14.5563C21.3402 14.4514 21.3621 14.3241 21.384 14.1842C21.4061 14.043 21.4273 13.8939 21.4454 13.7451C21.1931 13.696 20.931 13.6041 20.6739 13.4567C20.0295 13.0873 19.4866 12.4119 19.1781 11.3638C19.0611 10.9664 19.2884 10.5495 19.6857 10.4325C20.0831 10.3155 20.5 10.5428 20.617 10.9402C20.8373 11.6886 21.1704 12.0123 21.4199 12.1553C21.6861 12.3079 21.9411 12.3041 22.0681 12.2724C22.2922 12.2163 22.5295 12.2667 22.7116 12.4088C22.8936 12.5509 23 12.769 23 13C23 13.4606 22.9297 14.0079 22.866 14.4157C22.8333 14.6249 22.8007 14.8075 22.7762 14.9382C22.764 15.0036 22.7537 15.0563 22.7463 15.0931L22.7377 15.1361L22.7353 15.1479L22.7344 15.1523C22.7344 15.1524 22.7342 15.1529 22 15L22.7344 15.1523C22.6972 15.331 22.596 15.4905 22.45 15.6C21.5127 16.303 20.1899 16.7043 19.0487 16.9351C18.292 17.0881 17.5663 17.1755 17 17.2177V19.5C17 19.9142 16.6642 20.25 16.25 20.25H15.25C14.9272 20.25 14.6406 20.0434 14.5385 19.7371L13.7348 17.3261C11.8242 17.5261 10.0659 17.2002 9.0293 16.8882C8.89201 17.1487 8.77283 17.4946 8.68193 17.9011C8.5456 18.5109 8.50001 19.1302 8.50001 19.5C8.50001 19.9142 8.16422 20.25 7.75001 20.25H6.75001C6.57456 20.25 6.40466 20.1885 6.26987 20.0761C4.82462 18.8718 4.30556 16.8103 4.16461 14.9311C4.02087 13.0145 4.25437 11.0691 4.5156 9.84774C4.98281 7.52193 6.64203 6.1956 8.39554 5.49147C10.1225 4.79799 12.0269 4.66452 13.2766 4.74998Z" fill="#333333"/>
<path fill-rule="evenodd" clip-rule="evenodd" d="M6.53361 4.22275C6.97257 4.64682 7.14239 5.2942 6.96152 5.8368C6.93603 5.91328 6.89837 5.98514 6.85001 6.04963C6.34472 6.72335 5.67257 6.97056 5.00456 6.99374C5.17816 7.44983 5.456 8.01394 5.88601 8.70196C6.10554 9.05321 5.99876 9.51592 5.64751 9.73545C5.29625 9.95499 4.83354 9.84821 4.61401 9.49695C3.91249 8.37453 3.50909 7.43924 3.34035 6.66166C2.86273 6.46618 2.41765 6.20551 2.05179 5.93721C1.66954 5.65689 1.3075 5.31982 1.10689 4.98547C0.893776 4.63028 1.00895 4.16959 1.36413 3.95647C1.71932 3.74336 2.18002 3.85854 2.39313 4.21372C2.44251 4.29603 2.61798 4.4923 2.93885 4.72761C3.07308 4.82606 3.22123 4.92282 3.37801 5.01276C3.58896 4.40756 4.03082 4.01739 4.53777 3.87996C5.33087 3.62321 6.04879 3.75439 6.53361 4.22275ZM4.79719 5.49684C5.09235 5.51139 5.32385 5.44326 5.49685 5.30715C5.49509 5.30522 5.49327 5.30335 5.49141 5.30155C5.47732 5.28795 5.44934 5.26668 5.38751 5.25609C5.32189 5.24486 5.19394 5.24226 4.98718 5.31118C4.96896 5.31725 4.95051 5.32262 4.93188 5.32728C4.92283 5.32954 4.89121 5.34064 4.85623 5.38533C4.84027 5.40573 4.81772 5.44082 4.79719 5.49684Z" fill="#333333"/>
<path fill-rule="evenodd" clip-rule="evenodd" d="M21.8032 6.2519C22.1058 6.2734 22.3656 6.47506 22.4615 6.76284C22.6661 7.3767 22.7895 8.34108 22.491 9.29828C22.1785 10.3005 21.4191 11.2342 19.9872 11.7115C19.5942 11.8425 19.1695 11.6301 19.0385 11.2372C18.9075 10.8442 19.1199 10.4195 19.5128 10.2885C20.4809 9.9658 20.8882 9.39956 21.059 8.85174C21.0774 8.79274 21.0932 8.73331 21.1066 8.67375C20.6905 8.93444 20.2726 9.11637 19.9872 9.21152C19.2005 9.47374 19 10.1934 19 10.5C19 10.9142 18.6642 11.25 18.25 11.25C17.8358 11.25 17.5 10.9142 17.5 10.5C17.5 9.80664 17.8995 8.32628 19.5128 7.7885C19.7063 7.72401 20.047 7.57628 20.3762 7.36038C20.7156 7.1377 20.9648 6.89345 21.0792 6.6646C21.2148 6.39328 21.5006 6.23039 21.8032 6.2519Z" fill="#333333"/>
<path d="M19 12.75C19 13.1642 18.6642 13.5 18.25 13.5C17.8358 13.5 17.5 13.1642 17.5 12.75C17.5 12.3358 17.8358 12 18.25 12C18.6642 12 19 12.3358 19 12.75Z" fill="#333333"/>
</svg>
