<svg width="24" height="24" viewBox="0 0 24 24" fill="none" xmlns="http://www.w3.org/2000/svg">
<path d="M14.25 4.25C14.25 5.49264 13.2426 6.5 12 6.5C10.7574 6.5 9.75 5.49264 9.75 4.25C9.75 3.00736 10.7574 2 12 2C13.2426 2 14.25 3.00736 14.25 4.25Z" fill="#B1D1E9"/>
<path fill-rule="evenodd" clip-rule="evenodd" d="M12 2.75C11.1716 2.75 10.5 3.42157 10.5 4.25C10.5 5.07843 11.1716 5.75 12 5.75C12.8284 5.75 13.5 5.07843 13.5 4.25C13.5 3.42157 12.8284 2.75 12 2.75ZM9 4.25C9 2.59315 10.3431 1.25 12 1.25C13.6569 1.25 15 2.59315 15 4.25C15 5.90685 13.6569 7.25 12 7.25C10.3431 7.25 9 5.90685 9 4.25Z" fill="#333333"/>
<path d="M6.5 13V14.75C6.5 15.4404 7.05964 16 7.75 16C8.44036 16 9 15.4404 9 14.75V20.5C9 21.3284 9.67157 22 10.5 22C11.3284 22 12 21.3284 12 20.5C12 21.3284 12.6716 22 13.5 22C14.3284 22 15 21.3284 15 20.5V14.75C15 15.4404 15.5596 16 16.25 16C16.9404 16 17.5 15.4404 17.5 14.75V13V12.5V11.5C17.5 9.84315 16.1569 8.5 14.5 8.5H9.5C7.84315 8.5 6.5 9.84315 6.5 11.5V12.5V13Z" fill="#B1D1E9"/>
<path fill-rule="evenodd" clip-rule="evenodd" d="M5.75 11.5C5.75 9.42893 7.42893 7.75 9.5 7.75H14.5C16.5711 7.75 18.25 9.42893 18.25 11.5V14.75C18.25 15.8546 17.3546 16.75 16.25 16.75C16.0774 16.75 15.9098 16.7281 15.75 16.687V20.5C15.75 21.7426 14.7426 22.75 13.5 22.75C12.9237 22.75 12.3981 22.5334 12 22.1771C11.6019 22.5334 11.0763 22.75 10.5 22.75C9.25736 22.75 8.25 21.7426 8.25 20.5V16.687C8.09019 16.7281 7.92265 16.75 7.75 16.75C6.64543 16.75 5.75 15.8546 5.75 14.75V11.5ZM9.75 20.5C9.75 20.9142 10.0858 21.25 10.5 21.25C10.9142 21.25 11.25 20.9142 11.25 20.5V16C11.25 15.5858 11.5858 15.25 12 15.25C12.4142 15.25 12.75 15.5858 12.75 16V20.5C12.75 20.9142 13.0858 21.25 13.5 21.25C13.9142 21.25 14.25 20.9142 14.25 20.5V11.75C14.25 11.3358 14.5858 11 15 11C15.4142 11 15.75 11.3358 15.75 11.75V14.75C15.75 15.0261 15.9739 15.25 16.25 15.25C16.5261 15.25 16.75 15.0261 16.75 14.75V11.5C16.75 10.2574 15.7426 9.25 14.5 9.25H9.5C8.25736 9.25 7.25 10.2574 7.25 11.5V14.75C7.25 15.0261 7.47386 15.25 7.75 15.25C8.02614 15.25 8.25 15.0261 8.25 14.75V11.75C8.25 11.3358 8.58579 11 9 11C9.41421 11 9.75 11.3358 9.75 11.75V20.5Z" fill="#333333"/>
</svg>
