<svg width="24" height="24" viewBox="0 0 24 24" fill="none" xmlns="http://www.w3.org/2000/svg">
<path d="M7.49615 8.16559C7.03322 3.07332 10.3895 1.80026 12.1255 2.37892C10.9681 4.11491 11.7397 4.69359 12.1255 4.69358H15.5975C18.4908 4.69358 17.7192 7.20114 16.7548 8.16559C20.2268 8.74425 20.2268 11.6376 19.6481 12.7949C24.4941 16.7167 20.8055 21.4749 17.9121 21.4749H5.76014C0.768662 20.7673 1.34742 14.402 4.02414 12.7949C3.56121 9.09145 6.14593 8.16559 7.49615 8.16559Z" fill="#B6804E"/>
<path fill-rule="evenodd" clip-rule="evenodd" d="M8.48946 2.58374C9.68037 1.5309 11.2312 1.29024 12.3627 1.66739C12.5844 1.74131 12.759 1.9144 12.8349 2.1355C12.9108 2.35661 12.8792 2.60044 12.7495 2.79493C12.3033 3.46427 12.2596 3.81601 12.2651 3.94356H15.5975C16.4176 3.94356 17.0989 4.11992 17.5969 4.50993C18.1142 4.91497 18.336 5.47324 18.3712 6.01962C18.4053 6.54725 18.2696 7.07322 18.0744 7.51769C18.0458 7.58301 18.0153 7.6477 17.9832 7.71153C19.2736 8.18258 20.049 9.02805 20.4205 9.994C20.765 10.8897 20.7401 11.8352 20.534 12.5659C21.5934 13.5246 22.2448 14.5538 22.5483 15.596C22.8899 16.7694 22.7741 17.9047 22.3779 18.8863C21.6085 20.7922 19.7222 22.2249 17.9121 22.2249H5.76014C5.72492 22.2249 5.68974 22.2224 5.65487 22.2175C4.2393 22.0168 3.16677 21.4029 2.43238 20.5285C1.7063 19.664 1.35057 18.5932 1.26877 17.5297C1.18706 16.4674 1.37514 15.3792 1.77347 14.4375C2.10355 13.6571 2.59444 12.9406 3.23584 12.4312C3.1147 10.6256 3.68133 9.35679 4.57326 8.53872C5.23043 7.93596 6.01493 7.62352 6.70601 7.49259C6.64955 5.17446 7.38296 3.56194 8.48946 2.58374ZM9.48297 3.70754C8.70734 4.39324 8.02734 5.72458 8.24307 8.09767C8.26215 8.30753 8.19207 8.51573 8.04997 8.67133C7.90787 8.82693 7.70687 8.91557 7.49615 8.91557C6.96008 8.91557 6.1738 9.1061 5.58716 9.64416C5.03832 10.1476 4.56171 11.0488 4.76835 12.7019C4.80517 12.9965 4.66474 13.2851 4.4102 13.4379C3.91297 13.7364 3.46433 14.2904 3.15497 15.0218C2.84794 15.7477 2.70141 16.5964 2.76436 17.4147C2.82721 18.2319 3.09541 18.9856 3.58101 19.5638C4.05082 20.1232 4.76249 20.5651 5.81482 20.7249H17.9121C18.9954 20.7249 20.4001 19.7785 20.9869 18.3248C21.2687 17.6267 21.3473 16.837 21.1081 16.0153C20.8683 15.1919 20.2931 14.2817 19.1763 13.3779C18.9027 13.1564 18.8199 12.7744 18.9773 12.4595C19.1788 12.0565 19.3015 11.2631 19.0205 10.5325C18.7646 9.86732 18.1357 9.15606 16.6315 8.90537C16.3544 8.85918 16.1263 8.662 16.0406 8.39446C15.9548 8.12692 16.0258 7.8339 16.2245 7.63524C16.3931 7.46661 16.5718 7.20904 16.701 6.9147C16.8313 6.61775 16.8885 6.33599 16.8744 6.11619C16.8614 5.91512 16.7938 5.78622 16.6722 5.69095C16.5313 5.58065 16.224 5.44356 15.5975 5.44356H12.1255C11.6076 5.44357 11.0099 5.08448 10.8221 4.38049C10.7145 3.97683 10.7566 3.52362 10.9414 3.0245C10.4655 3.09146 9.94323 3.30064 9.48297 3.70754Z" fill="#333333"/>
</svg>
