<svg width="24" height="24" viewBox="0 0 24 24" fill="none" xmlns="http://www.w3.org/2000/svg">
<path fill-rule="evenodd" clip-rule="evenodd" d="M1.75 21C1.75 20.5858 2.08579 20.25 2.5 20.25H21.5C21.9142 20.25 22.25 20.5858 22.25 21C22.25 21.4142 21.9142 21.75 21.5 21.75H2.5C2.08579 21.75 1.75 21.4142 1.75 21Z" fill="#333333"/>
<path d="M10.5 16.5C10.9727 18.3649 9.15399 20.5135 8.04897 21H14.5C15.6667 19.8333 17 16 15 14C13 12 11.4997 12 10.9997 10.5C10.4997 9 12.5832 3 12.5832 3C12.5832 3 9.99998 5 8.99969 6.5C7.9994 8 7.50003 10.5 8.04897 12.2432C8.59792 13.9865 10.0273 14.6351 10.5 16.5Z" fill="#673D1B"/>
<path fill-rule="evenodd" clip-rule="evenodd" d="M13.2917 3.24603C13.4006 2.93247 13.2904 2.58464 13.0209 2.39094C12.7513 2.19725 12.3865 2.20377 12.1241 2.40697L12.5832 3C12.1241 2.40697 12.1241 2.40691 12.1241 2.40697L12.1214 2.40906L12.1149 2.41404L12.0914 2.43245C12.071 2.44839 12.0416 2.47159 12.004 2.50143C11.9288 2.5611 11.8211 2.64742 11.689 2.75548C11.4252 2.97134 11.0626 3.27526 10.6673 3.62778C9.89408 4.31744 8.93372 5.24713 8.37572 6.08389C7.80755 6.9359 7.40042 8.03798 7.20472 9.15047C7.00952 10.2601 7.01263 11.4492 7.33361 12.4685C7.63795 13.435 8.17827 14.1154 8.63328 14.6884C8.66082 14.7231 8.68805 14.7574 8.71489 14.7913C9.194 15.397 9.57884 15.9182 9.77303 16.6843C9.93665 17.3298 9.71544 18.1136 9.23508 18.8616C8.75275 19.6127 8.12345 20.1477 7.74678 20.3136C7.42215 20.4565 7.24202 20.8073 7.31505 21.1544C7.38807 21.5015 7.69428 21.75 8.04898 21.75H14.5C14.6989 21.75 14.8897 21.671 15.0303 21.5303C15.7525 20.8082 16.4296 19.3997 16.677 17.9376C16.9256 16.4687 16.7753 14.7147 15.5303 13.4697C14.5829 12.5223 13.7285 11.9871 13.0801 11.5809C12.9966 11.5286 12.9164 11.4784 12.84 11.4297C12.1694 11.0031 11.8728 10.7476 11.7112 10.2628C11.6903 10.2001 11.6656 10.0464 11.6739 9.76929C11.6817 9.50587 11.717 9.18332 11.7766 8.81499C11.8956 8.0789 12.1015 7.21692 12.3277 6.3841C12.5531 5.55441 12.7944 4.76877 12.9798 4.18954C13.0723 3.90028 13.1507 3.66336 13.2057 3.49918C13.2333 3.41711 13.2549 3.35326 13.2696 3.31021L13.2863 3.26155L13.2917 3.24603ZM11.0768 5.28955C10.5009 5.83827 9.95388 6.42096 9.62368 6.91611C9.19156 7.5641 8.84886 8.46202 8.68203 9.41035C8.5147 10.3615 8.53638 11.294 8.76435 12.018C8.9835 12.7139 9.36678 13.1981 9.84499 13.8022C9.86033 13.8216 9.87577 13.8411 9.8913 13.8607C10.3823 14.4814 10.9485 15.2169 11.227 16.3157C11.5361 17.5351 11.0843 18.758 10.4972 19.6722C10.3688 19.8722 10.2284 20.0659 10.0799 20.25H14.1597C14.5654 19.721 15.0162 18.7617 15.198 17.6874C15.4078 16.448 15.2247 15.2853 14.4697 14.5303C13.6479 13.7085 12.9286 13.257 12.2859 12.8536C12.2008 12.8002 12.1171 12.7477 12.0347 12.6953C11.3301 12.2469 10.6266 11.7524 10.2882 10.7372C10.1841 10.4249 10.1645 10.0629 10.1745 9.72485C10.1849 9.37304 10.2303 8.98074 10.2958 8.57564C10.4268 7.76485 10.648 6.84558 10.8802 5.9909C10.945 5.75207 11.0111 5.5171 11.0768 5.28955Z" fill="#333333"/>
<path d="M16.8472 14.0478C16.8472 14.0478 17.7725 14.4691 18.9532 14.0128C20.1338 13.5565 20.4373 11.3285 20.4373 11.3285C20.4373 11.3285 18.9767 10.3848 17.5629 10.7514C16.1491 11.118 16.1343 12.691 16.1343 12.691" fill="#629C15"/>
<path fill-rule="evenodd" clip-rule="evenodd" d="M20.4373 11.3285C20.6851 11.3622 20.685 11.3623 20.685 11.3624L20.6847 11.3648L20.6839 11.3706L20.6808 11.3914C20.6781 11.4092 20.674 11.4349 20.6684 11.4674C20.6573 11.5323 20.6401 11.6248 20.6158 11.7368C20.5673 11.9602 20.4896 12.2644 20.3729 12.585C20.2567 12.9044 20.0988 13.2482 19.8868 13.5459C19.6751 13.843 19.3993 14.1084 19.0433 14.246C18.407 14.4919 17.8375 14.5019 17.4258 14.4494C17.2202 14.4232 17.0536 14.3814 16.9367 14.3454C16.8782 14.3275 16.832 14.3109 16.7994 14.2983C16.7831 14.292 16.7702 14.2868 16.7609 14.2828L16.7495 14.278L16.7459 14.2764L16.7446 14.2758C16.7445 14.2757 16.7436 14.2753 16.8472 14.0478L16.7436 14.2753C16.6179 14.2181 16.5625 14.0699 16.6197 13.9442C16.6768 13.8187 16.8249 13.7632 16.9505 13.8201C16.9501 13.82 16.9504 13.8201 16.9505 13.8201L16.9549 13.822C16.9597 13.824 16.9678 13.8274 16.9791 13.8317C17.0017 13.8404 17.037 13.8532 17.0838 13.8676C17.1773 13.8963 17.3158 13.9313 17.4891 13.9534C17.8353 13.9975 18.3187 13.99 18.863 13.7796C19.0974 13.689 19.3022 13.5048 19.4795 13.2558C19.6564 13.0074 19.7958 12.7087 19.9031 12.414C20.0099 12.1205 20.0819 11.8392 20.1272 11.6307C20.1415 11.5645 20.1531 11.506 20.1623 11.4571C20.1355 11.4423 20.1052 11.426 20.0716 11.4085C19.9207 11.33 19.7049 11.2287 19.4475 11.1384C18.9278 10.956 18.2642 10.8278 17.6257 10.9934C17.0169 11.1513 16.71 11.5635 16.5497 11.9537C16.4689 12.1503 16.4272 12.3381 16.4058 12.4773C16.3952 12.5466 16.3898 12.6028 16.387 12.6407C16.3857 12.6597 16.385 12.674 16.3846 12.683L16.3843 12.6924L16.3843 12.6937C16.3843 12.6936 16.3843 12.6937 16.3843 12.6937C16.3826 12.8315 16.2698 12.9422 16.1319 12.9409C15.9939 12.9396 15.883 12.8267 15.8843 12.6886L16.1343 12.6909C15.8843 12.6886 15.8843 12.6887 15.8843 12.6886L15.8843 12.6874L15.8843 12.6857L15.8844 12.6805L15.885 12.6634C15.8855 12.6492 15.8865 12.6294 15.8883 12.6046C15.8919 12.5551 15.8987 12.4855 15.9116 12.4016C15.9372 12.2344 15.9876 12.0061 16.0872 11.7636C16.2877 11.2757 16.6952 10.7181 17.5002 10.5094C18.2754 10.3084 19.0491 10.4687 19.6131 10.6666C19.8975 10.7664 20.1353 10.878 20.3024 10.965C20.3861 11.0085 20.4524 11.0461 20.4985 11.0731C20.5215 11.0866 20.5394 11.0975 20.552 11.1053L20.5667 11.1145L20.5709 11.1172L20.5722 11.118C20.5723 11.118 20.573 11.1185 20.4373 11.3285ZM20.4373 11.3285L20.5722 11.118C20.6537 11.1706 20.6981 11.2663 20.685 11.3624L20.4373 11.3285Z" fill="#333333"/>
<path fill-rule="evenodd" clip-rule="evenodd" d="M19.6842 11.7461C19.6362 11.6166 19.4923 11.5506 19.3629 11.5987C19.1082 11.6932 18.8668 11.8428 18.5927 12.0241C18.5261 12.0681 18.4572 12.1142 18.385 12.1627C18.1561 12.3161 17.8935 12.4921 17.5658 12.6929C17.1533 12.9031 16.6185 13.133 16.1817 13.3122C15.9626 13.402 15.7698 13.4785 15.6318 13.5324C15.5628 13.5594 15.5075 13.5807 15.4696 13.5953L15.4262 13.6119L15.4123 13.6172C15.2832 13.6661 15.2173 13.8107 15.2661 13.9398C15.315 14.069 15.4593 14.134 15.5884 14.0852L15.6043 14.0792L15.6489 14.0621C15.6876 14.0472 15.7438 14.0255 15.8138 13.9981C15.9538 13.9434 16.1493 13.8659 16.3715 13.7748C16.8141 13.5932 17.369 13.355 17.8018 13.1338C17.8075 13.1309 17.8131 13.1278 17.8185 13.1244C18.1599 12.9155 18.4366 12.7301 18.6684 12.5747C18.7391 12.5273 18.8056 12.4827 18.8685 12.4411C19.1426 12.2598 19.3416 12.1399 19.5368 12.0674C19.6663 12.0194 19.7323 11.8755 19.6842 11.7461Z" fill="#333333"/>
<path fill-rule="evenodd" clip-rule="evenodd" d="M17.9107 11.3144C17.7922 11.2434 17.6387 11.2819 17.5678 11.4004C17.3066 11.8363 17.2579 12.306 17.2185 12.6863C17.2101 12.7673 17.2021 12.8442 17.1926 12.9159C17.1744 13.0527 17.2706 13.1784 17.4075 13.1966C17.5443 13.2148 17.67 13.1186 17.6882 12.9817C17.701 12.8854 17.7111 12.7918 17.721 12.7004C17.7613 12.3268 17.7977 11.9894 17.9967 11.6573C18.0676 11.5388 18.0291 11.3853 17.9107 11.3144Z" fill="#333333"/>
<path fill-rule="evenodd" clip-rule="evenodd" d="M19.2385 12.9653C19.1575 12.8535 19.0012 12.8285 18.8894 12.9094C18.6965 13.0491 18.5064 13.0485 18.3543 13.0019C18.2759 12.9779 18.2108 12.9422 18.1668 12.9098C18.1487 12.8965 18.1366 12.8854 18.1296 12.8782C18.0803 12.7675 17.9563 12.7061 17.8357 12.7389C17.7025 12.7751 17.6238 12.9124 17.66 13.0457C17.6794 13.1171 17.7218 13.1721 17.751 13.2052C17.7849 13.2435 17.8257 13.2795 17.8698 13.3121C17.9582 13.3773 18.074 13.439 18.2079 13.48C18.4802 13.5634 18.8395 13.5628 19.1826 13.3144C19.2944 13.2335 19.3195 13.0772 19.2385 12.9653ZM18.1223 12.8699C18.1223 12.8699 18.1228 12.8707 18.1242 12.8724C18.1231 12.8707 18.1224 12.8699 18.1223 12.8699Z" fill="#333333"/>
<path d="M7.99314 5.57867C7.99314 5.57867 7.7612 4.58874 6.67853 3.93302C5.59586 3.2773 3.64677 4.39846 3.64677 4.39846C3.64677 4.39846 3.79232 6.13134 4.94642 7.02644C6.10052 7.92154 7.35472 6.97212 7.35472 6.97212" fill="#629C15"/>
<path fill-rule="evenodd" clip-rule="evenodd" d="M3.64676 4.39843C3.52211 4.18173 3.52224 4.18165 3.52224 4.18165L3.52437 4.18043L3.52945 4.17755L3.54781 4.1673C3.5636 4.15855 3.5864 4.1461 3.61553 4.13066C3.67375 4.09979 3.7574 4.05689 3.86093 4.00769C4.06746 3.90956 4.35573 3.78515 4.68076 3.68161C5.0046 3.57846 5.3732 3.49333 5.73844 3.47927C6.10297 3.46523 6.48156 3.52143 6.80803 3.71915C7.39153 4.07255 7.74745 4.51731 7.95745 4.87519C8.06236 5.05396 8.1311 5.21143 8.17405 5.32591C8.19554 5.3832 8.21064 5.42991 8.22062 5.46336C8.22562 5.4801 8.22933 5.49354 8.23193 5.50335L8.23502 5.51532L8.23597 5.51919L8.2363 5.52058C8.2363 5.52058 8.23654 5.52161 7.99371 5.57851L8.23654 5.52161C8.26804 5.65604 8.1846 5.79056 8.05017 5.82205C7.91583 5.85353 7.78141 5.77022 7.7498 5.63596L7.7486 5.63138C7.74728 5.62638 7.74495 5.61791 7.74149 5.60629C7.73455 5.58305 7.72308 5.54729 7.70591 5.50154C7.67154 5.40991 7.61463 5.27891 7.52621 5.12824C7.34958 4.82722 7.04819 4.44916 6.54901 4.14683C6.33415 4.0167 6.0631 3.96714 5.75768 3.9789C5.45296 3.99063 5.13129 4.06285 4.83252 4.15802C4.53495 4.25281 4.26828 4.36771 4.07552 4.4593C4.01439 4.48835 3.96096 4.51492 3.91664 4.53759C3.92131 4.56779 3.92691 4.60174 3.9336 4.639C3.96368 4.8065 4.0153 5.03919 4.10111 5.29812C4.27439 5.82098 4.57834 6.42456 5.09963 6.82886C5.59659 7.2143 6.11043 7.2053 6.51727 7.09381C6.72225 7.03763 6.89648 6.95586 7.01969 6.8877C7.08099 6.85379 7.12879 6.82373 7.1605 6.80273C7.17633 6.79224 7.18808 6.78405 7.19543 6.77883L7.20308 6.77331L7.20412 6.77254C7.31418 6.68965 7.47083 6.71128 7.55404 6.8212C7.63738 6.93129 7.61569 7.08809 7.5056 7.17142L7.35471 6.97209C7.5056 7.17142 7.5056 7.17142 7.5056 7.17142L7.50467 7.17213L7.50327 7.17318L7.49908 7.17627L7.48526 7.18625C7.47367 7.1945 7.45735 7.20583 7.43664 7.21956C7.39525 7.24697 7.33605 7.2841 7.26173 7.32521C7.11372 7.40709 6.90226 7.50673 6.64943 7.57602C6.14065 7.71546 5.45034 7.73362 4.7932 7.22396C4.16039 6.73317 3.81452 6.02276 3.62649 5.45541C3.53165 5.16922 3.47476 4.91275 3.44147 4.72736C3.4248 4.63451 3.41398 4.55906 3.40726 4.50611C3.4039 4.47962 3.40156 4.45873 3.40003 4.44407L3.39831 4.42682L3.39786 4.42183L3.39772 4.42028C3.39772 4.42028 3.39764 4.41936 3.64676 4.39843ZM3.64676 4.39843L3.39772 4.42028C3.3896 4.32363 3.43816 4.23001 3.52224 4.18165L3.64676 4.39843Z" fill="#333333"/>
<path fill-rule="evenodd" clip-rule="evenodd" d="M4.41483 4.78592C4.3674 4.91559 4.43406 5.05915 4.56373 5.10659C4.63791 5.13372 4.72457 5.16431 4.82346 5.19922C5.19939 5.33193 5.75221 5.52709 6.46956 5.83246L8.53938 6.98363C8.66004 7.05074 8.81226 7.00733 8.87937 6.88666C8.94648 6.766 8.90307 6.61378 8.7824 6.54667L6.70113 5.38912C6.69351 5.38488 6.68567 5.38104 6.67765 5.37762C5.9378 5.06221 5.36158 4.85886 4.98445 4.72577C4.88834 4.69186 4.80516 4.6625 4.7355 4.63702C4.60583 4.58959 4.46226 4.65625 4.41483 4.78592Z" fill="#333333"/>
<path fill-rule="evenodd" clip-rule="evenodd" d="M5.18331 6.32552C5.15447 6.46055 5.24055 6.59339 5.37557 6.62223C5.70945 6.69354 6.09308 6.661 6.40133 6.53822C6.69929 6.41953 7.01069 6.1755 7.01069 5.78064C7.01069 5.64257 6.89876 5.53064 6.76069 5.53064C6.62262 5.53064 6.51069 5.64257 6.51069 5.78064C6.51069 5.86829 6.44174 5.98391 6.2163 6.07371C6.00115 6.15941 5.71833 6.18416 5.48001 6.13326C5.34499 6.10442 5.21215 6.1905 5.18331 6.32552Z" fill="#333333"/>
<path fill-rule="evenodd" clip-rule="evenodd" d="M5.73484 4.24441C5.63902 4.34381 5.64192 4.50208 5.74132 4.5979C5.77174 4.62722 5.7988 4.64895 5.82591 4.67072C5.87667 4.71149 5.92762 4.7524 6.00113 4.84357C6.09766 4.96329 6.205 5.14922 6.25792 5.44124C6.28253 5.5771 6.41262 5.66728 6.54848 5.64267C6.68434 5.61805 6.77452 5.48796 6.74991 5.3521C6.68134 4.97366 6.53672 4.71126 6.39037 4.52974C6.26026 4.36836 6.08612 4.23579 6.08834 4.23793C5.98893 4.1421 5.83067 4.145 5.73484 4.24441Z" fill="#333333"/>
</svg>
