<svg width="24" height="24" viewBox="0 0 24 24" fill="none" xmlns="http://www.w3.org/2000/svg">
<path fill-rule="evenodd" clip-rule="evenodd" d="M18.5303 3.46967C18.8232 3.76256 18.8232 4.23744 18.5303 4.53033C18.2267 4.834 17.421 5.4984 16.308 6.13083C15.1914 6.76535 13.7169 7.3957 12.082 7.57558L12.0204 7.58236C10.5949 7.73924 9.61762 7.84681 8.75694 7.7096C7.833 7.56232 7.09221 7.14666 6.07541 6.44834C4.42123 5.31227 2.77031 5.86358 2.25691 6.03503C2.25013 6.03729 2.24355 6.03949 2.23718 6.04162C1.84422 6.1726 1.41948 5.96023 1.28849 5.56727C1.15751 5.17432 1.36988 4.74958 1.76283 4.61859C1.77371 4.61496 1.78542 4.61104 1.79793 4.60684C2.37248 4.41405 4.65015 3.6498 6.9246 5.21186C7.9078 5.88711 8.41701 6.13648 8.99307 6.22831C9.62005 6.32825 10.377 6.25412 11.918 6.08457C13.2832 5.93437 14.5586 5.39969 15.567 4.82668C16.579 4.2516 17.2733 3.666 17.4697 3.46967C17.7626 3.17678 18.2374 3.17678 18.5303 3.46967Z" fill="#333333"/>
<path fill-rule="evenodd" clip-rule="evenodd" d="M6 5.25C6.41421 5.25 6.75 5.58579 6.75 6C6.75 6.39513 6.92912 7.11187 7.54848 7.77596C8.15469 8.42596 9.22508 9.06877 11.0746 9.25372C11.4868 9.29494 11.7875 9.66247 11.7463 10.0746C11.7051 10.4868 11.3375 10.7875 10.9254 10.7463C8.77492 10.5312 7.34531 9.75738 6.45152 8.79904C5.57088 7.8548 5.25 6.77153 5.25 6C5.25 5.58579 5.58579 5.25 6 5.25Z" fill="#333333"/>
<path fill-rule="evenodd" clip-rule="evenodd" d="M7.65808 8.52567C7.92005 8.613 8.06163 8.89616 7.97431 9.15813C7.91147 9.34662 7.84665 9.701 7.88503 10.0882C7.92287 10.4701 8.05672 10.8497 8.35352 11.1465C8.54878 11.3417 8.54878 11.6583 8.35352 11.8536C8.15826 12.0488 7.84167 12.0488 7.64641 11.8536C7.14321 11.3504 6.94373 10.73 6.8899 10.1868C6.83661 9.64903 6.92179 9.15341 7.02562 8.8419C7.11295 8.57993 7.39611 8.43835 7.65808 8.52567Z" fill="#333333"/>
<path fill-rule="evenodd" clip-rule="evenodd" d="M18.0001 14.4392C18.0001 14.7153 17.7762 14.9392 17.5001 14.9392C16.7304 14.9392 15.9606 15.6225 15.9994 16.4147C16.0129 16.6905 15.8003 16.9251 15.5245 16.9386C15.2487 16.9521 15.0141 16.7395 15.0006 16.4637C14.9287 14.9959 16.2695 13.9392 17.5001 13.9392C17.7762 13.9392 18.0001 14.1631 18.0001 14.4392Z" fill="#333333"/>
<path fill-rule="evenodd" clip-rule="evenodd" d="M13 6.5C13 6.08579 13.3358 5.75 13.75 5.75C15.3734 5.75 19.0322 6.91353 21.6556 11.6358C21.8568 11.9979 21.7263 12.4545 21.3642 12.6556C21.0021 12.8568 20.5455 12.7263 20.3444 12.3642C17.9679 8.08647 14.7933 7.25 13.75 7.25C13.3358 7.25 13 6.91421 13 6.5Z" fill="#333333"/>
<path fill-rule="evenodd" clip-rule="evenodd" d="M18.624 8.58399C18.8538 8.92864 18.7607 9.39429 18.416 9.62406C18.3361 9.67731 18.1955 9.82918 18.0732 10.141C17.9553 10.4416 17.875 10.8421 17.875 11.3125C17.875 12.2485 18.1934 13.4161 19.0857 14.5315C19.3445 14.8549 19.2921 15.3269 18.9686 15.5857C18.6452 15.8444 18.1732 15.792 17.9144 15.4685C16.8067 14.0839 16.375 12.5849 16.375 11.3125C16.375 10.6788 16.4822 10.0896 16.6768 9.5934C16.867 9.10836 17.1638 8.65606 17.584 8.37598C17.9286 8.14622 18.3943 8.23935 18.624 8.58399Z" fill="#333333"/>
<path fill-rule="evenodd" clip-rule="evenodd" d="M13.7211 3.79397C13.8349 4.19225 13.6043 4.60736 13.206 4.72115C10.6323 5.45651 10.6955 6.68953 10.7276 6.81811C10.8281 7.21995 10.5837 7.62716 10.1819 7.72762C9.78005 7.82808 9.37285 7.58376 9.27239 7.18191C8.9712 5.97716 9.76769 4.14351 12.794 3.27887C13.1922 3.16507 13.6073 3.39569 13.7211 3.79397Z" fill="#333333"/>
<path fill-rule="evenodd" clip-rule="evenodd" d="M8 16.3596C8.40518 16.3596 8.57185 16.5779 8.78903 16.6264C9.00622 16.675 9.18853 16.6884 9.37525 16.6062C9.745 16.4432 9.9704 16.2492 10.2439 15.9593C10.7508 15.4221 11 14.6834 11 13.6943C11 12.7051 10.7333 12.1939 10.3222 11.8596C9.9112 11.5252 9.67283 11.4611 9.17582 11.5252C8.67878 11.5892 8.40815 12.1233 8.00138 12.1233C7.59463 12.1233 7.09888 11.5967 6.66758 11.5252C6.23628 11.4537 6 11.5252 5.62661 11.8596C5.25322 12.1939 5 12.7146 5 13.6943C5 14.674 5.25859 15.4004 5.76545 15.9376C6.03895 16.2274 6.255 16.4432 6.62475 16.6062C6.81147 16.6884 7.00445 16.675 7.21407 16.6264C7.4237 16.5779 7.59037 16.3596 8 16.3596Z" fill="#E05954"/>
<path fill-rule="evenodd" clip-rule="evenodd" d="M6.17432 11.4434C6.2195 11.171 6.47696 10.9868 6.74938 11.032C6.93364 11.0625 7.10013 11.1365 7.23269 11.2059C7.34865 11.2666 7.46544 11.3387 7.56388 11.3995C7.57817 11.4083 7.59208 11.4169 7.60554 11.4251C7.72116 11.4962 7.81082 11.549 7.88994 11.5852C7.96652 11.6202 7.9989 11.6231 8.00128 11.6233C8.00132 11.6233 8.00135 11.6233 8.00138 11.6233C8.0037 11.623 8.04161 11.6151 8.2464 11.4547C8.25337 11.4492 8.26059 11.4436 8.26803 11.4377C8.43578 11.3057 8.72354 11.0794 9.11192 11.0293C9.3858 10.994 9.63643 11.1874 9.67172 11.4613C9.70701 11.7352 9.5136 11.9858 9.23973 12.0211C9.14832 12.0329 9.06036 12.0873 8.86311 12.2419C8.85369 12.2493 8.84353 12.2573 8.83262 12.266C8.67983 12.3875 8.38328 12.6233 8.00139 12.6233C7.79686 12.6233 7.61389 12.5585 7.47413 12.4946C7.33242 12.4298 7.19493 12.3465 7.08185 12.277C7.06647 12.2676 7.0515 12.2584 7.03689 12.2494C6.93517 12.1867 6.85116 12.1349 6.76881 12.0918C6.6744 12.0424 6.61719 12.0237 6.5858 12.0185C6.31337 11.9733 6.12915 11.7159 6.17432 11.4434ZM7.60183 17.0061C7.53799 17.0399 7.44284 17.0867 7.32685 17.1136C7.05782 17.1759 6.78924 17.0083 6.72696 16.7392C6.66502 16.4717 6.8304 16.2046 7.09679 16.1404C7.09977 16.1392 7.11075 16.1346 7.13359 16.1225C7.13464 16.1219 7.14006 16.1189 7.14845 16.1143C7.18274 16.0953 7.26666 16.0489 7.30511 16.0293C7.47146 15.9446 7.694 15.8596 8.00001 15.8596C8.30493 15.8596 8.52647 15.9453 8.69137 16.029C8.72951 16.0484 8.7644 16.0675 8.79225 16.0829L8.8012 16.0878C8.82647 16.1017 8.84432 16.1116 8.86175 16.1207C8.88708 16.1338 8.89844 16.1382 8.90088 16.1391C9.16875 16.2006 9.33702 16.4669 9.277 16.7355C9.21678 17.005 8.94949 17.1746 8.67999 17.1144C8.56298 17.0883 8.46684 17.0424 8.40046 17.0079C8.3712 16.9927 8.34181 16.9765 8.31822 16.9634C8.31515 16.9617 8.31217 16.9601 8.30931 16.9585C8.28217 16.9436 8.26027 16.9316 8.23868 16.9207C8.16465 16.8831 8.10026 16.8596 8.00001 16.8596C7.89637 16.8596 7.83077 16.8838 7.75897 16.9204C7.73798 16.9311 7.71655 16.9428 7.6903 16.9574C7.68651 16.9595 7.6825 16.9618 7.67829 16.9641C7.65608 16.9765 7.62859 16.9919 7.60183 17.0061Z" fill="#333333"/>
<path fill-rule="evenodd" clip-rule="evenodd" d="M5.97394 11.0637C6.23848 10.9796 6.49354 10.9895 6.74939 11.0319C7.02181 11.0771 7.20602 11.3346 7.16084 11.607C7.11566 11.8794 6.85819 12.0636 6.58577 12.0185C6.41032 11.9894 6.33158 11.9993 6.27681 12.0167C6.21556 12.0362 6.12554 12.0839 5.96016 12.232C5.75445 12.4163 5.43834 12.3988 5.25413 12.1931C5.06991 11.9874 5.08734 11.6713 5.29305 11.4871C5.50106 11.3008 5.71588 11.1457 5.97394 11.0637ZM9.91952 11.0625C10.1874 11.1395 10.4115 11.2876 10.6378 11.4717C10.852 11.646 10.8844 11.9609 10.7101 12.1751C10.5358 12.3893 10.2209 12.4217 10.0067 12.2474C9.82196 12.0972 9.72133 12.046 9.64301 12.0235C9.566 12.0013 9.46125 11.9925 9.23973 12.0211C8.96586 12.0564 8.71522 11.863 8.67992 11.5891C8.64461 11.3152 8.83801 11.0646 9.11189 11.0293C9.38739 10.9938 9.65034 10.985 9.91952 11.0625Z" fill="#333333"/>
<path fill-rule="evenodd" clip-rule="evenodd" d="M9.93437 11.544C10.1086 11.3298 10.4236 11.2974 10.6378 11.4716C11.1983 11.9276 11.5 12.6027 11.5 13.6942C11.5 13.9704 11.2761 14.1942 11 14.1942C10.7239 14.1942 10.5 13.9704 10.5 13.6942C10.5 12.8075 10.2683 12.4602 10.0067 12.2474C9.79249 12.0731 9.76011 11.7582 9.93437 11.544ZM5.99908 11.5259C6.18331 11.7317 6.16589 12.0478 5.96017 12.232C5.72441 12.4431 5.5 12.8078 5.5 13.6942C5.5 13.9704 5.27614 14.1942 5 14.1942C4.72386 14.1942 4.5 13.9704 4.5 13.6942C4.5 12.6214 4.78204 11.9447 5.29305 11.487C5.49876 11.3028 5.81486 11.3202 5.99908 11.5259Z" fill="#333333"/>
<path fill-rule="evenodd" clip-rule="evenodd" d="M6.16719 16.4045C6.27853 16.1518 6.57364 16.0372 6.82634 16.1486C6.86657 16.1663 6.9313 16.1786 7.10124 16.1393C7.37026 16.077 7.63886 16.2446 7.70117 16.5136C7.76348 16.7826 7.5959 17.0512 7.32688 17.1135C7.07758 17.1712 6.75635 17.2105 6.42315 17.0637C6.17044 16.9524 6.05585 16.6572 6.16719 16.4045ZM9.8328 16.4045C9.94414 16.6572 9.82954 16.9524 9.57684 17.0637C9.24326 17.2107 8.93241 17.1708 8.67995 17.1144C8.41046 17.0541 8.24083 16.7868 8.30107 16.5173C8.36131 16.2478 8.62862 16.0782 8.89811 16.1384C9.08001 16.1791 9.1338 16.1661 9.17365 16.1486C9.42635 16.0372 9.72146 16.1518 9.8328 16.4045Z" fill="#333333"/>
<path fill-rule="evenodd" clip-rule="evenodd" d="M5.42233 15.5739C5.62319 15.3844 5.93964 15.3936 6.12914 15.5944C6.39732 15.8787 6.55516 16.0291 6.82638 16.1486C7.07908 16.26 7.19366 16.5551 7.0823 16.8078C6.97095 17.0605 6.67583 17.1751 6.42314 17.0637C5.95486 16.8574 5.6806 16.5762 5.40178 16.2807C5.21227 16.0798 5.22148 15.7634 5.42233 15.5739ZM10.587 15.5956C10.7879 15.7851 10.7971 16.1016 10.6076 16.3024C10.3091 16.6188 10.0305 16.8638 9.57688 17.0637C9.32418 17.1751 9.02906 17.0605 8.91771 16.8078C8.80636 16.5551 8.92094 16.26 9.17364 16.1486C9.45954 16.0226 9.63173 15.8795 9.88024 15.6162C10.0697 15.4153 10.3862 15.4061 10.587 15.5956Z" fill="#333333"/>
<path fill-rule="evenodd" clip-rule="evenodd" d="M5 13.1943C5.27614 13.1943 5.5 13.4181 5.5 13.6943C5.5 14.5813 5.73119 15.1727 6.12912 15.5944C6.31863 15.7953 6.30944 16.1117 6.10858 16.3012C5.90773 16.4907 5.59128 16.4815 5.40178 16.2807C4.78599 15.628 4.5 14.7665 4.5 13.6943C4.5 13.4181 4.72386 13.1943 5 13.1943ZM11 13.1943C11.2761 13.1943 11.5 13.4181 11.5 13.6943C11.5 14.7687 11.2273 15.6456 10.6076 16.3024C10.4181 16.5033 10.1016 16.5125 9.90077 16.323C9.69992 16.1334 9.69072 15.817 9.88022 15.6161C10.2743 15.1985 10.5 14.5982 10.5 13.6943C10.5 13.4181 10.7239 13.1943 11 13.1943Z" fill="#333333"/>
<path fill-rule="evenodd" clip-rule="evenodd" d="M6.80186 13.4C7.078 13.4 7.30186 13.6239 7.30186 13.9C7.30186 13.9385 7.30149 13.9753 7.30113 14.0107C7.29952 14.1715 7.2982 14.3027 7.33322 14.4274C7.35115 14.4913 7.3733 14.5274 7.39326 14.549C7.40982 14.5668 7.44307 14.595 7.52303 14.615C7.79093 14.6819 7.95381 14.9534 7.88683 15.2213C7.81986 15.4892 7.54839 15.6521 7.28049 15.5851C7.02712 15.5218 6.81872 15.3999 6.66029 15.2292C6.50527 15.0622 6.41911 14.8712 6.3704 14.6976C6.29203 14.4183 6.29797 14.115 6.30099 13.9606C6.30146 13.9366 6.30186 13.9162 6.30186 13.9C6.30186 13.6239 6.52571 13.4 6.80186 13.4Z" fill="#333333"/>
<path fill-rule="evenodd" clip-rule="evenodd" d="M15.5 20.8596C15.9052 20.8596 16.0719 21.0779 16.289 21.1264C16.5062 21.175 16.6885 21.1884 16.8753 21.1062C17.245 20.9432 17.4704 20.7492 17.7439 20.4593C18.2508 19.9221 18.5 19.1834 18.5 18.1943C18.5 17.2051 18.2333 16.6939 17.8222 16.3596C17.4112 16.0252 17.1728 15.9611 16.6758 16.0252C16.1788 16.0892 15.9082 16.6233 15.5014 16.6233C15.0946 16.6233 14.5989 16.0967 14.1676 16.0252C13.7363 15.9537 13.5 16.0252 13.1266 16.3596C12.7532 16.6939 12.5 17.2146 12.5 18.1943C12.5 19.174 12.7586 19.9004 13.2655 20.4376C13.539 20.7274 13.755 20.9432 14.1248 21.1062C14.3115 21.1884 14.5045 21.175 14.7141 21.1264C14.9237 21.0779 15.0904 20.8596 15.5 20.8596Z" fill="#E05954"/>
<path fill-rule="evenodd" clip-rule="evenodd" d="M13.6743 15.9434C13.7195 15.671 13.977 15.4868 14.2494 15.532C14.4336 15.5625 14.6001 15.6365 14.7327 15.7059C14.8486 15.7666 14.9654 15.8387 15.0639 15.8995C15.0782 15.9083 15.0921 15.9169 15.1055 15.9251C15.2212 15.9962 15.3108 16.049 15.3899 16.0852C15.4665 16.1202 15.4989 16.1231 15.5013 16.1233C15.5013 16.1233 15.5014 16.1233 15.5014 16.1233C15.5037 16.123 15.5416 16.1151 15.7464 15.9547C15.7534 15.9492 15.7606 15.9436 15.768 15.9377C15.9358 15.8057 16.2235 15.5794 16.6119 15.5293C16.8858 15.494 17.1364 15.6874 17.1717 15.9613C17.207 16.2352 17.0136 16.4858 16.7397 16.5211C16.6483 16.5329 16.5604 16.5873 16.3631 16.7419C16.3537 16.7493 16.3435 16.7573 16.3326 16.766C16.1798 16.8875 15.8833 17.1233 15.5014 17.1233C15.2969 17.1233 15.1139 17.0585 14.9741 16.9946C14.8324 16.9298 14.6949 16.8465 14.5819 16.777C14.5665 16.7676 14.5515 16.7584 14.5369 16.7494C14.4352 16.6867 14.3512 16.6349 14.2688 16.5918C14.1744 16.5424 14.1172 16.5237 14.0858 16.5185C13.8134 16.4733 13.6292 16.2159 13.6743 15.9434ZM15.1018 21.5061C15.038 21.5399 14.9428 21.5867 14.8268 21.6136C14.5578 21.6759 14.2892 21.5083 14.227 21.2392C14.165 20.9717 14.3304 20.7046 14.5968 20.6404C14.5998 20.6392 14.6107 20.6346 14.6336 20.6225C14.6346 20.6219 14.6401 20.6189 14.6484 20.6143C14.6827 20.5953 14.7667 20.5489 14.8051 20.5293C14.9715 20.4446 15.194 20.3596 15.5 20.3596C15.8049 20.3596 16.0265 20.4453 16.1914 20.529C16.2295 20.5484 16.2644 20.5675 16.2922 20.5829L16.3012 20.5878C16.3265 20.6017 16.3443 20.6116 16.3618 20.6207C16.3871 20.6338 16.3984 20.6382 16.4009 20.6391C16.6688 20.7006 16.837 20.9669 16.777 21.2355C16.7168 21.505 16.4495 21.6746 16.18 21.6144C16.063 21.5883 15.9668 21.5424 15.9005 21.5079C15.8712 21.4927 15.8418 21.4765 15.8182 21.4634C15.8151 21.4617 15.8122 21.4601 15.8093 21.4585C15.7822 21.4436 15.7603 21.4316 15.7387 21.4207C15.6647 21.3831 15.6003 21.3596 15.5 21.3596C15.3964 21.3596 15.3308 21.3838 15.259 21.4204C15.238 21.4311 15.2166 21.4428 15.1903 21.4574C15.1865 21.4595 15.1825 21.4618 15.1783 21.4641C15.1561 21.4765 15.1286 21.4919 15.1018 21.5061Z" fill="#333333"/>
<path fill-rule="evenodd" clip-rule="evenodd" d="M13.4739 15.5637C13.7385 15.4796 13.9935 15.4895 14.2494 15.5319C14.5218 15.5771 14.706 15.8346 14.6608 16.107C14.6157 16.3794 14.3582 16.5636 14.0858 16.5185C13.9103 16.4894 13.8316 16.4993 13.7768 16.5167C13.7156 16.5362 13.6255 16.5839 13.4602 16.732C13.2544 16.9163 12.9383 16.8988 12.7541 16.6931C12.5699 16.4874 12.5873 16.1713 12.7931 15.9871C13.0011 15.8008 13.2159 15.6457 13.4739 15.5637ZM17.4195 15.5625C17.6874 15.6395 17.9115 15.7876 18.1378 15.9717C18.352 16.146 18.3844 16.4609 18.2101 16.6751C18.0358 16.8893 17.7209 16.9217 17.5067 16.7474C17.322 16.5972 17.2213 16.546 17.143 16.5235C17.066 16.5013 16.9613 16.4925 16.7397 16.5211C16.4659 16.5564 16.2152 16.363 16.1799 16.0891C16.1446 15.8152 16.338 15.5646 16.6119 15.5293C16.8874 15.4938 17.1503 15.485 17.4195 15.5625Z" fill="#333333"/>
<path fill-rule="evenodd" clip-rule="evenodd" d="M17.4344 16.044C17.6086 15.8298 17.9236 15.7974 18.1378 15.9716C18.6983 16.4276 19 17.1027 19 18.1942C19 18.4704 18.7761 18.6942 18.5 18.6942C18.2239 18.6942 18 18.4704 18 18.1942C18 17.3075 17.7683 16.9602 17.5067 16.7474C17.2925 16.5731 17.2601 16.2582 17.4344 16.044ZM13.4991 16.0259C13.6833 16.2317 13.6659 16.5478 13.4602 16.732C13.2244 16.9431 13 17.3078 13 18.1942C13 18.4704 12.7761 18.6942 12.5 18.6942C12.2239 18.6942 12 18.4704 12 18.1942C12 17.1214 12.282 16.4447 12.793 15.987C12.9988 15.8028 13.3149 15.8202 13.4991 16.0259Z" fill="#333333"/>
<path fill-rule="evenodd" clip-rule="evenodd" d="M13.6672 20.9045C13.7785 20.6518 14.0736 20.5372 14.3263 20.6486C14.3666 20.6663 14.4313 20.6786 14.6012 20.6393C14.8703 20.577 15.1389 20.7446 15.2012 21.0136C15.2635 21.2826 15.0959 21.5512 14.8269 21.6135C14.5776 21.6712 14.2564 21.7105 13.9231 21.5637C13.6704 21.4524 13.5558 21.1572 13.6672 20.9045ZM17.3328 20.9045C17.4441 21.1572 17.3295 21.4524 17.0768 21.5637C16.7433 21.7107 16.4324 21.6708 16.1799 21.6144C15.9105 21.5541 15.7408 21.2868 15.8011 21.0173C15.8613 20.7478 16.1286 20.5782 16.3981 20.6384C16.58 20.6791 16.6338 20.6661 16.6736 20.6486C16.9263 20.5372 17.2215 20.6518 17.3328 20.9045Z" fill="#333333"/>
<path fill-rule="evenodd" clip-rule="evenodd" d="M12.9223 20.0739C13.1232 19.8844 13.4396 19.8936 13.6291 20.0944C13.8973 20.3787 14.0552 20.5291 14.3264 20.6486C14.5791 20.76 14.6937 21.0551 14.5823 21.3078C14.471 21.5605 14.1758 21.6751 13.9231 21.5637C13.4549 21.3574 13.1806 21.0762 12.9018 20.7807C12.7123 20.5798 12.7215 20.2634 12.9223 20.0739ZM18.087 20.0956C18.2879 20.2851 18.2971 20.6016 18.1076 20.8024C17.8091 21.1188 17.5305 21.3638 17.0769 21.5637C16.8242 21.6751 16.5291 21.5605 16.4177 21.3078C16.3064 21.0551 16.4209 20.76 16.6736 20.6486C16.9595 20.5226 17.1317 20.3795 17.3802 20.1162C17.5697 19.9153 17.8862 19.9061 18.087 20.0956Z" fill="#333333"/>
<path fill-rule="evenodd" clip-rule="evenodd" d="M12.5 17.6943C12.7761 17.6943 13 17.9181 13 18.1943C13 19.0813 13.2312 19.6727 13.6291 20.0944C13.8186 20.2953 13.8094 20.6117 13.6086 20.8012C13.4077 20.9907 13.0913 20.9815 12.9018 20.7807C12.286 20.128 12 19.2665 12 18.1943C12 17.9181 12.2239 17.6943 12.5 17.6943ZM18.5 17.6943C18.7761 17.6943 19 17.9181 19 18.1943C19 19.2687 18.7273 20.1456 18.1076 20.8024C17.9181 21.0033 17.6016 21.0125 17.4008 20.823C17.1999 20.6334 17.1907 20.317 17.3802 20.1161C17.7743 19.6985 18 19.0982 18 18.1943C18 17.9181 18.2239 17.6943 18.5 17.6943Z" fill="#333333"/>
<path fill-rule="evenodd" clip-rule="evenodd" d="M14.3019 17.9C14.578 17.9 14.8019 18.1239 14.8019 18.4C14.8019 18.4385 14.8015 18.4753 14.8011 18.5107C14.7995 18.6715 14.7982 18.8027 14.8332 18.9274C14.8511 18.9913 14.8733 19.0274 14.8933 19.049C14.9098 19.0668 14.9431 19.095 15.023 19.115C15.2909 19.1819 15.4538 19.4534 15.3868 19.7213C15.3199 19.9892 15.0484 20.1521 14.7805 20.0851C14.5271 20.0218 14.3187 19.8999 14.1603 19.7292C14.0053 19.5622 13.9191 19.3712 13.8704 19.1976C13.792 18.9183 13.798 18.615 13.801 18.4606C13.8015 18.4366 13.8019 18.4162 13.8019 18.4C13.8019 18.1239 14.0257 17.9 14.3019 17.9Z" fill="#333333"/>
</svg>
