<svg width="24" height="24" viewBox="0 0 24 24" fill="none" xmlns="http://www.w3.org/2000/svg">
<path d="M15.5 19.5H19.5V21L16 21.5L15.5 19.5Z" fill="#CCCCCC"/>
<path fill-rule="evenodd" clip-rule="evenodd" d="M14.75 17C14.75 16.5858 15.0858 16.25 15.5 16.25H19.5C19.9142 16.25 20.25 16.5858 20.25 17V20C20.25 21.5188 19.0188 22.75 17.5 22.75C15.9812 22.75 14.75 21.5188 14.75 20V17ZM16.25 17.75V20C16.25 20.6904 16.8096 21.25 17.5 21.25C18.1904 21.25 18.75 20.6904 18.75 20V17.75H16.25Z" fill="#333333"/>
<path fill-rule="evenodd" clip-rule="evenodd" d="M14.2115 12.2628C14.3425 12.6558 14.1301 13.0805 13.7372 13.2115L10.7372 14.2115C10.3442 14.3425 9.91948 14.1301 9.78849 13.7372C9.65751 13.3442 9.86988 12.9195 10.2628 12.7885L13.2628 11.7885C13.6558 11.6575 14.0805 11.8699 14.2115 12.2628Z" fill="#333333"/>
<path fill-rule="evenodd" clip-rule="evenodd" d="M9.75 15C9.75 14.5858 10.0858 14.25 10.5 14.25H14C14.4142 14.25 14.75 14.5858 14.75 15C14.75 15.4142 14.4142 15.75 14 15.75H10.5C10.0858 15.75 9.75 15.4142 9.75 15Z" fill="#333333"/>
<path fill-rule="evenodd" clip-rule="evenodd" d="M9.78849 16.2628C9.91948 15.8699 10.3442 15.6575 10.7372 15.7885L13.7372 16.7885C14.1301 16.9195 14.3425 17.3442 14.2115 17.7372C14.0805 18.1301 13.6558 18.3425 13.2628 18.2115L10.2628 17.2115C9.86988 17.0805 9.65751 16.6558 9.78849 16.2628Z" fill="#333333"/>
<path fill-rule="evenodd" clip-rule="evenodd" d="M2.34032 2.2246C2.41952 1.81802 2.81332 1.55264 3.21989 1.63184C3.33377 1.65402 3.46317 1.67619 3.60513 1.70052C4.41586 1.83945 5.63628 2.04858 6.7165 2.73088C8.03656 3.56468 9.08868 5.0393 9.37726 7.63247L11.2064 11.3446C11.3152 11.5652 11.3088 11.8252 11.1893 12.0402C11.0699 12.2553 10.8526 12.3981 10.6079 12.4224L8.86643 12.5955L8.99007 13.8394C9.01487 14.0889 8.91332 14.3343 8.71945 14.4934L7.9746 15.1045L8.73134 15.8404C8.85815 15.9637 8.93729 16.1279 8.95479 16.3039C8.99441 16.7025 8.86603 17.1304 8.70929 17.484C8.54237 17.8606 8.29817 18.2537 8.00019 18.6089C7.57903 19.111 6.96046 19.6379 6.21485 19.8361L6.20322 21.2316C6.19977 21.6458 5.8612 21.9788 5.447 21.9754C5.0328 21.9719 4.69982 21.6333 4.70327 21.2191L4.72047 19.1563C4.7222 18.9478 4.81065 18.7494 4.9646 18.6088C5.11854 18.4682 5.32407 18.398 5.53187 18.415C5.90671 18.4458 6.39655 18.1866 6.85098 17.6449C7.06273 17.3924 7.23058 17.1184 7.33797 16.8762C7.37379 16.7953 7.40105 16.7222 7.42083 16.6583L6.32713 15.5947C6.17404 15.4458 6.09167 15.2387 6.10067 15.0254C6.10968 14.812 6.20921 14.6126 6.3743 14.4772L7.45772 13.5883L7.29961 11.9975C7.25864 11.5853 7.55957 11.218 7.97175 11.177L9.38255 11.0368L7.97265 8.17556C7.9329 8.09489 7.90798 8.00772 7.89908 7.91823C7.6708 5.62142 6.80609 4.56164 5.91546 3.99908C5.11124 3.49111 4.23072 3.33586 3.41321 3.19171C3.2503 3.16299 3.08989 3.13471 2.93308 3.10416C2.52651 3.02496 2.26112 2.63117 2.34032 2.2246Z" fill="#333333"/>
<path fill-rule="evenodd" clip-rule="evenodd" d="M17.9343 10.8687L17.5294 11.5L17.1476 10.8544C17.3915 10.7102 17.6958 10.7157 17.9343 10.8687ZM17.5106 12.4516C17.4699 12.4879 17.4279 12.5271 17.3856 12.5689C17.0896 12.8618 16.8361 13.226 16.7682 13.6237C16.6907 14.0782 17.0613 14.5296 17.4509 14.5567C17.6585 14.5712 17.8754 14.4681 18.0372 14.2361C18.2019 13.9998 18.2534 13.7024 18.1741 13.454C18.0525 13.073 17.8004 12.7411 17.5499 12.4903C17.5367 12.4771 17.5235 12.4642 17.5106 12.4516ZM17.1476 10.8544C17.1478 10.8543 17.1476 10.8544 17.5294 11.5C17.9343 10.8687 17.9341 10.8686 17.9343 10.8687L17.936 10.8698L17.938 10.8711L17.9432 10.8745L17.958 10.8842C17.9697 10.8921 17.9851 10.9026 18.0038 10.9157C18.0412 10.9419 18.092 10.9786 18.1526 11.0255C18.2734 11.119 18.436 11.2549 18.611 11.4301C18.9543 11.7737 19.3818 12.3047 19.6031 12.9978C19.8408 13.7423 19.6673 14.5207 19.2677 15.0939C18.8652 15.6712 18.1787 16.1111 17.3465 16.0531C16.0023 15.9594 15.0749 14.6303 15.2896 13.3715C15.4324 12.5344 15.9291 11.8998 16.3307 11.5026C16.5372 11.2983 16.7349 11.1405 16.8819 11.033C16.9559 10.979 17.0182 10.9368 17.0639 10.907C17.0867 10.8921 17.1056 10.8802 17.1197 10.8714L17.1374 10.8606L17.1434 10.8569L17.1458 10.8555L17.1476 10.8544Z" fill="#333333"/>
</svg>
