<svg width="24" height="24" viewBox="0 0 24 24" fill="none" xmlns="http://www.w3.org/2000/svg">
<path d="M12.0275 19.6051C19.6346 16.4939 15.2488 10.6463 12.3251 10.6463C9.4015 10.6463 9.4015 12.1082 7.20864 12.1082C5.01579 12.1082 2.82293 11.3773 2.09198 14.3011C1.36103 17.2249 5.01551 21.6106 12.0275 19.6051Z" fill="#EEECA9"/>
<path d="M16.2462 9.03287C16.2462 6.59637 17.7151 4.04521 21.9058 4.56904C22.3931 6.51825 21.0598 9.03287 16.2462 9.03287Z" fill="#96C248"/>
<path fill-rule="evenodd" clip-rule="evenodd" d="M16.9962 9.76249C19.1234 9.64396 20.6393 9.0152 21.5937 8.06278C22.6688 6.98982 22.936 5.59722 22.6334 4.38713C22.5583 4.08664 22.3062 3.86324 21.9989 3.82483C19.7381 3.54224 18.073 4.07916 16.9785 5.15625C15.9036 6.21401 15.4962 7.6787 15.4962 9.03287V11.4398C15.3584 11.2967 15.2147 11.162 15.067 11.0367C14.2764 10.3659 13.2883 9.89629 12.3251 9.8963C10.6955 9.89631 9.83609 10.3173 9.12073 10.7261C9.07523 10.7521 9.03098 10.7776 8.98774 10.8025C8.41815 11.1305 8.02285 11.3582 7.20865 11.3582C6.85697 11.3582 6.52072 11.3391 6.16791 11.319C5.99061 11.309 5.80914 11.2986 5.61942 11.2904C5.0841 11.2671 4.50557 11.2627 3.95501 11.3728C3.38907 11.486 2.83177 11.724 2.36113 12.1946C1.89614 12.6596 1.56974 13.2977 1.36437 14.1192C0.906564 15.9504 1.83552 18.0681 3.72073 19.4122C5.63877 20.7798 8.55088 21.3795 12.2337 20.3262C12.2601 20.3187 12.286 20.3097 12.3114 20.2993C14.305 19.4839 15.6086 18.451 16.3313 17.2888C16.7186 16.6659 16.9265 16.0255 16.9912 15.3963C16.9921 15.3883 16.9929 15.3803 16.9936 15.3723C17.0198 15.1024 17.0197 14.8346 16.9962 14.5712V9.76249ZM15.4962 14.6432V15.2692C15.4503 15.6746 15.3121 16.0872 15.0574 16.4968C14.5578 17.3003 13.5675 18.1586 11.7816 18.8953C8.4729 19.8315 6.06513 19.2416 4.59155 18.1909C3.07926 17.1126 2.54645 15.5755 2.81959 14.483C2.9797 13.8425 3.20152 13.4756 3.42179 13.2553C3.63641 13.0407 3.90144 12.9132 4.24919 12.8437C4.61232 12.771 5.03885 12.7666 5.55427 12.789C5.70253 12.7954 5.86202 12.8044 6.02829 12.8138C6.40422 12.835 6.81481 12.8582 7.20865 12.8582C8.43055 12.8582 9.12594 12.4558 9.72649 12.1082C9.77315 12.0812 9.81924 12.0546 9.86497 12.0284C10.4287 11.7063 11.0312 11.3963 12.3251 11.3963C12.8238 11.3963 13.4803 11.6576 14.0966 12.1805C14.7031 12.6951 15.1928 13.3995 15.4024 14.1586C15.4462 14.3175 15.4781 14.4793 15.4962 14.6432ZM18.0306 6.22539C17.4955 6.752 17.178 7.46933 17.0551 8.25613C18.8519 8.13288 19.934 7.59984 20.5341 7.00102C21.0559 6.48034 21.2668 5.85889 21.2492 5.26147C19.6516 5.1707 18.6485 5.61732 18.0306 6.22539Z" fill="#333333"/>
<path fill-rule="evenodd" clip-rule="evenodd" d="M12.1246 15.2326C12.4175 15.5255 12.4175 16.0004 12.1246 16.2933C11.0861 17.3317 9.85391 17.6904 8.76299 17.7188C7.68965 17.7466 6.72792 17.4576 6.14216 17.1647C5.77167 16.9795 5.6215 16.529 5.80675 16.1585C5.99199 15.788 6.44249 15.6378 6.81298 15.8231C7.20182 16.0175 7.92128 16.2401 8.72404 16.2193C9.50924 16.1989 10.3481 15.9484 11.0639 15.2326C11.3568 14.9397 11.8317 14.9397 12.1246 15.2326Z" fill="#333333"/>
</svg>
