<svg width="24" height="24" viewBox="0 0 24 24" fill="none" xmlns="http://www.w3.org/2000/svg">
<path d="M9.56893 12.3709L8.71554 17.0645C8.34296 19.1137 9.91722 21 12 21C14.0828 21 15.657 19.1137 15.2845 17.0645L14.4067 12.2367L9.56893 12.3709Z" fill="#D69F46"/>
<path fill-rule="evenodd" clip-rule="evenodd" d="M14.5466 17.1987L13.6688 12.3709L15.1446 12.1025L16.0224 16.9304C16.4787 19.4399 14.5507 21.75 12 21.75C9.4493 21.75 7.52136 19.4399 7.97765 16.9304L8.83103 12.2367L10.3068 12.5051L9.45345 17.1987C9.16458 18.7875 10.3852 20.25 12 20.25C13.6149 20.25 14.8354 18.7875 14.5466 17.1987Z" fill="#333333"/>
<path d="M20 11C20 15.4183 16.4183 12 12 12C7.58172 12 4 15.4183 4 11C4 6.58172 7.58172 3 12 3C16.4183 3 20 6.58172 20 11Z" fill="#D6A046"/>
<path fill-rule="evenodd" clip-rule="evenodd" d="M12 3.75C7.99594 3.75 4.75 6.99594 4.75 11C4.75 12.0638 4.97762 12.3451 5.07605 12.4182C5.19191 12.5044 5.47014 12.573 6.18985 12.4227C6.60467 12.3361 7.03602 12.2105 7.53021 12.0666C7.88137 11.9644 8.26426 11.853 8.69548 11.7397C9.67845 11.4815 10.8021 11.25 12 11.25C13.1979 11.25 14.3216 11.4815 15.3045 11.7397C15.7357 11.853 16.1186 11.9644 16.4698 12.0666C16.964 12.2105 17.3953 12.3361 17.8101 12.4227C18.5299 12.573 18.8081 12.5044 18.924 12.4182C19.0224 12.3451 19.25 12.0638 19.25 11C19.25 6.99594 16.0041 3.75 12 3.75ZM3.25 11C3.25 6.16751 7.16751 2.25 12 2.25C16.8325 2.25 20.75 6.16751 20.75 11C20.75 12.1453 20.5299 13.0936 19.8187 13.6222C19.1249 14.1378 18.2316 14.043 17.5036 13.891C17.0493 13.7962 16.5087 13.6399 15.9559 13.4801C15.6105 13.3802 15.2603 13.279 14.9234 13.1905C13.9922 12.9458 13.0112 12.75 12 12.75C10.9888 12.75 10.0078 12.9458 9.0766 13.1905C8.73968 13.279 8.3895 13.3802 8.0441 13.4801C7.49129 13.6399 6.95073 13.7962 6.49644 13.891C5.76844 14.043 4.87509 14.1378 4.18131 13.6222C3.4701 13.0936 3.25 12.1453 3.25 11Z" fill="#333333"/>
<path fill-rule="evenodd" clip-rule="evenodd" d="M12.2646 5.35294C12.3458 4.94677 12.7409 4.68335 13.1471 4.76459C15.9546 5.32609 17.1107 7.04431 17.6708 8.16461C17.8561 8.5351 17.7059 8.9856 17.3354 9.17084C16.9649 9.35609 16.5144 9.20592 16.3292 8.83543C15.8893 7.95573 15.0454 6.67395 12.8529 6.23546C12.4467 6.15422 12.1833 5.75911 12.2646 5.35294Z" fill="#333333"/>
</svg>
