<svg width="24" height="24" viewBox="0 0 24 24" fill="none" xmlns="http://www.w3.org/2000/svg">
<path d="M19.5 12C19.5 16.1421 16.1421 19.5 12 19.5C7.85786 19.5 4.5 16.1421 4.5 12C4.5 7.85786 7.85786 4.5 12 4.5C16.1421 4.5 19.5 7.85786 19.5 12Z" fill="#72DBF3"/>
<path fill-rule="evenodd" clip-rule="evenodd" d="M12 5.25C8.27208 5.25 5.25 8.27208 5.25 12C5.25 15.7279 8.27208 18.75 12 18.75C15.7279 18.75 18.75 15.7279 18.75 12C18.75 8.27208 15.7279 5.25 12 5.25ZM3.75 12C3.75 7.44365 7.44365 3.75 12 3.75C16.5563 3.75 20.25 7.44365 20.25 12C20.25 16.5563 16.5563 20.25 12 20.25C7.44365 20.25 3.75 16.5563 3.75 12Z" fill="#333333"/>
<path fill-rule="evenodd" clip-rule="evenodd" d="M12 1.25C12.4142 1.25 12.75 1.58579 12.75 2V4C12.75 4.41421 12.4142 4.75 12 4.75C11.5858 4.75 11.25 4.41421 11.25 4V2C11.25 1.58579 11.5858 1.25 12 1.25Z" fill="#333333"/>
<path fill-rule="evenodd" clip-rule="evenodd" d="M12 19.25C12.4142 19.25 12.75 19.5858 12.75 20V22C12.75 22.4142 12.4142 22.75 12 22.75C11.5858 22.75 11.25 22.4142 11.25 22V20C11.25 19.5858 11.5858 19.25 12 19.25Z" fill="#333333"/>
<path fill-rule="evenodd" clip-rule="evenodd" d="M19.6014 4.39862C19.8943 4.69151 19.8943 5.16638 19.6014 5.45928L18.1872 6.87349C17.8943 7.16638 17.4194 7.16638 17.1265 6.87349C16.8336 6.5806 16.8336 6.10572 17.1265 5.81283L18.5407 4.39862C18.8336 4.10572 19.3085 4.10572 19.6014 4.39862Z" fill="#333333"/>
<path fill-rule="evenodd" clip-rule="evenodd" d="M6.87347 17.1265C7.16636 17.4194 7.16636 17.8943 6.87347 18.1872L5.45926 19.6014C5.16636 19.8943 4.69149 19.8943 4.3986 19.6014C4.1057 19.3085 4.1057 18.8336 4.3986 18.5407L5.81281 17.1265C6.1057 16.8336 6.58058 16.8336 6.87347 17.1265Z" fill="#333333"/>
<path fill-rule="evenodd" clip-rule="evenodd" d="M22.75 12C22.75 12.4142 22.4142 12.75 22 12.75L20 12.75C19.5858 12.75 19.25 12.4142 19.25 12C19.25 11.5858 19.5858 11.25 20 11.25L22 11.25C22.4142 11.25 22.75 11.5858 22.75 12Z" fill="#333333"/>
<path fill-rule="evenodd" clip-rule="evenodd" d="M4.75 12C4.75 12.4142 4.41421 12.75 4 12.75L2 12.75C1.58579 12.75 1.25 12.4142 1.25 12C1.25 11.5858 1.58579 11.25 2 11.25L4 11.25C4.41421 11.25 4.75 11.5858 4.75 12Z" fill="#333333"/>
<path fill-rule="evenodd" clip-rule="evenodd" d="M4.39863 4.39863C4.69152 4.10573 5.1664 4.10573 5.45929 4.39863L6.87351 5.81284C7.1664 6.10573 7.1664 6.58061 6.87351 6.8735C6.58061 7.16639 6.10574 7.16639 5.81285 6.8735L4.39863 5.45929C4.10574 5.16639 4.10574 4.69152 4.39863 4.39863Z" fill="#333333"/>
<path fill-rule="evenodd" clip-rule="evenodd" d="M17.1265 17.1265C17.4194 16.8336 17.8943 16.8336 18.1872 17.1265L19.6014 18.5407C19.8943 18.8336 19.8943 19.3085 19.6014 19.6014C19.3085 19.8943 18.8336 19.8943 18.5408 19.6014L17.1265 18.1872C16.8336 17.8943 16.8336 17.4194 17.1265 17.1265Z" fill="#333333"/>
<path fill-rule="evenodd" clip-rule="evenodd" d="M15 8.75C14.8619 8.75 14.75 8.86193 14.75 9C14.75 9.13807 14.8619 9.25 15 9.25C15.1381 9.25 15.25 9.13807 15.25 9C15.25 8.86193 15.1381 8.75 15 8.75ZM13.25 9C13.25 8.0335 14.0335 7.25 15 7.25C15.9665 7.25 16.75 8.0335 16.75 9C16.75 9.9665 15.9665 10.75 15 10.75C14.0335 10.75 13.25 9.9665 13.25 9Z" fill="#333333"/>
<path fill-rule="evenodd" clip-rule="evenodd" d="M8.5 11.75C8.08579 11.75 7.75 12.0858 7.75 12.5C7.75 12.9142 8.08579 13.25 8.5 13.25C8.91421 13.25 9.25 12.9142 9.25 12.5C9.25 12.0858 8.91421 11.75 8.5 11.75ZM6.25 12.5C6.25 11.2574 7.25736 10.25 8.5 10.25C9.74264 10.25 10.75 11.2574 10.75 12.5C10.75 13.7426 9.74264 14.75 8.5 14.75C7.25736 14.75 6.25 13.7426 6.25 12.5Z" fill="#333333"/>
<path d="M12 6.5C12 6.77614 11.7761 7 11.5 7C11.2239 7 11 6.77614 11 6.5C11 6.22386 11.2239 6 11.5 6C11.7761 6 12 6.22386 12 6.5Z" fill="#333333"/>
<path d="M18 12.5C18 12.7761 17.7761 13 17.5 13C17.2239 13 17 12.7761 17 12.5C17 12.2239 17.2239 12 17.5 12C17.7761 12 18 12.2239 18 12.5Z" fill="#333333"/>
<path d="M10 16.5C10 16.7761 9.77614 17 9.5 17C9.22386 17 9 16.7761 9 16.5C9 16.2239 9.22386 16 9.5 16C9.77614 16 10 16.2239 10 16.5Z" fill="#333333"/>
<path d="M9 8.5C9 8.77614 8.77614 9 8.5 9C8.22386 9 8 8.77614 8 8.5C8 8.22386 8.22386 8 8.5 8C8.77614 8 9 8.22386 9 8.5Z" fill="#333333"/>
<path fill-rule="evenodd" clip-rule="evenodd" d="M13.1855 14.4045C13.1832 14.4296 13.1861 14.5172 13.2991 14.6832C13.448 14.9019 13.731 15.152 14.1302 15.3363C14.5294 15.5206 14.9034 15.5738 15.1664 15.5453C15.366 15.5236 15.4346 15.469 15.4521 15.451C15.4545 15.4259 15.4516 15.3383 15.3386 15.1723C15.1897 14.9536 14.9067 14.7035 14.5074 14.5192C14.1082 14.3349 13.7343 14.2817 13.4713 14.3102C13.2716 14.3318 13.2031 14.3865 13.1855 14.4045ZM13.3097 12.8189C13.886 12.7565 14.5325 12.8786 15.1362 13.1573C15.7398 13.436 16.2521 13.8489 16.5784 14.328C16.8948 14.7927 17.1083 15.4464 16.8156 16.0804C16.5229 16.7144 15.8869 16.976 15.3279 17.0365C14.7517 17.099 14.1051 16.9769 13.5015 16.6982C12.8978 16.4195 12.3855 16.0066 12.0593 15.5275C11.7428 15.0628 11.5294 14.4091 11.8221 13.7751C12.1148 13.1411 12.7508 12.8795 13.3097 12.8189Z" fill="#333333"/>
</svg>
