<svg width="24" height="24" viewBox="0 0 24 24" fill="none" xmlns="http://www.w3.org/2000/svg">
<path d="M8.5 18.5H11.5V21.5H8.5V18.5Z" fill="#333333"/>
<path d="M12.5 18.5H15.5V21.5H12.5V18.5Z" fill="#333333"/>
<path d="M9.112 4.51965C10.2125 5.35244 10.0115 7.68687 9.16589 8.20306C9.14781 8.20176 9.12985 8.20038 9.112 8.19889C5.0115 8.68687 5.35223 3.6276 5.68188 3.65723C6.01154 3.68686 8.0115 3.68687 9.112 4.51965Z" fill="#629C15"/>
<path fill-rule="evenodd" clip-rule="evenodd" d="M5.16439 3.09838C5.27524 3.00383 5.47803 2.88586 5.74902 2.91022C5.76319 2.91149 5.79551 2.91305 5.84295 2.91534C6.06975 2.92626 6.64191 2.95383 7.22552 3.04652C7.93648 3.15944 8.86298 3.39065 9.56457 3.92157C10.3928 4.54831 10.6396 5.63692 10.6185 6.49839C10.6075 6.95016 10.5238 7.40532 10.3663 7.80298C10.2143 8.18674 9.9612 8.59624 9.55666 8.84319C9.42735 8.92212 9.27727 8.95999 9.1262 8.95198C7.97493 9.07388 7.05133 8.81783 6.34938 8.29063C5.64807 7.7639 5.24537 7.02482 5.02168 6.32965C4.79782 5.63397 4.73611 4.93203 4.75249 4.3999C4.76061 4.13591 4.7887 3.8872 4.83785 3.68595C4.86079 3.59197 4.89844 3.46508 4.96531 3.34464C4.99797 3.28581 5.0597 3.18766 5.16439 3.09838ZM8.85859 7.4705C8.89207 7.42196 8.93186 7.35121 8.97165 7.25071C9.05531 7.03946 9.11162 6.76218 9.11896 6.46173C9.13468 5.81874 8.93171 5.32374 8.65943 5.11769C8.26052 4.81582 7.63679 4.63064 6.99023 4.52795C6.71028 4.48349 6.46279 4.4585 6.25188 4.44269C6.25184 4.4438 6.25181 4.44492 6.25178 4.44603C6.23969 4.83893 6.28726 5.36575 6.44958 5.87018C6.61206 6.37513 6.87243 6.80752 7.25019 7.09123C7.58869 7.34546 8.08867 7.53141 8.85859 7.4705Z" fill="#333333"/>
<path d="M13.1817 4.6569C12.1816 6.15656 12.5994 8.11562 13.6818 9.15691C18.5994 9.11563 17.1818 3.15724 16.6818 3.15691C16.1817 3.15657 14.1819 3.15724 13.1817 4.6569Z" fill="#629C15"/>
<path fill-rule="evenodd" clip-rule="evenodd" d="M14.9219 2.62083C14.131 2.83661 13.1928 3.28852 12.5578 4.24074C11.3329 6.07738 11.8493 8.4347 13.1618 9.69737C13.3031 9.8333 13.4921 9.9085 13.6881 9.90685C15.0797 9.89517 16.1175 9.45822 16.8322 8.72584C17.5319 8.00895 17.8447 7.08812 17.9569 6.23991C18.0693 5.39038 17.9896 4.55401 17.8471 3.92341C17.7762 3.60967 17.6839 3.32058 17.5763 3.09276C17.5242 2.98248 17.4537 2.85453 17.359 2.74171C17.2976 2.66855 17.0689 2.40714 16.6823 2.40688L16.679 2.40687C16.4155 2.40669 15.7085 2.4062 14.9219 2.62083ZM16.2912 3.91607C16.3217 4.00735 16.3538 4.12052 16.384 4.25402C16.4942 4.742 16.5553 5.39786 16.4699 6.04314C16.3843 6.68972 16.1608 7.26625 15.7587 7.67818C15.4125 8.03292 14.8724 8.32912 13.998 8.39392C13.3035 7.53617 13.0956 6.13768 13.8057 5.07301C14.1708 4.52557 14.7326 4.22731 15.3167 4.06792C15.679 3.96907 16.0241 3.93083 16.2912 3.91607Z" fill="#333333"/>
<path fill-rule="evenodd" clip-rule="evenodd" d="M7.27983 5.53776C7.52059 5.2007 7.989 5.12263 8.32606 5.36339C9.01246 5.85368 9.85457 6.79139 10.4519 7.83666C11.0333 8.85413 11.5039 10.1875 11.1016 11.3945C10.9706 11.7874 10.5459 11.9998 10.1529 11.8688C9.75998 11.7379 9.5476 11.3131 9.67858 10.9202C9.87113 10.3425 9.67511 9.5007 9.14949 8.58086C8.63976 7.68881 7.93447 6.92704 7.45421 6.58399C7.11715 6.34323 7.03908 5.87482 7.27983 5.53776Z" fill="#333333"/>
<path d="M20 14C20 16.0711 16.1421 18.5 12 18.5C7.85786 18.5 4 16.0711 4 14C4 11.9289 7.85786 11 12 11C16.1421 11 20 11.9289 20 14Z" fill="#997F5A"/>
<path fill-rule="evenodd" clip-rule="evenodd" d="M5.16528 13.2185C4.85835 13.4909 4.75 13.746 4.75 14C4.75 14.2844 4.88582 14.6612 5.247 15.1007C5.60353 15.5347 6.13981 15.9787 6.82508 16.3791C8.19645 17.1804 10.0664 17.75 12 17.75C13.9336 17.75 15.8035 17.1804 17.1749 16.3791C17.8602 15.9787 18.3965 15.5347 18.753 15.1007C19.1142 14.6612 19.25 14.2844 19.25 14C19.25 13.746 19.1416 13.4909 18.8347 13.2185C18.5138 12.9338 18.0078 12.664 17.3174 12.4353C15.9406 11.9791 14.0291 11.75 12 11.75C9.97087 11.75 8.05939 11.9791 6.68259 12.4353C5.99217 12.664 5.48618 12.9338 5.16528 13.2185ZM6.21081 11.0114C7.79847 10.4854 9.887 10.25 12 10.25C14.113 10.25 16.2015 10.4854 17.7892 11.0114C18.581 11.2738 19.2984 11.6246 19.8303 12.0965C20.3761 12.5808 20.75 13.2185 20.75 14C20.75 14.7511 20.4036 15.4546 19.912 16.053C19.4157 16.657 18.7286 17.2085 17.9317 17.6742C16.3386 18.6051 14.2085 19.25 12 19.25C9.79145 19.25 7.66141 18.6051 6.06831 17.6742C5.27136 17.2085 4.58429 16.657 4.08803 16.053C3.59641 15.4546 3.25 14.7511 3.25 14C3.25 13.2185 3.62388 12.5808 4.16974 12.0965C4.70164 11.6246 5.419 11.2738 6.21081 11.0114Z" fill="#333333"/>
<path fill-rule="evenodd" clip-rule="evenodd" d="M2.73666 11.2977C3.1245 11.1523 3.55681 11.3488 3.70225 11.7366L5.11731 15.5101L5.75276 15.9337C5.7624 15.8241 5.79644 15.7148 5.85689 15.6141C6.07 15.2589 6.53069 15.1437 6.88588 15.3568L11.8859 18.3568C12.1118 18.4924 12.25 18.7365 12.25 19V21.5C12.25 21.9142 11.9142 22.25 11.5 22.25H9C8.58579 22.25 8.25 21.9142 8.25 21.5V19.4013L4.08398 16.624C3.95311 16.5368 3.85298 16.4106 3.79776 16.2633L2.29776 12.2633C2.15232 11.8755 2.34882 11.4432 2.73666 11.2977ZM9.72554 18.8099C9.74161 18.8713 9.75 18.935 9.75 19V20.75H10.75V19.4246L9.72554 18.8099Z" fill="#333333"/>
<path fill-rule="evenodd" clip-rule="evenodd" d="M21.2633 11.2977C20.8755 11.1523 20.4432 11.3488 20.2977 11.7366L18.8827 15.5101L18.2472 15.9337C18.2376 15.8241 18.2036 15.7148 18.1431 15.6141C17.93 15.2589 17.4693 15.1437 17.1141 15.3568L12.1141 18.3568C11.8882 18.4924 11.75 18.7365 11.75 19V21.5C11.75 21.9142 12.0858 22.25 12.5 22.25H15C15.4142 22.25 15.75 21.9142 15.75 21.5V19.4013L19.916 16.624C20.0469 16.5368 20.147 16.4106 20.2022 16.2633L21.7022 12.2633C21.8477 11.8755 21.6512 11.4432 21.2633 11.2977ZM14.2745 18.8099C14.2584 18.8713 14.25 18.935 14.25 19V20.75H13.25V19.4246L14.2745 18.8099Z" fill="#333333"/>
<path fill-rule="evenodd" clip-rule="evenodd" d="M14.0111 6.32186C14.1963 5.95137 14.6468 5.80121 15.0173 5.98645C15.3878 6.17169 15.5379 6.6222 15.3527 6.99268C14.6556 8.38691 14.4253 9.6603 14.3679 10.5791C14.3585 10.7293 14.3538 10.87 14.3524 11H12.8523C12.8537 10.8405 12.8594 10.6686 12.8708 10.4855C12.9384 9.40424 13.2082 7.92762 14.0111 6.32186Z" fill="#333333"/>
</svg>
