<svg width="24" height="24" viewBox="0 0 24 24" fill="none" xmlns="http://www.w3.org/2000/svg">
<path d="M14.5 17L15 14.5L17.4122 12.5703L18.5 14L16.5 16.5L14.5 17Z" fill="#F4D237"/>
<path fill-rule="evenodd" clip-rule="evenodd" d="M19.0089 10.4052C19.3726 10.6035 19.5066 11.0591 19.3082 11.4228C18.4767 12.9472 17.149 13.9596 15.5682 14.5196C15.1777 14.658 14.7491 14.4536 14.6108 14.0632C14.4725 13.6727 14.6768 13.2441 15.0673 13.1058C16.3507 12.6511 17.3611 11.8599 17.9914 10.7045C18.1897 10.3408 18.6453 10.2068 19.0089 10.4052Z" fill="#333333"/>
<path d="M14.9925 21.6291C19.0561 20.8164 22.8121 16.5556 21.8469 12.2589L21.4943 10.6573V7.40637L19.0561 7C19.0561 12.2589 17.8371 16.3464 12.5543 17.1591C10.1258 17.5327 7.79773 17.0021 6 15.9718L6.45887 18.7846C7.27158 20.8164 10.9289 22.4419 14.9925 21.6291Z" fill="#F4D237"/>
<path fill-rule="evenodd" clip-rule="evenodd" d="M19.0561 6.25C19.4703 6.25 19.8061 6.58579 19.8061 7C19.8061 9.66327 19.5022 12.1547 18.4457 14.1042C17.359 16.1094 15.5205 17.4616 12.6684 17.9004C10.9485 18.165 9.27533 18.0069 7.78095 17.5506C7.3848 17.4296 7.16173 17.0104 7.2827 16.6142C7.40368 16.2181 7.8229 15.995 8.21905 16.116C9.50847 16.5098 10.954 16.6465 12.4403 16.4178C14.871 16.0439 16.2833 14.946 17.1269 13.3895C18.0006 11.7774 18.3061 9.59562 18.3061 7C18.3061 6.58579 18.6419 6.25 19.0561 6.25ZM21.3331 9.92483C21.7376 9.83577 22.1377 10.0915 22.2268 10.496L22.5787 12.0945C22.5788 12.0951 22.579 12.0958 22.5791 12.0964C23.1212 14.5125 22.3264 16.8753 20.8974 18.7112C19.4709 20.5437 17.3637 21.9197 15.1396 22.3646C12.9743 22.7976 10.9037 22.5847 9.24843 21.9777C7.6213 21.3811 6.27941 20.3554 5.76251 19.0631C5.74218 19.0123 5.72747 18.9594 5.71866 18.9053L5.48922 17.4989C5.42253 17.0901 5.69987 16.7046 6.10868 16.638C6.51749 16.5713 6.90296 16.8486 6.96965 17.2574L7.18467 18.5755C7.50731 19.2954 8.38851 20.0648 9.7648 20.5694C11.1573 21.08 12.9472 21.2734 14.8454 20.8937C14.8454 20.8937 14.8454 20.8937 14.8454 20.8937C16.685 20.5258 18.4875 19.365 19.7137 17.7898C20.9369 16.2184 21.5375 14.3032 21.1152 12.4233L21.1145 12.4202L20.7619 10.8185C20.6728 10.414 20.9285 10.0139 21.3331 9.92483Z" fill="#333333"/>
<path fill-rule="evenodd" clip-rule="evenodd" d="M18.3163 6.87669C18.3844 6.46812 18.7709 6.1921 19.1794 6.2602L21.6176 6.66657C21.9793 6.72684 22.2443 7.03973 22.2443 7.40636V10.6573C22.2443 11.0715 21.9085 11.4073 21.4943 11.4073C21.0801 11.4073 20.7443 11.0715 20.7443 10.6573V8.04171L18.9328 7.73979C18.5243 7.67169 18.2482 7.28527 18.3163 6.87669Z" fill="#333333"/>
<path fill-rule="evenodd" clip-rule="evenodd" d="M9 16.619C9.94543 16.619 10.3343 17.1285 10.8411 17.2417C11.3478 17.355 11.7732 17.3864 12.2089 17.1945C13.0717 16.8143 13.5976 16.3614 14.2358 15.6851C15.4185 14.4316 16 12.7081 16 10.4001C16 8.092 15.3776 6.89924 14.4185 6.11901C13.4595 5.33882 12.9033 5.18934 11.7436 5.33882C10.5838 5.48827 9.95235 6.73435 9.00323 6.73435C8.05414 6.73435 6.89739 5.5057 5.89103 5.33882C4.88466 5.17191 4.33333 5.33882 3.46209 6.11901C2.59085 6.89924 2 8.11417 2 10.4001C2 12.6859 2.60338 14.3809 3.78605 15.6343C4.42422 16.3107 4.92833 16.8143 5.79108 17.1945C6.22676 17.3864 6.67705 17.355 7.16616 17.2417C7.6553 17.1285 8.04419 16.619 9 16.619Z" fill="#E05954"/>
<path fill-rule="evenodd" clip-rule="evenodd" d="M5.15113 5.21617C5.21889 4.80754 5.60508 4.53121 6.01372 4.59896C6.37996 4.65969 6.72291 4.80925 7.01632 4.96289C7.27275 5.09716 7.53147 5.25679 7.76239 5.39927C7.79601 5.42001 7.82903 5.44039 7.86137 5.46027C8.1301 5.62545 8.35924 5.76138 8.56994 5.85772C8.78355 5.95538 8.92022 5.98439 9.00323 5.98439C9.16917 5.98439 9.35156 5.87858 9.83189 5.50228C9.84453 5.49237 9.85738 5.48228 9.87044 5.47203C10.2671 5.16066 10.8582 4.69676 11.6477 4.59501C12.0585 4.54207 12.4345 4.83219 12.4874 5.24301C12.5404 5.65382 12.2502 6.02977 11.8394 6.08271C11.4952 6.12707 11.2034 6.33333 10.757 6.68306C10.7364 6.69919 10.715 6.71607 10.6928 6.73356C10.3247 7.02422 9.74196 7.48439 9.00323 7.48439C8.6117 7.48439 8.24787 7.35981 7.94622 7.22189C7.64165 7.08264 7.34075 6.90097 7.07585 6.73814C7.04057 6.71645 7.00592 6.69509 6.97181 6.67407C6.73606 6.52876 6.52652 6.39961 6.3205 6.29174C6.08432 6.16807 5.90528 6.10147 5.76834 6.07876C5.35971 6.011 5.08338 5.62481 5.15113 5.21617ZM7.87582 17.7594C7.73715 17.8329 7.55298 17.922 7.33532 17.9724C6.93178 18.0658 6.52891 17.8144 6.43549 17.4109C6.34206 17.0074 6.59346 16.6045 6.997 16.5111C7.02391 16.5048 7.07178 16.4878 7.17346 16.434C7.18991 16.4253 7.22411 16.4063 7.26699 16.3825C7.35708 16.3326 7.48544 16.2615 7.56769 16.2196C7.91644 16.042 8.37032 15.8691 9 15.8691C9.62622 15.8691 10.0777 16.0431 10.4246 16.2192C10.5067 16.2609 10.5827 16.3025 10.6473 16.3382C10.6547 16.3423 10.6618 16.3462 10.6688 16.35C10.7267 16.382 10.773 16.4076 10.8185 16.4312C10.9202 16.4841 10.972 16.5025 11.0046 16.5098C11.4089 16.6001 11.6634 17.0011 11.573 17.4053C11.4827 17.8095 11.0818 18.064 10.6775 17.9737C10.4567 17.9243 10.2699 17.8366 10.1266 17.7621C10.0633 17.7292 9.99963 17.694 9.9441 17.6634C9.9369 17.6594 9.92984 17.6555 9.92293 17.6517C9.85932 17.6166 9.8028 17.5858 9.74552 17.5567C9.53494 17.4498 9.31922 17.3691 9 17.3691C8.67387 17.3691 8.4554 17.4508 8.24848 17.5562C8.16529 17.5986 8.11875 17.625 8.06494 17.6555C8.01754 17.6823 7.9645 17.7124 7.87582 17.7594Z" fill="#333333"/>
<path fill-rule="evenodd" clip-rule="evenodd" d="M4.39873 4.65898C4.92859 4.4906 5.45026 4.50548 6.01374 4.59893C6.42237 4.66671 6.69869 5.05291 6.63092 5.46154C6.56314 5.87017 6.17694 6.14649 5.76831 6.07872C5.32542 6.00526 5.06824 6.02014 4.85303 6.08853C4.62811 6.16001 4.36607 6.31627 3.96242 6.67774C3.65385 6.95406 3.17969 6.92792 2.90337 6.61935C2.62704 6.31077 2.65319 5.83662 2.96176 5.56029C3.42935 5.14157 3.87859 4.82428 4.39873 4.65898ZM13.3637 4.65953C13.9097 4.81665 14.3811 5.12176 14.8918 5.53721C15.2131 5.7986 15.2617 6.27098 15.0003 6.5923C14.739 6.91363 14.2666 6.96221 13.9453 6.70082C13.4969 6.33608 13.2106 6.17635 12.9489 6.10105C12.6891 6.02631 12.3788 6.01315 11.8394 6.08267C11.4286 6.13563 11.0527 5.84552 10.9997 5.43471C10.9468 5.0239 11.2369 4.64794 11.6477 4.59498C12.268 4.51502 12.8156 4.50185 13.3637 4.65953Z" fill="#333333"/>
<path fill-rule="evenodd" clip-rule="evenodd" d="M13.8367 5.64574C14.0981 5.32442 14.5705 5.27585 14.8918 5.53725C16.0751 6.49987 16.75 7.9384 16.75 10.4001C16.75 10.8143 16.4142 11.1501 16 11.1501C15.5858 11.1501 15.25 10.8143 15.25 10.4001C15.25 8.24566 14.6801 7.29867 13.9452 6.70084C13.6239 6.43944 13.5754 5.96706 13.8367 5.64574ZM4.0208 5.6187C4.29714 5.92726 4.271 6.40142 3.96244 6.67775C3.29763 7.27311 2.75 8.25396 2.75 10.4001C2.75 10.8143 2.41421 11.1501 2 11.1501C1.58579 11.1501 1.25 10.8143 1.25 10.4001C1.25 7.97443 1.88408 6.52543 2.96175 5.56033C3.27032 5.284 3.74447 5.31013 4.0208 5.6187Z" fill="#333333"/>
<path fill-rule="evenodd" clip-rule="evenodd" d="M2 9.65002C2.41421 9.65002 2.75 9.98581 2.75 10.4C2.75 12.547 3.31229 14.0393 4.33156 15.1196C4.61582 15.4209 4.60203 15.8956 4.30075 16.1798C3.99947 16.4641 3.5248 16.4503 3.24054 16.149C1.89448 14.7224 1.25 12.8248 1.25 10.4C1.25 9.98581 1.58579 9.65002 2 9.65002ZM16 9.65002C16.4142 9.65002 16.75 9.98581 16.75 10.4C16.75 12.8359 16.1332 14.7669 14.7813 16.1997C14.497 16.501 14.0224 16.5148 13.7211 16.2305C13.4198 15.9463 13.406 15.4716 13.6903 15.1703C14.7037 14.0962 15.25 12.5801 15.25 10.4C15.25 9.98581 15.5858 9.65002 16 9.65002Z" fill="#333333"/>
<path fill-rule="evenodd" clip-rule="evenodd" d="M5.10475 16.892C5.27176 16.513 5.71443 16.3411 6.09348 16.5081C6.30941 16.6032 6.56734 16.6105 6.99692 16.511C7.40046 16.4175 7.80335 16.6689 7.89681 17.0724C7.99028 17.476 7.73892 17.8788 7.33538 17.9723C6.78676 18.0994 6.14409 18.1695 5.48869 17.8807C5.10963 17.7137 4.93774 17.2711 5.10475 16.892ZM12.8953 16.892C13.0623 17.2711 12.8904 17.7137 12.5113 17.8807C11.8553 18.1698 11.2371 18.0987 10.6775 17.9736C10.2732 17.8832 10.0188 17.4823 10.1091 17.078C10.1995 16.6738 10.6005 16.4194 11.0047 16.5097C11.4585 16.6112 11.6912 16.603 11.9065 16.5081C12.2856 16.3411 12.7282 16.513 12.8953 16.892Z" fill="#333333"/>
<path fill-rule="evenodd" clip-rule="evenodd" d="M3.27135 15.0888C3.57264 14.8045 4.04731 14.8183 4.33156 15.1196C4.96175 15.7875 5.37855 16.193 6.09351 16.5081C6.47255 16.6751 6.64442 17.1178 6.4774 17.4968C6.31037 17.8759 5.86769 18.0477 5.48864 17.8807C4.4781 17.4354 3.88667 16.8338 3.24052 16.149C2.95627 15.8477 2.97007 15.373 3.27135 15.0888ZM14.7505 15.1395C15.0517 15.4237 15.0655 15.8984 14.7813 16.1997C14.1056 16.9158 13.4999 17.4451 12.5113 17.8807C12.1323 18.0477 11.6896 17.8759 11.5226 17.4968C11.3556 17.1178 11.5274 16.6751 11.9065 16.5081C12.6435 16.1833 13.0896 15.8069 13.6903 15.1703C13.9745 14.869 14.4492 14.8552 14.7505 15.1395Z" fill="#333333"/>
<path fill-rule="evenodd" clip-rule="evenodd" d="M12.1111 3.75C11.3375 3.75 9.75342 4.60172 9.75342 6.73429C9.75342 7.14851 9.41763 7.48429 9.00342 7.48429C8.5892 7.48429 8.25342 7.14851 8.25342 6.73429C8.25342 3.73161 10.5514 2.25 12.1111 2.25C12.5253 2.25 12.8611 2.58579 12.8611 3C12.8611 3.41421 12.5253 3.75 12.1111 3.75Z" fill="#333333"/>
<path fill-rule="evenodd" clip-rule="evenodd" d="M4.33333 10.0278C4.74755 10.0278 5.08333 10.3636 5.08333 10.7778C5.08333 11.1759 5.08776 11.7489 5.24461 12.2587C5.39522 12.7481 5.64142 13.054 6.07079 13.1613C6.47264 13.2618 6.71696 13.669 6.6165 14.0708C6.51604 14.4727 6.10883 14.717 5.70699 14.6165C4.58081 14.335 4.04923 13.4742 3.81094 12.6998C3.58309 11.9593 3.58325 11.1859 3.58333 10.7988C3.58333 10.7917 3.58333 10.7847 3.58333 10.7778C3.58333 10.3636 3.91912 10.0278 4.33333 10.0278Z" fill="#333333"/>
</svg>
