<svg width="24" height="24" viewBox="0 0 24 24" fill="none" xmlns="http://www.w3.org/2000/svg">
<path fill-rule="evenodd" clip-rule="evenodd" d="M7.72266 3.30005C6.9523 3.30005 6.28358 3.74097 5.95758 4.38766C5.77112 4.75753 5.32012 4.90622 4.95025 4.71976C4.58038 4.53331 4.43169 4.08231 4.61815 3.71244C5.18919 2.57967 6.36421 1.80005 7.72266 1.80005C9.64185 1.80005 11.1977 3.35586 11.1977 5.27505C11.1977 7.19424 9.64185 8.75005 7.72266 8.75005L3 8.75004C2.58578 8.75004 2.25 8.41425 2.25 8.00003C2.25 7.58582 2.58579 7.25004 3 7.25004L7.72266 7.25005C8.81342 7.25005 9.69766 6.36581 9.69766 5.27505C9.69766 4.18429 8.81342 3.30005 7.72266 3.30005Z" fill="#333333"/>
<path fill-rule="evenodd" clip-rule="evenodd" d="M11.6953 20.7C10.925 20.7 10.2562 20.259 9.93023 19.6123C9.74378 19.2425 9.29278 19.0938 8.92291 19.2802C8.55303 19.4667 8.40435 19.9177 8.5908 20.2876C9.16185 21.4203 10.3369 22.2 11.6953 22.2C13.6145 22.2 15.1703 20.6441 15.1703 18.725C15.1703 16.8058 13.6145 15.25 11.6953 15.25L3 15.25C2.58578 15.25 2.25 15.5858 2.25 16C2.25 16.4142 2.58579 16.75 3 16.75L11.6953 16.75C12.7861 16.75 13.6703 17.6342 13.6703 18.725C13.6703 19.8157 12.7861 20.7 11.6953 20.7Z" fill="#333333"/>
<path fill-rule="evenodd" clip-rule="evenodd" d="M18.2774 7.30005C17.507 7.30005 16.8383 7.74097 16.5123 8.38766C16.3259 8.75753 15.8749 8.90622 15.505 8.71976C15.1351 8.53331 14.9864 8.08231 15.1729 7.71244C15.7439 6.57967 16.9189 5.80005 18.2774 5.80005C20.1966 5.80005 21.7524 7.35586 21.7524 9.27505C21.7524 10.3248 21.1564 11.2023 20.422 11.7882C19.6858 12.3755 18.7179 12.75 17.7774 12.75C17.7774 12.75 17.7774 12.75 17.7774 12.75L3.00002 12.7505C2.58581 12.7505 2.25001 12.4147 2.25 12.0005C2.24999 11.5863 2.58577 11.2505 2.99998 11.2505L17.7773 11.25C18.3418 11.25 18.9864 11.0146 19.4865 10.6156C19.9883 10.2153 20.2524 9.73029 20.2524 9.27505C20.2524 8.18429 19.3682 7.30005 18.2774 7.30005Z" fill="#333333"/>
</svg>
