<svg width="24" height="24" viewBox="0 0 24 24" fill="none" xmlns="http://www.w3.org/2000/svg">
<path d="M21 16C21 13.6553 17.866 11 13.0667 11L9 14L7.42866 18C8.24384 19.7659 10.1962 21 13.0667 21C17.866 21 21 18.3447 21 16Z" fill="#E7BC82"/>
<path fill-rule="evenodd" clip-rule="evenodd" d="M18.4064 13.2375C17.1617 12.3766 15.331 11.75 13.0667 11.75L13.0667 10.25C15.6017 10.25 17.7376 10.951 19.2597 12.0039C20.7609 13.0422 21.75 14.4937 21.75 16C21.75 17.5063 20.7609 18.9578 19.2597 19.9961C17.7376 21.049 15.6017 21.75 13.0667 21.75C9.97866 21.75 7.71408 20.4078 6.74771 18.3143L8.10961 17.6857C8.7736 19.1241 10.4138 20.25 13.0667 20.25C15.331 20.25 17.1617 19.6234 18.4064 18.7625C19.6721 17.887 20.25 16.8385 20.25 16C20.25 15.1615 19.6721 14.113 18.4064 13.2375Z" fill="#333333"/>
<path d="M13 11.9333C13 15.7993 10.7614 18 8 18C5.23858 18 3 15.7993 3 11.9333C3 7.13399 5.65525 4 8 4C10.3447 4 13 7.13399 13 11.9333Z" fill="#E7BC82"/>
<path fill-rule="evenodd" clip-rule="evenodd" d="M5.23754 6.59356C4.37659 7.83825 3.75 9.66902 3.75 11.9333C3.75 13.7228 4.26662 15.0519 5.02874 15.9224C5.78655 16.7879 6.8284 17.25 8 17.25C9.1716 17.25 10.2134 16.7879 10.9713 15.9224C11.7334 15.0519 12.25 13.7228 12.25 11.9333C12.25 9.66902 11.6234 7.83825 10.7625 6.59356C9.88697 5.32786 8.83846 4.75 8 4.75C7.16154 4.75 6.11303 5.32786 5.23754 6.59356ZM4.0039 5.74026C5.04222 4.23914 6.49371 3.25 8 3.25C9.50629 3.25 10.9578 4.23914 11.9961 5.74026C13.049 7.2624 13.75 9.39828 13.75 11.9333C13.75 14.0099 13.1473 15.7141 12.0998 16.9105C11.048 18.1118 9.58981 18.75 8 18.75C6.41019 18.75 4.95203 18.1118 3.90019 16.9105C2.85268 15.7141 2.25 14.0099 2.25 11.9333C2.25 9.39828 2.95104 7.2624 4.0039 5.74026Z" fill="#333333"/>
</svg>
