<svg width="24" height="24" viewBox="0 0 24 24" fill="none" xmlns="http://www.w3.org/2000/svg">
<path fill-rule="evenodd" clip-rule="evenodd" d="M1.25 2C1.25 1.58579 1.58579 1.25 2 1.25H4C4.41421 1.25 4.75 1.58579 4.75 2C4.75 2.41421 4.41421 2.75 4 2.75H2.75V4C2.75 4.41421 2.41421 4.75 2 4.75C1.58579 4.75 1.25 4.41421 1.25 4V2Z" fill="#666666"/>
<path fill-rule="evenodd" clip-rule="evenodd" d="M22.75 22C22.75 22.4142 22.4142 22.75 22 22.75H20C19.5858 22.75 19.25 22.4142 19.25 22C19.25 21.5858 19.5858 21.25 20 21.25H21.25V20C21.25 19.5858 21.5858 19.25 22 19.25C22.4142 19.25 22.75 19.5858 22.75 20V22Z" fill="#666666"/>
<path fill-rule="evenodd" clip-rule="evenodd" d="M22.75 2C22.75 1.58579 22.4142 1.25 22 1.25H20C19.5858 1.25 19.25 1.58579 19.25 2C19.25 2.41421 19.5858 2.75 20 2.75H21.25V4C21.25 4.41421 21.5858 4.75 22 4.75C22.4142 4.75 22.75 4.41421 22.75 4V2Z" fill="#666666"/>
<path fill-rule="evenodd" clip-rule="evenodd" d="M1.25 22C1.25 22.4142 1.58579 22.75 2 22.75H4C4.41421 22.75 4.75 22.4142 4.75 22C4.75 21.5858 4.41421 21.25 4 21.25H2.75V20C2.75 19.5858 2.41421 19.25 2 19.25C1.58579 19.25 1.25 19.5858 1.25 20V22Z" fill="#666666"/>
<path fill-rule="evenodd" clip-rule="evenodd" d="M1.75 12C1.75 11.5858 2.08579 11.25 2.5 11.25H21.5C21.9142 11.25 22.25 11.5858 22.25 12C22.25 12.4142 21.9142 12.75 21.5 12.75H2.5C2.08579 12.75 1.75 12.4142 1.75 12Z" fill="#666666"/>
<path d="M6.20222 8.27489C6.9889 8.89366 9.27303 7.99539 10.1449 6.76859C10.5324 6.22333 11.2966 4.71494 9.59276 3.50402C7.88889 2.2931 6.71567 3.51093 6.3282 4.05616C5.45633 5.28297 5.41554 7.65612 6.20222 8.27489Z" fill="#F2AE58"/>
<path fill-rule="evenodd" clip-rule="evenodd" d="M11.0526 5.4037C11.0212 6.10993 10.6854 6.69839 10.4709 7.00031C9.97611 7.69648 9.11222 8.26778 8.28564 8.58698C7.86834 8.74813 7.43893 8.85367 7.04679 8.87263C6.66369 8.89116 6.25978 8.82914 5.95486 8.58929C5.6643 8.36075 5.48686 8.00436 5.38251 7.6363C5.27592 7.26034 5.23212 6.82574 5.24331 6.38343C5.26546 5.50787 5.50612 4.52231 6.00208 3.82445C6.21663 3.52254 6.66194 3.01189 7.31857 2.75C8.00716 2.47537 8.86871 2.49878 9.8244 3.17798L9.8244 3.17798C10.7801 3.85717 11.0855 4.6631 11.0526 5.4037ZM10.2534 5.36818C10.2735 4.91553 10.1092 4.3618 9.36097 3.83007L9.59268 3.50403L9.36097 3.83007C8.61279 3.29835 8.0358 3.32522 7.61494 3.49308C7.16214 3.67368 6.82709 4.04456 6.65418 4.28787L6.65418 4.28788C6.27826 4.81683 6.0626 5.63125 6.04305 6.40366C6.0334 6.78533 6.07241 7.13672 6.15218 7.41809C6.23419 7.70736 6.34666 7.87965 6.44944 7.9605C6.53786 8.03004 6.71447 8.08777 7.00814 8.07357C7.29278 8.0598 7.63639 7.98012 7.99744 7.84069C8.72756 7.55875 9.44166 7.06751 9.81876 6.53688C9.99169 6.29355 10.2318 5.85518 10.2534 5.36818Z" fill="#333333"/>
<path fill-rule="evenodd" clip-rule="evenodd" d="M6.30669 8.09353C6.493 8.21225 6.54779 8.45951 6.42907 8.64582L5.7283 9.74556C5.60958 9.93186 5.36231 9.98666 5.17601 9.86794C4.98971 9.74922 4.93491 9.50195 5.05363 9.31565L5.7544 8.21591C5.87312 8.02961 6.12039 7.97481 6.30669 8.09353Z" fill="#333333"/>
<path d="M5.02698 10.0429C4.78502 10.0838 4.5557 9.92082 4.51478 9.67886C4.47385 9.4369 4.63683 9.20758 4.87879 9.16666C5.12075 9.12573 5.35007 9.28871 5.39099 9.53067C5.43191 9.77263 5.26894 10.0019 5.02698 10.0429Z" fill="#333333"/>
<path d="M7.71849 4.55558C7.55917 4.60671 7.38858 4.51901 7.33744 4.3597C7.28631 4.20039 7.37401 4.02979 7.53332 3.97866C7.69263 3.92753 7.86323 4.01523 7.91436 4.17454C7.96549 4.33385 7.8778 4.50445 7.71849 4.55558Z" fill="#333333"/>
<path d="M8.34983 5.2013C8.19052 5.25243 8.01992 5.16473 7.96879 5.00542C7.91766 4.84611 8.00536 4.67551 8.16467 4.62438C8.32398 4.57325 8.49458 4.66095 8.54571 4.82026C8.59684 4.97957 8.50914 5.15017 8.34983 5.2013Z" fill="#333333"/>
<path d="M7.58079 5.44826C7.42148 5.49939 7.25088 5.4117 7.19975 5.25239C7.14862 5.09308 7.23631 4.92248 7.39562 4.87135C7.55493 4.82021 7.72553 4.90791 7.77667 5.06722C7.8278 5.22653 7.7401 5.39713 7.58079 5.44826Z" fill="#333333"/>
<path d="M5.53968 10.4068C5.29772 10.4477 5.06839 10.2848 5.02747 10.0428C4.98655 9.80085 5.14952 9.57153 5.39148 9.53061C5.63344 9.48969 5.86276 9.65266 5.90369 9.89462C5.94461 10.1366 5.78164 10.3659 5.53968 10.4068Z" fill="#333333"/>
<path d="M20 7.07407C20 8.69002 18.433 10 16.5 10C14.567 10 13 8.69002 13 7.07407C13 5.99107 13.7038 5.00591 14.75 4.5L15.2212 4.28847L15.5 5.50002L16.5 5.00002L17.5 5.50002L17.6913 4.28847L18.075 4.5C19.2169 4.98186 20 5.93172 20 7.07407Z" fill="#E35824"/>
<path fill-rule="evenodd" clip-rule="evenodd" d="M15.586 4.12463C15.6765 4.32616 15.5865 4.56289 15.385 4.65337L14.9192 4.86251C13.9885 5.31457 13.4 6.17247 13.4 7.07407C13.4 8.40498 14.7178 9.6 16.5 9.6C18.2822 9.6 19.6 8.40498 19.6 7.07407C19.6 6.13465 18.9563 5.30605 17.9195 4.86853C17.9066 4.86311 17.8941 4.85702 17.8818 4.85029L17.4982 4.63875C17.3047 4.53208 17.2344 4.28879 17.341 4.09533C17.4477 3.90187 17.691 3.83152 17.8845 3.93818L18.2502 4.13985C19.4872 4.66899 20.4 5.7359 20.4 7.07407C20.4 8.97506 18.5838 10.4 16.5 10.4C14.4162 10.4 12.6 8.97506 12.6 7.07407C12.6 5.81128 13.417 4.70028 14.5758 4.1399L14.5861 4.13495L14.5861 4.13509L15.0573 3.92356C15.2588 3.83307 15.4956 3.9231 15.586 4.12463Z" fill="#333333"/>
<path d="M16.5005 3L17.1099 3.75246L18.5005 3.86909L17.4865 4.54166L17.7805 5.5L16.5005 5.05882L15.2205 5.5L15.5144 4.54166L14.5005 3.86909L15.8911 3.75246L16.5005 3Z" fill="#7CC150"/>
<path fill-rule="evenodd" clip-rule="evenodd" d="M16.5005 2.60001C16.6212 2.60001 16.7354 2.65448 16.8113 2.74826L17.3134 3.36813L18.5339 3.4705C18.7036 3.48473 18.8457 3.60481 18.888 3.76975C18.9302 3.93468 18.8635 4.10831 18.7216 4.20243L17.9565 4.70991L18.1629 5.38271C18.207 5.52659 18.1667 5.68308 18.0584 5.78766C17.9502 5.89224 17.7924 5.92722 17.6501 5.87817L16.5005 5.48192L15.3508 5.87817C15.2085 5.92722 15.0508 5.89224 14.9425 5.78766C14.8343 5.68308 14.7939 5.5266 14.8381 5.38271L15.0444 4.70991L14.2794 4.20243C14.1375 4.10831 14.0707 3.93468 14.113 3.76975C14.1553 3.60481 14.2974 3.48473 14.4671 3.4705L15.6876 3.36812L16.1897 2.74825C16.2656 2.65448 16.3798 2.60001 16.5005 2.60001ZM16.5005 3.63556L16.2019 4.00422C16.1333 4.08892 16.0331 4.14196 15.9245 4.15107L15.6801 4.17156L15.7355 4.20833C15.8832 4.30625 15.9488 4.4896 15.8968 4.65896L15.8334 4.86564L16.3701 4.68066C16.4546 4.65155 16.5464 4.65155 16.6308 4.68066L17.1675 4.86564L17.1041 4.65897C17.0522 4.48961 17.1178 4.30625 17.2654 4.20833L17.3209 4.17156L17.0765 4.15107C16.9678 4.14196 16.8677 4.08892 16.7991 4.00421L16.5005 3.63556Z" fill="#333333"/>
<path d="M18.5102 18.8496C17.6027 20.5564 16.0979 21.0025 14.8788 20.3543C13.6597 19.7062 13.1879 18.2092 14.0954 16.5024C15.2219 14.3836 17.1298 13.6233 18.1649 14.1736C19.2001 14.724 19.6367 16.7308 18.5102 18.8496Z" fill="#E7BC82"/>
<path fill-rule="evenodd" clip-rule="evenodd" d="M16.348 14.6924C15.6808 15.0373 14.9779 15.6945 14.4486 16.6902C14.0308 17.476 13.9485 18.1778 14.079 18.734C14.2087 19.2867 14.5555 19.7294 15.0665 20.0011C15.5776 20.2729 16.1386 20.3127 16.6693 20.1112C17.2033 19.9083 17.7392 19.4476 18.157 18.6619C18.6864 17.6662 18.8382 16.716 18.7509 15.9699C18.662 15.2104 18.3375 14.7184 17.9771 14.5268C17.6168 14.3352 17.0274 14.3413 16.348 14.6924ZM15.9808 13.9817C16.7957 13.5605 17.6779 13.4616 18.3527 13.8204C19.0275 14.1792 19.4389 14.9658 19.5455 15.877C19.6536 16.8017 19.4605 17.9143 18.8633 19.0374C18.3737 19.9584 17.7034 20.5742 16.9534 20.859C16.2001 21.1451 15.399 21.084 14.691 20.7075C13.983 20.3311 13.4843 19.7012 13.3002 18.9167C13.1169 18.1356 13.2525 17.2356 13.7422 16.3146C14.3393 15.1915 15.1537 14.4092 15.9808 13.9817Z" fill="#333333"/>
<path fill-rule="evenodd" clip-rule="evenodd" d="M7.72343 20.2715C8.15879 20.2715 8.33787 20.5061 8.57123 20.5582C8.80458 20.6104 9.00048 20.6249 9.2011 20.5365C9.59839 20.3614 9.84058 20.1529 10.1344 19.8414C10.6791 19.2642 10.9469 18.4706 10.9469 17.4077C10.9469 16.3449 10.6603 15.7956 10.2186 15.4364C9.77697 15.0771 9.52085 15.0083 8.98682 15.0771C8.45277 15.1459 8.16198 15.7197 7.72492 15.7197C7.28787 15.7197 6.7552 15.1539 6.29178 15.0771C5.82836 15.0002 5.57448 15.0771 5.17328 15.4364C4.77208 15.7956 4.5 16.3551 4.5 17.4077C4.5 18.4604 4.77785 19.2409 5.32246 19.8181C5.61633 20.1295 5.84847 20.3614 6.24576 20.5365C6.44638 20.6249 6.65373 20.6104 6.87896 20.5582C7.10421 20.5061 7.28329 20.2715 7.72343 20.2715Z" fill="#E05954"/>
<path fill-rule="evenodd" clip-rule="evenodd" d="M5.89717 15.0117C5.93331 14.7937 6.13928 14.6463 6.35722 14.6825C6.53422 14.7118 6.69812 14.7837 6.83531 14.8556C6.95525 14.9184 7.07619 14.993 7.18237 15.0585C7.19781 15.068 7.21295 15.0774 7.22772 15.0865C7.3516 15.1626 7.45451 15.2235 7.54811 15.2663C7.64327 15.3098 7.69794 15.3197 7.72492 15.3197C7.77885 15.3197 7.84734 15.286 8.07282 15.1093C8.07921 15.1043 8.08574 15.0992 8.09241 15.094C8.27421 14.9512 8.55688 14.7292 8.9357 14.6804C9.1548 14.6521 9.35531 14.8069 9.38354 15.026C9.41178 15.2451 9.25705 15.4456 9.03795 15.4738C8.89661 15.492 8.77357 15.5766 8.56619 15.7391C8.55638 15.7468 8.54609 15.7549 8.53532 15.7634C8.36754 15.8962 8.08495 16.1197 7.72492 16.1197C7.53339 16.1197 7.35758 16.0589 7.21546 15.9939C7.07179 15.9282 6.93062 15.8429 6.80877 15.768C6.79244 15.758 6.77644 15.7481 6.76073 15.7384C6.65197 15.6714 6.55726 15.613 6.46421 15.5643C6.35753 15.5084 6.28106 15.4808 6.22635 15.4717C6.00841 15.4356 5.86104 15.2296 5.89717 15.0117ZM7.23134 20.8449C7.16614 20.8794 7.07637 20.9231 6.96919 20.9479C6.75397 20.9978 6.5391 20.8637 6.48928 20.6485C6.43945 20.4332 6.57353 20.2184 6.78875 20.1686C6.79419 20.1673 6.81128 20.1621 6.85675 20.138C6.86225 20.1351 6.87584 20.1276 6.89364 20.1177C6.93552 20.0945 7.00075 20.0584 7.03907 20.0389C7.20484 19.9545 7.42242 19.8715 7.72344 19.8715C8.02298 19.8715 8.23945 19.955 8.40416 20.0387C8.44287 20.0583 8.47858 20.0779 8.5084 20.0943C8.51175 20.0962 8.515 20.098 8.51817 20.0997C8.54497 20.1145 8.56572 20.126 8.58605 20.1365C8.63135 20.1601 8.65031 20.1661 8.65847 20.1679C8.87406 20.2161 9.00978 20.4299 8.9616 20.6455C8.91343 20.8611 8.69959 20.9968 8.484 20.9486C8.37548 20.9244 8.28454 20.8814 8.21702 20.8463C8.18722 20.8309 8.15726 20.8143 8.13175 20.8002C8.12844 20.7984 8.1252 20.7966 8.12205 20.7949C8.0928 20.7787 8.06748 20.7649 8.04201 20.752C7.95 20.7053 7.85925 20.6715 7.72344 20.6715C7.58431 20.6715 7.49228 20.7058 7.40216 20.7518C7.36368 20.7714 7.34395 20.7826 7.32055 20.7959C7.29937 20.8079 7.27518 20.8217 7.23134 20.8449Z" fill="#333333"/>
<path fill-rule="evenodd" clip-rule="evenodd" d="M9.9083 15.1839C10.0477 15.0126 10.2996 14.9867 10.471 15.1261C11.0322 15.5826 11.3468 16.263 11.3468 17.4077C11.3468 17.6287 11.1677 17.8077 10.9468 17.8077C10.7259 17.8077 10.5468 17.6287 10.5468 17.4077C10.5468 16.4268 10.2882 16.0087 9.96616 15.7467C9.79479 15.6072 9.76889 15.3553 9.9083 15.1839ZM5.47123 15.1695C5.61861 15.3341 5.60467 15.587 5.44011 15.7343C5.14901 15.995 4.89998 16.4296 4.89998 17.4077C4.89998 17.6287 4.72089 17.8077 4.49998 17.8077C4.27906 17.8077 4.09998 17.6287 4.09998 17.4077C4.09998 16.2806 4.39511 15.5963 4.9064 15.1384C5.07097 14.991 5.32386 15.0049 5.47123 15.1695Z" fill="#333333"/>
<path fill-rule="evenodd" clip-rule="evenodd" d="M5.58797 14.712C5.84342 14.6308 6.09328 14.6387 6.35714 14.6825C6.57508 14.7186 6.72245 14.9246 6.68631 15.1425C6.65016 15.3605 6.44419 15.5079 6.22625 15.4717C6.0267 15.4386 5.9179 15.4465 5.83026 15.4744C5.73744 15.5039 5.62359 15.57 5.44004 15.7344C5.27547 15.8817 5.02259 15.8678 4.87521 15.7032C4.72784 15.5386 4.74178 15.2858 4.90635 15.1384C5.124 14.9435 5.33769 14.7915 5.58797 14.712ZM9.74788 14.7118C10.0097 14.7871 10.2335 14.9329 10.471 15.1261C10.6423 15.2655 10.6682 15.5174 10.5288 15.6888C10.3894 15.8602 10.1375 15.8861 9.96611 15.7467C9.76191 15.5806 9.63684 15.5123 9.52668 15.4806C9.41755 15.4492 9.2833 15.4422 9.03787 15.4738C8.81877 15.5021 8.61826 15.3473 8.59002 15.1282C8.56177 14.9091 8.71649 14.7086 8.9356 14.6804C9.2242 14.6432 9.48502 14.6362 9.74788 14.7118Z" fill="#333333"/>
<path fill-rule="evenodd" clip-rule="evenodd" d="M5.87964 20.3752C5.96871 20.173 6.2048 20.0814 6.40696 20.1704C6.49039 20.2072 6.59515 20.2134 6.78863 20.1686C7.00385 20.1187 7.21873 20.2528 7.26857 20.468C7.31842 20.6832 7.18436 20.8981 6.96914 20.9479C6.71217 21.0074 6.40222 21.0426 6.0844 20.9025C5.88224 20.8135 5.79056 20.5774 5.87964 20.3752ZM9.56707 20.3752C9.65615 20.5774 9.56447 20.8135 9.36231 20.9025C9.04419 21.0427 8.74547 21.0071 8.48389 20.9486C8.2683 20.9004 8.13259 20.6866 8.18079 20.471C8.22898 20.2554 8.44282 20.1197 8.65842 20.1679C8.86355 20.2137 8.95662 20.2071 9.03975 20.1704C9.24191 20.0814 9.478 20.173 9.56707 20.3752Z" fill="#333333"/>
<path fill-rule="evenodd" clip-rule="evenodd" d="M5.04798 19.5271C5.20867 19.3755 5.46183 19.3829 5.61343 19.5436C5.90304 19.8505 6.08862 20.0301 6.40708 20.1705C6.60924 20.2595 6.7009 20.4956 6.61182 20.6978C6.52274 20.8999 6.28664 20.9916 6.08449 20.9025C5.60837 20.6927 5.32967 20.4086 5.03154 20.0926C4.87994 19.9319 4.8873 19.6787 5.04798 19.5271ZM10.409 19.5505C10.5697 19.7021 10.577 19.9553 10.4254 20.1159C10.1116 20.4486 9.82679 20.6979 9.36243 20.9025C9.16027 20.9916 8.92418 20.8999 8.83509 20.6978C8.74601 20.4956 8.83768 20.2595 9.03983 20.1705C9.37005 20.0249 9.56966 19.8572 9.84354 19.5669C9.99515 19.4062 10.2483 19.3989 10.409 19.5505Z" fill="#333333"/>
<path fill-rule="evenodd" clip-rule="evenodd" d="M4.49998 17.0078C4.72089 17.0078 4.89998 17.1868 4.89998 17.4078C4.89998 18.3863 5.15591 19.0587 5.61337 19.5436C5.76498 19.7043 5.75762 19.9574 5.59694 20.109C5.43626 20.2606 5.1831 20.2533 5.03149 20.0926C4.39974 19.423 4.09998 18.5345 4.09998 17.4078C4.09998 17.1868 4.27906 17.0078 4.49998 17.0078ZM10.9468 17.0078C11.1677 17.0078 11.3468 17.1868 11.3468 17.4078C11.3468 18.5388 11.0602 19.4431 10.4254 20.1159C10.2738 20.2766 10.0206 20.284 9.85992 20.1324C9.69923 19.9808 9.69188 19.7276 9.84348 19.5669C10.2978 19.0854 10.5468 18.4024 10.5468 17.4078C10.5468 17.1868 10.7259 17.0078 10.9468 17.0078Z" fill="#333333"/>
<path fill-rule="evenodd" clip-rule="evenodd" d="M9.15577 14.4C8.82816 14.4 8.12471 14.7693 8.12471 15.7196C8.12471 15.9405 7.94562 16.1196 7.72471 16.1196C7.50379 16.1196 7.32471 15.9405 7.32471 15.7196C7.32471 14.3052 8.4089 13.6 9.15577 13.6C9.37668 13.6 9.55577 13.7791 9.55577 14C9.55577 14.2209 9.37668 14.4 9.15577 14.4Z" fill="#333333"/>
<path fill-rule="evenodd" clip-rule="evenodd" d="M5.57432 17.1816C5.79523 17.1816 5.97432 17.3607 5.97432 17.5816C5.97432 17.7656 5.97668 18.0216 6.04617 18.2475C6.11233 18.4625 6.21531 18.5831 6.38765 18.6262C6.60197 18.6798 6.73227 18.897 6.6787 19.1113C6.62512 19.3256 6.40794 19.4559 6.19362 19.4023C5.64965 19.2663 5.39447 18.8497 5.28155 18.4827C5.17417 18.1338 5.17427 17.7708 5.17432 17.5924C5.17432 17.5888 5.17432 17.5852 5.17432 17.5816C5.17432 17.3607 5.35341 17.1816 5.57432 17.1816Z" fill="#333333"/>
</svg>
