<svg width="24" height="24" viewBox="0 0 24 24" fill="none" xmlns="http://www.w3.org/2000/svg">
<path fill-rule="evenodd" clip-rule="evenodd" d="M1.25 2C1.25 1.58579 1.58579 1.25 2 1.25H4C4.41421 1.25 4.75 1.58579 4.75 2C4.75 2.41421 4.41421 2.75 4 2.75H2.75V4C2.75 4.41421 2.41421 4.75 2 4.75C1.58579 4.75 1.25 4.41421 1.25 4V2Z" fill="#666666"/>
<path fill-rule="evenodd" clip-rule="evenodd" d="M22.75 22C22.75 22.4142 22.4142 22.75 22 22.75H20C19.5858 22.75 19.25 22.4142 19.25 22C19.25 21.5858 19.5858 21.25 20 21.25H21.25V20C21.25 19.5858 21.5858 19.25 22 19.25C22.4142 19.25 22.75 19.5858 22.75 20V22Z" fill="#666666"/>
<path fill-rule="evenodd" clip-rule="evenodd" d="M22.75 2C22.75 1.58579 22.4142 1.25 22 1.25H20C19.5858 1.25 19.25 1.58579 19.25 2C19.25 2.41421 19.5858 2.75 20 2.75H21.25V4C21.25 4.41421 21.5858 4.75 22 4.75C22.4142 4.75 22.75 4.41421 22.75 4V2Z" fill="#666666"/>
<path fill-rule="evenodd" clip-rule="evenodd" d="M1.25 22C1.25 22.4142 1.58579 22.75 2 22.75H4C4.41421 22.75 4.75 22.4142 4.75 22C4.75 21.5858 4.41421 21.25 4 21.25H2.75V20C2.75 19.5858 2.41421 19.25 2 19.25C1.58579 19.25 1.25 19.5858 1.25 20V22Z" fill="#666666"/>
<path fill-rule="evenodd" clip-rule="evenodd" d="M2.75 12C2.75 11.5858 3.08579 11.25 3.5 11.25H20.5C20.9142 11.25 21.25 11.5858 21.25 12C21.25 12.4142 20.9142 12.75 20.5 12.75H3.5C3.08579 12.75 2.75 12.4142 2.75 12Z" fill="#666666"/>
<path fill-rule="evenodd" clip-rule="evenodd" d="M16.9004 15.489C16.9363 15.531 16.9312 15.5941 16.8892 15.63L15.1133 17.1435C15.0713 17.1793 15.0082 17.1743 14.9724 17.1323C14.9365 17.0902 14.9416 17.0271 14.9836 16.9913L16.7595 15.4778C16.8015 15.4419 16.8646 15.447 16.9004 15.489Z" fill="#104990"/>
<path fill-rule="evenodd" clip-rule="evenodd" d="M17.279 15.933C17.3148 15.975 17.3098 16.0381 17.2677 16.0739L15.4919 17.5875C15.4498 17.6233 15.3867 17.6183 15.3509 17.5762C15.3151 17.5342 15.3201 17.4711 15.3621 17.4352L17.138 15.9217C17.18 15.8859 17.2432 15.8909 17.279 15.933Z" fill="#104990"/>
<path fill-rule="evenodd" clip-rule="evenodd" d="M15.7654 14.1571C15.8013 14.1992 15.7962 14.2623 15.7542 14.2981L13.9783 15.8116C13.9363 15.8474 13.8732 15.8424 13.8374 15.8004C13.8015 15.7583 13.8066 15.6952 13.8486 15.6594L15.6245 14.1459C15.6665 14.1101 15.7296 14.1151 15.7654 14.1571Z" fill="#104990"/>
<path fill-rule="evenodd" clip-rule="evenodd" d="M18.414 17.2649C18.4498 17.3069 18.4448 17.37 18.4027 17.4058L16.6269 18.9194C16.5849 18.9552 16.5217 18.9502 16.4859 18.9081C16.4501 18.8661 16.4551 18.803 16.4972 18.7672L18.273 17.2536C18.315 17.2178 18.3782 17.2228 18.414 17.2649Z" fill="#104990"/>
<path fill-rule="evenodd" clip-rule="evenodd" d="M18.7925 17.7088C18.8284 17.7509 18.8233 17.814 18.7813 17.8498L17.0054 19.3633C16.9634 19.3992 16.9003 19.3941 16.8645 19.3521C16.8286 19.3101 16.8337 19.2469 16.8757 19.2111L18.6516 17.6976C18.6936 17.6618 18.7567 17.6668 18.7925 17.7088Z" fill="#104990"/>
<path fill-rule="evenodd" clip-rule="evenodd" d="M19.9277 19.0407C19.9635 19.0828 19.9584 19.1459 19.9164 19.1817L18.1406 20.6952C18.0985 20.7311 18.0354 20.726 17.9996 20.684C17.9638 20.642 17.9688 20.5788 18.0108 20.543L19.7867 19.0295C19.8287 18.9937 19.8918 18.9987 19.9277 19.0407Z" fill="#104990"/>
<path fill-rule="evenodd" clip-rule="evenodd" d="M17.4824 19.7559C17.1249 19.7599 16.7385 19.667 16.4468 19.3247C16.3035 19.1566 16.3236 18.9041 16.4917 18.7608C16.6599 18.6175 16.9123 18.6377 17.0556 18.8058C17.1423 18.9075 17.2616 18.9583 17.4736 18.956C17.7027 18.9535 17.9711 18.8893 18.3 18.8081C18.3077 18.8062 18.3155 18.8042 18.3234 18.8023C18.6228 18.7283 18.9777 18.6406 19.3093 18.6369C19.6668 18.6329 20.0533 18.7258 20.345 19.0681C20.4883 19.2362 20.4682 19.4887 20.3 19.632C20.1319 19.7753 19.8794 19.7552 19.7361 19.587C19.6495 19.4853 19.5302 19.4345 19.3182 19.4368C19.0891 19.4394 18.8207 19.5035 18.4918 19.5847C18.484 19.5867 18.4762 19.5886 18.4684 19.5905C18.1689 19.6646 17.8141 19.7523 17.4824 19.7559Z" fill="#333333"/>
<path fill-rule="evenodd" clip-rule="evenodd" d="M19.0932 18.3832C19.1538 18.0308 19.1233 17.6345 18.8316 17.2922C18.6883 17.1241 18.4358 17.104 18.2677 17.2473C18.0995 17.3906 18.0794 17.643 18.2227 17.8112C18.3094 17.9129 18.3407 18.0387 18.3048 18.2476C18.2659 18.4734 18.1601 18.7283 18.0278 19.0401C18.0246 19.0475 18.0215 19.0549 18.0183 19.0624C17.8978 19.3463 17.7549 19.6827 17.6987 20.0096C17.6382 20.362 17.6687 20.7583 17.9604 21.1006C18.1037 21.2687 18.3561 21.2888 18.5243 21.1455C18.6924 21.0022 18.7125 20.7498 18.5692 20.5816C18.4826 20.4799 18.4513 20.3541 18.4872 20.1452C18.526 19.9194 18.6318 19.6645 18.7642 19.3527C18.7673 19.3453 18.7705 19.3379 18.7736 19.3305C18.8942 19.0465 19.037 18.7101 19.0932 18.3832Z" fill="#333333"/>
<path fill-rule="evenodd" clip-rule="evenodd" d="M14.4555 16.2042C14.098 16.2082 13.7115 16.1153 13.4198 15.773C13.2765 15.6049 13.2966 15.3524 13.4648 15.2091C13.6329 15.0658 13.8854 15.0859 14.0286 15.2541C14.1153 15.3558 14.2346 15.4066 14.4466 15.4043C14.6757 15.4017 14.9441 15.3376 15.273 15.2564C15.2808 15.2544 15.2886 15.2525 15.2964 15.2506C15.5959 15.1765 15.9507 15.0888 16.2824 15.0852C16.6399 15.0812 17.0263 15.1741 17.318 15.5164C17.4613 15.6845 17.4412 15.937 17.2731 16.0803C17.1049 16.2236 16.8525 16.2035 16.7092 16.0353C16.6225 15.9336 16.5032 15.8828 16.2912 15.8851C16.0621 15.8877 15.7937 15.9518 15.4648 16.033C15.4571 16.0349 15.4493 16.0369 15.4414 16.0388C15.1419 16.1128 14.7871 16.2005 14.4555 16.2042Z" fill="#333333"/>
<path fill-rule="evenodd" clip-rule="evenodd" d="M16.0661 14.8315C16.1267 14.4791 16.0962 14.0828 15.8045 13.7405C15.6612 13.5724 15.4087 13.5523 15.2406 13.6956C15.0724 13.8389 15.0523 14.0913 15.1956 14.2595C15.2823 14.3611 15.3136 14.487 15.2777 14.6959C15.2388 14.9217 15.133 15.1766 15.0007 15.4884C14.9975 15.4958 14.9944 15.5032 14.9912 15.5106C14.8707 15.7946 14.7278 16.131 14.6716 16.4579C14.6111 16.8103 14.6416 17.2066 14.9333 17.5488C15.225 17.8911 15.6114 17.984 15.9689 17.9801C16.3006 17.9764 16.6554 17.8887 16.9549 17.8147C16.9627 17.8127 16.9706 17.8108 16.9783 17.8089C17.3072 17.7276 17.5756 17.6635 17.8047 17.661C18.0167 17.6586 18.136 17.7095 18.2227 17.8112C18.366 17.9793 18.6184 17.9994 18.7866 17.8561C18.9547 17.7128 18.9748 17.4604 18.8315 17.2922C18.5398 16.95 18.1534 16.8571 17.7959 16.861C17.4642 16.8647 17.1094 16.9524 16.8099 17.0264C16.802 17.0284 16.7942 17.0303 16.7865 17.0322C16.4576 17.1135 16.1892 17.1776 15.9601 17.1801C15.7481 17.1825 15.6288 17.1316 15.5421 17.0299C15.4555 16.9282 15.4242 16.8024 15.4601 16.5935C15.4989 16.3676 15.6047 16.1128 15.7371 15.8009C15.7402 15.7936 15.7434 15.7862 15.7465 15.7787C15.8671 15.4948 16.0099 15.1583 16.0661 14.8315Z" fill="#333333"/>
<path fill-rule="evenodd" clip-rule="evenodd" d="M16.7542 15.4714C16.9223 15.3281 17.1748 15.3483 17.3181 15.5164C17.6098 15.8587 17.6403 16.255 17.5797 16.6073C17.5235 16.9342 17.3807 17.2706 17.2601 17.5546C17.2569 17.562 17.2538 17.5694 17.2507 17.5768C17.1183 17.8886 17.0125 18.1435 16.9737 18.3693C16.9378 18.5782 16.9691 18.7041 17.0557 18.8058C17.199 18.9739 17.1789 19.2264 17.0108 19.3697C16.8426 19.513 16.5902 19.4928 16.4469 19.3247C16.1552 18.9824 16.1247 18.5861 16.1852 18.2338C16.2414 17.9069 16.3843 17.5704 16.5048 17.2865C16.508 17.2791 16.5111 17.2716 16.5142 17.2643C16.6466 16.9524 16.7524 16.6976 16.7913 16.4718C16.8272 16.2629 16.7959 16.137 16.7092 16.0353C16.5659 15.8672 16.586 15.6147 16.7542 15.4714Z" fill="#333333"/>
<path d="M16.0001 6.5L15 5.50002L16.9704 3.52962L18.5001 4L19.0001 5L18.5001 6.5L17.0001 7L16.0001 6.5Z" fill="#4B9F53"/>
<path d="M15.005 6.11347L16.3709 6.70023L16.3033 8.23866L15.8135 9.55529L14.7001 9.45368L13.6883 8.23866L14.0533 6.70021L15.005 6.11347Z" fill="white"/>
<path fill-rule="evenodd" clip-rule="evenodd" d="M14.1248 9.75607C13.1949 9.07843 12.9905 7.77531 13.6681 6.84548L15.6509 4.12477C16.3286 3.19494 17.6317 2.99049 18.5615 3.66813C19.4913 4.34577 19.6958 5.64889 19.0181 6.57872L18.9157 6.71925L18.1485 6.41365L18.3716 6.10755C18.789 5.53478 18.6631 4.73208 18.0903 4.31466C17.5176 3.89724 16.7149 4.02317 16.2974 4.59594L14.3147 7.31665C13.8972 7.88942 14.0232 8.69212 14.5959 9.10954C15.133 9.50092 15.8722 9.41462 16.3064 8.93021L16.8751 9.49385C16.1669 10.2547 14.9858 10.3836 14.1248 9.75607Z" fill="#333333"/>
<path fill-rule="evenodd" clip-rule="evenodd" d="M14.6597 5.4851C14.7898 5.30657 15.04 5.26731 15.2185 5.39742L16.9189 6.63666C17.0975 6.76677 17.1367 7.01698 17.0066 7.19551C16.8765 7.37404 16.6263 7.4133 16.4478 7.28319L14.7473 6.04395C14.5688 5.91384 14.5295 5.66363 14.6597 5.4851Z" fill="#333333"/>
<path d="M18.0909 9.89389C16.5 9.89389 16.1818 8.93935 16.1818 8.93935V7.66664C16.1818 7.66664 16.4999 6.7121 18.0908 6.7121C19.6817 6.7121 19.9999 7.66664 19.9999 7.66664L20 8.06923L19.9999 8.93935C19.9999 8.93935 19.6817 9.89389 18.0909 9.89389Z" fill="white"/>
<path fill-rule="evenodd" clip-rule="evenodd" d="M16.5588 7.53317C16.4863 7.32806 16.2625 7.21807 16.0552 7.28715C15.8457 7.35701 15.7324 7.58354 15.8023 7.79312L16.1817 7.66663C15.8023 7.79312 15.8023 7.7934 15.8024 7.79368L15.8026 7.79428L15.8031 7.79553L15.804 7.7983L15.8064 7.80492L15.8129 7.82232C15.8181 7.83571 15.8251 7.85261 15.8341 7.87251C15.8521 7.91228 15.8783 7.96431 15.915 8.02435C15.9884 8.14454 16.1041 8.2974 16.2794 8.4476C16.6366 8.75382 17.2086 9.02116 18.0908 9.02116C18.973 9.02116 19.545 8.75382 19.9022 8.4476C20.0775 8.2974 20.1932 8.14454 20.2666 8.02435C20.3033 7.96431 20.3296 7.91228 20.3475 7.87251C20.3565 7.85261 20.3635 7.83571 20.3687 7.82232L20.3752 7.80492L20.3776 7.7983L20.3785 7.79553L20.379 7.79428L20.3792 7.79368C20.3793 7.7934 20.3794 7.79312 19.9999 7.66663L20.3794 7.79312C20.4492 7.58354 20.3359 7.35701 20.1264 7.28715C19.9191 7.21807 19.6953 7.32806 19.6228 7.53317C19.623 7.53277 19.6231 7.5325 19.6231 7.53237C19.6232 7.53207 19.623 7.53253 19.6226 7.5338L19.6217 7.53634L19.6211 7.53807L19.6208 7.53906L19.6206 7.53959C19.6213 7.53744 19.622 7.5353 19.6228 7.53317C19.6222 7.53464 19.6209 7.53791 19.6187 7.54277C19.613 7.55521 19.602 7.57775 19.584 7.60719C19.5481 7.66598 19.4848 7.75175 19.3816 7.84019C19.1821 8.01124 18.7995 8.22116 18.0908 8.22116C17.3821 8.22116 16.9995 8.01124 16.8 7.84019C16.6968 7.75175 16.6335 7.66598 16.5976 7.60719C16.5796 7.57775 16.5686 7.55521 16.5629 7.54277C16.5607 7.53791 16.5594 7.53464 16.5588 7.53317Z" fill="#4D4D4D"/>
<path fill-rule="evenodd" clip-rule="evenodd" d="M16.2795 6.88566C16.6368 6.57944 17.2087 6.3121 18.0909 6.3121C18.9732 6.3121 19.5451 6.57944 19.9024 6.88566C20.0776 7.03586 20.1933 7.18872 20.2668 7.30891C20.3034 7.36895 20.3297 7.42098 20.3477 7.46075C20.3567 7.48066 20.3637 7.49756 20.3689 7.51094L20.3754 7.52834L20.3777 7.53496L20.3787 7.53773L20.3791 7.53899C20.3792 7.53927 20.3795 7.54014 20 7.66663L20.3795 7.54014C20.3931 7.58091 20.4 7.62361 20.4 7.66658V8.93938C20.4 8.98236 20.3931 9.02506 20.3795 9.06584L20 8.93935C20.3795 9.06584 20.3796 9.06556 20.3795 9.06584L20.3791 9.067L20.3787 9.06825L20.3777 9.07103L20.3754 9.07765L20.3689 9.09505C20.3637 9.10843 20.3567 9.12533 20.3477 9.14523C20.3297 9.185 20.3035 9.23703 20.2668 9.29708C20.1933 9.41726 20.0776 9.57013 19.9024 9.72032C19.5451 10.0265 18.9732 10.2939 18.091 10.2939C17.2088 10.2939 16.6368 10.0265 16.2795 9.72033C16.1043 9.57014 15.9886 9.41728 15.9152 9.2971C15.8785 9.23706 15.8522 9.18503 15.8342 9.14527C15.8252 9.12536 15.8182 9.10846 15.813 9.09508L15.8065 9.07769L15.8042 9.07106L15.8032 9.06829L15.8028 9.06704C15.8027 9.06675 15.8024 9.06588 16.1819 8.93935L15.8024 9.06588C15.7888 9.02508 15.7819 8.98236 15.7819 8.93935V7.66663C15.7819 7.62364 15.7888 7.58093 15.8024 7.54014L16.1819 7.66663C15.8024 7.54014 15.8023 7.54043 15.8024 7.54014L15.8028 7.53899L15.8032 7.53773L15.8042 7.53496L15.8065 7.52834L15.813 7.51094C15.8182 7.49756 15.8252 7.48066 15.8342 7.46075C15.8522 7.42098 15.8784 7.36895 15.9151 7.30891C15.9886 7.18872 16.1043 7.03586 16.2795 6.88566ZM16.5819 7.75337V8.8526C16.5864 8.86083 16.5917 8.86997 16.5977 8.8799C16.6337 8.93869 16.697 9.02446 16.8002 9.11291C16.9997 9.28397 17.3823 9.49389 18.091 9.49389C18.7996 9.49389 19.1822 9.28397 19.3817 9.11292C19.4849 9.02448 19.5482 8.93871 19.5841 8.87992C19.5902 8.86999 19.5955 8.86085 19.6 8.85261L19.6 7.75339C19.5955 7.74515 19.5902 7.736 19.5841 7.72607C19.5482 7.66728 19.4849 7.58151 19.3817 7.49307C19.1822 7.32202 18.7996 7.1121 18.0909 7.1121C17.3823 7.1121 16.9997 7.32202 16.8001 7.49307C16.6969 7.58151 16.6337 7.66728 16.5977 7.72607C16.5917 7.73599 16.5864 7.74513 16.5819 7.75337Z" fill="#333333"/>
<path fill-rule="evenodd" clip-rule="evenodd" d="M18.6075 7.40821C18.7063 7.60581 18.6262 7.84607 18.4286 7.94487L18.1105 8.10396C17.9129 8.20276 17.6726 8.12267 17.5738 7.92507C17.475 7.72748 17.5551 7.48721 17.7527 7.38842L18.0709 7.22933C18.2685 7.13053 18.5087 7.21062 18.6075 7.40821Z" fill="#333333"/>
<path d="M5 6.27274C5 5.72046 5.44772 5.27274 6 5.27274H10.5C11.0523 5.27274 11.5 5.72046 11.5 6.27274V9.00002C11.5 9.5523 11.0523 10 10.5 10H6C5.44772 10 5 9.5523 5 9.00002V6.27274Z" fill="white"/>
<path fill-rule="evenodd" clip-rule="evenodd" d="M4.59998 6.27275C4.59998 5.49955 5.22678 4.87275 5.99998 4.87275H10.5C11.2732 4.87275 11.9 5.49955 11.9 6.27275V9.00002C11.9 9.77322 11.2732 10.4 10.5 10.4H5.99998C5.22678 10.4 4.59998 9.77322 4.59998 9.00002V6.27275ZM5.99998 5.67275C5.6686 5.67275 5.39998 5.94138 5.39998 6.27275V9.00002C5.39998 9.33139 5.6686 9.60002 5.99998 9.60002H10.5C10.8313 9.60002 11.1 9.33139 11.1 9.00002V6.27275C11.1 5.94138 10.8313 5.67275 10.5 5.67275H5.99998Z" fill="#333333"/>
<path fill-rule="evenodd" clip-rule="evenodd" d="M6.37256 4.5C6.37256 3.7268 6.99936 3.1 7.77256 3.1H8.7271C9.5003 3.1 10.1271 3.7268 10.1271 4.5V5.27273C10.1271 5.49364 9.94802 5.67273 9.7271 5.67273H6.77256C6.55164 5.67273 6.37256 5.49364 6.37256 5.27273V4.5ZM7.77256 3.9C7.44119 3.9 7.17256 4.16863 7.17256 4.5V4.87273H9.3271V4.5C9.3271 4.16863 9.05847 3.9 8.7271 3.9H7.77256Z" fill="#333333"/>
<path fill-rule="evenodd" clip-rule="evenodd" d="M6.66785 7.63637C6.66785 7.41545 6.84693 7.23637 7.06785 7.23637H9.43148C9.6524 7.23637 9.83148 7.41545 9.83148 7.63637C9.83148 7.85728 9.6524 8.03637 9.43148 8.03637H7.06785C6.84693 8.03637 6.66785 7.85728 6.66785 7.63637Z" fill="#FD6663"/>
<path fill-rule="evenodd" clip-rule="evenodd" d="M8.24978 6.05458C8.47069 6.05458 8.64978 6.23367 8.64978 6.45458L8.64978 8.81822C8.64978 9.03913 8.47069 9.21822 8.24978 9.21822C8.02887 9.21822 7.84978 9.03913 7.84978 8.81822L7.84978 6.45458C7.84978 6.23367 8.02887 6.05458 8.24978 6.05458Z" fill="#FD6663"/>
<path fill-rule="evenodd" clip-rule="evenodd" d="M6.22498 15.625C6.22498 14.5066 7.1316 13.6 8.24998 13.6C9.36835 13.6 10.275 14.5066 10.275 15.625C10.275 16.7434 9.36835 17.65 8.24998 17.65C7.1316 17.65 6.22498 16.7434 6.22498 15.625ZM8.24998 14.4C7.57343 14.4 7.02498 14.9484 7.02498 15.625C7.02498 16.3015 7.57343 16.85 8.24998 16.85C8.92652 16.85 9.47498 16.3015 9.47498 15.625C9.47498 14.9484 8.92652 14.4 8.24998 14.4Z" fill="#333333"/>
<path fill-rule="evenodd" clip-rule="evenodd" d="M7.84998 18.3333C7.84998 18.1124 8.02906 17.9333 8.24998 17.9333C9.72748 17.9333 10.6471 18.531 11.1916 19.1533C11.4593 19.4592 11.6312 19.7647 11.7366 19.9948C11.7895 20.1102 11.8262 20.2077 11.8502 20.2784C11.8622 20.3138 11.8711 20.3426 11.8772 20.3637C11.8803 20.3742 11.8827 20.3829 11.8845 20.3894L11.8867 20.3978L11.8875 20.4008L11.8878 20.402C11.8878 20.402 11.2402 20.5649 11.888 20.403C11.9416 20.6173 11.8113 20.8345 11.597 20.888C11.3828 20.9416 11.1658 20.8115 11.112 20.5975L11.1124 20.599V20.599L11.1092 20.5877C11.1061 20.577 11.1007 20.5593 11.0926 20.5354C11.0764 20.4876 11.0496 20.4159 11.0094 20.3281C10.9287 20.152 10.7959 19.9158 10.5896 19.6801C10.1861 19.219 9.4808 18.7333 8.24998 18.7333C8.02906 18.7333 7.84998 18.5542 7.84998 18.3333Z" fill="#333333"/>
<path fill-rule="evenodd" clip-rule="evenodd" d="M5.3879 20.5974C5.33414 20.8115 5.11711 20.9416 4.90293 20.888C4.68862 20.8345 4.55831 20.6173 4.61189 20.403C5.25971 20.5649 4.61172 20.4036 4.61189 20.403L4.61214 20.402L4.61244 20.4008L4.61321 20.3978L4.61543 20.3894C4.61721 20.3829 4.61961 20.3742 4.62269 20.3637C4.62885 20.3426 4.63771 20.3138 4.64972 20.2784C4.67371 20.2077 4.71039 20.1102 4.76328 19.9948C4.86875 19.7647 5.04062 19.4592 5.30829 19.1533C5.85278 18.531 6.77244 17.9333 8.24995 17.9333C8.47086 17.9333 8.64995 18.1124 8.64995 18.3333C8.64995 18.5542 8.47086 18.7333 8.24995 18.7333C7.01912 18.7333 6.31378 19.219 5.91035 19.6801C5.70407 19.9158 5.57125 20.152 5.49053 20.3281C5.45031 20.4159 5.42352 20.4876 5.4073 20.5354C5.39921 20.5593 5.3938 20.577 5.39069 20.5877L5.3879 20.5974ZM5.38765 20.5984C5.38763 20.5985 5.38763 20.5985 5.38765 20.5984Z" fill="#333333"/>
</svg>
