<svg width="24" height="24" viewBox="0 0 24 24" fill="none" xmlns="http://www.w3.org/2000/svg">
<path fill-rule="evenodd" clip-rule="evenodd" d="M1.25 2C1.25 1.58579 1.58579 1.25 2 1.25H4C4.41421 1.25 4.75 1.58579 4.75 2C4.75 2.41421 4.41421 2.75 4 2.75H2.75V4C2.75 4.41421 2.41421 4.75 2 4.75C1.58579 4.75 1.25 4.41421 1.25 4V2Z" fill="#666666"/>
<path fill-rule="evenodd" clip-rule="evenodd" d="M22.75 22C22.75 22.4142 22.4142 22.75 22 22.75H20C19.5858 22.75 19.25 22.4142 19.25 22C19.25 21.5858 19.5858 21.25 20 21.25H21.25V20C21.25 19.5858 21.5858 19.25 22 19.25C22.4142 19.25 22.75 19.5858 22.75 20V22Z" fill="#666666"/>
<path fill-rule="evenodd" clip-rule="evenodd" d="M22.75 2C22.75 1.58579 22.4142 1.25 22 1.25H20C19.5858 1.25 19.25 1.58579 19.25 2C19.25 2.41421 19.5858 2.75 20 2.75H21.25V4C21.25 4.41421 21.5858 4.75 22 4.75C22.4142 4.75 22.75 4.41421 22.75 4V2Z" fill="#666666"/>
<path fill-rule="evenodd" clip-rule="evenodd" d="M1.25 22C1.25 22.4142 1.58579 22.75 2 22.75H4C4.41421 22.75 4.75 22.4142 4.75 22C4.75 21.5858 4.41421 21.25 4 21.25H2.75V20C2.75 19.5858 2.41421 19.25 2 19.25C1.58579 19.25 1.25 19.5858 1.25 20V22Z" fill="#666666"/>
<path fill-rule="evenodd" clip-rule="evenodd" d="M3.25 12C3.25 11.5858 3.58579 11.25 4 11.25H21C21.4142 11.25 21.75 11.5858 21.75 12C21.75 12.4142 21.4142 12.75 21 12.75H4C3.58579 12.75 3.25 12.4142 3.25 12Z" fill="#666666"/>
<path fill-rule="evenodd" clip-rule="evenodd" d="M6.24911 14.4C6.01171 14.4 5.80529 14.5357 5.70451 14.7356C5.60507 14.9329 5.36454 15.0122 5.16727 14.9127C4.97001 14.8133 4.89071 14.5728 4.99015 14.3755C5.22161 13.9164 5.69806 13.6 6.24911 13.6C7.02742 13.6 7.65836 14.231 7.65836 15.0093C7.65836 15.7876 7.02742 16.4185 6.24911 16.4185L4.49998 16.4185C4.27906 16.4185 4.09998 16.2394 4.09998 16.0185C4.09998 15.7976 4.27906 15.6185 4.49998 15.6185L6.24911 15.6185C6.58559 15.6185 6.85836 15.3457 6.85836 15.0093C6.85836 14.6728 6.58559 14.4 6.24911 14.4Z" fill="#333333"/>
<path fill-rule="evenodd" clip-rule="evenodd" d="M7.72046 20.6C7.48306 20.6 7.27664 20.4643 7.17586 20.2644C7.07642 20.0671 6.83589 19.9878 6.63862 20.0873C6.44136 20.1867 6.36206 20.4272 6.4615 20.6245C6.69297 21.0836 7.16941 21.4 7.72046 21.4C8.49877 21.4 9.12972 20.769 9.12972 19.9907C9.12972 19.2124 8.49877 18.5815 7.72046 18.5815L4.49998 18.5815C4.27906 18.5815 4.09997 18.7606 4.09998 18.9815C4.09998 19.2024 4.27906 19.3815 4.49998 19.3815L7.72046 19.3815C8.05694 19.3815 8.32972 19.6543 8.32972 19.9907C8.32972 20.3272 8.05694 20.6 7.72046 20.6Z" fill="#333333"/>
<path fill-rule="evenodd" clip-rule="evenodd" d="M10.1583 15.8815C9.92086 15.8815 9.71445 16.0172 9.61367 16.2171C9.51423 16.4144 9.27369 16.4937 9.07643 16.3942C8.87916 16.2948 8.79986 16.0542 8.89931 15.857C9.13077 15.3978 9.60722 15.0815 10.1583 15.0815C10.9366 15.0815 11.5675 15.7124 11.5675 16.4907C11.5675 16.928 11.3198 17.2849 11.0288 17.5171C10.7369 17.7499 10.3521 17.9 9.97307 17.9C9.97307 17.9 9.97307 17.9 9.97307 17.9L4.49999 17.9002C4.27907 17.9002 4.09998 17.7211 4.09998 17.5002C4.09997 17.2792 4.27905 17.1002 4.49996 17.1002L9.97305 17.1C10.1515 17.1 10.3639 17.0241 10.5299 16.8917C10.6968 16.7586 10.7675 16.6109 10.7675 16.4907C10.7675 16.1543 10.4947 15.8815 10.1583 15.8815Z" fill="#333333"/>
<path d="M16.1048 14C16.1048 14 17.979 15.1833 18.6302 17.1353C19.2445 18.9767 17.7959 21.1253 15.8594 20.9915L-nan -nanL-nan -nanL15.8594 20.9915C14.2466 20.8802 13.0208 19.2337 13.3088 17.6429C13.7167 15.3903 16.1048 14 16.1048 14Z" fill="#64C2FF"/>
<path fill-rule="evenodd" clip-rule="evenodd" d="M16.3184 13.6618L16.1048 14L15.9036 13.6543C16.0324 13.5793 16.1923 13.5822 16.3184 13.6618ZM16.0958 14.4813C16.0549 14.5092 16.0089 14.5412 15.9588 14.5772C15.7406 14.734 15.4453 14.9658 15.1384 15.2637C14.5182 15.8659 13.8851 16.7052 13.7024 17.7142C13.4549 19.0815 14.5231 20.4983 15.8869 20.5925C16.6902 20.648 17.4114 20.2325 17.874 19.5741C18.338 18.9139 18.5128 18.0474 18.2507 17.2619C17.9527 16.3684 17.3685 15.6368 16.8431 15.1211C16.5823 14.8651 16.3408 14.6671 16.1656 14.5337C16.1409 14.5149 16.1176 14.4975 16.0958 14.4813ZM15.9036 13.6543C15.9037 13.6542 15.9036 13.6543 16.1048 14C16.3184 13.6618 16.3183 13.6617 16.3184 13.6618L16.3195 13.6625L16.3213 13.6636L16.3269 13.6673L16.346 13.6797C16.3621 13.6903 16.3849 13.7055 16.4135 13.7252C16.4708 13.7647 16.5517 13.8222 16.65 13.8971C16.8466 14.0466 17.1144 14.2664 17.4035 14.5502C17.978 15.1141 18.6565 15.9502 19.0096 17.0088C19.3619 18.0647 19.1195 19.1931 18.5286 20.0341C17.9364 20.8769 16.9651 21.4689 15.8318 21.3906C13.9702 21.262 12.5868 19.3858 12.9152 17.5717C13.1404 16.3281 13.9053 15.3459 14.5811 14.6897C14.9223 14.3585 15.2494 14.1019 15.4918 13.9277C15.6132 13.8404 15.714 13.7733 15.7854 13.7275C15.8211 13.7046 15.8495 13.6869 15.8696 13.6747L15.8932 13.6604L15.9001 13.6563L15.9023 13.6551L15.9036 13.6543Z" fill="#333333"/>
<path fill-rule="evenodd" clip-rule="evenodd" d="M17.8 17.8C18.0209 17.8 18.2 17.9791 18.2 18.2C18.2 18.7117 18.0477 19.2347 17.7507 19.6397C17.4487 20.0515 16.9868 20.35 16.4 20.35C16.1791 20.35 16 20.1709 16 19.95C16 19.7291 16.1791 19.55 16.4 19.55C16.6882 19.55 16.9263 19.411 17.1056 19.1666C17.2898 18.9153 17.4 18.5633 17.4 18.2C17.4 17.9791 17.5791 17.8 17.8 17.8Z" fill="#333333"/>
<path d="M14.5811 8.86485H15.7162V9.99999H14.5811V8.86485Z" fill="#333333"/>
<path d="M16.0946 8.86485H17.2297V9.99999H16.0946V8.86485Z" fill="#333333"/>
<path d="M14.8126 3.575C15.229 3.89011 15.153 4.7734 14.833 4.96872L14.8126 4.96714C13.2611 5.15178 13.39 3.23746 13.5147 3.24868C13.6395 3.25989 14.3962 3.25989 14.8126 3.575Z" fill="#629C15"/>
<path fill-rule="evenodd" clip-rule="evenodd" d="M13.3409 3.06292C13.3783 3.03101 13.4463 2.99151 13.5371 2.99967C13.5434 3.00023 13.557 3.00089 13.5765 3.00184C13.6649 3.00613 13.8759 3.01639 14.0935 3.05096C14.3611 3.09345 14.7048 3.1799 14.9635 3.37563C15.2643 3.6033 15.3567 4.00184 15.3489 4.32288C15.3448 4.49041 15.3137 4.65863 15.2558 4.80489C15.1997 4.94653 15.1076 5.09396 14.9633 5.18209C14.9194 5.20886 14.8684 5.22145 14.8172 5.2182C14.3875 5.26427 14.0459 5.16885 13.7876 4.97483C13.5295 4.78101 13.3804 4.50826 13.2971 4.24951C13.2138 3.99058 13.1907 3.72893 13.1968 3.53072C13.1999 3.43231 13.2103 3.3407 13.2282 3.26755C13.2366 3.2332 13.25 3.18853 13.2731 3.14679C13.2845 3.12639 13.3055 3.09307 13.3409 3.06292ZM14.7349 4.7239C14.7516 4.70257 14.7716 4.66964 14.7909 4.6208C14.8242 4.53667 14.8462 4.42775 14.849 4.31066C14.8551 4.06244 14.7773 3.86178 14.6618 3.77434C14.504 3.65496 14.2612 3.58385 14.0151 3.54477C13.8929 3.52536 13.786 3.5156 13.6982 3.50973C13.6975 3.52123 13.697 3.53336 13.6966 3.5461C13.6919 3.6979 13.7103 3.90118 13.7731 4.09635C13.8359 4.2917 13.9376 4.46221 14.0879 4.57504C14.2258 4.67861 14.4278 4.75127 14.7349 4.7239Z" fill="#333333"/>
<path d="M16.3525 3.62694C15.974 4.19438 16.1321 4.93564 16.5417 5.32964C18.4024 5.31402 17.866 3.0595 17.6768 3.05937C17.4876 3.05924 16.7309 3.0595 16.3525 3.62694Z" fill="#629C15"/>
<path fill-rule="evenodd" clip-rule="evenodd" d="M17.0199 2.88913C16.7253 2.96951 16.3788 3.13704 16.1446 3.48822C15.6912 4.16799 15.8822 5.042 16.3685 5.5098C16.4155 5.55511 16.4785 5.58017 16.5439 5.57963C17.0631 5.57527 17.4466 5.4125 17.7096 5.14294C17.9677 4.87856 18.084 4.53789 18.1259 4.22148C18.1678 3.90464 18.1381 3.59225 18.0849 3.35685C18.0584 3.23967 18.0241 3.13282 17.9848 3.04953C17.9657 3.0091 17.9405 2.96357 17.9073 2.92399C17.8851 2.89764 17.8073 2.80945 17.6771 2.80936L17.676 2.80936C17.577 2.8093 17.3131 2.80911 17.0199 2.88913ZM17.5527 3.31164C17.5671 3.35123 17.5828 3.40347 17.5972 3.46705C17.6396 3.65491 17.6631 3.90714 17.6302 4.1559C17.5972 4.40509 17.5106 4.63099 17.3518 4.79372C17.2118 4.93716 16.9944 5.05352 16.6464 5.07585C16.3664 4.74228 16.2789 4.18793 16.5605 3.76564C16.7048 3.54939 16.9258 3.43307 17.1515 3.37149C17.3033 3.33008 17.447 3.31624 17.5527 3.31164Z" fill="#333333"/>
<path fill-rule="evenodd" clip-rule="evenodd" d="M14.1468 3.97985C14.2271 3.86749 14.3832 3.84147 14.4955 3.92172C14.7506 4.10392 15.0662 4.45477 15.2902 4.84682C15.5089 5.22961 15.6808 5.72307 15.5333 6.16558C15.4897 6.29656 15.3481 6.36736 15.2171 6.3237C15.0861 6.28004 15.0153 6.13846 15.059 6.00747C15.1366 5.77471 15.0562 5.44514 14.8561 5.09489C14.6612 4.75391 14.3913 4.46171 14.2049 4.32859C14.0926 4.24834 14.0666 4.0922 14.1468 3.97985Z" fill="#333333"/>
<path fill-rule="evenodd" clip-rule="evenodd" d="M17.061 4.17726C16.9469 4.09948 16.7914 4.12889 16.7136 4.24297C16.2528 4.91879 16.2054 5.51582 16.251 6.02237C16.2633 6.15989 16.3848 6.26135 16.5224 6.24899C16.6599 6.23663 16.7613 6.11513 16.749 5.97761C16.7109 5.55437 16.7472 5.0812 17.1267 4.52466C17.2045 4.41058 17.1751 4.25505 17.061 4.17726Z" fill="#333333"/>
<path d="M18.9324 7.16216C18.9324 7.94581 17.4726 8.86486 15.9053 8.86486C14.338 8.86486 12.8783 7.94581 12.8783 7.16216C12.8783 6.37851 14.338 6.02702 15.9053 6.02702C17.4726 6.02702 18.9324 6.37851 18.9324 7.16216Z" fill="#997F5A"/>
<path fill-rule="evenodd" clip-rule="evenodd" d="M13.2968 6.84119C13.1753 6.94901 13.1283 7.05415 13.1283 7.16216C13.1283 7.28028 13.1844 7.4302 13.324 7.6001C13.4621 7.76812 13.6684 7.93854 13.9302 8.09153C14.4541 8.39765 15.1675 8.61486 15.9053 8.61486C16.6431 8.61486 17.3566 8.39765 17.8804 8.09153C18.1423 7.93854 18.3486 7.76812 18.4866 7.6001C18.6262 7.4302 18.6824 7.28028 18.6824 7.16216C18.6824 7.05415 18.6354 6.94901 18.5139 6.84119C18.3877 6.72924 18.1915 6.62535 17.9279 6.53804C17.4022 6.36385 16.675 6.27702 15.9053 6.27702C15.1357 6.27702 14.4084 6.36385 13.8827 6.53804C13.6192 6.62535 13.423 6.72924 13.2968 6.84119ZM13.7254 6.06341C14.3214 5.86594 15.1077 5.77702 15.9053 5.77702C16.7029 5.77702 17.4892 5.86594 18.0852 6.06341C18.3825 6.16192 18.6492 6.29284 18.8457 6.46719C19.0469 6.64568 19.1824 6.87834 19.1824 7.16216C19.1824 7.43586 19.056 7.69469 18.8729 7.91752C18.6883 8.14222 18.4317 8.34849 18.1327 8.52323C17.5349 8.87254 16.7348 9.11486 15.9053 9.11486C15.0758 9.11486 14.2757 8.87254 13.6779 8.52323C13.3789 8.34849 13.1223 8.14222 12.9377 7.91752C12.7546 7.69469 12.6283 7.43586 12.6283 7.16216C12.6283 6.87834 12.7638 6.64568 12.9649 6.46719C13.1615 6.29284 13.4281 6.16192 13.7254 6.06341Z" fill="#333333"/>
<path fill-rule="evenodd" clip-rule="evenodd" d="M12.3595 6.03087C12.5664 5.9533 12.7969 6.05811 12.8745 6.26495L13.3968 7.65766L13.4809 7.71376C13.481 7.71355 13.4812 7.71333 13.4813 7.71312C13.5949 7.52369 13.8407 7.46226 14.0301 7.57592L15.922 8.71105C16.0425 8.78334 16.1162 8.91355 16.1162 9.05405V10C16.1162 10.2209 15.9371 10.4 15.7162 10.4H14.7702C14.5493 10.4 14.3702 10.2209 14.3702 10V9.26813L12.8456 8.25174C12.7759 8.20521 12.7225 8.13791 12.693 8.05937L12.1254 6.54585C12.0479 6.339 12.1527 6.10844 12.3595 6.03087ZM15.1702 9.19296V9.6H15.3162V9.28053L15.1702 9.19296Z" fill="#333333"/>
<path fill-rule="evenodd" clip-rule="evenodd" d="M19.4513 6.03087C19.2444 5.9533 19.0139 6.05811 18.9363 6.26495L18.414 7.65766L18.3299 7.71376C18.3298 7.71355 18.3296 7.71333 18.3295 7.71312C18.2158 7.52369 17.9701 7.46226 17.7807 7.57592L15.8888 8.71105C15.7683 8.78334 15.6946 8.91355 15.6946 9.05405V10C15.6946 10.2209 15.8737 10.4 16.0946 10.4H17.0406C17.2615 10.4 17.4406 10.2209 17.4406 10V9.26813L18.9651 8.25174C19.0349 8.20521 19.0883 8.13791 19.1178 8.05937L19.6854 6.54585C19.7629 6.339 19.6581 6.10844 19.4513 6.03087ZM16.6406 9.19296V9.6H16.4946V9.28053L16.6406 9.19296Z" fill="#333333"/>
<path d="M6 3H9V4.5H6V3Z" fill="#FFEB83"/>
<path d="M5 5L7.5 4.5L9.5 5V10H5V5Z" fill="#CACACA"/>
<path fill-rule="evenodd" clip-rule="evenodd" d="M6.17775 3.40001V3.93668C6.17775 3.97786 6.19411 4.01734 6.22322 4.04646L6.33995 4.16318C6.60053 4.42377 6.49579 4.86748 6.14618 4.98402C5.70055 5.13256 5.39998 5.54959 5.39998 6.01932V9.60001H9.26664V6.01932C9.26664 5.54959 8.96607 5.13256 8.52044 4.98402C8.17083 4.86748 8.06608 4.42377 8.32667 4.16318L8.44339 4.04646C8.47251 4.01734 8.48886 3.97786 8.48886 3.93668V3.40001H6.17775ZM5.37775 3.07239C5.37775 2.8115 5.58925 2.60001 5.85013 2.60001H8.81649C9.07737 2.60001 9.28887 2.8115 9.28887 3.07239V3.93668C9.28887 4.10311 9.24543 4.26506 9.16485 4.40738C9.71654 4.74594 10.0666 5.35194 10.0666 6.01932V9.94858C10.0666 10.1979 9.86453 10.4 9.61521 10.4H5.0514C4.80209 10.4 4.59998 10.1979 4.59998 9.94858V6.01932C4.59998 5.35194 4.95008 4.74594 5.50177 4.40737C5.42118 4.26506 5.37775 4.10311 5.37775 3.93668V3.07239Z" fill="#333333"/>
<path fill-rule="evenodd" clip-rule="evenodd" d="M5.59998 4.50001C5.59998 4.27909 5.77906 4.10001 5.99998 4.10001H8.49998C8.72089 4.10001 8.89998 4.27909 8.89998 4.50001C8.89998 4.72092 8.72089 4.90001 8.49998 4.90001H5.99998C5.77906 4.90001 5.59998 4.72092 5.59998 4.50001Z" fill="#333333"/>
<path fill-rule="evenodd" clip-rule="evenodd" d="M8.10767 7.74616C8.10767 7.80139 8.15244 7.84616 8.20767 7.84616L8.6692 7.84616C8.72443 7.84616 8.7692 7.80139 8.7692 7.74616C8.7692 7.69093 8.72443 7.64616 8.6692 7.64616L8.20767 7.64616C8.15244 7.64616 8.10767 7.69093 8.10767 7.74616Z" fill="#333333"/>
<path fill-rule="evenodd" clip-rule="evenodd" d="M8.02975 7.00098C8.06881 7.04003 8.13212 7.04003 8.17117 7.00098L8.49753 6.67462C8.53658 6.63557 8.53658 6.57225 8.49753 6.5332C8.45848 6.49414 8.39516 6.49414 8.35611 6.5332L8.02975 6.85955C7.9907 6.89861 7.9907 6.96192 8.02975 7.00098Z" fill="#333333"/>
<path fill-rule="evenodd" clip-rule="evenodd" d="M6.07162 8.9591C6.11068 8.99816 6.17399 8.99816 6.21304 8.9591L6.5394 8.63275C6.57845 8.5937 6.57845 8.53038 6.5394 8.49133C6.50035 8.45227 6.43703 8.45227 6.39798 8.49133L6.07162 8.81768C6.03257 8.85674 6.03257 8.92005 6.07162 8.9591Z" fill="#333333"/>
<path fill-rule="evenodd" clip-rule="evenodd" d="M6.53927 7.00098C6.57833 6.96193 6.57833 6.89861 6.53927 6.85956L6.21292 6.5332C6.17387 6.49415 6.11055 6.49415 6.0715 6.5332C6.03244 6.57225 6.03244 6.63557 6.0715 6.67462L6.39785 7.00098C6.43691 7.04003 6.50022 7.04003 6.53927 7.00098Z" fill="#333333"/>
<path fill-rule="evenodd" clip-rule="evenodd" d="M8.49753 8.95911C8.53658 8.92006 8.53658 8.85674 8.49753 8.81769L8.17117 8.49133C8.13212 8.45228 8.0688 8.45228 8.02975 8.49133C7.9907 8.53038 7.9907 8.5937 8.02975 8.63275L8.35611 8.95911C8.39516 8.99816 8.45847 8.99816 8.49753 8.95911Z" fill="#333333"/>
<path fill-rule="evenodd" clip-rule="evenodd" d="M5.79993 7.74616C5.79993 7.80139 5.8447 7.84616 5.89993 7.84616L6.36147 7.84616C6.41669 7.84616 6.46147 7.80139 6.46147 7.74616C6.46147 7.69093 6.41669 7.64616 6.36147 7.64616L5.89993 7.64616C5.8447 7.64616 5.79993 7.69093 5.79993 7.74616Z" fill="#333333"/>
<path fill-rule="evenodd" clip-rule="evenodd" d="M7.28457 6.49231C7.3398 6.49231 7.38457 6.53708 7.38457 6.59231V8.9C7.38457 8.95523 7.3398 9 7.28457 9C7.22934 9 7.18457 8.95523 7.18457 8.9V6.59231C7.18457 6.53708 7.22934 6.49231 7.28457 6.49231Z" fill="#333333"/>
<path fill-rule="evenodd" clip-rule="evenodd" d="M6.63696 5.94468C6.67601 5.90563 6.73932 5.90563 6.77838 5.94468L7.00915 6.17545C7.0482 6.2145 7.0482 6.27782 7.00915 6.31687C6.97009 6.35592 6.90678 6.35592 6.86772 6.31687L6.63696 6.0861C6.5979 6.04705 6.5979 5.98373 6.63696 5.94468Z" fill="#333333"/>
<path fill-rule="evenodd" clip-rule="evenodd" d="M7.93214 5.94468C7.89308 5.90563 7.82977 5.90563 7.79072 5.94468L7.55995 6.17545C7.52089 6.2145 7.52089 6.27782 7.55995 6.31687C7.599 6.35592 7.66231 6.35592 7.70137 6.31687L7.93214 6.0861C7.97119 6.04705 7.97119 5.98373 7.93214 5.94468Z" fill="#333333"/>
<path fill-rule="evenodd" clip-rule="evenodd" d="M6.72302 6.61154C6.72302 6.29468 6.97062 6.03078 7.28456 6.03078C7.5985 6.03078 7.8461 6.29468 7.8461 6.61154V6.71731H7.6461V6.61154C7.6461 6.39737 7.48043 6.23078 7.28456 6.23078C7.0887 6.23078 6.92302 6.39737 6.92302 6.61154V6.71731H6.72302V6.61154Z" fill="#333333"/>
<path fill-rule="evenodd" clip-rule="evenodd" d="M6.26147 7.51539C6.26147 6.95036 6.71952 6.49231 7.28455 6.49231C7.84958 6.49231 8.30763 6.95036 8.30763 7.51539V7.97693C8.30763 8.54196 7.84958 9 7.28455 9C6.71952 9 6.26147 8.54195 6.26147 7.97693V7.51539ZM7.28455 6.69231C6.82998 6.69231 6.46147 7.06081 6.46147 7.51539V7.97693C6.46147 8.4315 6.82998 8.8 7.28455 8.8C7.73912 8.8 8.10763 8.4315 8.10763 7.97693V7.51539C8.10763 7.06081 7.73912 6.69231 7.28455 6.69231Z" fill="#333333"/>
<path fill-rule="evenodd" clip-rule="evenodd" d="M5.82922 5.82929C5.86827 5.79024 5.93159 5.79024 5.97064 5.82929L8.97064 8.82929C9.00969 8.86834 9.00969 8.93166 8.97064 8.97071C8.93158 9.00977 8.86827 9.00977 8.82922 8.97071L5.82922 5.97071C5.79016 5.93166 5.79016 5.86834 5.82922 5.82929Z" fill="#FF675A"/>
<path d="M16.1049 14C16.1049 14 17.979 15.1833 18.6302 17.1353C19.2445 18.9767 17.7959 21.1253 15.8594 20.9915V20.9915C14.2467 20.8802 13.0209 19.2337 13.3089 17.6429C13.7167 15.3903 16.1049 14 16.1049 14Z" fill="#64C2FF"/>
<path fill-rule="evenodd" clip-rule="evenodd" d="M16.3184 13.6618L16.1048 14L15.9036 13.6543C16.0324 13.5793 16.1923 13.5822 16.3184 13.6618ZM16.0958 14.4813C16.0549 14.5092 16.0089 14.5412 15.9588 14.5772C15.7406 14.734 15.4453 14.9658 15.1384 15.2637C14.5182 15.8659 13.8851 16.7052 13.7024 17.7142C13.4549 19.0815 14.5231 20.4983 15.8869 20.5925C16.6902 20.648 17.4114 20.2325 17.874 19.5741C18.338 18.9139 18.5128 18.0474 18.2507 17.2619C17.9527 16.3684 17.3685 15.6368 16.8431 15.1211C16.5823 14.8651 16.3408 14.6671 16.1656 14.5337C16.1409 14.5149 16.1176 14.4975 16.0958 14.4813ZM15.9036 13.6543C15.9037 13.6542 15.9036 13.6543 16.1048 14C16.3184 13.6618 16.3183 13.6617 16.3184 13.6618L16.3195 13.6625L16.3213 13.6636L16.3269 13.6673L16.346 13.6797C16.3621 13.6903 16.3849 13.7055 16.4135 13.7252C16.4708 13.7647 16.5517 13.8222 16.65 13.8971C16.8466 14.0466 17.1144 14.2664 17.4035 14.5502C17.978 15.1141 18.6565 15.9502 19.0096 17.0088C19.3619 18.0647 19.1195 19.1931 18.5286 20.0341C17.9364 20.8769 16.9651 21.4689 15.8318 21.3906C13.9702 21.262 12.5868 19.3858 12.9152 17.5717C13.1404 16.3281 13.9053 15.3459 14.5811 14.6897C14.9223 14.3585 15.2494 14.1019 15.4918 13.9277C15.6132 13.8404 15.714 13.7733 15.7854 13.7275C15.8211 13.7046 15.8495 13.6869 15.8696 13.6747L15.8932 13.6604L15.9001 13.6563L15.9023 13.6551L15.9036 13.6543Z" fill="#333333"/>
<path fill-rule="evenodd" clip-rule="evenodd" d="M17.8 17.8C18.0209 17.8 18.2 17.9791 18.2 18.2C18.2 18.7117 18.0477 19.2347 17.7507 19.6397C17.4487 20.0515 16.9868 20.35 16.4 20.35C16.1791 20.35 16 20.1709 16 19.95C16 19.7291 16.1791 19.55 16.4 19.55C16.6882 19.55 16.9263 19.411 17.1056 19.1666C17.2898 18.9153 17.4 18.5633 17.4 18.2C17.4 17.9791 17.5791 17.8 17.8 17.8Z" fill="#333333"/>
</svg>
