<svg width="24" height="24" viewBox="0 0 24 24" fill="none" xmlns="http://www.w3.org/2000/svg">
<path fill-rule="evenodd" clip-rule="evenodd" d="M1.25 2C1.25 1.58579 1.58579 1.25 2 1.25H4C4.41421 1.25 4.75 1.58579 4.75 2C4.75 2.41421 4.41421 2.75 4 2.75H2.75V4C2.75 4.41421 2.41421 4.75 2 4.75C1.58579 4.75 1.25 4.41421 1.25 4V2Z" fill="#666666"/>
<path fill-rule="evenodd" clip-rule="evenodd" d="M22.75 22C22.75 22.4142 22.4142 22.75 22 22.75H20C19.5858 22.75 19.25 22.4142 19.25 22C19.25 21.5858 19.5858 21.25 20 21.25H21.25V20C21.25 19.5858 21.5858 19.25 22 19.25C22.4142 19.25 22.75 19.5858 22.75 20V22Z" fill="#666666"/>
<path fill-rule="evenodd" clip-rule="evenodd" d="M22.75 2C22.75 1.58579 22.4142 1.25 22 1.25H20C19.5858 1.25 19.25 1.58579 19.25 2C19.25 2.41421 19.5858 2.75 20 2.75H21.25V4C21.25 4.41421 21.5858 4.75 22 4.75C22.4142 4.75 22.75 4.41421 22.75 4V2Z" fill="#666666"/>
<path fill-rule="evenodd" clip-rule="evenodd" d="M1.25 22C1.25 22.4142 1.58579 22.75 2 22.75H4C4.41421 22.75 4.75 22.4142 4.75 22C4.75 21.5858 4.41421 21.25 4 21.25H2.75V20C2.75 19.5858 2.41421 19.25 2 19.25C1.58579 19.25 1.25 19.5858 1.25 20V22Z" fill="#666666"/>
<path fill-rule="evenodd" clip-rule="evenodd" d="M3.25 12C3.25 11.5858 3.58579 11.25 4 11.25H21C21.4142 11.25 21.75 11.5858 21.75 12C21.75 12.4142 21.4142 12.75 21 12.75H4C3.58579 12.75 3.25 12.4142 3.25 12Z" fill="#666666"/>
<path d="M17.7 10.5H16.075L16.075 4H18.35L17.7 10.5Z" fill="white"/>
<path fill-rule="evenodd" clip-rule="evenodd" d="M15.9249 4C15.9249 3.91716 15.9921 3.85 16.0749 3.85H18.3499C18.3923 3.85 18.4327 3.86793 18.4611 3.89935C18.4896 3.93077 18.5034 3.97276 18.4992 4.01493L17.8492 10.5149C17.8415 10.5916 17.777 10.65 17.6999 10.65H16.0749C16.0351 10.65 15.997 10.6342 15.9689 10.6061C15.9407 10.5779 15.9249 10.5398 15.9249 10.5L15.9249 4ZM16.2249 4.15L16.2249 10.35H17.5642L18.1842 4.15H16.2249Z" fill="#333333"/>
<path d="M16.075 10.5H12.5L12.5 4H16.075L16.075 10.5Z" fill="#CCCCCC"/>
<path fill-rule="evenodd" clip-rule="evenodd" d="M12.35 4C12.35 3.91716 12.4171 3.85 12.5 3.85H16.075C16.1148 3.85 16.1529 3.8658 16.181 3.89393C16.2092 3.92206 16.225 3.96022 16.225 4L16.225 10.5C16.225 10.5828 16.1578 10.65 16.075 10.65H12.5C12.4602 10.65 12.422 10.6342 12.3939 10.6061C12.3658 10.5779 12.35 10.5398 12.35 10.5L12.35 4ZM12.65 4.15L12.65 10.35H15.925L15.925 4.15H12.65Z" fill="#333333"/>
<path fill-rule="evenodd" clip-rule="evenodd" d="M13.325 6.275C13.325 6.19216 13.3921 6.125 13.475 6.125H15.0999C15.1397 6.125 15.1779 6.1408 15.206 6.16893C15.2341 6.19706 15.2499 6.23522 15.2499 6.275L15.2499 7.0875C15.2499 7.61908 14.819 8.05 14.2874 8.05C13.7559 8.05 13.325 7.61907 13.325 7.0875L13.325 6.275ZM13.625 6.425L13.625 7.0875C13.625 7.45339 13.9216 7.75 14.2874 7.75C14.6533 7.75 14.9499 7.45339 14.9499 7.0875L14.9499 6.425H13.625Z" fill="#333333"/>
<path fill-rule="evenodd" clip-rule="evenodd" d="M14.6124 7.9L14.5388 8.7833C14.5345 8.83513 14.4912 8.875 14.4392 8.875L14.1357 8.875C14.0837 8.875 14.0404 8.83513 14.036 8.7833L13.9624 7.9L14.6124 7.9Z" fill="#333333"/>
<path d="M13.9624 5.825C13.9624 5.71454 14.0519 5.625 14.1624 5.625H14.4124C14.5229 5.625 14.6124 5.71454 14.6124 5.825V6.275H13.9624V5.825Z" fill="#333333"/>
<path d="M14.125 5.4C14.125 5.34477 14.1698 5.3 14.225 5.3H14.35C14.4052 5.3 14.45 5.34477 14.45 5.4V6.275H14.125V5.4Z" fill="#333333"/>
<path d="M19 10.5H17.7L18.35 4H19V10.5Z" fill="#7F9FD9"/>
<path fill-rule="evenodd" clip-rule="evenodd" d="M18.2007 3.98507C18.2083 3.90839 18.2729 3.85 18.3499 3.85H18.9999C19.0828 3.85 19.1499 3.91716 19.1499 4V10.5C19.1499 10.5828 19.0828 10.65 18.9999 10.65H17.6999C17.6575 10.65 17.6171 10.6321 17.5887 10.6007C17.5603 10.5692 17.5465 10.5272 17.5507 10.4851L18.2007 3.98507ZM18.4857 4.15L17.8657 10.35H18.8499V4.15H18.4857Z" fill="#333333"/>
<path d="M8.95455 5.77271H6L6 7.24998C6 8.06586 6.6614 8.72726 7.47727 8.72726C8.29314 8.72726 8.95454 8.06586 8.95454 7.24999L8.95455 5.77271Z" fill="#CCCCCC"/>
<path fill-rule="evenodd" clip-rule="evenodd" d="M5.84998 5.77271C5.84998 5.68987 5.91714 5.62271 5.99998 5.62271H8.95452C8.9943 5.62271 9.03245 5.63851 9.06058 5.66664C9.08871 5.69477 9.10452 5.73293 9.10452 5.77271L9.10451 7.24999C9.10451 8.1487 8.37596 8.87726 7.47725 8.87726C6.57853 8.87726 5.84997 8.1487 5.84998 7.24998L5.84998 5.77271ZM6.14998 5.92271L6.14998 7.24998C6.14997 7.98301 6.74421 8.57726 7.47725 8.57726C8.21027 8.57726 8.80451 7.98302 8.80451 7.24999L8.80452 5.92271H6.14998Z" fill="#333333"/>
<path fill-rule="evenodd" clip-rule="evenodd" d="M8.06812 8.72727L7.92803 10.4083C7.92371 10.4601 7.88038 10.5 7.82837 10.5L7.12604 10.5C7.07403 10.5 7.0307 10.4601 7.02638 10.4083L6.8863 8.72727L8.06812 8.72727Z" fill="#333333"/>
<path d="M6.88599 4.7909C6.88599 4.68045 6.97553 4.5909 7.08599 4.5909H7.8678C7.97826 4.5909 8.0678 4.68045 8.0678 4.7909V5.77272H6.88599V4.7909Z" fill="#333333"/>
<path d="M7.18164 4.1C7.18164 4.04477 7.22641 4 7.28164 4H7.67255C7.72778 4 7.77255 4.04477 7.77255 4.1V5.77273H7.18164V4.1Z" fill="#333333"/>
<path fill-rule="evenodd" clip-rule="evenodd" d="M8.39232 15.8878C8.46123 16.0401 8.48457 16.2061 8.45912 16.3631C8.45632 16.3804 8.45293 16.3975 8.44895 16.4146L8.15685 16.3461C8.15924 16.336 8.16128 16.3256 8.16298 16.3151C8.1785 16.2194 8.1649 16.1129 8.11899 16.0115L8.39232 15.8878ZM5.12577 17.5355L5.3379 17.7477L4.94315 18.1424C5.13768 18.1721 5.32708 18.2733 5.4686 18.4328C5.58974 18.5694 5.66413 18.735 5.6871 18.9028L6.57688 18.013L6.78901 18.2252L5.51292 19.5012C5.49568 19.5204 5.47724 19.5388 5.45762 19.5562C5.39695 19.61 5.3045 19.6058 5.2489 19.5468C5.19329 19.4878 5.19467 19.3952 5.25202 19.3379L5.29434 19.2956C5.43496 19.1333 5.43583 18.848 5.24417 18.6319C5.03688 18.3982 4.72585 18.3791 4.55105 18.5341C4.49038 18.588 4.39793 18.5838 4.34233 18.5248C4.28672 18.4657 4.2881 18.3732 4.34545 18.3159L5.12577 17.5355Z" fill="#333333"/>
<path fill-rule="evenodd" clip-rule="evenodd" d="M4.55109 18.5342C4.37629 18.6892 4.35817 19.0003 4.56546 19.234C4.77275 19.4677 5.08379 19.4868 5.25858 19.3317C5.43337 19.1767 5.45149 18.8656 5.24421 18.6319C5.03692 18.3982 4.72588 18.3791 4.55109 18.5342ZM4.34103 19.4331C4.04764 19.1023 4.028 18.5971 4.35201 18.3097C4.67602 18.0223 5.17524 18.1021 5.46864 18.4328C5.76203 18.7636 5.78167 19.2687 5.45766 19.5562C5.13365 19.8436 4.63443 19.7638 4.34103 19.4331Z" fill="#333333"/>
<path fill-rule="evenodd" clip-rule="evenodd" d="M4.4538 18.9107C4.45794 18.828 4.52837 18.7643 4.61111 18.7684L5.21476 18.7986C5.2975 18.8027 5.36122 18.8732 5.35708 18.9559C5.35294 19.0386 5.28251 19.1024 5.19978 19.0982L4.59613 19.068C4.51339 19.0639 4.44967 18.9935 4.4538 18.9107Z" fill="#333333"/>
<path fill-rule="evenodd" clip-rule="evenodd" d="M4.88287 18.4817C4.80013 18.4858 4.73641 18.5563 4.74055 18.639L4.77073 19.2426C4.77487 19.3254 4.84529 19.3891 4.92803 19.385C5.01077 19.3808 5.07449 19.3104 5.07036 19.2277L5.04017 18.624C5.03604 18.5413 4.96561 18.4776 4.88287 18.4817Z" fill="#333333"/>
<path fill-rule="evenodd" clip-rule="evenodd" d="M8.03198 14.0261C8.35599 13.7387 8.85521 13.8185 9.14861 14.1492C9.44093 14.4788 9.46149 14.9814 9.14117 15.2694L6.41843 17.9921C6.40119 18.0113 6.38276 18.0296 6.36314 18.047C6.30247 18.1009 6.21002 18.0967 6.15441 18.0377C6.09881 17.9786 6.10019 17.8861 6.15754 17.8288L6.19986 17.7864C6.34048 17.6242 6.34134 17.3388 6.14969 17.1228C5.9424 16.8891 5.63137 16.87 5.45657 17.025C5.3959 17.0788 5.30345 17.0747 5.24784 17.0157C5.19224 16.9566 5.19362 16.8641 5.25097 16.8067L8.03198 14.0261ZM6.59262 17.3937L8.93837 15.0479C9.11317 14.8929 9.13147 14.582 8.92418 14.3483C8.7181 14.116 8.4095 14.0957 8.23415 14.2478L5.84866 16.6333C6.04319 16.663 6.2326 16.7642 6.37412 16.9237C6.49526 17.0603 6.56965 17.2259 6.59262 17.3937Z" fill="#333333"/>
<path fill-rule="evenodd" clip-rule="evenodd" d="M5.45661 17.025C5.28181 17.1801 5.26369 17.4912 5.47098 17.7249C5.67827 17.9585 5.9893 17.9777 6.1641 17.8226C6.33889 17.6676 6.35701 17.3565 6.14972 17.1228C5.94243 16.8891 5.6314 16.87 5.45661 17.025ZM5.24655 17.9239C4.95315 17.5932 4.93351 17.088 5.25753 16.8006C5.58154 16.5132 6.08076 16.5929 6.37415 16.9237C6.66755 17.2545 6.68719 17.7596 6.36318 18.047C6.03916 18.3345 5.53995 18.2547 5.24655 17.9239Z" fill="#333333"/>
<path fill-rule="evenodd" clip-rule="evenodd" d="M5.35932 17.4016C5.36346 17.3189 5.43389 17.2552 5.51662 17.2593L6.12027 17.2895C6.20301 17.2936 6.26673 17.364 6.2626 17.4468C6.25846 17.5295 6.18803 17.5932 6.10529 17.5891L5.50164 17.5589C5.4189 17.5548 5.35518 17.4844 5.35932 17.4016Z" fill="#333333"/>
<path fill-rule="evenodd" clip-rule="evenodd" d="M9.89569 17.684C10.1869 17.4222 10.1961 16.9804 9.97587 16.6571L9.72793 16.826C9.88182 17.052 9.85273 17.3211 9.69307 17.4627L7.34713 19.8083C7.32417 19.6405 7.24977 19.4749 7.12863 19.3383C6.98711 19.1788 6.79771 19.0776 6.60318 19.0479L6.91124 18.7399L6.6991 18.5277L6.00548 19.2213C5.94814 19.2787 5.94675 19.3712 6.00236 19.4303C6.05796 19.4893 6.15042 19.4934 6.21109 19.4396C6.38588 19.2846 6.69691 19.3037 6.9042 19.5374C7.09586 19.7534 7.09499 20.0388 6.95437 20.201L6.91205 20.2434C6.85471 20.3007 6.85332 20.3932 6.90893 20.4523C6.96453 20.5113 7.05699 20.5154 7.11766 20.4616C7.13728 20.4442 7.15571 20.4259 7.17295 20.4067L9.89569 17.684Z" fill="#333333"/>
<path fill-rule="evenodd" clip-rule="evenodd" d="M6.21112 19.4396C6.03633 19.5947 6.01821 19.9058 6.2255 20.1395C6.43279 20.3731 6.74382 20.3923 6.91861 20.2372C7.09341 20.0822 7.11153 19.7711 6.90424 19.5374C6.69695 19.3037 6.38592 19.2846 6.21112 19.4396ZM6.00107 20.3385C5.70767 20.0078 5.68803 19.5026 6.01204 19.2152C6.33606 18.9278 6.83527 19.0075 7.12867 19.3383C7.42207 19.6691 7.44171 20.1742 7.11769 20.4616C6.79368 20.7491 6.29446 20.6693 6.00107 20.3385Z" fill="#333333"/>
<path fill-rule="evenodd" clip-rule="evenodd" d="M6.11384 19.8162C6.11798 19.7335 6.1884 19.6698 6.27114 19.6739L6.87479 19.7041C6.95753 19.7082 7.02125 19.7786 7.01711 19.8614C7.01298 19.9441 6.94255 20.0078 6.85981 20.0037L6.25616 19.9735C6.17342 19.9694 6.1097 19.899 6.11384 19.8162Z" fill="#333333"/>
<path fill-rule="evenodd" clip-rule="evenodd" d="M9.54101 14.9316C9.86503 14.6442 10.3642 14.7239 10.6576 15.0547C10.95 15.3842 10.9705 15.8869 10.6502 16.1749L7.92747 18.8976C7.91023 18.9168 7.89179 18.9351 7.87217 18.9525C7.81151 19.0063 7.71905 19.0022 7.66345 18.9431C7.60784 18.8841 7.60922 18.7916 7.66657 18.7342L7.70889 18.6919C7.84951 18.5297 7.85038 18.2443 7.65872 18.0283C7.45143 17.7946 7.1404 17.7754 6.9656 17.9305C6.90494 17.9843 6.81248 17.9802 6.75688 17.9211C6.70127 17.8621 6.70265 17.7696 6.76 17.7122L9.54101 14.9316ZM8.10165 18.2992L10.4474 15.9534C10.6222 15.7983 10.6405 15.4874 10.4332 15.2538C10.2271 15.0214 9.91853 15.0012 9.74318 15.1533L7.3577 17.5388C7.55223 17.5685 7.74163 17.6696 7.88315 17.8292C8.00429 17.9657 8.07868 18.1314 8.10165 18.2992Z" fill="#333333"/>
<path fill-rule="evenodd" clip-rule="evenodd" d="M6.96564 17.9305C6.79084 18.0856 6.77273 18.3966 6.98001 18.6303C7.1873 18.864 7.49834 18.8831 7.67313 18.7281C7.84793 18.573 7.86604 18.2619 7.65876 18.0283C7.45147 17.7946 7.14043 17.7755 6.96564 17.9305ZM6.75558 18.8294C6.46219 18.4987 6.44255 17.9935 6.76656 17.7061C7.09057 17.4187 7.58979 17.4984 7.88319 17.8292C8.17658 18.1599 8.19622 18.6651 7.87221 18.9525C7.5482 19.2399 7.04898 19.1602 6.75558 18.8294Z" fill="#333333"/>
<path fill-rule="evenodd" clip-rule="evenodd" d="M6.86835 18.3071C6.87249 18.2244 6.94292 18.1606 7.02566 18.1648L7.62931 18.195C7.71205 18.1991 7.77577 18.2695 7.77163 18.3523C7.76749 18.435 7.69707 18.4987 7.61433 18.4946L7.01068 18.4644C6.92794 18.4603 6.86422 18.3898 6.86835 18.3071Z" fill="#333333"/>
<path fill-rule="evenodd" clip-rule="evenodd" d="M7.29742 17.878C7.21468 17.8822 7.15096 17.9526 7.1551 18.0353L7.18528 18.639C7.18942 18.7217 7.25984 18.7855 7.34258 18.7813C7.42532 18.7772 7.48904 18.7068 7.48491 18.624L7.45472 18.0204C7.45059 17.9376 7.38016 17.8739 7.29742 17.878Z" fill="#333333"/>
<path fill-rule="evenodd" clip-rule="evenodd" d="M12.4353 16.3048C12.4353 16.3877 12.5025 16.4548 12.5853 16.4548C12.9982 16.4548 13.2975 16.3769 13.5514 16.2557C13.7506 16.1607 13.9213 16.0384 14.0872 15.9196C14.1272 15.891 14.167 15.8626 14.2067 15.8348C14.4149 15.6892 14.6413 15.5473 14.9581 15.4383C15.2757 15.329 15.6912 15.2504 16.2768 15.2415C16.3596 15.2403 16.4257 15.1721 16.4245 15.0893C16.4232 15.0064 16.355 14.9403 16.2722 14.9416C15.6616 14.9508 15.2138 15.033 14.8605 15.1546C14.5063 15.2765 14.2539 15.4357 14.0348 15.5889C13.989 15.6209 13.9454 15.6521 13.903 15.6824C13.7395 15.7993 13.5952 15.9025 13.4222 15.985C13.2112 16.0857 12.9564 16.1548 12.5853 16.1548C12.5025 16.1548 12.4353 16.222 12.4353 16.3048Z" fill="#333333"/>
<path fill-rule="evenodd" clip-rule="evenodd" d="M20.5275 16.3048C20.5275 16.3877 20.4603 16.4548 20.3775 16.4548C19.9646 16.4548 19.6653 16.3769 19.4113 16.2557C19.2122 16.1607 19.0414 16.0385 18.8755 15.9196C18.8355 15.891 18.7958 15.8626 18.756 15.8348C18.5478 15.6892 18.3214 15.5473 18.0046 15.4383C17.6869 15.329 17.2715 15.2504 16.6859 15.2415C16.6031 15.2403 16.5369 15.1721 16.5382 15.0893C16.5395 15.0064 16.6076 14.9403 16.6905 14.9416C17.301 14.9508 17.7488 15.033 18.1022 15.1546C18.4564 15.2765 18.7088 15.4357 18.9279 15.5889C18.9737 15.6209 19.0173 15.6521 19.0597 15.6824C19.2233 15.7993 19.3675 15.9025 19.5405 15.985C19.7515 16.0857 20.0063 16.1548 20.3775 16.1548C20.4603 16.1548 20.5275 16.222 20.5275 16.3048Z" fill="#333333"/>
<path fill-rule="evenodd" clip-rule="evenodd" d="M12.4353 17.7284C12.4353 17.6456 12.5025 17.5784 12.5853 17.5784C12.9986 17.5784 13.2983 17.658 13.5525 17.7817C13.7516 17.8786 13.9224 18.0034 14.0883 18.1245C14.1283 18.1538 14.1681 18.1828 14.2079 18.2112C14.4161 18.3597 14.6423 18.5043 14.9589 18.6153C15.2763 18.7266 15.6914 18.8066 16.2768 18.8155C16.3596 18.8168 16.4257 18.885 16.4245 18.9678C16.4232 19.0506 16.355 19.1168 16.2722 19.1155C15.6614 19.1062 15.2133 19.0225 14.8596 18.8984C14.5052 18.7741 14.2527 18.6117 14.0337 18.4554C13.9878 18.4227 13.9441 18.3909 13.9017 18.3599C13.7382 18.2407 13.594 18.1356 13.4212 18.0515C13.2104 17.9489 12.956 17.8784 12.5853 17.8784C12.5025 17.8784 12.4353 17.8112 12.4353 17.7284Z" fill="#333333"/>
<path fill-rule="evenodd" clip-rule="evenodd" d="M20.5275 17.7284C20.5275 17.6456 20.4603 17.5784 20.3775 17.5784C19.9657 17.5784 19.6668 17.6574 19.4132 17.7803C19.2127 17.8775 19.0413 18.0027 18.8748 18.1243C18.8363 18.1524 18.798 18.1804 18.7597 18.2077C18.5525 18.3558 18.328 18.5001 18.0147 18.6114C17.7008 18.7231 17.2907 18.804 16.7128 18.8151C16.63 18.8166 16.5641 18.8851 16.5657 18.9679C16.5673 19.0507 16.6357 19.1166 16.7185 19.115C17.3221 19.1035 17.7651 19.0186 18.1152 18.8941C18.466 18.7694 18.7164 18.6073 18.9341 18.4518C18.9779 18.4205 19.0199 18.3899 19.0606 18.3602C19.2252 18.2403 19.3701 18.1345 19.544 18.0503C19.7543 17.9483 20.0082 17.8784 20.3775 17.8784C20.4603 17.8784 20.5275 17.8112 20.5275 17.7284Z" fill="#333333"/>
<path fill-rule="evenodd" clip-rule="evenodd" d="M15.6571 14C15.6571 13.9172 15.7243 13.85 15.8071 13.85H16.2745C16.3568 13.85 16.4238 13.9164 16.4245 13.9988L16.4432 16.2849C16.4439 16.3677 16.3773 16.4354 16.2944 16.4361C16.2116 16.4368 16.1439 16.3702 16.1432 16.2873L16.1257 14.15H15.9571V14.7448C15.9571 14.8277 15.8899 14.8948 15.8071 14.8948H13.035V15.6679C13.035 15.7508 12.9678 15.8179 12.885 15.8179H12.7353V16.7931C12.7353 16.8759 12.6681 16.9431 12.5853 16.9431C12.5025 16.9431 12.4353 16.8759 12.4353 16.7931V15.6679C12.4353 15.5851 12.5025 15.5179 12.5853 15.5179H12.735V14.7448C12.735 14.662 12.8022 14.5948 12.885 14.5948H15.6571V14ZM16.5383 14C16.5383 13.9172 16.6054 13.85 16.6883 13.85H17.1558C17.2386 13.85 17.3058 13.9172 17.3058 14V14.5948H20.0404C20.1232 14.5948 20.1904 14.662 20.1904 14.7448V15.5179H20.3776C20.4604 15.5179 20.5276 15.5851 20.5276 15.6679V16.7931C20.5276 16.8759 20.4604 16.9431 20.3776 16.9431C20.2947 16.9431 20.2276 16.8759 20.2276 16.7931V15.8179H20.0404C19.9576 15.8179 19.8904 15.7508 19.8904 15.6679V14.8948H17.1558C17.0729 14.8948 17.0058 14.8277 17.0058 14.7448V14.15H16.8383V16.2861C16.8383 16.3689 16.7711 16.4361 16.6883 16.4361C16.6054 16.4361 16.5383 16.3689 16.5383 16.2861V14ZM12.5853 17.0776C12.6681 17.0776 12.7353 17.1447 12.7353 17.2276V18.2902H12.9037C12.9866 18.2902 13.0537 18.3573 13.0537 18.4402V19.0956H15.8071C15.8899 19.0956 15.9571 19.1628 15.9571 19.2456V19.85H16.1245V17.8033C16.1245 17.7205 16.1916 17.6533 16.2745 17.6533C16.3573 17.6533 16.4245 17.7205 16.4245 17.8033V20C16.4245 20.0828 16.3573 20.15 16.2745 20.15H15.8071C15.7243 20.15 15.6571 20.0828 15.6571 20V19.3956H12.9037C12.8209 19.3956 12.7537 19.3285 12.7537 19.2456V18.5902H12.5853C12.5025 18.5902 12.4353 18.523 12.4353 18.4402V17.2276C12.4353 17.1447 12.5025 17.0776 12.5853 17.0776ZM20.3776 17.0776C20.4604 17.0776 20.5276 17.1447 20.5276 17.2276V18.4215C20.5276 18.5043 20.4604 18.5715 20.3776 18.5715H20.1904V19.2456C20.1904 19.3285 20.1232 19.3956 20.0404 19.3956H17.3058V20C17.3058 20.0828 17.2386 20.15 17.1558 20.15H16.7049C16.6221 20.15 16.5549 20.0828 16.5549 20V17.8033C16.5549 17.7205 16.6221 17.6533 16.7049 17.6533C16.7878 17.6533 16.8549 17.7205 16.8549 17.8033V19.85H17.0058V19.2456C17.0058 19.1628 17.0729 19.0956 17.1558 19.0956H19.8904V18.4215C19.8904 18.3386 19.9576 18.2715 20.0404 18.2715H20.2276V17.2276C20.2276 17.1447 20.2947 17.0776 20.3776 17.0776Z" fill="#333333"/>
<path fill-rule="evenodd" clip-rule="evenodd" d="M19.984 16.8106C19.984 16.7277 20.0512 16.6606 20.134 16.6606H20.9616C21.0444 16.6606 21.1116 16.7277 21.1116 16.8106V17.2244C21.1116 17.3072 21.0444 17.3744 20.9616 17.3744H20.134C20.0512 17.3744 19.984 17.3072 19.984 17.2244V16.8106ZM20.284 16.9606V17.0744H20.8116V16.9606H20.284Z" fill="#333333"/>
<path fill-rule="evenodd" clip-rule="evenodd" d="M11.85 16.8106C11.85 16.7277 11.9171 16.6606 12 16.6606H12.8276C12.9104 16.6606 12.9776 16.7277 12.9776 16.8106V17.2244C12.9776 17.3072 12.9104 17.3744 12.8276 17.3744H12C11.9171 17.3744 11.85 17.3072 11.85 17.2244V16.8106ZM12.15 16.9606V17.0744H12.6776V16.9606H12.15Z" fill="#333333"/>
<path fill-rule="evenodd" clip-rule="evenodd" d="M20.2055 16.99C17.7769 16.2626 15.1889 16.2625 12.7611 16.9887L12.7572 16.9901V16.677C15.1886 15.9667 17.7731 15.9665 20.2055 16.6772V16.99ZM20.2055 17.0587C17.7769 17.7861 15.1889 17.7863 12.7611 17.0601L12.7572 17.0586V17.3717C15.1886 18.082 17.7731 18.0822 20.2055 17.3715V17.0587Z" fill="#333333"/>
<path fill-rule="evenodd" clip-rule="evenodd" d="M15.2798 16.0635C15.2074 16.1442 15.1424 16.2683 15.091 16.4258C15.0653 16.5046 14.9806 16.5476 14.9019 16.5219C14.8231 16.4962 14.7801 16.4116 14.8058 16.3328C14.8642 16.1538 14.9457 15.9865 15.0564 15.8631C15.1695 15.7372 15.3202 15.6502 15.5048 15.6594C15.6833 15.6682 15.8619 15.7656 16.0392 15.9352C16.2176 16.1059 16.408 16.3622 16.6116 16.7186C16.638 16.7648 16.638 16.8214 16.6116 16.8675C16.3678 17.2942 16.1497 17.612 15.9555 17.8369C15.7638 18.0589 15.5845 18.2035 15.4149 18.2633C15.3276 18.2941 15.2395 18.3036 15.154 18.2855C15.0681 18.2674 14.9955 18.2236 14.9367 18.1648C14.8232 18.0515 14.7571 17.8795 14.7198 17.6955C14.7034 17.6143 14.7558 17.5351 14.837 17.5187C14.9182 17.5022 14.9974 17.5547 15.0138 17.6359C15.0467 17.7979 15.0969 17.9008 15.1487 17.9525C15.1724 17.9762 15.1946 17.9875 15.2161 17.992C15.238 17.9966 15.2696 17.9965 15.3151 17.9804C15.4111 17.9466 15.5488 17.8488 15.7284 17.6408C15.8947 17.4482 16.0877 17.1719 16.3081 16.7933C16.1296 16.491 15.9704 16.2845 15.8318 16.152C15.681 16.0077 15.5675 15.9629 15.49 15.959C15.4188 15.9555 15.3498 15.9854 15.2798 16.0635Z" fill="#333333"/>
<path fill-rule="evenodd" clip-rule="evenodd" d="M17.6831 16.0635C17.7555 16.1442 17.8205 16.2683 17.8719 16.4258C17.8975 16.5046 17.9822 16.5476 18.061 16.5219C18.1397 16.4962 18.1828 16.4116 18.1571 16.3328C18.0987 16.1538 18.0171 15.9865 17.9064 15.8631C17.7934 15.7372 17.6427 15.6502 17.458 15.6594C17.2796 15.6682 17.101 15.7656 16.9237 15.9352C16.7452 16.1059 16.5549 16.3622 16.3512 16.7186C16.3249 16.7648 16.3249 16.8214 16.3512 16.8675C16.5938 17.292 16.8109 17.6086 17.0043 17.8332C17.1952 18.0551 17.3737 18.2001 17.5423 18.2613C17.629 18.2928 17.7168 18.3034 17.8021 18.2869C17.8879 18.2702 17.961 18.228 18.0205 18.1703C18.1352 18.0593 18.2023 17.8894 18.2405 17.7076C18.2576 17.6266 18.2057 17.547 18.1246 17.53C18.0436 17.5129 17.964 17.5648 17.947 17.6459C17.9134 17.8052 17.863 17.9053 17.8118 17.9548C17.7885 17.9774 17.7665 17.9882 17.7449 17.9924C17.7228 17.9967 17.6907 17.996 17.6448 17.9794C17.5482 17.9443 17.4105 17.8454 17.2316 17.6375C17.066 17.445 16.8739 17.1698 16.6548 16.7933C16.8333 16.491 16.9925 16.2845 17.1311 16.152C17.2819 16.0077 17.3954 15.9629 17.4729 15.959C17.5441 15.9555 17.613 15.9854 17.6831 16.0635Z" fill="#333333"/>
<path fill-rule="evenodd" clip-rule="evenodd" d="M15.8142 17.2069C15.8142 17.1241 15.8814 17.0569 15.9642 17.0569H16.2332C16.3065 17.0569 16.3691 17.1099 16.3811 17.1822L16.4225 17.4305C16.4361 17.5122 16.3809 17.5895 16.2992 17.6031C16.2175 17.6168 16.1402 17.5615 16.1266 17.4798L16.1061 17.3569H15.9642C15.8814 17.3569 15.8142 17.2897 15.8142 17.2069Z" fill="#333333"/>
<path fill-rule="evenodd" clip-rule="evenodd" d="M17.1487 17.2069C17.1487 17.1241 17.0815 17.0569 16.9987 17.0569H16.7297C16.6564 17.0569 16.5938 17.1099 16.5818 17.1822L16.5404 17.4305C16.5268 17.5122 16.582 17.5895 16.6637 17.6031C16.7454 17.6168 16.8227 17.5615 16.8363 17.4798L16.8568 17.3569H16.9987C17.0815 17.3569 17.1487 17.2897 17.1487 17.2069Z" fill="#333333"/>
</svg>
