<svg width="24" height="24" viewBox="0 0 24 24" fill="none" xmlns="http://www.w3.org/2000/svg">
<path fill-rule="evenodd" clip-rule="evenodd" d="M10.75 16.25V19.75H9.25V16.25H10.75Z" fill="#32436D" class='mian'/>
<path fill-rule="evenodd" clip-rule="evenodd" d="M14.75 16.25V19.75H13.25V16.25H14.75Z" fill="#32436D" class='mian'/>
<path d="M8 2V17H16V2H8Z" fill="#DEDEDE" class='mian'/>
<path fill-rule="evenodd" clip-rule="evenodd" d="M7.25 2C7.25 1.58579 7.58579 1.25 8 1.25H16C16.4142 1.25 16.75 1.58579 16.75 2V17C16.75 17.4142 16.4142 17.75 16 17.75H8C7.58579 17.75 7.25 17.4142 7.25 17V2ZM8.75 2.75V16.25H15.25V2.75H8.75Z" fill="#333333" class='xian'/>
<path d="M10 2V17H14V2H10Z" fill="#32436D" class='mian'/>
<path fill-rule="evenodd" clip-rule="evenodd" d="M9.25 2C9.25 1.58579 9.58579 1.25 10 1.25H14C14.4142 1.25 14.75 1.58579 14.75 2V17C14.75 17.4142 14.4142 17.75 14 17.75H10C9.58579 17.75 9.25 17.4142 9.25 17V2ZM10.75 2.75V16.25H13.25V2.75H10.75Z" fill="#333333" class='xian'/>
<path d="M6 19H18V20.5H6V19Z" fill="#DEDEDE" class='mian'/>
<path d="M6 20.52H18V22.02H6V20.52Z" fill="#32436D" class='mian'/>
<path fill-rule="evenodd" clip-rule="evenodd" d="M5.25 19C5.25 18.5858 5.58579 18.25 6 18.25H18C18.4142 18.25 18.75 18.5858 18.75 19V22C18.75 22.4142 18.4142 22.75 18 22.75H6C5.58579 22.75 5.25 22.4142 5.25 22V19ZM6.75 19.75V21.25H17.25V19.75H6.75Z" fill="#333333" class='xian'/>
<path fill-rule="evenodd" clip-rule="evenodd" d="M12 2.75C12.1381 2.75 12.25 2.86193 12.25 3V11.6802C12.25 11.8182 12.1381 11.9302 12 11.9302C11.8619 11.9302 11.75 11.8182 11.75 11.6802V3C11.75 2.86193 11.8619 2.75 12 2.75Z" fill="white"/>
</svg>
