<svg width="24" height="24" viewBox="0 0 24 24" fill="none" xmlns="http://www.w3.org/2000/svg">
<path d="M7 2V6H14V2H10.5H7Z" fill="#32436D" class='mian'/>
<path fill-rule="evenodd" clip-rule="evenodd" d="M6.25 2C6.25 1.58579 6.58579 1.25 7 1.25H14C14.4142 1.25 14.75 1.58579 14.75 2V6C14.75 6.41421 14.4142 6.75 14 6.75H7C6.58579 6.75 6.25 6.41421 6.25 6V2ZM7.75 2.75V5.25H13.25V2.75H7.75Z" fill="#333333" class='xian'/>
<path d="M6 6V16H12V6H6Z" fill="#DEDEDE" class='mian'/>
<path fill-rule="evenodd" clip-rule="evenodd" d="M5.25 6C5.25 5.58579 5.58579 5.25 6 5.25H12C12.4142 5.25 12.75 5.58579 12.75 6V16C12.75 16.4142 12.4142 16.75 12 16.75H6C5.58579 16.75 5.25 16.4142 5.25 16V6ZM6.75 6.75V15.25H11.25V6.75H6.75Z" fill="#333333" class='xian'/>
<path d="M12 6V22H18V6H12Z" fill="#DEDEDE" class='mian'/>
<path fill-rule="evenodd" clip-rule="evenodd" d="M11.25 6C11.25 5.58579 11.5858 5.25 12 5.25H18C18.4142 5.25 18.75 5.58579 18.75 6V22C18.75 22.4142 18.4142 22.75 18 22.75H12C11.5858 22.75 11.25 22.4142 11.25 22V6ZM12.75 6.75V21.25H17.25V6.75H12.75Z" fill="#333333" class='xian'/>
<path d="M5 16V22H12V16H5Z" fill="#DEDEDE" class='mian'/>
<path fill-rule="evenodd" clip-rule="evenodd" d="M4.25 16C4.25 15.5858 4.58579 15.25 5 15.25H12C12.4142 15.25 12.75 15.5858 12.75 16V22C12.75 22.4142 12.4142 22.75 12 22.75H5C4.58579 22.75 4.25 22.4142 4.25 22V16ZM5.75 16.75V21.25H11.25V16.75H5.75Z" fill="#333333" class='xian'/>
<path fill-rule="evenodd" clip-rule="evenodd" d="M8.5 18.75C8.36193 18.75 8.25 18.8619 8.25 19C8.25 19.1381 8.36193 19.25 8.5 19.25C8.63807 19.25 8.75 19.1381 8.75 19C8.75 18.8619 8.63807 18.75 8.5 18.75ZM7.25 19C7.25 18.3096 7.80964 17.75 8.5 17.75C9.19036 17.75 9.75 18.3096 9.75 19C9.75 19.6904 9.19036 20.25 8.5 20.25C7.80964 20.25 7.25 19.6904 7.25 19Z" fill="#32436D" class='xian'/>
</svg>
