<svg width="24" height="24" viewBox="0 0 24 24" fill="none" xmlns="http://www.w3.org/2000/svg">
<path d="M8 2V22H16V2H8Z" fill="#DEDEDE" class='mian'/>
<path fill-rule="evenodd" clip-rule="evenodd" d="M7.25 2C7.25 1.58579 7.58579 1.25 8 1.25H16C16.4142 1.25 16.75 1.58579 16.75 2V22C16.75 22.4142 16.4142 22.75 16 22.75H8C7.58579 22.75 7.25 22.4142 7.25 22V2ZM8.75 2.75V21.25H15.25V2.75H8.75Z" fill="#333333" class='xian'/>
<path d="M10 2V22H14V2H10Z" fill="#32436D" class='mian'/>
<path fill-rule="evenodd" clip-rule="evenodd" d="M9.25 2C9.25 1.58579 9.58579 1.25 10 1.25H14C14.4142 1.25 14.75 1.58579 14.75 2V22C14.75 22.4142 14.4142 22.75 14 22.75H10C9.58579 22.75 9.25 22.4142 9.25 22V2ZM10.75 2.75V21.25H13.25V2.75H10.75Z" fill="#333333" class='xian'/>
<path d="M8 15V18H16V15H8Z" fill="#DEDEDE" class='mian'/>
<path fill-rule="evenodd" clip-rule="evenodd" d="M7.25 15C7.25 14.5858 7.58579 14.25 8 14.25H16C16.4142 14.25 16.75 14.5858 16.75 15V18C16.75 18.4142 16.4142 18.75 16 18.75H8C7.58579 18.75 7.25 18.4142 7.25 18V15ZM8.75 15.75V17.25H15.25V15.75H8.75Z" fill="#333333" class='xian'/>
<path fill-rule="evenodd" clip-rule="evenodd" d="M12 2.75C12.1381 2.75 12.25 2.86193 12.25 3V11.6802C12.25 11.8182 12.1381 11.9302 12 11.9302C11.8619 11.9302 11.75 11.8182 11.75 11.6802V3C11.75 2.86193 11.8619 2.75 12 2.75Z" fill="white"/>
</svg>
