<svg width="24" height="24" viewBox="0 0 24 24" fill="none" xmlns="http://www.w3.org/2000/svg">
<path d="M3 2V19.5H11V2H3Z" fill="#DEDEDE" class='mian'/>
<path fill-rule="evenodd" clip-rule="evenodd" d="M2.25 2C2.25 1.58579 2.58579 1.25 3 1.25H11C11.4142 1.25 11.75 1.58579 11.75 2V19.5C11.75 19.9142 11.4142 20.25 11 20.25H3C2.58579 20.25 2.25 19.9142 2.25 19.5V2ZM3.75 2.75V18.75H10.25V2.75H3.75Z" fill="#333333" class='xian'/>
<path d="M3 19.5V22H11V19.5H3Z" fill="#999999" class='mian'/>
<path fill-rule="evenodd" clip-rule="evenodd" d="M2.25 19.5C2.25 19.0858 2.58579 18.75 3 18.75H11C11.4142 18.75 11.75 19.0858 11.75 19.5V22C11.75 22.4142 11.4142 22.75 11 22.75H3C2.58579 22.75 2.25 22.4142 2.25 22V19.5ZM3.75 20.25V21.25H10.25V20.25H3.75Z" fill="#333333" class='xian'/>
<path d="M11 7.5V12H15V7.5H11Z" fill="#DEDEDE" class='mian'/>
<path fill-rule="evenodd" clip-rule="evenodd" d="M10.25 7.5C10.25 7.08579 10.5858 6.75 11 6.75H15C15.4142 6.75 15.75 7.08579 15.75 7.5V12C15.75 12.4142 15.4142 12.75 15 12.75H11C10.5858 12.75 10.25 12.4142 10.25 12V7.5ZM11.75 8.25V11.25H14.25V8.25H11.75Z" fill="#333333" class='xian'/>
<path d="M11 12.5V19C11 19.2761 11.2239 19.5 11.5 19.5H20.5C20.7761 19.5 21 19.2761 21 19V12.5C21 12.2239 20.7761 12 20.5 12H11.5C11.2239 12 11 12.2239 11 12.5Z" fill="#414554" class='mian'/>
<path fill-rule="evenodd" clip-rule="evenodd" d="M11.75 12.75V18.75H20.25V12.75H11.75ZM10.25 12.5C10.25 11.8096 10.8096 11.25 11.5 11.25H20.5C21.1904 11.25 21.75 11.8096 21.75 12.5V19C21.75 19.6904 21.1904 20.25 20.5 20.25H11.5C10.8096 20.25 10.25 19.6904 10.25 19V12.5Z" fill="#333333" class='xian'/>
<path d="M11 19.5V22H21V19.5H11Z" fill="#999999" class='mian'/>
<path fill-rule="evenodd" clip-rule="evenodd" d="M10.25 19.5C10.25 19.0858 10.5858 18.75 11 18.75H21C21.4142 18.75 21.75 19.0858 21.75 19.5V22C21.75 22.4142 21.4142 22.75 21 22.75H11C10.5858 22.75 10.25 22.4142 10.25 22V19.5ZM11.75 20.25V21.25H20.25V20.25H11.75Z" fill="#333333" class='xian'/>
<path d="M15 12V17H21V12H15Z" fill="#DEDEDE" class='mian'/>
<path fill-rule="evenodd" clip-rule="evenodd" d="M14.25 12C14.25 11.5858 14.5858 11.25 15 11.25H21C21.4142 11.25 21.75 11.5858 21.75 12V17C21.75 17.4142 21.4142 17.75 21 17.75H15C14.5858 17.75 14.25 17.4142 14.25 17V12ZM15.75 12.75V16.25H20.25V12.75H15.75Z" fill="#333333" class='xian'/>
<path fill-rule="evenodd" clip-rule="evenodd" d="M18 14.25C17.8619 14.25 17.75 14.3619 17.75 14.5C17.75 14.6381 17.8619 14.75 18 14.75C18.1381 14.75 18.25 14.6381 18.25 14.5C18.25 14.3619 18.1381 14.25 18 14.25ZM16.75 14.5C16.75 13.8096 17.3096 13.25 18 13.25C18.6904 13.25 19.25 13.8096 19.25 14.5C19.25 15.1904 18.6904 15.75 18 15.75C17.3096 15.75 16.75 15.1904 16.75 14.5Z" fill="#333333" class='xian'/>
<path fill-rule="evenodd" clip-rule="evenodd" d="M2.25 11.25H11.75V12.75H2.25V11.25Z" fill="#333333" class='xian'/>
</svg>
