<svg width="24" height="24" viewBox="0 0 24 24" fill="none" xmlns="http://www.w3.org/2000/svg">
<path d="M2 4V20H22V4H2Z" fill="#32436D" class='mian'/>
<path fill-rule="evenodd" clip-rule="evenodd" d="M1.25 4C1.25 3.58579 1.58579 3.25 2 3.25H22C22.4142 3.25 22.75 3.58579 22.75 4V20C22.75 20.4142 22.4142 20.75 22 20.75H2C1.58579 20.75 1.25 20.4142 1.25 20V4ZM2.75 4.75V19.25H21.25V4.75H2.75Z" fill="#333333" class='xian'/>
<path d="M5 6V17H22V6H5Z" fill="#DEDEDE" class='mian'/>
<path fill-rule="evenodd" clip-rule="evenodd" d="M4.25 6C4.25 5.58579 4.58579 5.25 5 5.25H22C22.4142 5.25 22.75 5.58579 22.75 6V17C22.75 17.4142 22.4142 17.75 22 17.75H5C4.58579 17.75 4.25 17.4142 4.25 17V6ZM5.75 6.75V16.25H21.25V6.75H5.75Z" fill="#333333" class='xian'/>
<path d="M2 8.5V11.5H16V8.5H2Z" fill="#DEDEDE" class='mian'/>
<path fill-rule="evenodd" clip-rule="evenodd" d="M1.25 8.5C1.25 8.08579 1.58579 7.75 2 7.75H16C16.4142 7.75 16.75 8.08579 16.75 8.5V11.5C16.75 11.9142 16.4142 12.25 16 12.25H2C1.58579 12.25 1.25 11.9142 1.25 11.5V8.5ZM2.75 9.25V10.75H15.25V9.25H2.75Z" fill="#333333" class='xian'/>
</svg>
