<svg width="24" height="24" viewBox="0 0 24 24" fill="none" xmlns="http://www.w3.org/2000/svg">
<path d="M2 11V17H4V11H2Z" fill="#3E3E3E" class='mian'/>
<path fill-rule="evenodd" clip-rule="evenodd" d="M1.25 11C1.25 10.5858 1.58579 10.25 2 10.25H4C4.41421 10.25 4.75 10.5858 4.75 11V17C4.75 17.4142 4.41421 17.75 4 17.75H2C1.58579 17.75 1.25 17.4142 1.25 17V11ZM2.75 11.75V16.25H3.25V11.75H2.75Z" fill="#333333" class='xian'/>
<path d="M4 11V17H22V11H4Z" fill="#C9C8C4" class='mian'/>
<path fill-rule="evenodd" clip-rule="evenodd" d="M3.25 11C3.25 10.5858 3.58579 10.25 4 10.25H22C22.4142 10.25 22.75 10.5858 22.75 11V17C22.75 17.4142 22.4142 17.75 22 17.75H4C3.58579 17.75 3.25 17.4142 3.25 17V11ZM4.75 11.75V16.25H21.25V11.75H4.75Z" fill="#333333" class='xian'/>
<path d="M4 9V12H7H11H22V9.00003L4 9Z" fill="#161A19" class='mian'/>
<path fill-rule="evenodd" clip-rule="evenodd" d="M3.46967 8.46967C3.61032 8.32902 3.80109 8.25 4 8.25L22 8.25003C22.4142 8.25003 22.75 8.58581 22.75 9.00003V12C22.75 12.4142 22.4142 12.75 22 12.75H4C3.58579 12.75 3.25 12.4142 3.25 12V9C3.25 8.80109 3.32902 8.61032 3.46967 8.46967ZM4.75 9.75V11.25H21.25V9.75003L4.75 9.75Z" fill="#333333" class='xian'/>
<path d="M4 7V9H7V7H4Z" fill="#161A19" class='mian'/>
<path fill-rule="evenodd" clip-rule="evenodd" d="M3.25 7C3.25 6.58579 3.58579 6.25 4 6.25H7C7.41421 6.25 7.75 6.58579 7.75 7V9C7.75 9.41421 7.41421 9.75 7 9.75H4C3.58579 9.75 3.25 9.41421 3.25 9V7ZM4.75 7.75V8.25H6.25V7.75H4.75Z" fill="#333333" class='xian'/>
</svg>
