<svg width="24" height="24" viewBox="0 0 24 24" fill="none" xmlns="http://www.w3.org/2000/svg">
<path d="M2 13V18H7V13H2Z" fill="#414046" class='mian'/>
<path fill-rule="evenodd" clip-rule="evenodd" d="M1.25 13C1.25 12.5858 1.58579 12.25 2 12.25H7C7.41421 12.25 7.75 12.5858 7.75 13V18C7.75 18.4142 7.41421 18.75 7 18.75H2C1.58579 18.75 1.25 18.4142 1.25 18V13ZM2.75 13.75V17.25H6.25V13.75H2.75Z" fill="#333333" class='xian'/>
<path d="M2 8V13H7V8H2Z" fill="black" class='mian'/>
<path fill-rule="evenodd" clip-rule="evenodd" d="M1.25 8C1.25 7.58579 1.58579 7.25 2 7.25H7C7.41421 7.25 7.75 7.58579 7.75 8V13C7.75 13.4142 7.41421 13.75 7 13.75H2C1.58579 13.75 1.25 13.4142 1.25 13V8ZM2.75 8.75V12.25H6.25V8.75H2.75Z" fill="#333333" class='xian'/>
<path d="M7 13V18H22V13H7Z" fill="#DEDEDE" class='mian'/>
<path fill-rule="evenodd" clip-rule="evenodd" d="M6.25 13C6.25 12.5858 6.58579 12.25 7 12.25H22C22.4142 12.25 22.75 12.5858 22.75 13V18C22.75 18.4142 22.4142 18.75 22 18.75H7C6.58579 18.75 6.25 18.4142 6.25 18V13ZM7.75 13.75V17.25H21.25V13.75H7.75Z" fill="#333333" class='xian'/>
<path d="M7 8V13H22V8H7Z" fill="#DEDEDE" class='mian'/>
<path fill-rule="evenodd" clip-rule="evenodd" d="M6.25 8C6.25 7.58579 6.58579 7.25 7 7.25H22C22.4142 7.25 22.75 7.58579 22.75 8V13C22.75 13.4142 22.4142 13.75 22 13.75H7C6.58579 13.75 6.25 13.4142 6.25 13V8ZM7.75 8.75V12.25H21.25V8.75H7.75Z" fill="#333333" class='xian'/>
<path d="M7 8V13H10V8H7Z" fill="white" class='mian'/>
<path fill-rule="evenodd" clip-rule="evenodd" d="M6.25 8C6.25 7.58579 6.58579 7.25 7 7.25H10C10.4142 7.25 10.75 7.58579 10.75 8V13C10.75 13.4142 10.4142 13.75 10 13.75H7C6.58579 13.75 6.25 13.4142 6.25 13V8ZM7.75 8.75V12.25H9.25V8.75H7.75Z" fill="#333333" class='xian'/>
</svg>
