<svg width="24" height="24" viewBox="0 0 24 24" fill="none" xmlns="http://www.w3.org/2000/svg">
<path d="M16 3V21H22V3H16Z" fill="#2E5A75" class='mian'/>
<path fill-rule="evenodd" clip-rule="evenodd" d="M15.25 3C15.25 2.58579 15.5858 2.25 16 2.25H22C22.4142 2.25 22.75 2.58579 22.75 3V21C22.75 21.4142 22.4142 21.75 22 21.75H16C15.5858 21.75 15.25 21.4142 15.25 21V3ZM16.75 3.75V20.25H21.25V3.75H16.75Z" fill="#333333" class='xian'/>
<path d="M2 3V21H8V3H2Z" fill="#2E5A75" class='mian'/>
<path fill-rule="evenodd" clip-rule="evenodd" d="M1.25 3C1.25 2.58579 1.58579 2.25 2 2.25H8C8.41421 2.25 8.75 2.58579 8.75 3V21C8.75 21.4142 8.41421 21.75 8 21.75H2C1.58579 21.75 1.25 21.4142 1.25 21V3ZM2.75 3.75V20.25H7.25V3.75H2.75Z" fill="#333333" class='xian'/>
<path d="M8 11V3H16V11C16 11 17 12 17 13.5C17 15 16 16 16 16V21H8V16C8 16 7 15 7 13.5C7 12 8 11 8 11Z" fill="#DEDEDE" class='mian'/>
<path fill-rule="evenodd" clip-rule="evenodd" d="M8.53341 11.5272L8.53187 11.5288C8.52892 11.5319 8.52268 11.5386 8.51361 11.5486C8.49544 11.5687 8.46616 11.6023 8.4294 11.6482C8.35551 11.7406 8.25363 11.8803 8.15118 12.0596C7.9445 12.4213 7.75 12.9178 7.75 13.5C7.75 14.0822 7.9445 14.5787 8.15118 14.9404C8.25363 15.1197 8.35551 15.2594 8.4294 15.3518C8.46616 15.3977 8.49544 15.4313 8.51361 15.4514C8.52268 15.4614 8.52892 15.4681 8.53187 15.4712L8.53106 15.4704L8.53341 15.4728C8.82321 15.7659 8.82219 16.2385 8.53033 16.5303C8.23744 16.8232 7.76256 16.8232 7.46967 16.5303L8 16C7.46967 16.5303 7.46967 16.5303 7.46967 16.5303L7.46885 16.5295L7.46793 16.5286L7.46582 16.5265L7.4605 16.521L7.44567 16.5056C7.43397 16.4934 7.41873 16.4771 7.40045 16.4568C7.36394 16.4164 7.31509 16.3601 7.2581 16.2888C7.14449 16.1468 6.99637 15.9428 6.84882 15.6846C6.5555 15.1713 6.25 14.4178 6.25 13.5C6.25 12.5822 6.5555 11.8287 6.84882 11.3154C6.99637 11.0572 7.14449 10.8532 7.2581 10.7112C7.31509 10.6399 7.36394 10.5836 7.40045 10.5432C7.41873 10.5229 7.43397 10.5066 7.44567 10.4944L7.4605 10.479L7.46582 10.4735L7.46793 10.4714L7.46885 10.4705C7.46885 10.4705 7.47525 10.4753 8 11L7.46967 10.4697C7.76256 10.1768 8.23744 10.1768 8.53033 10.4697C8.82219 10.7615 8.82321 11.2341 8.53341 11.5272Z" fill="#333333" class='xian'/>
<path fill-rule="evenodd" clip-rule="evenodd" d="M15.4666 11.5272L15.4681 11.5288C15.4711 11.5319 15.4773 11.5386 15.4864 11.5486C15.5046 11.5687 15.5338 11.6023 15.5706 11.6482C15.6445 11.7406 15.7464 11.8803 15.8488 12.0596C16.0555 12.4213 16.25 12.9178 16.25 13.5C16.25 14.0822 16.0555 14.5787 15.8488 14.9404C15.7464 15.1197 15.6445 15.2594 15.5706 15.3518C15.5338 15.3977 15.5046 15.4313 15.4864 15.4514C15.4773 15.4614 15.4711 15.4681 15.4681 15.4712L15.4689 15.4704L15.4666 15.4728C15.1768 15.7659 15.1778 16.2385 15.4697 16.5303C15.7626 16.8232 16.2374 16.8232 16.5303 16.5303L16 16C16.5303 16.5303 16.5303 16.5303 16.5303 16.5303L16.5312 16.5295L16.5321 16.5286L16.5342 16.5265L16.5395 16.521L16.5543 16.5056C16.566 16.4934 16.5813 16.4771 16.5995 16.4568C16.6361 16.4164 16.6849 16.3601 16.7419 16.2888C16.8555 16.1468 17.0036 15.9428 17.1512 15.6846C17.4445 15.1713 17.75 14.4178 17.75 13.5C17.75 12.5822 17.4445 11.8287 17.1512 11.3154C17.0036 11.0572 16.8555 10.8532 16.7419 10.7112C16.6849 10.6399 16.6361 10.5836 16.5995 10.5432C16.5813 10.5229 16.566 10.5066 16.5543 10.4944L16.5395 10.479L16.5342 10.4735L16.5321 10.4714L16.5312 10.4705C16.5312 10.4705 16.5247 10.4753 16 11L16.5303 10.4697C16.2374 10.1768 15.7626 10.1768 15.4697 10.4697C15.1778 10.7615 15.1768 11.2341 15.4666 11.5272Z" fill="#333333" class='xian'/>
<path fill-rule="evenodd" clip-rule="evenodd" d="M7.25 3C7.25 2.58579 7.58579 2.25 8 2.25H16C16.4142 2.25 16.75 2.58579 16.75 3V11C16.75 11.4142 16.4142 11.75 16 11.75C15.5858 11.75 15.25 11.4142 15.25 11V3.75H8.75V11C8.75 11.4142 8.41421 11.75 8 11.75C7.58579 11.75 7.25 11.4142 7.25 11V3ZM8 15.25C8.41421 15.25 8.75 15.5858 8.75 16V20.25H15.25V16C15.25 15.5858 15.5858 15.25 16 15.25C16.4142 15.25 16.75 15.5858 16.75 16V21C16.75 21.4142 16.4142 21.75 16 21.75H8C7.58579 21.75 7.25 21.4142 7.25 21V16C7.25 15.5858 7.58579 15.25 8 15.25Z" fill="#333333" class='xian'/>
<path fill-rule="evenodd" clip-rule="evenodd" d="M12 12.75C11.5858 12.75 11.25 13.0858 11.25 13.5C11.25 13.9142 11.5858 14.25 12 14.25C12.4142 14.25 12.75 13.9142 12.75 13.5C12.75 13.0858 12.4142 12.75 12 12.75ZM9.75 13.5C9.75 12.2574 10.7574 11.25 12 11.25C13.2426 11.25 14.25 12.2574 14.25 13.5C14.25 14.7426 13.2426 15.75 12 15.75C10.7574 15.75 9.75 14.7426 9.75 13.5Z" fill="#333333" class='xian'/>
<path d="M11 9.5C11 9.22386 11.2239 9 11.5 9H12.5C12.7761 9 13 9.22386 13 9.5V12H11V9.5Z" fill="#333333" class='xian'/>
<path d="M13 16.5C13 16.7761 12.7761 17 12.5 17L11.5 17C11.2239 17 11 16.7761 11 16.5L11 15L13 15L13 16.5Z" fill="#333333" class='xian'/>
<path d="M11.5 8.2C11.5 8.08954 11.5895 8 11.7 8H12.3C12.4105 8 12.5 8.08954 12.5 8.2V11H11.5V8.2Z" fill="#333333" class='xian'/>
<path fill-rule="evenodd" clip-rule="evenodd" d="M18.25 5C18.25 4.86193 18.3619 4.75 18.5 4.75H20.5C20.6381 4.75 20.75 4.86193 20.75 5C20.75 5.13807 20.6381 5.25 20.5 5.25H18.5C18.3619 5.25 18.25 5.13807 18.25 5Z" fill="#73E2C9"/>
<path fill-rule="evenodd" clip-rule="evenodd" d="M18.25 6C18.25 5.86193 18.3619 5.75 18.5 5.75H20.5C20.6381 5.75 20.75 5.86193 20.75 6C20.75 6.13807 20.6381 6.25 20.5 6.25H18.5C18.3619 6.25 18.25 6.13807 18.25 6Z" fill="#73E2C9"/>
<path fill-rule="evenodd" clip-rule="evenodd" d="M18.25 7C18.25 6.86193 18.3619 6.75 18.5 6.75H20.5C20.6381 6.75 20.75 6.86193 20.75 7C20.75 7.13807 20.6381 7.25 20.5 7.25H18.5C18.3619 7.25 18.25 7.13807 18.25 7Z" fill="#73E2C9"/>
<path fill-rule="evenodd" clip-rule="evenodd" d="M18.25 8C18.25 7.86193 18.3619 7.75 18.5 7.75H20.5C20.6381 7.75 20.75 7.86193 20.75 8C20.75 8.13807 20.6381 8.25 20.5 8.25H18.5C18.3619 8.25 18.25 8.13807 18.25 8Z" fill="#2038EB"/>
<path fill-rule="evenodd" clip-rule="evenodd" d="M18.25 9C18.25 8.86193 18.3619 8.75 18.5 8.75H20.5C20.6381 8.75 20.75 8.86193 20.75 9C20.75 9.13807 20.6381 9.25 20.5 9.25H18.5C18.3619 9.25 18.25 9.13807 18.25 9Z" fill="#A4A4A4"/>
<path d="M5 4.99999C4.17157 4.99999 3.5 5.67156 3.5 6.49999C3.5 6.94424 3.69313 7.34338 4 7.61804L4 9L6 9L6 7.61804C6.30687 7.34338 6.5 6.94424 6.5 6.49999C6.5 5.67156 5.82843 4.99999 5 4.99999Z" fill="#2E5A75" class='mian'/>
<path fill-rule="evenodd" clip-rule="evenodd" d="M6.25 9C6.25 9.13807 6.13807 9.25 6 9.25L4 9.25C3.86193 9.25 3.75 9.13807 3.75 9L3.75 7.72473C3.44098 7.40934 3.25 6.97683 3.25 6.49999C3.25 5.53349 4.0335 4.74999 5 4.74999C5.9665 4.74999 6.75 5.53349 6.75 6.49999C6.75 6.97683 6.55902 7.40934 6.25 7.72473L6.25 9ZM5.75 8.75L5.75 7.61804C5.75 7.54693 5.78028 7.47918 5.83327 7.43176C6.0894 7.20252 6.25 6.87017 6.25 6.49999C6.25 5.80963 5.69036 5.24999 5 5.24999C4.30964 5.24999 3.75 5.80963 3.75 6.49999C3.75 6.87017 3.9106 7.20252 4.16673 7.43176C4.21972 7.47918 4.25 7.54693 4.25 7.61804L4.25 8.75L5.75 8.75Z" fill="#333333" class='xian'/>
<path d="M5 8.49999C4.17157 8.49999 3.5 9.17156 3.5 9.99999C3.5 10.4442 3.69313 10.8434 4 11.118L4 12.5L6 12.5L6 11.118C6.30687 10.8434 6.5 10.4442 6.5 9.99999C6.5 9.17156 5.82843 8.49999 5 8.49999Z" fill="#2E5A75" class='mian'/>
<path fill-rule="evenodd" clip-rule="evenodd" d="M6.25 12.5C6.25 12.6381 6.13807 12.75 6 12.75L4 12.75C3.86193 12.75 3.75 12.6381 3.75 12.5L3.75 11.2247C3.44098 10.9093 3.25 10.4768 3.25 9.99999C3.25 9.03349 4.0335 8.24999 5 8.24999C5.9665 8.24999 6.75 9.03349 6.75 9.99999C6.75 10.4768 6.55902 10.9093 6.25 11.2247L6.25 12.5ZM5.75 12.25L5.75 11.118C5.75 11.0469 5.78028 10.9792 5.83327 10.9318C6.0894 10.7025 6.25 10.3702 6.25 9.99999C6.25 9.30963 5.69036 8.74999 5 8.74999C4.30964 8.74999 3.75 9.30963 3.75 9.99999C3.75 10.3702 3.9106 10.7025 4.16673 10.9318C4.21972 10.9792 4.25 11.0469 4.25 11.118L4.25 12.25L5.75 12.25Z" fill="#333333" class='xian'/>
<path d="M5.75 6.5C5.75 6.91421 5.41421 7.25 5 7.25C4.58579 7.25 4.25 6.91421 4.25 6.5C4.25 6.08579 4.58579 5.75 5 5.75C5.41421 5.75 5.75 6.08579 5.75 6.5Z" fill="#C7C7BE"/>
<path d="M4.9 7.7C4.9 7.81046 4.81046 7.9 4.7 7.9C4.58954 7.9 4.5 7.81046 4.5 7.7C4.5 7.58954 4.58954 7.5 4.7 7.5C4.81046 7.5 4.9 7.58954 4.9 7.7Z" fill="#68CEAC"/>
<path d="M5.5001 7.7C5.5001 7.81046 5.41055 7.9 5.3001 7.9C5.18964 7.9 5.1001 7.81046 5.1001 7.7C5.1001 7.58954 5.18964 7.5 5.3001 7.5C5.41055 7.5 5.5001 7.58954 5.5001 7.7Z" fill="#68CEAC"/>
<path d="M18 15.5C18 15.2239 18.2239 15 18.5 15H19.5C19.7761 15 20 15.2239 20 15.5V17.5C20 17.7761 19.7761 18 19.5 18H18.5C18.2239 18 18 17.7761 18 17.5V15.5Z" fill="#2D383E"/>
</svg>
