<svg width="24" height="24" viewBox="0 0 24 24" fill="none" xmlns="http://www.w3.org/2000/svg">
<path d="M2.5 11V21H21.5V11H2.5Z" fill="#DEDEDE" class='mian'/>
<path fill-rule="evenodd" clip-rule="evenodd" d="M1.75 11C1.75 10.5858 2.08579 10.25 2.5 10.25H21.5C21.9142 10.25 22.25 10.5858 22.25 11V21C22.25 21.4142 21.9142 21.75 21.5 21.75H2.5C2.08579 21.75 1.75 21.4142 1.75 21V11ZM3.25 11.75V20.25H20.75V11.75H3.25Z" fill="#333333" class='xian'/>
<path d="M10.5 11V16H14.5V11H10.5Z" fill="#4984B0" class='mian'/>
<path fill-rule="evenodd" clip-rule="evenodd" d="M9.75 11C9.75 10.5858 10.0858 10.25 10.5 10.25H14.5C14.9142 10.25 15.25 10.5858 15.25 11V16C15.25 16.4142 14.9142 16.75 14.5 16.75H10.5C10.0858 16.75 9.75 16.4142 9.75 16V11ZM11.25 11.75V15.25H13.75V11.75H11.25Z" fill="#333333" class='xian'/>
<path d="M13.5 3.5V10.5C13.5 10.7761 13.7239 11 14 11H17C17.2761 11 17.5 10.7761 17.5 10.5V3.5C17.5 3.22386 17.2761 3 17 3H14C13.7239 3 13.5 3.22386 13.5 3.5Z" fill="#DEDEDE" class='mian'/>
<path fill-rule="evenodd" clip-rule="evenodd" d="M14.25 3.75V10.25H16.75V3.75H14.25ZM12.75 3.5C12.75 2.80964 13.3096 2.25 14 2.25H17C17.6904 2.25 18.25 2.80964 18.25 3.5V10.5C18.25 11.1904 17.6904 11.75 17 11.75H14C13.3096 11.75 12.75 11.1904 12.75 10.5V3.5Z" fill="#333333" class='xian'/>
<path d="M7.5 8.5C7.5 8.22386 7.72386 8 8 8H9C9.27614 8 9.5 8.22386 9.5 8.5V11H7.5V8.5Z" fill="#333333" class='xian'/>
<path d="M8 7.2C8 7.08954 8.08954 7 8.2 7H8.8C8.91046 7 9 7.08954 9 7.2V10H8V7.2Z" fill="#333333" class='xian'/>
</svg>
