<svg width="24" height="24" viewBox="0 0 24 24" fill="none" xmlns="http://www.w3.org/2000/svg">
<path d="M2.5 19.5C1.5 18 3.66667 17 4.5 17L4.5 19.5C4.49875 19.5019 3.49937 20.9991 2.5 19.5Z" fill="rgba(0,0,0,0)" class='mian'/>
<path d="M9.5 5.5L12 2.5L16 6L14 8H12L9.5 5.5Z" fill="rgba(0,0,0,0)" class='mian'/>
<path d="M13.5 9.5C13.5 9.5 12 9.5 10 10.5C5.5 12.75 4.5 16.5 4.5 18.5C4.5 20.5 5.5 21.8333 6 22H14C15.5 20.5 12 20 10.5 20C11.7696 19.7461 14.4965 19.1077 15.4903 18.5C15.5 18.6889 15.5 18.8593 15.5 19C15.5 20.6155 16.5 21.5 17 22L20.5 22C22.1 20.8 19.8333 20.1667 18.5 20C17.3 17.6 17.1667 16 17.5 15.5C18.3 14.3 18.1667 13 18 12.5L15 12L13.5 9.5Z" fill="rgba(0,0,0,0)" class='mian'/>
<path d="M13.4885 9.73165C13.6957 6.53836 16.698 6.5996 18.1733 7.02938C18.1733 7.02938 20.6357 7.69019 21.504 9.75076C22.3591 11.7798 20.3705 12.6835 18.815 12.5825C14.4242 12.2976 13.4237 10.7295 13.4885 9.73165Z" fill="rgba(0,0,0,0)" class='mian'/>
<path fill-rule="evenodd" clip-rule="evenodd" d="M18.3778 6.30775C17.5536 6.06859 16.2678 5.91533 15.1117 6.31253C14.5174 6.51668 13.9434 6.87211 13.5045 7.44638C13.0654 8.02103 12.7996 8.76502 12.74 9.68305C12.6881 10.4832 13.0801 11.3609 14.0515 12.0393C14.9998 12.7016 16.5022 13.184 18.7664 13.3309C19.6745 13.3899 20.7621 13.1658 21.5315 12.5514C21.9291 12.2339 22.255 11.7991 22.3917 11.2423C22.5284 10.6858 22.4578 10.0826 22.1952 9.45947C21.6735 8.22148 20.6889 7.43534 19.8912 6.96963C19.4871 6.7337 19.1143 6.57013 18.8412 6.46493C18.7041 6.41213 18.5908 6.37351 18.5094 6.34747C18.4687 6.33443 18.4359 6.32451 18.4119 6.3175L18.3828 6.30914L18.3778 6.30775ZM17.9784 7.7536L17.9635 7.74942C17.3122 7.55968 16.3622 7.46894 15.5991 7.73114C15.2324 7.85712 14.9248 8.05826 14.6963 8.3572C14.4682 8.65574 14.2809 9.10158 14.2369 9.78019C14.224 9.97796 14.2999 10.3832 14.9103 10.8095C15.5438 11.2519 16.7371 11.6961 18.8636 11.8341C19.511 11.8761 20.1954 11.6988 20.5955 11.3793C20.7826 11.2299 20.8908 11.0647 20.935 10.8845C20.9793 10.704 20.9778 10.4334 20.8129 10.042C20.4663 9.21941 19.7855 8.64486 19.1349 8.26502C18.8149 8.07818 18.5177 7.94777 18.302 7.86467C18.1947 7.82332 18.1088 7.79421 18.0522 7.77607C18.0239 7.76702 18.003 7.76073 17.9904 7.75705L17.978 7.75348L17.978 7.75349L17.9784 7.7536ZM17.978 7.75348L17.9774 7.75331L17.9767 7.75313C17.9766 7.75309 17.977 7.75321 17.978 7.75348Z" fill="#333333" class='xian'/>
<path fill-rule="evenodd" clip-rule="evenodd" d="M3.42608 16.4797C3.78166 16.3429 4.16836 16.25 4.5 16.25V17.75C4.41498 17.75 4.21835 17.7821 3.96455 17.8797C3.7197 17.9739 3.47866 18.1074 3.2949 18.2618C3.1073 18.4194 3.0259 18.5582 3.00141 18.657C2.98386 18.7278 2.9731 18.8576 3.12404 19.084C3.31387 19.3687 3.43665 19.4105 3.44989 19.4144C3.45008 19.4145 3.45031 19.4146 3.45059 19.4147C3.45563 19.4164 3.47597 19.4235 3.53959 19.3917C3.61659 19.3532 3.70256 19.282 3.77984 19.1992C3.81546 19.161 3.84309 19.127 3.86061 19.1042C3.86925 19.093 3.87504 19.085 3.87776 19.0812C3.8791 19.0793 3.87965 19.0785 3.87937 19.0789L3.87831 19.0805L3.8773 19.082L3.87668 19.0829L3.87633 19.0834C3.87615 19.0837 3.87597 19.084 4.5 19.5C5.12404 19.916 5.12385 19.9163 5.12365 19.9166L5.12324 19.9172L5.12234 19.9186L5.12024 19.9217L5.11484 19.9296L5.0993 19.9517C5.08688 19.9692 5.07021 19.9919 5.04955 20.0188C5.00848 20.0722 4.95017 20.1437 4.87642 20.2227C4.73495 20.3743 4.50841 20.5843 4.21041 20.7333C3.90254 20.8873 3.48397 20.9907 3.01887 20.8512C2.56335 20.7145 2.18614 20.3813 1.87596 19.916C1.5269 19.3924 1.41198 18.8347 1.54547 18.2961C1.67202 17.7856 1.99687 17.3931 2.33011 17.1132C2.66718 16.8301 3.06156 16.6199 3.42608 16.4797Z" fill="#333333" class='xian'/>
<path fill-rule="evenodd" clip-rule="evenodd" d="M12.6471 10.3604C12.0785 10.4742 11.2681 10.7045 10.3354 11.1708C6.13826 13.2694 5.25 16.7251 5.25 18.5C5.25 19.3752 5.46896 20.0908 5.72866 20.5929C5.85901 20.8449 5.99473 21.0337 6.10855 21.1584C6.14597 21.1993 6.17692 21.229 6.20074 21.25H13.3809C13.3081 21.2151 13.2222 21.1793 13.1227 21.1438C12.3595 20.8712 11.2043 20.75 10.5 20.75C10.1144 20.75 9.79165 20.4576 9.75365 20.0739C9.71565 19.6902 9.97481 19.3402 10.3529 19.2646C10.9699 19.1412 11.8242 18.942 12.6411 18.7008C13.4782 18.4538 14.2028 18.1834 14.6087 17.9352C14.6259 17.9247 14.6434 17.9149 14.6611 17.906C14.6115 17.6808 14.5344 17.4582 14.4147 17.2529C14.1401 16.7822 13.5451 16.25 12 16.25C11.5858 16.25 11.25 15.9142 11.25 15.5C11.25 15.0858 11.5858 14.75 12 14.75C13.9549 14.75 15.1099 15.4678 15.7103 16.4971C16.2509 17.4238 16.2503 18.4703 16.25 18.9672C16.25 18.9784 16.25 18.9894 16.25 19C16.25 20.0966 16.8168 20.7526 17.31 21.25L20.2049 21.25C19.8163 21.0107 19.0543 20.8251 18.407 20.7442C18.1581 20.7131 17.9413 20.5597 17.8292 20.3354C17.2064 19.0898 16.8452 18.0225 16.6876 17.1745C16.609 16.7512 16.578 16.366 16.5982 16.0312C16.6176 15.7116 16.6878 15.3662 16.876 15.084C17.5194 14.1189 17.3997 13.0708 17.2885 12.7372L18.7115 12.2628C18.9331 12.9277 19.08 14.4742 18.1305 15.9063C18.1303 15.909 18.1048 15.968 18.0955 16.1219C18.0845 16.3028 18.0994 16.5613 18.1624 16.9005C18.2753 17.5081 18.5329 18.3216 19.0017 19.3164C19.6471 19.427 20.4401 19.6324 20.9939 19.9743C21.3179 20.1742 21.7771 20.5568 21.7995 21.1776C21.8217 21.7929 21.3996 22.2628 20.95 22.6C20.8202 22.6974 20.6623 22.75 20.5 22.75L17 22.75C16.8011 22.75 16.6103 22.671 16.4697 22.5303C16.4399 22.5005 16.407 22.4683 16.3716 22.4335C15.8963 21.9671 14.963 21.0512 14.7811 19.5297C14.5216 19.6457 14.2377 19.7555 13.9445 19.8581C14.0876 19.9222 14.2265 19.9952 14.3552 20.0786C14.5733 20.22 14.8041 20.4183 14.9553 20.6955C15.1189 20.9956 15.1625 21.341 15.0629 21.6894C14.9706 22.0127 14.7694 22.2912 14.5303 22.5303C14.3897 22.671 14.1989 22.75 14 22.75H6C5.91939 22.75 5.8393 22.737 5.76283 22.7115C5.4596 22.6104 5.19893 22.3867 5.00082 22.1698C4.78651 21.935 4.57848 21.6342 4.39633 21.2821C4.03104 20.5758 3.75 19.6248 3.75 18.5C3.75 16.2749 4.86174 12.2306 9.66459 9.82918C10.7319 9.29554 11.6715 9.02585 12.3529 8.88956C12.6936 8.82142 12.9702 8.78655 13.1665 8.7687C13.2646 8.75978 13.3428 8.7551 13.3991 8.75266C13.4272 8.75144 13.4498 8.75077 13.4667 8.75041L13.4877 8.75007L13.495 8.75001L13.4978 8.75L13.499 8.75C13.4992 8.75 13.5 8.75 13.5 9.5C13.5 10.25 13.5002 10.25 13.5005 10.25L13.5017 10.25L13.5028 10.25L13.4986 10.2501C13.4926 10.2502 13.481 10.2505 13.4642 10.2512C13.4306 10.2527 13.376 10.2558 13.3023 10.2625C13.1548 10.2759 12.9314 10.3036 12.6471 10.3604Z" fill="#333333" class='xian'/>
<path fill-rule="evenodd" clip-rule="evenodd" d="M10.768 2.2076C11.3367 1.69414 12.2049 1.5702 12.9684 1.95199C13.3121 2.12385 13.7759 2.48909 14.2309 2.87609C14.7089 3.28261 15.2495 3.77699 15.7682 4.26544C16.7692 5.20816 17.7104 6.14963 18.0006 6.43996C18.0114 6.4508 18.0213 6.46072 18.0303 6.46971L16.9697 7.53037C16.9608 7.52154 16.9511 7.51182 16.9406 7.50125C16.6517 7.21229 15.7239 6.28424 14.7398 5.35743C14.2292 4.87657 13.7093 4.40165 13.2591 4.01868C12.7859 3.6162 12.4539 3.37177 12.2976 3.29361C12.0611 3.17536 11.8628 3.24007 11.7732 3.32094C11.7309 3.35913 11.709 3.40178 11.7023 3.4494C11.6958 3.49587 11.6971 3.59623 11.7863 3.75446C12.0055 4.14332 12.4571 4.52664 13.1478 4.97197C13.4482 5.16569 13.7703 5.35697 14.1135 5.56079C14.1538 5.58473 14.1944 5.60885 14.2353 5.63316C14.6187 5.86111 15.0232 6.10389 15.416 6.36575L14.584 7.61382C14.2268 7.37568 13.8521 7.15042 13.4687 6.92249C13.4281 6.89836 13.3874 6.87416 13.3465 6.8499C13.0071 6.64835 12.6602 6.44234 12.335 6.23265C11.6254 5.77517 10.8934 5.22499 10.4797 4.49115C10.0043 3.64803 10.1587 2.75779 10.768 2.2076Z" fill="#333333" class='xian'/>
<path fill-rule="evenodd" clip-rule="evenodd" d="M9.2022 4.49136C9.72411 3.76065 10.7053 3.43428 11.7372 3.77822L11.2628 5.20126C10.7947 5.04522 10.5259 5.21888 10.4228 5.3632C10.3652 5.4438 10.3413 5.53355 10.3488 5.62106C10.3559 5.70411 10.3948 5.82397 10.5303 5.95948C10.7067 6.13581 11.01 6.34638 11.4123 6.5708C11.8042 6.78945 12.248 6.99831 12.6721 7.18131C13.0947 7.36364 13.4885 7.51636 13.7769 7.62356C13.9208 7.67706 14.0379 7.71896 14.1183 7.74728C14.1585 7.76143 14.1895 7.77218 14.2101 7.77926L14.233 7.78711L14.2383 7.78891L14.2394 7.78928C14.2393 7.78926 14.2394 7.78927 14 8.50005C13.7606 9.21084 13.7606 9.21081 13.7605 9.21078L13.7574 9.20972L13.7497 9.20714L13.7221 9.19767C13.6982 9.18947 13.6638 9.17753 13.62 9.16211C13.5325 9.13127 13.4073 9.08643 13.2543 9.0296C12.9491 8.91613 12.5303 8.75379 12.0779 8.55856C11.627 8.364 11.1333 8.13279 10.6815 7.88077C10.2401 7.63451 9.79335 7.34381 9.46968 7.02014C8.71314 6.2636 8.67438 5.23032 9.2022 4.49136Z" fill="#333333" class='xian'/>
<path d="M19.25 10.25C19.25 10.6642 18.9142 11 18.5 11C18.0858 11 17.75 10.6642 17.75 10.25C17.75 9.83579 18.0858 9.5 18.5 9.5C18.9142 9.5 19.25 9.83579 19.25 10.25Z" fill="#333333" class='xian'/>
</svg>
