<svg width="24" height="24" viewBox="0 0 24 24" fill="none" xmlns="http://www.w3.org/2000/svg">
<path d="M10 10.5C5.2 10.1 4 15 4 17.5C4 18.5 5 19 5 19C4.2 21 5.5 21.8333 6 22H16C17.6 19.6 12.6667 19.6667 10 20C12 19.6 13.1667 18.5 13.5 18C15.1 15.6 12.1667 15 10.5 15C14.5 15 14.8333 17.3333 15.5 19L15.5 19C16.1 20.5 16.5 21.5 17 22L20.5 22C22.1 20.8 19.8333 20.1667 18.5 20C17.3 17.6 17.1667 16 17.5 15.5C18.3 14.3 18.1667 13 18 12.5C14.4 12.5 13.5 10.6667 13.5 9.5C12 10.5 10.873 10.5728 10 10.5Z" fill="rgba(0,0,0,0)"  class='mian'/>
<path d="M2 18L4 17L5 19V20H3L2 18Z" fill="rgba(0,0,0,0)" class='mian'/>
<path d="M9.5 5.5L12 2.5L16 6L14 8H12L9.5 5.5Z" fill="rgba(0,0,0,0)" class='mian'/>
<path d="M13.4885 9.73165C13.6957 6.53836 16.698 6.5996 18.1733 7.02938C18.1733 7.02938 20.6357 7.69019 21.504 9.75076C22.3591 11.7798 20.3705 12.6835 18.815 12.5825C14.4242 12.2976 13.4237 10.7295 13.4885 9.73165Z" fill="rgba(0,0,0,0)"  class='mian'/>
<path fill-rule="evenodd" clip-rule="evenodd" d="M18.3778 6.30775C17.5536 6.06859 16.2678 5.91533 15.1117 6.31253C14.5174 6.51668 13.9434 6.87211 13.5045 7.44638C13.0654 8.02103 12.7996 8.76502 12.74 9.68305C12.6881 10.4832 13.0801 11.3609 14.0515 12.0393C14.9998 12.7016 16.5022 13.184 18.7664 13.3309C19.6745 13.3899 20.7621 13.1658 21.5315 12.5514C21.9291 12.2339 22.255 11.7991 22.3917 11.2423C22.5284 10.6858 22.4578 10.0826 22.1952 9.45947C21.6735 8.22148 20.6889 7.43534 19.8912 6.96963C19.4871 6.7337 19.1143 6.57013 18.8412 6.46493C18.7041 6.41213 18.5908 6.37351 18.5094 6.34747C18.4687 6.33443 18.4359 6.32451 18.4119 6.3175L18.3828 6.30914L18.3778 6.30775ZM17.9784 7.7536L17.9635 7.74942C17.3122 7.55968 16.3622 7.46894 15.5991 7.73114C15.2324 7.85712 14.9248 8.05826 14.6963 8.3572C14.4682 8.65574 14.2809 9.10158 14.2369 9.78019C14.224 9.97796 14.2999 10.3832 14.9103 10.8095C15.5438 11.2519 16.7371 11.6961 18.8636 11.8341C19.511 11.8761 20.1954 11.6988 20.5955 11.3793C20.7826 11.2299 20.8908 11.0647 20.935 10.8845C20.9793 10.704 20.9778 10.4334 20.8129 10.042C20.4663 9.21941 19.7855 8.64486 19.1349 8.26502C18.8149 8.07818 18.5177 7.94777 18.302 7.86467C18.1947 7.82332 18.1088 7.79421 18.0522 7.77607C18.0239 7.76702 18.003 7.76073 17.9904 7.75705L17.978 7.75348L17.978 7.75349L17.9784 7.7536ZM17.978 7.75348L17.9774 7.75331L17.9767 7.75313C17.9766 7.75309 17.977 7.75321 17.978 7.75348Z" fill="#333333" class='xian'/>
<path fill-rule="evenodd" clip-rule="evenodd" d="M2.00635 17.1843C2.53773 16.597 3.36171 16.25 4 16.25V17.75C3.80495 17.75 3.37893 17.903 3.11865 18.1907C3.00393 18.3175 2.95232 18.4371 2.94202 18.5468C2.93228 18.6503 2.95148 18.8251 3.12404 19.084C3.28883 19.3312 3.42377 19.3875 3.4944 19.4052C3.58153 19.427 3.7013 19.4204 3.86166 19.3603C4.02181 19.3002 4.17698 19.2032 4.3 19.1109C4.35924 19.0665 4.40586 19.0271 4.43611 19.0003C4.45113 18.987 4.46178 18.977 4.46759 18.9715L4.47253 18.9668C4.47272 18.9666 4.47258 18.9668 4.4721 18.9673L4.47114 18.9682L4.47047 18.9689L4.47008 18.9693C4.46988 18.9695 4.46967 18.9697 5 19.5C5.53033 20.0303 5.53011 20.0306 5.52988 20.0308L5.52939 20.0313L5.52831 20.0323L5.52571 20.0349L5.5188 20.0417L5.49822 20.0614C5.48158 20.0772 5.45903 20.098 5.43107 20.1228C5.37539 20.1721 5.29701 20.2382 5.2 20.3109C5.01052 20.453 4.72819 20.6373 4.38834 20.7647C4.0487 20.8921 3.60597 20.9793 3.1306 20.8604C2.63873 20.7375 2.21117 20.4188 1.87596 19.916C1.54852 19.4249 1.40105 18.9122 1.4486 18.4064C1.49559 17.9066 1.72523 17.495 2.00635 17.1843Z" fill="#333333" class='xian'/>
<path fill-rule="evenodd" clip-rule="evenodd" d="M13.8539 8.83875C14.0978 8.96926 14.25 9.2234 14.25 9.5C14.25 9.8969 14.4031 10.4338 14.9002 10.8787C15.3979 11.3241 16.3231 11.75 18 11.75C18.3228 11.75 18.6094 11.9566 18.7115 12.2628C18.9331 12.9277 19.08 14.4742 18.1305 15.9063C18.1303 15.909 18.1048 15.968 18.0955 16.1219C18.0845 16.3028 18.0994 16.5613 18.1624 16.9005C18.2753 17.5081 18.5329 18.3216 19.0017 19.3164C19.6471 19.427 20.4401 19.6325 20.9939 19.9743C21.3179 20.1742 21.7771 20.5568 21.7995 21.1776C21.8217 21.7929 21.3996 22.2628 20.95 22.6C20.8202 22.6974 20.6623 22.75 20.5 22.75L16 22.75V21.25L20.2049 21.25C19.8163 21.0107 19.0543 20.8251 18.407 20.7442C18.1581 20.7131 17.9413 20.5597 17.8292 20.3354C17.2064 19.0898 16.8452 18.0225 16.6876 17.1745C16.609 16.7512 16.578 16.366 16.5982 16.0312C16.6176 15.7116 16.6878 15.3662 16.876 15.084C17.3193 14.4189 17.4004 13.7145 17.3715 13.2316C15.7838 13.1357 14.6559 12.6731 13.8998 11.9963C13.4466 11.5907 13.1504 11.1287 12.9723 10.6692C11.7509 11.2643 10.752 11.3153 9.93772 11.2474C8.87353 11.1587 8.05028 11.3649 7.4047 11.7274C6.75346 12.0931 6.24005 12.6423 5.84169 13.3008C5.03393 14.6358 4.75 16.3386 4.75 17.5C4.75 17.7309 4.86208 17.9264 5.03033 18.0947C5.11242 18.1768 5.19651 18.24 5.25977 18.2822C5.29077 18.3029 5.31502 18.3173 5.32913 18.3254L5.34149 18.3323C5.68611 18.5084 5.84038 18.9185 5.69635 19.2785C5.36949 20.0957 5.50676 20.5535 5.65562 20.8016C5.79538 21.0346 6.00514 21.1801 6.14616 21.25L16 21.25V22.75L6 22.75C5.91939 22.75 5.8393 22.737 5.76283 22.7115C5.38512 22.5856 4.76953 22.2403 4.36938 21.5734C4.01391 20.9809 3.87652 20.2155 4.11534 19.2914C4.06761 19.2497 4.01872 19.2044 3.96967 19.1553C3.63792 18.8236 3.25 18.2691 3.25 17.5C3.25 16.1614 3.56607 14.1642 4.55831 12.5243C5.05995 11.6952 5.74654 10.9382 6.6703 10.4195C7.59972 9.8976 8.72647 9.64128 10.0623 9.75259C10.7934 9.81352 11.7458 9.76806 13.084 8.87596C13.3141 8.72254 13.61 8.70823 13.8539 8.83875Z" fill="#333333" class='xian'/>
<path fill-rule="evenodd" clip-rule="evenodd" d="M9.75 15C9.75 14.5858 10.0858 14.25 10.5 14.25C12.6625 14.25 13.9806 14.8907 14.8237 15.8919C15.2267 16.3705 15.491 16.8969 15.693 17.3851C15.7939 17.629 15.8824 17.8712 15.9631 18.0946C15.9709 18.116 15.9785 18.1371 15.9861 18.1581C16.0595 18.3613 16.1261 18.5458 16.1964 18.7215C16.4995 19.4792 16.7398 20.0793 16.965 20.5532C17.1939 21.0352 17.3745 21.3138 17.5303 21.4697L16.4697 22.5303C16.1255 22.1862 15.8561 21.7148 15.61 21.1968C15.3624 20.6754 15.1051 20.0322 14.8115 19.2982L14.8036 19.2785C14.7233 19.0777 14.6479 18.8687 14.576 18.6698C14.5681 18.6479 14.5603 18.6262 14.5525 18.6046C14.4836 18.4141 14.4166 18.2307 14.3446 18.051C14.2789 18.1726 14.2052 18.2943 14.124 18.416C13.6781 19.0849 12.3381 20.2972 10.1471 20.7354L9.85291 19.2646C11.6619 18.9028 12.6552 17.9151 12.876 17.584C13.2172 17.0721 13.2286 16.7869 13.2042 16.661C13.1819 16.5455 13.0977 16.4 12.836 16.2412C12.2733 15.8998 11.293 15.75 10.5 15.75C10.0858 15.75 9.75 15.4142 9.75 15Z" fill="#333333" class='xian'/>
<path fill-rule="evenodd" clip-rule="evenodd" d="M14.4694 20.7135C13.2144 20.4916 11.4033 20.5804 10.093 20.7442L9.90697 19.2558C11.2634 19.0862 13.2523 18.975 14.7306 19.2365C15.433 19.3607 16.2194 19.5999 16.6822 20.1403C16.9409 20.4425 17.0844 20.8233 17.0597 21.2542C17.0364 21.6605 16.8676 22.0507 16.624 22.416L15.376 21.584C15.5324 21.3493 15.5594 21.2166 15.5622 21.1684C15.5635 21.1449 15.5633 21.1398 15.5428 21.1159C15.4472 21.0043 15.1336 20.831 14.4694 20.7135Z" fill="#333333" class='xian'/>
<path fill-rule="evenodd" clip-rule="evenodd" d="M10.768 2.2076C11.3367 1.69414 12.2049 1.5702 12.9684 1.95199C13.3121 2.12385 13.7759 2.48909 14.2309 2.87609C14.7089 3.28261 15.2495 3.77699 15.7682 4.26544C16.7692 5.20816 17.7104 6.14963 18.0006 6.43996C18.0114 6.4508 18.0213 6.46072 18.0303 6.46971L16.9697 7.53037C16.9608 7.52154 16.9511 7.51182 16.9406 7.50125C16.6517 7.21229 15.7239 6.28424 14.7398 5.35743C14.2292 4.87657 13.7093 4.40165 13.2591 4.01868C12.7859 3.6162 12.4539 3.37177 12.2976 3.29361C12.0611 3.17536 11.8628 3.24007 11.7732 3.32094C11.7309 3.35913 11.709 3.40178 11.7023 3.4494C11.6958 3.49587 11.6971 3.59623 11.7863 3.75446C12.0055 4.14332 12.4571 4.52664 13.1478 4.97197C13.4482 5.16569 13.7703 5.35697 14.1135 5.56079C14.1538 5.58473 14.1944 5.60885 14.2353 5.63316C14.6187 5.86111 15.0232 6.10389 15.416 6.36575L14.584 7.61382C14.2268 7.37568 13.8521 7.15042 13.4687 6.92249C13.4281 6.89836 13.3874 6.87416 13.3465 6.8499C13.0071 6.64835 12.6602 6.44234 12.335 6.23265C11.6254 5.77517 10.8934 5.22499 10.4797 4.49115C10.0043 3.64803 10.1587 2.75779 10.768 2.2076Z" fill="#333333" class='xian'/>
<path fill-rule="evenodd" clip-rule="evenodd" d="M9.2022 4.49136C9.72411 3.76065 10.7053 3.43428 11.7372 3.77822L11.2628 5.20126C10.7947 5.04522 10.5259 5.21888 10.4228 5.3632C10.3652 5.4438 10.3413 5.53355 10.3488 5.62106C10.3559 5.7041 10.3948 5.82397 10.5303 5.95948C10.7067 6.13581 11.01 6.34639 11.4123 6.5708C11.8042 6.78945 12.248 6.99831 12.6721 7.18131C13.0947 7.36364 13.4885 7.51636 13.7769 7.62356C13.9208 7.67706 14.0379 7.71896 14.1183 7.74728C14.1585 7.76143 14.1895 7.77218 14.2101 7.77926L14.233 7.78711L14.2383 7.78891L14.2394 7.78928C14.2393 7.78926 14.2394 7.78927 14 8.50005C13.7606 9.21084 13.7606 9.21081 13.7605 9.21078L13.7574 9.20972L13.7497 9.20714L13.7221 9.19767C13.6982 9.18947 13.6638 9.17753 13.62 9.16211C13.5325 9.13127 13.4073 9.08643 13.2543 9.0296C12.9491 8.91613 12.5303 8.75379 12.0779 8.55856C11.627 8.364 11.1333 8.13279 10.6815 7.88077C10.2401 7.63451 9.79335 7.34381 9.46968 7.02014C8.71314 6.2636 8.67438 5.23032 9.2022 4.49136Z" fill="#333333" class='xian'/>
<path d="M19.25 10.25C19.25 10.6642 18.9142 11 18.5 11C18.0858 11 17.75 10.6642 17.75 10.25C17.75 9.83579 18.0858 9.5 18.5 9.5C18.9142 9.5 19.25 9.83579 19.25 10.25Z" fill="#333333" class='xian'/>
</svg>
