<svg width="24" height="24" viewBox="0 0 24 24" fill="none" xmlns="http://www.w3.org/2000/svg">
<path d="M6.11039 7.57806C8.1104 4.57812 11.7771 4.74473 13.1104 5.07806C12.7104 3.87801 13.6104 3.24474 14.1104 3.07811C15.7104 2.67811 16.1104 3.91144 16.1104 4.57811C19.3104 4.57811 22 6.57808 22 7.57806C22 8.57805 19.4437 9.57811 18.1104 9.57811L17.6104 10.5781C21.1104 11.5781 20.1104 13.5781 19.1104 13.0781C15.5164 11.2811 16.1104 14.0781 17.1104 14.5781C18.1104 15.0781 18.2771 15.7448 18.1104 16.0781L14.6104 16.0781H6.61039C3.01039 15.2781 4.11037 10.578 6.11039 7.57806Z" fill="rgba(0,0,0,0)" class='mian'/>
<path d="M18.6634 7.08171C18.6634 7.54105 18.2911 7.91342 17.8317 7.91342C17.3724 7.91342 17 7.54105 17 7.08171C17 6.62237 17.3724 6.25 17.8317 6.25C18.2911 6.25 18.6634 6.62237 18.6634 7.08171Z" fill="#333333" class='xian'/>
<path fill-rule="evenodd" clip-rule="evenodd" d="M1.84776 13.0746C2.44469 12.1344 3.37357 11.8281 4.21758 11.8281C4.6318 11.8281 4.96758 12.1639 4.96758 12.5781C4.96758 12.9923 4.6318 13.3281 4.21758 13.3281C3.74008 13.3281 3.36536 13.4828 3.11407 13.8786C2.83208 14.3227 2.61475 15.207 2.84984 16.8728C3.06478 17.9208 3.67856 18.8478 4.64643 19.4156C5.6174 19.9851 7.01818 20.2345 8.86663 19.7724C9.04635 19.7275 9.2245 19.6827 9.40109 19.6383C11.1565 19.1968 12.756 18.7946 14.1786 18.6971C15.7856 18.587 17.2567 18.8566 18.5789 19.9143C18.9023 20.1731 18.9548 20.6451 18.696 20.9685C18.4373 21.292 17.9653 21.3444 17.6419 21.0857C16.6986 20.3311 15.6388 20.1006 14.2812 20.1936C13.0001 20.2814 11.5351 20.6492 9.7354 21.101C9.56995 21.1425 9.40167 21.1848 9.23043 21.2276C7.07889 21.7655 5.26059 21.5149 3.88749 20.7094C2.51739 19.9057 1.66371 18.5909 1.37495 17.1471C1.37222 17.1335 1.36988 17.1198 1.36792 17.1061C1.10785 15.2855 1.28271 13.9645 1.84776 13.0746Z" fill="#333333" class='xian'/>
<path fill-rule="evenodd" clip-rule="evenodd" d="M16.7594 3.85284C18.2545 3.96646 19.6086 4.45815 20.6328 5.05509C21.218 5.39615 21.7176 5.78427 22.0815 6.17939C22.4147 6.54128 22.75 7.03427 22.75 7.57803C22.75 8.14878 22.3961 8.58676 22.0814 8.86995C21.7459 9.17183 21.3128 9.42771 20.8717 9.63303C20.264 9.91584 19.5544 10.142 18.9069 10.2531C20.0504 10.7765 20.7029 11.4946 20.7933 12.3078C20.8518 12.8342 20.6467 13.3385 20.2359 13.6422C19.819 13.9503 19.2658 13.9943 18.775 13.7489C17.9157 13.3193 17.4158 13.2237 17.1709 13.2335C17.1384 13.2348 17.1138 13.2378 17.0957 13.241C17.0942 13.2994 17.1062 13.4129 17.1769 13.5665C17.2716 13.7722 17.3957 13.8823 17.4458 13.9073C18.5808 14.4748 19.2321 15.5117 18.7812 16.4135C18.6542 16.6676 18.3945 16.8281 18.1104 16.8281L6.61038 16.8281C6.55566 16.8281 6.5011 16.8221 6.44768 16.8102C5.3729 16.5714 4.58457 16.0197 4.09477 15.2294C3.61783 14.4599 3.46936 13.5384 3.51115 12.619C3.59418 10.7923 4.43667 8.73649 5.48635 7.16201C6.61865 5.4636 8.22517 4.66805 9.70011 4.3454C10.646 4.13848 11.5535 4.12154 12.2835 4.18737C12.3353 3.83255 12.4727 3.51779 12.6647 3.25169C13.0139 2.76775 13.5094 2.48783 13.8733 2.36657C13.8915 2.3605 13.9099 2.35514 13.9285 2.35049C14.9507 2.09494 15.7568 2.34422 16.274 2.93324C16.5218 3.21554 16.6728 3.54216 16.7594 3.85284ZM14.3236 3.79809C14.6112 3.73035 14.795 3.74551 14.9052 3.77479C15.0136 3.80363 15.0876 3.8555 15.1468 3.92295C15.2867 4.08226 15.3604 4.35549 15.3604 4.5781C15.3604 4.99231 15.6962 5.3281 16.1104 5.3281C17.5599 5.3281 18.9034 5.78332 19.8775 6.35106C20.3647 6.635 20.7376 6.93436 20.978 7.19548C21.1661 7.39974 21.2241 7.52582 21.242 7.56924C21.2253 7.59865 21.1825 7.66094 21.0781 7.75489C20.8926 7.92177 20.6033 8.10341 20.2387 8.27311C19.4993 8.61725 18.6366 8.8281 18.1104 8.8281C17.8263 8.8281 17.5666 8.9886 17.4396 9.24268L16.9396 10.2427C16.8398 10.4423 16.834 10.6759 16.9239 10.8801C17.0137 11.0843 17.1898 11.238 17.4043 11.2993C18.6221 11.6472 19.0668 12.0644 19.2229 12.2989C18.3847 11.9033 17.6843 11.7118 17.1111 11.7347C16.7875 11.7476 16.4745 11.8304 16.2086 12.0138C15.9372 12.2011 15.7646 12.4592 15.6748 12.7335C15.5062 13.2487 15.6305 13.7943 15.8143 14.1937C15.9999 14.5969 16.325 15.024 16.775 15.2489C16.828 15.2755 16.8769 15.3019 16.9217 15.3281L6.69681 15.3281C6.0179 15.1608 5.61466 14.8344 5.36974 14.4392C5.10293 14.0087 4.97639 13.4178 5.0096 12.6871C5.07657 11.2137 5.78408 9.41954 6.73442 7.99408C7.60212 6.69255 8.82894 6.07144 10.0207 5.81074C11.2284 5.54654 12.3607 5.66371 12.9285 5.80565C13.194 5.87204 13.4747 5.78848 13.6607 5.58764C13.8467 5.38679 13.9085 5.10057 13.8219 4.84088C13.6992 4.47274 13.7828 4.26555 13.8811 4.12939C13.9997 3.96494 14.1884 3.84883 14.3236 3.79809Z" fill="#333333" class='xian'/>
<path fill-rule="evenodd" clip-rule="evenodd" d="M10.25 13C10.25 12.5858 10.5858 12.25 11 12.25C12.0824 12.25 13.788 13.1658 14.2398 15.8767C14.3079 16.2853 14.0319 16.6717 13.6233 16.7398C13.2147 16.8079 12.8283 16.5319 12.7602 16.1233C12.412 14.0342 11.2509 13.75 11 13.75C10.5858 13.75 10.25 13.4142 10.25 13Z" fill="#333333" class='xian'/>
</svg>
