<svg width="24" height="24" viewBox="0 0 24 24" fill="none" xmlns="http://www.w3.org/2000/svg">
<path d="M15 12L16 9.5L17 10.5L20 12L22 13.5L20.5 15.5L18.5 14L15 12Z" fill="rgba(0,0,0,0)" class='mian'/>
<path d="M17.7672 7.46707C19.1265 7.01398 21.1654 6.90091 21.7318 4.06888L15.5018 2.93615C14.369 1.23726 12.6699 2.36978 12.6699 2.36978C11.3107 3.27597 12.1036 5.01282 12.6699 5.76798C12.6699 5.76798 9.83813 5.20185 7.00628 8.03344C4.17443 10.865 4.55203 15.3962 5.87355 16.5289C9.00316 19.2114 13.2363 18.2281 15.5018 18.2281C15.0487 16.8688 13.4251 16.3401 12.6699 16.5289C14.0292 15.1696 14.7466 12.9419 14.9354 11.998C15.3885 8.82635 17.0121 7.65586 17.7672 7.46707Z" fill="rgba(0,0,0,0)" class='mian'/>
<path fill-rule="evenodd" clip-rule="evenodd" d="M13.0842 2.99504C13.0834 2.99555 13.0827 2.99597 13.0822 2.99631C12.7151 3.24282 12.621 3.57065 12.689 4.01104C12.7636 4.4937 13.034 5.00333 13.2699 5.31795C13.4565 5.56669 13.4702 5.90475 13.3045 6.1678C13.1396 6.42939 12.8313 6.56286 12.528 6.5044L12.5181 6.50272C12.5062 6.50082 12.4845 6.49754 12.4534 6.49382C12.3913 6.48636 12.2923 6.47715 12.1618 6.47343C11.9007 6.46598 11.5154 6.4806 11.0472 6.57427C10.118 6.76013 8.83921 7.26126 7.53658 8.56377C6.27606 9.82418 5.71716 11.4777 5.63114 12.9616C5.58821 13.7021 5.66474 14.379 5.8167 14.9184C5.97362 15.4755 6.189 15.8115 6.36164 15.9594C7.75392 17.1528 9.40906 17.5507 11.0504 17.6354C11.872 17.6779 12.6763 17.6412 13.4325 17.5914C13.6025 17.5802 13.7726 17.5682 13.9409 17.5562C13.9653 17.5545 13.9897 17.5527 14.014 17.551C13.9652 17.5219 13.915 17.4944 13.8637 17.4688C13.4097 17.2417 13.0024 17.2189 12.8518 17.2565C12.5963 17.3204 12.3259 17.2455 12.1396 17.0592C11.9533 16.8729 11.8784 16.6026 11.9423 16.347C12.3399 14.7568 11.9088 13.9302 11.3822 13.4677C10.7905 12.9482 9.91619 12.748 9.27177 12.748C8.85756 12.7481 8.52176 12.4123 8.52174 11.9981C8.52173 11.5839 8.8575 11.2481 9.27172 11.248C10.1376 11.248 11.4155 11.5008 12.3719 12.3406C12.8705 12.7784 13.2479 13.3453 13.4445 14.0478C13.4827 13.9669 13.5197 13.8858 13.5554 13.8049C13.9011 13.0216 14.11 12.2913 14.1961 11.8702C14.6798 8.53029 16.4274 7.04741 17.5553 6.74719C17.7542 6.68196 18.0009 6.61312 18.2329 6.5484C18.3894 6.50475 18.5391 6.46297 18.6629 6.42544C19.0308 6.31393 19.3667 6.18899 19.6682 6.01265C20.0983 5.76107 20.5096 5.37694 20.7869 4.65935L15.3676 3.67402C15.1674 3.63763 14.9906 3.52147 14.8777 3.35218C14.6674 3.03666 14.4601 2.89287 14.293 2.82322C14.1206 2.7514 13.9386 2.73702 13.7541 2.76007C13.5663 2.78353 13.3924 2.84411 13.2608 2.90331C13.1967 2.93217 13.1469 2.95876 13.1156 2.97653C13.1001 2.98536 13.0894 2.99182 13.0842 2.99504ZM15.41 13.133C15.2864 13.5235 15.1262 13.9608 14.9277 14.4105C14.7077 14.9091 14.4339 15.4383 14.1003 15.9427C14.2487 15.9952 14.3944 16.057 14.5345 16.1271C15.2187 16.4692 15.9079 17.0749 16.2133 17.9909C16.2895 18.2196 16.2512 18.471 16.1102 18.6666C15.9692 18.8622 15.7428 18.9781 15.5018 18.9781C15.0994 18.9781 14.6343 19.011 14.0896 19.0496C13.912 19.0622 13.726 19.0753 13.5309 19.0882C12.7584 19.139 11.8841 19.1805 10.973 19.1334C9.14902 19.0392 7.12279 18.5875 5.38545 17.0983C4.89733 16.6799 4.56994 16.0247 4.37288 15.3251C4.17086 14.6079 4.08219 13.7626 4.13365 12.8748C4.23641 11.1021 4.90464 9.07424 6.47597 7.50306C8.00519 5.97397 9.55825 5.34237 10.7529 5.1034C10.9875 5.05649 11.2073 5.02486 11.4096 5.00439C11.3195 4.7622 11.2475 4.5046 11.2066 4.23994C11.0766 3.39807 11.2648 2.40511 12.2539 1.74572L12.254 1.74568L12.6699 2.36976C12.254 1.74568 12.2543 1.74548 12.2546 1.74526L12.2553 1.74482L12.2567 1.74385L12.2602 1.74159L12.269 1.73586L12.2943 1.71987C12.3146 1.70733 12.3416 1.69111 12.3747 1.67229C12.4408 1.63477 12.5326 1.58615 12.6454 1.53538C12.8678 1.43532 13.1895 1.31895 13.5681 1.27164C13.95 1.22393 14.4051 1.24495 14.8699 1.43859C15.2559 1.59945 15.615 1.86552 15.9282 2.25137L21.8659 3.33095C22.0639 3.36694 22.2391 3.48095 22.3521 3.64737C22.4652 3.81378 22.5067 4.01865 22.4672 4.21593C22.1436 5.83408 21.3677 6.75636 20.4255 7.30745C19.9766 7.57002 19.5125 7.73531 19.0981 7.86093C18.8892 7.92426 18.7174 7.97145 18.5605 8.01457C18.3665 8.06787 18.1952 8.11494 18.0044 8.17856C17.9862 8.18463 17.9677 8.19 17.9491 8.19465C17.7565 8.2428 17.2869 8.48496 16.8147 9.09407C16.817 9.11781 16.8181 9.14188 16.8181 9.16622C16.8181 9.24688 16.8602 9.4024 17.0714 9.63618C17.2782 9.86514 17.5897 10.1033 17.9739 10.3325C18.7426 10.791 19.6645 11.1328 20.2147 11.2704C20.9403 11.4519 21.4866 11.8306 21.8455 12.3306C22.1981 12.8218 22.3402 13.3878 22.3402 13.9097C22.3402 14.4256 22.2015 14.9421 21.9373 15.3517C21.677 15.7551 21.2239 16.1464 20.5991 16.1464C19.7636 16.1464 19.1594 15.7253 18.7944 15.3604C18.6099 15.1759 18.4733 14.9934 18.3821 14.8567C18.3729 14.8429 18.3642 14.8295 18.3558 14.8165L15.41 13.133ZM19.5682 13.9231C19.5683 13.9232 19.5683 13.9233 19.5684 13.9234L19.5681 13.9229C19.5678 13.9223 19.5678 13.9223 19.5682 13.9231C19.5682 13.9231 19.5682 13.9231 19.5682 13.9231ZM15.7622 11.6067L19.2721 13.6125C19.399 13.685 19.5019 13.793 19.5682 13.9231M15.7622 11.6067C15.8288 11.27 15.9095 10.9645 16.0003 10.6874C16.339 11.0493 16.7703 11.3612 17.2055 11.6207C18.112 12.1614 19.1723 12.5559 19.8507 12.7256C20.2578 12.8274 20.4903 13.015 20.627 13.2054C20.77 13.4045 20.8402 13.6527 20.8402 13.9097C20.8402 14.1725 20.7665 14.3994 20.6768 14.5385C20.6311 14.6094 20.5976 14.6368 20.582 14.6462C20.2924 14.6408 20.0527 14.4973 19.8551 14.2997C19.7564 14.201 19.6807 14.1003 19.6302 14.0246C19.6054 13.9874 19.5879 13.958 19.5777 13.9402C19.5753 13.936 19.5733 13.9325 19.5718 13.9297C19.5701 13.9267 19.569 13.9246 19.5684 13.9234" fill="#333333" class='xian'/>
<path fill-rule="evenodd" clip-rule="evenodd" d="M2.45989 16.3342C3.30413 15.5482 4.48771 15.2128 5.3072 15.2128C5.72142 15.2128 6.0572 15.5486 6.0572 15.9628C6.0572 16.377 5.72142 16.7128 5.3072 16.7128C4.80518 16.7128 4.00649 16.9437 3.48202 17.432C3.2334 17.6635 3.05895 17.9401 2.98718 18.2718C2.91655 18.5982 2.93258 19.0374 3.15998 19.6191C3.38313 20.0519 3.8275 20.6011 4.61151 20.9371C5.40472 21.277 6.63015 21.4348 8.47473 20.9123C9.56585 20.5182 11.3189 20.0531 13.1082 19.9158C14.873 19.7804 16.8697 19.9479 18.2358 21.0408C18.5592 21.2995 18.6117 21.7715 18.3529 22.0949C18.0941 22.4184 17.6222 22.4708 17.2987 22.2121C16.3994 21.4926 14.9034 21.2825 13.2229 21.4114C11.5809 21.5374 9.94921 21.9722 8.96171 22.3313C8.94515 22.3373 8.92839 22.3427 8.91144 22.3476C6.80519 22.9494 5.20617 22.8239 4.02063 22.3158C2.83884 21.8093 2.15252 20.9587 1.80456 20.2627C1.79526 20.2441 1.78674 20.2252 1.77902 20.2059C1.45124 19.3864 1.37465 18.6314 1.52111 17.9546C1.66763 17.2774 2.02415 16.7399 2.45989 16.3342Z" fill="#333333" class='xian'/>
<path d="M17.7316 5.46709C17.7316 5.92643 17.3592 6.2988 16.8999 6.2988C16.4405 6.2988 16.0682 5.92643 16.0682 5.46709C16.0682 5.00775 16.4405 4.63538 16.8999 4.63538C17.3592 4.63538 17.7316 5.00775 17.7316 5.46709Z" fill="#333333" class='xian'/>
</svg>
