<svg width="24" height="24" viewBox="0 0 24 24" fill="none" xmlns="http://www.w3.org/2000/svg">
<path fill-rule="evenodd" clip-rule="evenodd" d="M5.0894 14.3763C5.22039 14.7693 5.00802 15.194 4.61506 15.325C4.10552 15.4948 3.44122 16.071 3.04809 16.8037C2.65391 17.5384 2.66627 18.1449 2.99497 18.5376C3.53922 19.1877 4.07547 19.5549 4.71884 19.693C5.38213 19.8354 6.26774 19.7578 7.54856 19.293C8.89224 18.8054 11.3316 17.937 13.7535 17.7571C16.1634 17.5781 18.8223 18.0721 20.2109 20.6179C20.4092 20.9815 20.2752 21.4371 19.9116 21.6354C19.548 21.8338 19.0924 21.6998 18.894 21.3362C17.933 19.5743 16.0668 19.0894 13.8646 19.253C11.6743 19.4157 9.4144 20.2116 8.06024 20.703C6.64323 21.2172 5.45125 21.3844 4.40406 21.1596C3.33696 20.9306 2.52987 20.3188 1.84479 19.5004C0.944167 18.4246 1.20128 17.0731 1.72631 16.0945C2.25239 15.114 3.18176 14.2216 4.14072 13.902C4.53368 13.771 4.95842 13.9834 5.0894 14.3763Z" fill="#333333" class='xian'/>
<path d="M22 14.6135H4.3779C4.3779 10.6974 5.10658 9.22897 6.82541 7.76046C8.52738 6.30636 12.9128 6.49608 14.1326 7.72367C13.398 6.92641 13.8208 5.30942 14.168 4.82343C16.126 2.08221 18.5735 3.02858 19.5525 3.84442C21.9021 5.80243 20.2052 8.57628 19.063 9.71845L22 14.6135Z" fill="rgba(0,0,0,0)" class='mian'/>
<path fill-rule="evenodd" clip-rule="evenodd" d="M17.2242 2.25003C18.4186 2.24506 19.4407 2.77496 20.0326 3.26825L19.5525 3.84442L20.0326 3.26825C20.7268 3.8467 21.1528 4.51436 21.3506 5.22716C21.5464 5.93298 21.5052 6.63471 21.3443 7.27121C21.0917 8.27005 20.5305 9.16738 19.9929 9.81052L22.6431 14.2276C22.7821 14.4593 22.7858 14.7479 22.6526 14.983C22.5195 15.2181 22.2702 15.3635 22 15.3635H4.3779C3.96369 15.3635 3.6279 15.0277 3.6279 14.6135C3.6279 12.6209 3.8113 11.1678 4.2564 10.0017C4.71132 8.80984 5.41612 7.97806 6.33823 7.19024C7.39898 6.28397 9.14937 5.96661 10.6697 5.9865C11.4537 5.99675 12.2341 6.09663 12.9147 6.28394C12.9371 6.29013 12.9596 6.29644 12.982 6.30287C12.9856 6.22657 12.9912 6.15245 12.9985 6.08115C13.0643 5.43184 13.2856 4.76841 13.5577 4.3875C14.6618 2.84168 15.9794 2.25522 17.2242 2.25003ZM13.5934 8.24512C13.6078 8.26053 13.6226 8.27575 13.6376 8.29078C13.9266 8.57975 14.3937 8.5842 14.6881 8.3008C14.9825 8.0174 14.9958 7.55047 14.7181 7.25072C14.7048 7.2364 14.6914 7.22229 14.6778 7.20838C14.5314 7.04295 14.4422 6.71149 14.4908 6.2325C14.5395 5.75249 14.7032 5.36443 14.7783 5.25935C15.6321 4.06396 16.5173 3.75299 17.2305 3.75002C17.9941 3.74684 18.6853 4.09804 19.0723 4.42059C19.553 4.82115 19.7959 5.23447 19.9052 5.62815C20.0163 6.02881 20.0024 6.45906 19.89 6.90354C19.6601 7.81303 19.0426 8.67818 18.5327 9.18812C18.2893 9.43148 18.2428 9.80922 18.4199 10.1043L20.6754 13.8635H5.13797C5.1804 12.3579 5.35645 11.3261 5.65779 10.5366C5.99692 9.64808 6.51588 9.01137 7.31259 8.33069C7.95382 7.78285 9.24715 7.46802 10.65 7.48637C11.3276 7.49523 11.9786 7.58207 12.5166 7.73016C13.0654 7.8812 13.4197 8.07479 13.5934 8.24512Z" fill="#333333" class='xian'/>
<path d="M17.3553 10.4528C17.3553 10.8583 17.0266 11.187 16.621 11.187C16.2155 11.187 15.8868 10.8583 15.8868 10.4528C15.8868 10.0472 16.2155 9.71851 16.621 9.71851C17.0266 9.71851 17.3553 10.0472 17.3553 10.4528Z" fill="#333333" class='xian'/>
</svg>
