<svg width="24" height="24" viewBox="0 0 24 24" fill="none" xmlns="http://www.w3.org/2000/svg">
<path d="M5 22V13H19V22H5Z" fill="#FFD872"  class='mian'/>
<path d="M3 6V10H21V6C21 4.89543 20.1046 4 19 4H5C3.89543 4 3 4.89543 3 6Z" fill="#EA972E"  class='mian'/>
<path fill-rule="evenodd" clip-rule="evenodd" d="M5 4.75C4.30964 4.75 3.75 5.30964 3.75 6V9.25H20.25V6C20.25 5.30964 19.6904 4.75 19 4.75H5ZM2.25 6C2.25 4.48122 3.48122 3.25 5 3.25H19C20.5188 3.25 21.75 4.48122 21.75 6V10C21.75 10.4142 21.4142 10.75 21 10.75H3C2.58579 10.75 2.25 10.4142 2.25 10V6Z" fill="#333333" class='xian'/>
<path fill-rule="evenodd" clip-rule="evenodd" d="M3.75 10C3.75 9.58579 4.08579 9.25 4.5 9.25H19.5C19.9142 9.25 20.25 9.58579 20.25 10V22C20.25 22.4142 19.9142 22.75 19.5 22.75H4.5C4.08579 22.75 3.75 22.4142 3.75 22V10ZM5.25 10.75V21.25H18.75V10.75H5.25Z" fill="#333333" class='xian'/>
<path d="M7 3V4H17V3C17 2.44772 16.5523 2 16 2H8C7.44772 2 7 2.44772 7 3Z" fill="#EA972E" class='mian'/>
<path fill-rule="evenodd" clip-rule="evenodd" d="M8 2.75C7.86193 2.75 7.75 2.86193 7.75 3V3.25H16.25V3C16.25 2.86193 16.1381 2.75 16 2.75H8ZM6.25 3C6.25 2.0335 7.0335 1.25 8 1.25H16C16.9665 1.25 17.75 2.0335 17.75 3V4C17.75 4.41421 17.4142 4.75 17 4.75H7C6.58579 4.75 6.25 4.41421 6.25 4V3Z" fill="#333333" class='xian'/>
<path fill-rule="evenodd" clip-rule="evenodd" d="M6 6.25C6.41421 6.25 6.75 6.58579 6.75 7V9.5C6.75 9.91421 6.41421 10.25 6 10.25C5.58579 10.25 5.25 9.91421 5.25 9.5V7C5.25 6.58579 5.58579 6.25 6 6.25Z" fill="#333333" class='xian'/>
<path fill-rule="evenodd" clip-rule="evenodd" d="M10 6.25C10.4142 6.25 10.75 6.58579 10.75 7V9.5C10.75 9.91421 10.4142 10.25 10 10.25C9.58579 10.25 9.25 9.91421 9.25 9.5V7C9.25 6.58579 9.58579 6.25 10 6.25Z" fill="#333333" class='xian'/>
<path fill-rule="evenodd" clip-rule="evenodd" d="M14 6.25C14.4142 6.25 14.75 6.58579 14.75 7V9.5C14.75 9.91421 14.4142 10.25 14 10.25C13.5858 10.25 13.25 9.91421 13.25 9.5V7C13.25 6.58579 13.5858 6.25 14 6.25Z" fill="#333333" class='xian'/>
<path fill-rule="evenodd" clip-rule="evenodd" d="M18 6.25C18.4142 6.25 18.75 6.58579 18.75 7V9.5C18.75 9.91421 18.4142 10.25 18 10.25C17.5858 10.25 17.25 9.91421 17.25 9.5V7C17.25 6.58579 17.5858 6.25 18 6.25Z" fill="#333333"  class='xian'/>
</svg>
