<svg width="24" height="24" viewBox="0 0 24 24" fill="none" xmlns="http://www.w3.org/2000/svg">
<path d="M18 10C18 11.6842 18.0263 11.9472 17.5 13L18.5 15.5L19.079 21H17.5L15.5 13.5C13.3947 14.7632 10.2456 14.2916 9.36842 13.7653C9.36842 14.6074 8.31579 15.5197 7.78947 15.8705L8.60527 21H6.50001L5.68421 15.8705L6.21053 13.7653C5.15789 12.7126 5.1579 11.66 5.1579 11.66C5.1579 7.97579 7.08772 7.62491 8.31579 7.97579C9.36842 8.27654 12 8.50219 13.0526 7.97587C14.7368 2.50219 18.6667 2.88815 20.4211 3.76535L19.3684 4.81798L22 7.97587L20.9474 9.0285C20.9474 9.0285 20.4211 8.50211 19.3684 8.50219C18.3158 8.50227 17.7895 7.44961 17.7895 7.44961C17.3684 7.02856 18 8.94737 18 10Z" fill="rgba(0,0,0,0)" class='mian'/>
<path d="M2 14.2917C2 10.0812 4.10526 9.02856 5.15789 9.02856V10.6075C4.63158 11.1338 4.2807 13.4145 4.10526 14.818L2 14.2917Z" fill="rgba(0,0,0,0)" class='mian'/>
<path d="M10 21C9.47368 20.4737 8.5 17.9999 8.5 17.9999C8.5 17.4736 8 16.342 8 15.4999L10 14L10.579 17.5L11.5 21H10Z" fill="rgba(0,0,0,0)" class='mian'/>
<path d="M14 21C13.4737 20.4737 13.5 17.5 13.5 17.5C13.5 16.9737 13 15.842 13 14.9999L15 14L16 16V21H14Z" fill="rgba(0,0,0,0)" class='mian'/>
<path fill-rule="evenodd" clip-rule="evenodd" d="M2.60804 9.60106C3.40389 8.64605 4.40199 8.27856 5.15789 8.27856C5.57211 8.27856 5.90789 8.61435 5.90789 9.02856C5.90789 9.44278 5.57211 9.77856 5.15789 9.77856C4.86117 9.77856 4.28032 9.9374 3.76038 10.5613C3.29754 11.1167 2.85139 12.0831 2.76501 13.7099L3.47414 13.8872C3.55237 13.3509 3.64984 12.7669 3.76694 12.2253C3.85794 11.8044 3.96445 11.3918 4.08904 11.0398C4.2031 10.7176 4.36856 10.3362 4.62756 10.0772C4.92046 9.78429 5.39533 9.78429 5.68822 10.0772C5.98112 10.3701 5.98112 10.8449 5.68822 11.1378L5.6901 11.136C5.6901 11.136 5.66928 11.1608 5.63355 11.2292C5.5945 11.3039 5.5503 11.4069 5.50306 11.5403C5.40836 11.8079 5.31749 12.1518 5.23306 12.5423C5.06466 13.3212 4.9363 14.2164 4.84947 14.9111C4.82285 15.124 4.70625 15.3154 4.5292 15.4367C4.35214 15.5581 4.13159 15.5977 3.92336 15.5456L1.8181 15.0193C1.48422 14.9359 1.25 14.6359 1.25 14.2917C1.25 12.0645 1.8078 10.5614 2.60804 9.60106Z" fill="#333333" class='xian'/>
<path fill-rule="evenodd" clip-rule="evenodd" d="M10.4697 13.7506C10.8836 13.7339 11.2327 14.0559 11.2494 14.4697L11.3515 16.9981L12.3065 20.8182C12.3626 21.0422 12.3122 21.2796 12.1701 21.4616C12.028 21.6437 11.8099 21.7501 11.5789 21.7501H9.99999C9.80108 21.7501 9.61031 21.671 9.46966 21.5304C9.31491 21.3757 9.18934 21.155 9.09889 20.9827C8.99554 20.7859 8.8862 20.5483 8.77645 20.293C8.55631 19.7811 8.31732 19.1577 8.09846 18.5609C7.87889 17.962 7.67635 17.3809 7.5289 16.9501C7.4551 16.7346 7.39495 16.5562 7.35318 16.4315L7.30488 16.2867L7.28798 16.2357C7.28796 16.2356 7.28764 16.2347 7.99999 16L8.71234 15.7654L8.72846 15.814L8.7755 15.955C8.81638 16.0771 8.87547 16.2523 8.94806 16.4644C9.09337 16.8889 9.29214 17.4591 9.50678 18.0445C9.72213 18.6318 9.95025 19.2256 10.1545 19.7005C10.2489 19.9202 10.3347 20.106 10.4086 20.2501H10.6184L9.87765 17.2872C9.86523 17.2376 9.85793 17.1868 9.85586 17.1356L9.7506 14.5303C9.73388 14.1164 10.0558 13.7673 10.4697 13.7506ZM7.99999 16L8.71234 15.7654C8.58274 15.3719 8.15876 15.1581 7.76534 15.2877C7.37192 15.4173 7.15805 15.8412 7.28764 16.2347L7.99999 16Z" fill="#333333" class='xian'/>
<path fill-rule="evenodd" clip-rule="evenodd" d="M14.7215 13.3036C15.106 13.1498 15.5425 13.3368 15.6964 13.7214L16.6964 16.2214C16.7406 16.3319 16.7578 16.4513 16.7467 16.5698L16.3257 21.0698C16.2896 21.4553 15.9661 21.75 15.5789 21.75H14C13.5858 21.75 13.25 21.4142 13.25 21V17.5005L14 17.5L14.75 17.5V20.25H14.8958L15.2364 16.6104L14.3036 14.2785C14.1498 13.8939 14.3369 13.4574 14.7215 13.3036ZM14 17.5L14.75 17.5C14.75 17.2057 14.6291 16.8768 14.5424 16.6548C14.4648 16.4561 14.3664 16.2301 14.2708 16.0105C14.2429 15.9465 14.2153 15.8831 14.1885 15.821C14.0642 15.5332 13.9503 15.2588 13.8673 15.0115C13.7801 14.7514 13.75 14.5855 13.75 14.5C13.75 14.0857 13.4142 13.75 13 13.75C12.5858 13.75 12.25 14.0857 12.25 14.5C12.25 14.8355 12.3449 15.1893 12.4452 15.4884C12.5497 15.8003 12.6858 16.1246 12.8115 16.4157C12.8433 16.4895 12.8743 16.5606 12.9041 16.6291C12.9969 16.8425 13.079 17.031 13.1451 17.2003C13.2106 17.3682 13.2353 17.4575 13.2445 17.491C13.2495 17.509 13.25 17.5114 13.25 17.5005C13.25 17.5005 13.25 17.5005 13.25 17.5005L14 17.5Z" fill="#333333" class='xian'/>
<path fill-rule="evenodd" clip-rule="evenodd" d="M16.4701 2.77857C18.1167 2.22116 19.7476 2.59002 20.7565 3.09447C20.9721 3.20228 21.1228 3.40718 21.1614 3.64515C21.2 3.88312 21.1219 4.12515 20.9514 4.29562L20.3831 4.86395L22.5762 7.49568C22.8245 7.79367 22.8046 8.23186 22.5303 8.50615L21.4777 9.55878C21.337 9.69944 21.1463 9.77845 20.9473 9.77845C20.7537 9.77844 20.5678 9.70356 20.4284 9.56985C20.4248 9.56674 20.4149 9.55833 20.3987 9.54617C20.3647 9.52071 20.3041 9.47954 20.2172 9.43607C20.0458 9.35035 19.7652 9.2521 19.3685 9.25213C19.1144 9.25215 18.8828 9.21122 18.6741 9.14426C18.7182 9.44153 18.75 9.74045 18.75 9.99994C18.75 10.084 18.7501 10.1654 18.7502 10.2443C18.751 10.9239 18.7516 11.4177 18.6896 11.8445C18.6283 12.2668 18.509 12.6166 18.3191 13.0282L19.1964 15.2214C19.222 15.2855 19.2387 15.3528 19.2459 15.4214L19.8248 20.9214C19.8471 21.1328 19.7786 21.3438 19.6364 21.5017C19.4941 21.6597 19.2915 21.7499 19.079 21.7499H17.5C17.1602 21.7499 16.8629 21.5215 16.7753 21.1932L15.0088 14.5687C14.0013 14.9571 12.9103 15.0746 11.957 15.0534C11.3301 15.0395 10.7405 14.9652 10.2406 14.8562C10.1087 14.8274 9.97911 14.7954 9.85392 14.7601C9.70566 15.0454 9.516 15.295 9.34156 15.495C9.10438 15.767 8.84094 16.0086 8.60159 16.2017L9.34596 20.8821C9.38044 21.0989 9.31823 21.3199 9.17573 21.4868C9.03324 21.6538 8.82476 21.7499 8.60527 21.7499H6.50001C6.13127 21.7499 5.81723 21.4819 5.75932 21.1177L4.94352 15.9883C4.92765 15.8885 4.9321 15.7866 4.9566 15.6886L5.38521 13.9742C4.95601 13.4634 4.71357 12.9618 4.57796 12.555C4.49639 12.3103 4.45396 12.1015 4.43188 11.9469C4.42083 11.8696 4.41485 11.8056 4.41161 11.7571C4.41 11.7329 4.40907 11.7125 4.40854 11.6962L4.40802 11.6749L4.40793 11.6666L4.4079 11.6631L4.4079 11.6615C4.4079 11.6604 5.6408 11.6599 4.4079 11.6599C4.4079 9.70931 4.91805 8.42468 5.81027 7.71706C6.70082 7.01077 7.76889 7.03947 8.52183 7.25459C8.96994 7.38262 9.82521 7.50926 10.7072 7.53628C11.1426 7.54962 11.5647 7.53793 11.9292 7.49523C12.1381 7.47076 12.3117 7.43789 12.4504 7.40073C13.3598 4.72264 14.8486 3.32744 16.4701 2.77857ZM18.4575 7.10858C18.4584 7.11033 18.461 7.11518 18.4653 7.12269C18.4742 7.13823 18.4899 7.16454 18.5122 7.19801C18.5577 7.2662 18.6259 7.35687 18.7145 7.44554C18.8959 7.62694 19.1111 7.75215 19.3684 7.75213C19.9969 7.75208 20.4905 7.90352 20.8428 8.07232L20.9854 7.92979L18.7923 5.29806C18.5439 5.00006 18.5638 4.56188 18.8381 4.28759L19.0407 4.08494C18.4084 3.95909 17.6734 3.95483 16.951 4.19938C15.818 4.58292 14.5582 5.6331 13.7695 8.19638C13.7092 8.39228 13.5714 8.55497 13.388 8.64664C13.0111 8.8351 12.5494 8.93284 12.1037 8.98504C11.6459 9.03866 11.1468 9.05045 10.6612 9.03557C9.70111 9.00616 8.71427 8.8696 8.10975 8.69688C7.63462 8.56113 7.12375 8.58983 6.74237 8.89231C6.36332 9.19293 5.9095 9.9238 5.9079 11.6508C5.90798 11.6524 5.90811 11.6546 5.90829 11.6573C5.90917 11.6706 5.91141 11.697 5.91681 11.7348C5.92762 11.8105 5.95098 11.9306 6.00099 12.0807C6.10014 12.3781 6.30616 12.8002 6.74086 13.2349C6.92714 13.4212 7.00203 13.6915 6.93813 13.9471L6.44895 15.9039L7.14015 20.2499H7.72656L7.04878 15.9883C7.00274 15.6988 7.12956 15.409 7.37345 15.2464C7.59197 15.1008 7.93354 14.8273 8.21107 14.5091C8.51235 14.1636 8.61842 13.9025 8.61842 13.7652C8.61842 13.495 8.76377 13.2457 8.9989 13.1126C9.23403 12.9794 9.52259 12.9831 9.75429 13.1221C9.87196 13.1927 10.142 13.2994 10.5603 13.3907C10.9635 13.4786 11.4572 13.542 11.9904 13.5538C13.0716 13.5779 14.2273 13.3889 15.1141 12.8568C15.3161 12.7356 15.5633 12.7164 15.7816 12.8048C15.9999 12.8932 16.164 13.0791 16.2247 13.3067L18.0762 20.2499H18.2459L17.765 15.6819L16.8036 13.2785C16.7241 13.0796 16.7334 12.8562 16.8292 12.6646C17.0776 12.1676 17.1627 11.9216 17.2052 11.629C17.2505 11.3165 17.2504 10.9408 17.2501 10.1992C17.25 10.1356 17.25 10.0692 17.25 9.99994C17.25 9.61956 17.1466 9.07897 17.0443 8.54454C17.0293 8.46639 17.0144 8.38836 16.9998 8.31099C16.9517 8.05581 16.8947 7.74499 16.8947 7.5224C16.8947 7.46183 16.8981 7.3642 16.9247 7.25725C16.9452 7.17519 17.0187 6.92061 17.2834 6.75705C17.5983 6.56247 17.9067 6.65422 18.0451 6.7202C18.1776 6.78332 18.2711 6.87048 18.3198 6.91922C18.3753 6.97476 18.4218 7.03866 18.4575 7.10858Z" fill="#333333" class='xian'/>
<path d="M18.25 5.55005C18.25 5.96426 17.9142 6.30005 17.5 6.30005C17.0858 6.30005 16.75 5.96426 16.75 5.55005C16.75 5.13584 17.0858 4.80005 17.5 4.80005C17.9142 4.80005 18.25 5.13584 18.25 5.55005Z" fill="#333333" class='xian'/>
</svg>
