<svg width="24" height="24" viewBox="0 0 24 24" fill="none" xmlns="http://www.w3.org/2000/svg">
<path d="M16.3938 2.7565C14.3938 2.7565 15.3938 4.25634 15.8938 4.75634L17.7387 4.25644H19.3938C19.7938 2.65644 20 2.00022 18.5 2.5C17.5 0.500179 16.7271 2.08983 16.3938 2.7565Z" fill="#F1484C"/>
<path d="M17.8938 4.25635C19.4937 4.25635 19.8937 5.58968 19.8937 6.25635C20.2937 6.65635 20.3938 7.42301 20.3938 7.75635C17.9938 6.55635 18.3938 9.58968 18.8938 11.2563C20.3938 16.7563 16.3938 17.923 14.8938 18.2563C8.89375 19.8563 5.39375 15.5897 4.39375 13.2563C4.39375 12.8563 5.06042 12.7563 5.39375 12.7563L3.89375 11.7563C4.29375 10.9563 5.39375 11.0897 5.89375 11.2563C3.09375 10.0563 3.06042 7.75635 3.39375 6.75635C6.59375 9.15635 8.39375 10.0897 8.89375 10.2563C12.0938 11.8563 13.8938 8.92301 14.3938 7.25635C15.1938 4.85635 17.0604 4.25635 17.8938 4.25635Z" fill="#B95C43" class='mian'/>
<path fill-rule="evenodd" clip-rule="evenodd" d="M13.6274 17.9794C13.9869 17.7736 14.4451 17.8982 14.6509 18.2577C14.9881 18.8468 15.25 19.6039 15.25 20.4999C15.25 20.9141 14.9142 21.2499 14.5 21.2499C14.0858 21.2499 13.75 20.9141 13.75 20.4999C13.75 19.9042 13.5772 19.4014 13.3491 19.0029C13.1433 18.6434 13.2679 18.1851 13.6274 17.9794Z" fill="#333333" class='xian'/>
<path fill-rule="evenodd" clip-rule="evenodd" d="M13.389 21.3445C13.0803 21.396 12.8993 21.4546 12.8354 21.4865C12.4649 21.6718 12.0144 21.5216 11.8292 21.1511C11.6439 20.7807 11.7941 20.3301 12.1646 20.1449C12.434 20.0102 12.7947 19.9229 13.1423 19.865C13.5082 19.804 13.9284 19.7646 14.3552 19.7534C15.1667 19.732 16.1599 19.8069 16.8354 20.1447C17.2059 20.33 17.3561 20.7805 17.1708 21.151C16.9855 21.5214 16.535 21.6716 16.1646 21.4863C15.8401 21.3241 15.1667 21.2325 14.3948 21.2528C14.0299 21.2625 13.6793 21.2961 13.389 21.3445Z" fill="#333333" class='xian'/>
<path fill-rule="evenodd" clip-rule="evenodd" d="M13.6822 7.01918C14.5971 4.27448 16.78 3.50635 17.8938 3.50635C18.9382 3.50635 19.6634 3.95833 20.1024 4.56812C20.4332 5.02762 20.582 5.54644 20.6276 5.96778C20.8322 6.25538 20.9494 6.57743 21.0188 6.83943C21.1116 7.19019 21.1438 7.53006 21.1438 7.75634C21.1438 8.01628 21.0092 8.25768 20.7881 8.39433C20.5669 8.53099 20.2908 8.54341 20.0583 8.42717C19.6186 8.20729 19.4404 8.23012 19.4069 8.23733C19.39 8.25499 19.3341 8.32879 19.2958 8.55587C19.1884 9.19378 19.3686 10.2291 19.6121 11.0408L19.6173 11.059C20.4228 14.0124 19.7768 15.971 18.5545 17.2187C17.3996 18.3977 15.8491 18.8115 15.0718 18.9851C11.8567 19.838 9.26749 19.1228 7.35479 17.8568C5.46533 16.6061 4.25321 14.8324 3.70439 13.5518C3.66438 13.4584 3.64375 13.3579 3.64375 13.2563C3.64375 12.9926 3.72678 12.7858 3.8447 12.625L3.47773 12.3804C3.16301 12.1706 3.05378 11.7592 3.22293 11.4209C3.36866 11.1295 3.56645 10.9152 3.78614 10.7597C3.29827 10.2754 2.96922 9.73883 2.76594 9.19318C2.3832 8.16582 2.46741 7.16366 2.68224 6.51918C2.75847 6.29047 2.94001 6.11235 3.17012 6.04046C3.40024 5.96858 3.65088 6.0117 3.84375 6.15635C5.42773 7.34433 6.6574 8.16342 7.54556 8.7028C8.4514 9.25292 8.96589 9.48982 9.13092 9.54484C9.16459 9.55606 9.19742 9.56966 9.22916 9.58553C9.9184 9.93015 10.4835 10.0081 10.9425 9.95244C11.4037 9.89645 11.8154 9.69833 12.1832 9.39934C12.9405 8.7838 13.4517 7.78648 13.6754 7.04084C13.6776 7.03358 13.6798 7.02636 13.6822 7.01918ZM5.4987 11.9249L5.80978 12.1323C6.08477 12.3156 6.20735 12.6574 6.11157 12.9737C6.0158 13.29 5.72425 13.5063 5.39375 13.5063C5.38033 13.5063 5.36541 13.5066 5.34929 13.5073C5.88651 14.4973 6.83373 15.713 8.18271 16.6059C9.76699 17.6546 11.9226 18.2725 14.7005 17.5317C14.7106 17.529 14.7208 17.5265 14.7311 17.5242C15.4589 17.3625 16.6455 17.0239 17.483 16.169C18.2598 15.376 18.8633 14.0034 18.1726 11.4625C17.9169 10.6074 17.6497 9.29861 17.8167 8.30682C17.9 7.81181 18.1292 7.18843 18.7494 6.88774C18.9319 6.79922 19.1225 6.75144 19.3179 6.73687C19.2058 6.60258 19.1437 6.43266 19.1437 6.25635C19.1437 6.04303 19.0736 5.70636 18.8851 5.44458C18.7241 5.22103 18.4493 5.00635 17.8938 5.00635C17.3417 5.00635 15.7954 5.4368 15.1086 7.48348C14.8304 8.40381 14.1925 9.6992 13.1293 10.5634C12.5846 11.006 11.915 11.3454 11.1232 11.4415C10.3418 11.5363 9.49685 11.3875 8.60243 10.949C8.25539 10.8233 7.63876 10.5144 6.76694 9.98489C6.0525 9.55101 5.14411 8.95508 4.03635 8.15905C4.06342 8.3245 4.10699 8.49619 4.17156 8.66952C4.41153 9.31364 4.96391 10.0419 6.18919 10.567C6.55877 10.7254 6.73769 11.147 6.59479 11.5229C6.4519 11.8987 6.03803 12.095 5.65658 11.9679C5.61086 11.9526 5.55733 11.9379 5.4987 11.9249ZM19.412 8.23268C19.412 8.23269 19.4117 8.23295 19.4111 8.23339Z" fill="#333333" class='xian'/>
<path fill-rule="evenodd" clip-rule="evenodd" d="M14.5171 12.5167C14.9256 12.5848 15.2017 12.9712 15.1336 13.3798C14.6956 16.0072 13.3741 17.4196 11.7934 18.0092C10.281 18.5733 8.66428 18.3347 7.63745 17.9613C7.24818 17.8198 7.04736 17.3894 7.18891 17.0002C7.33047 16.6109 7.76079 16.4101 8.15007 16.5516C8.95657 16.8449 10.1899 17.0063 11.2692 16.6038C12.2801 16.2267 13.2919 15.3057 13.654 13.1332C13.7221 12.7246 14.1085 12.4486 14.5171 12.5167Z" fill="#333333" class='xian'/>
<path d="M18.7 6.2063C18.7 6.62051 18.3642 6.9563 17.95 6.9563C17.5358 6.9563 17.2 6.62051 17.2 6.2063C17.2 5.79209 17.5358 5.4563 17.95 5.4563C18.3642 5.4563 18.7 5.79209 18.7 6.2063Z" fill="#333333" class='xian'/>
<path fill-rule="evenodd" clip-rule="evenodd" d="M17.0705 3.07998L17.0646 3.09182C16.9376 3.34591 16.6779 3.50641 16.3938 3.50641C16.1806 3.50641 16.0479 3.52727 15.9704 3.54665C15.9952 3.61891 16.041 3.71662 16.1144 3.83321C16.2161 3.99476 16.3369 4.13871 16.4241 4.22592C16.717 4.51881 16.717 4.99369 16.4241 5.28658C16.1312 5.57947 15.6563 5.57947 15.3634 5.28658C15.2006 5.12378 15.0089 4.89275 14.845 4.63247C14.6871 4.38162 14.5164 4.04331 14.4638 3.6749C14.4069 3.27646 14.4881 2.78031 14.9239 2.42032C15.1959 2.19572 15.5425 2.08074 15.9235 2.03341C15.9741 1.94166 16.0301 1.84534 16.0906 1.75046C16.2422 1.51279 16.4724 1.20184 16.792 0.996872C16.9613 0.88833 17.1756 0.796623 17.428 0.778404C17.6869 0.759725 17.9363 0.822065 18.1613 0.94759C18.43 1.09752 18.6584 1.33357 18.8592 1.62684C19.0439 1.59213 19.2243 1.57649 19.3942 1.59137C19.5863 1.60821 19.8094 1.66747 20.0084 1.82253C20.2129 1.98187 20.3251 2.19007 20.3807 2.38517C20.4768 2.72246 20.423 3.09675 20.371 3.37456C20.3205 3.64472 20.2403 3.96399 20.1561 4.29989C20.1445 4.34573 20.133 4.39188 20.1214 4.43825C20.0209 4.8401 19.6137 5.08442 19.2119 4.98396C18.81 4.8835 18.5657 4.4763 18.6662 4.07445C18.678 4.02726 18.6895 3.98141 18.7006 3.93682C18.779 3.62415 18.8417 3.37386 18.8837 3.16495C18.8387 3.17843 18.7899 3.19386 18.7371 3.21145C18.383 3.32942 17.9961 3.16913 17.8292 2.83535C17.7204 2.61786 17.6261 2.47241 17.5508 2.37841C17.5387 2.36335 17.5274 2.34997 17.5169 2.33811C17.4736 2.38654 17.4187 2.4576 17.3551 2.55725C17.2475 2.72605 17.1556 2.90968 17.0705 3.07998Z" fill="#333333" class='xian'/>
<path fill-rule="evenodd" clip-rule="evenodd" d="M8.87597 17.5841C9.10573 17.2394 9.57138 17.1463 9.91603 17.376C10.5651 17.8088 11.75 19.0853 11.75 21.0001C11.75 21.4143 11.4142 21.7501 11 21.7501C10.5858 21.7501 10.25 21.4143 10.25 21.0001C10.25 19.7148 9.43488 18.8581 9.08398 18.6241C8.73933 18.3944 8.6462 17.9287 8.87597 17.5841Z" fill="#333333" class='xian'/>
<path fill-rule="evenodd" clip-rule="evenodd" d="M9.88897 21.8445C9.58029 21.896 9.39932 21.9546 9.33541 21.9865C8.96492 22.1718 8.51442 22.0216 8.32918 21.6511C8.14393 21.2807 8.2941 20.8301 8.66459 20.6449C8.934 20.5102 9.2947 20.4229 9.64227 20.365C10.0082 20.304 10.4284 20.2646 10.8552 20.2534C11.6667 20.232 12.6599 20.3069 13.3354 20.6447C13.7059 20.83 13.8561 21.2805 13.6708 21.651C13.4855 22.0214 13.035 22.1716 12.6646 21.9863C12.3401 21.8241 11.6667 21.7325 10.8948 21.7528C10.5299 21.7625 10.1793 21.7961 9.88897 21.8445Z" fill="#333333" class='xian'/>
</svg>
