<svg width="24" height="24" viewBox="0 0 24 24" fill="none" xmlns="http://www.w3.org/2000/svg">
<path d="M12.5 20.7264C8.5 22.2264 5.16799 21.7965 4.09792 20.7264L8.91327 15.376L5 14L2.5 11.5L6 11L8.91327 10.0256L7 4H8L11.5 7L14 8.5L14.7987 7.88545C16.05 6 17.05 6 17.55 6C19.1311 6 19.2283 7.78661 19.05 8.5L20.55 10.0256H17.4739C18.0089 11.0957 17.6522 13.0575 17.4739 13.7709C16.1898 17.1951 13.7484 18.2295 12.5 18.0512V20.7264Z" fill="rgba(0,0,0,0)" class='mian'/>
<path fill-rule="evenodd" clip-rule="evenodd" d="M17.5464 5.25H17.55C18.0959 5.25 18.5651 5.40776 18.9382 5.69927C19.3028 5.98406 19.5277 6.35863 19.6626 6.72062C19.8541 7.23466 19.891 7.7932 19.8496 8.24346L21.0848 9.49976C21.2967 9.71524 21.3585 10.0368 21.2417 10.3155C21.1249 10.5942 20.8522 10.7756 20.55 10.7756H18.4573C18.5175 11.2234 18.515 11.6786 18.4899 12.0788C18.4418 12.8485 18.2988 13.5636 18.2015 13.9528C18.1946 13.9804 18.1861 14.0076 18.1761 14.0342C17.0216 17.113 14.9048 18.5602 13.25 18.7886V20.7264C13.25 21.039 13.0561 21.3189 12.7633 21.4286C10.6801 22.2098 8.74845 22.4974 7.17278 22.4397C5.64111 22.3836 4.30422 21.9934 3.56759 21.2567C3.28553 20.9747 3.2736 20.5212 3.54045 20.2247L8.3558 14.8743C8.63289 14.5664 9.10711 14.5414 9.41499 14.8185C9.72287 15.0956 9.74783 15.5698 9.47074 15.8777L5.24575 20.5722C5.70292 20.76 6.36303 20.909 7.2277 20.9407C8.46966 20.9862 10.0266 20.783 11.75 20.198V18.0512C11.75 17.8338 11.8444 17.6271 12.0086 17.4846C12.1729 17.3422 12.3908 17.278 12.6061 17.3087C13.3985 17.4219 15.5517 16.7179 16.7564 13.548C16.8373 13.2141 16.9535 12.6156 16.9929 11.9852C17.0358 11.2979 16.9773 10.7095 16.8031 10.361C16.6868 10.1285 16.6992 9.8524 16.8359 9.63129C16.9726 9.41018 17.214 9.27559 17.4739 9.27559H18.7608L18.5152 9.02583C18.3321 8.83958 18.259 8.57149 18.3224 8.3181C18.3809 8.08396 18.3956 7.61622 18.257 7.24435C18.1922 7.07051 18.1076 6.95383 18.0148 6.88134C17.9306 6.81557 17.7947 6.75 17.55 6.75C17.3294 6.75 17.1002 6.75137 16.7929 6.9058C16.4726 7.06677 15.9999 7.43182 15.4236 8.30018C15.4167 8.31057 15.4095 8.32079 15.4021 8.33083L13.1034 11.4454C12.8575 11.7786 12.3879 11.8494 12.0546 11.6034C11.7214 11.3575 11.6506 10.8879 11.8966 10.5546L14.1844 7.45484C14.8556 6.44761 15.5049 5.87434 16.1193 5.56556C16.7472 5.24998 17.2661 5.24999 17.5464 5.25Z" fill="#333333" class='xian'/>
<path d="M17.7 8.25C17.7 8.66421 17.3642 9 16.95 9C16.5358 9 16.2 8.66421 16.2 8.25C16.2 7.83579 16.5358 7.5 16.95 7.5C17.3642 7.5 17.7 7.83579 17.7 8.25Z" fill="#333333" class='xian'/>
<path fill-rule="evenodd" clip-rule="evenodd" d="M9.47354 10.3727C8.68152 10.3221 8.07461 10.5312 7.88256 10.6451C7.85969 10.6586 7.83612 10.671 7.81195 10.682C7.00964 11.049 5.99367 11.411 4.95887 11.6477C4.55066 11.741 4.12945 11.8172 3.71007 11.8652C7.06761 15.0559 10.5934 14.5535 12.1859 13.819C12.562 13.6455 13.0076 13.8098 13.181 14.1859C13.3545 14.562 13.1903 15.0076 12.8141 15.1811C10.5122 16.2429 5.57488 16.7198 1.41703 11.5827C1.22116 11.3407 1.19516 11.0029 1.35169 10.7338C1.50821 10.4647 1.81472 10.3203 2.1219 10.3709C2.79844 10.4823 3.68454 10.4004 4.62445 10.1854C5.53906 9.97625 6.44498 9.65505 7.15653 9.33228C7.65239 9.05285 8.54716 8.8105 9.56905 8.8757C10.649 8.94461 11.9064 9.35881 13.0272 10.4666C13.3218 10.7578 13.3246 11.2327 13.0334 11.5273C12.7422 11.8219 12.2674 11.8246 11.9728 11.5335C11.138 10.7084 10.235 10.4212 9.47354 10.3727Z" fill="#333333" class='xian'/>
<path fill-rule="evenodd" clip-rule="evenodd" d="M7.14451 2.25112C7.47625 2.23301 7.78037 2.43531 7.89188 2.74827C7.98403 3.00688 8.34778 3.6736 8.98059 4.37104C9.60507 5.05931 10.4355 5.71464 11.4259 6.03678C12.542 6.39978 13.3829 6.69823 13.9198 7.11239C14.2184 7.34271 14.4437 7.62075 14.5828 7.97065C14.7155 8.30438 14.75 8.65533 14.75 9.00001C14.75 9.41422 14.4142 9.75001 14 9.75001C13.5858 9.75001 13.25 9.41422 13.25 9.00001C13.25 8.74468 13.222 8.60814 13.1889 8.52468C13.1621 8.4574 13.1183 8.38856 13.0037 8.30013C12.7141 8.07679 12.1519 7.85024 10.962 7.46323C9.64649 7.03538 8.6062 6.19071 7.8697 5.37897C7.81086 5.31412 7.75359 5.24907 7.69793 5.18402C7.7015 5.74995 7.75459 6.30027 7.84103 6.80867C8.03378 7.94232 8.37129 8.75043 8.5961 9.04486C8.84747 9.37408 8.78437 9.84474 8.45515 10.0961C8.12593 10.3475 7.65527 10.2844 7.4039 9.95516C6.96061 9.37459 6.57012 8.28269 6.36225 7.0601C6.14932 5.80775 6.10648 4.29675 6.45569 2.82667C6.53248 2.50343 6.81277 2.26923 7.14451 2.25112Z" fill="#333333" class='xian'/>
</svg>
