<svg width="24" height="24" viewBox="0 0 24 24" fill="none" xmlns="http://www.w3.org/2000/svg">
<path d="M22 19H2V5H22V19Z" fill="white"/>
<path fill-rule="evenodd" clip-rule="evenodd" d="M1.25 5C1.25 4.58579 1.58579 4.25 2 4.25H22C22.4142 4.25 22.75 4.58579 22.75 5V19C22.75 19.4142 22.4142 19.75 22 19.75H2C1.58579 19.75 1.25 19.4142 1.25 19V5ZM2.75 5.75V18.25H21.25V5.75H2.75Z" fill="#333333"/>
<path fill-rule="evenodd" clip-rule="evenodd" d="M10.25 5.75L10.25 19L11.75 19L11.75 5.5C11.75 4.80964 11.1903 4.25 10.5 4.25L1.99998 4.25L1.99999 5.75L10.25 5.75Z" fill="#333333"/>
<path fill-rule="evenodd" clip-rule="evenodd" d="M4.25 9.5C4.25 9.08579 4.58579 8.75 5 8.75H8C8.41421 8.75 8.75 9.08579 8.75 9.5V11.7324C8.75 12.1503 8.54112 12.5406 8.19338 12.7725L7.74808 13.0693C6.9923 13.5732 6.0077 13.5732 5.25192 13.0693L4.80662 12.7725C4.45888 12.5406 4.25 12.1503 4.25 11.7324V9.5ZM5.75 10.25V11.5986L6.08398 11.8213C6.3359 11.9892 6.6641 11.9892 6.91602 11.8213L7.25 11.5986V10.25H5.75Z" fill="#333333"/>
<path fill-rule="evenodd" clip-rule="evenodd" d="M6.5 6.75C6.63807 6.75 6.75 6.86193 6.75 7V8H6.25V7C6.25 6.86193 6.36193 6.75 6.5 6.75Z" fill="#333333"/>
<path fill-rule="evenodd" clip-rule="evenodd" d="M4.99609 8.25C4.99609 8.11193 5.10802 8 5.24609 8L6.00002 8L6.00002 8.5L5.24609 8.5C5.10802 8.5 4.99609 8.38807 4.99609 8.25Z" fill="#333333"/>
<path fill-rule="evenodd" clip-rule="evenodd" d="M8.00391 8.25C8.00391 8.11193 7.89198 8 7.75391 8L6.99998 8L6.99998 8.5L7.75391 8.5C7.89198 8.5 8.00391 8.38807 8.00391 8.25Z" fill="#333333"/>
<path d="M7.5 8.5C7.5 9.05228 7.05228 9.5 6.5 9.5C5.94772 9.5 5.5 9.05228 5.5 8.5C5.5 7.94772 5.94772 7.5 6.5 7.5C7.05228 7.5 7.5 7.94772 7.5 8.5Z" fill="#333333"/>
<path d="M22 5H20C20 11.8 18.6667 17.1667 18 19H22V5Z" fill="#1C74A2"/>
<path fill-rule="evenodd" clip-rule="evenodd" d="M22.75 5C22.75 4.58579 22.4142 4.25 22 4.25H20C19.5858 4.25 19.25 4.58579 19.25 5C19.25 11.7166 17.9306 16.9962 17.2952 18.7437C17.2115 18.9736 17.2453 19.2299 17.3857 19.4303C17.5261 19.6307 17.7553 19.75 18 19.75H22C22.4142 19.75 22.75 19.4142 22.75 19V5ZM21.25 5.75V18.25H19.0301C19.7223 15.8893 20.6657 11.3307 20.7447 5.75H21.25Z" fill="#333333"/>
<path fill-rule="evenodd" clip-rule="evenodd" d="M22.5 15.75H11V14.25H22.5V15.75Z" fill="#333333"/>
</svg>
