<svg width="24" height="24" viewBox="0 0 24 24" fill="none" xmlns="http://www.w3.org/2000/svg">
<path d="M13.5 22H5.5L5.50002 7H13.5L13.5 22Z" fill="black"/>
<path fill-rule="evenodd" clip-rule="evenodd" d="M4.75002 7C4.75002 6.58579 5.0858 6.25 5.50002 6.25H13.5C13.6989 6.25 13.8897 6.32902 14.0303 6.46967C14.171 6.61032 14.25 6.80109 14.25 7L14.25 22C14.25 22.4142 13.9142 22.75 13.5 22.75H5.5C5.30109 22.75 5.11032 22.671 4.96967 22.5303C4.82902 22.3897 4.75 22.1989 4.75 22L4.75002 7ZM6.25002 7.75L6.25 21.25H12.75L12.75 7.75H6.25002Z" fill="#333333"/>
<path d="M10 22H8L8 18H10L10 22Z" fill="white"/>
<path fill-rule="evenodd" clip-rule="evenodd" d="M7.25 18C7.25 17.5858 7.58579 17.25 8 17.25H10C10.1989 17.25 10.3897 17.329 10.5303 17.4697C10.671 17.6103 10.75 17.8011 10.75 18L10.75 22C10.75 22.4142 10.4142 22.75 10 22.75H8C7.80109 22.75 7.61032 22.671 7.46967 22.5303C7.32902 22.3897 7.25 22.1989 7.25 22L7.25 18ZM8.75 18.75L8.75 21.25H9.25L9.25 18.75H8.75Z" fill="#333333"/>
<path d="M13 22H22V11H13V18V22Z" fill="white"/>
<path fill-rule="evenodd" clip-rule="evenodd" d="M12.25 11C12.25 10.5858 12.5858 10.25 13 10.25H22C22.4142 10.25 22.75 10.5858 22.75 11V22C22.75 22.4142 22.4142 22.75 22 22.75H13C12.5858 22.75 12.25 22.4142 12.25 22V11ZM13.75 11.75V21.25H21.25V11.75H13.75Z" fill="#333333"/>
<path d="M2 18H7V9H2V18Z" fill="white"/>
<path fill-rule="evenodd" clip-rule="evenodd" d="M1.25 9C1.25 8.58579 1.58579 8.25 2 8.25H7C7.41421 8.25 7.75 8.58579 7.75 9V18C7.75 18.4142 7.41421 18.75 7 18.75H2C1.58579 18.75 1.25 18.4142 1.25 18V9ZM2.75 9.75V17.25H6.25V9.75H2.75Z" fill="#333333"/>
<path d="M12 18H17V9H12V18Z" fill="white"/>
<path fill-rule="evenodd" clip-rule="evenodd" d="M11.25 9C11.25 8.58579 11.5858 8.25 12 8.25H17C17.4142 8.25 17.75 8.58579 17.75 9V18C17.75 18.4142 17.4142 18.75 17 18.75H12C11.5858 18.75 11.25 18.4142 11.25 18V9ZM12.75 9.75V17.25H16.25V9.75H12.75Z" fill="#333333"/>
<path d="M7 18H12V7H7V18Z" fill="white"/>
<path fill-rule="evenodd" clip-rule="evenodd" d="M6.25 7C6.25 6.58579 6.58579 6.25 7 6.25H12C12.4142 6.25 12.75 6.58579 12.75 7V18C12.75 18.4142 12.4142 18.75 12 18.75H7C6.58579 18.75 6.25 18.4142 6.25 18V7ZM7.75 7.75V17.25H11.25V7.75H7.75Z" fill="#333333"/>
<path fill-rule="evenodd" clip-rule="evenodd" d="M7.69616 12.2215C7.84999 12.6061 7.66293 13.0425 7.27834 13.1964C5.49468 13.9098 3.50492 13.9098 1.72126 13.1964C1.33667 13.0425 1.14961 12.6061 1.30344 12.2215C1.45728 11.8369 1.89376 11.6498 2.27834 11.8037C3.70439 12.3741 5.29521 12.3741 6.72126 11.8037C7.10585 11.6498 7.54232 11.8369 7.69616 12.2215Z" fill="#333333"/>
<path fill-rule="evenodd" clip-rule="evenodd" d="M17.6962 12.2215C17.85 12.6061 17.6629 13.0425 17.2783 13.1964C15.4947 13.9098 13.5049 13.9098 11.7213 13.1964C11.3367 13.0425 11.1496 12.6061 11.3034 12.2215C11.4573 11.8369 11.8938 11.6498 12.2783 11.8037C13.7044 12.3741 15.2952 12.3741 16.7213 11.8037C17.1058 11.6498 17.5423 11.8369 17.6962 12.2215Z" fill="#333333"/>
<path d="M22 11H20C20 17.8 19.6667 20.1667 19 22H22V11Z" fill="#1C74A2"/>
<path fill-rule="evenodd" clip-rule="evenodd" d="M22.75 11C22.75 10.5858 22.4142 10.25 22 10.25H20C19.5858 10.25 19.25 10.5858 19.25 11C19.25 17.8048 18.9115 20.0488 18.2952 21.7437C18.2115 21.9736 18.2453 22.2299 18.3857 22.4303C18.5261 22.6307 18.7553 22.75 19 22.75H22C22.4142 22.75 22.75 22.4142 22.75 22V11ZM21.25 11.75V21.25H20.0206C20.4965 19.4576 20.7287 16.9414 20.7486 11.75H21.25Z" fill="#333333"/>
<path d="M9.75 2C9.75 1.72386 9.97386 1.5 10.25 1.5L11.25 1.5C11.5261 1.5 11.75 1.72386 11.75 2L11.75 3.5L9.75 3.5L9.75 2Z" fill="#333333"/>
<path fill-rule="evenodd" clip-rule="evenodd" d="M17.75 4.6C17.75 4.82091 17.5709 5 17.35 5L2.15 5C1.92909 5 1.75 4.82091 1.75 4.6L1.75 3.9C1.75 3.67909 1.92909 3.5 2.15 3.5L17.35 3.5C17.5709 3.5 17.75 3.67909 17.75 3.9L17.75 4.6Z" fill="#333333"/>
<path d="M2.5 4.5C2.5 4.22386 2.72386 4 3 4L3.5 4C3.77614 4 4 4.22386 4 4.5L4 9L2.5 9L2.5 4.5Z" fill="#333333"/>
<path d="M15.5 4.5C15.5 4.22386 15.7239 4 16 4L16.5 4C16.7761 4 17 4.22386 17 4.5L17 9L15.5 9L15.5 4.5Z" fill="#333333"/>
</svg>
