<svg width="24" height="24" viewBox="0 0 24 24" fill="none" xmlns="http://www.w3.org/2000/svg">
<path d="M2 22H18V13H2V22Z" fill="white"/>
<path d="M6 13H10V17H6V13Z" fill="#DEDEDE"/>
<path fill-rule="evenodd" clip-rule="evenodd" d="M1.25 13C1.25 12.5858 1.58579 12.25 2 12.25H18C18.4142 12.25 18.75 12.5858 18.75 13V22C18.75 22.4142 18.4142 22.75 18 22.75H2C1.58579 22.75 1.25 22.4142 1.25 22V13ZM2.75 13.75V21.25H17.25V13.75H2.75Z" fill="#333333"/>
<path d="M14 2C14 1.72386 14.2239 1.5 14.5 1.5L15.5 1.5C15.7761 1.5 16 1.72386 16 2L16 7.5L14 7.5L14 2Z" fill="#333333"/>
<path d="M4.5 10.2C4.5 10.0895 4.58954 10 4.7 10L9 10L9 11L4.7 11C4.58954 11 4.5 10.9105 4.5 10.8L4.5 10.2Z" fill="#333333"/>
<path d="M15.5 9.7C15.5 9.58954 15.5895 9.5 15.7 9.5L19 9.5L19 10.3C19 10.4105 18.9105 10.5 18.8 10.5L15.7 10.5C15.5895 10.5 15.5 10.4105 15.5 10.3L15.5 9.7Z" fill="#333333"/>
<path d="M16.8 9C16.9105 9 17 9.08954 17 9.2L17 11.3C17 11.4105 16.9105 11.5 16.8 11.5L16.2 11.5C16.0895 11.5 16 11.4105 16 11.3L16 9.2C16 9.08954 16.0895 9 16.2 9L16.8 9Z" fill="#333333"/>
<path fill-rule="evenodd" clip-rule="evenodd" d="M9.25 22V13H10.75V22H9.25Z" fill="#333333"/>
<path fill-rule="evenodd" clip-rule="evenodd" d="M5.25 13H6.75V17.5H5.25V13Z" fill="#333333"/>
<path fill-rule="evenodd" clip-rule="evenodd" d="M19.75 8.5L3.65 8.5C3.42908 8.5 3.25 8.32091 3.25 8.1L3.25 7.4C3.25 7.17909 3.42908 7 3.65 7L19.75 7L19.75 8.5Z" fill="#333333"/>
<path d="M6.0498 9.72426V10.3C6.0498 10.4105 5.96026 10.5 5.8498 10.5H5.2498C5.13935 10.5 5.0498 10.4105 5.0498 10.3V9.72426C5.0498 9.6447 5.08141 9.56839 5.13767 9.51213L5.29122 9.35858C5.32873 9.32107 5.3498 9.2702 5.3498 9.21716V9.1C5.3498 9.04477 5.39457 9 5.4498 9H5.64981C5.70503 9 5.74981 9.04477 5.74981 9.1V9.21716C5.74981 9.2702 5.77088 9.32107 5.80838 9.35858L5.96194 9.51213C6.0182 9.56839 6.0498 9.6447 6.0498 9.72426Z" fill="#333333"/>
<path d="M7.25 9.72426V10.3C7.25 10.4105 7.16046 10.5 7.05 10.5H6.45C6.33954 10.5 6.25 10.4105 6.25 10.3V9.72426C6.25 9.6447 6.28161 9.56839 6.33787 9.51213L6.49142 9.35858C6.52893 9.32107 6.55 9.2702 6.55 9.21716V9.1C6.55 9.04477 6.59477 9 6.65 9H6.85C6.90523 9 6.95 9.04477 6.95 9.1V9.21716C6.95 9.2702 6.97107 9.32107 7.00858 9.35858L7.16213 9.51213C7.21839 9.56839 7.25 9.6447 7.25 9.72426Z" fill="#333333"/>
<path d="M8.4502 9.72426V10.3C8.4502 10.4105 8.36065 10.5 8.2502 10.5H7.6502C7.53974 10.5 7.4502 10.4105 7.4502 10.3V9.72426C7.4502 9.6447 7.4818 9.56839 7.53806 9.51213L7.69162 9.35858C7.72912 9.32107 7.75019 9.2702 7.75019 9.21716V9.1C7.75019 9.04477 7.79497 9 7.85019 9H8.0502C8.10542 9 8.1502 9.04477 8.1502 9.1V9.21716C8.1502 9.2702 8.17127 9.32107 8.20877 9.35858L8.36233 9.51213C8.41859 9.56839 8.4502 9.6447 8.4502 9.72426Z" fill="#333333"/>
<path fill-rule="evenodd" clip-rule="evenodd" d="M19.6001 6.7C19.6001 6.58954 19.6896 6.5 19.8001 6.5H21.4001C21.5106 6.5 21.6001 6.58954 21.6001 6.7V9.3C21.6001 9.41046 21.5106 9.5 21.4001 9.5H19.8001C19.6896 9.5 19.6001 9.41046 19.6001 9.3V6.7ZM20.0001 7.04999C20.0001 6.96715 20.0672 6.89999 20.1501 6.89999H21.0501C21.1329 6.89999 21.2001 6.96715 21.2001 7.04999V7.94999C21.2001 8.03284 21.1329 8.09999 21.0501 8.09999H20.1501C20.0672 8.09999 20.0001 8.03284 20.0001 7.94999V7.04999ZM20.6001 8.25C20.324 8.25 20.1001 8.47386 20.1001 8.75C20.1001 9.02614 20.324 9.25 20.6001 9.25C20.8762 9.25 21.1001 9.02614 21.1001 8.75C21.1001 8.47386 20.8762 8.25 20.6001 8.25Z" fill="#333333"/>
<path d="M7.64123 14.3519C7.59585 14.1918 7.77785 14.0644 7.9127 14.1618C7.97219 14.2047 8.05212 14.2061 8.11307 14.1653C8.25124 14.0727 8.42868 14.2064 8.37775 14.3647C8.35528 14.4346 8.37865 14.511 8.43634 14.5564C8.56711 14.6591 8.49477 14.8692 8.32845 14.8697C8.25507 14.8699 8.18958 14.9158 8.16428 14.9847C8.10694 15.1408 7.88479 15.1369 7.83293 14.9789C7.81005 14.9092 7.7462 14.861 7.67288 14.8583C7.50667 14.852 7.44171 14.6395 7.57598 14.5413C7.63522 14.498 7.66125 14.4225 7.64123 14.3519Z" fill="#333333"/>
<path fill-rule="evenodd" clip-rule="evenodd" d="M10.7274 16.8181C10.8279 17.2199 10.5836 17.6271 10.1817 17.7276C7.43604 18.414 4.5636 18.414 1.81792 17.7276C1.41607 17.6271 1.17175 17.2199 1.27222 16.8181C1.37268 16.4162 1.77988 16.1719 2.18172 16.2724C4.68855 16.8991 7.3111 16.8991 9.81792 16.2724C10.2198 16.1719 10.627 16.4162 10.7274 16.8181Z" fill="#333333"/>
<path fill-rule="evenodd" clip-rule="evenodd" d="M18.7274 16.8181C18.8279 17.2199 18.5836 17.6271 18.1817 17.7276C15.436 18.414 12.5636 18.414 9.81792 17.7276C9.41607 17.6271 9.17175 17.2199 9.27222 16.8181C9.37268 16.4162 9.77988 16.1719 10.1817 16.2724C12.6885 16.8991 15.3111 16.8991 17.8179 16.2724C18.2198 16.1719 18.627 16.4162 18.7274 16.8181Z" fill="#333333"/>
<path d="M9 8.5C9 8.22386 9.22386 8 9.5 8C9.77614 8 10 8.22386 10 8.5L10 13L9 13L9 8.5Z" fill="#333333"/>
<path d="M13.5 8.5C13.5 8.22386 13.7239 8 14 8C14.2761 8 14.5 8.22386 14.5 8.5L14.5 13L13.5 13L13.5 8.5Z" fill="#333333"/>
<path d="M12.5 8.5C12.5 8.22386 12.7239 8 13 8C13.2761 8 13.5 8.22386 13.5 8.5L13.5 10.5L11.7 10.5C11.5895 10.5 11.5 10.4105 11.5 10.3L11.5 9.7C11.5 9.58954 11.5895 9.5 11.7 9.5L12.5 9.5L12.5 8.5Z" fill="#333333"/>
<path d="M17 8.5C17 8.22386 17.2239 8 17.5 8C17.7761 8 18 8.22386 18 8.5L18 9.8C18 9.91046 17.9105 10 17.8 10L17.2 10C17.0895 10 17 9.91046 17 9.8L17 8.5Z" fill="#333333"/>
<path d="M18 8.5C18 8.22386 18.2239 8 18.5 8C18.7761 8 19 8.22386 19 8.5L19 9.8C19 9.91046 18.9105 10 18.8 10L18.2 10C18.0895 10 18 9.91046 18 9.8L18 8.5Z" fill="#333333"/>
</svg>
