<svg width="34" height="34" viewBox="0 0 34 34" fill="none" xmlns="http://www.w3.org/2000/svg">
<g filter="url(#filter0_d_2683_280)">
<rect x="4.95" y="0.95" width="24.1" height="24.1" stroke="black" stroke-width="0.1" shape-rendering="crispEdges"/>
<path d="M27 23H22V3H27V23Z" fill="white"/>
<path fill-rule="evenodd" clip-rule="evenodd" d="M21.25 3C21.25 2.58579 21.5858 2.25 22 2.25H27C27.4142 2.25 27.75 2.58579 27.75 3V23C27.75 23.4142 27.4142 23.75 27 23.75H22C21.5858 23.75 21.25 23.4142 21.25 23V3ZM22.75 3.75V22.25H26.25V3.75H22.75Z" fill="#333333"/>
<path d="M22 23H7L7.00003 3H22L22 23Z" fill="#DEDEDE"/>
<path fill-rule="evenodd" clip-rule="evenodd" d="M6.25003 3C6.25003 2.58579 6.58582 2.25 7.00003 2.25H22C22.1989 2.25 22.3897 2.32902 22.5303 2.46967C22.671 2.61032 22.75 2.80109 22.75 3L22.75 23C22.75 23.4142 22.4142 23.75 22 23.75H7C6.80109 23.75 6.61032 23.671 6.46967 23.5303C6.32902 23.3897 6.25 23.1989 6.25 23L6.25003 3ZM7.75003 3.75L7.75 22.25H21.25L21.25 3.75H7.75003Z" fill="#333333"/>
<path fill-rule="evenodd" clip-rule="evenodd" d="M11.25 8C11.25 7.58579 11.5858 7.25 12 7.25H17C17.1989 7.25 17.3897 7.32902 17.5303 7.46967C17.671 7.61032 17.75 7.80109 17.75 8L17.75 11.5C17.75 12.7426 16.7426 13.75 15.5 13.75H13.5C12.2574 13.75 11.25 12.7426 11.25 11.5L11.25 8ZM12.75 8.75L12.75 11.5C12.75 11.9142 13.0858 12.25 13.5 12.25H15.5C15.9142 12.25 16.25 11.9142 16.25 11.5L16.25 8.75H12.75Z" fill="#333333"/>
<path fill-rule="evenodd" clip-rule="evenodd" d="M15.5 13L15.258 18.8083C15.2535 18.9155 15.1654 19 15.0582 19L13.9418 19C13.8346 19 13.7465 18.9155 13.742 18.8083L13.5 13L15.5 13Z" fill="#333333"/>
<path d="M13.5 6.5C13.5 6.22386 13.7239 6 14 6H15C15.2761 6 15.5 6.22386 15.5 6.5V8H13.5V6.5Z" fill="#333333"/>
<path d="M14 5.2C14 5.08954 14.0895 5 14.2 5H14.8C14.9105 5 15 5.08954 15 5.2V8H14V5.2Z" fill="#333333"/>
<path d="M27 23H24C25 11.5 25 3 25 3H27V23Z" fill="#7F9FD9"/>
<path fill-rule="evenodd" clip-rule="evenodd" d="M24.25 3C24.25 2.58579 24.5858 2.25 25 2.25H27C27.4142 2.25 27.75 2.58579 27.75 3V23C27.75 23.4142 27.4142 23.75 27 23.75H24C23.7898 23.75 23.5892 23.6618 23.4472 23.5068C23.3051 23.3519 23.2346 23.1444 23.2528 22.935C23.7515 17.2005 24.0008 12.2137 24.1255 8.6612C24.1878 6.88514 24.2189 5.46806 24.2345 4.49581C24.2423 4.00971 24.2461 3.63484 24.2481 3.38195C24.249 3.2555 24.2495 3.15956 24.2498 3.09545L24.25 3.02334L24.25 3ZM25.7447 3.75C25.7424 3.96364 25.7391 4.22106 25.7343 4.51981C25.7186 5.50069 25.6872 6.92736 25.6245 8.7138C25.5051 12.117 25.272 16.8274 24.8168 22.25H26.25V3.75H25.7447Z" fill="#333333"/>
</g>
<defs>
<filter id="filter0_d_2683_280" x="0.899902" y="0.900024" width="32.2002" height="32.2" filterUnits="userSpaceOnUse" color-interpolation-filters="sRGB">
<feFlood flood-opacity="0" result="BackgroundImageFix"/>
<feColorMatrix in="SourceAlpha" type="matrix" values="0 0 0 0 0 0 0 0 0 0 0 0 0 0 0 0 0 0 127 0" result="hardAlpha"/>
<feOffset dy="4"/>
<feGaussianBlur stdDeviation="2"/>
<feComposite in2="hardAlpha" operator="out"/>
<feColorMatrix type="matrix" values="0 0 0 0 0 0 0 0 0 0 0 0 0 0 0 0 0 0 0.25 0"/>
<feBlend mode="normal" in2="BackgroundImageFix" result="effect1_dropShadow_2683_280"/>
<feBlend mode="normal" in="SourceGraphic" in2="effect1_dropShadow_2683_280" result="shape"/>
</filter>
</defs>
</svg>
