<svg width="24" height="24" viewBox="0 0 24 24" fill="none" xmlns="http://www.w3.org/2000/svg">
<path d="M2 20H18V12H2V20Z" fill="white"/>
<path fill-rule="evenodd" clip-rule="evenodd" d="M1.25 12C1.25 11.5858 1.58579 11.25 2 11.25H18C18.4142 11.25 18.75 11.5858 18.75 12V20C18.75 20.4142 18.4142 20.75 18 20.75H2C1.58579 20.75 1.25 20.4142 1.25 20V12ZM2.75 12.75V19.25H17.25V12.75H2.75Z" fill="#333333"/>
<path d="M3 22H17V20H3V22Z" fill="#0B090A"/>
<path fill-rule="evenodd" clip-rule="evenodd" d="M2.25 20C2.25 19.5858 2.58579 19.25 3 19.25H17C17.4142 19.25 17.75 19.5858 17.75 20V22C17.75 22.4142 17.4142 22.75 17 22.75H3C2.58579 22.75 2.25 22.4142 2.25 22V20ZM3.75 20.75V21.25H16.25V20.75H3.75Z" fill="#333333"/>
<path d="M6 16.2042C5.00665 16.2042 4.5 15.1533 4.5 14.16V12.25H7.5V14.16C7.5 15.1533 6.99335 16.2042 6 16.2042Z" fill="#999999"/>
<path fill-rule="evenodd" clip-rule="evenodd" d="M4 12.25C4 11.9739 4.22386 11.75 4.5 11.75H7.5C7.77614 11.75 8 11.9739 8 12.25V15.75C8 15.9172 7.91645 16.0733 7.77735 16.166C6.70107 16.8835 5.29893 16.8835 4.22265 16.166C4.08355 16.0733 4 15.9172 4 15.75V12.25ZM5 12.75V15.4643C5.6277 15.7841 6.3723 15.7841 7 15.4643V12.75H5Z" fill="#333333"/>
<path d="M2 12V10H11V12H2Z" fill="#BEBEBE"/>
<path fill-rule="evenodd" clip-rule="evenodd" d="M1.25 10C1.25 9.58579 1.58579 9.25 2 9.25H11C11.4142 9.25 11.75 9.58579 11.75 10V12C11.75 12.4142 11.4142 12.75 11 12.75H2C1.58579 12.75 1.25 12.4142 1.25 12V10ZM2.75 10.75V11.25H10.25V10.75H2.75Z" fill="#333333"/>
<path d="M14 2C14 1.72386 14.2239 1.5 14.5 1.5L15.5 1.5C15.7761 1.5 16 1.72386 16 2L16 6.5L14 6.5L14 2Z" fill="#333333"/>
<path d="M16.3 7C16.4105 7 16.5 7.08954 16.5 7.2L16.5 9.8C16.5 9.91046 16.4105 10 16.3 10L15.7 10C15.5895 10 15.5 9.91046 15.5 9.8L15.5 7.2C15.5 7.08954 15.5895 7 15.7 7L16.3 7Z" fill="#333333"/>
<path d="M17.8 7C17.9105 7 18 7.08954 18 7.2V8H20V7.2C20 7.08954 20.0895 7 20.2 7H20.8C20.9105 7 21 7.08954 21 7.2V9.8C21 9.91046 20.9105 10 20.8 10H17.2C17.0895 10 17 9.91046 17 9.8V7.2C17 7.08954 17.0895 7 17.2 7H17.8Z" fill="#333333"/>
<path d="M18 9.8C18 9.91046 17.9105 10 17.8 10L16.2 10C16.0895 10 16 9.91046 16 9.8L16 9.2C16 9.08954 16.0895 9 16.2 9L17.8 9C17.9105 9 18 9.08954 18 9.2L18 9.8Z" fill="#333333"/>
<path d="M13.8 7C13.9105 7 14 7.08954 14 7.2L14 9.3C14 9.41046 13.9105 9.5 13.8 9.5L13 9.5L13 7.2C13 7.08954 13.0895 7 13.2 7L13.8 7Z" fill="#333333"/>
<path fill-rule="evenodd" clip-rule="evenodd" d="M10.25 20V12H11.75V20H10.25Z" fill="#333333"/>
<path fill-rule="evenodd" clip-rule="evenodd" d="M22.5 7.1C22.5 7.32091 22.3209 7.5 22.1 7.5L7.4 7.5C7.17909 7.5 7 7.32091 7 7.1L7 6.4C7 6.17909 7.17909 6 7.4 6L22.1 6C22.3209 6 22.5 6.17909 22.5 6.4L22.5 7.1Z" fill="#333333"/>
<path d="M5.59142 13.3519C5.54605 13.1918 5.72805 13.0644 5.8629 13.1618C5.92238 13.2047 6.00232 13.2061 6.06327 13.1653C6.20143 13.0727 6.37888 13.2064 6.32794 13.3647C6.30547 13.4346 6.32885 13.511 6.38654 13.5564C6.5173 13.6591 6.44497 13.8692 6.27864 13.8697C6.20527 13.8699 6.13978 13.9158 6.11448 13.9847C6.05714 14.1408 5.83498 14.1369 5.78312 13.9789C5.76024 13.9092 5.6964 13.861 5.62307 13.8583C5.45686 13.852 5.3919 13.6395 5.52618 13.5413C5.58541 13.498 5.61144 13.4225 5.59142 13.3519Z" fill="#DEDEDE"/>
<path d="M18 12H16C16 15.8857 15.5 18.9524 15 20H18V12Z" fill="#50B4F0"/>
<path fill-rule="evenodd" clip-rule="evenodd" d="M18.75 12C18.75 11.5858 18.4142 11.25 18 11.25H16C15.5858 11.25 15.25 11.5858 15.25 12C15.25 13.9124 15.1269 15.6166 14.9443 16.9636C14.7579 18.3384 14.5191 19.2664 14.3231 19.677C14.2122 19.9093 14.2283 20.1824 14.3657 20.4001C14.503 20.6179 14.7425 20.75 15 20.75H18C18.4142 20.75 18.75 20.4142 18.75 20V12ZM17.25 12.75V19.25H16.042C16.1916 18.6692 16.323 17.9599 16.4307 17.165C16.5984 15.9276 16.7163 14.4227 16.7439 12.75H17.25Z" fill="#333333"/>
<path d="M12 7.5C12 7.22386 12.2239 7 12.5 7C12.7761 7 13 7.22386 13 7.5L13 12L12 12L12 7.5Z" fill="#333333"/>
</svg>
