<svg width="24" height="24" viewBox="0 0 24 24" fill="none" xmlns="http://www.w3.org/2000/svg">
<path d="M9.99998 18H2L2.00002 6H10L9.99998 18Z" fill="#DEDEDE"/>
<path fill-rule="evenodd" clip-rule="evenodd" d="M1.25002 6C1.25002 5.58579 1.5858 5.25 2.00002 5.25H10C10.1989 5.25 10.3897 5.32902 10.5303 5.46967C10.671 5.61032 10.75 5.80109 10.75 6L10.75 18C10.75 18.4142 10.4142 18.75 9.99998 18.75H2C1.80109 18.75 1.61032 18.671 1.46967 18.5303C1.32902 18.3897 1.25 18.1989 1.25 18L1.25002 6ZM2.75002 6.75L2.75 17.25H9.24998L9.25 6.75H2.75002Z" fill="#333333"/>
<path d="M22 18H10L10 6H22L22 18Z" fill="#666666"/>
<path fill-rule="evenodd" clip-rule="evenodd" d="M9.25003 6C9.25003 5.58579 9.58581 5.25 10 5.25H22C22.1989 5.25 22.3897 5.32902 22.5303 5.46967C22.671 5.61032 22.75 5.80109 22.75 6L22.75 18C22.75 18.4142 22.4142 18.75 22 18.75H10C9.80109 18.75 9.61032 18.671 9.46967 18.5303C9.32902 18.3897 9.25 18.1989 9.25 18L9.25003 6ZM10.75 6.75L10.75 17.25H21.25L21.25 6.75H10.75Z" fill="#333333"/>
<path d="M22 6H20C20 11.8286 18.6667 16.4286 18 18H22V6Z" fill="#7F9FD9"/>
<path fill-rule="evenodd" clip-rule="evenodd" d="M22.75 6C22.75 5.58579 22.4142 5.25 22 5.25H20C19.5858 5.25 19.25 5.58579 19.25 6C19.25 11.7304 17.936 16.2306 17.3096 17.7071C17.2113 17.9387 17.2357 18.2042 17.3746 18.414C17.5135 18.6238 17.7484 18.75 18 18.75H22C22.4142 18.75 22.75 18.4142 22.75 18V6ZM21.25 6.75V17.25H19.077C19.7639 15.18 20.6541 11.3772 20.7428 6.75H21.25Z" fill="#333333"/>
<path fill-rule="evenodd" clip-rule="evenodd" d="M4 9.80005C4 9.52391 4.22386 9.30005 4.5 9.30005H7.5C7.63261 9.30005 7.75978 9.35273 7.85355 9.4465C7.94732 9.54026 8 9.66744 8 9.80005L7.99999 11.8001C7.99999 12.6285 7.32842 13.3 6.49999 13.3H5.5C4.67157 13.3 4 12.6285 4 11.8L4 9.80005ZM5 10.3L5 11.8C5 12.0762 5.22386 12.3 5.5 12.3H6.49999C6.77613 12.3 6.99999 12.0762 6.99999 11.8001L7 10.3H5Z" fill="#333333"/>
<path fill-rule="evenodd" clip-rule="evenodd" d="M6.6001 12.8L6.46097 15.2115C6.45487 15.3174 6.36729 15.4 6.2613 15.4L5.73889 15.4C5.63291 15.4 5.54533 15.3174 5.53922 15.2115L5.4001 12.8L6.6001 12.8Z" fill="#333333"/>
<path d="M5.3999 8.79998C5.3999 8.68952 5.48945 8.59998 5.5999 8.59998H6.3999C6.51036 8.59998 6.5999 8.68952 6.5999 8.79998V9.79998H5.3999V8.79998Z" fill="#333333"/>
<path d="M5.7002 8.1C5.7002 8.04477 5.74497 8 5.8002 8H6.2002C6.25542 8 6.3002 8.04477 6.3002 8.1V9.8H5.7002V8.1Z" fill="#333333"/>
</svg>
