<svg width="26" height="26" viewBox="0 0 26 26" fill="none" xmlns="http://www.w3.org/2000/svg">
<rect x="0.95" y="0.95" width="24.1" height="24.1" stroke="black" stroke-width="0.1"/>
<path d="M23 23H18V3H23V23Z" fill="white"/>
<path fill-rule="evenodd" clip-rule="evenodd" d="M17.25 3C17.25 2.58579 17.5858 2.25 18 2.25H23C23.4142 2.25 23.75 2.58579 23.75 3V23C23.75 23.4142 23.4142 23.75 23 23.75H18C17.5858 23.75 17.25 23.4142 17.25 23V3ZM18.75 3.75V22.25H22.25V3.75H18.75Z" fill="#333333"/>
<path d="M18 23H3L3.00003 3H18L18 23Z" fill="#999999"/>
<path fill-rule="evenodd" clip-rule="evenodd" d="M2.25003 3C2.25003 2.58579 2.58582 2.25 3.00003 2.25H18C18.1989 2.25 18.3897 2.32902 18.5303 2.46967C18.671 2.61032 18.75 2.80109 18.75 3L18.7499 23C18.7499 23.4142 18.4142 23.75 17.9999 23.75H3C2.80109 23.75 2.61032 23.671 2.46967 23.5303C2.32902 23.3897 2.25 23.1989 2.25 23L2.25003 3ZM3.75003 3.75L3.75 22.25H17.25L17.25 3.75H3.75003Z" fill="#333333"/>
<path fill-rule="evenodd" clip-rule="evenodd" d="M7.25001 8C7.25001 7.58579 7.58579 7.25 8.00001 7.25H13C13.1989 7.25 13.3897 7.32902 13.5303 7.46967C13.671 7.61032 13.75 7.80109 13.75 8L13.75 11.5C13.75 12.7426 12.7426 13.75 11.5 13.75H9.5C8.25736 13.75 7.25 12.7426 7.25 11.5L7.25001 8ZM8.75001 8.75L8.75 11.5C8.75 11.9142 9.08579 12.25 9.5 12.25H11.5C11.9142 12.25 12.25 11.9142 12.25 11.5L12.25 8.75H8.75001Z" fill="#333333"/>
<path fill-rule="evenodd" clip-rule="evenodd" d="M11.5 13L11.258 18.8083C11.2535 18.9155 11.1654 19 11.0582 19L9.94184 19C9.83462 19 9.74648 18.9155 9.74201 18.8083L9.5 13L11.5 13Z" fill="#333333"/>
<path d="M9.5 6.5C9.5 6.22386 9.72386 6 10 6H11C11.2761 6 11.5 6.22386 11.5 6.5V8H9.5V6.5Z" fill="#333333"/>
<path d="M10 5.2C10 5.08954 10.0895 5 10.2 5H10.8C10.9105 5 11 5.08954 11 5.2V8H10V5.2Z" fill="#333333"/>
<path d="M23 23H20C21 11.5 21 3 21 3H23V23Z" fill="#7F9FD9"/>
<path fill-rule="evenodd" clip-rule="evenodd" d="M20.25 3C20.25 2.58579 20.5858 2.25 21 2.25H23C23.4142 2.25 23.75 2.58579 23.75 3V23C23.75 23.4142 23.4142 23.75 23 23.75H20C19.7898 23.75 19.5892 23.6618 19.4472 23.5068C19.3051 23.3519 19.2346 23.1444 19.2528 22.935C19.7515 17.2005 20.0008 12.2137 20.1255 8.6612C20.1878 6.88514 20.2189 5.46806 20.2345 4.49581C20.2423 4.00971 20.2461 3.63484 20.2481 3.38195C20.249 3.2555 20.2495 3.15956 20.2498 3.09545L20.25 3.02334L20.25 3ZM21.7447 3.75C21.7424 3.96364 21.7391 4.22106 21.7343 4.51981C21.7186 5.50069 21.6872 6.92736 21.6245 8.7138C21.5051 12.117 21.272 16.8274 20.8168 22.25H22.25V3.75H21.7447Z" fill="#333333"/>
</svg>
