<svg width="24" height="24" viewBox="0 0 24 24" fill="none" xmlns="http://www.w3.org/2000/svg">
<path d="M21 22H3L3.00004 14H21L21 22Z" fill="#E6E6E6"/>
<path fill-rule="evenodd" clip-rule="evenodd" d="M2.25004 14C2.25004 13.5858 2.58583 13.25 3.00004 13.25H21C21.1989 13.25 21.3897 13.329 21.5303 13.4697C21.671 13.6103 21.75 13.8011 21.75 14L21.7499 22C21.7499 22.4142 21.4142 22.75 20.9999 22.75H3C2.80109 22.75 2.61032 22.671 2.46967 22.5303C2.32902 22.3897 2.25 22.1989 2.25 22L2.25004 14ZM3.75004 14.75L3.75 21.25H20.2499L20.25 14.75H3.75004Z" fill="#333333"/>
<path d="M8.99999 14H3L3.00001 5H9L8.99999 14Z" fill="#4984B0"/>
<path fill-rule="evenodd" clip-rule="evenodd" d="M2.25001 5C2.25001 4.58579 2.5858 4.25 3.00001 4.25H9V5.75H3.75001L3.75 13.25H8.99999V14.75H3C2.80109 14.75 2.61032 14.671 2.46967 14.5303C2.32902 14.3897 2.25 14.1989 2.25 14L2.25001 5Z" fill="#333333"/>
<path d="M18 5H8L8.00002 2H18L18 5Z" fill="#4984B0"/>
<path fill-rule="evenodd" clip-rule="evenodd" d="M7.25002 1.99999C7.25003 1.58578 7.58581 1.25 8.00002 1.25H18C18.1989 1.25 18.3897 1.32902 18.5303 1.46967C18.671 1.61033 18.75 1.80109 18.75 2.00001L18.75 5.00001C18.75 5.41422 18.4142 5.75 18 5.75H8C7.80109 5.75 7.61032 5.67098 7.46967 5.53033C7.32902 5.38967 7.25 5.19891 7.25 4.99999L7.25002 1.99999ZM8.75002 2.75L8.75001 4.25H17.25L17.25 2.75H8.75002Z" fill="#333333"/>
<path d="M21 14H15L15 5H19C20.1046 5 21 5.89543 21 7L21 14Z" fill="#4984B0"/>
<path fill-rule="evenodd" clip-rule="evenodd" d="M19 5.75H15V4.25H19C20.5188 4.25 21.75 5.48122 21.75 7L21.75 14C21.75 14.4142 21.4142 14.75 21 14.75H15V13.25H20.25L20.25 7C20.25 6.30965 19.6904 5.75 19 5.75Z" fill="#333333"/>
<path d="M15 14H9L8.5 9.5L9.00002 5H15L15.25 7.25L15.5 9.5L15 14Z" fill="#DEDEDE"/>
<path fill-rule="evenodd" clip-rule="evenodd" d="M8.30737 4.71157C8.42038 4.44052 8.68789 4.25 8.9999 4.25H14.9999V5L15.6852 4.6954C17.0447 7.75421 17.0447 11.2458 15.6852 14.3046L14.9999 14V14.75H8.99988C8.68787 14.75 8.42036 14.5595 8.30734 14.2884C6.95744 11.2389 6.95745 7.76112 8.30737 4.71157ZM9.49962 5.75C8.56003 8.1613 8.56002 10.8387 9.4996 13.25H14.5002C15.4397 10.8387 15.4397 8.1613 14.5002 5.75H9.49962Z" fill="#333333"/>
<path fill-rule="evenodd" clip-rule="evenodd" d="M12 9.80005C11.7239 9.80005 11.5 10.0239 11.5 10.3C11.5 10.5762 11.7239 10.8 12 10.8C12.2761 10.8 12.5 10.5762 12.5 10.3C12.5 10.0239 12.2761 9.80005 12 9.80005ZM10 10.3C10 9.19548 10.8954 8.30005 12 8.30005C13.1046 8.30005 14 9.19548 14 10.3C14 11.4046 13.1046 12.3 12 12.3C10.8954 12.3 10 11.4046 10 10.3Z" fill="#4984B0"/>
<path fill-rule="evenodd" clip-rule="evenodd" d="M12 6.55005C12.4142 6.55005 12.75 6.88584 12.75 7.30005V9.30005H11.25V7.30005C11.25 6.88584 11.5858 6.55005 12 6.55005Z" fill="#4984B0"/>
</svg>
