<svg width="24" height="24" viewBox="0 0 24 24" fill="none" xmlns="http://www.w3.org/2000/svg">
<path d="M11 2L10.5 8H13.5L13 2H11Z" fill="#32436D"/>
<path fill-rule="evenodd" clip-rule="evenodd" d="M10.2526 1.93772C10.285 1.549 10.6099 1.25 11 1.25H13C13.3901 1.25 13.715 1.549 13.7474 1.93772L14.2474 7.93772C14.2648 8.14673 14.1939 8.35349 14.0519 8.50783C13.9099 8.66218 13.7097 8.75 13.5 8.75H10.5C10.2903 8.75 10.0901 8.66218 9.94809 8.50783C9.80607 8.35349 9.73518 8.14673 9.75259 7.93772L10.2526 1.93772ZM11.6901 2.75L11.3151 7.25H12.6849L12.3099 2.75H11.6901Z" fill="#333333"/>
<path d="M8 8V22H16V8H8Z" fill="#DEDEDE"/>
<path fill-rule="evenodd" clip-rule="evenodd" d="M7.25 8C7.25 7.58579 7.58579 7.25 8 7.25H16C16.4142 7.25 16.75 7.58579 16.75 8V22C16.75 22.4142 16.4142 22.75 16 22.75H8C7.58579 22.75 7.25 22.4142 7.25 22V8ZM8.75 8.75V21.25H15.25V8.75H8.75Z" fill="#333333"/>
<path d="M10 8V22H14V8H10Z" fill="#32436D"/>
<path fill-rule="evenodd" clip-rule="evenodd" d="M9.25 8C9.25 7.58579 9.58579 7.25 10 7.25H14C14.4142 7.25 14.75 7.58579 14.75 8V22C14.75 22.4142 14.4142 22.75 14 22.75H10C9.58579 22.75 9.25 22.4142 9.25 22V8ZM10.75 8.75V21.25H13.25V8.75H10.75Z" fill="#333333"/>
<path d="M8 13V17H16V13H8Z" fill="#DEDEDE"/>
<path fill-rule="evenodd" clip-rule="evenodd" d="M7.25 13C7.25 12.5858 7.58579 12.25 8 12.25H16C16.4142 12.25 16.75 12.5858 16.75 13V17C16.75 17.4142 16.4142 17.75 16 17.75H8C7.58579 17.75 7.25 17.4142 7.25 17V13ZM8.75 13.75V16.25H15.25V13.75H8.75Z" fill="#333333"/>
</svg>
