<svg width="26" height="26" viewBox="0 0 26 26" fill="none" xmlns="http://www.w3.org/2000/svg">
<rect x="0.95" y="0.95" width="24.1" height="24.1" stroke="black" stroke-width="0.1"/>
<path d="M17 4V22H23V4H17Z" fill="#2E5A75"/>
<path fill-rule="evenodd" clip-rule="evenodd" d="M16.25 4C16.25 3.58579 16.5858 3.25 17 3.25H23C23.4142 3.25 23.75 3.58579 23.75 4V22C23.75 22.4142 23.4142 22.75 23 22.75H17C16.5858 22.75 16.25 22.4142 16.25 22V4ZM17.75 4.75V21.25H22.25V4.75H17.75Z" fill="#333333"/>
<path d="M3 4V22H9V4H3Z" fill="#2E5A75"/>
<path fill-rule="evenodd" clip-rule="evenodd" d="M2.25 4C2.25 3.58579 2.58579 3.25 3 3.25H9C9.41421 3.25 9.75 3.58579 9.75 4V22C9.75 22.4142 9.41421 22.75 9 22.75H3C2.58579 22.75 2.25 22.4142 2.25 22V4ZM3.75 4.75V21.25H8.25V4.75H3.75Z" fill="#333333"/>
<path d="M9 12V4H17V12C17 12 18 13 18 14.5C18 16 17 17 17 17V22H9V17C9 17 8 16 8 14.5C8 13 9 12 9 12Z" fill="#DEDEDE"/>
<path fill-rule="evenodd" clip-rule="evenodd" d="M9.53341 12.5272L9.53187 12.5288C9.52892 12.5319 9.52268 12.5386 9.51361 12.5486C9.49544 12.5687 9.46616 12.6023 9.4294 12.6482C9.35551 12.7406 9.25363 12.8803 9.15118 13.0596C8.9445 13.4213 8.75 13.9178 8.75 14.5C8.75 15.0822 8.9445 15.5787 9.15118 15.9404C9.25363 16.1197 9.35551 16.2594 9.4294 16.3518C9.46616 16.3977 9.49544 16.4313 9.51361 16.4514C9.52268 16.4614 9.52892 16.4681 9.53187 16.4712L9.53106 16.4704L9.53341 16.4728C9.82321 16.7659 9.82219 17.2385 9.53033 17.5303C9.23744 17.8232 8.76256 17.8232 8.46967 17.5303L9 17C8.46967 17.5303 8.46967 17.5303 8.46967 17.5303L8.46885 17.5295L8.46793 17.5286L8.46582 17.5265L8.4605 17.521L8.44567 17.5056C8.43397 17.4934 8.41873 17.4771 8.40045 17.4568C8.36394 17.4164 8.31509 17.3601 8.2581 17.2888C8.14449 17.1468 7.99637 16.9428 7.84882 16.6846C7.5555 16.1713 7.25 15.4178 7.25 14.5C7.25 13.5822 7.5555 12.8287 7.84882 12.3154C7.99637 12.0572 8.14449 11.8532 8.2581 11.7112C8.31509 11.6399 8.36394 11.5836 8.40045 11.5432C8.41873 11.5229 8.43397 11.5066 8.44567 11.4944L8.4605 11.479L8.46582 11.4735L8.46793 11.4714L8.46885 11.4705C8.46885 11.4705 8.47525 11.4753 9 12L8.46967 11.4697C8.76256 11.1768 9.23744 11.1768 9.53033 11.4697C9.82219 11.7615 9.82321 12.2341 9.53341 12.5272Z" fill="#333333"/>
<path fill-rule="evenodd" clip-rule="evenodd" d="M16.4666 12.5272L16.4681 12.5288C16.4711 12.5319 16.4773 12.5386 16.4864 12.5486C16.5046 12.5687 16.5338 12.6023 16.5706 12.6482C16.6445 12.7406 16.7464 12.8803 16.8488 13.0596C17.0555 13.4213 17.25 13.9178 17.25 14.5C17.25 15.0822 17.0555 15.5787 16.8488 15.9404C16.7464 16.1197 16.6445 16.2594 16.5706 16.3518C16.5338 16.3977 16.5046 16.4313 16.4864 16.4514C16.4773 16.4614 16.4711 16.4681 16.4681 16.4712L16.4689 16.4704L16.4666 16.4728C16.1768 16.7659 16.1778 17.2385 16.4697 17.5303C16.7626 17.8232 17.2374 17.8232 17.5303 17.5303L17 17C17.5303 17.5303 17.5303 17.5303 17.5303 17.5303L17.5312 17.5295L17.5321 17.5286L17.5342 17.5265L17.5395 17.521L17.5543 17.5056C17.566 17.4934 17.5813 17.4771 17.5995 17.4568C17.6361 17.4164 17.6849 17.3601 17.7419 17.2888C17.8555 17.1468 18.0036 16.9428 18.1512 16.6846C18.4445 16.1713 18.75 15.4178 18.75 14.5C18.75 13.5822 18.4445 12.8287 18.1512 12.3154C18.0036 12.0572 17.8555 11.8532 17.7419 11.7112C17.6849 11.6399 17.6361 11.5836 17.5995 11.5432C17.5813 11.5229 17.566 11.5066 17.5543 11.4944L17.5395 11.479L17.5342 11.4735L17.5321 11.4714L17.5312 11.4705C17.5312 11.4705 17.5247 11.4753 17 12L17.5303 11.4697C17.2374 11.1768 16.7626 11.1768 16.4697 11.4697C16.1778 11.7615 16.1768 12.2341 16.4666 12.5272Z" fill="#333333"/>
<path fill-rule="evenodd" clip-rule="evenodd" d="M8.25 4C8.25 3.58579 8.58579 3.25 9 3.25H17C17.4142 3.25 17.75 3.58579 17.75 4V12C17.75 12.4142 17.4142 12.75 17 12.75C16.5858 12.75 16.25 12.4142 16.25 12V4.75H9.75V12C9.75 12.4142 9.41421 12.75 9 12.75C8.58579 12.75 8.25 12.4142 8.25 12V4ZM9 16.25C9.41421 16.25 9.75 16.5858 9.75 17V21.25H16.25V17C16.25 16.5858 16.5858 16.25 17 16.25C17.4142 16.25 17.75 16.5858 17.75 17V22C17.75 22.4142 17.4142 22.75 17 22.75H9C8.58579 22.75 8.25 22.4142 8.25 22V17C8.25 16.5858 8.58579 16.25 9 16.25Z" fill="#333333"/>
<path fill-rule="evenodd" clip-rule="evenodd" d="M13 13.75C12.5858 13.75 12.25 14.0858 12.25 14.5C12.25 14.9142 12.5858 15.25 13 15.25C13.4142 15.25 13.75 14.9142 13.75 14.5C13.75 14.0858 13.4142 13.75 13 13.75ZM10.75 14.5C10.75 13.2574 11.7574 12.25 13 12.25C14.2426 12.25 15.25 13.2574 15.25 14.5C15.25 15.7426 14.2426 16.75 13 16.75C11.7574 16.75 10.75 15.7426 10.75 14.5Z" fill="#333333"/>
<path d="M12 10.5C12 10.2239 12.2239 10 12.5 10H13.5C13.7761 10 14 10.2239 14 10.5V13H12V10.5Z" fill="#333333"/>
<path d="M14 17.5C14 17.7761 13.7761 18 13.5 18L12.5 18C12.2239 18 12 17.7761 12 17.5L12 16L14 16L14 17.5Z" fill="#333333"/>
<path d="M12.5 9.2C12.5 9.08954 12.5895 9 12.7 9H13.3C13.4105 9 13.5 9.08954 13.5 9.2V12H12.5V9.2Z" fill="#333333"/>
<path fill-rule="evenodd" clip-rule="evenodd" d="M19.25 6C19.25 5.86193 19.3619 5.75 19.5 5.75H21.5C21.6381 5.75 21.75 5.86193 21.75 6C21.75 6.13807 21.6381 6.25 21.5 6.25H19.5C19.3619 6.25 19.25 6.13807 19.25 6Z" fill="#73E2C9"/>
<path fill-rule="evenodd" clip-rule="evenodd" d="M19.25 7C19.25 6.86193 19.3619 6.75 19.5 6.75H21.5C21.6381 6.75 21.75 6.86193 21.75 7C21.75 7.13807 21.6381 7.25 21.5 7.25H19.5C19.3619 7.25 19.25 7.13807 19.25 7Z" fill="#73E2C9"/>
<path fill-rule="evenodd" clip-rule="evenodd" d="M19.25 8C19.25 7.86193 19.3619 7.75 19.5 7.75H21.5C21.6381 7.75 21.75 7.86193 21.75 8C21.75 8.13807 21.6381 8.25 21.5 8.25H19.5C19.3619 8.25 19.25 8.13807 19.25 8Z" fill="#73E2C9"/>
<path fill-rule="evenodd" clip-rule="evenodd" d="M19.25 9C19.25 8.86193 19.3619 8.75 19.5 8.75H21.5C21.6381 8.75 21.75 8.86193 21.75 9C21.75 9.13807 21.6381 9.25 21.5 9.25H19.5C19.3619 9.25 19.25 9.13807 19.25 9Z" fill="#2038EB"/>
<path fill-rule="evenodd" clip-rule="evenodd" d="M19.25 10C19.25 9.86193 19.3619 9.75 19.5 9.75H21.5C21.6381 9.75 21.75 9.86193 21.75 10C21.75 10.1381 21.6381 10.25 21.5 10.25H19.5C19.3619 10.25 19.25 10.1381 19.25 10Z" fill="#A4A4A4"/>
<path d="M6 5.99999C5.17157 5.99999 4.5 6.67156 4.5 7.49999C4.5 7.94424 4.69313 8.34338 5 8.61804L5 10L7 10L7 8.61804C7.30687 8.34338 7.5 7.94424 7.5 7.49999C7.5 6.67156 6.82843 5.99999 6 5.99999Z" fill="#2E5A75"/>
<path fill-rule="evenodd" clip-rule="evenodd" d="M7.25 10C7.25 10.1381 7.13807 10.25 7 10.25L5 10.25C4.86193 10.25 4.75 10.1381 4.75 10L4.75 8.72473C4.44098 8.40934 4.25 7.97683 4.25 7.49999C4.25 6.53349 5.0335 5.74999 6 5.74999C6.9665 5.74999 7.75 6.53349 7.75 7.49999C7.75 7.97683 7.55902 8.40934 7.25 8.72473L7.25 10ZM6.75 9.75L6.75 8.61804C6.75 8.54693 6.78028 8.47918 6.83327 8.43176C7.0894 8.20252 7.25 7.87017 7.25 7.49999C7.25 6.80963 6.69036 6.24999 6 6.24999C5.30964 6.24999 4.75 6.80963 4.75 7.49999C4.75 7.87017 4.9106 8.20252 5.16673 8.43176C5.21972 8.47918 5.25 8.54693 5.25 8.61804L5.25 9.75L6.75 9.75Z" fill="#333333"/>
<path d="M6 9.49999C5.17157 9.49999 4.5 10.1716 4.5 11C4.5 11.4442 4.69313 11.8434 5 12.118L5 13.5L7 13.5L7 12.118C7.30687 11.8434 7.5 11.4442 7.5 11C7.5 10.1716 6.82843 9.49999 6 9.49999Z" fill="#2E5A75"/>
<path fill-rule="evenodd" clip-rule="evenodd" d="M7.25 13.5C7.25 13.6381 7.13807 13.75 7 13.75L5 13.75C4.86193 13.75 4.75 13.6381 4.75 13.5L4.75 12.2247C4.44098 11.9093 4.25 11.4768 4.25 11C4.25 10.0335 5.0335 9.24999 6 9.24999C6.9665 9.24999 7.75 10.0335 7.75 11C7.75 11.4768 7.55902 11.9093 7.25 12.2247L7.25 13.5ZM6.75 13.25L6.75 12.118C6.75 12.0469 6.78028 11.9792 6.83327 11.9318C7.0894 11.7025 7.25 11.3702 7.25 11C7.25 10.3096 6.69036 9.74999 6 9.74999C5.30964 9.74999 4.75 10.3096 4.75 11C4.75 11.3702 4.9106 11.7025 5.16673 11.9318C5.21972 11.9792 5.25 12.0469 5.25 12.118L5.25 13.25L6.75 13.25Z" fill="#333333"/>
<path d="M6.75 7.5C6.75 7.91421 6.41421 8.25 6 8.25C5.58579 8.25 5.25 7.91421 5.25 7.5C5.25 7.08579 5.58579 6.75 6 6.75C6.41421 6.75 6.75 7.08579 6.75 7.5Z" fill="#C7C7BE"/>
<path d="M5.9 8.7C5.9 8.81046 5.81046 8.9 5.7 8.9C5.58954 8.9 5.5 8.81046 5.5 8.7C5.5 8.58954 5.58954 8.5 5.7 8.5C5.81046 8.5 5.9 8.58954 5.9 8.7Z" fill="#68CEAC"/>
<path d="M6.5001 8.7C6.5001 8.81046 6.41055 8.9 6.3001 8.9C6.18964 8.9 6.1001 8.81046 6.1001 8.7C6.1001 8.58954 6.18964 8.5 6.3001 8.5C6.41055 8.5 6.5001 8.58954 6.5001 8.7Z" fill="#68CEAC"/>
<path d="M19 16.5C19 16.2239 19.2239 16 19.5 16H20.5C20.7761 16 21 16.2239 21 16.5V18.5C21 18.7761 20.7761 19 20.5 19H19.5C19.2239 19 19 18.7761 19 18.5V16.5Z" fill="#2D383E"/>
</svg>
