<svg width="24" height="24" viewBox="0 0 24 24" fill="none" xmlns="http://www.w3.org/2000/svg">
<path d="M9 2V13H13V2H11H9Z" fill="#32436D"/>
<path fill-rule="evenodd" clip-rule="evenodd" d="M8.25 2C8.25 1.58579 8.58579 1.25 9 1.25H13C13.4142 1.25 13.75 1.58579 13.75 2V13C13.75 13.4142 13.4142 13.75 13 13.75H9C8.58579 13.75 8.25 13.4142 8.25 13V2ZM9.75 2.75V12.25H12.25V2.75H9.75Z" fill="#333333"/>
<path d="M7.5 13V22H15.5V13H7.5Z" fill="#DEDEDE"/>
<path fill-rule="evenodd" clip-rule="evenodd" d="M6.75 13C6.75 12.5858 7.08579 12.25 7.5 12.25H15.5C15.9142 12.25 16.25 12.5858 16.25 13V22C16.25 22.4142 15.9142 22.75 15.5 22.75H7.5C7.08579 22.75 6.75 22.4142 6.75 22V13ZM8.25 13.75V21.25H14.75V13.75H8.25Z" fill="#333333"/>
<path d="M7.5 17V22H13V17H7.5Z" fill="#DEDEDE"/>
<path fill-rule="evenodd" clip-rule="evenodd" d="M6.75 17C6.75 16.5858 7.08579 16.25 7.5 16.25H13C13.4142 16.25 13.75 16.5858 13.75 17V22C13.75 22.4142 13.4142 22.75 13 22.75H7.5C7.08579 22.75 6.75 22.4142 6.75 22V17ZM8.25 17.75V21.25H12.25V17.75H8.25Z" fill="#333333"/>
<path fill-rule="evenodd" clip-rule="evenodd" d="M10.25 19.25C10.1119 19.25 10 19.3619 10 19.5C10 19.6381 10.1119 19.75 10.25 19.75C10.3881 19.75 10.5 19.6381 10.5 19.5C10.5 19.3619 10.3881 19.25 10.25 19.25ZM9 19.5C9 18.8096 9.55964 18.25 10.25 18.25C10.9404 18.25 11.5 18.8096 11.5 19.5C11.5 20.1904 10.9404 20.75 10.25 20.75C9.55964 20.75 9 20.1904 9 19.5Z" fill="#32436D"/>
</svg>
