<svg width="24" height="24" viewBox="0 0 24 24" fill="none" xmlns="http://www.w3.org/2000/svg">
<path d="M4 2V22H9V2H4Z" fill="#32436D"/>
<path fill-rule="evenodd" clip-rule="evenodd" d="M3.25 2C3.25 1.58579 3.58579 1.25 4 1.25H9C9.41421 1.25 9.75 1.58579 9.75 2V22C9.75 22.4142 9.41421 22.75 9 22.75H4C3.58579 22.75 3.25 22.4142 3.25 22V2ZM4.75 2.75V21.25H8.25V2.75H4.75Z" fill="#333333"/>
<path d="M9 2V22H20V2H9Z" fill="#DEDEDE"/>
<path fill-rule="evenodd" clip-rule="evenodd" d="M8.25 2C8.25 1.58579 8.58579 1.25 9 1.25H20C20.4142 1.25 20.75 1.58579 20.75 2V22C20.75 22.4142 20.4142 22.75 20 22.75H9C8.58579 22.75 8.25 22.4142 8.25 22V2ZM9.75 2.75V21.25H19.25V2.75H9.75Z" fill="#333333"/>
<path d="M13 6C13 5.72386 13.2239 5.5 13.5 5.5H15.5C15.7761 5.5 16 5.72386 16 6V8.5H13V6Z" fill="#333333"/>
<path d="M13.75 4.2C13.75 4.08954 13.8395 4 13.95 4H15.05C15.1605 4 15.25 4.08954 15.25 4.2V6H13.75V4.2Z" fill="#333333"/>
<path d="M17.5 11C17.5 12.6569 16.1569 14 14.5 14C12.8431 14 11.5 12.6569 11.5 11C11.5 9.34315 12.8431 8 14.5 8C16.1569 8 17.5 9.34315 17.5 11Z" fill="#32436D"/>
<path fill-rule="evenodd" clip-rule="evenodd" d="M14.5 8.75C13.2574 8.75 12.25 9.75736 12.25 11C12.25 12.2426 13.2574 13.25 14.5 13.25C15.7426 13.25 16.75 12.2426 16.75 11C16.75 9.75736 15.7426 8.75 14.5 8.75ZM10.75 11C10.75 8.92893 12.4289 7.25 14.5 7.25C16.5711 7.25 18.25 8.92893 18.25 11C18.25 13.0711 16.5711 14.75 14.5 14.75C12.4289 14.75 10.75 13.0711 10.75 11Z" fill="#32436D"/>
<path fill-rule="evenodd" clip-rule="evenodd" d="M14.5 10.5C14.7761 10.5 15 10.7239 15 11C15 11.2761 14.7761 11.5 14.5 11.5C14.2239 11.5 14 11.2761 14 11C14 10.7239 14.2239 10.5 14.5 10.5ZM16 11C16 10.1716 15.3284 9.5 14.5 9.5C13.6716 9.5 13 10.1716 13 11C13 11.8284 13.6716 12.5 14.5 12.5C15.3284 12.5 16 11.8284 16 11Z" fill="#333333"/>
</svg>
