<svg width="24" height="24" viewBox="0 0 24 24" fill="none" xmlns="http://www.w3.org/2000/svg">
<path d="M4 14V22H10V14H4Z" fill="#DEDEDE"/>
<path fill-rule="evenodd" clip-rule="evenodd" d="M3.25 14C3.25 13.5858 3.58579 13.25 4 13.25H10C10.4142 13.25 10.75 13.5858 10.75 14V22C10.75 22.4142 10.4142 22.75 10 22.75H4C3.58579 22.75 3.25 22.4142 3.25 22V14ZM4.75 14.75V21.25H9.25V14.75H4.75Z" fill="#333333"/>
<path d="M4 7V14H10V7H4Z" fill="#DEDEDE"/>
<path fill-rule="evenodd" clip-rule="evenodd" d="M3.25 7C3.25 6.58579 3.58579 6.25 4 6.25H10C10.4142 6.25 10.75 6.58579 10.75 7V14C10.75 14.4142 10.4142 14.75 10 14.75H4C3.58579 14.75 3.25 14.4142 3.25 14V7ZM4.75 7.75V13.25H9.25V7.75H4.75Z" fill="#333333"/>
<path d="M10 7V14H16V8.5L11.7827 7.18208C11.3965 7.06139 10.9942 7 10.5896 7H10Z" fill="#D9D9D9"/>
<path d="M16 9V14H20V10L17.8525 9.23303C17.4207 9.07883 16.9656 9 16.5071 9H16Z" fill="#243653"/>
<path fill-rule="evenodd" clip-rule="evenodd" d="M9.25 7C9.25 6.58579 9.58579 6.25 10 6.25H11.2747C11.8442 6.25 12.4092 6.35244 12.9425 6.55244L18.9656 8.8111C20.0389 9.2136 20.75 10.2397 20.75 11.386V14C20.75 14.4142 20.4142 14.75 20 14.75H10C9.58579 14.75 9.25 14.4142 9.25 14V7ZM10.75 7.75V13.25H19.25V11.386C19.25 10.8649 18.9268 10.3985 18.4389 10.2156L12.4158 7.95693C12.0509 7.82009 11.6644 7.75 11.2747 7.75H10.75Z" fill="#333333"/>
<path d="M10 14V22H17V14H10Z" fill="#DEDEDE"/>
<path fill-rule="evenodd" clip-rule="evenodd" d="M9.25 14C9.25 13.5858 9.58579 13.25 10 13.25H17C17.4142 13.25 17.75 13.5858 17.75 14V22C17.75 22.4142 17.4142 22.75 17 22.75H10C9.58579 22.75 9.25 22.4142 9.25 22V14ZM10.75 14.75V21.25H16.25V14.75H10.75Z" fill="#333333"/>
<path d="M17 14V22H20V14H17Z" fill="#DEDEDE"/>
<path fill-rule="evenodd" clip-rule="evenodd" d="M16.25 14C16.25 13.5858 16.5858 13.25 17 13.25H20C20.4142 13.25 20.75 13.5858 20.75 14V22C20.75 22.4142 20.4142 22.75 20 22.75H17C16.5858 22.75 16.25 22.4142 16.25 22V14ZM17.75 14.75V21.25H19.25V14.75H17.75Z" fill="#333333"/>
<path d="M5 3V7H7V3H5Z" fill="#243755"/>
<path fill-rule="evenodd" clip-rule="evenodd" d="M4.25 3C4.25 2.58579 4.58579 2.25 5 2.25H7C7.41421 2.25 7.75 2.58579 7.75 3V7C7.75 7.41421 7.41421 7.75 7 7.75H5C4.58579 7.75 4.25 7.41421 4.25 7V3ZM5.75 3.75V6.25H6.25V3.75H5.75Z" fill="#333333"/>
<path d="M18.5 11.75C18.5 12.1642 18.1642 12.5 17.75 12.5C17.3358 12.5 17 12.1642 17 11.75C17 11.3358 17.3358 11 17.75 11C18.1642 11 18.5 11.3358 18.5 11.75Z" fill="#18487D"/>
<path d="M18 11.75C18 11.8881 17.8881 12 17.75 12C17.6119 12 17.5 11.8881 17.5 11.75C17.5 11.6119 17.6119 11.5 17.75 11.5C17.8881 11.5 18 11.6119 18 11.75Z" fill="#333333"/>
</svg>
