<svg width="24" height="24" viewBox="0 0 24 24" fill="none" xmlns="http://www.w3.org/2000/svg">
<path d="M8.5 2V11H13.5V2H11H8.5Z" fill="#32436D"/>
<path fill-rule="evenodd" clip-rule="evenodd" d="M7.75 2C7.75 1.58579 8.08579 1.25 8.5 1.25H13.5C13.9142 1.25 14.25 1.58579 14.25 2V11C14.25 11.4142 13.9142 11.75 13.5 11.75H8.5C8.08579 11.75 7.75 11.4142 7.75 11V2ZM9.25 2.75V10.25H12.75V2.75H9.25Z" fill="#333333"/>
<path d="M7.5 11V22H16.5V11H7.5Z" fill="#DEDEDE"/>
<path fill-rule="evenodd" clip-rule="evenodd" d="M6.75 11C6.75 10.5858 7.08579 10.25 7.5 10.25H16.5C16.9142 10.25 17.25 10.5858 17.25 11V22C17.25 22.4142 16.9142 22.75 16.5 22.75H7.5C7.08579 22.75 6.75 22.4142 6.75 22V11ZM8.25 11.75V21.25H15.75V11.75H8.25Z" fill="#333333"/>
<path d="M7.5 16V22H13.5V16H7.5Z" fill="#DEDEDE"/>
<path fill-rule="evenodd" clip-rule="evenodd" d="M6.75 16C6.75 15.5858 7.08579 15.25 7.5 15.25H13.5C13.9142 15.25 14.25 15.5858 14.25 16V22C14.25 22.4142 13.9142 22.75 13.5 22.75H7.5C7.08579 22.75 6.75 22.4142 6.75 22V16ZM8.25 16.75V21.25H12.75V16.75H8.25Z" fill="#333333"/>
<path fill-rule="evenodd" clip-rule="evenodd" d="M10.5 18.75C10.3619 18.75 10.25 18.8619 10.25 19C10.25 19.1381 10.3619 19.25 10.5 19.25C10.6381 19.25 10.75 19.1381 10.75 19C10.75 18.8619 10.6381 18.75 10.5 18.75ZM9.25 19C9.25 18.3096 9.80964 17.75 10.5 17.75C11.1904 17.75 11.75 18.3096 11.75 19C11.75 19.6904 11.1904 20.25 10.5 20.25C9.80964 20.25 9.25 19.6904 9.25 19Z" fill="#32436D"/>
</svg>
