<svg width="24" height="24" viewBox="0 0 24 24" fill="none" xmlns="http://www.w3.org/2000/svg">
<path d="M4 7V17H11V7H4Z" fill="#47464B"/>
<path fill-rule="evenodd" clip-rule="evenodd" d="M3.25 7C3.25 6.58579 3.58579 6.25 4 6.25H11C11.4142 6.25 11.75 6.58579 11.75 7V17C11.75 17.4142 11.4142 17.75 11 17.75H4C3.58579 17.75 3.25 17.4142 3.25 17V7ZM4.75 7.75V16.25H10.25V7.75H4.75Z" fill="#333333"/>
<path d="M11 7V17H22V7H11Z" fill="#EAEAEC"/>
<path fill-rule="evenodd" clip-rule="evenodd" d="M10.25 7C10.25 6.58579 10.5858 6.25 11 6.25H22C22.4142 6.25 22.75 6.58579 22.75 7V17C22.75 17.4142 22.4142 17.75 22 17.75H11C10.5858 17.75 10.25 17.4142 10.25 17V7ZM11.75 7.75V16.25H21.25V7.75H11.75Z" fill="#333333"/>
<path d="M2 7H4V12H2V7Z" fill="#D9D9D9"/>
<path fill-rule="evenodd" clip-rule="evenodd" d="M1.25 7C1.25 6.58579 1.58579 6.25 2 6.25H4C4.41421 6.25 4.75 6.58579 4.75 7V12C4.75 12.4142 4.41421 12.75 4 12.75H2C1.58579 12.75 1.25 12.4142 1.25 12V7ZM2.75 7.75V11.25H3.25V7.75H2.75Z" fill="#333333"/>
<path d="M6.625 13.5H5.875L5.5 13.875V15.75H7V13.875L6.625 13.5Z" fill="#999999"/>
<path fill-rule="evenodd" clip-rule="evenodd" d="M5.69822 13.3232C5.74511 13.2763 5.8087 13.25 5.875 13.25H6.625C6.6913 13.25 6.75489 13.2763 6.80178 13.3232L7.17678 13.6982C7.22366 13.7451 7.25 13.8087 7.25 13.875V15.75C7.25 15.8881 7.13807 16 7 16H5.5C5.36193 16 5.25 15.8881 5.25 15.75V13.875C5.25 13.8087 5.27634 13.7451 5.32322 13.6982L5.69822 13.3232ZM5.97855 13.75L5.75 13.9786V15.5H6.75V13.9786L6.52145 13.75H5.97855Z" fill="#333333"/>
<path d="M4.75 8.5H6.75V9H4.75V8.5Z" fill="#0C7DC3"/>
</svg>
