<svg width="24" height="24" viewBox="0 0 24 24" fill="none" xmlns="http://www.w3.org/2000/svg">
<path d="M5 14V22H11V14H5Z" fill="#4B4A4F"/>
<path fill-rule="evenodd" clip-rule="evenodd" d="M4.25 14C4.25 13.5858 4.58579 13.25 5 13.25H11C11.4142 13.25 11.75 13.5858 11.75 14V22C11.75 22.4142 11.4142 22.75 11 22.75H5C4.58579 22.75 4.25 22.4142 4.25 22V14ZM5.75 14.75V21.25H10.25V14.75H5.75Z" fill="#333333"/>
<path d="M11 14V22H22V14H11Z" fill="#EAEAEC"/>
<path fill-rule="evenodd" clip-rule="evenodd" d="M10.25 14C10.25 13.5858 10.5858 13.25 11 13.25H22C22.4142 13.25 22.75 13.5858 22.75 14V22C22.75 22.4142 22.4142 22.75 22 22.75H11C10.5858 22.75 10.25 22.4142 10.25 22V14ZM11.75 14.75V21.25H21.25V14.75H11.75Z" fill="#333333"/>
<path d="M17 2V14H21V2H17Z" fill="#EBEBED"/>
<path fill-rule="evenodd" clip-rule="evenodd" d="M16.25 2C16.25 1.58579 16.5858 1.25 17 1.25H21C21.4142 1.25 21.75 1.58579 21.75 2V14C21.75 14.4142 21.4142 14.75 21 14.75H17C16.5858 14.75 16.25 14.4142 16.25 14V2ZM17.75 2.75V13.25H20.25V2.75H17.75Z" fill="#333333"/>
<path d="M3 14H5V19H3V14Z" fill="#D9D9D9"/>
<path fill-rule="evenodd" clip-rule="evenodd" d="M2.25 14C2.25 13.5858 2.58579 13.25 3 13.25H5C5.41421 13.25 5.75 13.5858 5.75 14V19C5.75 19.4142 5.41421 19.75 5 19.75H3C2.58579 19.75 2.25 19.4142 2.25 19V14ZM3.75 14.75V18.25H4.25V14.75H3.75Z" fill="#333333"/>
<path d="M8.75 19H8.25L8 19.25V20.5H9V19.25L8.75 19Z" fill="#999999"/>
<path fill-rule="evenodd" clip-rule="evenodd" d="M8.07322 18.8232C8.12011 18.7763 8.1837 18.75 8.25 18.75H8.75C8.8163 18.75 8.87989 18.7763 8.92678 18.8232L9.17678 19.0732C9.22366 19.1201 9.25 19.1837 9.25 19.25V20.5C9.25 20.6381 9.13807 20.75 9 20.75H8C7.86193 20.75 7.75 20.6381 7.75 20.5V19.25C7.75 19.1837 7.77634 19.1201 7.82322 19.0732L8.07322 18.8232ZM8.35355 19.25L8.25 19.3536V20.25H8.75V19.3536L8.64645 19.25H8.35355Z" fill="#333333"/>
<path d="M7 19H6.5L6.25 19.25V20.5H7.25V19.25L7 19Z" fill="#999999"/>
<path fill-rule="evenodd" clip-rule="evenodd" d="M6.32322 18.8232C6.37011 18.7763 6.4337 18.75 6.5 18.75H7C7.0663 18.75 7.12989 18.7763 7.17678 18.8232L7.42678 19.0732C7.47366 19.1201 7.5 19.1837 7.5 19.25V20.5C7.5 20.6381 7.38807 20.75 7.25 20.75H6.25C6.11193 20.75 6 20.6381 6 20.5V19.25C6 19.1837 6.02634 19.1201 6.07322 19.0732L6.32322 18.8232ZM6.60355 19.25L6.5 19.3536V20.25H7V19.3536L6.89645 19.25H6.60355Z" fill="#333333"/>
<path d="M5.75 16H7.75V16.5H5.75V16Z" fill="#0C7DC3"/>
<path fill-rule="evenodd" clip-rule="evenodd" d="M20.6499 15.1999C20.6499 15.1447 20.6947 15.0999 20.7499 15.0999H22.2499C22.3051 15.0999 22.3499 15.1447 22.3499 15.1999C22.3499 15.2552 22.3051 15.2999 22.2499 15.2999H20.7499C20.6947 15.2999 20.6499 15.2552 20.6499 15.1999Z" fill="#333333"/>
<path fill-rule="evenodd" clip-rule="evenodd" d="M20.3999 15.9C20.3999 15.8448 20.4447 15.8 20.4999 15.8H21.9999C22.0551 15.8 22.0999 15.8448 22.0999 15.9C22.0999 15.9552 22.0551 16 21.9999 16H20.4999C20.4447 16 20.3999 15.9552 20.3999 15.9Z" fill="#333333"/>
<path fill-rule="evenodd" clip-rule="evenodd" d="M20.1499 16.6C20.1499 16.5447 20.1947 16.5 20.2499 16.5H21.7499C21.8051 16.5 21.8499 16.5447 21.8499 16.6C21.8499 16.6552 21.8051 16.7 21.7499 16.7H20.2499C20.1947 16.7 20.1499 16.6552 20.1499 16.6Z" fill="#333333"/>
<path fill-rule="evenodd" clip-rule="evenodd" d="M19.8999 17.3C19.8999 17.2448 19.9447 17.2 19.9999 17.2H21.4999C21.5551 17.2 21.5999 17.2448 21.5999 17.3C21.5999 17.3553 21.5551 17.4 21.4999 17.4H19.9999C19.9447 17.4 19.8999 17.3553 19.8999 17.3Z" fill="#333333"/>
<path fill-rule="evenodd" clip-rule="evenodd" d="M19.6499 18C19.6499 17.9448 19.6947 17.9 19.7499 17.9H22.2499C22.3051 17.9 22.3499 17.9448 22.3499 18C22.3499 18.0552 22.3051 18.1 22.2499 18.1H19.7499C19.6947 18.1 19.6499 18.0552 19.6499 18Z" fill="#333333"/>
<path fill-rule="evenodd" clip-rule="evenodd" d="M19.8999 18.7C19.8999 18.7552 19.9447 18.8 19.9999 18.8H21.4999C21.5551 18.8 21.5999 18.7552 21.5999 18.7C21.5999 18.6448 21.5551 18.6 21.4999 18.6H19.9999C19.9447 18.6 19.8999 18.6448 19.8999 18.7Z" fill="#333333"/>
<path fill-rule="evenodd" clip-rule="evenodd" d="M20.1499 19.4C20.1499 19.4553 20.1947 19.5 20.2499 19.5H21.7499C21.8051 19.5 21.8499 19.4553 21.8499 19.4C21.8499 19.3448 21.8051 19.3 21.7499 19.3H20.2499C20.1947 19.3 20.1499 19.3448 20.1499 19.4Z" fill="#333333"/>
<path fill-rule="evenodd" clip-rule="evenodd" d="M20.3999 20.1C20.3999 20.1552 20.4447 20.2 20.4999 20.2H21.9999C22.0551 20.2 22.0999 20.1552 22.0999 20.1C22.0999 20.0448 22.0551 20 21.9999 20H20.4999C20.4447 20 20.3999 20.0448 20.3999 20.1Z" fill="#333333"/>
<path fill-rule="evenodd" clip-rule="evenodd" d="M20.6499 20.8001C20.6499 20.8553 20.6947 20.9001 20.7499 20.9001H22.2499C22.3051 20.9001 22.3499 20.8553 22.3499 20.8001C22.3499 20.7448 22.3051 20.7001 22.2499 20.7001H20.7499C20.6947 20.7001 20.6499 20.7448 20.6499 20.8001Z" fill="#333333"/>
</svg>
