<svg width="24" height="24" viewBox="0 0 24 24" fill="none" xmlns="http://www.w3.org/2000/svg">
<path d="M2 6V21H22V6H2Z" fill="#DEDEDE"/>
<path fill-rule="evenodd" clip-rule="evenodd" d="M1.25 6C1.25 5.58579 1.58579 5.25 2 5.25H22C22.4142 5.25 22.75 5.58579 22.75 6V21C22.75 21.4142 22.4142 21.75 22 21.75H2C1.58579 21.75 1.25 21.4142 1.25 21V6ZM2.75 6.75V20.25H21.25V6.75H2.75Z" fill="#333333"/>
<path d="M2 18.5V21H22V18.5H2Z" fill="#32436D"/>
<path fill-rule="evenodd" clip-rule="evenodd" d="M1.25 18.5C1.25 18.0858 1.58579 17.75 2 17.75H22C22.4142 17.75 22.75 18.0858 22.75 18.5V21C22.75 21.4142 22.4142 21.75 22 21.75H2C1.58579 21.75 1.25 21.4142 1.25 21V18.5ZM2.75 19.25V20.25H21.25V19.25H2.75Z" fill="#333333"/>
<path d="M2 10V14H17C18.1046 14 19 13.1046 19 12C19 10.8954 18.1046 10 17 10H2Z" fill="#32436D"/>
<path fill-rule="evenodd" clip-rule="evenodd" d="M1.25 10C1.25 9.58579 1.58579 9.25 2 9.25H17C18.5188 9.25 19.75 10.4812 19.75 12C19.75 13.5188 18.5188 14.75 17 14.75H2C1.58579 14.75 1.25 14.4142 1.25 14V10ZM2.75 10.75V13.25H17C17.6904 13.25 18.25 12.6904 18.25 12C18.25 11.3096 17.6904 10.75 17 10.75H2.75Z" fill="#333333"/>
<path fill-rule="evenodd" clip-rule="evenodd" d="M16.75 5.25V21.75H15.25V5.25H16.75Z" fill="#333333"/>
<path d="M2 3V6H13V3H2Z" fill="#DEDEDE"/>
<path fill-rule="evenodd" clip-rule="evenodd" d="M1.25 3C1.25 2.58579 1.58579 2.25 2 2.25H13C13.4142 2.25 13.75 2.58579 13.75 3V6C13.75 6.41421 13.4142 6.75 13 6.75H2C1.58579 6.75 1.25 6.41421 1.25 6V3ZM2.75 3.75V5.25H12.25V3.75H2.75Z" fill="#333333"/>
<path fill-rule="evenodd" clip-rule="evenodd" d="M8.75 2.25V21.75H7.25V2.25H8.75Z" fill="#333333"/>
</svg>
