<svg width="24" height="24" viewBox="0 0 24 24" fill="none" xmlns="http://www.w3.org/2000/svg">
<path d="M2.5 6V18H21.5V6H2.5Z" fill="#3F4450"/>
<path fill-rule="evenodd" clip-rule="evenodd" d="M1.75 6C1.75 5.58579 2.08579 5.25 2.5 5.25H21.5C21.9142 5.25 22.25 5.58579 22.25 6V18C22.25 18.4142 21.9142 18.75 21.5 18.75H2.5C2.08579 18.75 1.75 18.4142 1.75 18V6ZM3.25 6.75V17.25H20.75V6.75H3.25Z" fill="#333333"/>
<path d="M4.5 4V6H19.5V4H4.5Z" fill="#DCDCDE"/>
<path fill-rule="evenodd" clip-rule="evenodd" d="M3.75 4C3.75 3.58579 4.08579 3.25 4.5 3.25H19.5C19.9142 3.25 20.25 3.58579 20.25 4V6C20.25 6.41421 19.9142 6.75 19.5 6.75H4.5C4.08579 6.75 3.75 6.41421 3.75 6V4ZM5.25 4.75V5.25H18.75V4.75H5.25Z" fill="#333333"/>
<path d="M7.5 16.25C9.15685 16.25 10.5 14.9069 10.5 13.25C10.5 12.3615 10.1137 11.5632 9.5 11.0139V7.75H5.5V11.0139C4.88625 11.5632 4.5 12.3615 4.5 13.25C4.5 14.9069 5.84315 16.25 7.5 16.25Z" fill="#E4E4E6"/>
<path fill-rule="evenodd" clip-rule="evenodd" d="M5 7.75C5 7.47386 5.22386 7.25 5.5 7.25H9.5C9.77614 7.25 10 7.47386 10 7.75V10.8005C10.618 11.4313 11 12.2963 11 13.25C11 15.183 9.433 16.75 7.5 16.75C5.567 16.75 4 15.183 4 13.25C4 12.2963 4.38196 11.4313 5 10.8005V7.75ZM6 8.25V11.0139C6 11.1561 5.93943 11.2916 5.83346 11.3865C5.3212 11.845 5 12.5097 5 13.25C5 14.6307 6.11929 15.75 7.5 15.75C8.88071 15.75 10 14.6307 10 13.25C10 12.5097 9.6788 11.845 9.16654 11.3865C9.06057 11.2916 9 11.1561 9 11.0139V8.25H6Z" fill="#333333"/>
<path d="M6.5 9.2C6.5 9.08954 6.58954 9 6.7 9H8.3C8.41046 9 8.5 9.08954 8.5 9.2V15C7.87049 15.3148 7.12951 15.3148 6.5 15V9.2Z" fill="#333333"/>
<path fill-rule="evenodd" clip-rule="evenodd" d="M11.75 18V6H13.25V18H11.75Z" fill="#333333"/>
<path d="M19.625 7.5H18.875L18.5 7.875V9.75H20V7.875L19.625 7.5Z" fill="#999999"/>
<path fill-rule="evenodd" clip-rule="evenodd" d="M18.6982 7.32322C18.7451 7.27634 18.8087 7.25 18.875 7.25H19.625C19.6913 7.25 19.7549 7.27634 19.8018 7.32322L20.1768 7.69822C20.2237 7.74511 20.25 7.8087 20.25 7.875V9.75C20.25 9.88807 20.1381 10 20 10H18.5C18.3619 10 18.25 9.88807 18.25 9.75V7.875C18.25 7.8087 18.2763 7.74511 18.3232 7.69822L18.6982 7.32322ZM18.9786 7.75L18.75 7.97855V9.5H19.75V7.97855L19.5214 7.75H18.9786Z" fill="#333333"/>
<path d="M4.5 18V20H20.5V18H4.5Z" fill="#DCDCDE"/>
<path fill-rule="evenodd" clip-rule="evenodd" d="M3.75 18C3.75 17.5858 4.08579 17.25 4.5 17.25H20.5C20.9142 17.25 21.25 17.5858 21.25 18V20C21.25 20.4142 20.9142 20.75 20.5 20.75H4.5C4.08579 20.75 3.75 20.4142 3.75 20V18ZM5.25 18.75V19.25H19.75V18.75H5.25Z" fill="#333333"/>
<path d="M5.25 4.75H7.25V5.25H5.25V4.75Z" fill="#0C7DC3"/>
</svg>
