<svg width="24" height="24" viewBox="0 0 24 24" fill="none" xmlns="http://www.w3.org/2000/svg">
<path d="M4 15V22H9.5V15H4Z" fill="#4B4A4F"/>
<path fill-rule="evenodd" clip-rule="evenodd" d="M3.25 15C3.25 14.5858 3.58579 14.25 4 14.25H9.5C9.91421 14.25 10.25 14.5858 10.25 15V22C10.25 22.4142 9.91421 22.75 9.5 22.75H4C3.58579 22.75 3.25 22.4142 3.25 22V15ZM4.75 15.75V21.25H8.75V15.75H4.75Z" fill="#333333"/>
<path d="M8 19H7.5L7.25 19.25V20.5H8.25V19.25L8 19Z" fill="#999999"/>
<path fill-rule="evenodd" clip-rule="evenodd" d="M7.32322 18.8232C7.37011 18.7763 7.4337 18.75 7.5 18.75H8C8.0663 18.75 8.12989 18.7763 8.17678 18.8232L8.42678 19.0732C8.47366 19.1201 8.5 19.1837 8.5 19.25V20.5C8.5 20.6381 8.38807 20.75 8.25 20.75H7.25C7.11193 20.75 7 20.6381 7 20.5V19.25C7 19.1837 7.02634 19.1201 7.07322 19.0732L7.32322 18.8232ZM7.60355 19.25L7.5 19.3536V20.25H8V19.3536L7.89645 19.25H7.60355Z" fill="#333333"/>
<path d="M6.25 19H5.75L5.5 19.25V20.5H6.5V19.25L6.25 19Z" fill="#999999"/>
<path fill-rule="evenodd" clip-rule="evenodd" d="M5.57322 18.8232C5.62011 18.7763 5.6837 18.75 5.75 18.75H6.25C6.3163 18.75 6.37989 18.7763 6.42678 18.8232L6.67678 19.0732C6.72366 19.1201 6.75 19.1837 6.75 19.25V20.5C6.75 20.6381 6.63807 20.75 6.5 20.75H5.5C5.36193 20.75 5.25 20.6381 5.25 20.5V19.25C5.25 19.1837 5.27634 19.1201 5.32322 19.0732L5.57322 18.8232ZM5.85355 19.25L5.75 19.3536V20.25H6.25V19.3536L6.14645 19.25H5.85355Z" fill="#333333"/>
<path d="M9.5 15V22H22V15H9.5Z" fill="#EAEAEC"/>
<path fill-rule="evenodd" clip-rule="evenodd" d="M8.75 15C8.75 14.5858 9.08579 14.25 9.5 14.25H22C22.4142 14.25 22.75 14.5858 22.75 15V22C22.75 22.4142 22.4142 22.75 22 22.75H9.5C9.08579 22.75 8.75 22.4142 8.75 22V15ZM10.25 15.75V21.25H21.25V15.75H10.25Z" fill="#333333"/>
<path d="M17 2V15H21V2H17Z" fill="#EBEBED"/>
<path fill-rule="evenodd" clip-rule="evenodd" d="M16.25 2C16.25 1.58579 16.5858 1.25 17 1.25H21C21.4142 1.25 21.75 1.58579 21.75 2V15C21.75 15.4142 21.4142 15.75 21 15.75H17C16.5858 15.75 16.25 15.4142 16.25 15V2ZM17.75 2.75V14.25H20.25V2.75H17.75Z" fill="#333333"/>
<path d="M2 15H4V18H2V15Z" fill="#D9D9D9"/>
<path fill-rule="evenodd" clip-rule="evenodd" d="M1.25 15C1.25 14.5858 1.58579 14.25 2 14.25H4C4.41421 14.25 4.75 14.5858 4.75 15V18C4.75 18.4142 4.41421 18.75 4 18.75H2C1.58579 18.75 1.25 18.4142 1.25 18V15ZM2.75 15.75V17.25H3.25V15.75H2.75Z" fill="#333333"/>
<path d="M4.75 16.5H6.75V17H4.75V16.5Z" fill="#0C7DC3"/>
</svg>
