<svg width="24" height="24" viewBox="0 0 24 24" fill="none" xmlns="http://www.w3.org/2000/svg">
<path d="M5 3V7H19V3H5Z" fill="#DEDEDE"/>
<path fill-rule="evenodd" clip-rule="evenodd" d="M4.25 3C4.25 2.58579 4.58579 2.25 5 2.25H19C19.4142 2.25 19.75 2.58579 19.75 3V7C19.75 7.41421 19.4142 7.75 19 7.75H5C4.58579 7.75 4.25 7.41421 4.25 7V3ZM5.75 3.75V6.25H18.25V3.75H5.75Z" fill="#333333"/>
<path d="M5 7V21H19V7H5Z" fill="#DEDEDE"/>
<path fill-rule="evenodd" clip-rule="evenodd" d="M4.25 7C4.25 6.58579 4.58579 6.25 5 6.25H19C19.4142 6.25 19.75 6.58579 19.75 7V21C19.75 21.4142 19.4142 21.75 19 21.75H5C4.58579 21.75 4.25 21.4142 4.25 21V7ZM5.75 7.75V20.25H18.25V7.75H5.75Z" fill="#333333"/>
<path d="M8 3V13.5C8 13.7761 8.22386 14 8.5 14H15.5C15.7761 14 16 13.7761 16 13.5V3H8Z" fill="#666666"/>
<path fill-rule="evenodd" clip-rule="evenodd" d="M7.25 3C7.25 2.58579 7.58579 2.25 8 2.25H16C16.4142 2.25 16.75 2.58579 16.75 3V13.5C16.75 14.1904 16.1904 14.75 15.5 14.75H8.5C7.80964 14.75 7.25 14.1904 7.25 13.5V3ZM8.75 3.75V13.25H15.25V3.75H8.75Z" fill="#333333"/>
<path fill-rule="evenodd" clip-rule="evenodd" d="M16 8.75H8V7.25H16V8.75Z" fill="#333333"/>
<path d="M10.75 9.75H13.25V12.25H10.75V9.75Z" fill="#505762"/>
</svg>
