<svg width="24" height="24" viewBox="0 0 24 24" fill="none" xmlns="http://www.w3.org/2000/svg">
<path d="M12 5H22V11H11V8L12 5Z" fill="#D9D9D9"/>
<path fill-rule="evenodd" clip-rule="evenodd" d="M11.2885 4.76283C11.3906 4.45657 11.6772 4.25 12 4.25H22C22.4142 4.25 22.75 4.58579 22.75 5V11C22.75 11.4142 22.4142 11.75 22 11.75H11C10.5858 11.75 10.25 11.4142 10.25 11V8C10.25 7.91939 10.263 7.8393 10.2885 7.76283L11.2885 4.76283ZM12.5406 5.75L11.75 8.12171V10.25H21.25V5.75H12.5406Z" fill="#333333"/>
<path d="M2 7V19H6V7H2Z" fill="#C9C8C4"/>
<path fill-rule="evenodd" clip-rule="evenodd" d="M1.25 7C1.25 6.58579 1.58579 6.25 2 6.25H6C6.41421 6.25 6.75 6.58579 6.75 7V19C6.75 19.4142 6.41421 19.75 6 19.75H2C1.58579 19.75 1.25 19.4142 1.25 19V7ZM2.75 7.75V18.25H5.25V7.75H2.75Z" fill="#333333"/>
<path d="M10.9999 19V7H5.49993C4.85964 8.92087 5.00864 11.0174 5.91415 12.8284L5.99993 13V19H10.9999Z" fill="#1E2225"/>
<path fill-rule="evenodd" clip-rule="evenodd" d="M4.78842 6.76283C4.89051 6.45657 5.17711 6.25 5.49993 6.25H10.9999C11.4141 6.25 11.7499 6.58579 11.7499 7V19C11.7499 19.4142 11.4141 19.75 10.9999 19.75H5.99993C5.58572 19.75 5.24993 19.4142 5.24993 19V13.1771L5.24333 13.1638C4.24887 11.1749 4.08523 8.8724 4.78842 6.76283ZM6.06232 7.75C5.6669 9.33699 5.84835 11.0198 6.58497 12.493L6.67076 12.6646C6.72283 12.7687 6.74993 12.8836 6.74993 13V18.25H10.2499V7.75H6.06232Z" fill="#333333"/>
<path d="M11 7V19H22V5H18L17.4 5.8C16.8334 6.55542 15.9443 7 15 7H11Z" fill="#1E2225"/>
<path fill-rule="evenodd" clip-rule="evenodd" d="M17.4 4.55C17.5416 4.36115 17.7639 4.25 18 4.25H22C22.4142 4.25 22.75 4.58579 22.75 5V19C22.75 19.4142 22.4142 19.75 22 19.75H11C10.5858 19.75 10.25 19.4142 10.25 19V7C10.25 6.58579 10.5858 6.25 11 6.25H15C15.7082 6.25 16.3751 5.91656 16.8 5.35L17.4 4.55ZM18.375 5.75L18 6.25C17.2918 7.19427 16.1803 7.75 15 7.75H11.75V18.25H21.25V5.75H18.375Z" fill="#333333"/>
<path d="M18 5H22V11H18V5Z" fill="white"/>
<path fill-rule="evenodd" clip-rule="evenodd" d="M17.25 5C17.25 4.58579 17.5858 4.25 18 4.25H22C22.4142 4.25 22.75 4.58579 22.75 5V11C22.75 11.4142 22.4142 11.75 22 11.75H18C17.5858 11.75 17.25 11.4142 17.25 11V5ZM18.75 5.75V10.25H21.25V5.75H18.75Z" fill="#333333"/>
<path d="M11 9.5C11 10.8807 9.88071 12 8.5 12C7.11929 12 6 10.8807 6 9.5C6 8.11929 7.11929 7 8.5 7C9.88071 7 11 8.11929 11 9.5Z" fill="#1E2225"/>
<path d="M10 9.5C10 10.3284 9.32843 11 8.5 11C7.67157 11 7 10.3284 7 9.5C7 8.67157 7.67157 8 8.5 8C9.32843 8 10 8.67157 10 9.5Z" fill="#5F5F5F"/>
<path fill-rule="evenodd" clip-rule="evenodd" d="M8.5 8.25C7.80964 8.25 7.25 8.80964 7.25 9.5C7.25 10.1904 7.80964 10.75 8.5 10.75C9.19036 10.75 9.75 10.1904 9.75 9.5C9.75 8.80964 9.19036 8.25 8.5 8.25ZM6.75 9.5C6.75 8.5335 7.5335 7.75 8.5 7.75C9.4665 7.75 10.25 8.5335 10.25 9.5C10.25 10.4665 9.4665 11.25 8.5 11.25C7.5335 11.25 6.75 10.4665 6.75 9.5Z" fill="#DDDDDD"/>
<path d="M20.25 9.75C20.25 9.88807 20.1381 10 20 10C19.8619 10 19.75 9.88807 19.75 9.75C19.75 9.61193 19.8619 9.5 20 9.5C20.1381 9.5 20.25 9.61193 20.25 9.75Z" fill="#333333"/>
<path fill-rule="evenodd" clip-rule="evenodd" d="M22.5 9.25H18V8.75H22.5V9.25Z" fill="#333333"/>
<path fill-rule="evenodd" clip-rule="evenodd" d="M20.0767 6.82322C20.1743 6.92085 20.1743 7.07915 20.0767 7.17678L19.5767 7.67678C19.479 7.77441 19.3208 7.77441 19.2231 7.67678C19.1255 7.57915 19.1255 7.42085 19.2231 7.32322L19.7231 6.82322C19.8208 6.72559 19.979 6.72559 20.0767 6.82322Z" fill="#333333"/>
<path fill-rule="evenodd" clip-rule="evenodd" d="M20.8267 7.07322C20.9243 7.17085 20.9243 7.32915 20.8267 7.42678L20.5767 7.67678C20.479 7.77441 20.3208 7.77441 20.2231 7.67678C20.1255 7.57915 20.1255 7.42085 20.2231 7.32322L20.4731 7.07322C20.5708 6.97559 20.729 6.97559 20.8267 7.07322Z" fill="#333333"/>
</svg>
