<svg width="24" height="24" viewBox="0 0 24 24" fill="none" xmlns="http://www.w3.org/2000/svg">
<path fill-rule="evenodd" clip-rule="evenodd" d="M7.75 20.5V22C7.75 22.4142 7.41421 22.75 7 22.75C6.58579 22.75 6.25 22.4142 6.25 22V20.5H7.75Z" fill="#333333"/>
<path fill-rule="evenodd" clip-rule="evenodd" d="M17.75 20.5V22C17.75 22.4142 17.4142 22.75 17 22.75C16.5858 22.75 16.25 22.4142 16.25 22V20.5H17.75Z" fill="#333333"/>
<path d="M6 4.5V20.5H18V4.5H6Z" fill="white"/>
<path fill-rule="evenodd" clip-rule="evenodd" d="M5.25 4.5C5.25 4.08579 5.58579 3.75 6 3.75H18C18.4142 3.75 18.75 4.08579 18.75 4.5V20.5C18.75 20.9142 18.4142 21.25 18 21.25H6C5.58579 21.25 5.25 20.9142 5.25 20.5V4.5ZM6.75 5.25V19.75H17.25V5.25H6.75Z" fill="#333333"/>
<path d="M6 3.5V7.5H10V3.5H6Z" fill="#4B4B4B"/>
<path fill-rule="evenodd" clip-rule="evenodd" d="M5.25 3.5C5.25 3.08579 5.58579 2.75 6 2.75H10C10.4142 2.75 10.75 3.08579 10.75 3.5V7.5C10.75 7.91421 10.4142 8.25 10 8.25H6C5.58579 8.25 5.25 7.91421 5.25 7.5V3.5ZM6.75 4.25V6.75H9.25V4.25H6.75Z" fill="#333333"/>
<path d="M10 2.5V7.5H14V2.5H10Z" fill="#5D5D5D"/>
<path fill-rule="evenodd" clip-rule="evenodd" d="M9.25 2.5C9.25 2.08579 9.58579 1.75 10 1.75H14C14.4142 1.75 14.75 2.08579 14.75 2.5V7.5C14.75 7.91421 14.4142 8.25 14 8.25H10C9.58579 8.25 9.25 7.91421 9.25 7.5V2.5ZM10.75 3.25V6.75H13.25V3.25H10.75Z" fill="#333333"/>
<path d="M8 10.5V8.5H17.5V12.6758L12.1532 13.9631C12.0633 13.9848 12 14.0651 12 14.1576V20H10.5V12.5C10.5 11.3954 9.60457 10.5 8.5 10.5H8Z" fill="#E1BCB3"/>
<path fill-rule="evenodd" clip-rule="evenodd" d="M7.75 8.25H17.75V12.8727L12.25 14.197V20.25H10.25V12.5C10.25 11.5335 9.4665 10.75 8.5 10.75H7.75V8.25ZM8.25 8.75V10.25H8.5C9.74264 10.25 10.75 11.2574 10.75 12.5V19.75H11.75V14.1576C11.75 13.9496 11.8925 13.7687 12.0947 13.7201L17.25 12.4788V8.75H8.25Z" fill="#333333"/>
<path d="M6 10.5V7.5H18V11.5L11.7905 12.8306C11.3294 12.9294 11 13.3369 11 13.8084V19.25H9V19V18.5V11.8471C9 11.3583 8.64659 10.9411 8.1644 10.8607L6 10.5Z" fill="#434343"/>
<path fill-rule="evenodd" clip-rule="evenodd" d="M5.5 7H18.5V11.9042L11.8952 13.3195C11.6647 13.3689 11.5 13.5726 11.5 13.8084V19.75H8.5V11.8471C8.5 11.6027 8.32329 11.3941 8.0822 11.3539L5.5 10.9236V7ZM6.5 8V10.0764L8.2466 10.3675C8.96988 10.4881 9.5 11.1139 9.5 11.8471V18.75H10.5V13.8084C10.5 13.1011 10.9941 12.4899 11.6857 12.3417L17.5 11.0958V8H6.5Z" fill="#333333"/>
<path d="M14 2.5V9.5H18V2.5H14Z" fill="#3E3E3E"/>
<path fill-rule="evenodd" clip-rule="evenodd" d="M13.25 2.5C13.25 2.08579 13.5858 1.75 14 1.75H18C18.4142 1.75 18.75 2.08579 18.75 2.5V9.5C18.75 9.91421 18.4142 10.25 18 10.25H14C13.5858 10.25 13.25 9.91421 13.25 9.5V2.5ZM14.75 3.25V8.75H17.25V3.25H14.75Z" fill="#333333"/>
<path d="M12.5 4C12.5 4.27614 12.2761 4.5 12 4.5C11.7239 4.5 11.5 4.27614 11.5 4C11.5 3.72386 11.7239 3.5 12 3.5C12.2761 3.5 12.5 3.72386 12.5 4Z" fill="#414141"/>
<path fill-rule="evenodd" clip-rule="evenodd" d="M16.95 4C16.95 3.97238 16.9723 3.95 17 3.95H17.5C17.5276 3.95 17.55 3.97238 17.55 4C17.55 4.02761 17.5276 4.05 17.5 4.05H17C16.9723 4.05 16.95 4.02761 16.95 4Z" fill="#0E9346"/>
<path fill-rule="evenodd" clip-rule="evenodd" d="M16.95 4.25C16.95 4.22238 16.9723 4.2 17 4.2H17.5C17.5276 4.2 17.55 4.22238 17.55 4.25C17.55 4.27761 17.5276 4.3 17.5 4.3H17C16.9723 4.3 16.95 4.27761 16.95 4.25Z" fill="#0E9346"/>
<path fill-rule="evenodd" clip-rule="evenodd" d="M16.95 5.25C16.95 5.22238 16.9723 5.2 17 5.2H17.5C17.5276 5.2 17.55 5.22238 17.55 5.25C17.55 5.27761 17.5276 5.3 17.5 5.3H17C16.9723 5.3 16.95 5.27761 16.95 5.25Z" fill="#616161"/>
<path fill-rule="evenodd" clip-rule="evenodd" d="M16.95 4.75C16.95 4.72238 16.9723 4.7 17 4.7H17.5C17.5276 4.7 17.55 4.72238 17.55 4.75C17.55 4.77761 17.5276 4.8 17.5 4.8H17C16.9723 4.8 16.95 4.77761 16.95 4.75Z" fill="#0E9346"/>
<path fill-rule="evenodd" clip-rule="evenodd" d="M16.95 4.5C16.95 4.47238 16.9723 4.45 17 4.45H17.5C17.5276 4.45 17.55 4.47238 17.55 4.5C17.55 4.52761 17.5276 4.55 17.5 4.55H17C16.9723 4.55 16.95 4.52761 16.95 4.5Z" fill="#0E9346"/>
<path fill-rule="evenodd" clip-rule="evenodd" d="M16.95 5C16.95 4.97238 16.9723 4.95 17 4.95H17.5C17.5276 4.95 17.55 4.97238 17.55 5C17.55 5.02761 17.5276 5.05 17.5 5.05H17C16.9723 5.05 16.95 5.02761 16.95 5Z" fill="#0E9346"/>
<path fill-rule="evenodd" clip-rule="evenodd" d="M16.25 4C16.25 3.97238 16.2724 3.95 16.3 3.95H16.8C16.8276 3.95 16.85 3.97238 16.85 4C16.85 4.02761 16.8276 4.05 16.8 4.05H16.3C16.2724 4.05 16.25 4.02761 16.25 4Z" fill="#616161"/>
<path fill-rule="evenodd" clip-rule="evenodd" d="M16.25 4.25C16.25 4.22238 16.2724 4.2 16.3 4.2H16.8C16.8276 4.2 16.85 4.22238 16.85 4.25C16.85 4.27761 16.8276 4.3 16.8 4.3H16.3C16.2724 4.3 16.25 4.27761 16.25 4.25Z" fill="#616161"/>
<path fill-rule="evenodd" clip-rule="evenodd" d="M16.25 5.25C16.25 5.22238 16.2724 5.2 16.3 5.2H16.8C16.8276 5.2 16.85 5.22238 16.85 5.25C16.85 5.27761 16.8276 5.3 16.8 5.3H16.3C16.2724 5.3 16.25 5.27761 16.25 5.25Z" fill="#616161"/>
<path fill-rule="evenodd" clip-rule="evenodd" d="M16.25 4.75C16.25 4.72238 16.2724 4.7 16.3 4.7H16.8C16.8276 4.7 16.85 4.72238 16.85 4.75C16.85 4.77761 16.8276 4.8 16.8 4.8H16.3C16.2724 4.8 16.25 4.77761 16.25 4.75Z" fill="#616161"/>
<path fill-rule="evenodd" clip-rule="evenodd" d="M16.5 4.5C16.5 4.47238 16.5224 4.45 16.55 4.45H16.8C16.8276 4.45 16.85 4.47238 16.85 4.5C16.85 4.52761 16.8276 4.55 16.8 4.55H16.55C16.5224 4.55 16.5 4.52761 16.5 4.5Z" fill="#616161"/>
<path fill-rule="evenodd" clip-rule="evenodd" d="M16.5 5C16.5 4.97238 16.5224 4.95 16.55 4.95H16.8C16.8276 4.95 16.85 4.97238 16.85 5C16.85 5.02761 16.8276 5.05 16.8 5.05H16.55C16.5224 5.05 16.5 5.02761 16.5 5Z" fill="#616161"/>
</svg>
