<svg width="24" height="24" viewBox="0 0 24 24" fill="none" xmlns="http://www.w3.org/2000/svg">
<path d="M6 10V21H18V10H6Z" fill="#A3A3A3"/>
<path fill-rule="evenodd" clip-rule="evenodd" d="M5.25 10C5.25 9.58579 5.58579 9.25 6 9.25H18C18.4142 9.25 18.75 9.58579 18.75 10V21C18.75 21.4142 18.4142 21.75 18 21.75H6C5.58579 21.75 5.25 21.4142 5.25 21V10ZM6.75 10.75V20.25H17.25V10.75H6.75Z" fill="#333333"/>
<path d="M6 3V10H18V3H6Z" fill="#A3A3A3"/>
<path fill-rule="evenodd" clip-rule="evenodd" d="M5.25 3C5.25 2.58579 5.58579 2.25 6 2.25H18C18.4142 2.25 18.75 2.58579 18.75 3V10C18.75 10.4142 18.4142 10.75 18 10.75H6C5.58579 10.75 5.25 10.4142 5.25 10V3ZM6.75 3.75V9.25H17.25V3.75H6.75Z" fill="#333333"/>
<path d="M9 10V13C9 13.2761 9.22386 13.5 9.5 13.5H14.5C14.7761 13.5 15 13.2761 15 13V10C15 9.72386 14.7761 9.5 14.5 9.5H9.5C9.22386 9.5 9 9.72386 9 10Z" fill="#0D0D0F"/>
<path d="M12.25 12.8999C12.25 13.038 12.1381 13.1499 12 13.1499C11.8619 13.1499 11.75 13.038 11.75 12.8999C11.75 12.7618 11.8619 12.6499 12 12.6499C12.1381 12.6499 12.25 12.7618 12.25 12.8999Z" fill="#333333"/>
<path fill-rule="evenodd" clip-rule="evenodd" d="M15 12.45H9V11.95H15V12.45Z" fill="#333333"/>
<path fill-rule="evenodd" clip-rule="evenodd" d="M12.0767 10.3232C12.1743 10.4209 12.1743 10.5791 12.0767 10.6768L11.5767 11.1768C11.479 11.2744 11.3208 11.2744 11.2231 11.1768C11.1255 11.0791 11.1255 10.9209 11.2231 10.8232L11.7231 10.3232C11.8208 10.2256 11.979 10.2256 12.0767 10.3232Z" fill="#333333"/>
<path fill-rule="evenodd" clip-rule="evenodd" d="M12.8267 10.5732C12.9243 10.6709 12.9243 10.8291 12.8267 10.9268L12.5767 11.1768C12.479 11.2744 12.3208 11.2744 12.2231 11.1768C12.1255 11.0791 12.1255 10.9209 12.2231 10.8232L12.4731 10.5732C12.5708 10.4756 12.729 10.4756 12.8267 10.5732Z" fill="#333333"/>
<path fill-rule="evenodd" clip-rule="evenodd" d="M9.4999 9.6C9.27899 9.6 9.0999 9.77909 9.0999 10V13C9.0999 13.2209 9.27899 13.4 9.4999 13.4H14.4999C14.7208 13.4 14.8999 13.2209 14.8999 13V10C14.8999 9.77909 14.7208 9.6 14.4999 9.6H9.4999ZM8.8999 10C8.8999 9.66863 9.16853 9.4 9.4999 9.4H14.4999C14.8313 9.4 15.0999 9.66863 15.0999 10V13C15.0999 13.3314 14.8313 13.6 14.4999 13.6H9.4999C9.16853 13.6 8.8999 13.3314 8.8999 13V10Z" fill="#DFDEE0"/>
<path d="M11.05 14.5875V16.3C11.05 16.4105 10.9605 16.5 10.85 16.5H9.45C9.33954 16.5 9.25 16.4105 9.25 16.3V14.5875C9.25 14.5228 9.2813 14.4621 9.33402 14.4246L9.74799 14.1299C9.77435 14.1111 9.79 14.0808 9.79 14.0484V13.6C9.79 13.5448 9.83477 13.5 9.89 13.5H10.41C10.4652 13.5 10.51 13.5448 10.51 13.6V14.0484C10.51 14.0808 10.5257 14.1111 10.552 14.1299L10.966 14.4246C11.0187 14.4621 11.05 14.5228 11.05 14.5875Z" fill="white"/>
<path d="M13.05 14.4234V15.8C13.05 15.9105 12.9605 16 12.85 16H11.75C11.6396 16 11.55 15.9105 11.55 15.8V14.4234C11.55 14.3587 11.5814 14.298 11.6341 14.2605L11.958 14.0299C11.9844 14.0111 12 13.9808 12 13.9484V13.6C12 13.5448 12.0448 13.5 12.1 13.5H12.5001C12.5553 13.5 12.6001 13.5448 12.6001 13.6V13.9484C12.6001 13.9808 12.6157 14.0111 12.6421 14.0299L12.966 14.2605C13.0187 14.298 13.05 14.3587 13.05 14.4234Z" fill="white"/>
<path d="M14.75 14.2594V15.3C14.75 15.4105 14.6605 15.5 14.55 15.5H13.75C13.6396 15.5 13.55 15.4105 13.55 15.3V14.2594C13.55 14.1947 13.5814 14.134 13.6341 14.0964L13.868 13.9299C13.8944 13.9111 13.91 13.8808 13.91 13.8484V13.6C13.91 13.5448 13.9548 13.5 14.01 13.5H14.2901C14.3453 13.5 14.3901 13.5448 14.3901 13.6V13.8484C14.3901 13.8808 14.4057 13.9111 14.4321 13.9299L14.666 14.0964C14.7187 14.134 14.75 14.1947 14.75 14.2594Z" fill="white"/>
</svg>
