<svg width="24" height="24" viewBox="0 0 24 24" fill="none" xmlns="http://www.w3.org/2000/svg">
<path d="M3 4V9H21V4H3Z" fill="#404556"/>
<path fill-rule="evenodd" clip-rule="evenodd" d="M2.25 4C2.25 3.58579 2.58579 3.25 3 3.25H21C21.4142 3.25 21.75 3.58579 21.75 4V9C21.75 9.41421 21.4142 9.75 21 9.75H3C2.58579 9.75 2.25 9.41421 2.25 9V4ZM3.75 4.75V8.25H20.25V4.75H3.75Z" fill="#333333"/>
<path d="M3 9V20H21V9H3Z" fill="#404556"/>
<path fill-rule="evenodd" clip-rule="evenodd" d="M2.25 9C2.25 8.58579 2.58579 8.25 3 8.25H21C21.4142 8.25 21.75 8.58579 21.75 9V20C21.75 20.4142 21.4142 20.75 21 20.75H3C2.58579 20.75 2.25 20.4142 2.25 20V9ZM3.75 9.75V19.25H20.25V9.75H3.75Z" fill="#333333"/>
<path d="M7 6.5C7 7.05228 6.55228 7.5 6 7.5C5.44772 7.5 5 7.05228 5 6.5C5 5.94772 5.44772 5.5 6 5.5C6.55228 5.5 7 5.94772 7 6.5Z" fill="#303031"/>
<path fill-rule="evenodd" clip-rule="evenodd" d="M5.99995 5.55C5.47528 5.55 5.04995 5.97533 5.04995 6.5C5.04995 7.02467 5.47528 7.45 5.99995 7.45C6.52462 7.45 6.94995 7.02467 6.94995 6.5C6.94995 5.97533 6.52462 5.55 5.99995 5.55ZM4.94995 6.5C4.94995 5.9201 5.42005 5.45 5.99995 5.45C6.57985 5.45 7.04995 5.9201 7.04995 6.5C7.04995 7.0799 6.57985 7.55 5.99995 7.55C5.42005 7.55 4.94995 7.0799 4.94995 6.5Z" fill="#0C0910"/>
<path d="M8.5 6.5C8.5 6.63807 8.38807 6.75 8.25 6.75C8.11193 6.75 8 6.63807 8 6.5C8 6.36193 8.11193 6.25 8.25 6.25C8.38807 6.25 8.5 6.36193 8.5 6.5Z" fill="#5BA651"/>
<path fill-rule="evenodd" clip-rule="evenodd" d="M8.24995 6.3C8.13949 6.3 8.04995 6.38954 8.04995 6.5C8.04995 6.61045 8.13949 6.7 8.24995 6.7C8.36041 6.7 8.44995 6.61045 8.44995 6.5C8.44995 6.38954 8.36041 6.3 8.24995 6.3ZM7.94995 6.5C7.94995 6.33431 8.08427 6.2 8.24995 6.2C8.41564 6.2 8.54995 6.33431 8.54995 6.5C8.54995 6.66568 8.41564 6.8 8.24995 6.8C8.08427 6.8 7.94995 6.66568 7.94995 6.5Z" fill="#454E62"/>
<path d="M9.5 6.5C9.5 6.63807 9.38807 6.75 9.25 6.75C9.11193 6.75 9 6.63807 9 6.5C9 6.36193 9.11193 6.25 9.25 6.25C9.38807 6.25 9.5 6.36193 9.5 6.5Z" fill="#5BA651"/>
<path fill-rule="evenodd" clip-rule="evenodd" d="M9.24995 6.3C9.13949 6.3 9.04995 6.38954 9.04995 6.5C9.04995 6.61045 9.13949 6.7 9.24995 6.7C9.36041 6.7 9.44995 6.61045 9.44995 6.5C9.44995 6.38954 9.36041 6.3 9.24995 6.3ZM8.94995 6.5C8.94995 6.33431 9.08427 6.2 9.24995 6.2C9.41564 6.2 9.54995 6.33431 9.54995 6.5C9.54995 6.66568 9.41564 6.8 9.24995 6.8C9.08427 6.8 8.94995 6.66568 8.94995 6.5Z" fill="#454E62"/>
<path fill-rule="evenodd" clip-rule="evenodd" d="M5.99995 5.8499C6.02757 5.8499 6.04995 5.87229 6.04995 5.8999V6.3999C6.04995 6.42751 6.02757 6.4499 5.99995 6.4499C5.97234 6.4499 5.94995 6.42751 5.94995 6.3999V5.8999C5.94995 5.87229 5.97234 5.8499 5.99995 5.8499Z" fill="white"/>
<path fill-rule="evenodd" clip-rule="evenodd" d="M5.75528 6.06075C5.77107 6.0834 5.76552 6.11457 5.74287 6.13037C5.62615 6.21177 5.54995 6.34687 5.54995 6.49976C5.54995 6.74828 5.75142 6.94976 5.99995 6.94976C6.24848 6.94976 6.44995 6.74828 6.44995 6.49976C6.44995 6.34687 6.37375 6.21177 6.25704 6.13037C6.23439 6.11457 6.22883 6.0834 6.24463 6.06075C6.26042 6.0381 6.29159 6.03255 6.31424 6.04835C6.45662 6.14765 6.54995 6.3128 6.54995 6.49976C6.54995 6.80351 6.30371 7.04976 5.99995 7.04976C5.69619 7.04976 5.44995 6.80351 5.44995 6.49976C5.44995 6.3128 5.54328 6.14765 5.68566 6.04835C5.70831 6.03255 5.73948 6.0381 5.75528 6.06075Z" fill="white"/>
<path d="M4 11H8V12H4V11Z" fill="#050407"/>
<path d="M8 11H12V12H8V11Z" fill="#C6CBD3"/>
<path d="M4 13H8V14H4V13Z" fill="#050407"/>
<path d="M8 13H12V14H8V13Z" fill="#C6CBD3"/>
<path d="M4 15H8V16H4V15Z" fill="#050407"/>
<path d="M8 15H12V16H8V15Z" fill="#C6CBD3"/>
<path d="M4 17H8V18H4V17Z" fill="#050407"/>
<path d="M8 17H12V18H8V17Z" fill="#C6CBD3"/>
<path d="M14 11H17V18H14V11Z" fill="#F0F0F0"/>
<path d="M17 11H20V18H17V11Z" fill="#CBD1D7"/>
</svg>
