<svg width="24" height="24" viewBox="0 0 24 24" fill="none" xmlns="http://www.w3.org/2000/svg">
<path d="M5 7V22H10V7H5Z" fill="#1E2225"/>
<path fill-rule="evenodd" clip-rule="evenodd" d="M4.25 7C4.25 6.58579 4.58579 6.25 5 6.25H10C10.4142 6.25 10.75 6.58579 10.75 7V22C10.75 22.4142 10.4142 22.75 10 22.75H5C4.58579 22.75 4.25 22.4142 4.25 22V7ZM5.75 7.75V21.25H9.25V7.75H5.75Z" fill="#333333"/>
<path d="M10 19V22H19V19H10Z" fill="#505050"/>
<path fill-rule="evenodd" clip-rule="evenodd" d="M9.25 19C9.25 18.5858 9.58579 18.25 10 18.25H19C19.4142 18.25 19.75 18.5858 19.75 19V22C19.75 22.4142 19.4142 22.75 19 22.75H10C9.58579 22.75 9.25 22.4142 9.25 22V19ZM10.75 19.75V21.25H18.25V19.75H10.75Z" fill="#333333"/>
<path d="M10 13V19H19V13H10Z" fill="#1E2225"/>
<path fill-rule="evenodd" clip-rule="evenodd" d="M9.25 13C9.25 12.5858 9.58579 12.25 10 12.25H19C19.4142 12.25 19.75 12.5858 19.75 13V19C19.75 19.4142 19.4142 19.75 19 19.75H10C9.58579 19.75 9.25 19.4142 9.25 19V13ZM10.75 13.75V18.25H18.25V13.75H10.75Z" fill="#333333"/>
<path d="M10 7V13H19V7H10Z" fill="#1E2225"/>
<path fill-rule="evenodd" clip-rule="evenodd" d="M9.25 7C9.25 6.58579 9.58579 6.25 10 6.25H19C19.4142 6.25 19.75 6.58579 19.75 7V13C19.75 13.4142 19.4142 13.75 19 13.75H10C9.58579 13.75 9.25 13.4142 9.25 13V7ZM10.75 7.75V12.25H18.25V7.75H10.75Z" fill="#333333"/>
<path fill-rule="evenodd" clip-rule="evenodd" d="M11.75 8.5C11.75 8.36193 11.8619 8.25 12 8.25H17C17.1381 8.25 17.25 8.36193 17.25 8.5V13C17.25 13.1381 17.1381 13.25 17 13.25H12C11.8619 13.25 11.75 13.1381 11.75 13V8.5ZM12.25 8.75V12.75H16.75V8.75H12.25Z" fill="#333333"/>
<path d="M10 2V7H19V2H10Z" fill="#1E2225"/>
<path fill-rule="evenodd" clip-rule="evenodd" d="M10.3661 4.70191C10.39 4.6881 10.4206 4.6963 10.4344 4.72021L11.815 7.11145C11.8288 7.13536 11.8206 7.16594 11.7966 7.17975C11.7727 7.19356 11.7422 7.18536 11.7283 7.16145L10.3478 4.77021C10.334 4.7463 10.3422 4.71572 10.3661 4.70191Z" fill="#9F9F9F"/>
<path fill-rule="evenodd" clip-rule="evenodd" d="M10.2425 2.64739C10.2664 2.63358 10.297 2.64178 10.3108 2.66569L13.072 7.44817C13.0858 7.47208 13.0776 7.50266 13.0537 7.51647C13.0298 7.53027 12.9992 7.52208 12.9854 7.49817L10.2242 2.71569C10.2104 2.69178 10.2186 2.6612 10.2425 2.64739Z" fill="#9F9F9F"/>
<path fill-rule="evenodd" clip-rule="evenodd" d="M10.8097 1.78889C10.8336 1.77508 10.8642 1.78327 10.878 1.80719L13.7542 6.78893C13.768 6.81285 13.7598 6.84342 13.7359 6.85723C13.712 6.87104 13.6814 6.86285 13.6676 6.83893L10.7914 1.85719C10.7776 1.83327 10.7858 1.80269 10.8097 1.78889Z" fill="#9F9F9F"/>
<path fill-rule="evenodd" clip-rule="evenodd" d="M12.067 2.12574C12.0909 2.11193 12.1215 2.12013 12.1353 2.14404L15.0115 7.12578C15.0253 7.1497 15.0171 7.18028 14.9932 7.19409C14.9693 7.20789 14.9387 7.1997 14.9249 7.17578L12.0487 2.19404C12.0349 2.17013 12.0431 2.13955 12.067 2.12574Z" fill="#9F9F9F"/>
<path fill-rule="evenodd" clip-rule="evenodd" d="M13.3241 2.46249C13.348 2.44868 13.3786 2.45687 13.3924 2.48079L15.6933 6.46618C15.7072 6.4901 15.699 6.52068 15.675 6.53448C15.6511 6.54829 15.6206 6.5401 15.6067 6.51618L13.3058 2.53079C13.292 2.50687 13.3002 2.47629 13.3241 2.46249Z" fill="#9F9F9F"/>
<path fill-rule="evenodd" clip-rule="evenodd" d="M14.0062 1.80299C14.0301 1.78918 14.0607 1.79737 14.0745 1.82129L16.9507 6.80303C16.9645 6.82694 16.9563 6.85752 16.9324 6.87133C16.9085 6.88514 16.8779 6.87694 16.8641 6.85303L13.9879 1.87129C13.9741 1.84737 13.9823 1.81679 14.0062 1.80299Z" fill="#9F9F9F"/>
<path fill-rule="evenodd" clip-rule="evenodd" d="M15.2633 2.13982C15.2872 2.12602 15.3178 2.13421 15.3316 2.15812L18.2078 7.13987C18.2216 7.16378 18.2134 7.19436 18.1895 7.20817C18.1656 7.22198 18.135 7.21378 18.1212 7.18987L15.245 2.20812C15.2312 2.18421 15.2394 2.15363 15.2633 2.13982Z" fill="#9F9F9F"/>
<path fill-rule="evenodd" clip-rule="evenodd" d="M15.9454 1.48064C15.9693 1.46684 15.9999 1.47503 16.0137 1.49894L18.7749 6.28142C18.7887 6.30533 18.7805 6.33591 18.7566 6.34972C18.7327 6.36353 18.7021 6.35533 18.6883 6.33142L15.9271 1.54894C15.9133 1.52503 15.9215 1.49445 15.9454 1.48064Z" fill="#9F9F9F"/>
<path fill-rule="evenodd" clip-rule="evenodd" d="M17.2027 1.81748C17.2267 1.80367 17.2572 1.81187 17.271 1.83578L18.6516 4.22702C18.6654 4.25093 18.6572 4.28151 18.6333 4.29532C18.6094 4.30913 18.5788 4.30093 18.565 4.27702L17.1844 1.88578C17.1706 1.86187 17.1788 1.83129 17.2027 1.81748Z" fill="#9F9F9F"/>
<path fill-rule="evenodd" clip-rule="evenodd" d="M9.67564 5.49346C9.69955 5.50727 9.73013 5.49908 9.74394 5.47516L11.8148 1.88831C11.8286 1.86439 11.8204 1.83381 11.7965 1.82C11.7726 1.8062 11.742 1.81439 11.7282 1.83831L9.65734 5.42516C9.64353 5.44908 9.65172 5.47966 9.67564 5.49346Z" fill="#9F9F9F"/>
<path fill-rule="evenodd" clip-rule="evenodd" d="M10.2428 6.35236C10.2667 6.36617 10.2973 6.35798 10.3111 6.33406L12.612 2.34867C12.6259 2.32475 12.6177 2.29417 12.5937 2.28037C12.5698 2.26656 12.5393 2.27475 12.5254 2.29867L10.2245 6.28406C10.2107 6.30798 10.2189 6.33856 10.2428 6.35236Z" fill="#9F9F9F"/>
<path fill-rule="evenodd" clip-rule="evenodd" d="M10.8097 7.21087C10.8336 7.22468 10.8642 7.21648 10.878 7.19257L13.7542 2.21083C13.768 2.18691 13.7598 2.15633 13.7359 2.14252C13.712 2.12872 13.6814 2.13691 13.6676 2.16083L10.7914 7.14257C10.7776 7.16648 10.7858 7.19706 10.8097 7.21087Z" fill="#9F9F9F"/>
<path fill-rule="evenodd" clip-rule="evenodd" d="M12.067 6.87402C12.0909 6.88782 12.1215 6.87963 12.1353 6.85572L15.0115 1.87397C15.0253 1.85006 15.0171 1.81948 14.9932 1.80567C14.9693 1.79186 14.9387 1.80006 14.9249 1.82397L12.0487 6.80572C12.0349 6.82963 12.0431 6.86021 12.067 6.87402Z" fill="#9F9F9F"/>
<path fill-rule="evenodd" clip-rule="evenodd" d="M13.3243 6.53727C13.3482 6.55108 13.3788 6.54288 13.3926 6.51897L15.6936 2.53357C15.7074 2.50966 15.6992 2.47908 15.6753 2.46527C15.6514 2.45147 15.6208 2.45966 15.607 2.48357L13.306 6.46897C13.2922 6.49288 13.3004 6.52346 13.3243 6.53727Z" fill="#9F9F9F"/>
<path fill-rule="evenodd" clip-rule="evenodd" d="M14.0062 7.19677C14.0301 7.21058 14.0607 7.20238 14.0745 7.17847L16.9507 2.19673C16.9645 2.17281 16.9563 2.14223 16.9324 2.12842C16.9085 2.11462 16.8779 2.12281 16.8641 2.14673L13.9879 7.12847C13.9741 7.15238 13.9823 7.18296 14.0062 7.19677Z" fill="#9F9F9F"/>
<path fill-rule="evenodd" clip-rule="evenodd" d="M15.2633 6.85993C15.2872 6.87374 15.3178 6.86555 15.3316 6.84163L18.2078 1.85989C18.2216 1.83597 18.2134 1.80539 18.1895 1.79159C18.1656 1.77778 18.135 1.78597 18.1212 1.80989L15.245 6.79163C15.2312 6.81555 15.2394 6.84613 15.2633 6.85993Z" fill="#9F9F9F"/>
<path fill-rule="evenodd" clip-rule="evenodd" d="M15.9454 7.51911C15.9693 7.53292 15.9999 7.52473 16.0137 7.50081L18.7749 2.71834C18.7887 2.69442 18.7805 2.66384 18.7566 2.65004C18.7327 2.63623 18.7021 2.64442 18.6883 2.66834L15.9271 7.45081C15.9133 7.47473 15.9215 7.50531 15.9454 7.51911Z" fill="#9F9F9F"/>
<path fill-rule="evenodd" clip-rule="evenodd" d="M17.2027 7.18227C17.2267 7.19608 17.2572 7.18789 17.271 7.16397L18.6516 4.77274C18.6654 4.74882 18.6572 4.71824 18.6333 4.70444C18.6094 4.69063 18.5788 4.69882 18.565 4.72274L17.1844 7.11397C17.1706 7.13789 17.1788 7.16847 17.2027 7.18227Z" fill="#9F9F9F"/>
<path fill-rule="evenodd" clip-rule="evenodd" d="M17.2027 7.18227C17.2267 7.19608 17.2572 7.18789 17.271 7.16397L18.6516 4.77274C18.6654 4.74882 18.6572 4.71824 18.6333 4.70444C18.6094 4.69063 18.5788 4.69882 18.565 4.72274L17.1844 7.11397C17.1706 7.13789 17.1788 7.16847 17.2027 7.18227Z" fill="#9F9F9F"/>
<path fill-rule="evenodd" clip-rule="evenodd" d="M9.25 2C9.25 1.58579 9.58579 1.25 10 1.25H19C19.4142 1.25 19.75 1.58579 19.75 2V7C19.75 7.41421 19.4142 7.75 19 7.75H10C9.58579 7.75 9.25 7.41421 9.25 7V2ZM10.75 2.75V6.25H18.25V2.75H10.75Z" fill="#333333"/>
<path fill-rule="evenodd" clip-rule="evenodd" d="M11.8999 15C11.8999 14.9448 11.9447 14.9 11.9999 14.9H16.9999C17.0551 14.9 17.0999 14.9448 17.0999 15C17.0999 15.0552 17.0551 15.1 16.9999 15.1H11.9999C11.9447 15.1 11.8999 15.0552 11.8999 15Z" fill="#80F4FE"/>
<path fill-rule="evenodd" clip-rule="evenodd" d="M14.3999 9.49999C14.3999 9.44477 14.4447 9.39999 14.4999 9.39999H15.9999C16.0551 9.39999 16.0999 9.44477 16.0999 9.49999C16.0999 9.55522 16.0551 9.59999 15.9999 9.59999H14.4999C14.4447 9.59999 14.3999 9.55522 14.3999 9.49999Z" fill="#80F4FE"/>
</svg>
