<svg width="24" height="24" viewBox="0 0 24 24" fill="none" xmlns="http://www.w3.org/2000/svg">
<path d="M6 18V22H12V18H6Z" fill="#7497BF"/>
<path fill-rule="evenodd" clip-rule="evenodd" d="M5.25 18C5.25 17.5858 5.58579 17.25 6 17.25H12C12.4142 17.25 12.75 17.5858 12.75 18V22C12.75 22.4142 12.4142 22.75 12 22.75H6C5.58579 22.75 5.25 22.4142 5.25 22V18ZM6.75 18.75V21.25H11.25V18.75H6.75Z" fill="#333333"/>
<path d="M6 11V18H12V11H6Z" fill="#7497BF"/>
<path fill-rule="evenodd" clip-rule="evenodd" d="M5.25 11C5.25 10.5858 5.58579 10.25 6 10.25H12C12.4142 10.25 12.75 10.5858 12.75 11V18C12.75 18.4142 12.4142 18.75 12 18.75H6C5.58579 18.75 5.25 18.4142 5.25 18V11ZM6.75 11.75V17.25H11.25V11.75H6.75Z" fill="#333333"/>
<path d="M12 11V18H18V11H12Z" fill="#B5B7B7"/>
<path fill-rule="evenodd" clip-rule="evenodd" d="M11.25 11C11.25 10.5858 11.5858 10.25 12 10.25H18C18.4142 10.25 18.75 10.5858 18.75 11V18C18.75 18.4142 18.4142 18.75 18 18.75H12C11.5858 18.75 11.25 18.4142 11.25 18V11ZM12.75 11.75V17.25H17.25V11.75H12.75Z" fill="#333333"/>
<path d="M14.5 12.95V14.55C14.5 14.6605 14.5895 14.75 14.7 14.75H15.3C15.4105 14.75 15.5 14.6605 15.5 14.55V12.95C15.5 12.8395 15.4105 12.75 15.3 12.75H14.7C14.5895 12.75 14.5 12.8395 14.5 12.95Z" fill="#111115"/>
<path d="M16.3 14.5L14.7 14.5C14.5895 14.5 14.5 14.5895 14.5 14.7L14.5 15.3C14.5 15.4105 14.5895 15.5 14.7 15.5L16.3 15.5C16.4105 15.5 16.5 15.4105 16.5 15.3L16.5 14.7C16.5 14.5895 16.4105 14.5 16.3 14.5Z" fill="#111115"/>
<path d="M11 2V11H18V2H11Z" fill="#B5B7B7"/>
<path fill-rule="evenodd" clip-rule="evenodd" d="M10.25 2C10.25 1.58579 10.5858 1.25 11 1.25H18C18.4142 1.25 18.75 1.58579 18.75 2V11C18.75 11.4142 18.4142 11.75 18 11.75H11C10.5858 11.75 10.25 11.4142 10.25 11V2ZM11.75 2.75V10.25H17.25V2.75H11.75Z" fill="#333333"/>
<path d="M14 14.2V15.8C14 15.9105 14.0895 16 14.2 16H15.8C15.9105 16 16 15.9105 16 15.8V14.2C16 14.0895 15.9105 14 15.8 14H14.2C14.0895 14 14 14.0895 14 14.2Z" fill="#717577"/>
<path d="M9 15.6V15.9C9 15.9552 9.04477 16 9.1 16H10.9C10.9552 16 11 15.9552 11 15.9V15.6C11 15.5448 10.9552 15.5 10.9 15.5H9.1C9.04477 15.5 9 15.5448 9 15.6Z" fill="white"/>
<path d="M9.9 12.3001H8.1C8.04477 12.3001 8 12.2553 8 12.2001C8 12.1449 8.04477 12.1001 8.1 12.1001H9.9C9.95523 12.1001 10 12.1449 10 12.2001C10 12.2553 9.95523 12.3001 9.9 12.3001Z" fill="white"/>
<path d="M14.25 14.8001V15.1501C14.25 15.2606 14.3395 15.3501 14.45 15.3501H15.55C15.6605 15.3501 15.75 15.2606 15.75 15.1501V14.8001C15.75 14.6896 15.6605 14.6001 15.55 14.6001H14.45C14.3395 14.6001 14.25 14.6896 14.25 14.8001Z" fill="#B8B8B8"/>
<path d="M6 5V11H11V5H6Z" fill="#7497BF"/>
<path fill-rule="evenodd" clip-rule="evenodd" d="M5.25 5C5.25 4.58579 5.58579 4.25 6 4.25H11C11.4142 4.25 11.75 4.58579 11.75 5V11C11.75 11.4142 11.4142 11.75 11 11.75H6C5.58579 11.75 5.25 11.4142 5.25 11V5ZM6.75 5.75V10.25H10.25V5.75H6.75Z" fill="#333333"/>
<path d="M12 18V22H18V18H12Z" fill="#7497BF"/>
<path fill-rule="evenodd" clip-rule="evenodd" d="M11.25 18C11.25 17.5858 11.5858 17.25 12 17.25H18C18.4142 17.25 18.75 17.5858 18.75 18V22C18.75 22.4142 18.4142 22.75 18 22.75H12C11.5858 22.75 11.25 22.4142 11.25 22V18ZM12.75 18.75V21.25H17.25V18.75H12.75Z" fill="#333333"/>
<path d="M9.6499 16.3008V16.65C9.6499 16.7052 9.60513 16.75 9.5499 16.75H9.2499C9.19467 16.75 9.1499 16.7052 9.1499 16.65V16.3008C9.1499 16.2667 9.16726 16.235 9.19596 16.2166L9.25384 16.1795C9.28254 16.1611 9.2999 16.1294 9.2999 16.0953V16.05C9.2999 16.0224 9.32229 16 9.3499 16H9.4499C9.47752 16 9.4999 16.0224 9.4999 16.05V16.0953C9.4999 16.1294 9.51726 16.1611 9.54596 16.1795L9.60385 16.2166C9.63254 16.235 9.6499 16.2667 9.6499 16.3008Z" fill="white"/>
<path fill-rule="evenodd" clip-rule="evenodd" d="M9.3999 16.5349L9.44072 16.4712ZM9.44072 16.4712L9.4499 16.4569ZM9.4499 16.4569L9.60385 16.2166ZM9.44072 16.4712L9.4499 16.4569Z" fill="#333333"/>
<path d="M10.25 16.3008V16.65C10.25 16.7052 10.2052 16.75 10.15 16.75H9.85C9.79477 16.75 9.75 16.7052 9.75 16.65V16.3008C9.75 16.2667 9.76736 16.235 9.79606 16.2166L9.85394 16.1795C9.88264 16.1611 9.9 16.1294 9.9 16.0953V16.05C9.9 16.0224 9.92239 16 9.95 16H10.05C10.0776 16 10.1 16.0224 10.1 16.05V16.0953C10.1 16.1294 10.1174 16.1611 10.1461 16.1795L10.2039 16.2166C10.2326 16.235 10.25 16.2667 10.25 16.3008Z" fill="white"/>
<path fill-rule="evenodd" clip-rule="evenodd" d="M10 16.5349L10.0408 16.4712ZM10.0408 16.4712L10.05 16.4569ZM10.05 16.4569L10.2039 16.2166ZM10.0408 16.4712L10.05 16.4569Z" fill="#333333"/>
<path d="M10.8501 16.3008V16.65C10.8501 16.7052 10.8053 16.75 10.7501 16.75H10.4501C10.3949 16.75 10.3501 16.7052 10.3501 16.65V16.3008C10.3501 16.2667 10.3675 16.235 10.3962 16.2166L10.454 16.1795C10.4827 16.1611 10.5001 16.1294 10.5001 16.0953V16.05C10.5001 16.0224 10.5225 16 10.5501 16H10.6501C10.6777 16 10.7001 16.0224 10.7001 16.05V16.0953C10.7001 16.1294 10.7175 16.1611 10.7462 16.1795L10.804 16.2166C10.8327 16.235 10.8501 16.2667 10.8501 16.3008Z" fill="white"/>
<path fill-rule="evenodd" clip-rule="evenodd" d="M10.6001 16.5349L10.6409 16.4712ZM10.6409 16.4712L10.6501 16.4569ZM10.6501 16.4569L10.804 16.2166ZM10.6409 16.4712L10.6501 16.4569Z" fill="#333333"/>
<path fill-rule="evenodd" clip-rule="evenodd" d="M5.75 13C5.75 12.8619 5.86193 12.75 6 12.75H12C12.1381 12.75 12.25 12.8619 12.25 13C12.25 13.1381 12.1381 13.25 12 13.25H6C5.86193 13.25 5.75 13.1381 5.75 13Z" fill="#333333"/>
</svg>
