<svg width="24" height="24" viewBox="0 0 24 24" fill="none" xmlns="http://www.w3.org/2000/svg">
<path fill-rule="evenodd" clip-rule="evenodd" d="M1.75 5C1.75 4.86193 1.86193 4.75 2 4.75H22C22.1381 4.75 22.25 4.86193 22.25 5C22.25 5.13807 22.1381 5.25 22 5.25H2C1.86193 5.25 1.75 5.13807 1.75 5Z" fill="#333333"/>
<path fill-rule="evenodd" clip-rule="evenodd" d="M1.75 19.5454C1.75 19.4073 1.86193 19.2954 2 19.2954H22C22.1381 19.2954 22.25 19.4073 22.25 19.5454C22.25 19.6835 22.1381 19.7954 22 19.7954H2C1.86193 19.7954 1.75 19.6835 1.75 19.5454Z" fill="#333333"/>
<path fill-rule="evenodd" clip-rule="evenodd" d="M8.4068 5C8.4068 4.86193 8.51873 4.75 8.6568 4.75H15.343C15.4811 4.75 15.593 4.86193 15.593 5V6.36364C15.593 6.50171 15.4811 6.61364 15.343 6.61364H8.6568C8.51873 6.61364 8.4068 6.50171 8.4068 6.36364V5ZM8.9068 5.25V6.11364H15.093V5.25H8.9068Z" fill="#333333"/>
<path fill-rule="evenodd" clip-rule="evenodd" d="M8.42028 6.28272C8.45487 6.18159 8.54993 6.11365 8.65681 6.11365H15.343C15.4499 6.11365 15.545 6.18159 15.5796 6.28272C15.6142 6.38384 15.5807 6.49578 15.4962 6.56125L14.3232 7.47034C14.2793 7.50431 14.2255 7.52274 14.17 7.52274H9.82984C9.77439 7.52274 9.72052 7.50431 9.67669 7.47034L8.50367 6.56125C8.41919 6.49578 8.38568 6.38384 8.42028 6.28272ZM9.38751 6.61365L9.91537 7.02274H14.0845L14.6123 6.61365H9.38751Z" fill="#333333"/>
<path fill-rule="evenodd" clip-rule="evenodd" d="M8.4068 19.5454C8.4068 19.6835 8.51873 19.7954 8.6568 19.7954H15.343C15.4811 19.7954 15.593 19.6835 15.593 19.5454V18.1818C15.593 18.0437 15.4811 17.9318 15.343 17.9318H8.6568C8.51873 17.9318 8.4068 18.0437 8.4068 18.1818V19.5454ZM8.9068 19.2954V18.4318H15.093V19.2954H8.9068Z" fill="#333333"/>
<path fill-rule="evenodd" clip-rule="evenodd" d="M8.42028 18.2627C8.45487 18.3638 8.54993 18.4318 8.65681 18.4318H15.343C15.4499 18.4318 15.545 18.3638 15.5796 18.2627C15.6142 18.1616 15.5807 18.0496 15.4962 17.9842L14.3232 17.0751C14.2793 17.0411 14.2255 17.0227 14.17 17.0227H9.82984C9.77439 17.0227 9.72052 17.0411 9.67669 17.0751L8.50367 17.9842C8.41919 18.0496 8.38568 18.1616 8.42028 18.2627ZM9.38751 17.9318L9.91537 17.5227H14.0845L14.6123 17.9318H9.38751Z" fill="#333333"/>
<path fill-rule="evenodd" clip-rule="evenodd" d="M6.35319 18.3417C6.26495 18.2355 6.27951 18.0778 6.3857 17.9896L6.57253 17.8344C9.75077 15.1935 14.3357 15.1106 17.6073 17.6349C17.7166 17.7192 17.7368 17.8762 17.6525 17.9855C17.5682 18.0949 17.4112 18.1151 17.3019 18.0307C14.2155 15.6494 9.89031 15.7276 6.89208 18.2189L6.70525 18.3742C6.59906 18.4624 6.44143 18.4478 6.35319 18.3417Z" fill="#333333"/>
<path fill-rule="evenodd" clip-rule="evenodd" d="M6.35319 6.20388C6.26495 6.31008 6.27951 6.4677 6.3857 6.55594L6.57253 6.71117C9.75077 9.35206 14.3357 9.43494 17.6073 6.91065C17.7166 6.8263 17.7368 6.66931 17.6525 6.56C17.5682 6.45068 17.4112 6.43044 17.3019 6.51478C14.2155 8.89611 9.89031 8.81792 6.89208 6.32661L6.70525 6.17137C6.59906 6.08313 6.44143 6.09769 6.35319 6.20388Z" fill="#333333"/>
<path fill-rule="evenodd" clip-rule="evenodd" d="M2 9.54541L1.9999 9.29541C1.86183 9.29546 1.74995 9.40744 1.75 9.54551C1.75005 9.68357 1.86201 9.79545 2.00007 9.79541M2.00007 9.79541L2.00386 9.79542L2.01663 9.79548L2.06801 9.79602C2.11336 9.79665 2.18036 9.79792 2.26592 9.80049C2.43709 9.80564 2.68225 9.81599 2.97669 9.83681C3.56655 9.87851 4.34959 9.96189 5.12977 10.128C5.91393 10.2949 6.67525 10.5413 7.23464 10.899C7.79029 11.2543 8.11364 11.6951 8.11364 12.2573C8.11364 12.8278 7.78883 13.274 7.23359 13.6329C6.67429 13.9945 5.91316 14.2438 5.12915 14.4127C4.34911 14.5808 3.5662 14.6654 2.97641 14.7077C2.68201 14.7289 2.43688 14.7394 2.26574 14.7447C2.1802 14.7474 2.11321 14.7487 2.06788 14.7493L2.01652 14.7499L2.00376 14.7499L2.00073 14.75C2.00075 14.75 2.00072 14.75 2.00073 14.75C1.86268 14.75 1.75 14.8619 1.75 15C1.75 15.138 1.86193 15.25 2 15.25V15C2 15.25 1.9999 15.25 2 15.25L2.00158 15.25L2.00547 15.2499L2.01999 15.2499L2.07506 15.2493C2.12294 15.2486 2.19267 15.2472 2.28113 15.2445C2.45801 15.239 2.71004 15.2282 3.01223 15.2065C3.61562 15.1631 4.42362 15.0762 5.23448 14.9015C6.04139 14.7276 6.87116 14.4626 7.50505 14.0528C8.14299 13.6404 8.61364 13.0581 8.61364 12.2573C8.61364 11.4622 8.14153 10.8854 7.50399 10.4778C6.8702 10.0725 6.04061 9.81066 5.23387 9.63893C4.42314 9.46634 3.61526 9.3807 3.01195 9.33805C2.70979 9.31669 2.4578 9.30603 2.28095 9.30072C2.19251 9.29806 2.12279 9.29673 2.07492 9.29607L2.01988 9.29549L2.00536 9.29542L2.00148 9.29541L1.9999 9.29541C1.9998 9.29541 1.9999 9.29541 2 9.54541" fill="#333333"/>
<path fill-rule="evenodd" clip-rule="evenodd" d="M22 9.54541L22.0001 9.29541C22.1382 9.29546 22.2501 9.40744 22.25 9.54551C22.2499 9.68357 22.138 9.79545 21.9999 9.79541M21.9999 9.79541L21.9961 9.79542L21.9834 9.79548L21.932 9.79602C21.8866 9.79665 21.8196 9.79792 21.7341 9.80049C21.5629 9.80564 21.3177 9.81599 21.0233 9.83681C20.4334 9.87851 19.6504 9.96189 18.8702 10.128C18.0861 10.2949 17.3247 10.5413 16.7654 10.899C16.2097 11.2543 15.8864 11.6951 15.8864 12.2573C15.8864 12.8278 16.2112 13.274 16.7664 13.6329C17.3257 13.9945 18.0868 14.2438 18.8708 14.4127C19.6509 14.5808 20.4338 14.6654 21.0236 14.7077C21.318 14.7289 21.5631 14.7394 21.7343 14.7447C21.8198 14.7474 21.8868 14.7487 21.9321 14.7493L21.9835 14.7499L21.9962 14.7499L21.9993 14.75C21.9993 14.75 21.9993 14.75 21.9993 14.75C22.1373 14.75 22.25 14.8619 22.25 15C22.25 15.138 22.1381 15.25 22 15.25V15C22 15.25 22.0001 15.25 22 15.25L21.9984 15.25L21.9945 15.2499L21.98 15.2499L21.9249 15.2493C21.8771 15.2486 21.8073 15.2472 21.7189 15.2445C21.542 15.239 21.29 15.2282 20.9878 15.2065C20.3844 15.1631 19.5764 15.0762 18.7655 14.9015C17.9586 14.7276 17.1288 14.4626 16.495 14.0528C15.857 13.6404 15.3864 13.0581 15.3864 12.2573C15.3864 11.4622 15.8585 10.8854 16.496 10.4778C17.1298 10.0725 17.9594 9.81066 18.7661 9.63893C19.5769 9.46634 20.3847 9.3807 20.9881 9.33805C21.2902 9.31669 21.5422 9.30603 21.719 9.30072C21.8075 9.29806 21.8772 9.29673 21.9251 9.29607L21.9801 9.29549L21.9946 9.29542L21.9985 9.29541L22.0001 9.29541C22.0002 9.29541 22.0001 9.29541 22 9.54541" fill="#333333"/>
</svg>
