<svg width="32" height="28" viewBox="0 0 32 28" fill="none" xmlns="http://www.w3.org/2000/svg">
<g filter="url(#filter0_d_3275_2774)">
<path fill-rule="evenodd" clip-rule="evenodd" d="M6.33435 10.3199C6.33435 10.458 6.44628 10.5699 6.58435 10.5699C7.56649 10.5699 8.27313 10.3849 8.87067 10.0998C9.34205 9.87492 9.74475 9.58663 10.1451 9.30004C10.2427 9.23019 10.3401 9.16045 10.4383 9.09174C10.9455 8.73709 11.5023 8.38777 12.282 8.11947C13.063 7.85072 14.0791 7.65948 15.5037 7.63782C15.6417 7.63572 15.7519 7.5221 15.7498 7.38405C15.7477 7.24599 15.6341 7.13578 15.4961 7.13788C14.0299 7.16017 12.9599 7.35743 12.1193 7.64668C11.2774 7.9364 10.6772 8.31461 10.1518 8.68199C10.0435 8.7577 9.93954 8.83206 9.83805 8.90464C9.44162 9.18811 9.08313 9.44445 8.65537 9.64853C8.12935 9.89949 7.49689 10.0699 6.58435 10.0699C6.44628 10.0699 6.33435 10.1819 6.33435 10.3199Z" fill="#333333"/>
<path fill-rule="evenodd" clip-rule="evenodd" d="M25.6656 10.3199C25.6656 10.458 25.5537 10.5699 25.4156 10.5699C24.4334 10.5699 23.7268 10.3849 23.1292 10.0998C22.6578 9.87492 22.2551 9.58664 21.8548 9.30004C21.7572 9.2302 21.6597 9.16045 21.5615 9.09175C21.0543 8.73709 20.4974 8.38777 19.7178 8.11948C18.9367 7.85072 17.9206 7.65948 16.496 7.63782C16.358 7.63572 16.2477 7.5221 16.2498 7.38405C16.2519 7.24599 16.3656 7.13578 16.5036 7.13788C17.9698 7.16017 19.0398 7.35743 19.8804 7.64668C20.7224 7.9364 21.3226 8.31461 21.848 8.68199C21.9563 8.7577 22.0603 8.83205 22.1618 8.90463C22.5582 9.1881 22.9167 9.44445 23.3445 9.64853C23.8706 9.89949 24.503 10.0699 25.4156 10.0699C25.5537 10.0699 25.6656 10.1819 25.6656 10.3199Z" fill="#333333"/>
<path fill-rule="evenodd" clip-rule="evenodd" d="M6.33435 13.7603C6.33435 13.6222 6.44628 13.5103 6.58435 13.5103C7.56726 13.5103 8.27452 13.6992 8.87242 13.9902C9.34381 14.2197 9.74651 14.5137 10.1467 14.806C10.2444 14.8773 10.3419 14.9485 10.4402 15.0186C10.9474 15.3804 11.5041 15.7365 12.2834 16.0098C13.0639 16.2836 14.0795 16.4783 15.5037 16.5C15.6417 16.5021 15.7519 16.6157 15.7498 16.7537C15.7477 16.8918 15.6341 17.002 15.4961 16.9999C14.0295 16.9776 12.9589 16.7766 12.1179 16.4816C11.2756 16.1862 10.6752 15.8003 10.1499 15.4257C10.0415 15.3483 9.93737 15.2724 9.83576 15.1983C9.43946 14.9092 9.08114 14.6479 8.65361 14.4398C8.12796 14.184 7.49612 14.0103 6.58435 14.0103C6.44628 14.0103 6.33435 13.8983 6.33435 13.7603Z" fill="#333333"/>
<path fill-rule="evenodd" clip-rule="evenodd" d="M25.6656 13.7603C25.6656 13.6222 25.5537 13.5103 25.4156 13.5103C24.4365 13.5103 23.7309 13.6978 23.1343 13.9869C22.6599 14.2169 22.2556 14.5121 21.8537 14.8055C21.7598 14.8741 21.6659 14.9426 21.5713 15.0102C21.0666 15.3708 20.5144 15.7261 19.7433 16.0003C18.9711 16.2749 17.9676 16.472 16.5615 16.4988C16.4235 16.5015 16.3137 16.6155 16.3163 16.7536C16.319 16.8916 16.433 17.0014 16.571 16.9988C18.02 16.9711 19.0783 16.7674 19.9108 16.4714C20.7445 16.175 21.34 15.79 21.862 15.417C21.9658 15.3429 22.0658 15.27 22.1634 15.1988C22.562 14.9081 22.9222 14.6453 23.3524 14.4368C23.8768 14.1827 24.5073 14.0103 25.4156 14.0103C25.5537 14.0103 25.6656 13.8983 25.6656 13.7603Z" fill="#333333"/>
<path fill-rule="evenodd" clip-rule="evenodd" d="M14.1204 4.75C14.1204 4.61193 14.2323 4.5 14.3704 4.5H15.4999C15.6371 4.5 15.7487 4.61068 15.7499 4.74795L15.7951 10.2727C15.7963 10.4107 15.6853 10.5236 15.5472 10.5247C15.4091 10.5258 15.2963 10.4148 15.2952 10.2767L15.2519 5H14.6204V6.55C14.6204 6.68807 14.5084 6.8 14.3704 6.8H7.55863V8.78087C7.55863 8.91894 7.4467 9.03087 7.30863 9.03087H6.83435V11.5C6.83435 11.6381 6.72242 11.75 6.58435 11.75C6.44628 11.75 6.33435 11.6381 6.33435 11.5V8.78087C6.33435 8.6428 6.44628 8.53087 6.58435 8.53087H7.05863V6.55C7.05863 6.41193 7.17056 6.3 7.30863 6.3H14.1204V4.75ZM16.2499 4.75C16.2499 4.61193 16.3618 4.5 16.4999 4.5H17.6296C17.7677 4.5 17.8796 4.61193 17.8796 4.75V6.3H24.6008C24.7389 6.3 24.8508 6.41193 24.8508 6.55V8.53087H25.4156C25.5537 8.53087 25.6656 8.6428 25.6656 8.78087V11.5C25.6656 11.6381 25.5537 11.75 25.4156 11.75C25.2776 11.75 25.1656 11.6381 25.1656 11.5V9.03087H24.6008C24.4628 9.03087 24.3508 8.91894 24.3508 8.78087V6.8H17.6296C17.4916 6.8 17.3796 6.68807 17.3796 6.55V5H16.7499V10.2747C16.7499 10.4128 16.6379 10.5247 16.4999 10.5247C16.3618 10.5247 16.2499 10.4128 16.2499 10.2747V4.75ZM6.58435 12.3C6.72242 12.3 6.83435 12.4119 6.83435 12.55V15.2305H7.3539C7.49197 15.2305 7.6039 15.3424 7.6039 15.4805V17.177H14.3704C14.5084 17.177 14.6204 17.2889 14.6204 17.427V19H15.2499V13.9414C15.2499 13.8033 15.3618 13.6914 15.4999 13.6914C15.6379 13.6914 15.7499 13.8033 15.7499 13.9414V19.25C15.7499 19.3881 15.6379 19.5 15.4999 19.5H14.3704C14.2323 19.5 14.1204 19.3881 14.1204 19.25V17.677H7.3539C7.21583 17.677 7.1039 17.565 7.1039 17.427V15.7305H6.58435C6.44628 15.7305 6.33435 15.6185 6.33435 15.4805V12.55C6.33435 12.4119 6.44628 12.3 6.58435 12.3ZM25.4156 12.3C25.5537 12.3 25.6656 12.4119 25.6656 12.55V15.4352C25.6656 15.5733 25.5537 15.6852 25.4156 15.6852H24.8508V17.427C24.8508 17.565 24.7389 17.677 24.6008 17.677H17.8796V19.25C17.8796 19.3881 17.7677 19.5 17.6296 19.5H16.5401C16.4021 19.5 16.2901 19.3881 16.2901 19.25V13.9414C16.2901 13.8033 16.4021 13.6914 16.5401 13.6914C16.6782 13.6914 16.7901 13.8033 16.7901 13.9414V19H17.3796V17.427C17.3796 17.2889 17.4916 17.177 17.6296 17.177H24.3508V15.4352C24.3508 15.2971 24.4628 15.1852 24.6008 15.1852H25.1656V12.55C25.1656 12.4119 25.2776 12.3 25.4156 12.3Z" fill="#333333"/>
<path fill-rule="evenodd" clip-rule="evenodd" d="M24.5771 11.5422C24.5771 11.4042 24.6891 11.2922 24.8271 11.2922H26.8271C26.9652 11.2922 27.0771 11.4042 27.0771 11.5422V12.5422C27.0771 12.6803 26.9652 12.7922 26.8271 12.7922H24.8271C24.6891 12.7922 24.5771 12.6803 24.5771 12.5422V11.5422ZM25.0771 11.7922V12.2922H26.5771V11.7922H25.0771Z" fill="#333333"/>
<path fill-rule="evenodd" clip-rule="evenodd" d="M4.91986 11.5422C4.91986 11.4042 5.03179 11.2922 5.16986 11.2922H7.16986C7.30793 11.2922 7.41986 11.4042 7.41986 11.5422V12.5422C7.41986 12.6803 7.30793 12.7922 7.16986 12.7922H5.16986C5.03179 12.7922 4.91986 12.6803 4.91986 12.5422V11.5422ZM5.41986 11.7922V12.2922H6.91986V11.7922H5.41986Z" fill="#333333"/>
<path fill-rule="evenodd" clip-rule="evenodd" d="M25 11.3371C19.1227 9.61337 12.875 9.61389 7 11.3366V11.858C12.8709 10.1068 19.1268 10.1062 25 11.8585V11.3371ZM25 12.2593C19.1268 14.0115 12.8709 14.011 7 12.2597V12.7811C12.875 14.5039 19.1227 14.5044 25 12.7807V12.2593Z" fill="#333333"/>
<path fill-rule="evenodd" clip-rule="evenodd" d="M13.0122 9.66163C12.8229 9.87269 12.6596 10.1889 12.5329 10.5775C12.4901 10.7088 12.3489 10.7805 12.2177 10.7377C12.0864 10.6949 12.0147 10.5538 12.0575 10.4225C12.196 9.99796 12.3869 9.60995 12.6401 9.32775C12.8971 9.04124 13.2306 8.85253 13.6344 8.87255C14.0277 8.89204 14.4349 9.10758 14.8535 9.50801C15.2739 9.91027 15.7277 10.5196 16.217 11.3759C16.2609 11.4528 16.2609 11.5471 16.217 11.624C15.6297 12.6517 15.1067 13.4128 14.6438 13.9489C14.1852 14.4802 13.7673 14.8122 13.3852 14.947C13.19 15.0158 12.998 15.0352 12.8154 14.9966C12.632 14.9579 12.4755 14.8643 12.3463 14.7353C12.0953 14.4846 11.9416 14.0949 11.8531 13.6584C11.8256 13.5231 11.9131 13.3912 12.0484 13.3637C12.1837 13.3363 12.3156 13.4237 12.3431 13.5591C12.4241 13.9588 12.5515 14.2335 12.6997 14.3816C12.7702 14.452 12.8428 14.4914 12.9188 14.5074C12.9955 14.5237 13.0933 14.5198 13.2189 14.4755C13.4785 14.3839 13.8268 14.1301 14.2653 13.6222C14.6817 13.14 15.1629 12.448 15.7114 11.5002C15.2635 10.7336 14.8615 10.2077 14.5078 9.8693C14.1335 9.51116 13.8347 9.38309 13.6096 9.37193C13.395 9.36129 13.1977 9.45489 13.0122 9.66163Z" fill="#333333"/>
<path fill-rule="evenodd" clip-rule="evenodd" d="M18.9877 9.66163C19.177 9.87269 19.3403 10.1889 19.467 10.5775C19.5098 10.7088 19.651 10.7805 19.7822 10.7377C19.9135 10.6949 19.9852 10.5538 19.9424 10.4225C19.8039 9.99796 19.613 9.60995 19.3598 9.32775C19.1028 9.04124 18.7693 8.85253 18.3655 8.87255C17.9722 8.89204 17.565 9.10758 17.1465 9.50801C16.726 9.91027 16.2722 10.5196 15.7829 11.3759C15.739 11.4528 15.739 11.5471 15.7829 11.624C16.367 12.6462 16.8877 13.4047 17.3486 13.9403C17.8055 14.4711 18.2217 14.8043 18.6022 14.9425C18.7964 15.0131 18.9876 15.035 19.17 14.9996C19.3534 14.964 19.5108 14.8738 19.6411 14.7475C19.8945 14.5022 20.0503 14.1178 20.141 13.6869C20.1694 13.5518 20.0829 13.4193 19.9478 13.3908C19.8127 13.3624 19.6801 13.4489 19.6517 13.584C19.5689 13.9776 19.4408 14.2455 19.2933 14.3883C19.2233 14.4561 19.151 14.4939 19.0748 14.5087C18.9976 14.5237 18.8991 14.5184 18.7729 14.4725C18.5124 14.3779 18.1644 14.1217 17.7276 13.6141C17.3129 13.1323 16.8339 12.4427 16.2885 11.5002C16.7364 10.7336 17.1384 10.2077 17.4921 9.8693C17.8664 9.51116 18.1652 9.38309 18.3903 9.37193C18.6049 9.36129 18.8022 9.45489 18.9877 9.66163Z" fill="#333333"/>
<path fill-rule="evenodd" clip-rule="evenodd" d="M14.5 12.5C14.5 12.3619 14.6119 12.25 14.75 12.25H15.4C15.5222 12.25 15.6265 12.3384 15.6466 12.4589L15.7466 13.0589C15.7693 13.1951 15.6773 13.3239 15.5411 13.3466C15.4049 13.3693 15.2761 13.2773 15.2534 13.1411L15.1882 12.75H14.75C14.6119 12.75 14.5 12.6381 14.5 12.5Z" fill="#333333"/>
<path fill-rule="evenodd" clip-rule="evenodd" d="M17.5 12.5C17.5 12.3619 17.3881 12.25 17.25 12.25H16.6C16.4778 12.25 16.3735 12.3384 16.3534 12.4589L16.2534 13.0589C16.2307 13.1951 16.3227 13.3239 16.4589 13.3466C16.5951 13.3693 16.7239 13.2773 16.7466 13.1411L16.8118 12.75H17.25C17.3881 12.75 17.5 12.6381 17.5 12.5Z" fill="#333333"/>
</g>
<defs>
<filter id="filter0_d_3275_2774" x="0" y="0" width="32" height="32" filterUnits="userSpaceOnUse" color-interpolation-filters="sRGB">
<feFlood flood-opacity="0" result="BackgroundImageFix"/>
<feColorMatrix in="SourceAlpha" type="matrix" values="0 0 0 0 0 0 0 0 0 0 0 0 0 0 0 0 0 0 127 0" result="hardAlpha"/>
<feOffset dy="4"/>
<feGaussianBlur stdDeviation="2"/>
<feComposite in2="hardAlpha" operator="out"/>
<feColorMatrix type="matrix" values="0 0 0 0 0 0 0 0 0 0 0 0 0 0 0 0 0 0 0.25 0"/>
<feBlend mode="normal" in2="BackgroundImageFix" result="effect1_dropShadow_3275_2774"/>
<feBlend mode="normal" in="SourceGraphic" in2="effect1_dropShadow_3275_2774" result="shape"/>
</filter>
</defs>
</svg>
