<svg width="24" height="24" viewBox="0 0 24 24" fill="none" xmlns="http://www.w3.org/2000/svg">
<path fill-rule="evenodd" clip-rule="evenodd" d="M4.25 1C4.25 0.861929 4.36193 0.75 4.5 0.75H19.4898C19.6279 0.75 19.7398 0.861929 19.7398 1V19.9997L19.75 22.9991C19.7502 23.0656 19.724 23.1294 19.6771 23.1765C19.6302 23.2235 19.5665 23.25 19.5 23.25H4.5C4.36193 23.25 4.25 23.1381 4.25 23V1ZM4.75 22.75H19.2491L19.2398 20.0009L19.2398 1.25H4.75V22.75Z" fill="#333333"/>
<path fill-rule="evenodd" clip-rule="evenodd" d="M12.9992 19.4082C12.9992 19.2701 13.1111 19.1582 13.2492 19.1582H14.3717C14.5097 19.1582 14.6217 19.2701 14.6217 19.4082V20.9796C14.6217 21.1177 14.5097 21.2296 14.3717 21.2296H13.2492C13.1111 21.2296 12.9992 21.1177 12.9992 20.9796V19.4082ZM13.4992 19.6582V20.7296H14.1217V19.6582H13.4992Z" fill="#333333"/>
<path d="M16.5 17.3877H14.5V18.0612H16.5V17.3877Z" fill="#666666"/>
<path fill-rule="evenodd" clip-rule="evenodd" d="M14.25 17.3877C14.25 17.2496 14.3619 17.1377 14.5 17.1377H16.5C16.6381 17.1377 16.75 17.2496 16.75 17.3877V18.0612C16.75 18.1992 16.6381 18.3112 16.5 18.3112H14.5C14.3619 18.3112 14.25 18.1992 14.25 18.0612V17.3877ZM14.75 17.6377V17.8112H16.25V17.6377H14.75Z" fill="#333333"/>
<path fill-rule="evenodd" clip-rule="evenodd" d="M5.75 2.7959C5.75 2.65783 5.86193 2.5459 6 2.5459H18C18.1381 2.5459 18.25 2.65783 18.25 2.7959C18.25 2.93397 18.1381 3.0459 18 3.0459H6C5.86193 3.0459 5.75 2.93397 5.75 2.7959Z" fill="#333333"/>
<path fill-rule="evenodd" clip-rule="evenodd" d="M5.75 4.14282C5.75 4.00475 5.86193 3.89282 6 3.89282H7.5C7.63807 3.89282 7.75 4.00475 7.75 4.14282C7.75 4.28089 7.63807 4.39282 7.5 4.39282H6C5.86193 4.39282 5.75 4.28089 5.75 4.14282Z" fill="#333333"/>
<path fill-rule="evenodd" clip-rule="evenodd" d="M16.25 4.14282C16.25 4.00475 16.3619 3.89282 16.5 3.89282H18C18.1381 3.89282 18.25 4.00475 18.25 4.14282C18.25 4.28089 18.1381 4.39282 18 4.39282H16.5C16.3619 4.39282 16.25 4.28089 16.25 4.14282Z" fill="#333333"/>
<path fill-rule="evenodd" clip-rule="evenodd" d="M5.75 8.18359C5.75 8.04552 5.86193 7.93359 6 7.93359H7.5C7.63807 7.93359 7.75 8.04552 7.75 8.18359C7.75 8.32166 7.63807 8.43359 7.5 8.43359H6C5.86193 8.43359 5.75 8.32166 5.75 8.18359Z" fill="#333333"/>
<path fill-rule="evenodd" clip-rule="evenodd" d="M16.25 8.18359C16.25 8.04552 16.3619 7.93359 16.5 7.93359H18C18.1381 7.93359 18.25 8.04552 18.25 8.18359C18.25 8.32166 18.1381 8.43359 18 8.43359H16.5C16.3619 8.43359 16.25 8.32166 16.25 8.18359Z" fill="#333333"/>
<path fill-rule="evenodd" clip-rule="evenodd" d="M5.75 5.48975C5.75 5.35167 5.86193 5.23975 6 5.23975H7.5C7.63807 5.23975 7.75 5.35167 7.75 5.48975C7.75 5.62782 7.63807 5.73975 7.5 5.73975H6C5.86193 5.73975 5.75 5.62782 5.75 5.48975Z" fill="#333333"/>
<path fill-rule="evenodd" clip-rule="evenodd" d="M16.25 5.48975C16.25 5.35167 16.3619 5.23975 16.5 5.23975H18C18.1381 5.23975 18.25 5.35167 18.25 5.48975C18.25 5.62782 18.1381 5.73975 18 5.73975H16.5C16.3619 5.73975 16.25 5.62782 16.25 5.48975Z" fill="#333333"/>
<path fill-rule="evenodd" clip-rule="evenodd" d="M5.75 6.83667C5.75 6.6986 5.86193 6.58667 6 6.58667H7.5C7.63807 6.58667 7.75 6.6986 7.75 6.83667C7.75 6.97474 7.63807 7.08667 7.5 7.08667H6C5.86193 7.08667 5.75 6.97474 5.75 6.83667Z" fill="#333333"/>
<path fill-rule="evenodd" clip-rule="evenodd" d="M16.25 6.83667C16.25 6.6986 16.3619 6.58667 16.5 6.58667H18C18.1381 6.58667 18.25 6.6986 18.25 6.83667C18.25 6.97474 18.1381 7.08667 18 7.08667H16.5C16.3619 7.08667 16.25 6.97474 16.25 6.83667Z" fill="#333333"/>
<path fill-rule="evenodd" clip-rule="evenodd" d="M5.67035 21.5C5.67035 21.2791 5.84944 21.1 6.07035 21.1H12.3518C12.5727 21.1 12.7518 21.2791 12.7518 21.5C12.7518 21.7209 12.5727 21.9 12.3518 21.9H6.07035C5.84944 21.9 5.67035 21.7209 5.67035 21.5Z" fill="#333333"/>
<path fill-rule="evenodd" clip-rule="evenodd" d="M5.5 18.5103C5.5 18.2341 5.72386 18.0103 6 18.0103H7.25C7.52614 18.0103 7.75 18.2341 7.75 18.5103C7.75 18.7864 7.52614 19.0103 7.25 19.0103H6C5.72386 19.0103 5.5 18.7864 5.5 18.5103Z" fill="#333333"/>
<path fill-rule="evenodd" clip-rule="evenodd" d="M9.25 18.5103C9.25 18.2341 9.47386 18.0103 9.75 18.0103H11C11.2761 18.0103 11.5 18.2341 11.5 18.5103C11.5 18.7864 11.2761 19.0103 11 19.0103H9.75C9.47386 19.0103 9.25 18.7864 9.25 18.5103Z" fill="#333333"/>
<path fill-rule="evenodd" clip-rule="evenodd" d="M5.5 17.1633C5.5 16.8872 5.72386 16.6633 6 16.6633H7.25C7.52614 16.6633 7.75 16.8872 7.75 17.1633C7.75 17.4395 7.52614 17.6633 7.25 17.6633H6C5.72386 17.6633 5.5 17.4395 5.5 17.1633Z" fill="#333333"/>
<path fill-rule="evenodd" clip-rule="evenodd" d="M9.25 17.1633C9.25 16.8872 9.47386 16.6633 9.75 16.6633H11C11.2761 16.6633 11.5 16.8872 11.5 17.1633C11.5 17.4395 11.2761 17.6633 11 17.6633H9.75C9.47386 17.6633 9.25 17.4395 9.25 17.1633Z" fill="#333333"/>
<path fill-rule="evenodd" clip-rule="evenodd" d="M4.27966 20.3061C4.27966 20.0852 4.45875 19.9061 4.67966 19.9061H13.0373C13.2582 19.9061 13.4373 20.0852 13.4373 20.3061C13.4373 20.527 13.2582 20.7061 13.0373 20.7061H4.67966C4.45875 20.7061 4.27966 20.527 4.27966 20.3061Z" fill="#333333"/>
<path fill-rule="evenodd" clip-rule="evenodd" d="M9.94002 8.41972C9.3046 11.1852 8.86561 15.1669 8.74723 20.0061L8.24738 19.9939C8.3662 15.1364 8.80699 11.1181 9.45271 8.30775C9.77511 6.90462 10.1518 5.7882 10.5733 5.01656C10.9834 4.2657 11.4876 3.75 12.0995 3.75C12.3804 3.75 12.6295 3.88866 12.8427 4.09608C13.0553 4.30299 13.2509 4.5955 13.4324 4.95042C13.796 5.66123 14.129 6.67409 14.4264 7.90429C15.022 10.3687 15.4867 13.7587 15.7494 17.4824L15.2506 17.5176C14.989 13.8093 14.5271 10.4493 13.9404 8.02176C13.6465 6.80594 13.3244 5.8373 12.9873 5.1781C12.8184 4.84801 12.6522 4.60839 12.494 4.45443C12.3363 4.30096 12.2054 4.25 12.0995 4.25C11.7901 4.25 11.413 4.52221 11.0121 5.25625C10.6225 5.96949 10.2582 7.03494 9.94002 8.41972Z" fill="#333333"/>
</svg>
