<svg width="24" height="24" viewBox="0 0 24 24" fill="none" xmlns="http://www.w3.org/2000/svg">
<path fill-rule="evenodd" clip-rule="evenodd" d="M14.7278 7.60632C14.9371 8.06906 15.0065 8.57012 14.9303 9.0399C14.9219 9.09148 14.9118 9.14269 14.8999 9.19344L14.4131 9.07942C14.4223 9.04004 14.4302 9.00017 14.4367 8.95988C14.4963 8.59224 14.4432 8.19043 14.2722 7.81244L14.7278 7.60632ZM4.30476 13.1384L4.65832 13.492L2.95129 15.199C3.70742 15.1382 4.51311 15.4601 5.0812 16.1005C5.58765 16.6715 5.82 17.3976 5.75835 18.0746L9.11254 14.7204L9.46609 15.0739L5.23338 19.3067C5.18125 19.365 5.12535 19.4208 5.06571 19.4737C4.9646 19.5634 4.8105 19.5565 4.71783 19.4581C4.62516 19.3597 4.62746 19.2055 4.72304 19.1099L4.86918 18.9637C5.43649 18.3176 5.41186 17.2268 4.70716 16.4323C3.94948 15.5782 2.76405 15.4649 2.06208 16.0876C1.96096 16.1773 1.80687 16.1704 1.7142 16.072C1.62152 15.9736 1.62383 15.8194 1.7194 15.7238L4.30476 13.1384Z" fill="#333333"/>
<path fill-rule="evenodd" clip-rule="evenodd" d="M2.06207 16.0876C1.3601 16.7103 1.33115 17.9008 2.08883 18.7549C2.8465 19.6091 4.03193 19.7224 4.7339 19.0997C5.43588 18.477 5.46482 17.2865 4.70715 16.4324C3.94947 15.5782 2.76404 15.4649 2.06207 16.0876ZM1.71478 19.0867C0.813588 18.0708 0.7796 16.5569 1.73027 15.7136C2.68094 14.8703 4.18001 15.0846 5.0812 16.1006C5.98239 17.1165 6.01637 18.6304 5.0657 19.4737C4.11503 20.317 2.61596 20.1027 1.71478 19.0867Z" fill="#333333"/>
<path fill-rule="evenodd" clip-rule="evenodd" d="M2.15028 17.5324C2.15718 17.3945 2.27455 17.2883 2.41245 17.2952L4.41245 17.3952C4.55035 17.4021 4.65655 17.5195 4.64966 17.6574C4.64276 17.7953 4.52538 17.9015 4.38748 17.8946L2.38748 17.7946C2.24959 17.7877 2.14339 17.6703 2.15028 17.5324Z" fill="#333333"/>
<path fill-rule="evenodd" clip-rule="evenodd" d="M3.3375 16.3452C3.1996 16.3521 3.0934 16.4694 3.10029 16.6073L3.20029 18.6073C3.20719 18.7452 3.32457 18.8514 3.46247 18.8445C3.60036 18.8376 3.70656 18.7203 3.69967 18.5824L3.59967 16.5824C3.59277 16.4445 3.4754 16.3383 3.3375 16.3452Z" fill="#333333"/>
<path fill-rule="evenodd" clip-rule="evenodd" d="M13.9227 1.5212C14.8733 0.677914 16.3724 0.892261 17.2736 1.9082C18.173 2.92208 18.2086 4.43195 17.2639 5.27623L8.23338 14.3067C8.18125 14.3651 8.12535 14.4208 8.06571 14.4738C7.9646 14.5634 7.8105 14.5565 7.71783 14.4581C7.62516 14.3598 7.62746 14.2055 7.72304 14.1099L7.86918 13.9638C8.43649 13.3177 8.41186 12.2268 7.70716 11.4324C6.94948 10.5782 5.76405 10.465 5.06208 11.0876C4.96096 11.1773 4.80687 11.1704 4.7142 11.072C4.62152 10.9736 4.62383 10.8194 4.7194 10.7238L13.9118 1.53145C13.9153 1.52793 13.9189 1.52451 13.9227 1.5212ZM8.75835 13.0746L16.9154 4.91756C16.9189 4.91404 16.9226 4.91062 16.9263 4.90731C17.6283 4.28463 17.6572 3.09415 16.8995 2.24C16.1438 1.38802 14.9625 1.27315 14.2599 1.89049L5.95129 10.1991C6.70742 10.1383 7.51311 10.4602 8.0812 11.1006C8.58765 11.6715 8.82 12.3977 8.75835 13.0746Z" fill="#333333"/>
<path fill-rule="evenodd" clip-rule="evenodd" d="M5.06207 11.0876C4.3601 11.7103 4.33115 12.9008 5.08883 13.7549C5.8465 14.6091 7.03193 14.7224 7.7339 14.0997C8.43588 13.477 8.46482 12.2865 7.70715 11.4324C6.94947 10.5782 5.76404 10.4649 5.06207 11.0876ZM4.71478 14.0867C3.81359 13.0708 3.7796 11.5569 4.73027 10.7136C5.68094 9.87029 7.18001 10.0846 8.0812 11.1006C8.98238 12.1165 9.01637 13.6304 8.0657 14.4737C7.11503 15.317 5.61596 15.1027 4.71478 14.0867Z" fill="#333333"/>
<path fill-rule="evenodd" clip-rule="evenodd" d="M5.15028 12.5324C5.15718 12.3945 5.27455 12.2883 5.41245 12.2952L7.41245 12.3952C7.55035 12.4021 7.65655 12.5195 7.64966 12.6574C7.64276 12.7953 7.52538 12.9015 7.38748 12.8946L5.38748 12.7946C5.24959 12.7877 5.14339 12.6703 5.15028 12.5324Z" fill="#333333"/>
<path fill-rule="evenodd" clip-rule="evenodd" d="M19.7639 13.2763C20.6235 12.508 20.671 11.1846 19.9953 10.1926L19.582 10.4741C20.1472 11.3038 20.0665 12.3395 19.4263 12.9073C19.4226 12.9106 19.4189 12.9141 19.4154 12.9176L11.2583 21.0747C11.32 20.3977 11.0877 19.6716 10.5812 19.1006C10.0131 18.4602 9.20742 18.1383 8.45129 18.1991L9.87105 16.7793L9.5175 16.4258L7.2194 18.7239C7.12383 18.8194 7.12152 18.9737 7.2142 19.0721C7.30687 19.1704 7.46096 19.1774 7.56208 19.0877C8.26405 18.465 9.44948 18.5783 10.2072 19.4324C10.9119 20.2269 10.9365 21.3177 10.3692 21.9638L10.223 22.11C10.1275 22.2056 10.1252 22.3598 10.2178 22.4582C10.3105 22.5566 10.4646 22.5635 10.5657 22.4738C10.6253 22.4209 10.6812 22.3651 10.7334 22.3067L19.7639 13.2763Z" fill="#333333"/>
<path fill-rule="evenodd" clip-rule="evenodd" d="M7.56207 19.0876C6.8601 19.7103 6.83115 20.9008 7.58883 21.7549C8.3465 22.6091 9.53193 22.7224 10.2339 22.0997C10.9359 21.477 10.9648 20.2865 10.2071 19.4324C9.44947 18.5782 8.26404 18.4649 7.56207 19.0876ZM7.21478 22.0867C6.31359 21.0708 6.2796 19.5569 7.23027 18.7136C8.18094 17.8703 9.68001 18.0846 10.5812 19.1006C11.4824 20.1165 11.5164 21.6304 10.5657 22.4737C9.61503 23.317 8.11596 23.1027 7.21478 22.0867Z" fill="#333333"/>
<path fill-rule="evenodd" clip-rule="evenodd" d="M7.65028 20.5324C7.65718 20.3945 7.77455 20.2883 7.91245 20.2952L9.91245 20.3952C10.0504 20.4021 10.1566 20.5195 10.1497 20.6574C10.1428 20.7953 10.0254 20.9015 9.88748 20.8946L7.88748 20.7946C7.74959 20.7877 7.64339 20.6703 7.65028 20.5324Z" fill="#333333"/>
<path fill-rule="evenodd" clip-rule="evenodd" d="M18.9227 4.5212C19.8733 3.67791 21.3724 3.89226 22.2736 4.9082C23.173 5.92208 23.2086 7.43195 22.2639 8.27623L13.2334 17.3067C13.1812 17.3651 13.1253 17.4208 13.0657 17.4738C12.9646 17.5634 12.8105 17.5565 12.7178 17.4581C12.6252 17.3598 12.6275 17.2055 12.723 17.1099L12.8692 16.9638C13.4365 16.3177 13.4119 15.2268 12.7072 14.4324C11.9495 13.5782 10.764 13.465 10.0621 14.0876C9.96096 14.1773 9.80687 14.1704 9.7142 14.072C9.62152 13.9736 9.62383 13.8194 9.7194 13.7238L18.9118 4.53145C18.9153 4.52793 18.9189 4.52451 18.9227 4.5212ZM13.7583 16.0746L21.9154 7.91756C21.9189 7.91404 21.9226 7.91062 21.9263 7.90731C22.6283 7.28463 22.6572 6.09415 21.8995 5.24C21.1438 4.38802 19.9625 4.27315 19.2599 4.89049L10.9513 13.1991C11.7074 13.1383 12.5131 13.4602 13.0812 14.1006C13.5877 14.6715 13.82 15.3977 13.7583 16.0746Z" fill="#333333"/>
<path fill-rule="evenodd" clip-rule="evenodd" d="M10.0621 14.0876C9.3601 14.7103 9.33115 15.9008 10.0888 16.7549C10.8465 17.6091 12.0319 17.7224 12.7339 17.0997C13.4359 16.477 13.4648 15.2865 12.7071 14.4324C11.9495 13.5782 10.764 13.4649 10.0621 14.0876ZM9.71478 17.0867C8.81359 16.0708 8.7796 14.5569 9.73027 13.7136C10.6809 12.8703 12.18 13.0846 13.0812 14.1006C13.9824 15.1165 14.0164 16.6304 13.0657 17.4737C12.115 18.317 10.616 18.1027 9.71478 17.0867Z" fill="#333333"/>
<path fill-rule="evenodd" clip-rule="evenodd" d="M10.1503 15.5324C10.1572 15.3945 10.2746 15.2883 10.4125 15.2952L12.4125 15.3952C12.5504 15.4021 12.6566 15.5195 12.6497 15.6574C12.6428 15.7953 12.5254 15.9015 12.3875 15.8946L10.3875 15.7946C10.2496 15.7877 10.1434 15.6703 10.1503 15.5324Z" fill="#333333"/>
<path fill-rule="evenodd" clip-rule="evenodd" d="M11.3375 14.3453C11.1996 14.3522 11.0934 14.4696 11.1003 14.6075L11.2003 16.6075C11.2072 16.7454 11.3246 16.8516 11.4625 16.8447C11.6004 16.8378 11.7066 16.7204 11.6997 16.5825L11.5997 14.5825C11.5928 14.4446 11.4754 14.3384 11.3375 14.3453Z" fill="#333333"/>
</svg>
