<svg width="24" height="24" viewBox="0 0 24 24" fill="none" xmlns="http://www.w3.org/2000/svg">
<path fill-rule="evenodd" clip-rule="evenodd" d="M2.33435 10.0699C2.33435 10.208 2.44628 10.3199 2.58435 10.3199C4.36589 10.3199 5.32801 9.70707 6.34066 9.062C6.45192 8.99113 6.56379 8.91987 6.67743 8.84898C7.80503 8.14563 9.16773 7.43095 12.0038 7.38782C12.1418 7.38572 12.2521 7.2721 12.25 7.13405C12.2479 6.99599 12.1342 6.88578 11.9962 6.88788C9.05074 6.93267 7.60031 7.68404 6.41281 8.42475C6.29672 8.49716 6.18378 8.56897 6.07273 8.63958C5.06717 9.27891 4.21622 9.81995 2.58435 9.81995C2.44628 9.81995 2.33435 9.93188 2.33435 10.0699Z" fill="#333333"/>
<path fill-rule="evenodd" clip-rule="evenodd" d="M21.6656 10.0699C21.6656 10.208 21.5537 10.3199 21.4156 10.3199C19.6341 10.3199 18.6719 9.70707 17.6593 9.062C17.548 8.99113 17.4362 8.91987 17.3225 8.84898C16.1949 8.14563 14.8322 7.43095 11.9962 7.38782C11.8581 7.38572 11.7479 7.2721 11.75 7.13405C11.7521 6.99599 11.8657 6.88578 12.0038 6.88788C14.9492 6.93267 16.3996 7.68404 17.5871 8.42475C17.7032 8.49716 17.8162 8.56897 17.9272 8.63958C18.9328 9.27891 19.7837 9.81995 21.4156 9.81995C21.5537 9.81995 21.6656 9.93188 21.6656 10.0699Z" fill="#333333"/>
<path fill-rule="evenodd" clip-rule="evenodd" d="M2.33435 13.5103C2.33435 13.3722 2.44628 13.2603 2.58435 13.2603C4.36698 13.2603 5.32989 13.8859 6.34216 14.5437C6.45356 14.6161 6.56556 14.6888 6.67931 14.7612C7.80685 15.4786 9.16889 16.2069 12.0038 16.25C12.1418 16.2521 12.2521 16.3657 12.25 16.5038C12.2479 16.6418 12.1342 16.752 11.9962 16.7499C9.04958 16.7051 7.59849 15.9386 6.41092 15.1831C6.29469 15.1091 6.18161 15.0358 6.07044 14.9637C5.06481 14.3116 4.21468 13.7603 2.58435 13.7603C2.44628 13.7603 2.33435 13.6483 2.33435 13.5103Z" fill="#333333"/>
<path fill-rule="evenodd" clip-rule="evenodd" d="M21.6656 13.5103C21.6656 13.3722 21.5537 13.2603 21.4156 13.2603C19.6335 13.2603 18.6566 13.8857 17.629 14.5436C17.5204 14.6131 17.4113 14.683 17.3006 14.7525C16.1608 15.4684 14.7944 16.1965 11.9953 16.25C11.8572 16.2527 11.7474 16.3667 11.7501 16.5047C11.7527 16.6428 11.8668 16.7526 12.0048 16.7499C14.9157 16.6943 16.3697 15.9276 17.5665 15.1759C17.6792 15.1052 17.7889 15.035 17.8969 14.966C18.9188 14.313 19.7838 13.7603 21.4156 13.7603C21.5537 13.7603 21.6656 13.6483 21.6656 13.5103Z" fill="#333333"/>
<path fill-rule="evenodd" clip-rule="evenodd" d="M14.2401 9.87174C14.2402 9.87165 14.2402 9.87155 13.993 9.84382L14.2402 9.87155C14.2248 10.0088 14.1011 10.1075 13.9638 10.0921C13.8266 10.0767 13.7279 9.95301 13.7433 9.8158L13.9917 9.84368C13.7433 9.8158 13.7433 9.8157 13.7433 9.8156L13.7433 9.81537L13.7434 9.81487L13.7435 9.81364L13.7439 9.81028L13.7453 9.80015C13.7464 9.79193 13.7481 9.7808 13.7504 9.76723C13.755 9.74018 13.7623 9.70291 13.7734 9.65922C13.795 9.57351 13.8329 9.45499 13.8986 9.33889C13.9639 9.22338 14.0651 9.09574 14.2191 9.01475C14.3794 8.93047 14.57 8.91099 14.7818 8.96874C14.8934 8.99918 14.9737 9.07456 15.0277 9.14154C15.0841 9.21153 15.1316 9.29688 15.172 9.38729C15.2533 9.56876 15.3216 9.80532 15.3749 10.0712C15.4819 10.6048 15.5355 11.2946 15.4918 11.984C15.4482 12.6703 15.3066 13.379 15.0061 13.9363C14.7014 14.5012 14.2203 14.9285 13.5126 14.9819C13.3749 14.9923 13.2549 14.8891 13.2445 14.7514C13.2341 14.6137 13.3373 14.4937 13.475 14.4833C13.9669 14.4462 14.3176 14.1594 14.566 13.6989C14.8186 13.2306 14.9515 12.6025 14.9928 11.9523C15.0339 11.3053 14.9828 10.6592 14.8847 10.1694C14.8354 9.92357 14.7761 9.72654 14.7157 9.59156C14.6853 9.52375 14.6584 9.48014 14.6384 9.45534C14.6354 9.45152 14.6327 9.44849 14.6306 9.44615C14.5377 9.42457 14.4845 9.44015 14.4518 9.45732C14.4106 9.47895 14.3703 9.52055 14.3338 9.58508C14.2976 9.64902 14.2733 9.72135 14.2582 9.78147C14.2508 9.8107 14.2461 9.83509 14.2433 9.85148C14.2419 9.85963 14.241 9.86566 14.2405 9.86917L14.2401 9.87174ZM14.2401 9.87245L14.2401 9.87174L14.2401 9.8719L14.2401 9.87219L14.2401 9.87245ZM14.2401 9.87245L14.2401 9.87255L14.24 9.87263C14.24 9.87263 14.24 9.87256 14.2401 9.87245Z" fill="#333333"/>
<path fill-rule="evenodd" clip-rule="evenodd" d="M20.5771 11.2922C20.5771 11.1542 20.6891 11.0422 20.8271 11.0422H22.8271C22.9652 11.0422 23.0771 11.1542 23.0771 11.2922V12.2922C23.0771 12.4303 22.9652 12.5422 22.8271 12.5422H20.8271C20.6891 12.5422 20.5771 12.4303 20.5771 12.2922V11.2922ZM21.0771 11.5422V12.0422H22.5771V11.5422H21.0771Z" fill="#333333"/>
<path fill-rule="evenodd" clip-rule="evenodd" d="M0.919861 11.2922C0.919861 11.1542 1.03179 11.0422 1.16986 11.0422H3.16986C3.30793 11.0422 3.41986 11.1542 3.41986 11.2922V12.2922C3.41986 12.4303 3.30793 12.5422 3.16986 12.5422H1.16986C1.03179 12.5422 0.919861 12.4303 0.919861 12.2922V11.2922ZM1.41986 11.5422V12.0422H2.91986V11.5422H1.41986Z" fill="#333333"/>
<path fill-rule="evenodd" clip-rule="evenodd" d="M8.98251 9.87761C8.87671 10.0511 8.7909 10.3528 8.85267 10.8058C8.91628 11.2722 9.17492 12.2418 9.86605 13.0669C10.5472 13.8801 11.6609 14.5695 13.4819 14.4828C13.6199 14.4763 13.737 14.5827 13.7435 14.7207C13.7501 14.8586 13.6436 14.9757 13.5057 14.9823C11.5243 15.0766 10.2615 14.3175 9.48275 13.3879C8.71401 12.4702 8.42944 11.4027 8.35725 10.8733C8.28322 10.3304 8.37848 9.9078 8.55561 9.61731C8.72074 9.34651 8.99725 9.14255 9.27981 9.18965C9.46137 9.21991 9.58495 9.33331 9.66127 9.43393C9.74472 9.54393 9.72319 9.70075 9.61319 9.78419C9.50319 9.86764 9.34637 9.84611 9.26292 9.73611C9.22989 9.69257 9.20717 9.68444 9.1976 9.68284C9.19917 9.68311 9.1983 9.68333 9.1953 9.68408C9.17736 9.68857 9.08343 9.7121 8.98251 9.87761Z" fill="#333333"/>
<path fill-rule="evenodd" clip-rule="evenodd" d="M13.732 13.7736C13.8583 13.8294 13.9155 13.977 13.8596 14.1033L13.6477 14.5827L14.1239 14.8448C14.2448 14.9114 14.2889 15.0634 14.2223 15.1844C14.1557 15.3053 14.0037 15.3494 13.8828 15.2829L13.2059 14.9103C13.0923 14.8478 13.0453 14.7088 13.0977 14.5902L13.4023 13.9012C13.4581 13.7749 13.6058 13.7178 13.732 13.7736Z" fill="#333333"/>
<path fill-rule="evenodd" clip-rule="evenodd" d="M9.57577 10.957C9.48299 11.0593 9.32489 11.0669 9.22264 10.9741L8.66529 10.4684L8.17337 10.942C8.0739 11.0378 7.91564 11.0348 7.81988 10.9353C7.72412 10.8358 7.72712 10.6776 7.82659 10.5818L8.48685 9.94613C8.5816 9.8549 8.73083 9.8527 8.82824 9.94109L9.55863 10.6039C9.66088 10.6967 9.66856 10.8548 9.57577 10.957Z" fill="#333333"/>
<path fill-rule="evenodd" clip-rule="evenodd" d="M21 11.6085C15.1268 9.85623 8.87091 9.85676 3 11.608V11.0866C8.87502 9.36388 15.1227 9.36337 21 11.0871V11.6085ZM21 12.0093C15.1268 13.7615 8.87091 13.761 3 12.0097V12.5311C8.87502 14.2539 15.1227 14.2544 21 12.5307V12.0093Z" fill="#333333"/>
</svg>
