<svg width="24" height="24" viewBox="0 0 24 24" fill="none" xmlns="http://www.w3.org/2000/svg">
<path d="M4 7V18H20V7H4Z" fill="#CACACB"/>
<path d="M6 9.5V10.5C6 10.7761 6.22386 11 6.5 11H17.5C17.7761 11 18 10.7761 18 10.5V9.5C18 9.22386 17.7761 9 17.5 9H6.5C6.22386 9 6 9.22386 6 9.5Z" fill="#040404"/>
<path d="M4 13V22H11V14.5C11 13.6716 10.3284 13 9.5 13H4Z" fill="#4A7FA5"/>
<path d="M11 16V22H20V16H11Z" fill="#4A7FA5"/>
<path d="M5.25 14V18.5C5.25 18.7761 5.47386 19 5.75 19H9.75C10.0261 19 10.25 18.7761 10.25 18.5V14C10.25 13.7239 10.0261 13.5 9.75 13.5H5.75C5.47386 13.5 5.25 13.7239 5.25 14Z" fill="#CACACB"/>
<path d="M6.75 15.25V15H5.875C5.80596 15 5.75 15.056 5.75 15.125C5.75 15.194 5.80596 15.25 5.875 15.25H6.75Z" fill="#EFF0F1"/>
<path d="M8.75 15.25V15H9.625C9.69404 15 9.75 15.056 9.75 15.125C9.75 15.194 9.69404 15.25 9.625 15.25H8.75Z" fill="#EFF0F1"/>
<path d="M6.75 15V15.25H8.75V15H6.75Z" fill="#366393"/>
<path d="M6.75 16.75V16.5H5.875C5.80596 16.5 5.75 16.556 5.75 16.625C5.75 16.694 5.80596 16.75 5.875 16.75H6.75Z" fill="#EFF0F1"/>
<path d="M8.75 16.75V16.5H9.625C9.69404 16.5 9.75 16.556 9.75 16.625C9.75 16.694 9.69404 16.75 9.625 16.75H8.75Z" fill="#EFF0F1"/>
<path d="M6.75 16.5V16.75H8.75V16.5H6.75Z" fill="#366393"/>
<path d="M6.75 18.25V18H5.875C5.80596 18 5.75 18.056 5.75 18.125C5.75 18.194 5.80596 18.25 5.875 18.25H6.75Z" fill="#EFF0F1"/>
<path d="M8.75 18.25V18H9.625C9.69404 18 9.75 18.056 9.75 18.125C9.75 18.194 9.69404 18.25 9.625 18.25H8.75Z" fill="#EFF0F1"/>
<path d="M6.75 18V18.25H8.75V18H6.75Z" fill="#366393"/>
<path fill-rule="evenodd" clip-rule="evenodd" d="M20 19.55H4V19.45H20V19.55Z" fill="#18191A"/>
<path fill-rule="evenodd" clip-rule="evenodd" d="M10.25 14.05H5.25V13.95H10.25V14.05Z" fill="#18191A"/>
<path fill-rule="evenodd" clip-rule="evenodd" d="M19.5 14.05H11V13.95H19.5V14.05Z" fill="#6C6D6C"/>
<path fill-rule="evenodd" clip-rule="evenodd" d="M10.25 15.55H5.25V15.45H10.25V15.55Z" fill="#18191A"/>
<path fill-rule="evenodd" clip-rule="evenodd" d="M10.25 17.05H5.25V16.95H10.25V17.05Z" fill="#18191A"/>
<path fill-rule="evenodd" clip-rule="evenodd" d="M10.25 18.55H5.25V18.45H10.25V18.55Z" fill="#18191A"/>
<path fill-rule="evenodd" clip-rule="evenodd" d="M10.95 22L10.95 19.5L11.05 19.5L11.05 22L10.95 22Z" fill="#18191A"/>
<path fill-rule="evenodd" clip-rule="evenodd" d="M3.25 7C3.25 6.58579 3.58579 6.25 4 6.25H20C20.4142 6.25 20.75 6.58579 20.75 7V22C20.75 22.4142 20.4142 22.75 20 22.75H4C3.58579 22.75 3.25 22.4142 3.25 22V7ZM4.75 7.75V21.25H19.25V7.75H4.75Z" fill="#B3B3B3"/>
<path d="M9 2V12H12V2H9Z" fill="#E5E6E6"/>
<path fill-rule="evenodd" clip-rule="evenodd" d="M8.25 2C8.25 1.58579 8.58579 1.25 9 1.25H12C12.4142 1.25 12.75 1.58579 12.75 2V12C12.75 12.4142 12.4142 12.75 12 12.75H9C8.58579 12.75 8.25 12.4142 8.25 12V2ZM9.75 2.75V11.25H11.25V2.75H9.75Z" fill="#B3B3B3"/>
</svg>
