<svg width="24" height="24" viewBox="0 0 24 24" fill="none" xmlns="http://www.w3.org/2000/svg">
<path d="M5 2V22H19V2H5Z" fill="#406C87"/>
<path d="M8.09998 3.7V4.8C8.09998 4.91046 8.18952 5 8.29998 5H9.39998C9.51043 5 9.59998 4.91046 9.59998 4.8V3.7C9.59998 3.58954 9.51043 3.5 9.39998 3.5H8.29998C8.18952 3.5 8.09998 3.58954 8.09998 3.7Z" fill="#0F100F"/>
<path d="M8.09998 8.95V10.05C8.09998 10.1605 8.18952 10.25 8.29998 10.25H9.39998C9.51043 10.25 9.59998 10.1605 9.59998 10.05V8.95C9.59998 8.83954 9.51043 8.75 9.39998 8.75H8.29998C8.18952 8.75 8.09998 8.83954 8.09998 8.95Z" fill="#A8A9A8"/>
<path d="M8.09998 4.7V9.3C8.09998 9.41046 8.18952 9.5 8.29998 9.5H9.39998C9.51043 9.5 9.59998 9.41046 9.59998 9.3V4.7C9.59998 4.58954 9.51043 4.5 9.39998 4.5H8.29998C8.18952 4.5 8.09998 4.58954 8.09998 4.7Z" fill="#E3E3E3"/>
<path d="M8.09998 6.2V7.8C8.09998 7.91046 8.18952 8 8.29998 8H9.39998C9.51043 8 9.59998 7.91046 9.59998 7.8V6.2C9.59998 6.08954 9.51043 6 9.39998 6H8.29998C8.18952 6 8.09998 6.08954 8.09998 6.2Z" fill="#BFC1C4"/>
<path d="M8.85 7.85002C9.31944 7.85002 9.7 7.46947 9.7 7.00002C9.7 6.53058 9.31944 6.15002 8.85 6.15002C8.38056 6.15002 8 6.53058 8 7.00002C8 7.46947 8.38056 7.85002 8.85 7.85002Z" fill="#D9D4D1"/>
<path d="M8.84998 5.09998C8.98805 5.09998 9.09998 4.98805 9.09998 4.84998C9.09998 4.7119 8.98805 4.59998 8.84998 4.59998C8.7119 4.59998 8.59998 4.7119 8.59998 4.84998C8.59998 4.98805 8.7119 5.09998 8.84998 5.09998Z" fill="#333132"/>
<path d="M11.25 3.7V4.8C11.25 4.91046 11.3395 5 11.45 5H12.55C12.6605 5 12.75 4.91046 12.75 4.8V3.7C12.75 3.58954 12.6605 3.5 12.55 3.5H11.45C11.3395 3.5 11.25 3.58954 11.25 3.7Z" fill="#0F100F"/>
<path d="M11.25 8.95V10.05C11.25 10.1605 11.3395 10.25 11.45 10.25H12.55C12.6605 10.25 12.75 10.1605 12.75 10.05V8.95C12.75 8.83954 12.6605 8.75 12.55 8.75H11.45C11.3395 8.75 11.25 8.83954 11.25 8.95Z" fill="#A8A9A8"/>
<path d="M11.25 4.7V9.3C11.25 9.41046 11.3395 9.5 11.45 9.5H12.55C12.6605 9.5 12.75 9.41046 12.75 9.3V4.7C12.75 4.58954 12.6605 4.5 12.55 4.5H11.45C11.3395 4.5 11.25 4.58954 11.25 4.7Z" fill="#E3E3E3"/>
<path d="M11.25 6.2V7.8C11.25 7.91046 11.3395 8 11.45 8H12.55C12.6605 8 12.75 7.91046 12.75 7.8V6.2C12.75 6.08954 12.6605 6 12.55 6H11.45C11.3395 6 11.25 6.08954 11.25 6.2Z" fill="#BFC1C4"/>
<path d="M12 7.85002C12.4695 7.85002 12.85 7.46947 12.85 7.00002C12.85 6.53058 12.4695 6.15002 12 6.15002C11.5306 6.15002 11.15 6.53058 11.15 7.00002C11.15 7.46947 11.5306 7.85002 12 7.85002Z" fill="#D9D4D1"/>
<path d="M12 5.09998C12.1381 5.09998 12.25 4.98805 12.25 4.84998C12.25 4.7119 12.1381 4.59998 12 4.59998C11.8619 4.59998 11.75 4.7119 11.75 4.84998C11.75 4.98805 11.8619 5.09998 12 5.09998Z" fill="#333132"/>
<path d="M14.4 3.7V4.8C14.4 4.91046 14.4895 5 14.6 5H15.7C15.8104 5 15.9 4.91046 15.9 4.8V3.7C15.9 3.58954 15.8104 3.5 15.7 3.5H14.6C14.4895 3.5 14.4 3.58954 14.4 3.7Z" fill="#0F100F"/>
<path d="M14.4 8.95V10.05C14.4 10.1605 14.4895 10.25 14.6 10.25H15.7C15.8104 10.25 15.9 10.1605 15.9 10.05V8.95C15.9 8.83954 15.8104 8.75 15.7 8.75H14.6C14.4895 8.75 14.4 8.83954 14.4 8.95Z" fill="#A8A9A8"/>
<path d="M14.4 4.7V9.3C14.4 9.41046 14.4895 9.5 14.6 9.5H15.7C15.8104 9.5 15.9 9.41046 15.9 9.3V4.7C15.9 4.58954 15.8104 4.5 15.7 4.5H14.6C14.4895 4.5 14.4 4.58954 14.4 4.7Z" fill="#E3E3E3"/>
<path d="M14.4 6.2V7.8C14.4 7.91046 14.4895 8 14.6 8H15.7C15.8104 8 15.9 7.91046 15.9 7.8V6.2C15.9 6.08954 15.8104 6 15.7 6H14.6C14.4895 6 14.4 6.08954 14.4 6.2Z" fill="#BFC1C4"/>
<path d="M15.15 7.85002C15.6194 7.85002 16 7.46947 16 7.00002C16 6.53058 15.6194 6.15002 15.15 6.15002C14.6805 6.15002 14.3 6.53058 14.3 7.00002C14.3 7.46947 14.6805 7.85002 15.15 7.85002Z" fill="#D9D4D1"/>
<path d="M15.15 5.09998C15.288 5.09998 15.4 4.98805 15.4 4.84998C15.4 4.7119 15.288 4.59998 15.15 4.59998C15.0119 4.59998 14.9 4.7119 14.9 4.84998C14.9 4.98805 15.0119 5.09998 15.15 5.09998Z" fill="#333132"/>
<path fill-rule="evenodd" clip-rule="evenodd" d="M6.90002 4.00002C6.90002 3.66865 7.16865 3.40002 7.50002 3.40002H16.5C16.8314 3.40002 17.1 3.66865 17.1 4.00002V5.35717C17.1 5.38084 17.1192 5.40002 17.1429 5.40002C17.3954 5.40002 17.6 5.60469 17.6 5.85717V8.14288C17.6 8.39535 17.3954 8.60002 17.1429 8.60002C17.1192 8.60002 17.1 8.61921 17.1 8.64288V11C17.1 11.3314 16.8314 11.6 16.5 11.6H7.50002C7.16865 11.6 6.90002 11.3314 6.90002 11V8.64288C6.90002 8.61921 6.88084 8.60002 6.85717 8.60002C6.60469 8.60002 6.40002 8.39535 6.40002 8.14288V5.85717C6.40002 5.60469 6.60469 5.40002 6.85717 5.40002C6.88084 5.40002 6.90002 5.38084 6.90002 5.35717V4.00002ZM7.50002 3.60002C7.27911 3.60002 7.10002 3.77911 7.10002 4.00002V5.35717C7.10002 5.49129 6.99129 5.60002 6.85717 5.60002C6.71515 5.60002 6.60002 5.71515 6.60002 5.85717V8.14288C6.60002 8.2849 6.71515 8.40002 6.85717 8.40002C6.99129 8.40002 7.10002 8.50876 7.10002 8.64288V11C7.10002 11.2209 7.27911 11.4 7.50002 11.4H16.5C16.7209 11.4 16.9 11.2209 16.9 11V8.64288C16.9 8.50876 17.0088 8.40002 17.1429 8.40002C17.2849 8.40002 17.4 8.2849 17.4 8.14288V5.85717C17.4 5.71515 17.2849 5.60002 17.1429 5.60002C17.0088 5.60002 16.9 5.49129 16.9 5.35717V4.00002C16.9 3.77911 16.7209 3.60002 16.5 3.60002H7.50002Z" fill="#013150"/>
<path fill-rule="evenodd" clip-rule="evenodd" d="M6.90002 13.5C6.90002 13.1687 7.16865 12.9 7.50002 12.9H16.5C16.8314 12.9 17.1 13.1687 17.1 13.5V19.5C17.1 19.8314 16.8314 20.1 16.5 20.1H7.50002C7.16865 20.1 6.90002 19.8314 6.90002 19.5V13.5ZM7.50002 13.1C7.27911 13.1 7.10002 13.2791 7.10002 13.5V19.5C7.10002 19.7209 7.27911 19.9 7.50002 19.9H16.5C16.7209 19.9 16.9 19.7209 16.9 19.5V13.5C16.9 13.2791 16.7209 13.1 16.5 13.1H7.50002Z" fill="#013150"/>
<path fill-rule="evenodd" clip-rule="evenodd" d="M17 10.65H7V10.45H17V10.65Z" fill="#013150"/>
<path fill-rule="evenodd" clip-rule="evenodd" d="M4.25 2C4.25 1.58579 4.58579 1.25 5 1.25H19C19.4142 1.25 19.75 1.58579 19.75 2V22C19.75 22.4142 19.4142 22.75 19 22.75H5C4.58579 22.75 4.25 22.4142 4.25 22V2ZM5.75 2.75V21.25H18.25V2.75H5.75Z" fill="#B3B3B3"/>
<path d="M7.5 14C7.5 13.7239 7.72386 13.5 8 13.5H16C16.2761 13.5 16.5 13.7239 16.5 14V19C16.5 19.2761 16.2761 19.5 16 19.5H8C7.72386 19.5 7.5 19.2761 7.5 19V14Z" fill="#ECECEC"/>
<path d="M8 15.7C8 15.5895 8.08954 15.5 8.2 15.5H13.3C13.4105 15.5 13.5 15.5895 13.5 15.7V17.3C13.5 17.4105 13.4105 17.5 13.3 17.5H8.2C8.08954 17.5 8 17.4105 8 17.3V15.7Z" fill="#000A51"/>
<path d="M14 16.5C14 15.9477 14.4477 15.5 15 15.5C15.5523 15.5 16 15.9477 16 16.5C16 17.0523 15.5523 17.5 15 17.5C14.4477 17.5 14 17.0523 14 16.5Z" fill="#ADC2D3"/>
</svg>
