<svg width="24" height="24" viewBox="0 0 24 24" fill="none" xmlns="http://www.w3.org/2000/svg">
<g filter="url(#filter0_i_3274_1086)">
<path d="M10 2.69949V4.5737C10 4.68416 9.91046 4.7737 9.8 4.7737H8.2C8.08954 4.7737 8 4.68416 8 4.5737V2.70004C8 2.60618 8.02642 2.51421 8.07623 2.43467L8.54718 1.68262H9.45528L9.9243 2.43498C9.97377 2.51433 10 2.60597 10 2.69949Z" fill="#EBEBEB"/>
</g>
<path d="M8.54724 1.1C8.54724 1.04477 8.59201 1 8.64724 1H9.35286C9.40809 1 9.45286 1.04477 9.45286 1.1V1.69465H8.54724L8.54724 1.1Z" fill="#063EB1"/>
<g filter="url(#filter1_i_3274_1086)">
<path d="M13 2.69949V4.5737C13 4.68416 12.9105 4.7737 12.8 4.7737H11.2C11.0895 4.7737 11 4.68416 11 4.5737V2.70004C11 2.60618 11.0264 2.51421 11.0762 2.43467L11.5472 1.68262H12.4553L12.9243 2.43498C12.9738 2.51433 13 2.60597 13 2.69949Z" fill="#EBEBEB"/>
</g>
<path d="M11.5472 1.1C11.5472 1.04477 11.592 1 11.6472 1H12.3529C12.4081 1 12.4529 1.04477 12.4529 1.1V1.69465H11.5472L11.5472 1.1Z" fill="#063EB1"/>
<g filter="url(#filter2_i_3274_1086)">
<path d="M16 2.69949V4.5737C16 4.68416 15.9105 4.7737 15.8 4.7737H14.2C14.0895 4.7737 14 4.68416 14 4.5737V2.70004C14 2.60618 14.0264 2.51421 14.0762 2.43467L14.5472 1.68262H15.4553L15.9243 2.43498C15.9738 2.51433 16 2.60597 16 2.69949Z" fill="#EBEBEB"/>
</g>
<path d="M14.5472 1.1C14.5472 1.04477 14.592 1 14.6472 1H15.3529C15.4081 1 15.4529 1.04477 15.4529 1.1V1.69465H14.5472L14.5472 1.1Z" fill="#063EB1"/>
<path d="M7 12V15H17V12H7Z" fill="#E4E4E4"/>
<path d="M8 11V15H16V11H8Z" fill="#2B2B2A"/>
<path d="M7 14.5V15.5H17V14.5H7Z" fill="#E4E4E4"/>
<path d="M11.5 13.2V14.8C11.5 14.9105 11.5895 15 11.7 15H12.3C12.4105 15 12.5 14.9105 12.5 14.8V13.2C12.5 13.0895 12.4105 13 12.3 13H11.7C11.5895 13 11.5 13.0895 11.5 13.2Z" fill="#626262"/>
<path d="M12 13.1V13.4C12 13.4552 12.0448 13.5 12.1 13.5H12.9C12.9552 13.5 13 13.4552 13 13.4V13.1C13 13.0448 12.9552 13 12.9 13H12.1C12.0448 13 12 13.0448 12 13.1Z" fill="#626262"/>
<path d="M10 14.2V14.8C10 14.9105 10.0895 15 10.2 15H13.8C13.9105 15 14 14.9105 14 14.8V14.2C14 14.0895 13.9105 14 13.8 14H10.2C10.0895 14 10 14.0895 10 14.2Z" fill="#E4E4E4"/>
<path d="M15.3 11.5L14.2 11.5C14.0895 11.5 14 11.5895 14 11.7L14 13.3C14 13.4105 14.0895 13.5 14.2 13.5L15.3 13.5C15.4105 13.5 15.5 13.4105 15.5 13.3L15.5 11.7C15.5 11.5895 15.4105 11.5 15.3 11.5Z" fill="#323232"/>
<path d="M15.05 12.25L14.45 12.25C14.3395 12.25 14.25 12.3395 14.25 12.45L14.25 14.05C14.25 14.1605 14.3395 14.25 14.45 14.25L15.05 14.25C15.1605 14.25 15.25 14.1605 15.25 14.05L15.25 12.45C15.25 12.3395 15.1605 12.25 15.05 12.25Z" fill="#323232"/>
<path d="M9.8 11.75L8.2 11.75C8.08954 11.75 8 11.8395 8 11.95L8 13.55C8 13.6605 8.08954 13.75 8.2 13.75L9.8 13.75C9.91046 13.75 10 13.6605 10 13.55L10 11.95C10 11.8395 9.91046 11.75 9.8 11.75Z" fill="#E4E2E2"/>
<path d="M7 20.5V22H17V20.5H7Z" fill="#2B2B2A"/>
<path d="M7 18.5V19H17V18.5H7Z" fill="#4D4D4D"/>
<path d="M7 15.5V16H17V15.5H7Z" fill="#4D4D4D"/>
<path d="M7 10.5V11H17V10.5H7Z" fill="#4D4D4D"/>
<path d="M7 7V7.5H17V7H7Z" fill="#4D4D4D"/>
<path d="M7 19V20.5H13V19H7Z" fill="#2B2B2A"/>
<path d="M7 16V18.5H13V16H7Z" fill="#2B2B2A"/>
<path d="M7 11V12.5H13V11H7Z" fill="#2B2B2A"/>
<path d="M7 5V7H13V5H7Z" fill="#2B2B2A"/>
<path d="M7 7.5V10.5H13V7.5H7Z" fill="#2B2B2A"/>
<path d="M13 19V20.5H17V19H13Z" fill="#E4E4E4"/>
<path d="M13 16V18.5H17V16H13Z" fill="#E4E4E4"/>
<path d="M13 11V12.5H17V11H13Z" fill="#E4E4E4"/>
<path d="M13 5V7H17V5H13Z" fill="#E4E4E4"/>
<path d="M13 7.5V10.5H17V7.5H13Z" fill="#E4E4E4"/>
<path fill-rule="evenodd" clip-rule="evenodd" d="M6.25 5C6.25 4.58579 6.58579 4.25 7 4.25H17C17.4142 4.25 17.75 4.58579 17.75 5V22C17.75 22.4142 17.4142 22.75 17 22.75H7C6.58579 22.75 6.25 22.4142 6.25 22V5ZM7.75 5.75V21.25H16.25V5.75H7.75Z" fill="#333333"/>
<path d="M10 8.5H12V9H10V8.5Z" fill="#1F4AD2"/>
<path d="M10 17H12V17.5H10V17Z" fill="#1F4AD2"/>
<path d="M10 11.5H12V12H10V11.5Z" fill="#1F4AD2"/>
<path d="M10 19.5H12V20H10V19.5Z" fill="#1F4AD2"/>
<path fill-rule="evenodd" clip-rule="evenodd" d="M9.00001 12.7C9.02763 12.7 9.05001 12.7223 9.05001 12.75V13.5C9.05001 13.5276 9.02763 13.55 9.00001 13.55C8.9724 13.55 8.95001 13.5276 8.95001 13.5V12.75C8.95001 12.7223 8.9724 12.7 9.00001 12.7Z" fill="#80B5C2"/>
<defs>
<filter id="filter0_i_3274_1086" x="7.75" y="1.68262" width="2.25" height="3.09106" filterUnits="userSpaceOnUse" color-interpolation-filters="sRGB">
<feFlood flood-opacity="0" result="BackgroundImageFix"/>
<feBlend mode="normal" in="SourceGraphic" in2="BackgroundImageFix" result="shape"/>
<feColorMatrix in="SourceAlpha" type="matrix" values="0 0 0 0 0 0 0 0 0 0 0 0 0 0 0 0 0 0 127 0" result="hardAlpha"/>
<feOffset dx="-0.25"/>
<feGaussianBlur stdDeviation="0.25"/>
<feComposite in2="hardAlpha" operator="arithmetic" k2="-1" k3="1"/>
<feColorMatrix type="matrix" values="0 0 0 0 0 0 0 0 0 0 0 0 0 0 0 0 0 0 0.25 0"/>
<feBlend mode="normal" in2="shape" result="effect1_innerShadow_3274_1086"/>
</filter>
<filter id="filter1_i_3274_1086" x="10.75" y="1.68262" width="2.25" height="3.09106" filterUnits="userSpaceOnUse" color-interpolation-filters="sRGB">
<feFlood flood-opacity="0" result="BackgroundImageFix"/>
<feBlend mode="normal" in="SourceGraphic" in2="BackgroundImageFix" result="shape"/>
<feColorMatrix in="SourceAlpha" type="matrix" values="0 0 0 0 0 0 0 0 0 0 0 0 0 0 0 0 0 0 127 0" result="hardAlpha"/>
<feOffset dx="-0.25"/>
<feGaussianBlur stdDeviation="0.25"/>
<feComposite in2="hardAlpha" operator="arithmetic" k2="-1" k3="1"/>
<feColorMatrix type="matrix" values="0 0 0 0 0 0 0 0 0 0 0 0 0 0 0 0 0 0 0.25 0"/>
<feBlend mode="normal" in2="shape" result="effect1_innerShadow_3274_1086"/>
</filter>
<filter id="filter2_i_3274_1086" x="13.75" y="1.68262" width="2.25" height="3.09106" filterUnits="userSpaceOnUse" color-interpolation-filters="sRGB">
<feFlood flood-opacity="0" result="BackgroundImageFix"/>
<feBlend mode="normal" in="SourceGraphic" in2="BackgroundImageFix" result="shape"/>
<feColorMatrix in="SourceAlpha" type="matrix" values="0 0 0 0 0 0 0 0 0 0 0 0 0 0 0 0 0 0 127 0" result="hardAlpha"/>
<feOffset dx="-0.25"/>
<feGaussianBlur stdDeviation="0.25"/>
<feComposite in2="hardAlpha" operator="arithmetic" k2="-1" k3="1"/>
<feColorMatrix type="matrix" values="0 0 0 0 0 0 0 0 0 0 0 0 0 0 0 0 0 0 0.25 0"/>
<feBlend mode="normal" in2="shape" result="effect1_innerShadow_3274_1086"/>
</filter>
</defs>
</svg>
