<svg width="24" height="24" viewBox="0 0 24 24" fill="none" xmlns="http://www.w3.org/2000/svg">
<g filter="url(#filter0_i_3274_972)">
<path d="M9.47494 3.34907V6.30005C9.47494 6.41051 9.3854 6.50005 9.27494 6.50005H6.62499C6.51453 6.50005 6.42499 6.41051 6.42499 6.30005V3.3496C6.42499 3.19245 6.49888 3.04444 6.62448 2.94998L7.34999 2.40442H8.55321L9.27612 2.94997C9.40133 3.04445 9.47494 3.19222 9.47494 3.34907Z" fill="#EBEBEB"/>
</g>
<path d="M7.3501 1.6C7.3501 1.54477 7.39487 1.5 7.4501 1.5H8.45002C8.50525 1.5 8.55002 1.54477 8.55002 1.6V2.4204H7.3501L7.3501 1.6Z" fill="#556EA4"/>
<g filter="url(#filter1_i_3274_972)">
<path d="M13.5249 3.34907V6.30005C13.5249 6.41051 13.4354 6.50005 13.3249 6.50005H10.675C10.5645 6.50005 10.475 6.41051 10.475 6.30005V3.3496C10.475 3.19245 10.5489 3.04444 10.6745 2.94998L11.4 2.40442H12.6032L13.3261 2.94997C13.4513 3.04445 13.5249 3.19222 13.5249 3.34907Z" fill="#EBEBEB"/>
</g>
<path d="M11.4001 1.6C11.4001 1.54477 11.4449 1.5 11.5001 1.5H12.5C12.5552 1.5 12.6 1.54477 12.6 1.6V2.4204H11.4001L11.4001 1.6Z" fill="#556EA4"/>
<g filter="url(#filter2_i_3274_972)">
<path d="M17.5749 3.34907V6.30005C17.5749 6.41051 17.4853 6.50005 17.3749 6.50005H14.7249C14.6144 6.50005 14.5249 6.41051 14.5249 6.30005V3.3496C14.5249 3.19245 14.5988 3.04444 14.7244 2.94998L15.4499 2.40442H16.6531L17.376 2.94997C17.5012 3.04445 17.5749 3.19222 17.5749 3.34907Z" fill="#EBEBEB"/>
</g>
<path d="M15.45 1.6C15.45 1.54477 15.4948 1.5 15.55 1.5H16.5499C16.6052 1.5 16.6499 1.54477 16.6499 1.6V2.4204H15.45L15.45 1.6Z" fill="#556EA4"/>
<path d="M19 22H5L5.00003 17H19L19 22Z" fill="white"/>
<path fill-rule="evenodd" clip-rule="evenodd" d="M4.25003 17C4.25003 16.5858 4.58582 16.25 5.00003 16.25H19C19.1989 16.25 19.3897 16.329 19.5303 16.4697C19.671 16.6103 19.75 16.8011 19.75 17L19.75 22C19.75 22.4142 19.4142 22.75 19 22.75H5C4.80109 22.75 4.61032 22.671 4.46967 22.5303C4.32902 22.3897 4.25 22.1989 4.25 22L4.25003 17ZM5.75003 17.75L5.75 21.25H18.25L18.25 17.75H5.75003Z" fill="#333333"/>
<path d="M19 17H5L5.00003 12H19L19 17Z" fill="white"/>
<path fill-rule="evenodd" clip-rule="evenodd" d="M4.25003 12C4.25003 11.5858 4.58582 11.25 5.00003 11.25H19C19.1989 11.25 19.3897 11.329 19.5303 11.4697C19.671 11.6103 19.75 11.8011 19.75 12L19.75 17C19.75 17.4142 19.4142 17.75 19 17.75H5C4.80109 17.75 4.61032 17.671 4.46967 17.5303C4.32902 17.3897 4.25 17.1989 4.25 17L4.25003 12ZM5.75003 12.75L5.75 16.25H18.25L18.25 12.75H5.75003Z" fill="#333333"/>
<path d="M19 12H5L5.00003 5H19L19 12Z" fill="white"/>
<path fill-rule="evenodd" clip-rule="evenodd" d="M4.25003 5C4.25003 4.58578 4.58582 4.25 5.00003 4.25H19C19.1989 4.25 19.3897 4.32902 19.5303 4.46967C19.671 4.61032 19.75 4.80109 19.75 5L19.75 12C19.75 12.4142 19.4142 12.75 19 12.75H5C4.80109 12.75 4.61032 12.671 4.46967 12.5303C4.32902 12.3897 4.25 12.1989 4.25 12L4.25003 5ZM5.75003 5.75L5.75 11.25H18.25L18.25 5.75H5.75003Z" fill="#333333"/>
<path d="M10.9748 8.28246C11.0518 8.36996 11.0693 8.49246 11.0308 8.59396C11.0133 8.63596 10.9888 8.67446 10.9538 8.70596C10.8418 8.81096 10.7123 8.89146 10.5758 8.94746C10.5688 8.95096 10.5618 8.95446 10.5548 8.95446C10.5093 8.97196 10.4638 8.98596 10.4183 8.99996C10.3973 9.00346 10.3728 9.01046 10.3518 9.01396C10.2748 9.02796 10.1943 9.03496 10.1173 9.03496C10.0823 9.03496 10.0473 9.03496 10.0158 9.03146C10.0088 9.03146 10.0018 9.03146 9.99483 9.03146C9.86533 9.01746 9.74283 8.98596 9.62733 8.93696C9.60283 8.92646 9.58183 8.91246 9.55733 8.90196C9.55383 8.89846 9.54683 8.89496 9.53983 8.89146C9.52233 8.88446 9.50133 8.87046 9.48383 8.85996C9.46283 8.84596 9.44183 8.83196 9.42083 8.81796C9.34733 8.76896 9.27733 8.70946 9.21783 8.64296C9.21783 8.64296 9.21433 8.64296 9.21433 8.63946C9.20383 8.62896 9.19683 8.61846 9.18633 8.60796C9.18283 8.60446 9.17583 8.59746 9.17233 8.59046C9.13733 8.54846 9.10233 8.50296 9.07433 8.45396C8.95883 8.26846 8.89233 8.04796 8.89233 7.80996C8.89233 7.13796 9.44183 6.58496 10.1173 6.58496C10.3658 6.58496 10.6038 6.66196 10.8068 6.80196C10.8628 6.84046 10.9153 6.88246 10.9643 6.92796C11.0868 7.04696 11.0903 7.23946 10.9748 7.36196C10.8558 7.48096 10.6633 7.48446 10.5408 7.36896C10.4253 7.25696 10.2748 7.19746 10.1173 7.19746C10.0333 7.19746 9.95633 7.21496 9.88633 7.24296C9.73933 7.30246 9.62383 7.41446 9.55733 7.55446C9.52233 7.63496 9.50133 7.71896 9.50133 7.80996C9.50133 7.82396 9.50133 7.83796 9.50133 7.84846C9.50483 7.86596 9.50483 7.88346 9.50833 7.90096C9.52233 8.00246 9.56083 8.09346 9.62033 8.17396C9.62733 8.18446 9.63433 8.19146 9.64133 8.20196C9.65883 8.22296 9.67983 8.24396 9.70083 8.26496C9.70433 8.26846 9.71133 8.27196 9.71833 8.27896C9.74983 8.30696 9.78833 8.33146 9.82683 8.35246C9.83733 8.35946 9.84783 8.36646 9.85833 8.36996H9.86183C9.87233 8.37696 9.88283 8.38046 9.89333 8.38396C9.96333 8.41196 10.0368 8.42596 10.1173 8.42596C10.1383 8.42596 10.1628 8.42596 10.1838 8.42246C10.1873 8.42246 10.1943 8.42246 10.1978 8.41896C10.2118 8.41896 10.2293 8.41546 10.2468 8.41196C10.2538 8.41196 10.2608 8.40846 10.2678 8.40846C10.3658 8.38046 10.4603 8.33146 10.5373 8.26146C10.6073 8.19496 10.7018 8.16696 10.7893 8.18096C10.7963 8.18096 10.8033 8.18446 10.8103 8.18446C10.8348 8.19146 10.8593 8.19846 10.8838 8.21246C10.9153 8.22646 10.9433 8.24746 10.9678 8.27196C10.9713 8.27546 10.9748 8.27896 10.9748 8.28246Z" fill="#333333"/>
<path d="M8.5505 8.3805C8.722 8.3805 8.8585 8.5205 8.8585 8.692C8.8585 8.8635 8.722 9 8.5505 9H7.5005C7.3745 9 7.2555 8.923 7.21 8.804C7.196 8.7655 7.1925 8.7305 7.1925 8.692V6.921C7.1925 6.7495 7.329 6.6095 7.5005 6.6095C7.672 6.6095 7.812 6.7495 7.812 6.921V8.3805H8.5505Z" fill="#333333"/>
<defs>
<filter id="filter0_i_3274_972" x="6.17499" y="2.40442" width="3.29993" height="4.09558" filterUnits="userSpaceOnUse" color-interpolation-filters="sRGB">
<feFlood flood-opacity="0" result="BackgroundImageFix"/>
<feBlend mode="normal" in="SourceGraphic" in2="BackgroundImageFix" result="shape"/>
<feColorMatrix in="SourceAlpha" type="matrix" values="0 0 0 0 0 0 0 0 0 0 0 0 0 0 0 0 0 0 127 0" result="hardAlpha"/>
<feOffset dx="-0.25"/>
<feGaussianBlur stdDeviation="0.25"/>
<feComposite in2="hardAlpha" operator="arithmetic" k2="-1" k3="1"/>
<feColorMatrix type="matrix" values="0 0 0 0 0 0 0 0 0 0 0 0 0 0 0 0 0 0 0.25 0"/>
<feBlend mode="normal" in2="shape" result="effect1_innerShadow_3274_972"/>
</filter>
<filter id="filter1_i_3274_972" x="10.225" y="2.40442" width="3.29993" height="4.09558" filterUnits="userSpaceOnUse" color-interpolation-filters="sRGB">
<feFlood flood-opacity="0" result="BackgroundImageFix"/>
<feBlend mode="normal" in="SourceGraphic" in2="BackgroundImageFix" result="shape"/>
<feColorMatrix in="SourceAlpha" type="matrix" values="0 0 0 0 0 0 0 0 0 0 0 0 0 0 0 0 0 0 127 0" result="hardAlpha"/>
<feOffset dx="-0.25"/>
<feGaussianBlur stdDeviation="0.25"/>
<feComposite in2="hardAlpha" operator="arithmetic" k2="-1" k3="1"/>
<feColorMatrix type="matrix" values="0 0 0 0 0 0 0 0 0 0 0 0 0 0 0 0 0 0 0.25 0"/>
<feBlend mode="normal" in2="shape" result="effect1_innerShadow_3274_972"/>
</filter>
<filter id="filter2_i_3274_972" x="14.2749" y="2.40442" width="3.29993" height="4.09558" filterUnits="userSpaceOnUse" color-interpolation-filters="sRGB">
<feFlood flood-opacity="0" result="BackgroundImageFix"/>
<feBlend mode="normal" in="SourceGraphic" in2="BackgroundImageFix" result="shape"/>
<feColorMatrix in="SourceAlpha" type="matrix" values="0 0 0 0 0 0 0 0 0 0 0 0 0 0 0 0 0 0 127 0" result="hardAlpha"/>
<feOffset dx="-0.25"/>
<feGaussianBlur stdDeviation="0.25"/>
<feComposite in2="hardAlpha" operator="arithmetic" k2="-1" k3="1"/>
<feColorMatrix type="matrix" values="0 0 0 0 0 0 0 0 0 0 0 0 0 0 0 0 0 0 0.25 0"/>
<feBlend mode="normal" in2="shape" result="effect1_innerShadow_3274_972"/>
</filter>
</defs>
</svg>
