<svg width="24" height="24" viewBox="0 0 24 24" fill="none" xmlns="http://www.w3.org/2000/svg">
<g filter="url(#filter0_i_3274_1043)">
<path d="M8.26992 3.84907V6.80005C8.26992 6.91051 8.18038 7.00005 8.06992 7.00005H5.41997C5.30951 7.00005 5.21997 6.91051 5.21997 6.80005V3.8496C5.21997 3.69245 5.29386 3.54444 5.41946 3.44998L6.14497 2.90442H7.34819L8.07111 3.44997C8.19631 3.54445 8.26992 3.69222 8.26992 3.84907Z" fill="#EBEBEB"/>
</g>
<path d="M6.14508 2.1C6.14508 2.04477 6.18985 2 6.24508 2H7.24501C7.30024 2 7.34501 2.04477 7.34501 2.1V2.9204H6.14508L6.14508 2.1Z" fill="#556EA4"/>
<g filter="url(#filter1_i_3274_1043)">
<path d="M11.5199 3.84907V6.80005C11.5199 6.91051 11.4304 7.00005 11.3199 7.00005H8.66997C8.55951 7.00005 8.46997 6.91051 8.46997 6.80005V3.8496C8.46997 3.69245 8.54386 3.54444 8.66946 3.44998L9.39497 2.90442H10.5982L11.3211 3.44997C11.4463 3.54445 11.5199 3.69222 11.5199 3.84907Z" fill="#EBEBEB"/>
</g>
<path d="M9.39508 2.1C9.39508 2.04477 9.43985 2 9.49508 2H10.495C10.5502 2 10.595 2.04477 10.595 2.1V2.9204H9.39508L9.39508 2.1Z" fill="#556EA4"/>
<g filter="url(#filter2_i_3274_1043)">
<path d="M14.7698 3.84907V6.80005C14.7698 6.91051 14.6803 7.00005 14.5698 7.00005H11.9198C11.8094 7.00005 11.7198 6.91051 11.7198 6.80005V3.8496C11.7198 3.69245 11.7937 3.54444 11.9193 3.44998L12.6448 2.90442H13.8481L14.571 3.44997C14.6962 3.54445 14.7698 3.69222 14.7698 3.84907Z" fill="#EBEBEB"/>
</g>
<path d="M12.645 2.1C12.645 2.04477 12.6897 2 12.745 2H13.7449C13.8001 2 13.8449 2.04477 13.8449 2.1V2.9204H12.645L12.645 2.1Z" fill="#556EA4"/>
<path d="M5 6V8H15V6H5Z" fill="#E2E2EA"/>
<path d="M5 20V22H15V20H5Z" fill="#070707"/>
<path fill-rule="evenodd" clip-rule="evenodd" d="M15 8.02498H5V7.97498H15V8.02498Z" fill="#686C75"/>
<path d="M5 8V10.5H11V8H5Z" fill="#0D0D0D"/>
<path d="M13 8V10.5H15V8H13Z" fill="#7192CC"/>
<path d="M11 8V10.5H14V8H11Z" fill="#E2E2EA"/>
<path d="M5 10.3V10.5H11V10.3H5Z" fill="#7192CC"/>
<path fill-rule="evenodd" clip-rule="evenodd" d="M15 10.525H5V10.475H15V10.525Z" fill="#686C75"/>
<path d="M5 10.5V13H11V10.5H5Z" fill="#0D0D0D"/>
<path d="M13 10.5V13H15V10.5H13Z" fill="#7192CC"/>
<path d="M11 10.5V13H14V10.5H11Z" fill="#E2E2EA"/>
<path d="M5 12.8V13H11V12.8H5Z" fill="#7192CC"/>
<path fill-rule="evenodd" clip-rule="evenodd" d="M15 13.025H5V12.975H15V13.025Z" fill="#686C75"/>
<path d="M5 17V20H11V17H5Z" fill="#0D0D0D"/>
<path d="M13 17V20H15V17H13Z" fill="#7192CC"/>
<path d="M11 17V20H14V17H11Z" fill="#E2E2EA"/>
<path d="M5 19.8V20H11V19.8H5Z" fill="#7192CC"/>
<path fill-rule="evenodd" clip-rule="evenodd" d="M15 20.025H5V19.975H15V20.025Z" fill="#686C75"/>
<path d="M5 13V17H11V13H5Z" fill="#0D0D0D"/>
<path d="M13 13V17H15V13H13Z" fill="#7192CC"/>
<path d="M11 13V17H14V13H11Z" fill="#E2E2EA"/>
<path d="M5 16.8V17H11V16.8H5Z" fill="#7192CC"/>
<path d="M7 14.45V15.55C7 15.6605 7.08954 15.75 7.2 15.75H9.55C9.66046 15.75 9.75 15.6605 9.75 15.55V14.45C9.75 14.3395 9.66046 14.25 9.55 14.25H7.2C7.08954 14.25 7 14.3395 7 14.45Z" fill="#4F4F4F"/>
<path fill-rule="evenodd" clip-rule="evenodd" d="M15 17.025H5V16.975H15V17.025Z" fill="#686C75"/>
<path fill-rule="evenodd" clip-rule="evenodd" d="M4.25 6C4.25 5.58579 4.58579 5.25 5 5.25H15C15.4142 5.25 15.75 5.58579 15.75 6V22C15.75 22.4142 15.4142 22.75 15 22.75H5C4.58579 22.75 4.25 22.4142 4.25 22V6ZM5.75 6.75V21.25H14.25V6.75H5.75Z" fill="#333333"/>
<path d="M16 11V21H19V11H16Z" fill="#070707"/>
<path d="M15.5 11V21H16.5V11H15.5Z" fill="#D9D9D9"/>
<path d="M15 20V22H19V20H15Z" fill="#070707"/>
<path fill-rule="evenodd" clip-rule="evenodd" d="M14.25 11C14.25 10.5858 14.5858 10.25 15 10.25H19C19.4142 10.25 19.75 10.5858 19.75 11V22C19.75 22.4142 19.4142 22.75 19 22.75H15C14.5858 22.75 14.25 22.4142 14.25 22V11ZM15.75 11.75V21.25H18.25V11.75H15.75Z" fill="#333333"/>
<defs>
<filter id="filter0_i_3274_1043" x="4.96997" y="2.90442" width="3.29993" height="4.09558" filterUnits="userSpaceOnUse" color-interpolation-filters="sRGB">
<feFlood flood-opacity="0" result="BackgroundImageFix"/>
<feBlend mode="normal" in="SourceGraphic" in2="BackgroundImageFix" result="shape"/>
<feColorMatrix in="SourceAlpha" type="matrix" values="0 0 0 0 0 0 0 0 0 0 0 0 0 0 0 0 0 0 127 0" result="hardAlpha"/>
<feOffset dx="-0.25"/>
<feGaussianBlur stdDeviation="0.25"/>
<feComposite in2="hardAlpha" operator="arithmetic" k2="-1" k3="1"/>
<feColorMatrix type="matrix" values="0 0 0 0 0 0 0 0 0 0 0 0 0 0 0 0 0 0 0.25 0"/>
<feBlend mode="normal" in2="shape" result="effect1_innerShadow_3274_1043"/>
</filter>
<filter id="filter1_i_3274_1043" x="8.21997" y="2.90442" width="3.29993" height="4.09558" filterUnits="userSpaceOnUse" color-interpolation-filters="sRGB">
<feFlood flood-opacity="0" result="BackgroundImageFix"/>
<feBlend mode="normal" in="SourceGraphic" in2="BackgroundImageFix" result="shape"/>
<feColorMatrix in="SourceAlpha" type="matrix" values="0 0 0 0 0 0 0 0 0 0 0 0 0 0 0 0 0 0 127 0" result="hardAlpha"/>
<feOffset dx="-0.25"/>
<feGaussianBlur stdDeviation="0.25"/>
<feComposite in2="hardAlpha" operator="arithmetic" k2="-1" k3="1"/>
<feColorMatrix type="matrix" values="0 0 0 0 0 0 0 0 0 0 0 0 0 0 0 0 0 0 0.25 0"/>
<feBlend mode="normal" in2="shape" result="effect1_innerShadow_3274_1043"/>
</filter>
<filter id="filter2_i_3274_1043" x="11.4698" y="2.90442" width="3.29993" height="4.09558" filterUnits="userSpaceOnUse" color-interpolation-filters="sRGB">
<feFlood flood-opacity="0" result="BackgroundImageFix"/>
<feBlend mode="normal" in="SourceGraphic" in2="BackgroundImageFix" result="shape"/>
<feColorMatrix in="SourceAlpha" type="matrix" values="0 0 0 0 0 0 0 0 0 0 0 0 0 0 0 0 0 0 127 0" result="hardAlpha"/>
<feOffset dx="-0.25"/>
<feGaussianBlur stdDeviation="0.25"/>
<feComposite in2="hardAlpha" operator="arithmetic" k2="-1" k3="1"/>
<feColorMatrix type="matrix" values="0 0 0 0 0 0 0 0 0 0 0 0 0 0 0 0 0 0 0.25 0"/>
<feBlend mode="normal" in2="shape" result="effect1_innerShadow_3274_1043"/>
</filter>
</defs>
</svg>
