<svg width="24" height="24" viewBox="0 0 24 24" fill="none" xmlns="http://www.w3.org/2000/svg">
<g filter="url(#filter0_i_3274_1246)">
<path d="M7 7.27344V9.57358C7 9.68403 6.91046 9.77358 6.8 9.77358H5.2C5.08954 9.77358 5 9.68403 5 9.57358V7.2737C5 7.21777 5.02342 7.16439 5.06458 7.12652L5.54718 6.6825H6.45528L6.93575 7.12656C6.97671 7.16442 7 7.21766 7 7.27344Z" fill="#EBEBEB"/>
</g>
<path d="M5.54742 6.1C5.54742 6.04477 5.5922 6 5.64742 6H6.35304C6.40827 6 6.45304 6.04477 6.45304 6.1V6.69465H5.54742L5.54742 6.1Z" fill="#546DA2"/>
<path d="M4 9V22H20V9H4Z" fill="#3D4458"/>
<path d="M6 11.2V21.8C6 21.9105 6.08954 22 6.2 22H19.8C19.9105 22 20 21.9105 20 21.8V11.2C20 11.0895 19.9105 11 19.8 11H6.2C6.08954 11 6 11.0895 6 11.2Z" fill="#1A1A1B"/>
<path d="M6 16.2V18.8C6 18.9105 6.08954 19 6.2 19H14.3C14.4105 19 14.5 18.9105 14.5 18.8V16H6.2C6.08954 16 6 16.0895 6 16.2Z" fill="#B7B7B7"/>
<path fill-rule="evenodd" clip-rule="evenodd" d="M3.25 9C3.25 8.58579 3.58579 8.25 4 8.25H20C20.4142 8.25 20.75 8.58579 20.75 9V22C20.75 22.4142 20.4142 22.75 20 22.75H4C3.58579 22.75 3.25 22.4142 3.25 22V9ZM4.75 9.75V21.25H19.25V9.75H4.75Z" fill="#333333"/>
<path d="M13 2V16H14.5V2.2C14.5 2.08954 14.4105 2 14.3 2H13Z" fill="#B7B7B7"/>
<path d="M11 2.2V16H13.5V2H11.2C11.0895 2 11 2.08954 11 2.2Z" fill="#D9D9D9"/>
<path d="M11 9.2V16H13.5V9H11.2C11.0895 9 11 9.08954 11 9.2Z" fill="#717174"/>
<defs>
<filter id="filter0_i_3274_1246" x="4.75" y="6.6825" width="2.25" height="3.09106" filterUnits="userSpaceOnUse" color-interpolation-filters="sRGB">
<feFlood flood-opacity="0" result="BackgroundImageFix"/>
<feBlend mode="normal" in="SourceGraphic" in2="BackgroundImageFix" result="shape"/>
<feColorMatrix in="SourceAlpha" type="matrix" values="0 0 0 0 0 0 0 0 0 0 0 0 0 0 0 0 0 0 127 0" result="hardAlpha"/>
<feOffset dx="-0.25"/>
<feGaussianBlur stdDeviation="0.25"/>
<feComposite in2="hardAlpha" operator="arithmetic" k2="-1" k3="1"/>
<feColorMatrix type="matrix" values="0 0 0 0 0 0 0 0 0 0 0 0 0 0 0 0 0 0 0.25 0"/>
<feBlend mode="normal" in2="shape" result="effect1_innerShadow_3274_1246"/>
</filter>
</defs>
</svg>
