<svg width="24" height="24" viewBox="0 0 24 24" fill="none" xmlns="http://www.w3.org/2000/svg">
<g filter="url(#filter0_i_3274_1277)">
<path d="M9 2.77344V5.07358C9 5.18403 8.91046 5.27358 8.8 5.27358H7.2C7.08954 5.27358 7 5.18403 7 5.07358V2.7737C7 2.71777 7.02342 2.66439 7.06458 2.62652L7.54718 2.1825H8.45528L8.93575 2.62656C8.97671 2.66442 9 2.71766 9 2.77344Z" fill="#EBEBEB"/>
</g>
<path d="M7.54742 1.6C7.54742 1.54477 7.5922 1.5 7.64742 1.5H8.35304C8.40827 1.5 8.45304 1.54477 8.45304 1.6V2.19465H7.54742L7.54742 1.6Z" fill="#3D3D3F"/>
<path d="M6 5V8.5H18V5H6Z" fill="#E7E7E8"/>
<path d="M7 6V6.4H9V6H7Z" fill="#4A8EC2"/>
<path d="M6 8.5V12H18V8.5H6Z" fill="#E7E7E8"/>
<path d="M6 15V18.5H18V15H6Z" fill="#E7E7E8"/>
<path d="M6 18V21.5H18V18H6Z" fill="#E7E7E8"/>
<path d="M6 12V15.5H12V12H6Z" fill="#414046"/>
<path d="M12 12V15.5H18V12H12Z" fill="#51535F"/>
<path fill-rule="evenodd" clip-rule="evenodd" d="M17.5 8.60002H6V8.40002H17.5V8.60002Z" fill="#09131D"/>
<path fill-rule="evenodd" clip-rule="evenodd" d="M17.5 12.1H6V11.9H17.5V12.1Z" fill="#09131D"/>
<path fill-rule="evenodd" clip-rule="evenodd" d="M17.5 15.6H6V15.4H17.5V15.6Z" fill="#09131D"/>
<path fill-rule="evenodd" clip-rule="evenodd" d="M17.5 18.6H6V18.4H17.5V18.6Z" fill="#09131D"/>
<path fill-rule="evenodd" clip-rule="evenodd" d="M5.25 5C5.25 4.58579 5.58579 4.25 6 4.25H18C18.4142 4.25 18.75 4.58579 18.75 5V22C18.75 22.4142 18.4142 22.75 18 22.75H6C5.58579 22.75 5.25 22.4142 5.25 22V5ZM6.75 5.75V21.25H17.25V5.75H6.75Z" fill="#B3B3B3"/>
<defs>
<filter id="filter0_i_3274_1277" x="6.75" y="2.1825" width="2.25" height="3.09106" filterUnits="userSpaceOnUse" color-interpolation-filters="sRGB">
<feFlood flood-opacity="0" result="BackgroundImageFix"/>
<feBlend mode="normal" in="SourceGraphic" in2="BackgroundImageFix" result="shape"/>
<feColorMatrix in="SourceAlpha" type="matrix" values="0 0 0 0 0 0 0 0 0 0 0 0 0 0 0 0 0 0 127 0" result="hardAlpha"/>
<feOffset dx="-0.25"/>
<feGaussianBlur stdDeviation="0.25"/>
<feComposite in2="hardAlpha" operator="arithmetic" k2="-1" k3="1"/>
<feColorMatrix type="matrix" values="0 0 0 0 0 0 0 0 0 0 0 0 0 0 0 0 0 0 0.25 0"/>
<feBlend mode="normal" in2="shape" result="effect1_innerShadow_3274_1277"/>
</filter>
</defs>
</svg>
