<svg width="24" height="24" viewBox="0 0 24 24" fill="none" xmlns="http://www.w3.org/2000/svg">
<g filter="url(#filter0_i_3274_1504)">
<path d="M9.54995 2.84913V5.80012C9.54995 5.91057 9.46041 6.00012 9.34995 6.00012H6.7C6.58954 6.00012 6.5 5.91057 6.5 5.80012V2.84967C6.5 2.69251 6.57389 2.5445 6.69949 2.45005L7.425 1.90448H8.62822L9.35114 2.45003C9.47634 2.54451 9.54995 2.69228 9.54995 2.84913Z" fill="#EBEBEB"/>
</g>
<path d="M7.42511 1.1C7.42511 1.04477 7.46988 1 7.52511 1H8.52504C8.58026 1 8.62504 1.04477 8.62504 1.1V1.9204H7.42511L7.42511 1.1Z" fill="#556EA4"/>
<g filter="url(#filter1_i_3274_1504)">
<path d="M13.5999 2.84913V5.80012C13.5999 5.91057 13.5103 6.00012 13.3999 6.00012H10.7499C10.6395 6.00012 10.5499 5.91057 10.5499 5.80012V2.84967C10.5499 2.69251 10.6238 2.5445 10.7494 2.45005L11.4749 1.90448H12.6781L13.4011 2.45003C13.5263 2.54451 13.5999 2.69228 13.5999 2.84913Z" fill="#EBEBEB"/>
</g>
<path d="M11.475 1.1C11.475 1.04477 11.5198 1 11.575 1H12.575C12.6302 1 12.675 1.04477 12.675 1.1V1.9204H11.475L11.475 1.1Z" fill="#556EA4"/>
<g filter="url(#filter2_i_3274_1504)">
<path d="M17.6499 2.84913V5.80012C17.6499 5.91057 17.5603 6.00012 17.4499 6.00012H14.7999C14.6895 6.00012 14.5999 5.91057 14.5999 5.80012V2.84967C14.5999 2.69251 14.6738 2.5445 14.7994 2.45005L15.5249 1.90448H16.7281L17.4511 2.45003C17.5763 2.54451 17.6499 2.69228 17.6499 2.84913Z" fill="#EBEBEB"/>
</g>
<path d="M15.525 1.1C15.525 1.04477 15.5698 1 15.625 1H16.625C16.6802 1 16.725 1.04477 16.725 1.1V1.9204H15.525L15.525 1.1Z" fill="#556EA4"/>
<path d="M5 11V22H14V11H5Z" fill="#1D1D1F"/>
<path d="M6.5 11.7V17.8C6.5 17.9105 6.58954 18 6.7 18H12.3C12.4105 18 12.5 17.9105 12.5 17.8V11.7C12.5 11.5895 12.4105 11.5 12.3 11.5H6.7C6.58954 11.5 6.5 11.5895 6.5 11.7Z" fill="#E4E6E5"/>
<path d="M6.75 11.95V17.55C6.75 17.6605 6.83954 17.75 6.95 17.75H12.05C12.1605 17.75 12.25 17.6605 12.25 17.55V11.95C12.25 11.8395 12.1605 11.75 12.05 11.75H6.95C6.83954 11.75 6.75 11.8395 6.75 11.95Z" fill="#3B3B3B"/>
<path fill-rule="evenodd" clip-rule="evenodd" d="M7.50001 15.95C7.52763 15.95 7.55001 15.9724 7.55001 16V17.45H11.45V16C11.45 15.9724 11.4724 15.95 11.5 15.95C11.5276 15.95 11.55 15.9724 11.55 16V17.5C11.55 17.5276 11.5276 17.55 11.5 17.55H7.50001C7.4724 17.55 7.45001 17.5276 7.45001 17.5V16C7.45001 15.9724 7.4724 15.95 7.50001 15.95Z" fill="#020204"/>
<path fill-rule="evenodd" clip-rule="evenodd" d="M7.50001 15.95C7.52763 15.95 7.55001 15.9724 7.55001 16V17.45H11.45V16C11.45 15.9724 11.4724 15.95 11.5 15.95C11.5276 15.95 11.55 15.9724 11.55 16V17.5C11.55 17.5276 11.5276 17.55 11.5 17.55H7.50001C7.4724 17.55 7.45001 17.5276 7.45001 17.5V16C7.45001 15.9724 7.4724 15.95 7.50001 15.95Z" fill="#020204"/>
<path fill-rule="evenodd" clip-rule="evenodd" d="M8.00001 15.95C8.02763 15.95 8.05001 15.9724 8.05001 16V16.95H10.95V16C10.95 15.9724 10.9724 15.95 11 15.95C11.0276 15.95 11.05 15.9724 11.05 16V17C11.05 17.0276 11.0276 17.05 11 17.05H8.00001C7.9724 17.05 7.95001 17.0276 7.95001 17V16C7.95001 15.9724 7.9724 15.95 8.00001 15.95Z" fill="#020204"/>
<path fill-rule="evenodd" clip-rule="evenodd" d="M7.75001 15.95C7.77763 15.95 7.80001 15.9724 7.80001 16V17.2H11.2V16C11.2 15.9724 11.2224 15.95 11.25 15.95C11.2776 15.95 11.3 15.9724 11.3 16V17.25C11.3 17.2776 11.2776 17.3 11.25 17.3H7.75001C7.7224 17.3 7.70001 17.2776 7.70001 17.25V16C7.70001 15.9724 7.7224 15.95 7.75001 15.95Z" fill="#020204"/>
<path d="M7 15.7V16.3C7 16.4105 7.08954 16.5 7.2 16.5H11.8C11.9105 16.5 12 16.4105 12 16.3V15.7C12 15.5895 11.9105 15.5 11.8 15.5H7.2C7.08954 15.5 7 15.5895 7 15.7Z" fill="#1E1E20"/>
<path d="M7 14.7V15.8C7 15.9105 7.08954 16 7.2 16H11.8C11.9105 16 12 15.9105 12 15.8V14.7C12 14.5895 11.9105 14.5 11.8 14.5H7.2C7.08954 14.5 7 14.5895 7 14.7Z" fill="#505155"/>
<path d="M5 6V11H14V6H5Z" fill="#68676D"/>
<path d="M14 6V22H15V6H14Z" fill="#CECECC"/>
<path d="M5 4V6H19V4H5Z" fill="#68676D"/>
<path d="M15 6V22H19V6H15Z" fill="#DFDFDF"/>
<path fill-rule="evenodd" clip-rule="evenodd" d="M14 19.05V18.95H19V19.05H14Z" fill="#21211F"/>
<path fill-rule="evenodd" clip-rule="evenodd" d="M9.44999 16L9.44999 14.5L9.54999 14.5L9.54999 16L9.44999 16Z" fill="#21211F"/>
<path fill-rule="evenodd" clip-rule="evenodd" d="M14.95 6L15.05 6L15.05 22L14.95 22L14.95 6Z" fill="#21211F"/>
<path fill-rule="evenodd" clip-rule="evenodd" d="M5.5 11.05V10.95H14V11.05H5.5Z" fill="black"/>
<path fill-rule="evenodd" clip-rule="evenodd" d="M5.5 6.05001V5.95001H18.5V6.05001H5.5Z" fill="black"/>
<path fill-rule="evenodd" clip-rule="evenodd" d="M4.25 4C4.25 3.58579 4.58579 3.25 5 3.25H19C19.4142 3.25 19.75 3.58579 19.75 4V22C19.75 22.4142 19.4142 22.75 19 22.75H5C4.58579 22.75 4.25 22.4142 4.25 22V4ZM5.75 4.75V21.25H18.25V4.75H5.75Z" fill="#333333"/>
<path fill-rule="evenodd" clip-rule="evenodd" d="M7 6.75C7.13807 6.75 7.25 6.86193 7.25 7V9C7.25 9.13807 7.13807 9.25 7 9.25C6.86193 9.25 6.75 9.13807 6.75 9V7C6.75 6.86193 6.86193 6.75 7 6.75Z" fill="#73C95A"/>
<path d="M7.25 10.25C7.25 10.3881 7.13807 10.5 7 10.5C6.86193 10.5 6.75 10.3881 6.75 10.25C6.75 10.1119 6.86193 10 7 10C7.13807 10 7.25 10.1119 7.25 10.25Z" fill="#1F1E23"/>
<path d="M8.5 6.95V10.05C8.5 10.1605 8.58954 10.25 8.7 10.25H12.3C12.4105 10.25 12.5 10.1605 12.5 10.05V6.95C12.5 6.83954 12.4105 6.75 12.3 6.75H8.7C8.58954 6.75 8.5 6.83954 8.5 6.95Z" fill="white"/>
<path fill-rule="evenodd" clip-rule="evenodd" d="M8.75 7V10H12.25V7H8.75ZM8.25 6.95C8.25 6.70147 8.45147 6.5 8.7 6.5H12.3C12.5485 6.5 12.75 6.70147 12.75 6.95V10.05C12.75 10.2985 12.5485 10.5 12.3 10.5H8.7C8.45147 10.5 8.25 10.2985 8.25 10.05V6.95Z" fill="#333333"/>
<path d="M10.75 9.65002C10.75 9.7881 10.6381 9.90002 10.5 9.90002C10.3619 9.90002 10.25 9.7881 10.25 9.65002C10.25 9.51195 10.3619 9.40002 10.5 9.40002C10.6381 9.40002 10.75 9.51195 10.75 9.65002Z" fill="#333333"/>
<path fill-rule="evenodd" clip-rule="evenodd" d="M12.2581 9.25H8.75V8.75H12.2581V9.25Z" fill="#333333"/>
<path fill-rule="evenodd" clip-rule="evenodd" d="M10.4268 7.47325C10.5244 7.57088 10.5244 7.72917 10.4268 7.8268L9.92678 8.3268C9.82915 8.42443 9.67085 8.42443 9.57322 8.3268C9.47559 8.22917 9.47559 8.07088 9.57322 7.97325L10.0732 7.47325C10.1709 7.37562 10.3291 7.37562 10.4268 7.47325Z" fill="#333333"/>
<path fill-rule="evenodd" clip-rule="evenodd" d="M11.4268 7.57322C11.5244 7.67085 11.5244 7.82915 11.4268 7.92678L11.1768 8.17678C11.0791 8.27441 10.9209 8.27441 10.8232 8.17678C10.7256 8.07915 10.7256 7.92085 10.8232 7.82322L11.0732 7.57322C11.1709 7.47559 11.3291 7.47559 11.4268 7.57322Z" fill="#333333"/>
<defs>
<filter id="filter0_i_3274_1504" x="6.25" y="1.90448" width="3.29993" height="4.09564" filterUnits="userSpaceOnUse" color-interpolation-filters="sRGB">
<feFlood flood-opacity="0" result="BackgroundImageFix"/>
<feBlend mode="normal" in="SourceGraphic" in2="BackgroundImageFix" result="shape"/>
<feColorMatrix in="SourceAlpha" type="matrix" values="0 0 0 0 0 0 0 0 0 0 0 0 0 0 0 0 0 0 127 0" result="hardAlpha"/>
<feOffset dx="-0.25"/>
<feGaussianBlur stdDeviation="0.25"/>
<feComposite in2="hardAlpha" operator="arithmetic" k2="-1" k3="1"/>
<feColorMatrix type="matrix" values="0 0 0 0 0 0 0 0 0 0 0 0 0 0 0 0 0 0 0.25 0"/>
<feBlend mode="normal" in2="shape" result="effect1_innerShadow_3274_1504"/>
</filter>
<filter id="filter1_i_3274_1504" x="10.2999" y="1.90448" width="3.29993" height="4.09564" filterUnits="userSpaceOnUse" color-interpolation-filters="sRGB">
<feFlood flood-opacity="0" result="BackgroundImageFix"/>
<feBlend mode="normal" in="SourceGraphic" in2="BackgroundImageFix" result="shape"/>
<feColorMatrix in="SourceAlpha" type="matrix" values="0 0 0 0 0 0 0 0 0 0 0 0 0 0 0 0 0 0 127 0" result="hardAlpha"/>
<feOffset dx="-0.25"/>
<feGaussianBlur stdDeviation="0.25"/>
<feComposite in2="hardAlpha" operator="arithmetic" k2="-1" k3="1"/>
<feColorMatrix type="matrix" values="0 0 0 0 0 0 0 0 0 0 0 0 0 0 0 0 0 0 0.25 0"/>
<feBlend mode="normal" in2="shape" result="effect1_innerShadow_3274_1504"/>
</filter>
<filter id="filter2_i_3274_1504" x="14.3499" y="1.90448" width="3.29993" height="4.09564" filterUnits="userSpaceOnUse" color-interpolation-filters="sRGB">
<feFlood flood-opacity="0" result="BackgroundImageFix"/>
<feBlend mode="normal" in="SourceGraphic" in2="BackgroundImageFix" result="shape"/>
<feColorMatrix in="SourceAlpha" type="matrix" values="0 0 0 0 0 0 0 0 0 0 0 0 0 0 0 0 0 0 127 0" result="hardAlpha"/>
<feOffset dx="-0.25"/>
<feGaussianBlur stdDeviation="0.25"/>
<feComposite in2="hardAlpha" operator="arithmetic" k2="-1" k3="1"/>
<feColorMatrix type="matrix" values="0 0 0 0 0 0 0 0 0 0 0 0 0 0 0 0 0 0 0.25 0"/>
<feBlend mode="normal" in2="shape" result="effect1_innerShadow_3274_1504"/>
</filter>
</defs>
</svg>
