<svg width="24" height="24" viewBox="0 0 24 24" fill="none" xmlns="http://www.w3.org/2000/svg">
<path d="M5 19.5V21.5H14V19.5H5Z" fill="#2D4957"/>
<g filter="url(#filter0_i_3274_1464)">
<path d="M8 2.7735V5.07364C8 5.18409 7.91046 5.27364 7.8 5.27364H6.2C6.08954 5.27364 6 5.18409 6 5.07364V2.77376C6 2.71783 6.02342 2.66446 6.06458 2.62658L6.54718 2.18256H7.45528L7.93575 2.62662C7.97671 2.66448 8 2.71772 8 2.7735Z" fill="#EBEBEB"/>
</g>
<path d="M6.54742 1.6C6.54742 1.54477 6.5922 1.5 6.64742 1.5H7.35304C7.40827 1.5 7.45304 1.54477 7.45304 1.6V2.19465H6.54742L6.54742 1.6Z" fill="#ECECEC"/>
<g filter="url(#filter1_i_3274_1464)">
<path d="M12 2.7735V5.07364C12 5.18409 11.9105 5.27364 11.8 5.27364H10.2C10.0895 5.27364 10 5.18409 10 5.07364V2.77376C10 2.71783 10.0234 2.66446 10.0646 2.62658L10.5472 2.18256H11.4553L11.9357 2.62662C11.9767 2.66448 12 2.71772 12 2.7735Z" fill="#EBEBEB"/>
</g>
<path d="M10.5474 1.6C10.5474 1.54477 10.5922 1.5 10.6474 1.5H11.353C11.4083 1.5 11.453 1.54477 11.453 1.6V2.19465H10.5474L10.5474 1.6Z" fill="#ECECEC"/>
<g filter="url(#filter2_i_3274_1464)">
<path d="M9.5 3.2735V5.57364C9.5 5.68409 9.41046 5.77364 9.3 5.77364H7.7C7.58954 5.77364 7.5 5.68409 7.5 5.57364V3.27376C7.5 3.21783 7.52342 3.16446 7.56458 3.12658L8.04718 2.68256H8.95528L9.43575 3.12662C9.47671 3.16448 9.5 3.21772 9.5 3.2735Z" fill="#EBEBEB"/>
</g>
<path d="M8.04742 2.1C8.04742 2.04477 8.0922 2 8.14742 2H8.85304C8.90827 2 8.95304 2.04477 8.95304 2.1V2.69465H8.04742L8.04742 2.1Z" fill="#ECECEC"/>
<g filter="url(#filter3_i_3274_1464)">
<path d="M13.5 3.2735V5.57364C13.5 5.68409 13.4105 5.77364 13.3 5.77364H11.7C11.5895 5.77364 11.5 5.68409 11.5 5.57364V3.27376C11.5 3.21783 11.5234 3.16446 11.5646 3.12658L12.0472 2.68256H12.9553L13.4357 3.12662C13.4767 3.16448 13.5 3.21772 13.5 3.2735Z" fill="#EBEBEB"/>
</g>
<path d="M12.0474 2.1C12.0474 2.04477 12.0922 2 12.1474 2H12.853C12.9083 2 12.953 2.04477 12.953 2.1V2.69465H12.0474L12.0474 2.1Z" fill="#ECECEC"/>
<path d="M5 15V20H14V15H5Z" fill="#122023"/>
<path d="M5 12V15H14V12H5Z" fill="#2D4754"/>
<path d="M5 9V12H14V9H5Z" fill="#2D4754"/>
<path d="M5 7V9H14V7H5Z" fill="#2D4754"/>
<path d="M5 4V7H14V4H5Z" fill="#2D4754"/>
<path d="M14 13V22H19V13H14Z" fill="#2D4754"/>
<path d="M14 9V13H19V9H14Z" fill="#182B32"/>
<path d="M5 15V18H8V15H5Z" fill="#192B33"/>
<path d="M5 12V15H8V12H5Z" fill="#192B33"/>
<path d="M5 9V12H8V9H5Z" fill="#192B33"/>
<path d="M5 7V9H8V7H5Z" fill="#192B33"/>
<path d="M5 17V19.5H10V17H5Z" fill="#2D4957"/>
<path fill-rule="evenodd" clip-rule="evenodd" d="M14 19.6H5V19.4H14V19.6Z" fill="black"/>
<path fill-rule="evenodd" clip-rule="evenodd" d="M14 15.1H5V14.9H14V15.1Z" fill="black"/>
<path fill-rule="evenodd" clip-rule="evenodd" d="M14 12.1H5V11.9H14V12.1Z" fill="black"/>
<path fill-rule="evenodd" clip-rule="evenodd" d="M14 9.10002H5V8.90002H14V9.10002Z" fill="black"/>
<path fill-rule="evenodd" clip-rule="evenodd" d="M14 7.10002H5V6.90002H14V7.10002Z" fill="black"/>
<path fill-rule="evenodd" clip-rule="evenodd" d="M4.25 4C4.25 3.58579 4.58579 3.25 5 3.25H14C14.4142 3.25 14.75 3.58579 14.75 4V22C14.75 22.4142 14.4142 22.75 14 22.75H5C4.58579 22.75 4.25 22.4142 4.25 22V4ZM5.75 4.75V21.25H13.25V4.75H5.75Z" fill="#333333"/>
<path fill-rule="evenodd" clip-rule="evenodd" d="M13.25 9C13.25 8.58579 13.5858 8.25 14 8.25H19C19.4142 8.25 19.75 8.58579 19.75 9V22C19.75 22.4142 19.4142 22.75 19 22.75H14C13.5858 22.75 13.25 22.4142 13.25 22V9ZM14.75 9.75V21.25H18.25V9.75H14.75Z" fill="#333333"/>
<path d="M7.5 4.2V6.8C7.5 6.91046 7.58954 7 7.7 7H11.3C11.4105 7 11.5 6.91046 11.5 6.8V4.2C11.5 4.08954 11.4105 4 11.3 4H7.7C7.58954 4 7.5 4.08954 7.5 4.2Z" fill="white"/>
<path fill-rule="evenodd" clip-rule="evenodd" d="M7.75 4.25V6.75H11.25V4.25H7.75ZM7.25 4.2C7.25 3.95147 7.45147 3.75 7.7 3.75H11.3C11.5485 3.75 11.75 3.95147 11.75 4.2V6.8C11.75 7.04853 11.5485 7.25 11.3 7.25H7.7C7.45147 7.25 7.25 7.04853 7.25 6.8V4.2Z" fill="#333333"/>
<path d="M9.75 6.34998C9.75 6.48805 9.63807 6.59998 9.5 6.59998C9.36193 6.59998 9.25 6.48805 9.25 6.34998C9.25 6.2119 9.36193 6.09998 9.5 6.09998C9.63807 6.09998 9.75 6.2119 9.75 6.34998Z" fill="#333333"/>
<path fill-rule="evenodd" clip-rule="evenodd" d="M11.2581 6H7.75V5.5H11.2581V6Z" fill="#333333"/>
<path fill-rule="evenodd" clip-rule="evenodd" d="M9.42678 4.4232C9.52441 4.52083 9.52441 4.67912 9.42678 4.77675L8.92678 5.27675C8.82915 5.37438 8.67085 5.37438 8.57322 5.27675C8.47559 5.17912 8.47559 5.02083 8.57322 4.9232L9.07322 4.4232C9.17085 4.32557 9.32915 4.32557 9.42678 4.4232Z" fill="#333333"/>
<path fill-rule="evenodd" clip-rule="evenodd" d="M10.4268 4.57322C10.5244 4.67085 10.5244 4.82915 10.4268 4.92678L10.1768 5.17678C10.0791 5.27441 9.92085 5.27441 9.82322 5.17678C9.72559 5.07915 9.72559 4.92085 9.82322 4.82322L10.0732 4.57322C10.1709 4.47559 10.3291 4.47559 10.4268 4.57322Z" fill="#333333"/>
<defs>
<filter id="filter0_i_3274_1464" x="5.75" y="2.18256" width="2.25" height="3.09106" filterUnits="userSpaceOnUse" color-interpolation-filters="sRGB">
<feFlood flood-opacity="0" result="BackgroundImageFix"/>
<feBlend mode="normal" in="SourceGraphic" in2="BackgroundImageFix" result="shape"/>
<feColorMatrix in="SourceAlpha" type="matrix" values="0 0 0 0 0 0 0 0 0 0 0 0 0 0 0 0 0 0 127 0" result="hardAlpha"/>
<feOffset dx="-0.25"/>
<feGaussianBlur stdDeviation="0.25"/>
<feComposite in2="hardAlpha" operator="arithmetic" k2="-1" k3="1"/>
<feColorMatrix type="matrix" values="0 0 0 0 0 0 0 0 0 0 0 0 0 0 0 0 0 0 0.25 0"/>
<feBlend mode="normal" in2="shape" result="effect1_innerShadow_3274_1464"/>
</filter>
<filter id="filter1_i_3274_1464" x="9.75" y="2.18256" width="2.25" height="3.09106" filterUnits="userSpaceOnUse" color-interpolation-filters="sRGB">
<feFlood flood-opacity="0" result="BackgroundImageFix"/>
<feBlend mode="normal" in="SourceGraphic" in2="BackgroundImageFix" result="shape"/>
<feColorMatrix in="SourceAlpha" type="matrix" values="0 0 0 0 0 0 0 0 0 0 0 0 0 0 0 0 0 0 127 0" result="hardAlpha"/>
<feOffset dx="-0.25"/>
<feGaussianBlur stdDeviation="0.25"/>
<feComposite in2="hardAlpha" operator="arithmetic" k2="-1" k3="1"/>
<feColorMatrix type="matrix" values="0 0 0 0 0 0 0 0 0 0 0 0 0 0 0 0 0 0 0.25 0"/>
<feBlend mode="normal" in2="shape" result="effect1_innerShadow_3274_1464"/>
</filter>
<filter id="filter2_i_3274_1464" x="7.25" y="2.68256" width="2.25" height="3.09106" filterUnits="userSpaceOnUse" color-interpolation-filters="sRGB">
<feFlood flood-opacity="0" result="BackgroundImageFix"/>
<feBlend mode="normal" in="SourceGraphic" in2="BackgroundImageFix" result="shape"/>
<feColorMatrix in="SourceAlpha" type="matrix" values="0 0 0 0 0 0 0 0 0 0 0 0 0 0 0 0 0 0 127 0" result="hardAlpha"/>
<feOffset dx="-0.25"/>
<feGaussianBlur stdDeviation="0.25"/>
<feComposite in2="hardAlpha" operator="arithmetic" k2="-1" k3="1"/>
<feColorMatrix type="matrix" values="0 0 0 0 0 0 0 0 0 0 0 0 0 0 0 0 0 0 0.25 0"/>
<feBlend mode="normal" in2="shape" result="effect1_innerShadow_3274_1464"/>
</filter>
<filter id="filter3_i_3274_1464" x="11.25" y="2.68256" width="2.25" height="3.09106" filterUnits="userSpaceOnUse" color-interpolation-filters="sRGB">
<feFlood flood-opacity="0" result="BackgroundImageFix"/>
<feBlend mode="normal" in="SourceGraphic" in2="BackgroundImageFix" result="shape"/>
<feColorMatrix in="SourceAlpha" type="matrix" values="0 0 0 0 0 0 0 0 0 0 0 0 0 0 0 0 0 0 127 0" result="hardAlpha"/>
<feOffset dx="-0.25"/>
<feGaussianBlur stdDeviation="0.25"/>
<feComposite in2="hardAlpha" operator="arithmetic" k2="-1" k3="1"/>
<feColorMatrix type="matrix" values="0 0 0 0 0 0 0 0 0 0 0 0 0 0 0 0 0 0 0.25 0"/>
<feBlend mode="normal" in2="shape" result="effect1_innerShadow_3274_1464"/>
</filter>
</defs>
</svg>
