<svg width="24" height="24" viewBox="0 0 24 24" fill="none" xmlns="http://www.w3.org/2000/svg">
<path fill-rule="evenodd" clip-rule="evenodd" d="M1.25 2C1.25 1.58579 1.58579 1.25 2 1.25H22C22.4142 1.25 22.75 1.58579 22.75 2V22C22.75 22.4142 22.4142 22.75 22 22.75H2C1.58579 22.75 1.25 22.4142 1.25 22V2ZM2.75 2.75V21.25H21.25V2.75H2.75Z" fill="#333333"/>
<path fill-rule="evenodd" clip-rule="evenodd" d="M16.9325 7.94456C17.0301 8.04219 17.0301 8.20048 16.9325 8.29811C16.6396 8.59101 16.6396 9.06588 16.9325 9.35877C17.2254 9.65167 17.7003 9.65167 17.9932 9.35877C18.6766 8.67536 18.6766 7.56732 17.9932 6.8839C17.7003 6.59101 17.2254 6.59101 16.9325 6.8839C16.6396 7.17679 16.6396 7.65167 16.9325 7.94456Z" fill="#333333"/>
<path fill-rule="evenodd" clip-rule="evenodd" d="M7.0658 7.94456C6.96817 8.04219 6.96817 8.20048 7.0658 8.29811C7.35869 8.59101 7.35869 9.06588 7.0658 9.35878C6.7729 9.65167 6.29803 9.65167 6.00514 9.35877C5.32172 8.67536 5.32172 7.56732 6.00514 6.8839C6.29803 6.59101 6.7729 6.59101 7.0658 6.8839C7.35869 7.17679 7.35869 7.65167 7.0658 7.94456Z" fill="#333333"/>
<path fill-rule="evenodd" clip-rule="evenodd" d="M18.3484 6.53035C19.227 7.40903 19.227 8.83365 18.3484 9.71233C18.0555 10.0052 18.0555 10.4801 18.3484 10.773C18.6413 11.0659 19.1161 11.0659 19.409 10.773C20.8735 9.30852 20.8735 6.93415 19.409 5.46969C19.1161 5.17679 18.6413 5.17679 18.3484 5.46969C18.0555 5.76258 18.0555 6.23745 18.3484 6.53035Z" fill="#333333"/>
<path fill-rule="evenodd" clip-rule="evenodd" d="M5.65164 6.53035C4.77296 7.40903 4.77296 8.83365 5.65164 9.71233C5.94453 10.0052 5.94453 10.4801 5.65164 10.773C5.35875 11.0659 4.88387 11.0659 4.59098 10.773C3.12652 9.30852 3.12652 6.93415 4.59098 5.46969C4.88388 5.17679 5.35875 5.17679 5.65164 5.46969C5.94454 5.76258 5.94454 6.23746 5.65164 6.53035Z" fill="#333333"/>
<path d="M10 14H14.5L12.5 19.5L10 17V14Z" fill="#999999"/>
<path fill-rule="evenodd" clip-rule="evenodd" d="M8.25 5.5C8.25 5.08579 8.58579 4.75 9 4.75H15C15.4142 4.75 15.75 5.08579 15.75 5.5V7.375C15.75 7.78921 15.4142 8.125 15 8.125V16.0833C15 16.6784 14.807 17.2573 14.45 17.7333L13.4 19.1333C12.7 20.0667 11.3 20.0667 10.6 19.1333L9.55 17.7333C9.19299 17.2573 9 16.6784 9 16.0833V8.125C8.58579 8.125 8.25 7.78921 8.25 7.375V5.5ZM10.5 8.125V16.0833C10.5 16.3538 10.5877 16.617 10.75 16.8333L11.8 18.2333C11.9 18.3667 12.1 18.3667 12.2 18.2333L13.25 16.8333C13.4123 16.617 13.5 16.3538 13.5 16.0833V8.125H10.5ZM14.25 6.625H9.75V6.25H14.25V6.625Z" fill="#333333"/>
<path fill-rule="evenodd" clip-rule="evenodd" d="M12 8.75C12.2761 8.75 12.5 8.97386 12.5 9.25L12.5 16C12.5 16.2761 12.2761 16.5 12 16.5C11.7239 16.5 11.5 16.2761 11.5 16L11.5 9.25C11.5 8.97386 11.7239 8.75 12 8.75Z" fill="#333333"/>
<path fill-rule="evenodd" clip-rule="evenodd" d="M11.75 10C11.75 9.86193 11.8619 9.75 12 9.75L13.5 9.75C13.6381 9.75 13.75 9.86193 13.75 10C13.75 10.1381 13.6381 10.25 13.5 10.25L12 10.25C11.8619 10.25 11.75 10.1381 11.75 10Z" fill="#333333"/>
<path fill-rule="evenodd" clip-rule="evenodd" d="M11.9 10.5C11.9 10.4448 11.9448 10.4 12 10.4L13 10.4C13.0553 10.4 13.1 10.4448 13.1 10.5C13.1 10.5553 13.0553 10.6 13 10.6L12 10.6C11.9448 10.6 11.9 10.5553 11.9 10.5Z" fill="#333333"/>
<path fill-rule="evenodd" clip-rule="evenodd" d="M11.9 11C11.9 10.9448 11.9448 10.9 12 10.9L13 10.9C13.0553 10.9 13.1 10.9448 13.1 11C13.1 11.0553 13.0553 11.1 13 11.1L12 11.1C11.9448 11.1 11.9 11.0553 11.9 11Z" fill="#333333"/>
<path fill-rule="evenodd" clip-rule="evenodd" d="M11.9 11.5C11.9 11.4448 11.9448 11.4 12 11.4L13 11.4C13.0553 11.4 13.1 11.4448 13.1 11.5C13.1 11.5553 13.0553 11.6 13 11.6L12 11.6C11.9448 11.6 11.9 11.5553 11.9 11.5Z" fill="#333333"/>
<path fill-rule="evenodd" clip-rule="evenodd" d="M11.9 12C11.9 11.9448 11.9448 11.9 12 11.9L13 11.9C13.0553 11.9 13.1 11.9448 13.1 12C13.1 12.0553 13.0553 12.1 13 12.1L12 12.1C11.9448 12.1 11.9 12.0553 11.9 12Z" fill="#333333"/>
<path fill-rule="evenodd" clip-rule="evenodd" d="M11.75 12.5C11.75 12.3619 11.8619 12.25 12 12.25L13.5 12.25C13.6381 12.25 13.75 12.3619 13.75 12.5C13.75 12.6381 13.6381 12.75 13.5 12.75L12 12.75C11.8619 12.75 11.75 12.6381 11.75 12.5Z" fill="#333333"/>
<path fill-rule="evenodd" clip-rule="evenodd" d="M11.9 13C11.9 12.9448 11.9448 12.9 12 12.9L13 12.9C13.0553 12.9 13.1 12.9448 13.1 13C13.1 13.0553 13.0553 13.1 13 13.1L12 13.1C11.9448 13.1 11.9 13.0553 11.9 13Z" fill="#333333"/>
<path fill-rule="evenodd" clip-rule="evenodd" d="M11.9 13.5C11.9 13.4448 11.9448 13.4 12 13.4L13 13.4C13.0553 13.4 13.1 13.4448 13.1 13.5C13.1 13.5553 13.0553 13.6 13 13.6L12 13.6C11.9448 13.6 11.9 13.5553 11.9 13.5Z" fill="#333333"/>
<path fill-rule="evenodd" clip-rule="evenodd" d="M11.9 14C11.9 13.9448 11.9448 13.9 12 13.9L13 13.9C13.0553 13.9 13.1 13.9448 13.1 14C13.1 14.0553 13.0553 14.1 13 14.1L12 14.1C11.9448 14.1 11.9 14.0553 11.9 14Z" fill="#333333"/>
<path fill-rule="evenodd" clip-rule="evenodd" d="M11.9 14.5C11.9 14.4448 11.9448 14.4 12 14.4L13 14.4C13.0553 14.4 13.1 14.4448 13.1 14.5C13.1 14.5553 13.0553 14.6 13 14.6L12 14.6C11.9448 14.6 11.9 14.5553 11.9 14.5Z" fill="#333333"/>
<path fill-rule="evenodd" clip-rule="evenodd" d="M11.75 15C11.75 14.8619 11.8619 14.75 12 14.75L13.5 14.75C13.6381 14.75 13.75 14.8619 13.75 15C13.75 15.1381 13.6381 15.25 13.5 15.25L12 15.25C11.8619 15.25 11.75 15.1381 11.75 15Z" fill="#333333"/>
</svg>
