<svg width="24" height="24" viewBox="0 0 24 24" fill="none" xmlns="http://www.w3.org/2000/svg">
<path fill-rule="evenodd" clip-rule="evenodd" d="M1.25 2C1.25 1.58579 1.58579 1.25 2 1.25H22C22.4142 1.25 22.75 1.58579 22.75 2V22C22.75 22.4142 22.4142 22.75 22 22.75H2C1.58579 22.75 1.25 22.4142 1.25 22V2ZM2.75 2.75V21.25H21.25V2.75H2.75Z" fill="#333333"/>
<path fill-rule="evenodd" clip-rule="evenodd" d="M3.75 7C3.75 6.58579 4.08579 6.25 4.5 6.25H8C8.41421 6.25 8.75 6.58579 8.75 7V22C8.75 22.4142 8.41421 22.75 8 22.75H4.5C4.08579 22.75 3.75 22.4142 3.75 22V7ZM5.25 7.75V21.25H7.25V7.75H5.25Z" fill="#333333"/>
<path fill-rule="evenodd" clip-rule="evenodd" d="M10.25 10C10.25 9.58579 10.5858 9.25 11 9.25H22C22.4142 9.25 22.75 9.58579 22.75 10V22C22.75 22.4142 22.4142 22.75 22 22.75H11C10.5858 22.75 10.25 22.4142 10.25 22V10ZM11.75 10.75V21.25H21.25V10.75H11.75Z" fill="#333333"/>
<path fill-rule="evenodd" clip-rule="evenodd" d="M7.25 22V2H8.75V22H7.25Z" fill="#333333"/>
<path fill-rule="evenodd" clip-rule="evenodd" d="M12.75 4C12.75 3.86193 12.8619 3.75 13 3.75L20 3.75C20.1381 3.75 20.25 3.86193 20.25 4V7C20.25 7.13807 20.1381 7.25 20 7.25L13 7.25C12.8619 7.25 12.75 7.13807 12.75 7V4ZM13.25 4.25V6.75L19.75 6.75V4.25L13.25 4.25Z" fill="#333333"/>
<path fill-rule="evenodd" clip-rule="evenodd" d="M14 3.75C14.1381 3.75 14.25 3.86193 14.25 4V6C14.25 6.13807 14.1381 6.25 14 6.25C13.8619 6.25 13.75 6.13807 13.75 6V4C13.75 3.86193 13.8619 3.75 14 3.75Z" fill="#333333"/>
<path fill-rule="evenodd" clip-rule="evenodd" d="M15 3.75C15.1381 3.75 15.25 3.86193 15.25 4V5.5C15.25 5.63807 15.1381 5.75 15 5.75C14.8619 5.75 14.75 5.63807 14.75 5.5V4C14.75 3.86193 14.8619 3.75 15 3.75Z" fill="#333333"/>
<path fill-rule="evenodd" clip-rule="evenodd" d="M16 3.75C16.1381 3.75 16.25 3.86193 16.25 4V6C16.25 6.13807 16.1381 6.25 16 6.25C15.8619 6.25 15.75 6.13807 15.75 6V4C15.75 3.86193 15.8619 3.75 16 3.75Z" fill="#333333"/>
<path fill-rule="evenodd" clip-rule="evenodd" d="M17 3.75C17.1381 3.75 17.25 3.86193 17.25 4V5.5C17.25 5.63807 17.1381 5.75 17 5.75C16.8619 5.75 16.75 5.63807 16.75 5.5V4C16.75 3.86193 16.8619 3.75 17 3.75Z" fill="#333333"/>
<path fill-rule="evenodd" clip-rule="evenodd" d="M18 3.75C18.1381 3.75 18.25 3.86193 18.25 4V6C18.25 6.13807 18.1381 6.25 18 6.25C17.8619 6.25 17.75 6.13807 17.75 6V4C17.75 3.86193 17.8619 3.75 18 3.75Z" fill="#333333"/>
<path fill-rule="evenodd" clip-rule="evenodd" d="M19 3.75C19.1381 3.75 19.25 3.86193 19.25 4V5.5C19.25 5.63807 19.1381 5.75 19 5.75C18.8619 5.75 18.75 5.63807 18.75 5.5V4C18.75 3.86193 18.8619 3.75 19 3.75Z" fill="#333333"/>
<path d="M13.5 13.95V18.05C13.5 18.1605 13.5895 18.25 13.7 18.25H19.3C19.4105 18.25 19.5 18.1605 19.5 18.05V13.95C19.5 13.8395 19.4105 13.75 19.3 13.75H13.7C13.5895 13.75 13.5 13.8395 13.5 13.95Z" fill="white"/>
<path fill-rule="evenodd" clip-rule="evenodd" d="M13.75 14V18H19.25V14H13.75ZM13.25 13.95C13.25 13.7015 13.4515 13.5 13.7 13.5H19.3C19.5485 13.5 19.75 13.7015 19.75 13.95V18.05C19.75 18.2985 19.5485 18.5 19.3 18.5H13.7C13.4515 18.5 13.25 18.2985 13.25 18.05V13.95Z" fill="#333333"/>
<path d="M16.875 17.2749C16.875 17.482 16.7071 17.6499 16.5 17.6499C16.2929 17.6499 16.125 17.482 16.125 17.2749C16.125 17.0678 16.2929 16.8999 16.5 16.8999C16.7071 16.8999 16.875 17.0678 16.875 17.2749Z" fill="#333333"/>
<path fill-rule="evenodd" clip-rule="evenodd" d="M19.5 16.625H13.5249V16.125H19.5V16.625Z" fill="#333333"/>
<path fill-rule="evenodd" clip-rule="evenodd" d="M16.3018 14.4731C16.3994 14.5708 16.3994 14.729 16.3018 14.8267L15.5518 15.5767C15.4541 15.6743 15.2959 15.6743 15.1982 15.5767C15.1006 15.479 15.1006 15.3208 15.1982 15.2231L15.9482 14.4731C16.0459 14.3755 16.2041 14.3755 16.3018 14.4731Z" fill="#333333"/>
<path fill-rule="evenodd" clip-rule="evenodd" d="M17.8018 14.6982C17.8994 14.7959 17.8994 14.9541 17.8018 15.0518L17.4268 15.4268C17.3291 15.5244 17.1709 15.5244 17.0732 15.4268C16.9756 15.3291 16.9756 15.1709 17.0732 15.0732L17.4482 14.6982C17.5459 14.6006 17.7041 14.6006 17.8018 14.6982Z" fill="#333333"/>
</svg>
