<svg width="24" height="24" viewBox="0 0 24 24" fill="none" xmlns="http://www.w3.org/2000/svg">
<path d="M6 16H19V21H6V16Z" fill="#64C2FF"/>
<path fill-rule="evenodd" clip-rule="evenodd" d="M3.33875 2.64611C3.46926 2.40224 3.7234 2.25 4 2.25H19C19.4142 2.25 19.75 2.58579 19.75 3V21C19.75 21.4142 19.4142 21.75 19 21.75H6C5.58579 21.75 5.25 21.4142 5.25 21V6.60555C5.25 6.35877 5.17695 6.11751 5.04006 5.91218L3.37596 3.41603C3.22254 3.18588 3.20823 2.88997 3.33875 2.64611ZM5.40139 3.75L6.28814 5.08013C6.5893 5.53186 6.75 6.06263 6.75 6.60555V20.25H18.25V3.75H5.40139Z" fill="#333333"/>
<path fill-rule="evenodd" clip-rule="evenodd" d="M5.25 21C5.25 20.5858 5.58579 20.25 6 20.25H19C19.4142 20.25 19.75 20.5858 19.75 21C19.75 21.4142 19.4142 21.75 19 21.75H6C5.58579 21.75 5.25 21.4142 5.25 21Z" fill="#333333"/>
<path fill-rule="evenodd" clip-rule="evenodd" d="M13.5 16.25L13.5 7.75C13.5 7.47386 13.7238 7.25 14 7.25C14.2761 7.25 14.5 7.47386 14.5 7.75L14.5 16.25C14.5 16.5261 14.2761 16.75 14 16.75C13.7239 16.75 13.5 16.5261 13.5 16.25Z" fill="#333333"/>
<path fill-rule="evenodd" clip-rule="evenodd" d="M13.75 7.5C13.75 7.36193 13.8619 7.25 14 7.25L16 7.25C16.1381 7.25 16.25 7.36193 16.25 7.5C16.25 7.63807 16.1381 7.75 16 7.75L14 7.75C13.8619 7.75 13.75 7.63807 13.75 7.5Z" fill="#333333"/>
<path fill-rule="evenodd" clip-rule="evenodd" d="M13.75 8.5C13.75 8.36193 13.8619 8.25 14 8.25L15 8.25C15.1381 8.25 15.25 8.36193 15.25 8.5C15.25 8.63807 15.1381 8.75 15 8.75L14 8.75C13.8619 8.75 13.75 8.63807 13.75 8.5Z" fill="#333333"/>
<path fill-rule="evenodd" clip-rule="evenodd" d="M13.75 9.5C13.75 9.36193 13.8619 9.25 14 9.25L15 9.25C15.1381 9.25 15.25 9.36193 15.25 9.5C15.25 9.63807 15.1381 9.75 15 9.75L14 9.75C13.8619 9.75 13.75 9.63807 13.75 9.5Z" fill="#333333"/>
<path fill-rule="evenodd" clip-rule="evenodd" d="M13.75 10.5C13.75 10.3619 13.8619 10.25 14 10.25L16 10.25C16.1381 10.25 16.25 10.3619 16.25 10.5C16.25 10.6381 16.1381 10.75 16 10.75L14 10.75C13.8619 10.75 13.75 10.6381 13.75 10.5Z" fill="#333333"/>
<path fill-rule="evenodd" clip-rule="evenodd" d="M13.75 11.5C13.75 11.3619 13.8619 11.25 14 11.25L15 11.25C15.1381 11.25 15.25 11.3619 15.25 11.5C15.25 11.6381 15.1381 11.75 15 11.75L14 11.75C13.8619 11.75 13.75 11.6381 13.75 11.5Z" fill="#333333"/>
<path fill-rule="evenodd" clip-rule="evenodd" d="M13.75 12.5C13.75 12.3619 13.8619 12.25 14 12.25L15 12.25C15.1381 12.25 15.25 12.3619 15.25 12.5C15.25 12.6381 15.1381 12.75 15 12.75L14 12.75C13.8619 12.75 13.75 12.6381 13.75 12.5Z" fill="#333333"/>
<path fill-rule="evenodd" clip-rule="evenodd" d="M13.75 13.5C13.75 13.3619 13.8619 13.25 14 13.25L16 13.25C16.1381 13.25 16.25 13.3619 16.25 13.5C16.25 13.6381 16.1381 13.75 16 13.75L14 13.75C13.8619 13.75 13.75 13.6381 13.75 13.5Z" fill="#333333"/>
<path fill-rule="evenodd" clip-rule="evenodd" d="M13.75 14.5C13.75 14.3619 13.8619 14.25 14 14.25L15 14.25C15.1381 14.25 15.25 14.3619 15.25 14.5C15.25 14.6381 15.1381 14.75 15 14.75L14 14.75C13.8619 14.75 13.75 14.6381 13.75 14.5Z" fill="#333333"/>
<path fill-rule="evenodd" clip-rule="evenodd" d="M13.75 15.5C13.75 15.3619 13.8619 15.25 14 15.25L15 15.25C15.1381 15.25 15.25 15.3619 15.25 15.5C15.25 15.6381 15.1381 15.75 15 15.75L14 15.75C13.8619 15.75 13.75 15.6381 13.75 15.5Z" fill="#333333"/>
<path fill-rule="evenodd" clip-rule="evenodd" d="M13.75 16.5C13.75 16.3619 13.8619 16.25 14 16.25L16 16.25C16.1381 16.25 16.25 16.3619 16.25 16.5C16.25 16.6381 16.1381 16.75 16 16.75L14 16.75C13.8619 16.75 13.75 16.6381 13.75 16.5Z" fill="#333333"/>
</svg>
