<svg width="24" height="24" viewBox="0 0 24 24" fill="none" xmlns="http://www.w3.org/2000/svg">
<path d="M9 15H15L14.75 18L13 21H11L9.25 18L9 15Z" fill="#999999"/>
<path fill-rule="evenodd" clip-rule="evenodd" d="M7.25 3C7.25 2.58579 7.58579 2.25 8 2.25H16C16.4142 2.25 16.75 2.58579 16.75 3V5.5C16.75 5.91421 16.4142 6.25 16 6.25H15.75V17.3333C15.75 17.9284 15.557 18.5073 15.2 18.9833L13.4 21.3833C12.7 22.3167 11.3 22.3167 10.6 21.3833L8.8 18.9833C8.44299 18.5073 8.25 17.9284 8.25 17.3333V6.25H8C7.58579 6.25 7.25 5.91421 7.25 5.5V3ZM9.75 6.25V17.3333C9.75 17.6038 9.83772 17.867 10 18.0833L11.8 20.4833C11.9 20.6167 12.1 20.6167 12.2 20.4833L14 18.0833C14.1623 17.867 14.25 17.6038 14.25 17.3333V6.25H9.75ZM15.25 4.75V3.75H8.75V4.75H15.25Z" fill="#333333"/>
<path fill-rule="evenodd" clip-rule="evenodd" d="M12 7.5C12.2761 7.5 12.5 7.72386 12.5 8L12.5 17C12.5 17.2761 12.2761 17.5 12 17.5C11.7239 17.5 11.5 17.2761 11.5 17L11.5 8C11.5 7.72386 11.7239 7.5 12 7.5Z" fill="#333333"/>
<path fill-rule="evenodd" clip-rule="evenodd" d="M11.75 9C11.75 8.86193 11.8619 8.75 12 8.75L13.5 8.75C13.6381 8.75 13.75 8.86193 13.75 9C13.75 9.13807 13.6381 9.25 13.5 9.25L12 9.25C11.8619 9.25 11.75 9.13807 11.75 9Z" fill="#333333"/>
<path fill-rule="evenodd" clip-rule="evenodd" d="M11.9 9.69998C11.9 9.64475 11.9448 9.59998 12 9.59998L13 9.59998C13.0553 9.59998 13.1 9.64475 13.1 9.69998C13.1 9.7552 13.0553 9.79998 13 9.79998L12 9.79998C11.9448 9.79998 11.9 9.7552 11.9 9.69998Z" fill="#333333"/>
<path fill-rule="evenodd" clip-rule="evenodd" d="M11.9 10.4C11.9 10.3448 11.9448 10.3 12 10.3L13 10.3C13.0553 10.3 13.1 10.3448 13.1 10.4C13.1 10.4552 13.0553 10.5 13 10.5L12 10.5C11.9448 10.5 11.9 10.4552 11.9 10.4Z" fill="#333333"/>
<path fill-rule="evenodd" clip-rule="evenodd" d="M11.9 11.1C11.9 11.0448 11.9448 11 12 11L13 11C13.0553 11 13.1 11.0448 13.1 11.1C13.1 11.1552 13.0553 11.2 13 11.2L12 11.2C11.9448 11.2 11.9 11.1552 11.9 11.1Z" fill="#333333"/>
<path fill-rule="evenodd" clip-rule="evenodd" d="M11.9 11.8C11.9 11.7448 11.9448 11.7 12 11.7L13 11.7C13.0553 11.7 13.1 11.7448 13.1 11.8C13.1 11.8552 13.0553 11.9 13 11.9L12 11.9C11.9448 11.9 11.9 11.8552 11.9 11.8Z" fill="#333333"/>
<path fill-rule="evenodd" clip-rule="evenodd" d="M11.75 12.5C11.75 12.3619 11.8619 12.25 12 12.25L13.5 12.25C13.6381 12.25 13.75 12.3619 13.75 12.5C13.75 12.6381 13.6381 12.75 13.5 12.75L12 12.75C11.8619 12.75 11.75 12.6381 11.75 12.5Z" fill="#333333"/>
<path fill-rule="evenodd" clip-rule="evenodd" d="M11.9 13.2C11.9 13.1447 11.9448 13.1 12 13.1L13 13.1C13.0553 13.1 13.1 13.1447 13.1 13.2C13.1 13.2552 13.0553 13.3 13 13.3L12 13.3C11.9448 13.3 11.9 13.2552 11.9 13.2Z" fill="#333333"/>
<path fill-rule="evenodd" clip-rule="evenodd" d="M11.9 13.9C11.9 13.8448 11.9448 13.8 12 13.8L13 13.8C13.0553 13.8 13.1 13.8448 13.1 13.9C13.1 13.9552 13.0553 14 13 14L12 14C11.9448 14 11.9 13.9552 11.9 13.9Z" fill="#333333"/>
<path fill-rule="evenodd" clip-rule="evenodd" d="M11.9 14.6C11.9 14.5448 11.9448 14.5 12 14.5L13 14.5C13.0553 14.5 13.1 14.5448 13.1 14.6C13.1 14.6552 13.0553 14.7 13 14.7L12 14.7C11.9448 14.7 11.9 14.6552 11.9 14.6Z" fill="#333333"/>
<path fill-rule="evenodd" clip-rule="evenodd" d="M11.9 15.3C11.9 15.2448 11.9448 15.2 12 15.2L13 15.2C13.0553 15.2 13.1 15.2448 13.1 15.3C13.1 15.3552 13.0553 15.4 13 15.4L12 15.4C11.9448 15.4 11.9 15.3552 11.9 15.3Z" fill="#333333"/>
<path fill-rule="evenodd" clip-rule="evenodd" d="M11.75 16C11.75 15.8619 11.8619 15.75 12 15.75L13.5 15.75C13.6381 15.75 13.75 15.8619 13.75 16C13.75 16.1381 13.6381 16.25 13.5 16.25L12 16.25C11.8619 16.25 11.75 16.1381 11.75 16Z" fill="#333333"/>
</svg>
