<svg width="24" height="24" viewBox="0 0 24 24" fill="none" xmlns="http://www.w3.org/2000/svg">
<path d="M6 15H18L17 21H7L6 15Z" fill="#64C2FF"/>
<path fill-rule="evenodd" clip-rule="evenodd" d="M9.05263 3.75C8.88549 3.75 8.75 3.88549 8.75 4.05263V5.275C9.32056 5.39082 9.75 5.89526 9.75 6.5V7.94737C9.75 8.39065 9.39065 8.75 8.94737 8.75H8.4C7.48873 8.75 6.75 9.48873 6.75 10.4V18C6.75 19.2426 7.75736 20.25 9 20.25H15C16.2426 20.25 17.25 19.2426 17.25 18V10.4C17.25 9.48873 16.5113 8.75 15.6 8.75H15.0526C14.6093 8.75 14.25 8.39065 14.25 7.94737V6.5C14.25 5.89526 14.6794 5.39082 15.25 5.275V4.05263C15.25 3.88549 15.1145 3.75 14.9474 3.75H9.05263ZM7.25 4.05263C7.25 3.05707 8.05707 2.25 9.05263 2.25H14.9474C15.9429 2.25 16.75 3.05707 16.75 4.05263V5.5C16.75 6.10474 16.3206 6.60918 15.75 6.725V7.25351C17.42 7.3318 18.75 8.71059 18.75 10.4V18C18.75 20.0711 17.0711 21.75 15 21.75H9C6.92893 21.75 5.25 20.0711 5.25 18V10.4C5.25 8.71059 6.57995 7.3318 8.25 7.25351V6.725C7.67944 6.60918 7.25 6.10474 7.25 5.5V4.05263Z" fill="#333333"/>
<path fill-rule="evenodd" clip-rule="evenodd" d="M12 8.5C12.2761 8.5 12.5 8.72386 12.5 9L12.5 18C12.5 18.2761 12.2761 18.5 12 18.5C11.7239 18.5 11.5 18.2761 11.5 18L11.5 9C11.5 8.72386 11.7239 8.5 12 8.5Z" fill="#333333"/>
<path fill-rule="evenodd" clip-rule="evenodd" d="M11.75 10C11.75 9.86193 11.8619 9.75 12 9.75L14 9.75C14.1381 9.75 14.25 9.86193 14.25 10C14.25 10.1381 14.1381 10.25 14 10.25L12 10.25C11.8619 10.25 11.75 10.1381 11.75 10Z" fill="#333333"/>
<path fill-rule="evenodd" clip-rule="evenodd" d="M11.9 10.7C11.9 10.6447 11.9448 10.6 12 10.6L13 10.6C13.0553 10.6 13.1 10.6447 13.1 10.7C13.1 10.7552 13.0553 10.8 13 10.8L12 10.8C11.9448 10.8 11.9 10.7552 11.9 10.7Z" fill="#333333"/>
<path fill-rule="evenodd" clip-rule="evenodd" d="M11.9 11.4C11.9 11.3448 11.9448 11.3 12 11.3L13 11.3C13.0553 11.3 13.1 11.3448 13.1 11.4C13.1 11.4552 13.0553 11.5 13 11.5L12 11.5C11.9448 11.5 11.9 11.4552 11.9 11.4Z" fill="#333333"/>
<path fill-rule="evenodd" clip-rule="evenodd" d="M11.9 12.1C11.9 12.0448 11.9448 12 12 12L13 12C13.0553 12 13.1 12.0448 13.1 12.1C13.1 12.1552 13.0553 12.2 13 12.2L12 12.2C11.9448 12.2 11.9 12.1552 11.9 12.1Z" fill="#333333"/>
<path fill-rule="evenodd" clip-rule="evenodd" d="M11.9 12.8C11.9 12.7448 11.9448 12.7 12 12.7L13 12.7C13.0553 12.7 13.1 12.7448 13.1 12.8C13.1 12.8552 13.0553 12.9 13 12.9L12 12.9C11.9448 12.9 11.9 12.8552 11.9 12.8Z" fill="#333333"/>
<path fill-rule="evenodd" clip-rule="evenodd" d="M11.75 13.5C11.75 13.3619 11.8619 13.25 12 13.25L14 13.25C14.1381 13.25 14.25 13.3619 14.25 13.5C14.25 13.6381 14.1381 13.75 14 13.75L12 13.75C11.8619 13.75 11.75 13.6381 11.75 13.5Z" fill="#333333"/>
<path fill-rule="evenodd" clip-rule="evenodd" d="M11.9 14.2C11.9 14.1447 11.9448 14.1 12 14.1L13 14.1C13.0553 14.1 13.1 14.1447 13.1 14.2C13.1 14.2552 13.0553 14.3 13 14.3L12 14.3C11.9448 14.3 11.9 14.2552 11.9 14.2Z" fill="#333333"/>
<path fill-rule="evenodd" clip-rule="evenodd" d="M11.9 14.9C11.9 14.8448 11.9448 14.8 12 14.8L13 14.8C13.0553 14.8 13.1 14.8448 13.1 14.9C13.1 14.9552 13.0553 15 13 15L12 15C11.9448 15 11.9 14.9552 11.9 14.9Z" fill="#333333"/>
<path fill-rule="evenodd" clip-rule="evenodd" d="M11.9 15.6C11.9 15.5448 11.9448 15.5 12 15.5L13 15.5C13.0553 15.5 13.1 15.5448 13.1 15.6C13.1 15.6552 13.0553 15.7 13 15.7L12 15.7C11.9448 15.7 11.9 15.6552 11.9 15.6Z" fill="#333333"/>
<path fill-rule="evenodd" clip-rule="evenodd" d="M11.9 16.3C11.9 16.2448 11.9448 16.2 12 16.2L13 16.2C13.0553 16.2 13.1 16.2448 13.1 16.3C13.1 16.3552 13.0553 16.4 13 16.4L12 16.4C11.9448 16.4 11.9 16.3552 11.9 16.3Z" fill="#333333"/>
<path fill-rule="evenodd" clip-rule="evenodd" d="M11.75 17C11.75 16.8619 11.8619 16.75 12 16.75L14 16.75C14.1381 16.75 14.25 16.8619 14.25 17C14.25 17.1381 14.1381 17.25 14 17.25L12 17.25C11.8619 17.25 11.75 17.1381 11.75 17Z" fill="#333333"/>
<path fill-rule="evenodd" clip-rule="evenodd" d="M8.25 6C8.25 5.58579 8.58579 5.25 9 5.25H15C15.4142 5.25 15.75 5.58579 15.75 6C15.75 6.41421 15.4142 6.75 15 6.75H9C8.58579 6.75 8.25 6.41421 8.25 6Z" fill="#333333"/>
</svg>
