<svg width="24" height="24" viewBox="0 0 24 24" fill="none" xmlns="http://www.w3.org/2000/svg">
<path fill-rule="evenodd" clip-rule="evenodd" d="M13.3513 7.25C10.1412 7.25 7.45985 7.8101 6.15182 8.54673C5.87348 8.70349 5.44993 8.81936 5.07235 8.90743C4.89142 8.94963 4.69878 8.99019 4.50238 9.02861C5.18939 9.36218 5.85878 9.69363 6.15182 9.85866L5.41577 11.1657C5.09768 10.9865 4.17886 10.5366 3.30823 10.1174C2.87971 9.9111 2.47244 9.71676 2.17222 9.57396C2.02214 9.50257 1.89889 9.4441 1.81321 9.4035L1.68019 9.34054C1.37832 9.19794 1.20653 8.87272 1.25953 8.5431C1.31253 8.21347 1.57703 7.95857 1.90839 7.91778M1.90839 7.91778L1.91613 7.91682L1.94094 7.9137L2.03768 7.90129C2.12179 7.89035 2.2432 7.87424 2.39123 7.85369C2.68773 7.81252 3.08891 7.75382 3.50994 7.68343C3.93278 7.61275 4.3667 7.53176 4.73162 7.44664C5.12808 7.35417 5.3497 7.27695 5.41577 7.23974C7.05851 6.31461 10.049 5.75 13.3513 5.75C15.7939 5.75 18.035 6.05837 19.6906 6.57574C20.5139 6.83303 21.2347 7.15494 21.766 7.54747C22.2826 7.92915 22.75 8.47985 22.75 9.2027H21.25C21.25 9.17921 21.2333 9.01891 20.8747 8.7539C20.5306 8.49974 19.9849 8.23927 19.2431 8.00746C17.7685 7.54664 15.6853 7.25 13.3513 7.25" fill="#333333"/>
<path d="M7.48041 14.5196L7 15L9 17L13.5 17.5L18 17L20.3565 15.1148C20.4183 15.0653 20.4008 14.9669 20.3256 14.9419L19.0067 14.5022C19.0023 14.5008 18.9979 14.4989 18.9936 14.4968L18.0211 14.0106C18.0072 14.0036 17.9919 14 17.9764 14H16.5414C16.5149 14 16.4895 13.9895 16.4707 13.9707L16 13.5L15.5707 13.0707C15.5317 13.0317 15.4683 13.0317 15.4293 13.0707L15.051 13.449C15.0205 13.4795 14.974 13.487 14.9355 13.4678L14.0211 13.0106C14.0072 13.0036 13.9919 13 13.9764 13H13.1C13.0448 13 13 13.0448 13 13.1V13.4C13 13.4552 12.9552 13.5 12.9 13.5H12.5414C12.5149 13.5 12.4895 13.5105 12.4707 13.5293L12.1707 13.8293C12.1077 13.8923 12 13.8477 12 13.7586V13.6C12 13.5448 11.9552 13.5 11.9 13.5H11.5H11H10.5H10.0414C10.0149 13.5 9.98946 13.5105 9.97071 13.5293L9.51959 13.9804C9.50677 13.9932 9.49071 14.0023 9.47313 14.0067L7.52687 14.4933C7.50929 14.4977 7.49323 14.5068 7.48041 14.5196Z" fill="#666666"/>
<path fill-rule="evenodd" clip-rule="evenodd" d="M3.95896 8.76597C4.80802 9.17478 5.78109 9.64991 6.15181 9.85869C7.45984 10.5953 10.1412 11.1554 13.3513 11.1554C15.6853 11.1554 17.7685 10.8588 19.2431 10.398C19.9849 10.1662 20.5306 9.90568 20.8746 9.65152C21.2333 9.38651 21.25 9.22621 21.25 9.20273H22.75C22.75 9.92557 22.2826 10.4763 21.766 10.858C21.2347 11.2505 20.5139 11.5724 19.6906 11.8297C18.035 12.347 15.7939 12.6554 13.3513 12.6554C10.049 12.6554 7.0585 12.0908 5.41576 11.1657C5.09767 10.9865 4.17885 10.5367 3.30822 10.1175C2.8797 9.91113 2.47243 9.71679 2.17221 9.57398C2.02213 9.5026 1.89888 9.44413 1.8132 9.40353L1.68018 9.34057L2.32042 7.98407L2.45549 8.048C2.54175 8.08888 2.66568 8.14766 2.81652 8.21941C3.11812 8.36287 3.52765 8.55829 3.95896 8.76597Z" fill="#333333"/>
<path fill-rule="evenodd" clip-rule="evenodd" d="M20.094 14.5041C21.1057 13.1945 21.25 11.3739 21.2501 9.20239L22.7501 9.20241C22.75 11.3282 22.6444 13.6564 21.2811 15.4211C19.8828 17.2311 17.3401 18.2497 13 18.2497C9.65424 18.2497 7.39879 17.4794 6.00641 15.9404C4.62715 14.416 4.25006 12.303 4.25006 9.99976H5.75006C5.75006 12.1965 6.12297 13.8335 7.11871 14.9341C8.10132 16.0201 9.84586 16.7497 13 16.7497C17.1599 16.7497 19.1173 15.7684 20.094 14.5041Z" fill="#333333"/>
</svg>
