<svg width="24" height="24" viewBox="0 0 24 24" fill="none" xmlns="http://www.w3.org/2000/svg">
<path fill-rule="evenodd" clip-rule="evenodd" d="M1.25 8C1.25 7.58579 1.58579 7.25 2 7.25H22C22.4142 7.25 22.75 7.58579 22.75 8V17C22.75 17.4142 22.4142 17.75 22 17.75H2C1.58579 17.75 1.25 17.4142 1.25 17V8ZM2.75 8.75V16.25H21.25V8.75H2.75Z" fill="#333333"/>
<path fill-rule="evenodd" clip-rule="evenodd" d="M3.5 14V8H4V13.75H6.5V8H7V14C7 14.1381 6.88807 14.25 6.75 14.25H3.75C3.61193 14.25 3.5 14.1381 3.5 14Z" fill="#333333"/>
<path d="M4 11H6.5L6.375 12L5.5 13H5L4.125 12L4 11Z" fill="#999999"/>
<path fill-rule="evenodd" clip-rule="evenodd" d="M3.5 6C3.5 5.86193 3.61193 5.75 3.75 5.75H6.75C6.88807 5.75 7 5.86193 7 6V7C7 7.13807 6.88807 7.25 6.75 7.25H6.5V12C6.5 12.0663 6.47366 12.1299 6.42678 12.1768L5.42678 13.1768C5.32915 13.2744 5.17085 13.2744 5.07322 13.1768L4.07322 12.1768C4.02634 12.1299 4 12.0663 4 12V7.25H3.75C3.61193 7.25 3.5 7.13807 3.5 7V6ZM4 6.75H4.25C4.38807 6.75 4.5 6.86193 4.5 7V11.8964L5.25 12.6464L6 11.8964V7C6 6.86193 6.11193 6.75 6.25 6.75H6.5V6.25H4V6.75Z" fill="#666666"/>
<path fill-rule="evenodd" clip-rule="evenodd" d="M8 14V8H8.5V13.75H11V8H11.5V14C11.5 14.1381 11.3881 14.25 11.25 14.25H8.25C8.11193 14.25 8 14.1381 8 14Z" fill="#333333"/>
<path d="M8.5 11H11L10.875 12L10 13H9.5L8.625 12L8.5 11Z" fill="#999999"/>
<path fill-rule="evenodd" clip-rule="evenodd" d="M8 6C8 5.86193 8.11193 5.75 8.25 5.75H11.25C11.3881 5.75 11.5 5.86193 11.5 6V7C11.5 7.13807 11.3881 7.25 11.25 7.25H11V12C11 12.0663 10.9737 12.1299 10.9268 12.1768L9.92678 13.1768C9.82915 13.2744 9.67085 13.2744 9.57322 13.1768L8.57322 12.1768C8.52634 12.1299 8.5 12.0663 8.5 12V7.25H8.25C8.11193 7.25 8 7.13807 8 7V6ZM8.5 6.75H8.75C8.88807 6.75 9 6.86193 9 7V11.8964L9.75 12.6464L10.5 11.8964V7C10.5 6.86193 10.6119 6.75 10.75 6.75H11V6.25H8.5V6.75Z" fill="#666666"/>
<path fill-rule="evenodd" clip-rule="evenodd" d="M12.5 14V8H13V13.75H15.5V8H16V14C16 14.1381 15.8881 14.25 15.75 14.25H12.75C12.6119 14.25 12.5 14.1381 12.5 14Z" fill="#333333"/>
<path d="M13 11H15.5L15.375 12L14.5 13H14L13.125 12L13 11Z" fill="#999999"/>
<path fill-rule="evenodd" clip-rule="evenodd" d="M12.5 6C12.5 5.86193 12.6119 5.75 12.75 5.75H15.75C15.8881 5.75 16 5.86193 16 6V7C16 7.13807 15.8881 7.25 15.75 7.25H15.5V12C15.5 12.0663 15.4737 12.1299 15.4268 12.1768L14.4268 13.1768C14.3291 13.2744 14.1709 13.2744 14.0732 13.1768L13.0732 12.1768C13.0263 12.1299 13 12.0663 13 12V7.25H12.75C12.6119 7.25 12.5 7.13807 12.5 7V6ZM13 6.75H13.25C13.3881 6.75 13.5 6.86193 13.5 7V11.8964L14.25 12.6464L15 11.8964V7C15 6.86193 15.1119 6.75 15.25 6.75H15.5V6.25H13V6.75Z" fill="#666666"/>
<path fill-rule="evenodd" clip-rule="evenodd" d="M17 14V8H17.5V13.75H20V8H20.5V14C20.5 14.1381 20.3881 14.25 20.25 14.25H17.25C17.1119 14.25 17 14.1381 17 14Z" fill="#333333"/>
<path d="M17.5 11H20L19.875 12L19 13H18.5L17.625 12L17.5 11Z" fill="#999999"/>
<path fill-rule="evenodd" clip-rule="evenodd" d="M17 6C17 5.86193 17.1119 5.75 17.25 5.75H20.25C20.3881 5.75 20.5 5.86193 20.5 6V7C20.5 7.13807 20.3881 7.25 20.25 7.25H20V12C20 12.0663 19.9737 12.1299 19.9268 12.1768L18.9268 13.1768C18.8291 13.2744 18.6709 13.2744 18.5732 13.1768L17.5732 12.1768C17.5263 12.1299 17.5 12.0663 17.5 12V7.25H17.25C17.1119 7.25 17 7.13807 17 7V6ZM17.5 6.75H17.75C17.8881 6.75 18 6.86193 18 7V11.8964L18.75 12.6464L19.5 11.8964V7C19.5 6.86193 19.6119 6.75 19.75 6.75H20V6.25H17.5V6.75Z" fill="#666666"/>
</svg>
