<svg width="24" height="24" viewBox="0 0 24 24" fill="none" xmlns="http://www.w3.org/2000/svg">
<path d="M13 16H18L17.7917 18L16.3333 20H14.6667L13.2083 18L13 16Z" fill="#999999"/>
<path fill-rule="evenodd" clip-rule="evenodd" d="M3.25 5C3.25 4.58579 3.58579 4.25 4 4.25H8C8.04939 4.25 8.09866 4.25488 8.14709 4.26456L10.5 4.73515L12.8529 4.26457C12.9013 4.25488 12.9506 4.25001 13 4.25001L18 4.25C18.1989 4.25 18.3897 4.32902 18.5303 4.46967C18.671 4.61032 18.75 4.80109 18.75 5V17.2759C18.75 17.9192 18.5245 18.5422 18.1126 19.0364L16.8444 20.5583C16.1447 21.3978 14.8553 21.3978 14.1556 20.5583L12.8874 19.0364C12.4755 18.5422 12.25 17.9192 12.25 17.2759V5.91486L10.6471 6.23544C10.55 6.25485 10.45 6.25485 10.3529 6.23544L7.92574 5.75H4C3.58579 5.75 3.25 5.41421 3.25 5ZM13.75 5.75V17.2759C13.75 17.5683 13.8525 17.8515 14.0397 18.0761L15.3079 19.598C15.4079 19.7179 15.5921 19.7179 15.6921 19.598L16.9603 18.0761C17.1475 17.8515 17.25 17.5683 17.25 17.2759V5.75L13.75 5.75Z" fill="#333333"/>
<path fill-rule="evenodd" clip-rule="evenodd" d="M12.75 8C12.75 7.86193 12.8619 7.75 13 7.75L17.5 7.75C17.6381 7.75 17.75 7.86193 17.75 8C17.75 8.13807 17.6381 8.25 17.5 8.25L13 8.25C12.8619 8.25 12.75 8.13807 12.75 8Z" fill="#333333"/>
<path fill-rule="evenodd" clip-rule="evenodd" d="M12.75 12C12.75 11.8619 12.8619 11.75 13 11.75L17.5 11.75C17.6381 11.75 17.75 11.8619 17.75 12C17.75 12.1381 17.6381 12.25 17.5 12.25L13 12.25C12.8619 12.25 12.75 12.1381 12.75 12Z" fill="#333333"/>
<path fill-rule="evenodd" clip-rule="evenodd" d="M12.75 16C12.75 15.8619 12.8619 15.75 13 15.75L17.5 15.75C17.6381 15.75 17.75 15.8619 17.75 16C17.75 16.1381 17.6381 16.25 17.5 16.25L13 16.25C12.8619 16.25 12.75 16.1381 12.75 16Z" fill="#333333"/>
<path d="M4.5 3.5C4.5 3.22386 4.72386 3 5 3H7C7.27614 3 7.5 3.22386 7.5 3.5V4.5H4.5V3.5Z" fill="#333333"/>
</svg>
