<svg width="24" height="24" viewBox="0 0 24 24" fill="none" xmlns="http://www.w3.org/2000/svg">
<path fill-rule="evenodd" clip-rule="evenodd" d="M1.42 1.52451C1.56245 1.35074 1.77531 1.25 2.00001 1.25H6.00001C6.35752 1.25 6.66533 1.50234 6.73544 1.85291L8.61486 11.25H22C22.4142 11.25 22.75 11.5858 22.75 12V22C22.75 22.4142 22.4142 22.75 22 22.75H8.00001C7.58579 22.75 7.25001 22.4142 7.25001 22V12.75H4.00001C3.6425 12.75 3.33468 12.4977 3.26457 12.1471L1.26457 2.14709C1.2205 1.92676 1.27755 1.69827 1.42 1.52451ZM7.08515 11.25L5.38515 2.75H2.91486L4.61486 11.25H7.08515ZM8.75001 12.75V21.25H21.25V12.75H8.75001Z" fill="#333333"/>
<path fill-rule="evenodd" clip-rule="evenodd" d="M18.5 10.5V14.0754L19 17.2682L19.5 14.0754V10.5H18.5ZM17.5 10.25C17.5 9.83579 17.8358 9.5 18.25 9.5H19.75C20.1642 9.5 20.5 9.83579 20.5 10.25V14.1532L19.494 20.5774H18.506L17.5 14.1532V10.25Z" fill="#333333"/>
<path fill-rule="evenodd" clip-rule="evenodd" d="M14.5 10.5V14.0754L15 17.2682L15.5 14.0754V10.5H14.5ZM13.5 10.25C13.5 9.83579 13.8358 9.5 14.25 9.5H15.75C16.1642 9.5 16.5 9.83579 16.5 10.25V14.1532L15.494 20.5774H14.506L13.5 14.1532V10.25Z" fill="#333333"/>
<path fill-rule="evenodd" clip-rule="evenodd" d="M10.5 10.5V14.0754L11 17.2682L11.5 14.0754V10.5H10.5ZM9.5 10.25C9.5 9.83579 9.83579 9.5 10.25 9.5H11.75C12.1642 9.5 12.5 9.83579 12.5 10.25V14.1532L11.494 20.5774H10.506L9.5 14.1532V10.25Z" fill="#333333"/>
</svg>
