<svg width="24" height="24" viewBox="0 0 24 24" fill="none" xmlns="http://www.w3.org/2000/svg">
<path fill-rule="evenodd" clip-rule="evenodd" d="M8.75 3.75V5.40859C8.75 5.58835 8.82141 5.76075 8.94852 5.88786L9.24867 6.18801C9.77231 6.71165 9.56182 7.6033 8.85928 7.83748C7.59964 8.25736 6.75 9.43617 6.75 10.7639V20.25H17.25V10.7639C17.25 9.43617 16.4004 8.25736 15.1407 7.83748C14.4382 7.6033 14.2277 6.71165 14.7513 6.18801L15.0515 5.88786C15.1786 5.76075 15.25 5.58835 15.25 5.40859V3.75H8.75ZM7.25 3.18612C7.25 2.66911 7.66911 2.25 8.18612 2.25H15.8139C16.3309 2.25 16.75 2.66911 16.75 3.18612V5.40859C16.75 5.8821 16.5958 6.3397 16.3152 6.71427C17.7952 7.4994 18.75 9.04797 18.75 10.7639V20.8678C18.75 21.355 18.355 21.75 17.8678 21.75H6.13225C5.64499 21.75 5.25 21.355 5.25 20.8678V10.7639C5.25 9.04797 6.2048 7.4994 7.6848 6.71426C7.4042 6.3397 7.25 5.8821 7.25 5.40859V3.18612Z" fill="#333333"/>
<path d="M7 15L6.58579 15.4142C6.21071 15.7893 6 16.298 6 16.8284V21H18V16.8284C18 16.298 17.7893 15.7893 17.4142 15.4142L17 15C16.4477 14.4477 15.5523 14.4477 15 15C14.4477 15.5523 13.5523 15.5523 13 15C12.4477 14.4477 11.5523 14.4477 11 15C10.4477 15.5523 9.55228 15.5523 9 15C8.44772 14.4477 7.55229 14.4477 7 15Z" fill="#999999"/>
<path fill-rule="evenodd" clip-rule="evenodd" d="M8.64645 15.3536C8.28942 14.9965 7.71058 14.9965 7.35355 15.3536L6.93934 15.7678C6.65804 16.0491 6.5 16.4306 6.5 16.8284V20.5H17.5V16.8284C17.5 16.4306 17.342 16.0491 17.0607 15.7678L16.6464 15.3536L17 15L16.6464 15.3536C16.2894 14.9965 15.7106 14.9965 15.3536 15.3536C14.606 16.1011 13.394 16.1011 12.6464 15.3536C12.2894 14.9965 11.7106 14.9965 11.3536 15.3536C10.606 16.1011 9.39399 16.1011 8.64645 15.3536ZM6.64645 14.6464C7.39399 13.8989 8.60601 13.8989 9.35355 14.6464C9.71058 15.0035 10.2894 15.0035 10.6464 14.6464C11.394 13.8989 12.606 13.8989 13.3536 14.6464C13.7106 15.0035 14.2894 15.0035 14.6464 14.6464C15.394 13.8989 16.606 13.8989 17.3536 14.6464L17.7678 15.0607L17.4142 15.4142L17.7678 15.0607C18.2366 15.5295 18.5 16.1654 18.5 16.8284V21C18.5 21.2761 18.2761 21.5 18 21.5H6C5.72386 21.5 5.5 21.2761 5.5 21V16.8284C5.5 16.1654 5.76339 15.5295 6.23223 15.0607L6.64645 14.6464Z" fill="#333333"/>
</svg>
