<svg width="24" height="24" viewBox="0 0 24 24" fill="none" xmlns="http://www.w3.org/2000/svg">
<path fill-rule="evenodd" clip-rule="evenodd" d="M12.0073 20.7073C12.2835 20.7073 12.5073 20.4834 12.5073 20.2073L12.5073 13.313C12.5073 13.0368 12.2835 12.813 12.0073 12.813C11.7312 12.813 11.5073 13.0368 11.5073 13.313L11.5073 20.2073C11.5073 20.4834 11.7312 20.7073 12.0073 20.7073Z" fill="#333333"/>
<path fill-rule="evenodd" clip-rule="evenodd" d="M12.3536 12.7398C12.1584 12.5445 11.8418 12.5445 11.6465 12.7398L10.8965 13.4898C10.7012 13.685 10.7012 14.0016 10.8965 14.1969C11.0918 14.3922 11.4084 14.3922 11.6036 14.1969L12.3536 13.4469C12.5489 13.2516 12.5489 12.935 12.3536 12.7398Z" fill="#333333"/>
<path fill-rule="evenodd" clip-rule="evenodd" d="M11.6465 12.7398C11.4513 12.935 11.4513 13.2516 11.6465 13.4469L12.3965 14.1969C12.5918 14.3921 12.9084 14.3921 13.1036 14.1969C13.2989 14.0016 13.2989 13.685 13.1036 13.4898L12.3536 12.7398C12.1584 12.5445 11.8418 12.5445 11.6465 12.7398Z" fill="#333333"/>
<path d="M13.8538 10.085C13.9538 10.185 14.0088 10.3125 14.0088 10.445C14.0088 10.5775 13.9538 10.7025 13.8538 10.8025C13.8338 10.8225 13.8113 10.8425 13.7888 10.86C13.7713 10.87 13.7563 10.8825 13.7388 10.8925C13.6838 10.925 13.6263 10.95 13.5638 10.9675C13.5263 10.98 13.4888 10.9875 13.4488 10.9925C13.4113 10.9975 13.3738 11 13.3363 11C13.1788 11 13.0263 10.9575 12.9063 10.875C12.8988 10.87 12.8913 10.865 12.8838 10.86C12.7438 10.755 12.6638 10.6025 12.6638 10.445C12.6638 10.425 12.6638 10.4075 12.6663 10.3875C12.6788 10.2775 12.7338 10.17 12.8188 10.085C12.7538 10 12.7163 9.90002 12.7163 9.79502C12.7163 9.64752 12.7913 9.50502 12.9213 9.40752C13.0088 9.34002 13.1163 9.29502 13.2338 9.28002C13.2513 9.27752 13.2688 9.27502 13.2888 9.27502C13.3038 9.27252 13.3188 9.27252 13.3363 9.27252C13.3488 9.27252 13.3638 9.27252 13.3763 9.27252C13.5163 9.28252 13.6488 9.32752 13.7513 9.40752C13.7788 9.42752 13.8038 9.45002 13.8238 9.47252C13.8338 9.48252 13.8438 9.49252 13.8513 9.50502C13.9188 9.59002 13.9563 9.69002 13.9563 9.79502C13.9563 9.80752 13.9538 9.82002 13.9538 9.83002C13.9463 9.92252 13.9113 10.01 13.8538 10.085ZM13.3188 9.71002C13.2163 9.71502 13.1538 9.77002 13.1538 9.79502C13.1538 9.82252 13.2213 9.88252 13.3363 9.88252C13.3563 9.88252 13.3738 9.88002 13.3888 9.87752C13.4713 9.86252 13.5188 9.81752 13.5188 9.79502C13.5188 9.77002 13.4513 9.70752 13.3363 9.70752C13.3313 9.70752 13.3238 9.71002 13.3188 9.71002ZM13.3363 10.565C13.4163 10.565 13.4813 10.54 13.5238 10.51C13.5263 10.4675 13.5263 10.4225 13.5263 10.3775C13.4838 10.3475 13.4163 10.3225 13.3363 10.3225C13.1988 10.3225 13.0988 10.395 13.0988 10.445C13.0988 10.4925 13.1988 10.565 13.3363 10.565Z" fill="#333333"/>
<path d="M12.4019 9.45005C12.4119 9.48005 12.4144 9.50755 12.4119 9.53505V10.7826C12.4119 10.8426 12.3894 10.8951 12.3519 10.9326C12.3219 10.9651 12.2844 10.9876 12.2419 10.9951L12.2394 10.9976C12.2369 10.9976 12.2369 10.9976 12.2344 10.9976C12.2219 11.0001 12.2069 11.0001 12.1944 11.0001C12.1344 11.0001 12.0819 10.9776 12.0419 10.9401C12.0019 10.9001 11.9769 10.8451 11.9769 10.7826V9.81755C11.9444 9.82755 11.9144 9.84255 11.8669 9.84255C11.7744 9.84255 11.6894 9.78505 11.6594 9.69255C11.6219 9.57755 11.6844 9.45505 11.7994 9.41755L12.1169 9.31505C12.2319 9.27005 12.3619 9.33005 12.4019 9.45005Z" fill="#333333"/>
<path d="M11.455 10.4875C11.51 10.55 11.5225 10.6375 11.495 10.71C11.4825 10.74 11.465 10.7675 11.44 10.79C11.36 10.865 11.2675 10.9225 11.17 10.9625C11.165 10.965 11.16 10.9675 11.155 10.9675C11.1225 10.98 11.09 10.99 11.0575 11C11.0425 11.0025 11.025 11.0075 11.01 11.01C10.955 11.02 10.8975 11.025 10.8425 11.025C10.8175 11.025 10.7925 11.025 10.77 11.0225C10.765 11.0225 10.76 11.0225 10.755 11.0225C10.6625 11.0125 10.575 10.99 10.4925 10.955C10.475 10.9475 10.46 10.9375 10.4425 10.93C10.44 10.9275 10.435 10.925 10.43 10.9225C10.4175 10.9175 10.4025 10.9075 10.39 10.9C10.375 10.89 10.36 10.88 10.345 10.87C10.2925 10.835 10.2425 10.7925 10.2 10.745C10.2 10.745 10.1975 10.745 10.1975 10.7425C10.19 10.735 10.185 10.7275 10.1775 10.72C10.175 10.7175 10.17 10.7125 10.1675 10.7075C10.1425 10.6775 10.1175 10.645 10.0975 10.61C10.015 10.4775 9.96753 10.32 9.96753 10.15C9.96753 9.67002 10.36 9.27502 10.8425 9.27502C11.02 9.27502 11.19 9.33002 11.335 9.43002C11.375 9.45752 11.4125 9.48752 11.4475 9.52002C11.535 9.60502 11.5375 9.74252 11.455 9.83002C11.37 9.91502 11.2325 9.91752 11.145 9.83502C11.0625 9.75502 10.955 9.71252 10.8425 9.71252C10.7825 9.71252 10.7275 9.72502 10.6775 9.74502C10.5725 9.78752 10.49 9.86752 10.4425 9.96752C10.4175 10.025 10.4025 10.085 10.4025 10.15C10.4025 10.16 10.4025 10.17 10.4025 10.1775C10.405 10.19 10.405 10.2025 10.4075 10.215C10.4175 10.2875 10.445 10.3525 10.4875 10.41C10.4925 10.4175 10.4975 10.4225 10.5025 10.43C10.515 10.445 10.53 10.46 10.545 10.475C10.5475 10.4775 10.5525 10.48 10.5575 10.485C10.58 10.505 10.6075 10.5225 10.635 10.5375C10.6425 10.5425 10.65 10.5475 10.6575 10.55H10.66C10.6675 10.555 10.675 10.5575 10.6825 10.56C10.7325 10.58 10.785 10.59 10.8425 10.59C10.8575 10.59 10.875 10.59 10.89 10.5875C10.8925 10.5875 10.8975 10.5875 10.9 10.585C10.91 10.585 10.9225 10.5825 10.935 10.58C10.94 10.58 10.945 10.5775 10.95 10.5775C11.02 10.5575 11.0875 10.5225 11.1425 10.4725C11.1925 10.425 11.26 10.405 11.3225 10.415C11.3275 10.415 11.3325 10.4175 11.3375 10.4175C11.355 10.4225 11.3725 10.4275 11.39 10.4375C11.4125 10.4475 11.4325 10.4625 11.45 10.48C11.4525 10.4825 11.455 10.485 11.455 10.4875Z" fill="#333333"/>
<path fill-rule="evenodd" clip-rule="evenodd" d="M9.79227 1.43557C9.92898 1.31594 10.1045 1.25 10.2861 1.25H13.6531C13.8296 1.25 14.0004 1.31222 14.1355 1.42572L15.819 2.83986C15.9887 2.98237 16.0866 3.19259 16.0866 3.41414V22C16.0866 22.4142 15.7509 22.75 15.3366 22.75C14.9224 22.75 14.5866 22.4142 14.5866 22V3.76363L13.3799 2.75H10.5679L9.41998 3.75447V22C9.41998 22.4142 9.0842 22.75 8.66998 22.75C8.25577 22.75 7.91998 22.4142 7.91998 22V3.41414C7.91998 3.19787 8.01334 2.99213 8.1761 2.84971L9.79227 1.43557Z" fill="#333333"/>
<path fill-rule="evenodd" clip-rule="evenodd" d="M13.3702 4.17593L14.8412 2.88141L15.8321 4.00748L14.1486 5.48896C14.0117 5.60946 13.8356 5.67593 13.6532 5.67593H10.2862C10.0985 5.67593 9.91769 5.60559 9.77937 5.47879L8.16321 3.99731L9.1768 2.89158L10.5779 4.17593H13.3702Z" fill="#333333"/>
</svg>
