<svg width="24" height="24" viewBox="0 0 24 24" fill="none" xmlns="http://www.w3.org/2000/svg">
<path fill-rule="evenodd" clip-rule="evenodd" d="M2.25 3C2.25 2.58579 2.58579 2.25 3 2.25H21C21.4142 2.25 21.75 2.58579 21.75 3V21C21.75 21.4142 21.4142 21.75 21 21.75H3C2.58579 21.75 2.25 21.4142 2.25 21V3ZM3.75 3.75V20.25H20.25V3.75H3.75Z" fill="#333333"/>
<path d="M18.0259 13.63C18.2659 13.63 18.4609 13.825 18.4609 14.065C18.4609 14.305 18.2659 14.5 18.0259 14.5H16.3359C15.9909 14.5 15.7809 14.125 15.9659 13.835C15.9709 13.83 15.9759 13.82 15.9809 13.815C15.9859 13.805 15.9909 13.8 15.9959 13.79C16.0059 13.78 16.0109 13.775 16.0159 13.765C16.0259 13.755 16.0309 13.75 16.0359 13.74C16.0409 13.74 16.0409 13.74 16.0409 13.74C16.0459 13.73 16.0559 13.72 16.0659 13.71C16.1709 13.595 16.3359 13.44 16.4959 13.295C16.6859 13.125 16.8709 12.97 16.9609 12.895C17.1859 12.705 17.5859 12.42 17.4809 12.165C17.4659 12.125 17.4459 12.095 17.4209 12.065C17.3509 11.985 17.2509 11.94 17.1959 11.94C17.1759 11.94 17.1309 11.94 17.0709 11.95C16.9809 11.97 16.8659 12.02 16.7959 12.145C16.7209 12.28 16.5859 12.36 16.4409 12.37C16.3609 12.375 16.2809 12.355 16.2059 12.315C15.9959 12.2 15.9159 11.935 16.0359 11.725C16.2109 11.41 16.5159 11.19 16.8759 11.105C16.9559 11.085 17.0359 11.075 17.1159 11.07C17.1409 11.07 17.1659 11.07 17.1909 11.07C17.4959 11.07 17.8159 11.22 18.0459 11.46C18.1509 11.57 18.2359 11.695 18.2909 11.835C18.3059 11.87 18.3159 11.91 18.3259 11.945C18.3509 12.02 18.3659 12.095 18.3709 12.17C18.3759 12.265 18.3709 12.355 18.3559 12.45C18.3209 12.625 18.2459 12.795 18.1359 12.96C18.0659 13.055 17.9859 13.15 17.8959 13.24C17.8559 13.275 17.8209 13.31 17.7809 13.345C17.6759 13.435 17.5609 13.53 17.4509 13.625C17.4509 13.625 17.4509 13.63 17.4559 13.63H18.0259Z" fill="#333333"/>
<path d="M15.264 13.54C15.264 13.556 15.264 13.572 15.264 13.588C15.264 13.588 15.264 13.588 15.264 13.596C15.264 13.74 15.264 13.828 15.256 13.884C15.256 13.98 15.24 13.988 15.224 14.036C15.064 14.5 14.496 14.644 14.128 14.348C14.128 14.348 14.128 14.348 14.12 14.348C14.12 14.34 14.112 14.332 14.104 14.324C14.096 14.324 14.088 14.316 14.088 14.308C14.08 14.308 14.08 14.3 14.072 14.3C14.064 14.284 14.048 14.276 14.04 14.26C14.032 14.26 13.912 14.108 13.72 13.884C13.584 13.724 13.4 13.516 13.208 13.284C13.2 13.276 13.192 13.268 13.184 13.26C12.952 12.98 12.696 12.684 12.464 12.404C12.208 12.108 11.984 11.844 11.832 11.66V13.804C11.832 13.836 11.832 13.86 11.824 13.884C11.784 14.236 11.488 14.5 11.136 14.5C10.776 14.5 10.48 14.236 10.44 13.884C10.44 13.86 10.44 13.836 10.44 13.804V9.756C10.44 9.516 10.56 9.316 10.728 9.188C10.728 9.188 10.728 9.188 10.736 9.188C10.744 9.18 10.752 9.172 10.768 9.164C10.776 9.156 10.792 9.156 10.8 9.148C10.816 9.14 10.824 9.132 10.84 9.124C11.016 9.044 11.224 9.036 11.416 9.124C11.424 9.124 11.432 9.124 11.44 9.132C11.448 9.132 11.456 9.14 11.472 9.148C11.472 9.148 11.48 9.148 11.48 9.156C11.488 9.156 11.488 9.156 11.496 9.156V9.164H11.504C11.512 9.172 11.52 9.172 11.528 9.18C11.528 9.18 11.536 9.18 11.536 9.188C11.544 9.188 11.544 9.188 11.552 9.196C11.632 9.26 11.776 9.436 12.44 10.22C12.456 10.236 12.472 10.252 12.488 10.268C12.648 10.468 12.848 10.7 13.08 10.98C13.088 10.98 13.088 10.988 13.096 10.988C13.176 11.084 13.256 11.18 13.344 11.284C13.368 11.316 13.4 11.348 13.432 11.388C13.568 11.548 13.712 11.716 13.872 11.908V9.756C13.872 9.372 14.184 9.06 14.568 9.06C14.952 9.06 15.264 9.372 15.264 9.756C15.264 11.276 15.264 12.244 15.264 12.852C15.264 13.164 15.264 13.38 15.264 13.54Z" fill="#333333"/>
<path fill-rule="evenodd" clip-rule="evenodd" d="M5.25 12C5.25 11.5858 5.58579 11.25 6 11.25H9C9.41421 11.25 9.75 11.5858 9.75 12C9.75 12.4142 9.41421 12.75 9 12.75H6C5.58579 12.75 5.25 12.4142 5.25 12Z" fill="#333333"/>
<path fill-rule="evenodd" clip-rule="evenodd" d="M6.75 13.5L6.75 10.5C6.75 10.0858 7.08579 9.75 7.5 9.75C7.91421 9.75 8.25 10.0858 8.25 10.5L8.25 13.5C8.25 13.9142 7.91421 14.25 7.5 14.25C7.08579 14.25 6.75 13.9142 6.75 13.5Z" fill="#333333"/>
<path d="M6 6.5C6 6.77614 5.77614 7 5.5 7C5.22386 7 5 6.77614 5 6.5C5 6.22386 5.22386 6 5.5 6C5.77614 6 6 6.22386 6 6.5Z" fill="#333333"/>
<path d="M19 5.5C19 5.77614 18.7761 6 18.5 6C18.2239 6 18 5.77614 18 5.5C18 5.22386 18.2239 5 18.5 5C18.7761 5 19 5.22386 19 5.5Z" fill="#333333"/>
<path d="M10 7.5C10 7.77614 9.77614 8 9.5 8C9.22386 8 9 7.77614 9 7.5C9 7.22386 9.22386 7 9.5 7C9.77614 7 10 7.22386 10 7.5Z" fill="#333333"/>
<path d="M6 17.5C6 17.7761 5.77614 18 5.5 18C5.22386 18 5 17.7761 5 17.5C5 17.2239 5.22386 17 5.5 17C5.77614 17 6 17.2239 6 17.5Z" fill="#333333"/>
<path d="M11 16.5C11 16.7761 10.7761 17 10.5 17C10.2239 17 10 16.7761 10 16.5C10 16.2239 10.2239 16 10.5 16C10.7761 16 11 16.2239 11 16.5Z" fill="#333333"/>
<path d="M16 18.5C16 18.7761 15.7761 19 15.5 19C15.2239 19 15 18.7761 15 18.5C15 18.2239 15.2239 18 15.5 18C15.7761 18 16 18.2239 16 18.5Z" fill="#333333"/>
<path d="M9 19.5C9 19.7761 8.77614 20 8.5 20C8.22386 20 8 19.7761 8 19.5C8 19.2239 8.22386 19 8.5 19C8.77614 19 9 19.2239 9 19.5Z" fill="#333333"/>
<path d="M19 16.5C19 16.7761 18.7761 17 18.5 17C18.2239 17 18 16.7761 18 16.5C18 16.2239 18.2239 16 18.5 16C18.7761 16 19 16.2239 19 16.5Z" fill="#333333"/>
<path d="M12 5.5C12 5.77614 11.7761 6 11.5 6C11.2239 6 11 5.77614 11 5.5C11 5.22386 11.2239 5 11.5 5C11.7761 5 12 5.22386 12 5.5Z" fill="#333333"/>
<path d="M17 7.5C17 7.77614 16.7761 8 16.5 8C16.2239 8 16 7.77614 16 7.5C16 7.22386 16.2239 7 16.5 7C16.7761 7 17 7.22386 17 7.5Z" fill="#333333"/>
</svg>
