<svg width="24" height="24" viewBox="0 0 24 24" fill="none" xmlns="http://www.w3.org/2000/svg">
<path d="M14.0442 18.478C14.1882 18.478 14.3052 18.595 14.3052 18.739C14.3052 18.883 14.1882 19 14.0442 19H13.0302C12.8232 19 12.6972 18.775 12.8082 18.601C12.8112 18.598 12.8142 18.592 12.8172 18.589C12.8202 18.583 12.8232 18.58 12.8262 18.574C12.8322 18.568 12.8352 18.565 12.8382 18.559C12.8442 18.553 12.8472 18.55 12.8502 18.544C12.8532 18.544 12.8532 18.544 12.8532 18.544C12.8562 18.538 12.8622 18.532 12.8682 18.526C12.9312 18.457 13.0302 18.364 13.1262 18.277C13.2402 18.175 13.3512 18.082 13.4052 18.037C13.5402 17.923 13.7802 17.752 13.7172 17.599C13.7082 17.575 13.6962 17.557 13.6812 17.539C13.6392 17.491 13.5792 17.464 13.5462 17.464C13.5342 17.464 13.5072 17.464 13.4712 17.47C13.4172 17.482 13.3482 17.512 13.3062 17.587C13.2612 17.668 13.1802 17.716 13.0932 17.722C13.0452 17.725 12.9972 17.713 12.9522 17.689C12.8262 17.62 12.7782 17.461 12.8502 17.335C12.9552 17.146 13.1382 17.014 13.3542 16.963C13.4022 16.951 13.4502 16.945 13.4982 16.942C13.5132 16.942 13.5282 16.942 13.5432 16.942C13.7262 16.942 13.9182 17.032 14.0562 17.176C14.1192 17.242 14.1702 17.317 14.2032 17.401C14.2122 17.422 14.2182 17.446 14.2242 17.467C14.2392 17.512 14.2482 17.557 14.2512 17.602C14.2542 17.659 14.2512 17.713 14.2422 17.77C14.2212 17.875 14.1762 17.977 14.1102 18.076C14.0682 18.133 14.0202 18.19 13.9662 18.244C13.9422 18.265 13.9212 18.286 13.8972 18.307C13.8342 18.361 13.7652 18.418 13.6992 18.475C13.6992 18.475 13.6992 18.478 13.7022 18.478H14.0442Z" fill="#333333"/>
<path d="M12.4318 18.52C12.4318 18.528 12.4318 18.536 12.4318 18.544C12.4318 18.544 12.4318 18.544 12.4318 18.548C12.4318 18.62 12.4318 18.664 12.4278 18.692C12.4278 18.74 12.4198 18.744 12.4118 18.768C12.3318 19 12.0478 19.072 11.8638 18.924C11.8638 18.924 11.8638 18.924 11.8598 18.924C11.8598 18.92 11.8558 18.916 11.8518 18.912C11.8478 18.912 11.8438 18.908 11.8438 18.904C11.8398 18.904 11.8398 18.9 11.8358 18.9C11.8318 18.892 11.8238 18.888 11.8198 18.88C11.8158 18.88 11.7558 18.804 11.6598 18.692C11.5918 18.612 11.4998 18.508 11.4038 18.392C11.3998 18.388 11.3958 18.384 11.3918 18.38C11.2758 18.24 11.1478 18.092 11.0318 17.952C10.9038 17.804 10.7918 17.672 10.7158 17.58V18.652C10.7158 18.668 10.7158 18.68 10.7118 18.692C10.6918 18.868 10.5438 19 10.3678 19C10.1878 19 10.0398 18.868 10.0198 18.692C10.0198 18.68 10.0198 18.668 10.0198 18.652V16.628C10.0198 16.508 10.0798 16.408 10.1638 16.344C10.1638 16.344 10.1638 16.344 10.1678 16.344C10.1718 16.34 10.1758 16.336 10.1838 16.332C10.1878 16.328 10.1958 16.328 10.1998 16.324C10.2078 16.32 10.2118 16.316 10.2198 16.312C10.3078 16.272 10.4118 16.268 10.5078 16.312C10.5118 16.312 10.5158 16.312 10.5198 16.316C10.5238 16.316 10.5278 16.32 10.5358 16.324C10.5358 16.324 10.5398 16.324 10.5398 16.328C10.5438 16.328 10.5438 16.328 10.5478 16.328V16.332H10.5518C10.5558 16.336 10.5598 16.336 10.5638 16.34C10.5638 16.34 10.5678 16.34 10.5678 16.344C10.5718 16.344 10.5718 16.344 10.5758 16.348C10.6158 16.38 10.6878 16.468 11.0198 16.86C11.0278 16.868 11.0358 16.876 11.0438 16.884C11.1238 16.984 11.2238 17.1 11.3398 17.24C11.3438 17.24 11.3438 17.244 11.3478 17.244C11.3878 17.292 11.4278 17.34 11.4718 17.392C11.4838 17.408 11.4998 17.424 11.5158 17.444C11.5838 17.524 11.6558 17.608 11.7358 17.704V16.628C11.7358 16.436 11.8918 16.28 12.0838 16.28C12.2758 16.28 12.4318 16.436 12.4318 16.628C12.4318 17.388 12.4318 17.872 12.4318 18.176C12.4318 18.332 12.4318 18.44 12.4318 18.52Z" fill="#333333"/>
<path fill-rule="evenodd" clip-rule="evenodd" d="M13.2286 8.81179C12.4411 8.49023 11.5589 8.49023 10.7714 8.81179C9.54893 9.31097 8.75 10.5002 8.75 11.8206V19.7809C8.75 20.04 8.96004 20.25 9.21913 20.25H14.7809C15.04 20.25 15.25 20.04 15.25 19.7809V11.8206C15.25 10.5002 14.4511 9.31097 13.2286 8.81179ZM10.2043 7.4231C11.3553 6.95312 12.6447 6.95312 13.7957 7.4231C15.5823 8.15267 16.75 9.89072 16.75 11.8206V19.7809C16.75 20.8684 15.8684 21.75 14.7809 21.75H9.21913C8.13161 21.75 7.25 20.8684 7.25 19.7809V11.8206C7.25 9.89072 8.41767 8.15267 10.2043 7.4231Z" fill="#333333"/>
<path fill-rule="evenodd" clip-rule="evenodd" d="M12 2.25C12.4142 2.25 12.75 2.58579 12.75 3V7.5C12.75 7.91421 12.4142 8.25 12 8.25C11.5858 8.25 11.25 7.91421 11.25 7.5V3C11.25 2.58579 11.5858 2.25 12 2.25Z" fill="#333333"/>
<path fill-rule="evenodd" clip-rule="evenodd" d="M14.25 3C14.25 3.41421 13.9142 3.75 13.5 3.75L10.5 3.75C10.0858 3.75 9.75 3.41421 9.75 3C9.75 2.58579 10.0858 2.25 10.5 2.25L13.5 2.25C13.9142 2.25 14.25 2.58579 14.25 3Z" fill="#333333"/>
<path fill-rule="evenodd" clip-rule="evenodd" d="M12.25 6C12.25 6.41421 11.9142 6.75 11.5 6.75L8 6.75C7.58579 6.75 7.25 6.41421 7.25 6C7.25 5.58579 7.58579 5.25 8 5.25L11.5 5.25C11.9142 5.25 12.25 5.58579 12.25 6Z" fill="#333333"/>
<path d="M8.5 6C8.5 6.55228 8.05228 7 7.5 7C6.94772 7 6.5 6.55228 6.5 6C6.5 5.44772 6.94772 5 7.5 5C8.05228 5 8.5 5.44772 8.5 6Z" fill="#333333"/>
</svg>
