<svg width="24" height="24" viewBox="0 0 24 24" fill="none" xmlns="http://www.w3.org/2000/svg">
<path d="M15 14V13H9V14C9 15.6569 10.3431 17 12 17C13.6569 17 15 15.6569 15 14Z" fill="#E7645C"/>
<path fill-rule="evenodd" clip-rule="evenodd" d="M8.25 12.25H15.75V14C15.75 16.0711 14.0711 17.75 12 17.75C9.92893 17.75 8.25 16.0711 8.25 14V12.25ZM9.75 13.75V14C9.75 15.2426 10.7574 16.25 12 16.25C13.2426 16.25 14.25 15.2426 14.25 14V13.75H9.75Z" fill="#333333"/>
<path fill-rule="evenodd" clip-rule="evenodd" d="M7.25 13C7.25 12.5858 7.58579 12.25 8 12.25H16C16.4142 12.25 16.75 12.5858 16.75 13C16.75 13.4142 16.4142 13.75 16 13.75H8C7.58579 13.75 7.25 13.4142 7.25 13Z" fill="#333333"/>
<path fill-rule="evenodd" clip-rule="evenodd" d="M10.25 17C10.25 16.5858 10.5858 16.25 11 16.25H13C13.4142 16.25 13.75 16.5858 13.75 17V22C13.75 22.4142 13.4142 22.75 13 22.75H11C10.5858 22.75 10.25 22.4142 10.25 22V17ZM11.75 17.75V21.25H12.25V17.75H11.75Z" fill="#333333"/>
<path fill-rule="evenodd" clip-rule="evenodd" d="M5.32916 5.66459C5.5144 5.2941 5.96491 5.14393 6.33539 5.32918C6.50959 5.41628 6.67778 5.50915 6.83985 5.60771C7.19377 5.82292 7.30621 6.28429 7.09099 6.6382C6.87578 6.99212 6.41441 7.10456 6.06049 6.88934C5.93463 6.81281 5.80269 6.73988 5.66457 6.67082C5.29409 6.48557 5.14392 6.03507 5.32916 5.66459ZM7.52089 7.01429C7.8541 6.76824 8.32369 6.83889 8.56974 7.1721C8.80468 7.49026 9.00447 7.83007 9.16914 8.18863C9.34201 8.56504 9.17701 9.01033 8.80059 9.1832C8.42418 9.35607 7.97889 9.19107 7.80602 8.81465C7.68357 8.54803 7.53592 8.29721 7.36308 8.06314C7.11702 7.72993 7.18768 7.26034 7.52089 7.01429ZM8.92637 9.73815C9.33946 9.70777 9.69898 10.018 9.72936 10.4311C9.74315 10.6185 9.74998 10.8082 9.74998 11C9.74998 11.4142 9.41419 11.75 8.99998 11.75C8.58577 11.75 8.24998 11.4142 8.24998 11C8.24998 10.8439 8.24442 10.6909 8.2334 10.5411C8.20302 10.1281 8.51327 9.76854 8.92637 9.73815Z" fill="#333333"/>
<path fill-rule="evenodd" clip-rule="evenodd" d="M18.6708 5.66459C18.4856 5.2941 18.0351 5.14393 17.6646 5.32918C17.4904 5.41628 17.3222 5.50915 17.1601 5.60771C16.8062 5.82292 16.6938 6.28429 16.909 6.6382C17.1242 6.99212 17.5856 7.10456 17.9395 6.88934C18.0654 6.81281 18.1973 6.73988 18.3354 6.67082C18.7059 6.48557 18.8561 6.03507 18.6708 5.66459ZM16.4791 7.01429C16.1459 6.76824 15.6763 6.83889 15.4303 7.1721C15.1953 7.49026 14.9955 7.83007 14.8309 8.18863C14.658 8.56504 14.823 9.01033 15.1994 9.1832C15.5758 9.35607 16.0211 9.19107 16.194 8.81465C16.3164 8.54803 16.4641 8.29721 16.6369 8.06314C16.883 7.72993 16.8123 7.26034 16.4791 7.01429ZM15.0736 9.73815C14.6605 9.70777 14.301 10.018 14.2706 10.4311C14.2569 10.6185 14.25 10.8082 14.25 11C14.25 11.4142 14.5858 11.75 15 11.75C15.4142 11.75 15.75 11.4142 15.75 11C15.75 10.8439 15.7556 10.6909 15.7666 10.5411C15.797 10.1281 15.4867 9.76854 15.0736 9.73815Z" fill="#333333"/>
<path fill-rule="evenodd" clip-rule="evenodd" d="M15.4507 4.00001C13.4929 5.75555 10.5072 5.75555 8.54935 4.00001C10.5072 2.24446 13.4929 2.24446 15.4507 4.00001ZM7.03647 3.39393C9.68916 0.44649 14.3109 0.44649 16.9636 3.39393C17.2737 3.73848 17.2737 4.26153 16.9636 4.60608C14.3109 7.55352 9.68916 7.55352 7.03647 4.60608C6.72637 4.26153 6.72637 3.73848 7.03647 3.39393Z" fill="#333333"/>
<path fill-rule="evenodd" clip-rule="evenodd" d="M12 4.25C12.1381 4.25 12.25 4.13807 12.25 4C12.25 3.86193 12.1381 3.75 12 3.75C11.8619 3.75 11.75 3.86193 11.75 4C11.75 4.13807 11.8619 4.25 12 4.25ZM10.75 4C10.75 3.30964 11.3096 2.75 12 2.75C12.6904 2.75 13.25 3.30964 13.25 4C13.25 4.69036 12.6904 5.25 12 5.25C11.3096 5.25 10.75 4.69036 10.75 4Z" fill="#333333"/>
<path fill-rule="evenodd" clip-rule="evenodd" d="M12 7.25C12.4142 7.25 12.75 7.58579 12.75 8V8.5C12.75 8.91421 12.4142 9.25 12 9.25C11.5858 9.25 11.25 8.91421 11.25 8.5V8C11.25 7.58579 11.5858 7.25 12 7.25ZM12 9.75C12.4142 9.75 12.75 10.0858 12.75 10.5V11C12.75 11.4142 12.4142 11.75 12 11.75C11.5858 11.75 11.25 11.4142 11.25 11V10.5C11.25 10.0858 11.5858 9.75 12 9.75Z" fill="#333333"/>
</svg>
