<svg width="24" height="24" viewBox="0 0 24 24" fill="none" xmlns="http://www.w3.org/2000/svg">
<path fill-rule="evenodd" clip-rule="evenodd" d="M12 2.75C6.89137 2.75 2.75 6.89137 2.75 12C2.75 17.1086 6.89137 21.25 12 21.25C12.6345 21.25 13.2534 21.1862 13.8508 21.065C14.2567 20.9826 14.6526 21.2448 14.735 21.6508C14.8174 22.0567 14.5551 22.4526 14.1492 22.535C13.4541 22.6761 12.7353 22.75 12 22.75C6.06294 22.75 1.25 17.9371 1.25 12C1.25 6.06294 6.06294 1.25 12 1.25C17.9371 1.25 22.75 6.06294 22.75 12C22.75 13.1743 22.5614 14.3061 22.2123 15.3658C22.0828 15.7592 21.6588 15.9731 21.2653 15.8435C20.8719 15.7139 20.6581 15.2899 20.7877 14.8965C21.0875 13.9863 21.25 13.0129 21.25 12C21.25 6.89137 17.1086 2.75 12 2.75Z" fill="#333333"/>
<path fill-rule="evenodd" clip-rule="evenodd" d="M12 3.5C12.2761 3.5 12.5 3.72386 12.5 4V6C12.5 6.27614 12.2761 6.5 12 6.5C11.7239 6.5 11.5 6.27614 11.5 6V4C11.5 3.72386 11.7239 3.5 12 3.5Z" fill="#333333"/>
<path fill-rule="evenodd" clip-rule="evenodd" d="M20.5 12C20.5 12.2761 20.2761 12.5 20 12.5L18 12.5C17.7239 12.5 17.5 12.2761 17.5 12C17.5 11.7239 17.7239 11.5 18 11.5L20 11.5C20.2761 11.5 20.5 11.7239 20.5 12Z" fill="#333333"/>
<path fill-rule="evenodd" clip-rule="evenodd" d="M6.5 12C6.5 12.2761 6.27614 12.5 6 12.5L4 12.5C3.72386 12.5 3.5 12.2761 3.5 12C3.5 11.7239 3.72386 11.5 4 11.5L6 11.5C6.27614 11.5 6.5 11.7239 6.5 12Z" fill="#333333"/>
<path fill-rule="evenodd" clip-rule="evenodd" d="M16.25 4.63878C16.4892 4.77685 16.5711 5.08265 16.433 5.32179L15.433 7.05384C15.295 7.29299 14.9892 7.37493 14.75 7.23685C14.5109 7.09878 14.4289 6.79299 14.567 6.55384L15.567 4.82179C15.7051 4.58265 16.0109 4.50071 16.25 4.63878Z" fill="#333333"/>
<path fill-rule="evenodd" clip-rule="evenodd" d="M7.75003 4.63878C7.98918 4.50071 8.29497 4.58265 8.43304 4.82179L9.43304 6.55384C9.57111 6.79299 9.48918 7.09878 9.25003 7.23685C9.01088 7.37493 8.70509 7.29299 8.56702 7.05384L7.56702 5.32179C7.42895 5.08265 7.51088 4.77685 7.75003 4.63878Z" fill="#333333"/>
<path fill-rule="evenodd" clip-rule="evenodd" d="M19.3612 7.75C19.4993 7.98915 19.4173 8.29494 19.1782 8.43301L17.4461 9.43301C17.207 9.57108 16.9012 9.48915 16.7631 9.25C16.6251 9.01085 16.707 8.70506 16.9461 8.56699L18.6782 7.56699C18.9173 7.42891 19.2231 7.51085 19.3612 7.75Z" fill="#333333"/>
<path fill-rule="evenodd" clip-rule="evenodd" d="M4.63879 7.75C4.77687 7.51085 5.08266 7.42892 5.32181 7.56699L7.05386 8.56699C7.293 8.70506 7.37494 9.01085 7.23687 9.25C7.0988 9.48915 6.793 9.57109 6.55386 9.43301L4.82181 8.43301C4.58266 8.29494 4.50072 7.98915 4.63879 7.75Z" fill="#333333"/>
<path fill-rule="evenodd" clip-rule="evenodd" d="M12 6.75C9.10051 6.75 6.75 9.10051 6.75 12C6.75 12.4142 6.41421 12.75 6 12.75C5.58579 12.75 5.25 12.4142 5.25 12C5.25 8.27208 8.27208 5.25 12 5.25C15.7279 5.25 18.75 8.27208 18.75 12C18.75 12.4142 18.4142 12.75 18 12.75C17.5858 12.75 17.25 12.4142 17.25 12C17.25 9.10051 14.8995 6.75 12 6.75Z" fill="#E4685C"/>
<path fill-rule="evenodd" clip-rule="evenodd" d="M12.7737 6.00208C12.8769 5.60094 13.2858 5.35945 13.6869 5.4627C14.707 5.72524 15.633 6.21979 16.4055 6.88577C16.7192 7.15623 16.7543 7.62981 16.4838 7.94353C16.2134 8.25726 15.7398 8.29232 15.4261 8.02186C14.8242 7.50301 14.1044 7.11902 13.3131 6.91535C12.9119 6.81211 12.6704 6.40322 12.7737 6.00208Z" fill="#57C149"/>
<path fill-rule="evenodd" clip-rule="evenodd" d="M12 6.75C9.10051 6.75 6.75 9.10051 6.75 12C6.75 12.4142 6.41421 12.75 6 12.75C5.58579 12.75 5.25 12.4142 5.25 12C5.25 8.27208 8.27208 5.25 12 5.25C12.6447 5.25 13.2695 5.3406 13.8618 5.51023C14.26 5.62428 14.4904 6.03954 14.3763 6.43775C14.2623 6.83595 13.847 7.0663 13.4488 6.95225C12.9895 6.8207 12.5036 6.75 12 6.75Z" fill="#377FB5"/>
<path fill-rule="evenodd" clip-rule="evenodd" d="M12 10.25C11.7239 10.25 11.5 10.4739 11.5 10.75V13.5845C11.5 13.8522 11.3573 14.0996 11.1255 14.2337C10.6005 14.5374 10.25 15.1032 10.25 15.75C10.25 16.7165 11.0335 17.5 12 17.5C12.9665 17.5 13.75 16.7165 13.75 15.75C13.75 15.1032 13.3995 14.5374 12.8745 14.2337C12.6427 14.0996 12.5 13.8522 12.5 13.5845V10.75C12.5 10.4739 12.2761 10.25 12 10.25ZM10 10.75C10 9.64543 10.8954 8.75 12 8.75C13.1046 8.75 14 9.64543 14 10.75V13.1882C14.7599 13.7823 15.25 14.7086 15.25 15.75C15.25 17.5449 13.7949 19 12 19C10.2051 19 8.75 17.5449 8.75 15.75C8.75 14.7086 9.24014 13.7823 10 13.1882V10.75Z" fill="#333333"/>
<path d="M18.3819 16C18.3819 16 20.1408 17.1281 20.5428 18.9608C20.8353 20.2939 19.8812 21.7399 18.5179 21.8047C18.3103 21.8146 18.1019 21.8019 17.8963 21.7665C16.7749 21.5737 15.9712 20.4608 16.0594 19.3264C16.2187 17.2793 18.3819 16 18.3819 16Z" fill="#64C2FF"/>
<path fill-rule="evenodd" clip-rule="evenodd" d="M18.7868 15.3687L18.3819 16L18.0001 15.3544C18.244 15.2102 18.5483 15.2157 18.7868 15.3687ZM18.3638 16.9291C18.2027 17.0555 18.011 17.2203 17.8176 17.4188C17.3138 17.9362 16.8673 18.611 16.8071 19.3846C16.7466 20.1632 17.3131 20.9052 18.0234 21.0274C18.1752 21.0535 18.329 21.0629 18.4823 21.0556C19.3108 21.0162 20.019 20.0731 19.8102 19.1215C19.6502 18.3919 19.2098 17.7708 18.7702 17.3122C18.6254 17.1611 18.4854 17.0327 18.3638 16.9291ZM18.0001 15.3544C18.0003 15.3543 18.0001 15.3544 18.3819 16C18.7868 15.3687 18.7866 15.3686 18.7868 15.3687L18.7887 15.3699L18.7912 15.3716L18.7982 15.3761L18.8196 15.3903C18.8371 15.402 18.8609 15.4183 18.8901 15.4389C18.9486 15.4801 19.0294 15.539 19.1262 15.615C19.319 15.7664 19.5788 15.9882 19.853 16.2741C20.3933 16.8377 21.0334 17.697 21.2754 18.8001C21.6516 20.5148 20.4517 22.4637 18.5535 22.5539C18.2915 22.5664 18.0285 22.5503 17.7692 22.5057C16.2368 22.2421 15.1957 20.7584 15.3117 19.2682C15.4107 17.9948 16.1255 17.0064 16.7431 16.3723C17.058 16.0489 17.3657 15.7989 17.5953 15.629C17.7105 15.5437 17.8074 15.4776 17.8774 15.4317C17.9125 15.4088 17.9409 15.3907 17.9617 15.3778L17.987 15.3623L17.9951 15.3574L17.998 15.3557L18.0001 15.3544Z" fill="#333333"/>
<path fill-rule="evenodd" clip-rule="evenodd" d="M13 15.25C13.2761 15.25 13.5 15.4739 13.5 15.75C13.5 16.5784 12.8284 17.25 12 17.25C11.7239 17.25 11.5 17.0261 11.5 16.75C11.5 16.4739 11.7239 16.25 12 16.25C12.2761 16.25 12.5 16.0261 12.5 15.75C12.5 15.4739 12.7239 15.25 13 15.25Z" fill="#333333"/>
</svg>
