<svg width="24" height="24" viewBox="0 0 24 24" fill="none" xmlns="http://www.w3.org/2000/svg">
<path d="M8 21.8881V11C8 8.79086 9.79086 7 12 7C14.2091 7 16 8.79086 16 11V21.8881C16 21.9499 15.9499 22 15.8881 22H8.11194C8.05012 22 8 21.9499 8 21.8881Z" fill="#1D6F40"/>
<path fill-rule="evenodd" clip-rule="evenodd" d="M12 7.75C10.2051 7.75 8.75 9.20507 8.75 11V21.25H15.25V11C15.25 9.20507 13.7949 7.75 12 7.75ZM7.25 11C7.25 8.37665 9.37665 6.25 12 6.25C14.6234 6.25 16.75 8.37665 16.75 11V21.8881C16.75 22.3641 16.3641 22.75 15.8881 22.75H8.11194C7.6359 22.75 7.25 22.3641 7.25 21.8881V11Z" fill="#333333"/>
<path fill-rule="evenodd" clip-rule="evenodd" d="M12.0537 9.22146C12.2075 8.83687 12.644 8.64981 13.0286 8.80364L12.75 9.5C13.0286 8.80364 13.029 8.80383 13.0295 8.80403L13.0305 8.80442L13.0326 8.80526L13.037 8.80709L13.0474 8.81145C13.055 8.81466 13.0638 8.81851 13.0737 8.82302C13.0936 8.83203 13.1182 8.84374 13.1467 8.85843C13.2038 8.88777 13.2772 8.92926 13.3614 8.98534C13.5295 9.09746 13.7423 9.26918 13.9512 9.51986C14.3789 10.0332 14.75 10.8292 14.75 12C14.75 12.4142 14.4142 12.75 14 12.75C13.5858 12.75 13.25 12.4142 13.25 12C13.25 11.1708 12.9961 10.7168 12.7989 10.4801C12.6953 10.3558 12.5955 10.2775 12.5293 10.2334C12.4962 10.2114 12.472 10.1982 12.4607 10.1924C12.4586 10.1913 12.457 10.1905 12.4559 10.1899C12.0819 10.0306 11.9019 9.6008 12.0537 9.22146Z" fill="white"/>
<path fill-rule="evenodd" clip-rule="evenodd" d="M12 2.25C12.4142 2.24998 12.75 2.58575 12.75 2.99996L12.7501 4.99996C12.7501 5.00298 12.7501 5.006 12.7501 5.00901L12.7501 6.99998C12.7501 7.41419 12.4143 7.74999 12.0001 7.75C11.5859 7.75001 11.2501 7.41423 11.2501 7.00002L11.2501 5.75H8.75961C7.23471 5.75 6.05055 6.47851 5.70006 7.74618C5.42555 8.73909 5.18523 9.83326 5.01276 10.6848C4.92679 11.1094 4.8582 11.471 4.81117 11.7261C4.78766 11.8537 4.76956 11.9544 4.75739 12.0231L4.74366 12.1011L4.74025 12.1207L4.73925 12.1265C4.73925 12.1265 4.73925 12.1265 4.73925 12.1265C4.66925 12.5348 4.28152 12.8092 3.87328 12.7392C3.46502 12.6692 3.1908 12.2815 3.26078 11.8733L3.26216 11.8653L3.26593 11.8436L3.28045 11.7611C3.29316 11.6894 3.31186 11.5853 3.33602 11.4542C3.38434 11.1921 3.45459 10.8217 3.54261 10.3871C3.71813 9.52041 3.96641 8.38774 4.25431 7.34646C4.83734 5.2377 6.78141 4.25 8.75961 4.25H11.25L11.25 3.00004C11.25 2.58583 11.5858 2.25002 12 2.25Z" fill="#333333"/>
<path fill-rule="evenodd" clip-rule="evenodd" d="M15.55 3.72042C17.0099 3.40829 18.5013 3.25 20 3.25C20.4142 3.25 20.75 2.91421 20.75 2.5C20.75 2.08579 20.4142 1.75 20 1.75C17.2649 1.75 14.5522 2.24249 11.9916 3.20389L11.7865 3.28092C11.4406 3.38317 11.2096 3.72347 11.2558 4.09302C11.302 4.46245 11.6095 4.73536 11.9697 4.7495L13.6224 4.93379C15.4022 5.13224 17.143 5.59156 18.789 6.29699L19.7046 6.68936C20.0853 6.85253 20.5262 6.67616 20.6894 6.29544C20.8525 5.91472 20.6762 5.47381 20.2955 5.31064L19.3799 4.91827C18.1459 4.38938 16.8625 3.98833 15.55 3.72042Z" fill="#333333"/>
</svg>
