<svg width="24" height="24" viewBox="0 0 24 24" fill="none" xmlns="http://www.w3.org/2000/svg">
<path d="M5 9V14H12V9H5Z" fill="#DADAD4" class='mian'/>
<path d="M12 9V19H15V9H12Z" fill="#B0B0A5" class='mian'/>
<path d="M5 14V19H12V14H5Z" fill="#9A998D" class='mian'/>
<path fill-rule="evenodd" clip-rule="evenodd" d="M4.25 9C4.25 8.58579 4.58579 8.25 5 8.25H15C15.4142 8.25 15.75 8.58579 15.75 9V19C15.75 19.4142 15.4142 19.75 15 19.75H5C4.58579 19.75 4.25 19.4142 4.25 19V9ZM5.75 9.75V18.25H14.25V9.75H5.75Z" fill="#B3B3B3" class='xian'/>
<path fill-rule="evenodd" clip-rule="evenodd" d="M2 9.5C2.27614 9.5 2.5 9.72386 2.5 10V10.5H5V11.5H2C1.72386 11.5 1.5 11.2761 1.5 11V10C1.5 9.72386 1.72386 9.5 2 9.5Z" fill="#B3B3B3" class='xian'/>
<path d="M5 5V9H12V5H5Z" fill="#F1F0EC" class='mian'/>
<path d="M12.5 15.5V17.7304H13V15.5H12.5Z" fill="#858585"/>
<path d="M12 13.2304V11H11.1011C11.0396 11 10.9837 11.0362 10.9586 11.0923C10.6668 11.7431 10.6668 12.4874 10.9586 13.1381C10.9837 13.1943 11.0396 13.2304 11.1011 13.2304H12Z" fill="#97968B" />
<path d="M15 11V19H21V11H15Z" fill="#C9C9C9" class='mian'/>
<path fill-rule="evenodd" clip-rule="evenodd" d="M15 15.45L15 15.55L12 15.55L12 15.45L15 15.45Z" fill="#333333"/>
<path fill-rule="evenodd" clip-rule="evenodd" d="M12.55 9L12.55 15.5L12.45 15.5L12.45 9L12.55 9Z" fill="#333333"/>
<path fill-rule="evenodd" clip-rule="evenodd" d="M11 18.05C10.9723 18.05 10.95 18.0276 10.95 18L10.95 14.25C10.95 14.2224 10.9723 14.2 11 14.2C11.0276 14.2 11.05 14.2224 11.05 14.25L11.05 18C11.05 18.0276 11.0276 18.05 11 18.05Z" fill="#333333"/>
<path fill-rule="evenodd" clip-rule="evenodd" d="M10.75 18.05C10.7223 18.05 10.7 18.0276 10.7 18L10.7 14.25C10.7 14.2224 10.7223 14.2 10.75 14.2C10.7776 14.2 10.8 14.2224 10.8 14.25L10.8 18C10.8 18.0276 10.7776 18.05 10.75 18.05Z" fill="#333333"/>
<path fill-rule="evenodd" clip-rule="evenodd" d="M11.25 18.05C11.2223 18.05 11.2 18.0276 11.2 18L11.2 14.25C11.2 14.2224 11.2223 14.2 11.25 14.2C11.2776 14.2 11.3 14.2224 11.3 14.25L11.3 18C11.3 18.0276 11.2776 18.05 11.25 18.05Z" fill="#333333"/>
<path fill-rule="evenodd" clip-rule="evenodd" d="M11.5 18.05C11.4723 18.05 11.45 18.0276 11.45 18L11.45 14.25C11.45 14.2224 11.4723 14.2 11.5 14.2C11.5276 14.2 11.55 14.2224 11.55 14.25L11.55 18C11.55 18.0276 11.5276 18.05 11.5 18.05Z" fill="#333333"/>
<path fill-rule="evenodd" clip-rule="evenodd" d="M11.75 18.05C11.7223 18.05 11.7 18.0276 11.7 18L11.7 14.25C11.7 14.2224 11.7223 14.2 11.75 14.2C11.7776 14.2 11.8 14.2224 11.8 14.25L11.8 18C11.8 18.0276 11.7776 18.05 11.75 18.05Z" fill="#333333"/>
<path fill-rule="evenodd" clip-rule="evenodd" d="M15 17.7L15 17.8L12 17.8L12 17.7L15 17.7Z" fill="#333333"/>
<path d="M16 12.95V15.55C16 15.6605 16.0895 15.75 16.2 15.75H19.8C19.9105 15.75 20 15.6605 20 15.55V12.95C20 12.8395 19.9105 12.75 19.8 12.75H16.2C16.0895 12.75 16 12.8395 16 12.95Z" fill="#0E0F13"/>
<path d="M16 16.6V16.9C16 16.9552 16.0448 17 16.1 17H19.9C19.9552 17 20 16.9552 20 16.9V16.6C20 16.5448 19.9552 16.5 19.9 16.5H16.1C16.0448 16.5 16 16.5448 16 16.6Z" fill="#4F4D4C"/>
<path fill-rule="evenodd" clip-rule="evenodd" d="M14.25 11C14.25 10.5858 14.5858 10.25 15 10.25H21C21.4142 10.25 21.75 10.5858 21.75 11V19C21.75 19.4142 21.4142 19.75 21 19.75H15C14.5858 19.75 14.25 19.4142 14.25 19V11ZM15.75 11.75V18.25H20.25V11.75H15.75Z" fill="#B3B3B3" class='xian'/>
<path fill-rule="evenodd" clip-rule="evenodd" d="M15 12.2L21 12.2L21 12.3L15 12.3L15 12.2Z" fill="#333333"/>
<path d="M16.25 17.875C16.25 17.944 16.194 18 16.125 18C16.056 18 16 17.944 16 17.875C16 17.806 16.056 17.75 16.125 17.75C16.194 17.75 16.25 17.806 16.25 17.875Z" fill="#0C0D0A"/>
<path d="M11.8 12.1C11.8 12.3761 11.5762 12.6 11.3 12.6C11.0239 12.6 10.8 12.3761 10.8 12.1C10.8 11.8238 11.0239 11.6 11.3 11.6C11.5762 11.6 11.8 11.8238 11.8 12.1Z" fill="#C1C1B9"/>
<path d="M5 7.5V8H12V7.5H5Z" fill="#5E5E5E"/>
<path d="M10.25 7.75C10.25 7.81904 10.194 7.875 10.125 7.875C10.056 7.875 10 7.81904 10 7.75C10 7.68096 10.056 7.625 10.125 7.625C10.194 7.625 10.25 7.68096 10.25 7.75Z" fill="#F5EF3B"/>
<path d="M10.75 7.75C10.75 7.81904 10.694 7.875 10.625 7.875C10.556 7.875 10.5 7.81904 10.5 7.75C10.5 7.68096 10.556 7.625 10.625 7.625C10.694 7.625 10.75 7.68096 10.75 7.75Z" fill="#F5EF3B"/>
<path fill-rule="evenodd" clip-rule="evenodd" d="M4.25 5C4.25 4.58579 4.58579 4.25 5 4.25H12C12.4142 4.25 12.75 4.58579 12.75 5V9C12.75 9.41421 12.4142 9.75 12 9.75H5C4.58579 9.75 4.25 9.41421 4.25 9V5ZM5.75 5.75V8.25H11.25V5.75H5.75Z" fill="#B3B3B3" class='xian'/>
<path d="M20 11.975C20 12.044 19.944 12.1 19.875 12.1C19.806 12.1 19.75 12.044 19.75 11.975C19.75 11.9059 19.806 11.85 19.875 11.85C19.944 11.85 20 11.9059 20 11.975Z" fill="#83926D"/>
<path d="M16.75 17.875C16.75 17.944 16.694 18 16.625 18C16.556 18 16.5 17.944 16.5 17.875C16.5 17.806 16.556 17.75 16.625 17.75C16.694 17.75 16.75 17.806 16.75 17.875Z" fill="#0C0D0A"/>
<g filter="url(#filter0_i_2280_1598)">
<path d="M4.09998 8.47698V10.3C4.09998 10.4105 4.01043 10.5 3.89998 10.5H2.79998C2.68952 10.5 2.59998 10.4105 2.59998 10.3V8.47725C2.59998 8.42132 2.6234 8.36794 2.66456 8.33007L3.01036 8.0119H3.69144L4.03572 8.3301C4.07668 8.36796 4.09998 8.4212 4.09998 8.47698Z" fill="#EBEBEB" class='xian'/>
</g>
<path d="M3.01038 7.6C3.01038 7.54477 3.05515 7.5 3.11038 7.5H3.58959C3.64482 7.5 3.68959 7.54477 3.68959 7.6V8.02099H3.01038L3.01038 7.6Z" fill="#E08945" class='xian'/>
<defs>
<filter id="filter0_i_2280_1598" x="2.34998" y="8.0119" width="1.75" height="2.4881" filterUnits="userSpaceOnUse" color-interpolation-filters="sRGB">
<feFlood flood-opacity="0" result="BackgroundImageFix"/>
<feBlend mode="normal" in="SourceGraphic" in2="BackgroundImageFix" result="shape"/>
<feColorMatrix in="SourceAlpha" type="matrix" values="0 0 0 0 0 0 0 0 0 0 0 0 0 0 0 0 0 0 127 0" result="hardAlpha"/>
<feOffset dx="-0.25"/>
<feGaussianBlur stdDeviation="0.25"/>
<feComposite in2="hardAlpha" operator="arithmetic" k2="-1" k3="1"/>
<feColorMatrix type="matrix" values="0 0 0 0 0 0 0 0 0 0 0 0 0 0 0 0 0 0 0.25 0"/>
<feBlend mode="normal" in2="shape" result="effect1_innerShadow_2280_1598"/>
</filter>
</defs>
</svg>
