<svg width="24" height="24" viewBox="0 0 24 24" fill="none" xmlns="http://www.w3.org/2000/svg">
<path d="M2 12L3.5 8.5L5.87414 9.44966L6 10.5L5.5 13.5L6.5 15.5L9.5 16L12 15.5L13.5 16L15 19.5L13.5 20L12.5 19.5V18.5H11.5L8 19.5L4 18L2 12Z" fill="#D48249" class='mian'/>
<path d="M6 12.5L6.5 8.5L15 8.50001L20.5 7L21.5 8.50001L17.5 13L13 15L9.5 16L6 15V12.5Z" fill="#F5A56A" class='mian'/>
<path fill-rule="evenodd" clip-rule="evenodd" d="M2.86751 9.03979C3.26578 9.15359 3.4964 9.5687 3.38261 9.96698C3.03614 11.1796 2.80844 13.0725 3.2235 14.7836C3.62791 16.4507 4.62246 17.9076 6.7442 18.489C6.76817 18.495 6.79319 18.5013 6.81924 18.5079C7.6005 18.7056 9.30402 19.1368 11.1731 18.0153C11.5283 17.8022 11.989 17.9174 12.2021 18.2725C12.4152 18.6277 12.3 19.0884 11.9449 19.3015C9.53415 20.748 7.30106 20.1787 6.46811 19.9664C6.43373 19.9577 6.40174 19.9495 6.37222 19.9421L6.35678 19.9381C3.58989 19.1835 2.26919 17.2125 1.76578 15.1372C1.27255 13.1039 1.54534 10.9373 1.94032 9.55489C2.05412 9.15662 2.46923 8.926 2.86751 9.03979Z" fill="#333333" class='xian'/>
<path fill-rule="evenodd" clip-rule="evenodd" d="M3.39565 9.91413C3.31169 10.3168 2.91848 10.5772 2.51435 10.4964C2.10818 10.4151 1.84478 10.02 1.92603 9.61382L2.66131 9.7609C1.92603 9.61382 1.92609 9.61354 1.92614 9.61325L1.92626 9.61266L1.92652 9.61139L1.92711 9.60853L1.92857 9.60154L1.93274 9.58262C1.93607 9.5679 1.94058 9.54894 1.94639 9.52634C1.95798 9.4813 1.97499 9.42085 1.99862 9.34996C2.04501 9.21079 2.1213 9.01811 2.24081 8.81895C2.47543 8.42794 2.95605 7.89874 3.77368 7.89874C4.2929 7.89874 5.09373 7.9876 5.73817 8.31283C6.06698 8.47878 6.41879 8.73863 6.63216 9.14393C6.85645 9.56995 6.87408 10.0539 6.71263 10.5449C6.36288 11.6862 6.23404 13.1743 6.72597 14.1692C6.95456 14.6315 7.32037 14.9983 7.91748 15.2006C8.53841 15.4111 9.46828 15.4624 10.8342 15.1472C10.8723 15.1384 10.919 15.1264 10.9734 15.1124C11.433 14.9941 12.4423 14.7344 13.3959 15.0968C14.5876 15.5497 15.4073 16.7947 15.6418 19.1399C15.6559 19.2809 15.6298 19.4231 15.5664 19.5499C15.422 19.8387 15.1771 20.014 14.9791 20.1196C14.7719 20.2301 14.5365 20.3066 14.3027 20.3616C13.8332 20.4721 13.2612 20.5206 12.6712 20.5206C12.257 20.5206 11.9212 20.1848 11.9212 19.7706C11.9212 19.741 11.9105 19.6517 11.8641 19.5125C11.8203 19.3811 11.7561 19.2399 11.6805 19.1138C11.6026 18.984 11.5286 18.897 11.4762 18.8516C11.4744 18.85 11.4727 18.8486 11.4711 18.8472C11.0983 18.8037 10.809 18.4868 10.809 18.1023C10.809 17.6881 11.1448 17.3523 11.559 17.3523C11.9498 17.3523 12.2578 17.544 12.4586 17.718C12.6668 17.8985 12.8361 18.1243 12.9667 18.3421C13.0844 18.5382 13.1926 18.7652 13.2738 18.9991C13.5396 18.9791 13.7717 18.9456 13.9591 18.9015C14.0116 18.8892 14.0577 18.8766 14.0978 18.8644C13.8459 17.1121 13.2458 16.6444 12.863 16.4989C12.386 16.3177 11.8692 16.4418 11.3629 16.5634C11.2989 16.5788 11.2351 16.5941 11.1715 16.6087C9.64582 16.9608 8.41156 16.9519 7.43604 16.6213C6.4367 16.2826 5.77374 15.6276 5.38136 14.8341C4.6324 13.3194 4.89122 11.364 5.28122 10.0965L5.28654 10.0799C5.34249 9.91201 5.31174 9.85537 5.30539 9.84367C5.30519 9.8433 5.30501 9.84297 5.30486 9.84269C5.28768 9.81006 5.22938 9.73626 5.06234 9.65196C4.71508 9.47671 4.18128 9.39874 3.77368 9.39874C3.70157 9.39874 3.62608 9.42564 3.52703 9.59072C3.47969 9.6696 3.44476 9.75497 3.42163 9.82434C3.4105 9.85771 3.40318 9.88416 3.39912 9.89994L3.39565 9.91413ZM14.3002 18.7797C14.3003 18.7797 14.299 18.7808 14.296 18.7828C14.2986 18.7806 14.3001 18.7796 14.3002 18.7797ZM11.446 18.8287C11.446 18.8286 11.4473 18.8293 11.4501 18.8311C11.4474 18.8297 11.446 18.8288 11.446 18.8287Z" fill="#333333" class='xian'/>
<path fill-rule="evenodd" clip-rule="evenodd" d="M18.7073 8.40983C18.4808 8.52595 18.2498 8.64434 18.0114 8.76352C16.7229 9.40781 15.7218 9.40642 14.712 9.25105C14.4365 9.20867 14.1732 9.15861 13.9087 9.10835C13.2138 8.97627 12.511 8.84269 11.559 8.84269C10.1967 8.8427 9.04375 8.93394 8.15754 9.10685C7.23517 9.28682 6.732 9.53159 6.52841 9.73518C6.23551 10.0281 5.76064 10.0281 5.46775 9.73518C5.17485 9.44229 5.17485 8.96741 5.46775 8.67452C6.00561 8.13666 6.89267 7.82536 7.87029 7.63461C8.88406 7.43681 10.1409 7.3427 11.559 7.34269C12.6654 7.34268 13.5673 7.51438 14.2905 7.65206C14.5256 7.69683 14.7419 7.738 14.9401 7.7685C15.7376 7.8912 16.4048 7.88982 17.3406 7.42189C17.5482 7.31808 17.7691 7.20494 17.9936 7.09001C18.3398 6.91271 18.6943 6.73115 19.0211 6.57301C19.5626 6.31102 20.126 6.06343 20.6142 5.9456C20.8574 5.88689 21.1376 5.84594 21.4144 5.88312C21.7099 5.92281 22.0371 6.05958 22.2616 6.3781C22.4705 6.67442 22.5125 7.01993 22.4971 7.31933C22.4814 7.62394 22.4025 7.96307 22.2802 8.32988C21.6446 10.2366 18.8978 14.1907 12.8918 16.0387C12.4959 16.1605 12.0762 15.9383 11.9544 15.5424C11.8325 15.1465 12.0547 14.7269 12.4506 14.605C18.0113 12.8941 20.3806 9.28537 20.8572 7.85554C20.9212 7.66339 20.9589 7.51392 20.9794 7.40057C20.975 7.40159 20.9706 7.40264 20.9661 7.40372C20.648 7.48051 20.2104 7.6639 19.6745 7.92325C19.3555 8.07759 19.0361 8.24131 18.7073 8.40983Z" fill="#333333" class='xian'/>
<path fill-rule="evenodd" clip-rule="evenodd" d="M10.1967 11.9853C10.1967 11.8472 10.3087 11.7353 10.4467 11.7353C10.5964 11.7353 10.754 11.7894 10.9033 11.869C11.0562 11.9505 11.2182 12.0684 11.3809 12.2187C11.7068 12.5194 12.0486 12.9617 12.3386 13.5418C12.4004 13.6653 12.3503 13.8154 12.2268 13.8772C12.1033 13.9389 11.9532 13.8889 11.8914 13.7654C11.6253 13.2332 11.3184 12.8414 11.0418 12.5861C10.9033 12.4583 10.7757 12.3676 10.668 12.3101C10.5565 12.2507 10.4825 12.2353 10.4467 12.2353C10.3087 12.2353 10.1967 12.1234 10.1967 11.9853Z" fill="#333333" class='xian'/>
<path fill-rule="evenodd" clip-rule="evenodd" d="M8.73026 10.6278C8.86573 10.6012 8.99715 10.6894 9.02378 10.8249L9.02405 10.8262L9.02463 10.8292L9.02665 10.8399L9.03376 10.8791C9.03969 10.9127 9.04781 10.9609 9.0568 11.0201C9.07474 11.1384 9.09633 11.3023 9.11077 11.4845C9.12515 11.666 9.13277 11.8697 9.12153 12.0666C9.11046 12.2603 9.08037 12.4637 9.00986 12.636C8.95757 12.7638 8.81159 12.825 8.6838 12.7728C8.55601 12.7205 8.49481 12.5745 8.5471 12.4467C8.58735 12.3483 8.61264 12.2079 8.62234 12.038C8.63186 11.8714 8.62564 11.6918 8.61233 11.524C8.59908 11.3567 8.57913 11.2051 8.56246 11.0951C8.55414 11.0403 8.54668 10.9961 8.54137 10.966L8.53517 10.9318L8.53359 10.9235L8.53323 10.9216C8.50663 10.7861 8.59479 10.6544 8.73026 10.6278Z" fill="#333333" class='xian'/>
<path fill-rule="evenodd" clip-rule="evenodd" d="M13.8416 10.0739C13.9759 10.106 14.0586 10.241 14.0265 10.3752L14.0255 10.3791L14.023 10.3896L14.0133 10.4291C14.0048 10.4632 13.9924 10.5122 13.9768 10.5724C13.9455 10.6927 13.9008 10.8584 13.8474 11.0398C13.7431 11.3939 13.5973 11.8371 13.4452 12.1078C13.3776 12.2281 13.2251 12.2709 13.1048 12.2032C12.9844 12.1356 12.9417 11.9832 13.0093 11.8628C13.1299 11.6482 13.2622 11.2572 13.3678 10.8986C13.4193 10.7235 13.4625 10.5632 13.4929 10.4465C13.508 10.3882 13.5199 10.341 13.528 10.3084L13.5372 10.2712L13.5395 10.2617L13.5401 10.2594C13.5401 10.2594 13.5401 10.2594 13.5401 10.2594C13.5723 10.1251 13.7073 10.0417 13.8416 10.0739Z" fill="#333333" class='xian'/>
<path fill-rule="evenodd" clip-rule="evenodd" d="M15.7578 10.8731C15.7578 10.735 15.8697 10.6231 16.0078 10.6231V10.8731C16.0078 10.6231 16.0079 10.6231 16.008 10.6231L16.0083 10.6231L16.0089 10.6231L16.0102 10.6231L16.0134 10.6232L16.0222 10.6234C16.0292 10.6236 16.0383 10.624 16.0494 10.6247C16.0716 10.6262 16.1017 10.629 16.1387 10.6343C16.2127 10.6449 16.3144 10.6654 16.4344 10.7054C16.6754 10.7858 16.9882 10.9438 17.2968 11.2524C17.3944 11.3501 17.3944 11.5083 17.2968 11.606C17.1991 11.7036 17.0408 11.7036 16.9432 11.606C16.6957 11.3585 16.4524 11.2385 16.2763 11.1798C16.1878 11.1503 16.1157 11.1361 16.068 11.1293C16.0442 11.1259 16.0266 11.1243 16.0161 11.1236L16.0061 11.1231C16.0059 11.1231 16.0057 11.1231 16.0056 11.1231C15.8685 11.1219 15.7578 11.0105 15.7578 10.8731Z" fill="#333333" class='xian'/>
<path fill-rule="evenodd" clip-rule="evenodd" d="M6.50431 4.56382C6.9176 4.5363 7.27496 4.84903 7.30248 5.26233C7.35302 6.02128 7.50377 6.86938 8.19665 7.56227C8.48954 7.85516 8.48954 8.33003 8.19665 8.62293C7.90376 8.91582 7.42888 8.91582 7.13599 8.62293C6.04938 7.53631 5.86342 6.22737 5.80579 5.36199C5.77827 4.94869 6.09101 4.59134 6.50431 4.56382Z" fill="#333333" class='xian'/>
<path fill-rule="evenodd" clip-rule="evenodd" d="M4.72039 3.99544C4.83338 3.59693 5.24803 3.36548 5.64653 3.47846C6.3626 3.68149 6.79463 4.08128 7.0362 4.47985C7.15211 4.6711 7.21712 4.85005 7.2537 4.9869C7.27206 5.05559 7.28358 5.11484 7.29082 5.16138C7.29445 5.1847 7.29704 5.20501 7.29887 5.2219L7.30112 5.24472L7.30189 5.25418L7.30221 5.25841L7.30235 5.26039L7.30241 5.26136C7.30244 5.26183 7.30247 5.26229 6.55601 5.31206L7.30247 5.2623C7.33003 5.67559 7.01732 6.03297 6.60402 6.06052C6.19969 6.08747 5.84888 5.78877 5.80805 5.38882C5.80744 5.38583 5.80635 5.38088 5.80459 5.37429C5.79796 5.34948 5.7833 5.30663 5.75342 5.25734C5.70341 5.17483 5.57934 5.01854 5.23737 4.92158C4.83886 4.80859 4.6074 4.39394 4.72039 3.99544Z" fill="#333333" class='xian'/>
<path fill-rule="evenodd" clip-rule="evenodd" d="M10.5148 3.78398C10.7446 4.12862 10.6514 4.59427 10.3068 4.82404C9.8353 5.13836 9.49178 5.70132 9.2672 6.37092C9.04561 7.03159 8.97247 7.70078 8.97247 8.09265C8.97247 8.50686 8.63669 8.84265 8.22247 8.84265C7.80826 8.84265 7.47247 8.50686 7.47247 8.09265C7.47247 7.5577 7.56617 6.72544 7.84506 5.89393C8.12096 5.07134 8.61158 4.15139 9.47473 3.57596C9.81937 3.3462 10.285 3.43933 10.5148 3.78398Z" fill="#333333" class='xian'/>
<path fill-rule="evenodd" clip-rule="evenodd" d="M21.8516 6.69763C22.0078 6.85384 22.0078 7.10711 21.8516 7.26332C19.5976 9.5173 17.6088 10.8016 15.8836 11.5204C14.1552 12.2406 12.7101 12.3853 11.5591 12.3853C10.5375 12.3853 9.44526 12.7718 8.54745 13.2431C8.10218 13.4769 7.71486 13.7262 7.41982 13.9475C7.11199 14.1784 6.93946 14.3529 6.88704 14.4316C6.7645 14.6154 6.51615 14.665 6.33234 14.5425C6.14853 14.42 6.09886 14.1716 6.2214 13.9878C6.35434 13.7884 6.62204 13.5459 6.93982 13.3075C7.27038 13.0596 7.69404 12.7876 8.17559 12.5348C9.13143 12.033 10.3563 11.5853 11.5591 11.5853C12.6324 11.5853 13.9678 11.452 15.5759 10.7819C17.1872 10.1106 19.0911 8.89239 21.2859 6.69763C21.4421 6.54142 21.6954 6.54142 21.8516 6.69763Z" fill="#333333" class='xian'/>
</svg>
