<svg width="24" height="24" viewBox="0 0 24 24" fill="none" xmlns="http://www.w3.org/2000/svg">
<path d="M18 12C18 14.2091 14.4183 16 10 16C5.58172 16 2 15 2 12C2 9 5.58172 8 10 8C14.4183 8 18 9.79086 18 12Z" fill="#ABC0A1" class='mian'/>
<path fill-rule="evenodd" clip-rule="evenodd" d="M3.21859 10.5725C2.9214 10.9511 2.75 11.4115 2.75 12C2.75 12.5885 2.9214 13.0489 3.21859 13.4275C3.52443 13.817 3.99398 14.1574 4.64041 14.4364C5.94762 15.0008 7.82574 15.25 10 15.25C12.118 15.25 13.9983 14.8192 15.3214 14.1576C16.6894 13.4736 17.25 12.6674 17.25 12C17.25 11.3326 16.6894 10.5264 15.3214 9.84239C13.9983 9.18083 12.118 8.75 10 8.75C7.82574 8.75 5.94762 8.99923 4.64041 9.56357C3.99398 9.84265 3.52443 10.183 3.21859 10.5725ZM4.04588 8.18643C5.6341 7.50077 7.75598 7.25 10 7.25C12.3003 7.25 14.42 7.7146 15.9923 8.50075C17.5197 9.26447 18.75 10.4583 18.75 12C18.75 13.5417 17.5197 14.7355 15.9923 15.4992C14.42 16.2854 12.3003 16.75 10 16.75C7.75598 16.75 5.6341 16.4992 4.04588 15.8136C3.2446 15.4676 2.54257 14.9955 2.03877 14.3538C1.52631 13.7011 1.25 12.9115 1.25 12C1.25 11.0885 1.52631 10.2989 2.03877 9.64623C2.54257 9.00453 3.2446 8.53235 4.04588 8.18643Z" fill="#333333" class='xian'/>
<path fill-rule="evenodd" clip-rule="evenodd" d="M5.4826 10.2841C4.3345 10.6654 3.75 11.2317 3.75 12C3.75 12.7683 4.3345 13.3346 5.4826 13.7159C6.62041 14.0937 8.21334 14.25 10 14.25C11.7723 14.25 13.3655 13.9733 14.5064 13.5344C15.0778 13.3147 15.523 13.0592 15.821 12.7882C16.119 12.5172 16.25 12.2505 16.25 12C16.25 11.7495 16.119 11.4828 15.821 11.2118C15.523 10.9408 15.0778 10.6853 14.5064 10.4656C13.3655 10.0267 11.7723 9.75 10 9.75C8.21334 9.75 6.62041 9.90628 5.4826 10.2841ZM5.32501 9.80962C6.53974 9.40622 8.19681 9.25 10 9.25C11.8176 9.25 13.4744 9.53292 14.6859 9.9989C15.2909 10.2316 15.7976 10.5147 16.1574 10.8419C16.5173 11.1692 16.75 11.5602 16.75 12C16.75 12.4398 16.5173 12.8308 16.1574 13.1581C15.7976 13.4853 15.2909 13.7684 14.6859 14.0011C13.4744 14.4671 11.8176 14.75 10 14.75C8.19681 14.75 6.53974 14.5938 5.32501 14.1904C4.12057 13.7904 3.25 13.1067 3.25 12C3.25 10.8933 4.12057 10.2096 5.32501 9.80962Z" fill="#C9823E"/>
<path fill-rule="evenodd" clip-rule="evenodd" d="M8.74999 10.9C8.80522 10.9 8.84999 10.9448 8.84999 11V13C8.84999 13.0553 8.80522 13.1 8.74999 13.1C8.69477 13.1 8.64999 13.0553 8.64999 13V11C8.64999 10.9448 8.69477 10.9 8.74999 10.9Z" fill="#333333" class='xian'/>
<path fill-rule="evenodd" clip-rule="evenodd" d="M9.24999 10.9C9.30522 10.9 9.34999 10.9448 9.34999 11V13C9.34999 13.0553 9.30522 13.1 9.24999 13.1C9.19477 13.1 9.14999 13.0553 9.14999 13V11C9.14999 10.9448 9.19477 10.9 9.24999 10.9Z" fill="#333333" class='xian'/>
<path fill-rule="evenodd" clip-rule="evenodd" d="M7.24999 10.9C7.30522 10.9 7.34999 10.9448 7.34999 11V13C7.34999 13.0553 7.30522 13.1 7.24999 13.1C7.19477 13.1 7.14999 13.0553 7.14999 13V11C7.14999 10.9448 7.19477 10.9 7.24999 10.9Z" fill="#333333" class='xian'/>
<path fill-rule="evenodd" clip-rule="evenodd" d="M10.75 10.9C10.8052 10.9 10.85 10.9448 10.85 11V13C10.85 13.0553 10.8052 13.1 10.75 13.1C10.6948 13.1 10.65 13.0553 10.65 13V11C10.65 10.9448 10.6948 10.9 10.75 10.9Z" fill="#333333" class='xian'/>
<path fill-rule="evenodd" clip-rule="evenodd" d="M11.25 10.9C11.3052 10.9 11.35 10.9448 11.35 11V13C11.35 13.0553 11.3052 13.1 11.25 13.1C11.1948 13.1 11.15 13.0553 11.15 13V11C11.15 10.9448 11.1948 10.9 11.25 10.9Z" fill="#333333" class='xian'/>
<path fill-rule="evenodd" clip-rule="evenodd" d="M12.75 10.9C12.8052 10.9 12.85 10.9448 12.85 11V13C12.85 13.0553 12.8052 13.1 12.75 13.1C12.6948 13.1 12.65 13.0553 12.65 13V11C12.65 10.9448 12.6948 10.9 12.75 10.9Z" fill="#333333" class='xian'/>
<path fill-rule="evenodd" clip-rule="evenodd" d="M11.7858 12.8475C11.6004 13.07 11.3488 13.25 11 13.25C10.8619 13.25 10.75 13.1381 10.75 13C10.75 12.8619 10.8619 12.75 11 12.75C11.1512 12.75 11.2746 12.68 11.4017 12.5275C11.5357 12.3667 11.6479 12.1453 11.7764 11.8882C11.7788 11.8834 11.7812 11.8786 11.7836 11.8738C11.9033 11.6343 12.0392 11.3624 12.2142 11.1525C12.3996 10.93 12.6512 10.75 13 10.75C13.1381 10.75 13.25 10.8619 13.25 11C13.25 11.1381 13.1381 11.25 13 11.25C12.8488 11.25 12.7254 11.32 12.5983 11.4725C12.4643 11.6333 12.3521 11.8547 12.2236 12.1118C12.2212 12.1166 12.2188 12.1214 12.2164 12.1262C12.0967 12.3657 11.9608 12.6376 11.7858 12.8475Z" fill="#333333" class='xian'/>
<path fill-rule="evenodd" clip-rule="evenodd" d="M11.7858 11.1525C11.6004 10.93 11.3488 10.75 11 10.75C10.8619 10.75 10.75 10.8619 10.75 11C10.75 11.1381 10.8619 11.25 11 11.25C11.1512 11.25 11.2746 11.32 11.4017 11.4725C11.5357 11.6333 11.6479 11.8547 11.7764 12.1118C11.7788 12.1166 11.7812 12.1214 11.7836 12.1262C11.9033 12.3657 12.0392 12.6376 12.2142 12.8475C12.3996 13.07 12.6512 13.25 13 13.25C13.1381 13.25 13.25 13.1381 13.25 13C13.25 12.8619 13.1381 12.75 13 12.75C12.8488 12.75 12.7254 12.68 12.5983 12.5275C12.4643 12.3667 12.3521 12.1453 12.2236 11.8882C12.2212 11.8834 12.2188 11.8786 12.2164 11.8738C12.0967 11.6343 11.9608 11.3624 11.7858 11.1525Z" fill="#666666" class='xian'/>
<path fill-rule="evenodd" clip-rule="evenodd" d="M7.78581 12.8475C7.60044 13.07 7.34878 13.25 7 13.25C6.86193 13.25 6.75 13.1381 6.75 13C6.75 12.8619 6.86193 12.75 7 12.75C7.15122 12.75 7.27456 12.68 7.40169 12.5275C7.53569 12.3667 7.64785 12.1453 7.77639 11.8882C7.77879 11.8834 7.7812 11.8786 7.78361 11.8738C7.90332 11.6343 8.03921 11.3624 8.21419 11.1525C8.39956 10.93 8.65122 10.75 9 10.75C9.13807 10.75 9.25 10.8619 9.25 11C9.25 11.1381 9.13807 11.25 9 11.25C8.84878 11.25 8.72544 11.32 8.59831 11.4725C8.46431 11.6333 8.35215 11.8547 8.22361 12.1118C8.22121 12.1166 8.2188 12.1214 8.21639 12.1262C8.09669 12.3657 7.96079 12.6376 7.78581 12.8475Z" fill="#333333" class='xian'/>
<path fill-rule="evenodd" clip-rule="evenodd" d="M7.78581 11.1525C7.60044 10.93 7.34878 10.75 7 10.75C6.86193 10.75 6.75 10.8619 6.75 11C6.75 11.1381 6.86193 11.25 7 11.25C7.15122 11.25 7.27456 11.32 7.40169 11.4725C7.53569 11.6333 7.64785 11.8547 7.77639 12.1118C7.77879 12.1166 7.7812 12.1214 7.78361 12.1262C7.90332 12.3657 8.03921 12.6376 8.21419 12.8475C8.39956 13.07 8.65122 13.25 9 13.25C9.34878 13.25 9.60044 13.07 9.78581 12.8475C9.96079 12.6376 10.0967 12.3657 10.2164 12.1262C10.2188 12.1214 10.2212 12.1166 10.2236 12.1118C10.3521 11.8547 10.4643 11.6333 10.5983 11.4725C10.7254 11.32 10.8488 11.25 11 11.25C11.1381 11.25 11.25 11.1381 11.25 11C11.25 10.8619 11.1381 10.75 11 10.75C10.6512 10.75 10.3996 10.93 10.2142 11.1525C10.0392 11.3624 9.90332 11.6343 9.78361 11.8738C9.7812 11.8786 9.77879 11.8834 9.77639 11.8882C9.64785 12.1453 9.53569 12.3667 9.40169 12.5275C9.27456 12.68 9.15122 12.75 9 12.75C8.84878 12.75 8.72544 12.68 8.59831 12.5275C8.46431 12.3667 8.35215 12.1453 8.22361 11.8882C8.22121 11.8834 8.2188 11.8786 8.21639 11.8738C8.09669 11.6343 7.96079 11.3624 7.78581 11.1525Z" fill="#666666" class='xian'/>
<path fill-rule="evenodd" clip-rule="evenodd" d="M8.75 11C8.75 10.8619 8.86193 10.75 9 10.75C9.34878 10.75 9.60044 10.93 9.78581 11.1525C9.96079 11.3624 10.0967 11.6343 10.2164 11.8738C10.2188 11.8786 10.2212 11.8834 10.2236 11.8882C10.3521 12.1453 10.4643 12.3667 10.5983 12.5275C10.7254 12.68 10.8488 12.75 11 12.75C11.1381 12.75 11.25 12.8619 11.25 13C11.25 13.1381 11.1381 13.25 11 13.25C10.6512 13.25 10.3996 13.07 10.2142 12.8475C10.0392 12.6376 9.90332 12.3657 9.78361 12.1262C9.7812 12.1214 9.77879 12.1166 9.77639 12.1118C9.64785 11.8547 9.53569 11.6333 9.40169 11.4725C9.27456 11.32 9.15122 11.25 9 11.25C8.86193 11.25 8.75 11.1381 8.75 11Z" fill="#333333" class='xian'/>
<path fill-rule="evenodd" clip-rule="evenodd" d="M18.8153 12.4565C18.6544 12.5701 18.3677 12.75 18 12.75C17.5858 12.75 17.25 12.4142 17.25 12C17.25 11.6146 17.5407 11.2971 17.9148 11.2548C17.924 11.249 17.9358 11.2412 17.9503 11.231C18.016 11.1846 18.0711 11.1388 18.1474 11.0753C18.1996 11.0319 18.2617 10.9802 18.344 10.9144C18.6842 10.6422 19.2315 10.25 20 10.25C20.3779 10.25 20.7521 10.346 21.0767 10.5718C21.4013 10.7976 21.6267 11.1187 21.7647 11.4867C22.0306 12.1957 21.9923 13.1231 21.7276 14.1819C21.6101 14.6518 21.4663 15.0723 21.341 15.4383C21.323 15.4909 21.3054 15.5424 21.2883 15.5927C21.1479 16.0062 21.0428 16.3417 20.9913 16.6765C20.8978 17.2842 20.9651 17.984 21.6431 19.1141C21.8562 19.4693 21.7411 19.93 21.3859 20.1431C21.0307 20.3562 20.57 20.2411 20.3569 19.8859C19.5349 18.516 19.3522 17.4658 19.5087 16.4485C19.5822 15.9708 19.7271 15.525 19.868 15.1104C19.8864 15.0562 19.9048 15.0024 19.9231 14.9488C20.0491 14.5799 20.1714 14.222 20.2724 13.8181C20.5077 12.8769 20.4694 12.3043 20.3603 12.0133C20.3108 11.8813 20.255 11.8274 20.2201 11.8032C20.1854 11.779 20.1221 11.75 20 11.75C19.7685 11.75 19.5658 11.8578 19.281 12.0857C19.2498 12.1106 19.2112 12.1425 19.1684 12.1779C19.0607 12.267 18.9263 12.3782 18.8153 12.4565ZM17.8887 11.2696C17.8887 11.2696 17.8895 11.2692 17.891 11.2686C17.8894 11.2693 17.8887 11.2697 17.8887 11.2696Z" fill="#333333" class='xian'/>
</svg>
