<svg width="24" height="24" viewBox="0 0 24 24" fill="none" xmlns="http://www.w3.org/2000/svg">
<path fill-rule="evenodd" clip-rule="evenodd" d="M2.25 4C2.25 3.58579 2.58579 3.25 3 3.25H21C21.4142 3.25 21.75 3.58579 21.75 4V20C21.75 20.4142 21.4142 20.75 21 20.75H3C2.58579 20.75 2.25 20.4142 2.25 20V4ZM3.75 4.75V19.25H20.25V4.75H3.75Z" fill="#333333" class='xian'/>
<path d="M8 9C8 9.27614 7.77614 9.5 7.5 9.5C7.22386 9.5 7 9.27614 7 9C7 8.72386 7.22386 8.5 7.5 8.5C7.77614 8.5 8 8.72386 8 9Z" fill="#333333" class='xian'/>
<path d="M9.60001 9C9.60001 9.27614 9.37615 9.5 9.10001 9.5C8.82386 9.5 8.60001 9.27614 8.60001 9C8.60001 8.72386 8.82386 8.5 9.10001 8.5C9.37615 8.5 9.60001 8.72386 9.60001 9Z" fill="#333333" class='xian'/>
<path d="M11.2 9C11.2 9.27614 10.9762 9.5 10.7 9.5C10.4239 9.5 10.2 9.27614 10.2 9C10.2 8.72386 10.4239 8.5 10.7 8.5C10.9762 8.5 11.2 8.72386 11.2 9Z" fill="#333333" class='xian'/>
<path d="M12.8 9C12.8 9.27614 12.5761 9.5 12.3 9.5C12.0238 9.5 11.8 9.27614 11.8 9C11.8 8.72386 12.0238 8.5 12.3 8.5C12.5761 8.5 12.8 8.72386 12.8 9Z" fill="#333333" class='xian'/>
<path d="M14.4 9C14.4 9.27614 14.1761 9.5 13.9 9.5C13.6239 9.5 13.4 9.27614 13.4 9C13.4 8.72386 13.6239 8.5 13.9 8.5C14.1761 8.5 14.4 8.72386 14.4 9Z" fill="#333333" class='xian'/>
<path d="M16 9C16 9.27614 15.7761 9.5 15.5 9.5C15.2239 9.5 15 9.27614 15 9C15 8.72386 15.2239 8.5 15.5 8.5C15.7761 8.5 16 8.72386 16 9Z" fill="#333333" class='xian'/>
<path d="M17.6 9C17.6 9.27614 17.3761 9.5 17.1 9.5C16.8239 9.5 16.6 9.27614 16.6 9C16.6 8.72386 16.8239 8.5 17.1 8.5C17.3761 8.5 17.6 8.72386 17.6 9Z" fill="#333333" class='xian'/>
<path d="M19.2 9C19.2 9.27614 18.9762 9.5 18.7 9.5C18.4239 9.5 18.2 9.27614 18.2 9C18.2 8.72386 18.4239 8.5 18.7 8.5C18.9762 8.5 19.2 8.72386 19.2 9Z" fill="#333333" class='xian'/>
<path d="M8 11C8 11.2761 7.77614 11.5 7.5 11.5C7.22386 11.5 7 11.2761 7 11C7 10.7239 7.22386 10.5 7.5 10.5C7.77614 10.5 8 10.7239 8 11Z" fill="#333333" class='xian'/>
<path d="M9.60001 11C9.60001 11.2761 9.37615 11.5 9.10001 11.5C8.82386 11.5 8.60001 11.2761 8.60001 11C8.60001 10.7239 8.82386 10.5 9.10001 10.5C9.37615 10.5 9.60001 10.7239 9.60001 11Z" fill="#333333" class='xian'/>
<path d="M11.2 11C11.2 11.2761 10.9762 11.5 10.7 11.5C10.4239 11.5 10.2 11.2761 10.2 11C10.2 10.7239 10.4239 10.5 10.7 10.5C10.9762 10.5 11.2 10.7239 11.2 11Z" fill="#333333" class='xian'/>
<path d="M12.8 11C12.8 11.2761 12.5761 11.5 12.3 11.5C12.0238 11.5 11.8 11.2761 11.8 11C11.8 10.7239 12.0238 10.5 12.3 10.5C12.5761 10.5 12.8 10.7239 12.8 11Z" fill="#333333" class='xian'/>
<path d="M14.4 11C14.4 11.2761 14.1761 11.5 13.9 11.5C13.6239 11.5 13.4 11.2761 13.4 11C13.4 10.7239 13.6239 10.5 13.9 10.5C14.1761 10.5 14.4 10.7239 14.4 11Z" fill="#333333" class='xian'/>
<path d="M16 11C16 11.2761 15.7761 11.5 15.5 11.5C15.2239 11.5 15 11.2761 15 11C15 10.7239 15.2239 10.5 15.5 10.5C15.7761 10.5 16 10.7239 16 11Z" fill="#333333" class='xian'/>
<path d="M17.6 11C17.6 11.2761 17.3761 11.5 17.1 11.5C16.8239 11.5 16.6 11.2761 16.6 11C16.6 10.7239 16.8239 10.5 17.1 10.5C17.3761 10.5 17.6 10.7239 17.6 11Z" fill="#333333" class='xian'/>
<path d="M19.2 11C19.2 11.2761 18.9762 11.5 18.7 11.5C18.4239 11.5 18.2 11.2761 18.2 11C18.2 10.7239 18.4239 10.5 18.7 10.5C18.9762 10.5 19.2 10.7239 19.2 11Z" fill="#333333" class='xian'/>
<path d="M8 13C8 13.2761 7.77614 13.5 7.5 13.5C7.22386 13.5 7 13.2761 7 13C7 12.7239 7.22386 12.5 7.5 12.5C7.77614 12.5 8 12.7239 8 13Z" fill="#333333" class='xian'/>
<path d="M9.60001 13C9.60001 13.2761 9.37615 13.5 9.10001 13.5C8.82386 13.5 8.60001 13.2761 8.60001 13C8.60001 12.7239 8.82386 12.5 9.10001 12.5C9.37615 12.5 9.60001 12.7239 9.60001 13Z" fill="#333333" class='xian'/>
<path d="M11.2 13C11.2 13.2761 10.9762 13.5 10.7 13.5C10.4239 13.5 10.2 13.2761 10.2 13C10.2 12.7239 10.4239 12.5 10.7 12.5C10.9762 12.5 11.2 12.7239 11.2 13Z" fill="#333333" class='xian'/>
<path d="M12.8 13C12.8 13.2761 12.5761 13.5 12.3 13.5C12.0238 13.5 11.8 13.2761 11.8 13C11.8 12.7239 12.0238 12.5 12.3 12.5C12.5761 12.5 12.8 12.7239 12.8 13Z" fill="#333333" class='xian'/>
<path d="M14.4 13C14.4 13.2761 14.1761 13.5 13.9 13.5C13.6239 13.5 13.4 13.2761 13.4 13C13.4 12.7239 13.6239 12.5 13.9 12.5C14.1761 12.5 14.4 12.7239 14.4 13Z" fill="#333333" class='xian'/>
<path d="M16 13C16 13.2761 15.7761 13.5 15.5 13.5C15.2239 13.5 15 13.2761 15 13C15 12.7239 15.2239 12.5 15.5 12.5C15.7761 12.5 16 12.7239 16 13Z" fill="#333333" class='xian'/>
<path d="M17.6 13C17.6 13.2761 17.3761 13.5 17.1 13.5C16.8239 13.5 16.6 13.2761 16.6 13C16.6 12.7239 16.8239 12.5 17.1 12.5C17.3761 12.5 17.6 12.7239 17.6 13Z" fill="#333333" class='xian'/>
<path d="M19.2 13C19.2 13.2761 18.9762 13.5 18.7 13.5C18.4239 13.5 18.2 13.2761 18.2 13C18.2 12.7239 18.4239 12.5 18.7 12.5C18.9762 12.5 19.2 12.7239 19.2 13Z" fill="#333333" class='xian'/>
<path d="M8 15C8 15.2761 7.77614 15.5 7.5 15.5C7.22386 15.5 7 15.2761 7 15C7 14.7239 7.22386 14.5 7.5 14.5C7.77614 14.5 8 14.7239 8 15Z" fill="#333333" class='xian'/>
<path d="M9.60001 15C9.60001 15.2761 9.37615 15.5 9.10001 15.5C8.82386 15.5 8.60001 15.2761 8.60001 15C8.60001 14.7239 8.82386 14.5 9.10001 14.5C9.37615 14.5 9.60001 14.7239 9.60001 15Z" fill="#333333" class='xian'/>
<path d="M11.2 15C11.2 15.2761 10.9762 15.5 10.7 15.5C10.4239 15.5 10.2 15.2761 10.2 15C10.2 14.7239 10.4239 14.5 10.7 14.5C10.9762 14.5 11.2 14.7239 11.2 15Z" fill="#333333" class='xian'/>
<path d="M12.8 15C12.8 15.2761 12.5761 15.5 12.3 15.5C12.0238 15.5 11.8 15.2761 11.8 15C11.8 14.7239 12.0238 14.5 12.3 14.5C12.5761 14.5 12.8 14.7239 12.8 15Z" fill="#333333" class='xian'/>
<path d="M14.4 15C14.4 15.2761 14.1761 15.5 13.9 15.5C13.6239 15.5 13.4 15.2761 13.4 15C13.4 14.7239 13.6239 14.5 13.9 14.5C14.1761 14.5 14.4 14.7239 14.4 15Z" fill="#333333" class='xian'/>
<path d="M16 15C16 15.2761 15.7761 15.5 15.5 15.5C15.2239 15.5 15 15.2761 15 15C15 14.7239 15.2239 14.5 15.5 14.5C15.7761 14.5 16 14.7239 16 15Z" fill="#333333" class='xian'/>
<path d="M17.6 15C17.6 15.2761 17.3761 15.5 17.1 15.5C16.8239 15.5 16.6 15.2761 16.6 15C16.6 14.7239 16.8239 14.5 17.1 14.5C17.3761 14.5 17.6 14.7239 17.6 15Z" fill="#333333" class='xian'/>
<path d="M19.2 15C19.2 15.2761 18.9762 15.5 18.7 15.5C18.4239 15.5 18.2 15.2761 18.2 15C18.2 14.7239 18.4239 14.5 18.7 14.5C18.9762 14.5 19.2 14.7239 19.2 15Z" fill="#333333" class='xian'/>
<path d="M8 17C8 17.2761 7.77614 17.5 7.5 17.5C7.22386 17.5 7 17.2761 7 17C7 16.7239 7.22386 16.5 7.5 16.5C7.77614 16.5 8 16.7239 8 17Z" fill="#333333" class='xian'/>
<path d="M9.60001 17C9.60001 17.2761 9.37615 17.5 9.10001 17.5C8.82386 17.5 8.60001 17.2761 8.60001 17C8.60001 16.7239 8.82386 16.5 9.10001 16.5C9.37615 16.5 9.60001 16.7239 9.60001 17Z" fill="#333333" class='xian'/>
<path d="M11.2 17C11.2 17.2761 10.9762 17.5 10.7 17.5C10.4239 17.5 10.2 17.2761 10.2 17C10.2 16.7239 10.4239 16.5 10.7 16.5C10.9762 16.5 11.2 16.7239 11.2 17Z" fill="#333333" class='xian'/>
<path d="M12.8 17C12.8 17.2761 12.5761 17.5 12.3 17.5C12.0238 17.5 11.8 17.2761 11.8 17C11.8 16.7239 12.0238 16.5 12.3 16.5C12.5761 16.5 12.8 16.7239 12.8 17Z" fill="#333333" class='xian'/>
<path d="M14.4 17C14.4 17.2761 14.1761 17.5 13.9 17.5C13.6239 17.5 13.4 17.2761 13.4 17C13.4 16.7239 13.6239 16.5 13.9 16.5C14.1761 16.5 14.4 16.7239 14.4 17Z" fill="#333333" class='xian'/>
<path d="M16 17C16 17.2761 15.7761 17.5 15.5 17.5C15.2239 17.5 15 17.2761 15 17C15 16.7239 15.2239 16.5 15.5 16.5C15.7761 16.5 16 16.7239 16 17Z" fill="#333333" class='xian'/>
<path d="M17.6 17C17.6 17.2761 17.3761 17.5 17.1 17.5C16.8239 17.5 16.6 17.2761 16.6 17C16.6 16.7239 16.8239 16.5 17.1 16.5C17.3761 16.5 17.6 16.7239 17.6 17Z" fill="#333333" class='xian'/>
<path d="M19.2 17C19.2 17.2761 18.9762 17.5 18.7 17.5C18.4239 17.5 18.2 17.2761 18.2 17C18.2 16.7239 18.4239 16.5 18.7 16.5C18.9762 16.5 19.2 16.7239 19.2 17Z" fill="#333333" class='xian'/>
<path d="M6.597 9.73902L6.6 9.73602V9.74502C6.6 9.75402 6.6 9.76302 6.597 9.76902V9.77802L6.594 9.77502C6.585 9.84402 6.549 9.90702 6.489 9.94902C6.486 9.95202 6.483 9.95502 6.48 9.95802C6.471 9.96102 6.462 9.96702 6.453 9.97302C6.417 9.99102 6.375 10 6.336 10C6.285 10 6.234 9.98502 6.192 9.95802C6.192 9.95802 6.192 9.95802 6.189 9.95802H6.186C6.18 9.95202 6.174 9.94902 6.168 9.94602V9.94302C6.168 9.94302 6.168 9.94002 6.165 9.94002C6.141 9.91602 6.117 9.88902 6.102 9.85602L6.063 9.77802L6.06 9.78102L6.039 9.73602V9.73302H5.478C5.475 9.73602 5.472 9.73602 5.469 9.73602H5.463C5.46 9.73602 5.457 9.73602 5.454 9.73302H5.391C5.391 9.73602 5.388 9.73602 5.385 9.73602H5.379C5.373 9.73602 5.37 9.73602 5.37 9.73302H5.274V9.73602H5.235H5.232V9.73302H5.115C5.115 9.73602 5.112 9.73602 5.112 9.73602H5.091L5.088 9.73902L5.067 9.78102L5.073 9.77502L5.052 9.81402V9.80802L5.028 9.85602C4.983 9.94002 4.902 9.99102 4.815 10C4.812 10 4.809 10 4.806 10C4.803 10 4.803 10 4.8 10C4.761 10 4.725 9.99402 4.689 9.97902V9.98202L4.683 9.97902C4.68 9.97902 4.677 9.97602 4.674 9.97602C4.665 9.97002 4.659 9.96702 4.653 9.96102H4.647L4.65 9.95802C4.575 9.90702 4.53 9.82302 4.533 9.73602L4.53 9.73902V9.73302C4.53 9.72102 4.53 9.70902 4.533 9.69702V9.69402H4.536C4.539 9.67902 4.542 9.66402 4.548 9.65202H4.542L4.545 9.64602C4.548 9.63702 4.551 9.62802 4.557 9.62202L4.56 9.61302V9.61902L4.605 9.53202L5.238 8.28402L5.331 8.10102C5.376 8.01402 5.466 7.96002 5.565 7.96002C5.664 7.96002 5.754 8.01402 5.796 8.10102L5.799 8.10402L6.375 9.23802H6.378L6.396 9.27702C6.396 9.28002 6.396 9.28002 6.396 9.28002L6.414 9.31602L6.417 9.31302L6.438 9.35502L6.435 9.35802L6.453 9.39402H6.456L6.477 9.43302L6.474 9.43602L6.495 9.47502C6.495 9.47802 6.498 9.47802 6.498 9.47802L6.513 9.50502V9.50802C6.513 9.50802 6.513 9.50802 6.513 9.51102L6.567 9.61902C6.573 9.63102 6.579 9.64302 6.582 9.65502L6.585 9.65202L6.588 9.65802C6.591 9.67002 6.594 9.67902 6.594 9.68802L6.597 9.69402H6.594C6.597 9.70902 6.597 9.72402 6.597 9.73902ZM5.73 9.12702L5.724 9.11202L5.565 8.80002L5.391 9.13902L5.397 9.13602L5.379 9.17202L5.376 9.16902L5.364 9.19602H5.367L5.361 9.20802H5.379C5.379 9.21102 5.379 9.21102 5.379 9.21102H5.424V9.20802H5.469V9.21102H5.514L5.517 9.20802H5.55L5.553 9.21102H5.697L5.7 9.20802H5.745V9.21102H5.772L5.751 9.16902H5.748L5.727 9.12702H5.73Z" fill="#333333" class='xian'/>
<path d="M6.32701 11.98C6.36901 12.037 6.40201 12.1 6.42301 12.169C6.44101 12.229 6.45301 12.295 6.45301 12.361C6.45301 12.4 6.44701 12.442 6.44101 12.478C6.41101 12.631 6.33001 12.763 6.21601 12.856C6.10501 12.946 5.96401 13 5.81101 13H4.92601C4.78201 13 4.66501 12.883 4.66501 12.739V11.221C4.66501 11.131 4.71001 11.05 4.78501 11.002C4.82401 10.975 4.87201 10.96 4.92601 10.96H5.11801H5.34901H5.79301H5.81101C5.99401 10.96 6.16201 11.038 6.27901 11.164C6.38701 11.278 6.45301 11.431 6.45301 11.602C6.45301 11.62 6.45001 11.638 6.45001 11.656C6.43801 11.776 6.39601 11.887 6.32701 11.98ZM5.18701 12.244V12.478H5.81101C5.87701 12.478 5.92801 12.424 5.92801 12.361C5.92801 12.295 5.87701 12.244 5.81101 12.244H5.51401H5.47201H5.46301H5.39401H5.37901H5.31601H5.30101H5.23501H5.18701ZM5.41801 11.485H5.18701V11.719H5.62801H5.80201H5.80501C5.80801 11.719 5.80801 11.719 5.81101 11.719C5.87701 11.719 5.92801 11.665 5.92801 11.602C5.92801 11.545 5.88901 11.497 5.83501 11.485C5.82601 11.485 5.82001 11.485 5.81101 11.485H5.41801Z" fill="#333333" class='xian'/>
<path d="M7.47199 5.64001C7.48399 5.67601 7.48699 5.70901 7.48399 5.74201V7.23901C7.48399 7.31101 7.45699 7.37401 7.41199 7.41901C7.37599 7.45801 7.33099 7.48501 7.27999 7.49401L7.27699 7.49701C7.27399 7.49701 7.27399 7.49701 7.27099 7.49701C7.25599 7.50001 7.23799 7.50001 7.22299 7.50001C7.15099 7.50001 7.08799 7.47301 7.03999 7.42801C6.99199 7.38001 6.96199 7.31401 6.96199 7.23901V6.08101C6.92299 6.09301 6.88699 6.11101 6.82999 6.11101C6.71899 6.11101 6.61699 6.04201 6.58099 5.93101C6.53599 5.79301 6.61099 5.64601 6.74899 5.60101L7.12999 5.47801C7.26799 5.42401 7.42399 5.49601 7.47199 5.64001Z" fill="#333333" class='xian'/>
<path d="M9.88899 6.97802C10.033 6.97802 10.15 7.09502 10.15 7.23902C10.15 7.38302 10.033 7.50002 9.88899 7.50002H8.87499C8.66799 7.50002 8.54199 7.27502 8.65299 7.10102C8.65599 7.09802 8.65899 7.09202 8.66199 7.08902C8.66499 7.08302 8.66799 7.08002 8.67099 7.07402C8.67699 7.06802 8.67999 7.06502 8.68299 7.05902C8.68899 7.05302 8.69199 7.05002 8.69499 7.04402C8.69799 7.04402 8.69799 7.04402 8.69799 7.04402C8.70099 7.03802 8.70699 7.03202 8.71299 7.02602C8.77599 6.95702 8.87499 6.86402 8.97099 6.77702C9.08499 6.67502 9.19599 6.58202 9.24999 6.53702C9.38499 6.42302 9.62499 6.25202 9.56199 6.09902C9.55299 6.07502 9.54099 6.05702 9.52599 6.03902C9.48399 5.99102 9.42399 5.96402 9.39099 5.96402C9.37899 5.96402 9.35199 5.96402 9.31599 5.97002C9.26199 5.98202 9.19299 6.01202 9.15099 6.08702C9.10599 6.16802 9.02499 6.21602 8.93799 6.22202C8.88999 6.22502 8.84199 6.21302 8.79699 6.18902C8.67099 6.12002 8.62299 5.96102 8.69499 5.83502C8.79999 5.64602 8.98299 5.51402 9.19899 5.46302C9.24699 5.45102 9.29499 5.44502 9.34299 5.44202C9.35799 5.44202 9.37299 5.44202 9.38799 5.44202C9.57099 5.44202 9.76299 5.53202 9.90099 5.67602C9.96399 5.74202 10.015 5.81702 10.048 5.90102C10.057 5.92202 10.063 5.94602 10.069 5.96702C10.084 6.01202 10.093 6.05702 10.096 6.10202C10.099 6.15902 10.096 6.21302 10.087 6.27002C10.066 6.37502 10.021 6.47702 9.95499 6.57602C9.91299 6.63302 9.86499 6.69002 9.81099 6.74402C9.78699 6.76502 9.76599 6.78602 9.74199 6.80702C9.67899 6.86102 9.60999 6.91802 9.54399 6.97502C9.54399 6.97502 9.54399 6.97802 9.54699 6.97802H9.88899Z" fill="#333333" class='xian'/>
<path fill-rule="evenodd" clip-rule="evenodd" d="M11.0167 6.5C11.0167 6.36193 11.1286 6.25 11.2667 6.25H18.4998C18.6379 6.25 18.7498 6.36193 18.7498 6.5C18.7498 6.63807 18.6379 6.75 18.4998 6.75H11.2667C11.1286 6.75 11.0167 6.63807 11.0167 6.5Z" fill="#333333" class='xian'/>
<path fill-rule="evenodd" clip-rule="evenodd" d="M18.8837 6.3303C18.9813 6.42793 18.9813 6.58623 18.8837 6.68386L18.1766 7.39096C18.079 7.48859 17.9207 7.48859 17.823 7.39096C17.7254 7.29333 17.7254 7.13504 17.823 7.03741L18.5302 6.3303C18.6278 6.23267 18.7861 6.23267 18.8837 6.3303Z" fill="#333333" class='xian'/>
<path fill-rule="evenodd" clip-rule="evenodd" d="M18.8837 6.68382C18.7861 6.78145 18.6278 6.78145 18.5302 6.68382L17.8231 5.97671C17.7254 5.87908 17.7254 5.72079 17.8231 5.62316C17.9207 5.52553 18.079 5.52553 18.1766 5.62316L18.8837 6.33027C18.9813 6.4279 18.9813 6.58619 18.8837 6.68382Z" fill="#333333" class='xian'/>
<path fill-rule="evenodd" clip-rule="evenodd" d="M5.60001 13.75C5.73808 13.75 5.85001 13.8619 5.85001 14L5.85001 17.5C5.85001 17.6381 5.73808 17.75 5.60001 17.75C5.46193 17.75 5.35001 17.6381 5.35001 17.5L5.35001 14C5.35001 13.8619 5.46193 13.75 5.60001 13.75Z" fill="#333333" class='xian'/>
<path fill-rule="evenodd" clip-rule="evenodd" d="M5.76995 17.8838C5.67232 17.9815 5.51402 17.9815 5.41639 17.8838L4.70929 17.1767C4.61166 17.0791 4.61166 16.9208 4.70929 16.8232C4.80692 16.7255 4.96521 16.7255 5.06284 16.8232L5.76995 17.5303C5.86758 17.6279 5.86758 17.7862 5.76995 17.8838Z" fill="#333333" class='xian'/>
<path fill-rule="evenodd" clip-rule="evenodd" d="M5.4164 17.8839C5.31877 17.7862 5.31877 17.6279 5.4164 17.5303L6.12351 16.8232C6.22114 16.7256 6.37943 16.7256 6.47706 16.8232C6.57469 16.9208 6.57469 17.0791 6.47706 17.1768L5.76995 17.8839C5.67232 17.9815 5.51403 17.9815 5.4164 17.8839Z" fill="#333333" class='xian'/>
<path d="M7.75 9C7.75 9.13807 7.63807 9.25 7.5 9.25C7.36193 9.25 7.25 9.13807 7.25 9C7.25 8.86193 7.36193 8.75 7.5 8.75C7.63807 8.75 7.75 8.86193 7.75 9Z" fill="#EBE7D8" class='xian'/>
<path fill-rule="evenodd" clip-rule="evenodd" d="M7.90001 8.99998C7.90001 9.22089 7.72092 9.39998 7.50001 9.39998C7.27909 9.39998 7.10001 9.22089 7.10001 8.99998C7.10001 8.77906 7.27909 8.59998 7.50001 8.59998C7.72092 8.59998 7.90001 8.77906 7.90001 8.99998ZM7.50001 9.24998C7.63808 9.24998 7.75001 9.13805 7.75001 8.99998C7.75001 8.8619 7.63808 8.74998 7.50001 8.74998C7.36193 8.74998 7.25001 8.8619 7.25001 8.99998C7.25001 9.13805 7.36193 9.24998 7.50001 9.24998Z" fill="#554FAE"/>
<path d="M9.34998 9C9.34998 9.13807 9.23805 9.25 9.09998 9.25C8.9619 9.25 8.84998 9.13807 8.84998 9C8.84998 8.86193 8.9619 8.75 9.09998 8.75C9.23805 8.75 9.34998 8.86193 9.34998 9Z" fill="#EBE7D8" class='xian'/>
<path fill-rule="evenodd" clip-rule="evenodd" d="M9.49998 8.99998C9.49998 9.22089 9.3209 9.39998 9.09998 9.39998C8.87907 9.39998 8.69998 9.22089 8.69998 8.99998C8.69998 8.77906 8.87907 8.59998 9.09998 8.59998C9.3209 8.59998 9.49998 8.77906 9.49998 8.99998ZM9.09998 9.24998C9.23805 9.24998 9.34998 9.13805 9.34998 8.99998C9.34998 8.8619 9.23805 8.74998 9.09998 8.74998C8.96191 8.74998 8.84998 8.8619 8.84998 8.99998C8.84998 9.13805 8.96191 9.24998 9.09998 9.24998Z" fill="#554FAE"/>
<path d="M10.95 9C10.95 9.13807 10.8381 9.25 10.7 9.25C10.5619 9.25 10.45 9.13807 10.45 9C10.45 8.86193 10.5619 8.75 10.7 8.75C10.8381 8.75 10.95 8.86193 10.95 9Z" fill="#EBE7D8" class='xian'/>
<path fill-rule="evenodd" clip-rule="evenodd" d="M11.1 8.99998C11.1 9.22089 10.9209 9.39998 10.7 9.39998C10.4791 9.39998 10.3 9.22089 10.3 8.99998C10.3 8.77906 10.4791 8.59998 10.7 8.59998C10.9209 8.59998 11.1 8.77906 11.1 8.99998ZM10.7 9.24998C10.8381 9.24998 10.95 9.13805 10.95 8.99998C10.95 8.8619 10.8381 8.74998 10.7 8.74998C10.5619 8.74998 10.45 8.8619 10.45 8.99998C10.45 9.13805 10.5619 9.24998 10.7 9.24998Z" fill="#554FAE"/>
<path d="M12.55 9C12.55 9.13807 12.4381 9.25 12.3 9.25C12.1619 9.25 12.05 9.13807 12.05 9C12.05 8.86193 12.1619 8.75 12.3 8.75C12.4381 8.75 12.55 8.86193 12.55 9Z" fill="#EBE7D8" class='xian'/>
<path fill-rule="evenodd" clip-rule="evenodd" d="M12.7 8.99998C12.7 9.22089 12.5209 9.39998 12.3 9.39998C12.0791 9.39998 11.9 9.22089 11.9 8.99998C11.9 8.77906 12.0791 8.59998 12.3 8.59998C12.5209 8.59998 12.7 8.77906 12.7 8.99998ZM12.3 9.24998C12.4381 9.24998 12.55 9.13805 12.55 8.99998C12.55 8.8619 12.4381 8.74998 12.3 8.74998C12.1619 8.74998 12.05 8.8619 12.05 8.99998C12.05 9.13805 12.1619 9.24998 12.3 9.24998Z" fill="#554FAE"/>
<path d="M14.15 9C14.15 9.13807 14.0381 9.25 13.9 9.25C13.762 9.25 13.65 9.13807 13.65 9C13.65 8.86193 13.762 8.75 13.9 8.75C14.0381 8.75 14.15 8.86193 14.15 9Z" fill="#EBE7D8" class='xian'/>
<path fill-rule="evenodd" clip-rule="evenodd" d="M14.3 8.99998C14.3 9.22089 14.1209 9.39998 13.9 9.39998C13.6791 9.39998 13.5 9.22089 13.5 8.99998C13.5 8.77906 13.6791 8.59998 13.9 8.59998C14.1209 8.59998 14.3 8.77906 14.3 8.99998ZM13.9 9.24998C14.0381 9.24998 14.15 9.13805 14.15 8.99998C14.15 8.8619 14.0381 8.74998 13.9 8.74998C13.762 8.74998 13.65 8.8619 13.65 8.99998C13.65 9.13805 13.762 9.24998 13.9 9.24998Z" fill="#554FAE"/>
<path d="M7.75 11C7.75 11.1381 7.63807 11.25 7.5 11.25C7.36193 11.25 7.25 11.1381 7.25 11C7.25 10.8619 7.36193 10.75 7.5 10.75C7.63807 10.75 7.75 10.8619 7.75 11Z" fill="#EBE7D8" class='xian'/>
<path fill-rule="evenodd" clip-rule="evenodd" d="M7.90001 11C7.90001 11.2209 7.72092 11.4 7.50001 11.4C7.27909 11.4 7.10001 11.2209 7.10001 11C7.10001 10.7791 7.27909 10.6 7.50001 10.6C7.72092 10.6 7.90001 10.7791 7.90001 11ZM7.50001 11.25C7.63808 11.25 7.75001 11.138 7.75001 11C7.75001 10.8619 7.63808 10.75 7.50001 10.75C7.36193 10.75 7.25001 10.8619 7.25001 11C7.25001 11.138 7.36193 11.25 7.50001 11.25Z" fill="#554FAE"/>
<path d="M9.34998 11C9.34998 11.1381 9.23805 11.25 9.09998 11.25C8.9619 11.25 8.84998 11.1381 8.84998 11C8.84998 10.8619 8.9619 10.75 9.09998 10.75C9.23805 10.75 9.34998 10.8619 9.34998 11Z" fill="#EBE7D8" class='xian'/>
<path fill-rule="evenodd" clip-rule="evenodd" d="M9.49998 11C9.49998 11.2209 9.3209 11.4 9.09998 11.4C8.87907 11.4 8.69998 11.2209 8.69998 11C8.69998 10.7791 8.87907 10.6 9.09998 10.6C9.3209 10.6 9.49998 10.7791 9.49998 11ZM9.09998 11.25C9.23805 11.25 9.34998 11.138 9.34998 11C9.34998 10.8619 9.23805 10.75 9.09998 10.75C8.96191 10.75 8.84998 10.8619 8.84998 11C8.84998 11.138 8.96191 11.25 9.09998 11.25Z" fill="#554FAE"/>
<path d="M10.95 11C10.95 11.1381 10.8381 11.25 10.7 11.25C10.5619 11.25 10.45 11.1381 10.45 11C10.45 10.8619 10.5619 10.75 10.7 10.75C10.8381 10.75 10.95 10.8619 10.95 11Z" fill="#EBE7D8" class='xian'/>
<path fill-rule="evenodd" clip-rule="evenodd" d="M11.1 11C11.1 11.2209 10.9209 11.4 10.7 11.4C10.4791 11.4 10.3 11.2209 10.3 11C10.3 10.7791 10.4791 10.6 10.7 10.6C10.9209 10.6 11.1 10.7791 11.1 11ZM10.7 11.25C10.8381 11.25 10.95 11.138 10.95 11C10.95 10.8619 10.8381 10.75 10.7 10.75C10.5619 10.75 10.45 10.8619 10.45 11C10.45 11.138 10.5619 11.25 10.7 11.25Z" fill="#554FAE"/>
<path d="M12.55 11C12.55 11.1381 12.4381 11.25 12.3 11.25C12.1619 11.25 12.05 11.1381 12.05 11C12.05 10.8619 12.1619 10.75 12.3 10.75C12.4381 10.75 12.55 10.8619 12.55 11Z" fill="#EBE7D8" class='xian'/>
<path fill-rule="evenodd" clip-rule="evenodd" d="M12.7 11C12.7 11.2209 12.5209 11.4 12.3 11.4C12.0791 11.4 11.9 11.2209 11.9 11C11.9 10.7791 12.0791 10.6 12.3 10.6C12.5209 10.6 12.7 10.7791 12.7 11ZM12.3 11.25C12.4381 11.25 12.55 11.138 12.55 11C12.55 10.8619 12.4381 10.75 12.3 10.75C12.1619 10.75 12.05 10.8619 12.05 11C12.05 11.138 12.1619 11.25 12.3 11.25Z" fill="#554FAE"/>
<path d="M14.15 11C14.15 11.1381 14.0381 11.25 13.9 11.25C13.762 11.25 13.65 11.1381 13.65 11C13.65 10.8619 13.762 10.75 13.9 10.75C14.0381 10.75 14.15 10.8619 14.15 11Z" fill="#EBE7D8" class='xian'/>
<path fill-rule="evenodd" clip-rule="evenodd" d="M14.3 11C14.3 11.2209 14.1209 11.4 13.9 11.4C13.6791 11.4 13.5 11.2209 13.5 11C13.5 10.7791 13.6791 10.6 13.9 10.6C14.1209 10.6 14.3 10.7791 14.3 11ZM13.9 11.25C14.0381 11.25 14.15 11.138 14.15 11C14.15 10.8619 14.0381 10.75 13.9 10.75C13.762 10.75 13.65 10.8619 13.65 11C13.65 11.138 13.762 11.25 13.9 11.25Z" fill="#554FAE"/>
<path d="M7.75 13C7.75 13.1381 7.63807 13.25 7.5 13.25C7.36193 13.25 7.25 13.1381 7.25 13C7.25 12.8619 7.36193 12.75 7.5 12.75C7.63807 12.75 7.75 12.8619 7.75 13Z" fill="#EBE7D8" class='xian'/>
<path fill-rule="evenodd" clip-rule="evenodd" d="M7.90001 13C7.90001 13.2209 7.72092 13.4 7.50001 13.4C7.27909 13.4 7.10001 13.2209 7.10001 13C7.10001 12.7791 7.27909 12.6 7.50001 12.6C7.72092 12.6 7.90001 12.7791 7.90001 13ZM7.50001 13.25C7.63808 13.25 7.75001 13.138 7.75001 13C7.75001 12.8619 7.63808 12.75 7.50001 12.75C7.36193 12.75 7.25001 12.8619 7.25001 13C7.25001 13.138 7.36193 13.25 7.50001 13.25Z" fill="#554FAE"/>
<path d="M9.34998 13C9.34998 13.1381 9.23805 13.25 9.09998 13.25C8.9619 13.25 8.84998 13.1381 8.84998 13C8.84998 12.8619 8.9619 12.75 9.09998 12.75C9.23805 12.75 9.34998 12.8619 9.34998 13Z" fill="#EBE7D8" class='xian'/>
<path fill-rule="evenodd" clip-rule="evenodd" d="M9.49998 13C9.49998 13.2209 9.3209 13.4 9.09998 13.4C8.87907 13.4 8.69998 13.2209 8.69998 13C8.69998 12.7791 8.87907 12.6 9.09998 12.6C9.3209 12.6 9.49998 12.7791 9.49998 13ZM9.09998 13.25C9.23805 13.25 9.34998 13.138 9.34998 13C9.34998 12.8619 9.23805 12.75 9.09998 12.75C8.96191 12.75 8.84998 12.8619 8.84998 13C8.84998 13.138 8.96191 13.25 9.09998 13.25Z" fill="#554FAE"/>
<path d="M10.95 13C10.95 13.1381 10.8381 13.25 10.7 13.25C10.5619 13.25 10.45 13.1381 10.45 13C10.45 12.8619 10.5619 12.75 10.7 12.75C10.8381 12.75 10.95 12.8619 10.95 13Z" fill="#EBE7D8" class='xian'/>
<path fill-rule="evenodd" clip-rule="evenodd" d="M11.1 13C11.1 13.2209 10.9209 13.4 10.7 13.4C10.4791 13.4 10.3 13.2209 10.3 13C10.3 12.7791 10.4791 12.6 10.7 12.6C10.9209 12.6 11.1 12.7791 11.1 13ZM10.7 13.25C10.8381 13.25 10.95 13.138 10.95 13C10.95 12.8619 10.8381 12.75 10.7 12.75C10.5619 12.75 10.45 12.8619 10.45 13C10.45 13.138 10.5619 13.25 10.7 13.25Z" fill="#554FAE"/>
<path d="M12.55 13C12.55 13.1381 12.4381 13.25 12.3 13.25C12.1619 13.25 12.05 13.1381 12.05 13C12.05 12.8619 12.1619 12.75 12.3 12.75C12.4381 12.75 12.55 12.8619 12.55 13Z" fill="#EBE7D8" class='xian'/>
<path fill-rule="evenodd" clip-rule="evenodd" d="M12.7 13C12.7 13.2209 12.5209 13.4 12.3 13.4C12.0791 13.4 11.9 13.2209 11.9 13C11.9 12.7791 12.0791 12.6 12.3 12.6C12.5209 12.6 12.7 12.7791 12.7 13ZM12.3 13.25C12.4381 13.25 12.55 13.138 12.55 13C12.55 12.8619 12.4381 12.75 12.3 12.75C12.1619 12.75 12.05 12.8619 12.05 13C12.05 13.138 12.1619 13.25 12.3 13.25Z" fill="#554FAE"/>
<path d="M14.15 13C14.15 13.1381 14.0381 13.25 13.9 13.25C13.762 13.25 13.65 13.1381 13.65 13C13.65 12.8619 13.762 12.75 13.9 12.75C14.0381 12.75 14.15 12.8619 14.15 13Z" fill="#EBE7D8" class='xian'/>
<path fill-rule="evenodd" clip-rule="evenodd" d="M14.3 13C14.3 13.2209 14.1209 13.4 13.9 13.4C13.6791 13.4 13.5 13.2209 13.5 13C13.5 12.7791 13.6791 12.6 13.9 12.6C14.1209 12.6 14.3 12.7791 14.3 13ZM13.9 13.25C14.0381 13.25 14.15 13.138 14.15 13C14.15 12.8619 14.0381 12.75 13.9 12.75C13.762 12.75 13.65 12.8619 13.65 13C13.65 13.138 13.762 13.25 13.9 13.25Z" fill="#554FAE"/>
</svg>
