<svg width="24" height="24" viewBox="0 0 24 24" fill="none" xmlns="http://www.w3.org/2000/svg">
<path d="M7 17H17L16.75 20L15 22H9L7.25 20L7 17Z" fill="rgba(0,0,0,0)" class='mian'/>
<path fill-rule="evenodd" clip-rule="evenodd" d="M9.24999 5C9.24999 4.58579 9.58578 4.25 9.99999 4.25H14C14.4142 4.25 14.75 4.58579 14.75 5V13.5849C14.75 14.2182 15.0665 14.8096 15.5934 15.1609L16.0938 15.4945C17.1059 16.1692 17.8085 17.2184 18.0471 18.4112C18.496 20.6558 16.7792 22.75 14.4901 22.75H9.50986C7.2208 22.75 5.50398 20.6558 5.9529 18.4112C6.19146 17.2184 6.89409 16.1692 7.90622 15.4945L8.40654 15.1609C8.93348 14.8096 9.24999 14.2182 9.24999 13.5849V5ZM10.75 5.75V13.5849C10.75 14.7197 10.1828 15.7795 9.23859 16.409L8.73827 16.7425C8.05715 17.1966 7.58431 17.9027 7.42377 18.7054C7.16049 20.0218 8.16737 21.25 9.50986 21.25H14.4901C15.8326 21.25 16.8395 20.0218 16.5762 18.7054C16.4157 17.9027 15.9428 17.1966 15.2617 16.7425L14.7614 16.409C13.8172 15.7795 13.25 14.7197 13.25 13.5849V5.75H10.75Z" fill="#333333" class='xian'/>
<path fill-rule="evenodd" clip-rule="evenodd" d="M12 2.75C11.5858 2.75 11.25 3.08579 11.25 3.5C11.25 3.91421 11.5858 4.25 12 4.25C12.4142 4.25 12.75 3.91421 12.75 3.5C12.75 3.08579 12.4142 2.75 12 2.75ZM9.75 3.5C9.75 2.25736 10.7574 1.25 12 1.25C13.2426 1.25 14.25 2.25736 14.25 3.5C14.25 4.74264 13.2426 5.75 12 5.75C10.7574 5.75 9.75 4.74264 9.75 3.5Z" fill="#333333" class='xian'/>
<path fill-rule="evenodd" clip-rule="evenodd" d="M9.25 10C9.25 9.58579 9.58579 9.25 10 9.25H14C14.4142 9.25 14.75 9.58579 14.75 10C14.75 10.4142 14.4142 10.75 14 10.75H10C9.58579 10.75 9.25 10.4142 9.25 10Z" fill="#333333" class='xian'/>
</svg>
