<svg width="24" height="24" viewBox="0 0 24 24" fill="none" xmlns="http://www.w3.org/2000/svg">
<path fill-rule="evenodd" clip-rule="evenodd" d="M21.7255 7.82914C21.8199 8.08866 21.686 8.37554 21.4265 8.46991L17.5883 9.8656L17.2466 8.92581L21.0847 7.53012C21.3443 7.43575 21.6311 7.56963 21.7255 7.82914Z" fill="#333333" class='xian'/>
<path fill-rule="evenodd" clip-rule="evenodd" d="M23.1448 10.0175C23.1868 10.2905 22.9996 10.5458 22.7266 10.5878L18.1906 11.2856L18.0386 10.2972L22.5746 9.59939C22.8475 9.5574 23.1028 9.74462 23.1448 10.0175Z" fill="#333333" class='xian'/>
<path fill-rule="evenodd" clip-rule="evenodd" d="M21.7147 11.2923C21.8235 11.5461 21.7059 11.8401 21.4521 11.9488L19.0096 12.9956L18.6157 12.0765L21.0582 11.0297C21.312 10.9209 21.6059 11.0385 21.7147 11.2923Z" fill="#333333" class='xian'/>
<path fill-rule="evenodd" clip-rule="evenodd" d="M23.4979 13.1924C23.5208 13.4676 23.3163 13.7093 23.0411 13.7322L18.854 14.0811L18.771 13.0846L22.9581 12.7356C23.2333 12.7127 23.4749 12.9172 23.4979 13.1924Z" fill="#333333" class='xian'/>
<path fill-rule="evenodd" clip-rule="evenodd" d="M4.69206 13.1934C4.83477 13.1589 4.96651 13.1271 5.08361 13.0978L5.32614 14.0679C5.19594 14.1005 5.05427 14.1348 4.90439 14.1711C4.22372 14.336 3.37369 14.5418 2.65883 14.8099C2.21984 14.9745 1.88058 15.1457 1.67469 15.3142C1.5158 15.4443 1.49914 15.5147 1.50033 15.5419C1.51733 15.5887 1.52638 15.5996 1.52826 15.6018C1.52866 15.6023 1.53054 15.6045 1.53699 15.6086C1.54446 15.6132 1.56249 15.6231 1.59762 15.6336C1.76252 15.6831 2.152 15.7073 3.01327 15.535L6.50243 14.8372L6.6986 15.8178L3.20938 16.5156C2.32604 16.6923 1.7269 16.7164 1.31027 16.5915C1.0845 16.5237 0.904039 16.4101 0.769005 16.2526C0.640328 16.1024 0.579275 15.942 0.543447 15.8345C0.5394 15.8224 0.535821 15.8101 0.532718 15.7977C0.393998 15.2428 0.707218 14.8138 1.04128 14.5404C1.37623 14.2662 1.83949 14.0492 2.3077 13.8736C3.08619 13.5817 4.01317 13.3575 4.69206 13.1934Z" fill="#333333" class='xian'/>
<path fill-rule="evenodd" clip-rule="evenodd" d="M18.9491 10.67L19.298 12.0657C19.3646 12.3324 19.2036 12.6028 18.9374 12.6713L6.72512 15.8116L6.47607 14.8431L18.2074 11.8264L17.9789 10.9126L18.9491 10.67Z" fill="#333333" class='xian'/>
<path fill-rule="evenodd" clip-rule="evenodd" d="M5.88992 10.9894C6.04275 10.9855 6.18897 11.0517 6.28684 11.1692L8.03146 13.2627C8.1676 13.4261 8.1855 13.6577 8.07609 13.84L7.02932 15.5847C6.94261 15.7292 6.78893 15.8203 6.62053 15.827C6.45212 15.8337 6.29167 15.7552 6.19371 15.618L4.44909 13.1756C4.32242 12.9982 4.3252 12.7593 4.45596 12.585L5.50273 11.1893C5.59445 11.067 5.73709 10.9933 5.88992 10.9894ZM5.92338 12.2951L5.47555 12.8922L6.56419 14.4162L7.03588 13.6301L5.92338 12.2951Z" fill="#333333" class='xian'/>
<path fill-rule="evenodd" clip-rule="evenodd" d="M16.5945 8.21363C16.7817 8.16534 16.9799 8.22922 17.1036 8.37768L18.8482 10.4712C18.9579 10.6029 18.9925 10.7816 18.94 10.9447C18.8874 11.1078 18.755 11.2326 18.589 11.2755L7.77239 14.0668C7.58527 14.1151 7.38707 14.0513 7.26335 13.9028L5.51873 11.8093C5.40901 11.6776 5.37437 11.4989 5.42694 11.3358C5.47951 11.1727 5.61196 11.0478 5.7779 11.005L16.5945 8.21363ZM6.79265 11.7759L7.82896 13.0195L17.5743 10.5046L16.538 9.26099L6.79265 11.7759Z" fill="#333333" class='xian'/>
<path fill-rule="evenodd" clip-rule="evenodd" d="M19.3127 12.1871V13.9318C19.3127 14.1624 19.1549 14.3631 18.9308 14.4176L18.8127 13.9318C18.9308 14.4176 18.9309 14.4176 18.9308 14.4176L16.8919 14.9137C15.6598 15.2135 14.0024 15.617 12.3015 16.0313C8.8982 16.8603 5.32401 17.7321 4.62808 17.9061C3.8959 18.0891 3.15714 18.1827 2.54412 18.1827C2.23841 18.1827 1.94985 18.1595 1.70244 18.106C1.47226 18.0562 1.20357 17.9652 1.01295 17.7745C0.828042 17.5896 0.735476 17.3274 0.682398 17.1327C0.623741 16.9177 0.587467 16.682 0.564251 16.473C0.540759 16.2616 0.529189 16.0639 0.523429 15.9199C0.520535 15.8475 0.519074 15.7879 0.518336 15.7458L0.51768 15.6963L0.517592 15.6824L0.51758 15.6784L0.517578 15.6771C0.517578 15.677 0.517578 15.6764 1.01758 15.6764C1.51758 15.6764 1.51758 15.6763 1.51758 15.6763L1.51758 15.6784L1.51765 15.688L1.51818 15.7283C1.51881 15.7639 1.52007 15.816 1.52263 15.8799C1.52777 16.0085 1.53801 16.1815 1.55814 16.3626C1.57853 16.5462 1.60768 16.7249 1.64716 16.8696C1.68126 16.9946 1.71147 17.0497 1.71963 17.0646C1.71979 17.0649 1.71949 17.0643 1.71963 17.0646C1.73298 17.0717 1.78706 17.1011 1.91377 17.1285C2.06981 17.1623 2.28282 17.1827 2.54412 17.1827C3.06509 17.1827 3.72203 17.1018 4.38554 16.9359C5.08531 16.761 8.66405 15.8881 12.0648 15.0597C13.7658 14.6454 15.4233 14.2419 16.6554 13.9421L18.3127 13.5388V12.1871H19.3127Z" fill="#333333" class='xian'/>
<path fill-rule="evenodd" clip-rule="evenodd" d="M19.4936 9.37041C19.617 9.47979 19.6786 9.643 19.6581 9.80665L19.3092 12.598L18.3169 12.474L18.5753 10.4067L17.8876 10.5786L17.645 9.60849L19.0407 9.25956C19.2007 9.21956 19.3701 9.26104 19.4936 9.37041Z" fill="#333333" class='xian'/>
<path d="M10.4388 12.2569L9.77588 11.1404L12.5324 10.4425L13.2302 11.4893L10.4388 12.2569Z" fill="#D9D9D9" class='mian'/>
<path d="M14.9748 10.6169C14.9748 10.9059 14.6624 11.1403 14.2769 11.1403C13.8915 11.1403 13.5791 10.9059 13.5791 10.6169C13.5791 10.3278 13.8915 10.0935 14.2769 10.0935C14.6624 10.0935 14.9748 10.3278 14.9748 10.6169Z" fill="#636363" class='mian'/>
<path d="M15.6729 10.7914L14.9751 9.74468L16.3708 9.39575L17.0686 10.4425L15.6729 10.7914Z" fill="#D9D9D9" class='mian'/>
</svg>
