<svg width="24" height="24" viewBox="0 0 24 24" fill="none" xmlns="http://www.w3.org/2000/svg">
<path d="M4 16V22H8.5V16H4Z" fill="black" class='mian'/>
<path fill-rule="evenodd" clip-rule="evenodd" d="M3.25 16C3.25 15.5858 3.58579 15.25 4 15.25H8.5C8.91421 15.25 9.25 15.5858 9.25 16V22C9.25 22.4142 8.91421 22.75 8.5 22.75H4C3.58579 22.75 3.25 22.4142 3.25 22V16ZM4.75 16.75V21.25H7.75V16.75H4.75Z" fill="#333333" class='xian'/>
<path d="M8.5 16V22H13V16H8.5Z" fill="#EAEAEC" class='mian'/>
<path fill-rule="evenodd" clip-rule="evenodd" d="M7.75 16C7.75 15.5858 8.08579 15.25 8.5 15.25H13C13.4142 15.25 13.75 15.5858 13.75 16V22C13.75 22.4142 13.4142 22.75 13 22.75H8.5C8.08579 22.75 7.75 22.4142 7.75 22V16ZM9.25 16.75V21.25H12.25V16.75H9.25Z" fill="#333333" class='xian'/>
<path d="M13 16V22H22V16H13Z" fill="#EAEAEC" class='mian'/>
<path fill-rule="evenodd" clip-rule="evenodd" d="M12.25 16C12.25 15.5858 12.5858 15.25 13 15.25H22C22.4142 15.25 22.75 15.5858 22.75 16V22C22.75 22.4142 22.4142 22.75 22 22.75H13C12.5858 22.75 12.25 22.4142 12.25 22V16ZM13.75 16.75V21.25H21.25V16.75H13.75Z" fill="#333333" class='xian'/>
<path d="M17 2V16H21V2H17Z" fill="#EBEBED" class='mian'/>
<path fill-rule="evenodd" clip-rule="evenodd" d="M16.25 2C16.25 1.58579 16.5858 1.25 17 1.25H21C21.4142 1.25 21.75 1.58579 21.75 2V16C21.75 16.4142 21.4142 16.75 21 16.75H17C16.5858 16.75 16.25 16.4142 16.25 16V2ZM17.75 2.75V15.25H20.25V2.75H17.75Z" fill="#333333" class='xian'/>
<path d="M2 16H4V20H2V16Z" fill="#D9D9D9" class='mian'/>
<path fill-rule="evenodd" clip-rule="evenodd" d="M1.25 16C1.25 15.5858 1.58579 15.25 2 15.25H4C4.41421 15.25 4.75 15.5858 4.75 16V20C4.75 20.4142 4.41421 20.75 4 20.75H2C1.58579 20.75 1.25 20.4142 1.25 20V16ZM2.75 16.75V19.25H3.25V16.75H2.75Z" fill="#333333" class='xian'/>
<path d="M5.375 20.25H5.125L5 20.375V21H5.5V20.375L5.375 20.25Z" fill="#999999" class='mian'/>
<path fill-rule="evenodd" clip-rule="evenodd" d="M5.05419 20.1793C5.07295 20.1605 5.09838 20.15 5.1249 20.15H5.3749C5.40142 20.15 5.42686 20.1605 5.44561 20.1793L5.57061 20.3043C5.58937 20.323 5.5999 20.3485 5.5999 20.375V21C5.5999 21.0552 5.55513 21.1 5.4999 21.1H4.9999C4.94467 21.1 4.8999 21.0552 4.8999 21V20.375C4.8999 20.3485 4.91044 20.323 4.92919 20.3043L5.05419 20.1793ZM5.16632 20.35L5.0999 20.4164V20.9H5.3999V20.4164L5.33348 20.35H5.16632Z" fill="#333333" class='xian'/>
<path d="M6.125 20.25H5.875L5.75 20.375V21H6.25V20.375L6.125 20.25Z" fill="#999999" class='mian'/>
<path fill-rule="evenodd" clip-rule="evenodd" d="M5.80419 20.1793C5.82295 20.1605 5.84838 20.15 5.8749 20.15H6.1249C6.15142 20.15 6.17686 20.1605 6.19561 20.1793L6.32061 20.3043C6.33937 20.323 6.3499 20.3485 6.3499 20.375V21C6.3499 21.0552 6.30513 21.1 6.2499 21.1H5.7499C5.69467 21.1 5.6499 21.0552 5.6499 21V20.375C5.6499 20.3485 5.66044 20.323 5.67919 20.3043L5.80419 20.1793ZM5.91632 20.35L5.8499 20.4164V20.9H6.1499V20.4164L6.08348 20.35H5.91632Z" fill="#333333" class='xian'/>
<path d="M4.75 17.5H5.75V18H4.75V17.5Z" fill="#0C7DC3" class='xian'/>
</svg>
