<svg width="24" height="24" viewBox="0 0 24 24" fill="none" xmlns="http://www.w3.org/2000/svg">
<path d="M6 13V22H12V13H6Z" fill="#4F4F4F" class='mian'/>
<path fill-rule="evenodd" clip-rule="evenodd" d="M5.25 13C5.25 12.5858 5.58579 12.25 6 12.25H12C12.4142 12.25 12.75 12.5858 12.75 13V22C12.75 22.4142 12.4142 22.75 12 22.75H6C5.58579 22.75 5.25 22.4142 5.25 22V13ZM6.75 13.75V21.25H11.25V13.75H6.75Z" fill="#333333" class='xian'/>
<path d="M2 13V22H6V13H2Z" fill="#EAEAEC" class='mian'/>
<path fill-rule="evenodd" clip-rule="evenodd" d="M1.25 13C1.25 12.5858 1.58579 12.25 2 12.25H6C6.41421 12.25 6.75 12.5858 6.75 13V22C6.75 22.4142 6.41421 22.75 6 22.75H2C1.58579 22.75 1.25 22.4142 1.25 22V13ZM2.75 13.75V21.25H5.25V13.75H2.75Z" fill="#333333" class='xian'/>
<path d="M5 10V13H7V10H5Z" fill="#EAEAEC" class='mian'/>
<path fill-rule="evenodd" clip-rule="evenodd" d="M4.25 10C4.25 9.58579 4.58579 9.25 5 9.25H7C7.41421 9.25 7.75 9.58579 7.75 10V13C7.75 13.4142 7.41421 13.75 7 13.75H5C4.58579 13.75 4.25 13.4142 4.25 13V10ZM5.75 10.75V12.25H6.25V10.75H5.75Z" fill="#333333" class='xian'/>
<path d="M9 2V13H12V2H9Z" fill="#EAEAEC" class='mian'/>
<path fill-rule="evenodd" clip-rule="evenodd" d="M8.25 2C8.25 1.58579 8.58579 1.25 9 1.25H12C12.4142 1.25 12.75 1.58579 12.75 2V13C12.75 13.4142 12.4142 13.75 12 13.75H9C8.58579 13.75 8.25 13.4142 8.25 13V2ZM9.75 2.75V12.25H11.25V2.75H9.75Z" fill="#333333" class='xian'/>
<path d="M12 7V13H14V7H12Z" fill="#EAEAEC" class='mian'/>
<path fill-rule="evenodd" clip-rule="evenodd" d="M11.25 7C11.25 6.58579 11.5858 6.25 12 6.25H14C14.4142 6.25 14.75 6.58579 14.75 7V13C14.75 13.4142 14.4142 13.75 14 13.75H12C11.5858 13.75 11.25 13.4142 11.25 13V7ZM12.75 7.75V12.25H13.25V7.75H12.75Z" fill="#333333" class='xian'/>
<path d="M12 13V22H19V13H12Z" fill="#EAEAEC" class='mian'/>
<path fill-rule="evenodd" clip-rule="evenodd" d="M11.25 13C11.25 12.5858 11.5858 12.25 12 12.25H19C19.4142 12.25 19.75 12.5858 19.75 13V22C19.75 22.4142 19.4142 22.75 19 22.75H12C11.5858 22.75 11.25 22.4142 11.25 22V13ZM12.75 13.75V21.25H18.25V13.75H12.75Z" fill="#333333" class='xian'/>
<path d="M19 13V22H22V13H19Z" fill="#EAEAEC" class='mian'/>
<path fill-rule="evenodd" clip-rule="evenodd" d="M18.25 13C18.25 12.5858 18.5858 12.25 19 12.25H22C22.4142 12.25 22.75 12.5858 22.75 13V22C22.75 22.4142 22.4142 22.75 22 22.75H19C18.5858 22.75 18.25 22.4142 18.25 22V13ZM19.75 13.75V21.25H21.25V13.75H19.75Z" fill="#333333" class='xian'/>
<path d="M18 10V13H22V10H18Z" fill="#4F4F4F" class='mian'/>
<path fill-rule="evenodd" clip-rule="evenodd" d="M17.25 10C17.25 9.58579 17.5858 9.25 18 9.25H22C22.4142 9.25 22.75 9.58579 22.75 10V13C22.75 13.4142 22.4142 13.75 22 13.75H18C17.5858 13.75 17.25 13.4142 17.25 13V10ZM18.75 10.75V12.25H21.25V10.75H18.75Z" fill="#333333" class='xian'/>
<path d="M18.25 10.2V12.8C18.25 12.9105 18.3395 13 18.45 13H21.55C21.6605 13 21.75 12.9105 21.75 12.8V10.2C21.75 10.0895 21.6605 10 21.55 10H18.45C18.3395 10 18.25 10.0895 18.25 10.2Z" fill="white" class='mian'/>
<path d="M19 16V17H22V16H19Z" fill="#EAEAEC" class='mian'/>
<path fill-rule="evenodd" clip-rule="evenodd" d="M18.25 16C18.25 15.5858 18.5858 15.25 19 15.25H22C22.4142 15.25 22.75 15.5858 22.75 16V17C22.75 17.4142 22.4142 17.75 22 17.75H19C18.5858 17.75 18.25 17.4142 18.25 17V16Z" fill="#333333" class='xian'/>
<path d="M8 16.5V14.5H11V16.5H8Z" fill="#4D4D4F" class='mian'/>
<path fill-rule="evenodd" clip-rule="evenodd" d="M7.75 14.5C7.75 14.3619 7.86193 14.25 8 14.25H11C11.1381 14.25 11.25 14.3619 11.25 14.5V16.5C11.25 16.6381 11.1381 16.75 11 16.75H8C7.86193 16.75 7.75 16.6381 7.75 16.5V14.5ZM8.25 14.75V16.25H10.75V14.75H8.25Z" fill="#333333" class='xian'/>
<path fill-rule="evenodd" clip-rule="evenodd" d="M9.5002 15.05C9.25167 15.05 9.0502 15.2515 9.0502 15.5C9.0502 15.7485 9.25167 15.95 9.5002 15.95C9.74872 15.95 9.9502 15.7485 9.9502 15.5C9.9502 15.2515 9.74872 15.05 9.5002 15.05ZM8.9502 15.5C8.9502 15.1963 9.19644 14.95 9.5002 14.95C9.80395 14.95 10.0502 15.1963 10.0502 15.5C10.0502 15.8038 9.80395 16.05 9.5002 16.05C9.19644 16.05 8.9502 15.8038 8.9502 15.5Z" fill="#F7F7F7" class='xian'/>
<path d="M10 15.4H11V15.6H10V15.4Z" fill="#E1E1E1" class='mian'/>
<path d="M20.25 12.61C20.25 12.7481 20.1381 12.86 20 12.86C19.8619 12.86 19.75 12.7481 19.75 12.61C19.75 12.4719 19.8619 12.36 20 12.36C20.1381 12.36 20.25 12.4719 20.25 12.61Z" fill="#333333" class='xian'/>
<path fill-rule="evenodd" clip-rule="evenodd" d="M22 12.25H18V11.75H22V12.25Z" fill="#333333" class='xian'/>
<path fill-rule="evenodd" clip-rule="evenodd" d="M19.9268 10.4232C20.0244 10.5209 20.0244 10.6792 19.9268 10.7768L19.4268 11.2768C19.3291 11.3744 19.1709 11.3744 19.0732 11.2768C18.9756 11.1792 18.9756 11.0209 19.0732 10.9232L19.5732 10.4232C19.6709 10.3256 19.8291 10.3256 19.9268 10.4232Z" fill="#333333" class='xian'/>
<path fill-rule="evenodd" clip-rule="evenodd" d="M20.9268 10.5732C21.0244 10.6709 21.0244 10.8291 20.9268 10.9268L20.6768 11.1768C20.5791 11.2744 20.4209 11.2744 20.3232 11.1768C20.2256 11.0791 20.2256 10.9209 20.3232 10.8232L20.5732 10.5732C20.6709 10.4756 20.8291 10.4756 20.9268 10.5732Z" fill="#333333" class='xian'/>
</svg>
