<svg width="24" height="24" viewBox="0 0 24 24" fill="none" xmlns="http://www.w3.org/2000/svg">
<path d="M5.05147 19.1351C5.72226 18.3785 5.6693 17.1404 4.89418 16.2665C4.06475 15.3315 2.7225 15.1677 1.89618 15.9007L11.0886 6.70828C11.9149 5.9753 13.2571 6.13911 14.0866 7.07415C14.916 8.0092 14.9185 9.36141 14.0922 10.0944L5.05147 19.1351C5.00447 19.1881 4.95392 19.2388 4.89981 19.2868L5.05147 19.1351Z" fill="url(#paint0_linear_2309_958)" noFill="true" />
<path fill-rule="evenodd" clip-rule="evenodd" d="M10.9227 6.52126C11.8733 5.67797 13.3724 5.89232 14.2736 6.90826C15.173 7.92214 15.2086 9.43201 14.2639 10.2763L5.23339 19.3068C5.18125 19.3651 5.12535 19.4209 5.06571 19.4738C4.9646 19.5635 4.8105 19.5566 4.71783 19.4582C4.62516 19.3598 4.62746 19.2056 4.72304 19.11L4.86918 18.9639C5.43649 18.3177 5.41186 17.2269 4.70716 16.4324C3.94948 15.5783 2.76405 15.465 2.06208 16.0877C1.96096 16.1774 1.80687 16.1705 1.7142 16.0721C1.62152 15.9737 1.62383 15.8195 1.7194 15.7239L10.9118 6.53151C10.9153 6.52799 10.9189 6.52457 10.9227 6.52126ZM5.75835 18.0747L13.9154 9.91762C13.9189 9.9141 13.9226 9.91068 13.9263 9.90738C14.6283 9.28469 14.6572 8.09421 13.8995 7.24006C13.1438 6.38809 11.9625 6.27321 11.2599 6.89055L2.95129 15.1991C3.70742 15.1383 4.51311 15.4602 5.0812 16.1006C5.58765 16.6716 5.82 17.3977 5.75835 18.0747Z" fill="#333333"/>
<path d="M4.89982 19.2868C5.72614 18.5538 5.72361 17.2016 4.89418 16.2666C4.06475 15.3315 2.7225 15.1677 1.89618 15.9007C1.06986 16.6337 1.07238 17.9859 1.90181 18.9209C2.73124 19.856 4.07349 20.0198 4.89982 19.2868Z" fill="url(#paint1_linear_2309_958)" noFill="true"/>
<path fill-rule="evenodd" clip-rule="evenodd" d="M2.06208 16.0877C1.36011 16.7104 1.33117 17.9009 2.08884 18.755C2.84652 19.6092 4.03195 19.7225 4.73392 19.0998C5.43589 18.4771 5.46484 17.2866 4.70716 16.4325C3.94949 15.5783 2.76406 15.465 2.06208 16.0877ZM1.71479 19.0868C0.813604 18.0709 0.779615 16.557 1.73028 15.7137C2.68095 14.8704 4.18003 15.0847 5.08121 16.1007C5.9824 17.1166 6.01639 18.6305 5.06572 19.4738C4.11505 20.3171 2.61598 20.1028 1.71479 19.0868Z" fill="#333333"/>
<path fill-rule="evenodd" clip-rule="evenodd" d="M2.15031 17.5325C2.15721 17.3946 2.27459 17.2884 2.41248 17.2953L4.41248 17.3953C4.55038 17.4022 4.65658 17.5196 4.64969 17.6575C4.64279 17.7954 4.52541 17.9016 4.38752 17.8947L2.38752 17.7947C2.24962 17.7878 2.14342 17.6704 2.15031 17.5325Z" fill="#333333"/>
<path fill-rule="evenodd" clip-rule="evenodd" d="M3.33751 16.3453C3.19961 16.3522 3.09341 16.4696 3.10031 16.6075L3.20031 18.6075C3.2072 18.7454 3.32458 18.8516 3.46248 18.8447C3.60038 18.8378 3.70658 18.7204 3.69968 18.5825L3.59968 16.5825C3.59279 16.4446 3.47541 16.3384 3.33751 16.3453Z" fill="#333333"/>
<path d="M8.05147 14.1351C8.72226 13.3785 8.6693 12.1404 7.89418 11.2665C7.06475 10.3315 5.7225 10.1677 4.89618 10.9007L14.0886 1.70828C14.9149 0.975297 16.2571 1.13911 17.0866 2.07415C17.916 3.0092 17.9185 4.36141 17.0922 5.09439L8.05147 14.1351C8.00447 14.1881 7.95392 14.2388 7.89981 14.2868L8.05147 14.1351Z" fill="url(#paint2_linear_2309_958)" noFill="true"/>
<path fill-rule="evenodd" clip-rule="evenodd" d="M13.9227 1.52126C14.8733 0.677975 16.3724 0.892322 17.2736 1.90826C18.173 2.92214 18.2086 4.43201 17.2639 5.27629L8.23339 14.3068C8.18125 14.3651 8.12535 14.4209 8.06571 14.4738C7.9646 14.5635 7.8105 14.5566 7.71783 14.4582C7.62516 14.3598 7.62746 14.2056 7.72304 14.11L7.86918 13.9639C8.43649 13.3177 8.41186 12.2269 7.70716 11.4324C6.94948 10.5783 5.76405 10.465 5.06208 11.0877C4.96096 11.1774 4.80687 11.1705 4.7142 11.0721C4.62152 10.9737 4.62383 10.8195 4.7194 10.7239L13.9118 1.53151C13.9153 1.52799 13.9189 1.52457 13.9227 1.52126ZM8.75835 13.0747L16.9154 4.91762C16.9189 4.9141 16.9226 4.91068 16.9263 4.90738C17.6283 4.28469 17.6572 3.09421 16.8995 2.24006C16.1438 1.38809 14.9625 1.27321 14.2599 1.89055L5.95129 10.1991C6.70742 10.1383 7.51311 10.4602 8.0812 11.1006C8.58765 11.6716 8.82 12.3977 8.75835 13.0747Z" fill="#333333"/>
<path d="M7.89982 14.2868C8.72614 13.5538 8.72361 12.2016 7.89418 11.2666C7.06475 10.3315 5.7225 10.1677 4.89618 10.9007C4.06986 11.6337 4.07238 12.9859 4.90181 13.9209C5.73124 14.856 7.07349 15.0198 7.89982 14.2868Z" fill="url(#paint3_linear_2309_958)" noFill="true"/>
<path fill-rule="evenodd" clip-rule="evenodd" d="M5.06208 11.0877C4.36011 11.7104 4.33117 12.9009 5.08884 13.755C5.84652 14.6092 7.03195 14.7225 7.73392 14.0998C8.43589 13.4771 8.46484 12.2866 7.70716 11.4325C6.94949 10.5783 5.76406 10.465 5.06208 11.0877ZM4.71479 14.0868C3.8136 13.0709 3.77961 11.557 4.73028 10.7137C5.68095 9.87038 7.18003 10.0847 8.08121 11.1007C8.9824 12.1166 9.01639 13.6305 8.06572 14.4738C7.11505 15.3171 5.61598 15.1028 4.71479 14.0868Z" fill="#333333"/>
<path fill-rule="evenodd" clip-rule="evenodd" d="M5.15031 12.5325C5.15721 12.3946 5.27459 12.2884 5.41248 12.2953L7.41248 12.3953C7.55038 12.4022 7.65658 12.5196 7.64969 12.6575C7.64279 12.7954 7.52541 12.9016 7.38752 12.8947L5.38752 12.7947C5.24962 12.7878 5.14342 12.6704 5.15031 12.5325Z" fill="#333333"/>
<path d="M10.5515 22.1351C11.2223 21.3785 11.1693 20.1404 10.3942 19.2665C9.56475 18.3315 8.2225 18.1677 7.39618 18.9007L16.5886 9.70828C17.4149 8.9753 18.7571 9.13911 19.5866 10.0742C20.416 11.0092 20.4185 12.3614 19.5922 13.0944L10.5515 22.1351C10.5045 22.1881 10.4539 22.2388 10.3998 22.2868L10.5515 22.1351Z" fill="url(#paint4_linear_2309_958)" noFill="true"/>
<path fill-rule="evenodd" clip-rule="evenodd" d="M16.4227 9.52126C17.3733 8.67797 18.8724 8.89232 19.7736 9.90826C20.673 10.9221 20.7086 12.432 19.7639 13.2763L10.7334 22.3068C10.6812 22.3651 10.6253 22.4209 10.5657 22.4738C10.4646 22.5635 10.3105 22.5566 10.2178 22.4582C10.1252 22.3598 10.1275 22.2056 10.223 22.11L10.3692 21.9639C10.9365 21.3177 10.9119 20.2269 10.2072 19.4324C9.44948 18.5783 8.26405 18.465 7.56208 19.0877C7.46096 19.1774 7.30687 19.1705 7.2142 19.0721C7.12152 18.9737 7.12383 18.8195 7.2194 18.7239L16.4118 9.53151C16.4153 9.52799 16.4189 9.52457 16.4227 9.52126ZM11.2583 21.0747L19.4154 12.9176C19.4189 12.9141 19.4226 12.9107 19.4263 12.9074C20.1283 12.2847 20.1572 11.0942 19.3995 10.2401C18.6438 9.38809 17.4625 9.27321 16.7599 9.89055L8.45129 18.1991C9.20742 18.1383 10.0131 18.4602 10.5812 19.1006C11.0877 19.6716 11.32 20.3977 11.2583 21.0747Z" fill="#333333"/>
<path d="M10.3998 22.2868C11.2261 21.5538 11.2236 20.2016 10.3942 19.2666C9.56475 18.3315 8.2225 18.1677 7.39618 18.9007C6.56986 19.6337 6.57238 20.9859 7.40181 21.9209C8.23124 22.856 9.57349 23.0198 10.3998 22.2868Z" fill="url(#paint5_linear_2309_958)" noFill="true"/>
<path fill-rule="evenodd" clip-rule="evenodd" d="M7.56208 19.0877C6.86011 19.7104 6.83117 20.9009 7.58884 21.755C8.34652 22.6092 9.53195 22.7225 10.2339 22.0998C10.9359 21.4771 10.9648 20.2866 10.2072 19.4325C9.44949 18.5783 8.26406 18.465 7.56208 19.0877ZM7.21479 22.0868C6.3136 21.0709 6.27961 19.557 7.23028 18.7137C8.18095 17.8704 9.68003 18.0847 10.5812 19.1007C11.4824 20.1166 11.5164 21.6305 10.5657 22.4738C9.61505 23.3171 8.11598 23.1028 7.21479 22.0868Z" fill="#333333"/>
<path fill-rule="evenodd" clip-rule="evenodd" d="M7.65031 20.5325C7.65721 20.3946 7.77459 20.2884 7.91248 20.2953L9.91248 20.3953C10.0504 20.4022 10.1566 20.5196 10.1497 20.6575C10.1428 20.7954 10.0254 20.9016 9.88752 20.8947L7.88752 20.7947C7.74962 20.7878 7.64342 20.6704 7.65031 20.5325Z" fill="#333333"/>
<path d="M13.0515 17.1351C13.7223 16.3785 13.6693 15.1404 12.8942 14.2665C12.0647 13.3315 10.7225 13.1677 9.89618 13.9007L19.0886 4.70828C19.9149 3.9753 21.2571 4.13911 22.0866 5.07415C22.916 6.0092 22.9185 7.36141 22.0922 8.09439L13.0515 17.1351C13.0045 17.1881 12.9539 17.2388 12.8998 17.2868L13.0515 17.1351Z" fill="url(#paint6_linear_2309_958)" noFill="true"/>
<path fill-rule="evenodd" clip-rule="evenodd" d="M18.9227 4.52126C19.8733 3.67797 21.3724 3.89232 22.2736 4.90826C23.173 5.92214 23.2086 7.43201 22.2639 8.27629L13.2334 17.3068C13.1812 17.3651 13.1253 17.4209 13.0657 17.4738C12.9646 17.5635 12.8105 17.5566 12.7178 17.4582C12.6252 17.3598 12.6275 17.2056 12.723 17.11L12.8692 16.9639C13.4365 16.3177 13.4119 15.2269 12.7072 14.4324C11.9495 13.5783 10.764 13.465 10.0621 14.0877C9.96096 14.1774 9.80687 14.1705 9.7142 14.0721C9.62152 13.9737 9.62383 13.8195 9.7194 13.7239L18.9118 4.53151C18.9153 4.52799 18.9189 4.52457 18.9227 4.52126ZM13.7583 16.0747L21.9154 7.91762C21.9189 7.9141 21.9226 7.91068 21.9263 7.90738C22.6283 7.28469 22.6572 6.09421 21.8995 5.24006C21.1438 4.38809 19.9625 4.27321 19.2599 4.89055L10.9513 13.1991C11.7074 13.1383 12.5131 13.4602 13.0812 14.1006C13.5877 14.6716 13.82 15.3977 13.7583 16.0747Z" fill="#333333"/>
<path d="M12.8998 17.2868C13.7261 16.5538 13.7236 15.2016 12.8942 14.2666C12.0648 13.3315 10.7225 13.1677 9.89618 13.9007C9.06986 14.6337 9.07238 15.9859 9.90181 16.9209C10.7312 17.856 12.0735 18.0198 12.8998 17.2868Z" fill="url(#paint7_linear_2309_958)" noFill="true"/>
<path fill-rule="evenodd" clip-rule="evenodd" d="M10.0621 14.0877C9.36011 14.7104 9.33117 15.9009 10.0888 16.755C10.8465 17.6092 12.0319 17.7225 12.7339 17.0998C13.4359 16.4771 13.4648 15.2866 12.7072 14.4325C11.9495 13.5783 10.7641 13.465 10.0621 14.0877ZM9.71479 17.0868C8.8136 16.0709 8.77962 14.557 9.73028 13.7137C10.681 12.8704 12.18 13.0847 13.0812 14.1007C13.9824 15.1166 14.0164 16.6305 13.0657 17.4738C12.1151 18.3171 10.616 18.1028 9.71479 17.0868Z" fill="#333333"/>
<path fill-rule="evenodd" clip-rule="evenodd" d="M10.1503 15.5325C10.1572 15.3946 10.2746 15.2884 10.4125 15.2953L12.4125 15.3953C12.5504 15.4022 12.6566 15.5196 12.6497 15.6575C12.6428 15.7954 12.5254 15.9016 12.3875 15.8947L10.3875 15.7947C10.2496 15.7878 10.1434 15.6704 10.1503 15.5325Z" fill="#333333"/>
<path fill-rule="evenodd" clip-rule="evenodd" d="M11.3375 14.3453C11.1996 14.3522 11.0934 14.4696 11.1003 14.6075L11.2003 16.6075C11.2072 16.7454 11.3246 16.8516 11.4625 16.8447C11.6004 16.8378 11.7066 16.7204 11.6997 16.5825L11.5997 14.5825C11.5928 14.4446 11.4754 14.3384 11.3375 14.3453Z" fill="#333333"/>
<defs>
<linearGradient id="paint0_linear_2309_958" x1="6.49999" y1="11" x2="9.99999" y2="14.5" gradientUnits="userSpaceOnUse">
<stop offset="0.0827329" stop-color="#B9B9B9"/>
<stop offset="0.817708" stop-color="#777777"/>
<stop offset="1" stop-color="#B6B6B6"/>
</linearGradient>
<linearGradient id="paint1_linear_2309_958" x1="1.89618" y1="15.9007" x2="4.89982" y2="19.2868" gradientUnits="userSpaceOnUse">
<stop stop-color="#696969"/>
<stop offset="1" stop-color="#B3B3B3"/>
</linearGradient>
<linearGradient id="paint2_linear_2309_958" x1="9.49999" y1="6" x2="13" y2="9.5" gradientUnits="userSpaceOnUse">
<stop offset="0.0827329" stop-color="#B9B9B9"/>
<stop offset="0.817708" stop-color="#777777"/>
<stop offset="1" stop-color="#B6B6B6"/>
</linearGradient>
<linearGradient id="paint3_linear_2309_958" x1="4.89618" y1="10.9007" x2="7.89982" y2="14.2868" gradientUnits="userSpaceOnUse">
<stop stop-color="#696969"/>
<stop offset="1" stop-color="#B3B3B3"/>
</linearGradient>
<linearGradient id="paint4_linear_2309_958" x1="12" y1="14" x2="15.5" y2="17.5" gradientUnits="userSpaceOnUse">
<stop offset="0.0827329" stop-color="#B9B9B9"/>
<stop offset="0.817708" stop-color="#777777"/>
<stop offset="1" stop-color="#B6B6B6"/>
</linearGradient>
<linearGradient id="paint5_linear_2309_958" x1="7.39618" y1="18.9007" x2="10.3998" y2="22.2868" gradientUnits="userSpaceOnUse">
<stop stop-color="#696969"/>
<stop offset="1" stop-color="#B3B3B3"/>
</linearGradient>
<linearGradient id="paint6_linear_2309_958" x1="14.5" y1="9" x2="18" y2="12.5" gradientUnits="userSpaceOnUse">
<stop offset="0.0827329" stop-color="#B9B9B9"/>
<stop offset="0.817708" stop-color="#777777"/>
<stop offset="1" stop-color="#B6B6B6"/>
</linearGradient>
<linearGradient id="paint7_linear_2309_958" x1="9.89618" y1="13.9007" x2="12.8998" y2="17.2868" gradientUnits="userSpaceOnUse">
<stop stop-color="#696969"/>
<stop offset="1" stop-color="#B3B3B3"/>
</linearGradient>
</defs>
</svg>
