<svg width="24" height="24" viewBox="0 0 24 24" fill="none" xmlns="http://www.w3.org/2000/svg">
<path fill-rule="evenodd" clip-rule="evenodd" d="M2.33437 10.32C2.33437 10.4581 2.44629 10.57 2.58437 10.57C3.56651 10.57 4.27314 10.3849 4.87068 10.0999C5.34207 9.87496 5.74477 9.58668 6.1451 9.30009C6.24267 9.23024 6.3401 9.16049 6.43835 9.09179C6.94551 8.73714 7.50233 8.38781 8.282 8.11952C9.06302 7.85076 10.0791 7.65953 11.5037 7.63786C11.6417 7.63577 11.752 7.52215 11.7499 7.38409C11.7478 7.24604 11.6341 7.13582 11.4961 7.13792C10.0299 7.16022 8.95988 7.35748 8.11931 7.64673C7.27738 7.93645 6.67718 8.31465 6.15181 8.68204C6.04354 8.75775 5.93956 8.83211 5.83806 8.90468C5.44164 9.18815 5.08315 9.4445 4.65539 9.64858C4.12937 9.89953 3.49691 10.07 2.58437 10.07C2.44629 10.07 2.33437 10.1819 2.33437 10.32Z" fill="#333333"/>
<path fill-rule="evenodd" clip-rule="evenodd" d="M21.6656 10.32C21.6656 10.4581 21.5537 10.57 21.4156 10.57C20.4335 10.57 19.7268 10.3849 19.1293 10.0999C18.6579 9.87496 18.2551 9.58668 17.8548 9.30009C17.7572 9.23024 17.6598 9.1605 17.5615 9.09179C17.0543 8.73714 16.4975 8.38782 15.7178 8.11952C14.9367 7.85076 13.9206 7.65953 12.496 7.63786C12.358 7.63577 12.2478 7.52215 12.2499 7.38409C12.252 7.24604 12.3656 7.13582 12.5036 7.13792C13.9698 7.16022 15.0399 7.35748 15.8805 7.64673C16.7224 7.93645 17.3227 8.31465 17.848 8.68203C17.9563 8.75774 18.0603 8.8321 18.1618 8.90468C18.5583 9.18815 18.9168 9.4445 19.3446 9.64858C19.8706 9.89953 20.5031 10.07 21.4156 10.07C21.5537 10.07 21.6656 10.1819 21.6656 10.32Z" fill="#333333"/>
<path fill-rule="evenodd" clip-rule="evenodd" d="M2.33437 13.7603C2.33437 13.6222 2.44629 13.5103 2.58437 13.5103C3.56728 13.5103 4.27453 13.6993 4.87244 13.9903C5.34383 14.2197 5.74653 14.5138 6.14676 14.806C6.24442 14.8773 6.34192 14.9485 6.44025 15.0186C6.94746 15.3804 7.50412 15.7365 8.2834 16.0098C9.06396 16.2836 10.0796 16.4784 11.5037 16.5C11.6417 16.5021 11.752 16.6157 11.7499 16.7538C11.7478 16.8918 11.6341 17.0021 11.4961 17C10.0295 16.9776 8.95893 16.7767 8.1179 16.4817C7.27559 16.1862 6.67523 15.8004 6.14991 15.4257C6.0415 15.3484 5.93739 15.2724 5.83577 15.1983C5.43948 14.9093 5.08116 14.6479 4.65363 14.4399C4.12798 14.184 3.49614 14.0103 2.58437 14.0103C2.44629 14.0103 2.33437 13.8984 2.33437 13.7603Z" fill="#333333"/>
<path fill-rule="evenodd" clip-rule="evenodd" d="M21.6656 13.7603C21.6656 13.6222 21.5537 13.5103 21.4156 13.5103C20.4365 13.5103 19.7309 13.6978 19.1344 13.987C18.6599 14.2169 18.2556 14.5121 17.8538 14.8055C17.7598 14.8742 17.6659 14.9427 17.5714 15.0102C17.0667 15.3708 16.5145 15.7261 15.7434 16.0003C14.9711 16.2749 13.9677 16.472 12.5615 16.4989C12.4235 16.5015 12.3137 16.6156 12.3164 16.7536C12.319 16.8917 12.433 17.0014 12.5711 16.9988C14.02 16.9711 15.0784 16.7674 15.9109 16.4714C16.7445 16.175 17.34 15.79 17.862 15.4171C17.9659 15.3429 18.0658 15.27 18.1634 15.1988C18.562 14.9081 18.9223 14.6454 19.3524 14.4369C19.8768 14.1827 20.5073 14.0103 21.4156 14.0103C21.5537 14.0103 21.6656 13.8984 21.6656 13.7603Z" fill="#333333"/>
<path fill-rule="evenodd" clip-rule="evenodd" d="M10.1204 4.75C10.1204 4.61193 10.2323 4.5 10.3704 4.5H11.4999C11.6372 4.5 11.7488 4.61068 11.7499 4.74795L11.7952 10.2727C11.7963 10.4107 11.6853 10.5236 11.5472 10.5247C11.4091 10.5258 11.2963 10.4148 11.2952 10.2767L11.2519 5H10.6204V6.55C10.6204 6.68807 10.5085 6.8 10.3704 6.8H3.55865V8.78087C3.55865 8.91894 3.44672 9.03087 3.30865 9.03087H2.83437V11.5C2.83437 11.6381 2.72244 11.75 2.58437 11.75C2.44629 11.75 2.33437 11.6381 2.33437 11.5V8.78087C2.33437 8.6428 2.44629 8.53087 2.58437 8.53087H3.05865V6.55C3.05865 6.41193 3.17058 6.3 3.30865 6.3H10.1204V4.75ZM12.2499 4.75C12.2499 4.61193 12.3618 4.5 12.4999 4.5H13.6296C13.7677 4.5 13.8796 4.61193 13.8796 4.75V6.3H20.6008C20.7389 6.3 20.8508 6.41193 20.8508 6.55V8.53087H21.4157C21.5537 8.53087 21.6657 8.6428 21.6657 8.78087V11.5C21.6657 11.6381 21.5537 11.75 21.4157 11.75C21.2776 11.75 21.1657 11.6381 21.1657 11.5V9.03087H20.6008C20.4628 9.03087 20.3508 8.91894 20.3508 8.78087V6.8H13.6296C13.4916 6.8 13.3796 6.68807 13.3796 6.55V5H12.7499V10.2747C12.7499 10.4128 12.638 10.5247 12.4999 10.5247C12.3618 10.5247 12.2499 10.4128 12.2499 10.2747V4.75ZM2.58437 12.3C2.72244 12.3 2.83437 12.4119 2.83437 12.55V15.2305H3.35391C3.49198 15.2305 3.60391 15.3424 3.60391 15.4805V17.177H10.3704C10.5085 17.177 10.6204 17.2889 10.6204 17.427V19H11.2499V13.9414C11.2499 13.8033 11.3618 13.6914 11.4999 13.6914C11.638 13.6914 11.7499 13.8033 11.7499 13.9414V19.25C11.7499 19.3881 11.638 19.5 11.4999 19.5H10.3704C10.2323 19.5 10.1204 19.3881 10.1204 19.25V17.677H3.35391C3.21584 17.677 3.10391 17.565 3.10391 17.427V15.7305H2.58437C2.44629 15.7305 2.33437 15.6185 2.33437 15.4805V12.55C2.33437 12.4119 2.44629 12.3 2.58437 12.3ZM21.4157 12.3C21.5537 12.3 21.6657 12.4119 21.6657 12.55V15.4352C21.6657 15.5733 21.5537 15.6852 21.4157 15.6852H20.8508V17.427C20.8508 17.565 20.7389 17.677 20.6008 17.677H13.8796V19.25C13.8796 19.3881 13.7677 19.5 13.6296 19.5H12.5401C12.4021 19.5 12.2901 19.3881 12.2901 19.25V13.9414C12.2901 13.8033 12.4021 13.6914 12.5401 13.6914C12.6782 13.6914 12.7901 13.8033 12.7901 13.9414V19H13.3796V17.427C13.3796 17.2889 13.4916 17.177 13.6296 17.177H20.3508V15.4352C20.3508 15.2971 20.4628 15.1852 20.6008 15.1852H21.1657V12.55C21.1657 12.4119 21.2776 12.3 21.4157 12.3Z" fill="#333333"/>
<path fill-rule="evenodd" clip-rule="evenodd" d="M14.2402 10.1217C14.2402 10.1216 14.2402 10.1215 13.993 10.0938L14.2402 10.1215C14.2248 10.2587 14.1011 10.3575 13.9639 10.3421C13.8267 10.3267 13.7279 10.203 13.7433 10.0658L13.9918 10.0936C13.7433 10.0658 13.7433 10.0657 13.7433 10.0656L13.7434 10.0653L13.7434 10.0648L13.7436 10.0636L13.744 10.0602L13.7453 10.0501C13.7465 10.0419 13.7481 10.0308 13.7505 10.0172C13.7551 9.99014 13.7624 9.95288 13.7734 9.90918C13.795 9.82347 13.833 9.70495 13.8986 9.58886C13.964 9.47334 14.0651 9.3457 14.2192 9.26471C14.3795 9.18043 14.5701 9.16095 14.7818 9.2187C14.8934 9.24914 14.9737 9.32452 15.0277 9.3915C15.0842 9.4615 15.1316 9.54684 15.1721 9.63725C15.2533 9.81873 15.3217 10.0553 15.3749 10.3211C15.4819 10.8548 15.5356 11.5446 15.4918 12.234C15.4482 12.9202 15.3067 13.629 15.0061 14.1862C14.7014 14.7512 14.2203 15.1784 13.5126 15.2318C13.375 15.2422 13.2549 15.139 13.2445 15.0013C13.2341 14.8637 13.3373 14.7436 13.475 14.7332C13.9669 14.6961 14.3176 14.4094 14.566 13.9489C14.8186 13.4806 14.9515 12.8524 14.9928 12.2023C15.0339 11.5552 14.9829 10.9091 14.8847 10.4194C14.8354 10.1735 14.7761 9.97651 14.7157 9.84152C14.6853 9.77371 14.6585 9.73011 14.6385 9.70531C14.6354 9.70148 14.6328 9.69845 14.6306 9.69611C14.5377 9.67453 14.4845 9.69011 14.4518 9.70728C14.4107 9.72891 14.3703 9.77051 14.3338 9.83504C14.2976 9.89899 14.2734 9.97131 14.2582 10.0314C14.2508 10.0607 14.2461 10.0851 14.2433 10.1014C14.2419 10.1096 14.241 10.1156 14.2405 10.1191L14.2402 10.1217ZM14.2401 10.1224L14.2402 10.1217L14.2402 10.1219L14.2401 10.1221L14.2401 10.1224ZM14.2401 10.1224L14.2401 10.1225L14.2401 10.1226C14.2401 10.1226 14.2401 10.1225 14.2401 10.1224Z" fill="#333333"/>
<path fill-rule="evenodd" clip-rule="evenodd" d="M20.5772 11.5422C20.5772 11.4041 20.6891 11.2922 20.8272 11.2922H22.8272C22.9652 11.2922 23.0772 11.4041 23.0772 11.5422V12.5422C23.0772 12.6803 22.9652 12.7922 22.8272 12.7922H20.8272C20.6891 12.7922 20.5772 12.6803 20.5772 12.5422V11.5422ZM21.0772 11.7922V12.2922H22.5772V11.7922H21.0772Z" fill="#333333"/>
<path fill-rule="evenodd" clip-rule="evenodd" d="M0.919891 11.5422C0.919891 11.4041 1.03182 11.2922 1.16989 11.2922H3.16989C3.30796 11.2922 3.41989 11.4041 3.41989 11.5422V12.5422C3.41989 12.6803 3.30796 12.7922 3.16989 12.7922H1.16989C1.03182 12.7922 0.919891 12.6803 0.919891 12.5422V11.5422ZM1.41989 11.7922V12.2922H2.91989V11.7922H1.41989Z" fill="#333333"/>
<path fill-rule="evenodd" clip-rule="evenodd" d="M8.98249 10.1276C8.8767 10.3011 8.79089 10.6028 8.85265 11.0557C8.91626 11.5222 9.17491 12.4918 9.86603 13.3168C10.5472 14.13 11.6609 14.8195 13.4819 14.7328C13.6198 14.7262 13.737 14.8327 13.7435 14.9706C13.7501 15.1085 13.6436 15.2257 13.5057 15.2322C11.5242 15.3266 10.2614 14.5675 9.48274 13.6379C8.71399 12.7202 8.42943 11.6527 8.35724 11.1233C8.2832 10.5804 8.37847 10.1578 8.5556 9.86728C8.72072 9.59648 8.99723 9.39253 9.27979 9.43963C9.46136 9.46989 9.58493 9.58329 9.66126 9.6839C9.7447 9.79391 9.72318 9.95073 9.61317 10.0342C9.50317 10.1176 9.34635 10.0961 9.26291 9.98609C9.22988 9.94255 9.20716 9.93442 9.19759 9.93282C9.19916 9.93308 9.19828 9.9333 9.19528 9.93405C9.17734 9.93855 9.08342 9.96208 8.98249 10.1276Z" fill="#333333"/>
<path fill-rule="evenodd" clip-rule="evenodd" d="M13.8336 13.7939C13.9598 13.8497 14.017 13.9973 13.9611 14.1236L13.6477 14.8327L14.3495 15.219C14.4704 15.2856 14.5145 15.4376 14.4479 15.5586C14.3814 15.6795 14.2293 15.7236 14.1084 15.657L13.2058 15.1603C13.0923 15.0977 13.0453 14.9588 13.0977 14.8402L13.5038 13.9215C13.5596 13.7952 13.7073 13.7381 13.8336 13.7939Z" fill="#333333"/>
<path fill-rule="evenodd" clip-rule="evenodd" d="M9.57577 11.2071C9.48299 11.3093 9.32489 11.317 9.22264 11.2242L8.66529 10.7184L8.17337 11.192C8.0739 11.2878 7.91564 11.2848 7.81988 11.1853C7.72412 11.0859 7.72712 10.9276 7.82659 10.8318L8.48685 10.1962C8.5816 10.1049 8.73083 10.1027 8.82824 10.1911L9.55863 10.8539C9.66088 10.9467 9.66856 11.1048 9.57577 11.2071Z" fill="#333333"/>
<path fill-rule="evenodd" clip-rule="evenodd" d="M21 11.3371C15.1227 9.61339 8.87502 9.6139 3 11.3366V11.858C8.87091 10.1068 15.1268 10.1062 21 11.8585V11.3371ZM21 12.2593C15.1268 14.0115 8.87091 14.011 3 12.2597V12.7811C8.87502 14.5039 15.1227 14.5044 21 12.7807V12.2593Z" fill="#333333"/>
<path fill-rule="evenodd" clip-rule="evenodd" d="M9.30507 13.8667C9.28881 13.7296 9.16458 13.6317 9.02752 13.6478C8.8904 13.664 8.79236 13.7883 8.80854 13.9254L9.05682 13.8961C8.80854 13.9254 8.80853 13.9253 8.80854 13.9254L8.80882 13.9277L8.80937 13.9321L8.81135 13.9469C8.81309 13.9593 8.81567 13.9768 8.81924 13.9986C8.82638 14.0421 8.83754 14.1031 8.85395 14.1756C8.88646 14.3191 8.94091 14.5136 9.02862 14.7068C9.11527 14.8976 9.24215 15.1047 9.42843 15.2554C9.62261 15.4125 9.87362 15.5012 10.1763 15.4562C10.3129 15.4358 10.4071 15.3086 10.3868 15.1721C10.3664 15.0355 10.2392 14.9413 10.1027 14.9616C9.94949 14.9844 9.83723 14.943 9.74294 14.8667C9.64075 14.784 9.55394 14.6544 9.48389 14.5001C9.4149 14.3481 9.36963 14.1889 9.3416 14.0651C9.32773 14.0039 9.31842 13.9528 9.31265 13.9176C9.30976 13.9001 9.30778 13.8866 9.30656 13.8778L9.3053 13.8684L9.30507 13.8667C9.30507 13.8666 9.30506 13.8665 9.30507 13.8667Z" fill="#4D4D4D"/>
<path fill-rule="evenodd" clip-rule="evenodd" d="M11.7116 10.2811C11.7331 10.4175 11.6399 10.5455 11.5035 10.5669C11.3071 10.5978 11.1492 10.7733 11.0461 11.2112C10.9462 11.6352 10.9265 12.1951 10.9184 12.7848C10.9173 12.8663 10.9164 12.9484 10.9155 13.0306C10.9101 13.5286 10.9046 14.0323 10.8485 14.4349C10.8159 14.6694 10.7633 14.8939 10.6696 15.0724C10.5728 15.2566 10.4175 15.4159 10.1807 15.4555C10.0446 15.4782 9.91569 15.3863 9.89291 15.2501C9.87014 15.1139 9.96207 14.9851 10.0982 14.9623C10.1321 14.9566 10.1763 14.9362 10.2269 14.8398C10.2806 14.7376 10.3234 14.5806 10.3533 14.3659C10.4046 13.9979 10.4098 13.5321 10.4154 13.0305C10.4163 12.9472 10.4173 12.8629 10.4184 12.778C10.4264 12.1964 10.445 11.5822 10.5594 11.0966C10.6705 10.6249 10.9027 10.1553 11.4258 10.073C11.5622 10.0516 11.6902 10.1447 11.7116 10.2811Z" fill="#4D4D4D"/>
<path fill-rule="evenodd" clip-rule="evenodd" d="M9.65724 14.2244C9.76345 14.2547 9.82495 14.3654 9.79461 14.4716L9.65175 14.9716C9.62366 15.0699 9.52595 15.1312 9.42521 15.1137L8.70564 14.9887C8.59682 14.9698 8.52392 14.8663 8.54282 14.7574C8.56173 14.6486 8.66528 14.5757 8.7741 14.5946L9.31653 14.6888L9.41 14.3617C9.44034 14.2555 9.55104 14.194 9.65724 14.2244Z" fill="#4D4D4D"/>
<path fill-rule="evenodd" clip-rule="evenodd" d="M10.0612 11.2151C10.0064 11.1191 10.0398 10.997 10.1357 10.9422L10.8402 10.5399C10.887 10.5132 10.9425 10.5065 10.9943 10.5212C11.0461 10.536 11.0897 10.5711 11.1153 10.6184L11.5357 11.3957C11.5883 11.4929 11.5521 11.6142 11.4549 11.6668C11.3578 11.7193 11.2364 11.6832 11.1839 11.586L10.8608 10.9887L10.334 11.2896C10.2381 11.3443 10.1159 11.311 10.0612 11.2151Z" fill="#4D4D4D"/>
</svg>
