<svg width="24" height="24" viewBox="0 0 24 24" fill="none" xmlns="http://www.w3.org/2000/svg">
<path d="M22 22H2L2.00004 2H12V8H22V22Z" fill="white"/>
<path fill-rule="evenodd" clip-rule="evenodd" d="M1.25004 2C1.25005 1.58579 1.58583 1.25 2.00004 1.25H12C12.4143 1.25 12.75 1.58579 12.75 2V7.25H22C22.4142 7.25 22.75 7.58579 22.75 8V22C22.75 22.4142 22.4142 22.75 22 22.75H2C1.80109 22.75 1.61032 22.671 1.46967 22.5303C1.32902 22.3897 1.25 22.1989 1.25 22L1.25004 2ZM2.75004 2.75L2.75 21.25H21.25V8.75H12C11.5858 8.75 11.25 8.41421 11.25 8V2.75H2.75004Z" fill="#333333" class='xian'/>
<path fill-rule="evenodd" clip-rule="evenodd" d="M11.25 8.75L11.25 22L12.75 22L12.75 8.5C12.75 7.80964 12.1903 7.25 11.5 7.25L1.99998 7.25L1.99999 8.75L11.25 8.75Z" fill="#333333" class='xian'/>
<path fill-rule="evenodd" clip-rule="evenodd" d="M13.75 14.5C13.75 14.0858 14.0858 13.75 14.5 13.75H17.5C17.9142 13.75 18.25 14.0858 18.25 14.5V16.7324C18.25 17.1503 18.0411 17.5406 17.6934 17.7725L17.2481 18.0693C16.4923 18.5732 15.5077 18.5732 14.7519 18.0693L14.3066 17.7725C13.9589 17.5406 13.75 17.1503 13.75 16.7324V14.5ZM15.25 15.25V16.5986L15.584 16.8213C15.8359 16.9892 16.1641 16.9892 16.416 16.8213L16.75 16.5986V15.25H15.25Z" fill="#333333" class='xian'/>
<path fill-rule="evenodd" clip-rule="evenodd" d="M16 11.75C16.1381 11.75 16.25 11.8619 16.25 12V13H15.75V12C15.75 11.8619 15.8619 11.75 16 11.75Z" fill="#333333" class='xian'/>
<path fill-rule="evenodd" clip-rule="evenodd" d="M14.4961 13.25C14.4961 13.1119 14.608 13 14.7461 13L15.5 13L15.5 13.5L14.7461 13.5C14.608 13.5 14.4961 13.3881 14.4961 13.25Z" fill="#333333" class='xian'/>
<path fill-rule="evenodd" clip-rule="evenodd" d="M17.5039 13.25C17.5039 13.1119 17.392 13 17.2539 13L16.5 13L16.5 13.5L17.2539 13.5C17.392 13.5 17.5039 13.3881 17.5039 13.25Z" fill="#333333" class='xian'/>
<path d="M17 13.5C17 14.0523 16.5523 14.5 16 14.5C15.4477 14.5 15 14.0523 15 13.5C15 12.9477 15.4477 12.5 16 12.5C16.5523 12.5 17 12.9477 17 13.5Z" fill="#333333" class='xian'/>
<path d="M2 8H4C4 14.8 5.33333 20.1667 6 22H2V8Z" fill="#1C74A2" class='mian'/>
<path fill-rule="evenodd" clip-rule="evenodd" d="M1.25 8C1.25 7.58579 1.58579 7.25 2 7.25H4C4.41421 7.25 4.75 7.58579 4.75 8C4.75 14.7166 6.0694 19.9962 6.70484 21.7437C6.78846 21.9736 6.75466 22.2299 6.6143 22.4303C6.47394 22.6307 6.24466 22.75 6 22.75H2C1.58579 22.75 1.25 22.4142 1.25 22V8ZM2.75 8.75V21.25H4.96987C4.27769 18.8893 3.33434 14.3307 3.25532 8.75H2.75Z" fill="#333333" class='xian'/>
<path d="M22 8H20C20 14.8 18.6667 20.1667 18 22H22V8Z" fill="#1C74A2" class='mian'/>
<path fill-rule="evenodd" clip-rule="evenodd" d="M22.75 8C22.75 7.58579 22.4142 7.25 22 7.25H20C19.5858 7.25 19.25 7.58579 19.25 8C19.25 14.7166 17.9306 19.9962 17.2952 21.7437C17.2115 21.9736 17.2453 22.2299 17.3857 22.4303C17.5261 22.6307 17.7553 22.75 18 22.75H22C22.4142 22.75 22.75 22.4142 22.75 22V8ZM21.25 8.75V21.25H19.0301C19.7223 18.8893 20.6657 14.3307 20.7447 8.75H21.25Z" fill="#333333" class='xian'/>
</svg>
