<svg width="24" height="24" viewBox="0 0 24 24" fill="none" xmlns="http://www.w3.org/2000/svg">
<g clip-path="url(#clip0_2663_1203)">
<path d="M5.00438 19.1357C5.67517 18.3791 5.62221 17.1409 4.84709 16.2671C4.01766 15.332 2.67541 15.1682 1.84909 15.9012L11.0415 6.70883C11.8678 5.97585 13.21 6.13966 14.0395 7.0747C14.8689 8.00975 14.8714 9.36196 14.0451 10.0949L5.00438 19.1357C4.95738 19.1887 4.90683 19.2393 4.85272 19.2873L5.00438 19.1357Z" fill="url(#paint0_linear_2663_1203)"/>
<path d="M4.85273 19.2873C5.67905 18.5544 5.67653 17.2021 4.84709 16.2671C4.01766 15.3321 2.67541 15.1683 1.84909 15.9012C1.02277 16.6342 1.02529 17.9864 1.85472 18.9215C2.68415 19.8565 4.02641 20.0203 4.85273 19.2873Z" fill="url(#paint1_linear_2663_1203)"/>
<path fill-rule="evenodd" clip-rule="evenodd" d="M10.8756 6.52181C11.8263 5.67852 13.3253 5.89287 14.2265 6.90881C15.1259 7.92269 15.1616 9.43256 14.2168 10.2768L5.18633 19.3073C5.13419 19.3657 5.07829 19.4215 5.01865 19.4744C4.91754 19.5641 4.76345 19.5571 4.67077 19.4588C4.5781 19.3604 4.5804 19.2061 4.67598 19.1106L4.82213 18.9644C5.38943 18.3183 5.3648 17.2274 4.6601 16.433C3.90242 15.5788 2.71699 15.4656 2.01502 16.0882C1.91391 16.1779 1.75981 16.171 1.66714 16.0726C1.57447 15.9743 1.57677 15.82 1.67234 15.7244L10.8647 6.53206C10.8683 6.52854 10.8719 6.52512 10.8756 6.52181ZM5.71129 18.0752L13.8684 9.91817C13.8719 9.91465 13.8755 9.91123 13.8792 9.90793C14.5812 9.28524 14.6102 8.09476 13.8525 7.24061C13.0967 6.38863 11.9154 6.27376 11.2128 6.8911L2.90423 15.1997C3.66036 15.1389 4.46605 15.4608 5.03415 16.1012C5.54059 16.6721 5.77295 17.3983 5.71129 18.0752Z" fill="#333333"/>
<path fill-rule="evenodd" clip-rule="evenodd" d="M2.01501 16.0883C1.31304 16.711 1.28409 17.9014 2.04177 18.7556C2.79944 19.6097 3.98487 19.723 4.68685 19.1003C5.38882 18.4776 5.41776 17.2872 4.66009 16.433C3.90241 15.5789 2.71698 15.4656 2.01501 16.0883ZM1.66772 19.0874C0.76653 18.0714 0.732542 16.5575 1.68321 15.7142C2.63388 14.8709 4.13295 15.0853 5.03414 16.1012C5.93533 17.1171 5.96932 18.6311 5.01865 19.4744C4.06798 20.3177 2.5689 20.1033 1.66772 19.0874Z" fill="#333333"/>
<path fill-rule="evenodd" clip-rule="evenodd" d="M2.10322 17.5331C2.11012 17.3952 2.2275 17.289 2.3654 17.2959L4.3654 17.3959C4.50329 17.4028 4.60949 17.5202 4.6026 17.6581C4.5957 17.796 4.47833 17.9022 4.34043 17.8953L2.34043 17.7953C2.20253 17.7884 2.09633 17.671 2.10322 17.5331Z" fill="#333333"/>
<path fill-rule="evenodd" clip-rule="evenodd" d="M3.29044 16.3459C3.15254 16.3528 3.04634 16.4702 3.05324 16.6081L3.15324 18.6081C3.16013 18.746 3.27751 18.8522 3.41541 18.8453C3.55331 18.8384 3.65951 18.721 3.65261 18.5831L3.55261 16.5831C3.54572 16.4452 3.42834 16.339 3.29044 16.3459Z" fill="#333333"/>
<path d="M8.05147 14.1351C8.72226 13.3785 8.6693 12.1404 7.89418 11.2665C7.06475 10.3315 5.7225 10.1677 4.89618 10.9007L14.0886 1.70828C14.9149 0.975297 16.2571 1.13911 17.0866 2.07415C17.916 3.0092 17.9185 4.36141 17.0922 5.09439L8.05147 14.1351C8.00447 14.1881 7.95392 14.2388 7.89981 14.2868L8.05147 14.1351Z" fill="url(#paint2_linear_2663_1203)"/>
<path d="M7.89982 14.2868C8.72614 13.5538 8.72361 12.2016 7.89418 11.2666C7.06475 10.3315 5.7225 10.1677 4.89618 10.9007C4.06986 11.6337 4.07238 12.9859 4.90181 13.9209C5.73124 14.856 7.07349 15.0198 7.89982 14.2868Z" fill="url(#paint3_linear_2663_1203)"/>
<path fill-rule="evenodd" clip-rule="evenodd" d="M13.9227 1.52126C14.8734 0.677975 16.3724 0.892322 17.2736 1.90826C18.173 2.92214 18.2087 4.43201 17.2639 5.27629L8.23341 14.3068C8.18128 14.3651 8.12538 14.4209 8.06574 14.4738C7.96463 14.5635 7.81054 14.5566 7.71786 14.4582C7.62519 14.3598 7.62749 14.2056 7.72307 14.11L7.86921 13.9639C8.43652 13.3177 8.41189 12.2269 7.70719 11.4324C6.94951 10.5783 5.76408 10.465 5.06211 11.0877C4.96099 11.1774 4.8069 11.1705 4.71423 11.0721C4.62155 10.9737 4.62386 10.8195 4.71943 10.7239L13.9118 1.53151C13.9153 1.52799 13.919 1.52457 13.9227 1.52126ZM8.75838 13.0747L16.9155 4.91762C16.919 4.9141 16.9226 4.91068 16.9263 4.90738C17.6283 4.28469 17.6573 3.09421 16.8996 2.24006C16.1438 1.38809 14.9625 1.27321 14.2599 1.89055L5.95132 10.1991C6.70745 10.1383 7.51314 10.4602 8.08123 11.1006C8.58768 11.6716 8.82004 12.3977 8.75838 13.0747Z" fill="#333333"/>
<path fill-rule="evenodd" clip-rule="evenodd" d="M5.0621 11.0877C4.36013 11.7104 4.33118 12.9009 5.08886 13.755C5.84653 14.6092 7.03196 14.7225 7.73393 14.0998C8.43591 13.4771 8.46485 12.2866 7.70718 11.4325C6.9495 10.5783 5.76407 10.465 5.0621 11.0877ZM4.71481 14.0868C3.81362 13.0709 3.77963 11.557 4.7303 10.7137C5.68097 9.87038 7.18004 10.0847 8.08123 11.1007C8.98242 12.1166 9.0164 13.6305 8.06573 14.4738C7.11507 15.3171 5.61599 15.1028 4.71481 14.0868Z" fill="#333333"/>
<path fill-rule="evenodd" clip-rule="evenodd" d="M5.15031 12.5325C5.15721 12.3946 5.27459 12.2884 5.41248 12.2953L7.41248 12.3953C7.55038 12.4022 7.65658 12.5196 7.64969 12.6575C7.64279 12.7954 7.52541 12.9016 7.38752 12.8947L5.38752 12.7947C5.24962 12.7878 5.14342 12.6704 5.15031 12.5325Z" fill="#333333"/>
<path d="M10.5544 22.1357C11.2252 21.3791 11.1722 20.1409 10.3971 19.2671C9.56765 18.332 8.2254 18.1682 7.39908 18.9012L16.5915 9.70883C17.4178 8.97585 18.76 9.13966 19.5895 10.0747C20.4189 11.0098 20.4214 12.362 19.5951 13.0949L10.5544 22.1357C10.5074 22.1887 10.4568 22.2393 10.4027 22.2873L10.5544 22.1357Z" fill="url(#paint4_linear_2663_1203)"/>
<path d="M10.4027 22.2873C11.229 21.5544 11.2265 20.2021 10.3971 19.2671C9.56765 18.3321 8.2254 18.1683 7.39908 18.9012C6.57276 19.6342 6.57528 20.9864 7.40471 21.9215C8.23414 22.8565 9.57639 23.0203 10.4027 22.2873Z" fill="url(#paint5_linear_2663_1203)"/>
<path fill-rule="evenodd" clip-rule="evenodd" d="M16.4256 9.52181C17.3763 8.67852 18.8753 8.89287 19.7765 9.90881C20.6759 10.9227 20.7116 12.4326 19.7668 13.2768L10.7363 22.3073C10.6842 22.3657 10.6283 22.4215 10.5686 22.4744C10.4675 22.5641 10.3134 22.5571 10.2208 22.4588C10.1281 22.3604 10.1304 22.2061 10.226 22.1106L10.3721 21.9644C10.9394 21.3183 10.9148 20.2274 10.2101 19.433C9.45241 18.5788 8.26698 18.4656 7.56501 19.0882C7.46389 19.1779 7.3098 19.171 7.21713 19.0726C7.12445 18.9743 7.12676 18.82 7.22233 18.7244L16.4147 9.53206C16.4182 9.52854 16.4219 9.52512 16.4256 9.52181ZM11.2613 21.0752L19.4184 12.9182C19.4219 12.9146 19.4255 12.9112 19.4292 12.9079C20.1312 12.2852 20.1602 11.0948 19.4025 10.2406C18.6467 9.38863 17.4654 9.27376 16.7628 9.8911L8.45422 18.1997C9.21035 18.1389 10.016 18.4608 10.5841 19.1012C11.0906 19.6721 11.3229 20.3983 11.2613 21.0752Z" fill="#333333"/>
<path fill-rule="evenodd" clip-rule="evenodd" d="M7.565 19.0883C6.86303 19.711 6.83408 20.9014 7.59176 21.7556C8.34943 22.6097 9.53486 22.723 10.2368 22.1003C10.9388 21.4776 10.9678 20.2872 10.2101 19.433C9.4524 18.5789 8.26697 18.4656 7.565 19.0883ZM7.21771 22.0874C6.31652 21.0714 6.28253 19.5575 7.2332 18.7142C8.18387 17.8709 9.68294 18.0853 10.5841 19.1012C11.4853 20.1171 11.5193 21.6311 10.5686 22.4744C9.61796 23.3177 8.11889 23.1033 7.21771 22.0874Z" fill="#333333"/>
<path fill-rule="evenodd" clip-rule="evenodd" d="M7.65321 20.5331C7.66011 20.3952 7.77748 20.289 7.91538 20.2959L9.91538 20.3959C10.0533 20.4028 10.1595 20.5202 10.1526 20.6581C10.1457 20.796 10.0283 20.9022 9.89041 20.8953L7.89041 20.7953C7.75252 20.7884 7.64632 20.671 7.65321 20.5331Z" fill="#333333"/>
<path d="M13.0515 17.1351C13.7223 16.3785 13.6693 15.1404 12.8942 14.2665C12.0647 13.3315 10.7225 13.1677 9.89618 13.9007L19.0886 4.70828C19.9149 3.9753 21.2571 4.13911 22.0866 5.07415C22.916 6.0092 22.9185 7.36141 22.0922 8.09439L13.0515 17.1351C13.0045 17.1881 12.9539 17.2388 12.8998 17.2868L13.0515 17.1351Z" fill="url(#paint6_linear_2663_1203)"/>
<path d="M12.8998 17.2868C13.7261 16.5538 13.7236 15.2016 12.8942 14.2666C12.0648 13.3315 10.7225 13.1677 9.89618 13.9007C9.06986 14.6337 9.07238 15.9859 9.90181 16.9209C10.7312 17.856 12.0735 18.0198 12.8998 17.2868Z" fill="url(#paint7_linear_2663_1203)"/>
<path fill-rule="evenodd" clip-rule="evenodd" d="M18.9227 4.52126C19.8734 3.67797 21.3724 3.89232 22.2736 4.90826C23.173 5.92214 23.2087 7.43201 22.2639 8.27629L13.2334 17.3068C13.1813 17.3651 13.1254 17.4209 13.0657 17.4738C12.9646 17.5635 12.8105 17.5566 12.7179 17.4582C12.6252 17.3598 12.6275 17.2056 12.7231 17.11L12.8692 16.9639C13.4365 16.3177 13.4119 15.2269 12.7072 14.4324C11.9495 13.5783 10.7641 13.465 10.0621 14.0877C9.96099 14.1774 9.8069 14.1705 9.71423 14.0721C9.62155 13.9737 9.62386 13.8195 9.71943 13.7239L18.9118 4.53151C18.9153 4.52799 18.919 4.52457 18.9227 4.52126ZM13.7584 16.0747L21.9155 7.91762C21.919 7.9141 21.9226 7.91068 21.9263 7.90738C22.6283 7.28469 22.6573 6.09421 21.8996 5.24006C21.1438 4.38809 19.9625 4.27321 19.2599 4.89055L10.9513 13.1991C11.7074 13.1383 12.5131 13.4602 13.0812 14.1006C13.5877 14.6716 13.82 15.3977 13.7584 16.0747Z" fill="#333333"/>
<path fill-rule="evenodd" clip-rule="evenodd" d="M10.0621 14.0877C9.36013 14.7104 9.33118 15.9009 10.0889 16.755C10.8465 17.6092 12.032 17.7225 12.7339 17.0998C13.4359 16.4771 13.4649 15.2866 12.7072 14.4325C11.9495 13.5783 10.7641 13.465 10.0621 14.0877ZM9.71481 17.0868C8.81362 16.0709 8.77963 14.557 9.7303 13.7137C10.681 12.8704 12.18 13.0847 13.0812 14.1007C13.9824 15.1166 14.0164 16.6305 13.0657 17.4738C12.1151 18.3171 10.616 18.1028 9.71481 17.0868Z" fill="#333333"/>
<path fill-rule="evenodd" clip-rule="evenodd" d="M10.1503 15.5325C10.1572 15.3946 10.2746 15.2884 10.4125 15.2953L12.4125 15.3953C12.5504 15.4022 12.6566 15.5196 12.6497 15.6575C12.6428 15.7954 12.5254 15.9016 12.3875 15.8947L10.3875 15.7947C10.2496 15.7878 10.1434 15.6704 10.1503 15.5325Z" fill="#333333"/>
<path fill-rule="evenodd" clip-rule="evenodd" d="M11.3375 14.3453C11.1996 14.3522 11.0934 14.4696 11.1003 14.6075L11.2003 16.6075C11.2072 16.7454 11.3246 16.8516 11.4625 16.8447C11.6004 16.8378 11.7066 16.7204 11.6997 16.5825L11.5997 14.5825C11.5928 14.4446 11.4754 14.3384 11.3375 14.3453Z" fill="#333333"/>
</g>
<defs>
<linearGradient id="paint0_linear_2663_1203" x1="6.45291" y1="11.0005" x2="9.95291" y2="14.5005" gradientUnits="userSpaceOnUse">
<stop offset="0.0827329" stop-color="#B9B9B9"/>
<stop offset="0.817708" stop-color="#777777"/>
<stop offset="1" stop-color="#B6B6B6"/>
</linearGradient>
<linearGradient id="paint1_linear_2663_1203" x1="1.84909" y1="15.9012" x2="4.85273" y2="19.2873" gradientUnits="userSpaceOnUse">
<stop stop-color="#696969"/>
<stop offset="1" stop-color="#B3B3B3"/>
</linearGradient>
<linearGradient id="paint2_linear_2663_1203" x1="9.49999" y1="6" x2="13" y2="9.5" gradientUnits="userSpaceOnUse">
<stop offset="0.0827329" stop-color="#B9B9B9"/>
<stop offset="0.817708" stop-color="#777777"/>
<stop offset="1" stop-color="#B6B6B6"/>
</linearGradient>
<linearGradient id="paint3_linear_2663_1203" x1="4.89618" y1="10.9007" x2="7.89982" y2="14.2868" gradientUnits="userSpaceOnUse">
<stop stop-color="#696969"/>
<stop offset="1" stop-color="#B3B3B3"/>
</linearGradient>
<linearGradient id="paint4_linear_2663_1203" x1="12.0029" y1="14.0005" x2="15.5029" y2="17.5005" gradientUnits="userSpaceOnUse">
<stop offset="0.0827329" stop-color="#B9B9B9"/>
<stop offset="0.817708" stop-color="#777777"/>
<stop offset="1" stop-color="#B6B6B6"/>
</linearGradient>
<linearGradient id="paint5_linear_2663_1203" x1="7.39908" y1="18.9012" x2="10.4027" y2="22.2873" gradientUnits="userSpaceOnUse">
<stop stop-color="#696969"/>
<stop offset="1" stop-color="#B3B3B3"/>
</linearGradient>
<linearGradient id="paint6_linear_2663_1203" x1="14.5" y1="9" x2="18" y2="12.5" gradientUnits="userSpaceOnUse">
<stop offset="0.0827329" stop-color="#B9B9B9"/>
<stop offset="0.817708" stop-color="#777777"/>
<stop offset="1" stop-color="#B6B6B6"/>
</linearGradient>
<linearGradient id="paint7_linear_2663_1203" x1="9.89618" y1="13.9007" x2="12.8998" y2="17.2868" gradientUnits="userSpaceOnUse">
<stop stop-color="#696969"/>
<stop offset="1" stop-color="#B3B3B3"/>
</linearGradient>
<clipPath id="clip0_2663_1203">
<rect width="24" height="24" fill="white"/>
</clipPath>
</defs>
</svg>
