<svg width="24" height="24" viewBox="0 0 24 24" fill="none" xmlns="http://www.w3.org/2000/svg">
<path d="M8 9H16V18C16 20.2091 14.2091 22 12 22C9.79086 22 8 20.2091 8 18V9Z" fill="#666666" class='mian'/>
<path fill-rule="evenodd" clip-rule="evenodd" d="M7.25 2C7.25 1.58579 7.58579 1.25 8 1.25L16 1.25C16.4142 1.25 16.75 1.58579 16.75 2V18C16.75 20.6234 14.6234 22.75 12 22.75C9.37665 22.75 7.25 20.6234 7.25 18L7.25 2ZM8.75 2.75V18C8.75 19.7949 10.2051 21.25 12 21.25C13.7949 21.25 15.25 19.7949 15.25 18V2.75L8.75 2.75Z" fill="#333333" class='xian'/>
<path fill-rule="evenodd" clip-rule="evenodd" d="M7.25 9C7.25 8.58579 7.58579 8.25 8 8.25H16C16.4142 8.25 16.75 8.58579 16.75 9C16.75 9.41421 16.4142 9.75 16 9.75H8C7.58579 9.75 7.25 9.41421 7.25 9Z" fill="#333333" class='xian'/>
</svg>
