<svg width="24" height="24" viewBox="0 0 24 24" fill="none" xmlns="http://www.w3.org/2000/svg">
<path fill-rule="evenodd" clip-rule="evenodd" d="M1.25 2C1.25 1.58579 1.58579 1.25 2 1.25H4C4.41421 1.25 4.75 1.58579 4.75 2C4.75 2.41421 4.41421 2.75 4 2.75H2.75V4C2.75 4.41421 2.41421 4.75 2 4.75C1.58579 4.75 1.25 4.41421 1.25 4V2Z" fill="#666666"/>
<path fill-rule="evenodd" clip-rule="evenodd" d="M22.75 22C22.75 22.4142 22.4142 22.75 22 22.75H20C19.5858 22.75 19.25 22.4142 19.25 22C19.25 21.5858 19.5858 21.25 20 21.25H21.25V20C21.25 19.5858 21.5858 19.25 22 19.25C22.4142 19.25 22.75 19.5858 22.75 20V22Z" fill="#666666"/>
<path fill-rule="evenodd" clip-rule="evenodd" d="M22.75 2C22.75 1.58579 22.4142 1.25 22 1.25H20C19.5858 1.25 19.25 1.58579 19.25 2C19.25 2.41421 19.5858 2.75 20 2.75H21.25V4C21.25 4.41421 21.5858 4.75 22 4.75C22.4142 4.75 22.75 4.41421 22.75 4V2Z" fill="#666666"/>
<path fill-rule="evenodd" clip-rule="evenodd" d="M1.25 22C1.25 22.4142 1.58579 22.75 2 22.75H4C4.41421 22.75 4.75 22.4142 4.75 22C4.75 21.5858 4.41421 21.25 4 21.25H2.75V20C2.75 19.5858 2.41421 19.25 2 19.25C1.58579 19.25 1.25 19.5858 1.25 20V22Z" fill="#666666"/>
<path fill-rule="evenodd" clip-rule="evenodd" d="M3.25 12C3.25 11.5858 3.58579 11.25 4 11.25H21C21.4142 11.25 21.75 11.5858 21.75 12C21.75 12.4142 21.4142 12.75 21 12.75H4C3.58579 12.75 3.25 12.4142 3.25 12Z" fill="#666666"/>
<path fill-rule="evenodd" clip-rule="evenodd" d="M6.17775 3.40001V3.93668C6.17775 3.97786 6.19411 4.01734 6.22322 4.04646L6.33995 4.16318C6.60053 4.42377 6.49579 4.86748 6.14618 4.98402C5.70055 5.13256 5.39998 5.54959 5.39998 6.01932V9.60001H9.26664V6.01932C9.26664 5.54959 8.96607 5.13256 8.52044 4.98402C8.17083 4.86748 8.06608 4.42377 8.32667 4.16318L8.44339 4.04646C8.47251 4.01734 8.48886 3.97786 8.48886 3.93668V3.40001H6.17775ZM5.37775 3.07239C5.37775 2.8115 5.58925 2.60001 5.85013 2.60001H8.81649C9.07737 2.60001 9.28887 2.8115 9.28887 3.07239V3.93668C9.28887 4.10311 9.24543 4.26506 9.16485 4.40738C9.71654 4.74594 10.0666 5.35194 10.0666 6.01932V9.94858C10.0666 10.1979 9.86453 10.4 9.61521 10.4H5.0514C4.80209 10.4 4.59998 10.1979 4.59998 9.94858V6.01932C4.59998 5.35194 4.95008 4.74594 5.50177 4.40737C5.42118 4.26506 5.37775 4.10311 5.37775 3.93668V3.07239Z" fill="#333333"/>
<path fill-rule="evenodd" clip-rule="evenodd" d="M8.10754 7.74616C8.10754 7.80139 8.15232 7.84616 8.20754 7.84616L8.66908 7.84616C8.72431 7.84616 8.76908 7.80139 8.76908 7.74616C8.76908 7.69093 8.72431 7.64616 8.66908 7.64616L8.20754 7.64616C8.15232 7.64616 8.10754 7.69093 8.10754 7.74616Z" fill="#333333"/>
<path fill-rule="evenodd" clip-rule="evenodd" d="M8.02969 7.00098C8.06874 7.04003 8.13206 7.04003 8.17111 7.00098L8.49747 6.67462C8.53652 6.63557 8.53652 6.57225 8.49747 6.5332C8.45842 6.49414 8.3951 6.49414 8.35605 6.5332L8.02969 6.85955C7.99064 6.89861 7.99064 6.96192 8.02969 7.00098Z" fill="#333333"/>
<path fill-rule="evenodd" clip-rule="evenodd" d="M6.0715 8.9591C6.11055 8.99816 6.17387 8.99816 6.21292 8.9591L6.53928 8.63275C6.57833 8.5937 6.57833 8.53038 6.53928 8.49133C6.50023 8.45227 6.43691 8.45227 6.39786 8.49133L6.0715 8.81768C6.03245 8.85674 6.03245 8.92005 6.0715 8.9591Z" fill="#333333"/>
<path fill-rule="evenodd" clip-rule="evenodd" d="M6.53927 7.00098C6.57833 6.96193 6.57833 6.89861 6.53927 6.85956L6.21292 6.5332C6.17387 6.49415 6.11055 6.49415 6.0715 6.5332C6.03244 6.57225 6.03244 6.63557 6.0715 6.67462L6.39785 7.00098C6.43691 7.04003 6.50022 7.04003 6.53927 7.00098Z" fill="#333333"/>
<path fill-rule="evenodd" clip-rule="evenodd" d="M8.4974 8.95911C8.53646 8.92006 8.53646 8.85674 8.4974 8.81769L8.17105 8.49133C8.132 8.45228 8.06868 8.45228 8.02963 8.49133C7.99057 8.53038 7.99057 8.5937 8.02963 8.63275L8.35598 8.95911C8.39504 8.99816 8.45835 8.99816 8.4974 8.95911Z" fill="#333333"/>
<path fill-rule="evenodd" clip-rule="evenodd" d="M5.79987 7.74616C5.79987 7.80139 5.84464 7.84616 5.89987 7.84616L6.3614 7.84616C6.41663 7.84616 6.4614 7.80139 6.4614 7.74616C6.4614 7.69093 6.41663 7.64616 6.3614 7.64616L5.89987 7.64616C5.84464 7.64616 5.79987 7.69093 5.79987 7.74616Z" fill="#333333"/>
<path fill-rule="evenodd" clip-rule="evenodd" d="M7.28451 6.49231C7.33974 6.49231 7.38451 6.53708 7.38451 6.59231V8.9C7.38451 8.95523 7.33974 9 7.28451 9C7.22928 9 7.18451 8.95523 7.18451 8.9V6.59231C7.18451 6.53708 7.22928 6.49231 7.28451 6.49231Z" fill="#333333"/>
<path fill-rule="evenodd" clip-rule="evenodd" d="M6.63683 5.94468C6.67589 5.90563 6.7392 5.90563 6.77825 5.94468L7.00902 6.17545C7.04808 6.2145 7.04808 6.27782 7.00902 6.31687C6.96997 6.35592 6.90665 6.35592 6.8676 6.31687L6.63683 6.0861C6.59778 6.04705 6.59778 5.98373 6.63683 5.94468Z" fill="#333333"/>
<path fill-rule="evenodd" clip-rule="evenodd" d="M7.93214 5.94468C7.89308 5.90563 7.82977 5.90563 7.79072 5.94468L7.55995 6.17545C7.52089 6.2145 7.52089 6.27782 7.55995 6.31687C7.599 6.35592 7.66231 6.35592 7.70137 6.31687L7.93214 6.0861C7.97119 6.04705 7.97119 5.98373 7.93214 5.94468Z" fill="#333333"/>
<path fill-rule="evenodd" clip-rule="evenodd" d="M6.72296 6.61154C6.72296 6.29468 6.97056 6.03078 7.2845 6.03078C7.59844 6.03078 7.84604 6.29468 7.84604 6.61154V6.71731H7.64604V6.61154C7.64604 6.39737 7.48037 6.23078 7.2845 6.23078C7.08863 6.23078 6.92296 6.39737 6.92296 6.61154V6.71731H6.72296V6.61154Z" fill="#333333"/>
<path fill-rule="evenodd" clip-rule="evenodd" d="M5.82916 5.82929C5.86821 5.79024 5.93152 5.79024 5.97058 5.82929L8.97058 8.82929C9.00963 8.86834 9.00963 8.93166 8.97058 8.97071C8.93152 9.00977 8.86821 9.00977 8.82915 8.97071L5.82916 5.97071C5.7901 5.93166 5.7901 5.86834 5.82916 5.82929Z" fill="#333333"/>
<path fill-rule="evenodd" clip-rule="evenodd" d="M6.26141 7.51539C6.26141 6.95036 6.71946 6.49231 7.28449 6.49231C7.84952 6.49231 8.30757 6.95036 8.30757 7.51539V7.97693C8.30757 8.54196 7.84952 9 7.28449 9C6.71946 9 6.26141 8.54195 6.26141 7.97693V7.51539ZM7.28449 6.69231C6.82992 6.69231 6.46141 7.06081 6.46141 7.51539V7.97693C6.46141 8.4315 6.82992 8.8 7.28449 8.8C7.73906 8.8 8.10757 8.4315 8.10757 7.97693V7.51539C8.10757 7.06081 7.73906 6.69231 7.28449 6.69231Z" fill="#333333"/>
<path fill-rule="evenodd" clip-rule="evenodd" d="M5.59998 4.50001C5.59998 4.27909 5.77906 4.10001 5.99998 4.10001H8.49998C8.72089 4.10001 8.89998 4.27909 8.89998 4.50001C8.89998 4.72092 8.72089 4.90001 8.49998 4.90001H5.99998C5.77906 4.90001 5.59998 4.72092 5.59998 4.50001Z" fill="#333333"/>
<path fill-rule="evenodd" clip-rule="evenodd" d="M6.24911 14.4C6.01171 14.4 5.80529 14.5357 5.70451 14.7356C5.60507 14.9329 5.36454 15.0122 5.16727 14.9127C4.97001 14.8133 4.89071 14.5728 4.99015 14.3755C5.22161 13.9164 5.69806 13.6 6.24911 13.6C7.02742 13.6 7.65836 14.231 7.65836 15.0093C7.65836 15.7876 7.02742 16.4185 6.24911 16.4185L4.49998 16.4185C4.27906 16.4185 4.09998 16.2394 4.09998 16.0185C4.09998 15.7976 4.27906 15.6185 4.49998 15.6185L6.24911 15.6185C6.58559 15.6185 6.85836 15.3457 6.85836 15.0093C6.85836 14.6728 6.58559 14.4 6.24911 14.4Z" fill="#333333"/>
<path fill-rule="evenodd" clip-rule="evenodd" d="M7.72046 20.6C7.48306 20.6 7.27664 20.4643 7.17586 20.2644C7.07642 20.0671 6.83589 19.9878 6.63862 20.0873C6.44136 20.1867 6.36206 20.4272 6.4615 20.6245C6.69297 21.0836 7.16941 21.4 7.72046 21.4C8.49877 21.4 9.12972 20.769 9.12972 19.9907C9.12972 19.2124 8.49877 18.5815 7.72046 18.5815L4.49998 18.5815C4.27906 18.5815 4.09997 18.7606 4.09998 18.9815C4.09998 19.2024 4.27906 19.3815 4.49998 19.3815L7.72046 19.3815C8.05694 19.3815 8.32972 19.6543 8.32972 19.9907C8.32972 20.3272 8.05694 20.6 7.72046 20.6Z" fill="#333333"/>
<path fill-rule="evenodd" clip-rule="evenodd" d="M10.1583 15.8815C9.92086 15.8815 9.71445 16.0172 9.61367 16.2171C9.51423 16.4144 9.27369 16.4937 9.07643 16.3942C8.87916 16.2948 8.79986 16.0542 8.89931 15.857C9.13077 15.3978 9.60722 15.0815 10.1583 15.0815C10.9366 15.0815 11.5675 15.7124 11.5675 16.4907C11.5675 16.928 11.3198 17.2849 11.0288 17.5171C10.7369 17.7499 10.3521 17.9 9.97307 17.9C9.97307 17.9 9.97307 17.9 9.97307 17.9L4.49999 17.9002C4.27907 17.9002 4.09998 17.7211 4.09998 17.5002C4.09997 17.2792 4.27905 17.1002 4.49996 17.1002L9.97305 17.1C10.1515 17.1 10.3639 17.0241 10.5299 16.8917C10.6968 16.7586 10.7675 16.6109 10.7675 16.4907C10.7675 16.1543 10.4947 15.8815 10.1583 15.8815Z" fill="#333333"/>
<path fill-rule="evenodd" clip-rule="evenodd" d="M16.3184 13.6618L16.1049 14L15.9036 13.6543C16.0325 13.5793 16.1924 13.5822 16.3184 13.6618ZM16.0958 14.4813C16.0549 14.5092 16.009 14.5412 15.9589 14.5772C15.7407 14.734 15.4453 14.9658 15.1385 15.2637C14.5183 15.8659 13.8852 16.7052 13.7025 17.7142C13.4549 19.0815 14.5231 20.4983 15.887 20.5925C16.6902 20.648 17.4115 20.2325 17.8741 19.5741C18.338 18.9139 18.5128 18.0474 18.2508 17.2619C17.9527 16.3684 17.3685 15.6368 16.8431 15.1211C16.5823 14.8651 16.3409 14.6671 16.1657 14.5337C16.141 14.5149 16.1177 14.4975 16.0958 14.4813ZM15.9036 13.6543C15.9036 13.6543 15.9036 13.6543 16.1049 14C16.3184 13.6618 16.3184 13.6618 16.3184 13.6618L16.3196 13.6625L16.3214 13.6636L16.327 13.6673L16.3461 13.6797C16.3622 13.6903 16.3849 13.7055 16.4136 13.7252C16.4708 13.7647 16.5517 13.8222 16.6501 13.8971C16.8466 14.0466 17.1144 14.2664 17.4036 14.5502C17.978 15.1141 18.6565 15.9502 19.0097 17.0088C19.3619 18.0647 19.1196 19.1931 18.5287 20.0341C17.9364 20.8769 16.9651 21.4689 15.8319 21.3906C13.9702 21.262 12.5869 19.3858 12.9153 17.5717C13.1404 16.3281 13.9054 15.3459 14.5812 14.6897C14.9223 14.3585 15.2495 14.1019 15.4919 13.9277C15.6133 13.8404 15.714 13.7733 15.7854 13.7275C15.8212 13.7046 15.8496 13.6869 15.8696 13.6747L15.8933 13.6604L15.9002 13.6563L15.9023 13.6551L15.9036 13.6543Z" fill="#333333"/>
<path fill-rule="evenodd" clip-rule="evenodd" d="M17.8 17.8C18.0209 17.8 18.2 17.9791 18.2 18.2C18.2 18.7117 18.0477 19.2347 17.7507 19.6397C17.4487 20.0515 16.9868 20.35 16.4 20.35C16.1791 20.35 16 20.1709 16 19.95C16 19.7291 16.1791 19.55 16.4 19.55C16.6882 19.55 16.9263 19.411 17.1056 19.1666C17.2898 18.9153 17.4 18.5633 17.4 18.2C17.4 17.9791 17.5791 17.8 17.8 17.8Z" fill="#333333"/>
<rect x="14.5811" y="8.86485" width="1.13514" height="1.13514" fill="#333333"/>
<rect x="16.0946" y="8.86485" width="1.13514" height="1.13514" fill="#333333"/>
<path fill-rule="evenodd" clip-rule="evenodd" d="M13.3409 3.06293C13.3783 3.03103 13.4464 2.99152 13.5372 2.99968C13.5435 3.00025 13.557 3.00091 13.5766 3.00186C13.6649 3.00615 13.8759 3.0164 14.0936 3.05097C14.3611 3.09347 14.7049 3.17992 14.9635 3.37565C15.2644 3.60332 15.3568 4.00185 15.3489 4.32289C15.3448 4.49043 15.3138 4.65864 15.2559 4.80491C15.1998 4.94654 15.1077 5.09398 14.9633 5.1821C14.9195 5.20887 14.8685 5.22147 14.8172 5.21822C14.3875 5.26428 14.046 5.16886 13.7877 4.97485C13.5296 4.78102 13.3804 4.50828 13.2972 4.24952C13.2138 3.9906 13.1908 3.72894 13.1969 3.53073C13.1999 3.43232 13.2104 3.34071 13.2283 3.26757C13.2366 3.23321 13.25 3.18854 13.2732 3.14681C13.2845 3.1264 13.3056 3.09308 13.3409 3.06293ZM14.7349 4.72392C14.7516 4.70259 14.7717 4.66965 14.791 4.62082C14.8243 4.53669 14.8462 4.42777 14.8491 4.31067C14.8552 4.06246 14.7774 3.86179 14.6618 3.77435C14.5041 3.65497 14.2612 3.58387 14.0152 3.54478C13.8929 3.52537 13.786 3.51562 13.6983 3.50974C13.6976 3.52125 13.6971 3.53338 13.6967 3.54611C13.692 3.69791 13.7103 3.9012 13.7731 4.09637C13.836 4.29171 13.9377 4.46223 14.0879 4.57505C14.2258 4.67862 14.4279 4.75128 14.7349 4.72392Z" fill="#333333"/>
<path fill-rule="evenodd" clip-rule="evenodd" d="M17.0199 2.88913C16.7253 2.9695 16.3788 3.13704 16.1446 3.48822C15.6912 4.16798 15.8822 5.042 16.3685 5.5098C16.4156 5.55511 16.4785 5.58018 16.5439 5.57963C17.0631 5.57527 17.4466 5.4125 17.7096 5.14295C17.9677 4.87856 18.084 4.53789 18.1259 4.22149C18.1678 3.90464 18.1381 3.59225 18.0849 3.35685C18.0584 3.23967 18.0241 3.13282 17.9848 3.04953C17.9657 3.0091 17.9405 2.96357 17.9073 2.92399C17.8851 2.89764 17.8073 2.80945 17.6771 2.80936L17.676 2.80936C17.577 2.8093 17.3131 2.80911 17.0199 2.88913ZM17.5527 3.31164C17.5671 3.35123 17.5828 3.40347 17.5972 3.46705C17.6396 3.65491 17.6631 3.90714 17.6302 4.1559C17.5972 4.40509 17.5106 4.63099 17.3518 4.79373C17.2118 4.93716 16.9944 5.05353 16.6464 5.07585C16.3664 4.74228 16.2789 4.18793 16.5605 3.76564C16.7048 3.54939 16.9258 3.43307 17.1515 3.37149C17.3033 3.33008 17.447 3.31624 17.5527 3.31164Z" fill="#333333"/>
<path fill-rule="evenodd" clip-rule="evenodd" d="M13.2969 6.84119C13.1754 6.94901 13.1284 7.05415 13.1284 7.16216C13.1284 7.28028 13.1846 7.4302 13.3242 7.6001C13.4622 7.76812 13.6685 7.93854 13.9303 8.09153C14.4542 8.39765 15.1676 8.61486 15.9054 8.61486C16.6433 8.61486 17.3567 8.39765 17.8806 8.09153C18.1424 7.93854 18.3487 7.76812 18.4867 7.6001C18.6263 7.4302 18.6825 7.28028 18.6825 7.16216C18.6825 7.05415 18.6355 6.94901 18.514 6.84119C18.3878 6.72924 18.1916 6.62535 17.9281 6.53804C17.4024 6.36385 16.6751 6.27702 15.9054 6.27702C15.1358 6.27702 14.4085 6.36385 13.8828 6.53804C13.6193 6.62535 13.4231 6.72924 13.2969 6.84119ZM13.7256 6.06341C14.3216 5.86594 15.1078 5.77702 15.9054 5.77702C16.7031 5.77702 17.4893 5.86594 18.0853 6.06341C18.3826 6.16192 18.6493 6.29284 18.8458 6.46719C19.047 6.64568 19.1825 6.87834 19.1825 7.16216C19.1825 7.43586 19.0561 7.69469 18.8731 7.91752C18.6884 8.14222 18.4319 8.34849 18.1328 8.52323C17.535 8.87254 16.7349 9.11486 15.9054 9.11486C15.076 9.11486 14.2759 8.87254 13.6781 8.52323C13.379 8.34849 13.1225 8.14222 12.9378 7.91752C12.7547 7.69469 12.6284 7.43586 12.6284 7.16216C12.6284 6.87834 12.7639 6.64568 12.9651 6.46719C13.1616 6.29284 13.4282 6.16192 13.7256 6.06341Z" fill="#333333"/>
<path fill-rule="evenodd" clip-rule="evenodd" d="M12.3596 6.03087C12.5664 5.9533 12.797 6.05811 12.8746 6.26495L13.3968 7.65766L13.481 7.71376C13.4811 7.71355 13.4812 7.71333 13.4814 7.71312C13.595 7.52369 13.8407 7.46226 14.0301 7.57592L15.922 8.71105C16.0425 8.78334 16.1162 8.91355 16.1162 9.05405V10C16.1162 10.2209 15.9372 10.4 15.7162 10.4H14.7703C14.5494 10.4 14.3703 10.2209 14.3703 10V9.26813L12.8457 8.25174C12.7759 8.20521 12.7225 8.13791 12.6931 8.05937L12.1255 6.54585C12.0479 6.339 12.1527 6.10844 12.3596 6.03087ZM15.1703 9.19296V9.6H15.3162V9.28053L15.1703 9.19296Z" fill="#333333"/>
<path fill-rule="evenodd" clip-rule="evenodd" d="M19.4513 6.03087C19.2444 5.9533 19.0139 6.05811 18.9363 6.26495L18.414 7.65766L18.3299 7.71376C18.3298 7.71355 18.3296 7.71333 18.3295 7.71312C18.2158 7.52369 17.9701 7.46226 17.7807 7.57592L15.8888 8.71105C15.7683 8.78334 15.6946 8.91355 15.6946 9.05405V10C15.6946 10.2209 15.8737 10.4 16.0946 10.4H17.0406C17.2615 10.4 17.4406 10.2209 17.4406 10V9.26813L18.9651 8.25174C19.0349 8.20521 19.0883 8.13791 19.1178 8.05937L19.6854 6.54585C19.7629 6.339 19.6581 6.10844 19.4513 6.03087ZM16.6406 9.19296V9.6H16.4946V9.28053L16.6406 9.19296Z" fill="#333333"/>
<path fill-rule="evenodd" clip-rule="evenodd" d="M14.4957 3.92174C14.3833 3.84149 14.2272 3.86751 14.1469 3.97986C14.0667 4.09222 14.0927 4.24835 14.2051 4.32861C14.3914 4.46172 14.6614 4.75392 14.8562 5.09491C15.0563 5.44515 15.1367 5.77473 15.0591 6.00749C15.0282 6.1002 15.0547 6.19822 15.1192 6.26307C15.2189 6.17061 15.3751 6.09564 15.5647 6.04973C15.6509 5.63855 15.4901 5.19652 15.2903 4.84684C15.0663 4.45478 14.7507 4.10394 14.4957 3.92174Z" fill="#333333"/>
<path fill-rule="evenodd" clip-rule="evenodd" d="M16.7273 4.2248C16.8151 4.11827 16.9727 4.1031 17.0792 4.19092C17.1857 4.27875 17.2009 4.43631 17.1131 4.54285C16.6952 5.0498 16.6183 5.50762 16.6356 5.82955C16.6389 5.89193 16.6458 5.94985 16.6548 6.00264C16.6039 6.0009 16.5523 6.00001 16.5 6.00001C16.3798 6.00001 16.2629 6.00472 16.1509 6.01362C16.1443 5.96384 16.1392 5.91134 16.1363 5.85633C16.1127 5.41676 16.225 4.83404 16.7273 4.2248Z" fill="#333333"/>
</svg>
