<svg width="24" height="24" viewBox="0 0 24 24" fill="none" xmlns="http://www.w3.org/2000/svg">
<path d="M8.5 3V6H17.5V3H8.5Z" fill="#5C6A84"/>
<path fill-rule="evenodd" clip-rule="evenodd" d="M7.75 3C7.75 2.58579 8.08579 2.25 8.5 2.25H17.5C17.9142 2.25 18.25 2.58579 18.25 3V6C18.25 6.41421 17.9142 6.75 17.5 6.75H8.5C8.08579 6.75 7.75 6.41421 7.75 6V3ZM9.25 3.75V5.25H16.75V3.75H9.25Z" fill="#333333"/>
<path d="M6.5 6V10H17.5V6H6.5Z" fill="#5C6A84"/>
<path d="M11.5 8.2V9.8C11.5 9.91046 11.5895 10 11.7 10H12.3C12.4105 10 12.5 9.91046 12.5 9.8V8.2C12.5 8.08954 12.4105 8 12.3 8H11.7C11.5895 8 11.5 8.08954 11.5 8.2Z" fill="#111115"/>
<path d="M11 9.2V10.05C11 10.1605 11.0895 10.25 11.2 10.25H12.8C12.9105 10.25 13 10.1605 13 10.05V9.2C13 9.08954 12.9105 9 12.8 9H11.2C11.0895 9 11 9.08954 11 9.2Z" fill="#7F94AF"/>
<path fill-rule="evenodd" clip-rule="evenodd" d="M5.75 6C5.75 5.58579 6.08579 5.25 6.5 5.25H17.5C17.9142 5.25 18.25 5.58579 18.25 6V10C18.25 10.4142 17.9142 10.75 17.5 10.75H6.5C6.08579 10.75 5.75 10.4142 5.75 10V6ZM7.25 6.75V9.25H16.75V6.75H7.25Z" fill="#333333"/>
<path d="M6.5 17V21H17.5V17H6.5Z" fill="#5C6A84"/>
<path fill-rule="evenodd" clip-rule="evenodd" d="M5.75 17C5.75 16.5858 6.08579 16.25 6.5 16.25H17.5C17.9142 16.25 18.25 16.5858 18.25 17V21C18.25 21.4142 17.9142 21.75 17.5 21.75H6.5C6.08579 21.75 5.75 21.4142 5.75 21V17ZM7.25 17.75V20.25H16.75V17.75H7.25Z" fill="#333333"/>
<path d="M6.5 10V17H17.5V10H6.5Z" fill="#5C6A84"/>
<path fill-rule="evenodd" clip-rule="evenodd" d="M5.75 10C5.75 9.58579 6.08579 9.25 6.5 9.25H17.5C17.9142 9.25 18.25 9.58579 18.25 10V17C18.25 17.4142 17.9142 17.75 17.5 17.75H6.5C6.08579 17.75 5.75 17.4142 5.75 17V10ZM7.25 10.75V16.25H16.75V10.75H7.25Z" fill="#333333"/>
<path d="M8.5 11.5V15.5C8.5 15.7761 8.72386 16 9 16H15C15.2761 16 15.5 15.7761 15.5 15.5V11.5C15.5 11.2239 15.2761 11 15 11H9C8.72386 11 8.5 11.2239 8.5 11.5Z" fill="#0D0D0F"/>
<path fill-rule="evenodd" clip-rule="evenodd" d="M8.9999 11.1C8.77899 11.1 8.5999 11.2791 8.5999 11.5V15.5C8.5999 15.7209 8.77899 15.9 8.9999 15.9H14.9999C15.2208 15.9 15.3999 15.7209 15.3999 15.5V11.5C15.3999 11.2791 15.2208 11.1 14.9999 11.1H8.9999ZM8.3999 11.5C8.3999 11.1686 8.66853 10.9 8.9999 10.9H14.9999C15.3313 10.9 15.5999 11.1686 15.5999 11.5V15.5C15.5999 15.8314 15.3313 16.1 14.9999 16.1H8.9999C8.66853 16.1 8.3999 15.8314 8.3999 15.5V11.5Z" fill="#8D8D8D"/>
<path d="M9.5 12.45V14.55C9.5 14.6605 9.58954 14.75 9.7 14.75H14.3C14.4105 14.75 14.5 14.6605 14.5 14.55V12.45C14.5 12.3395 14.4105 12.25 14.3 12.25H9.7C9.58954 12.25 9.5 12.3395 9.5 12.45Z" fill="#D5DAE2"/>
<path d="M10.5 12.5V14.5C10.5 14.5276 10.5224 14.55 10.55 14.55H14.25C14.2776 14.55 14.3 14.5276 14.3 14.5V12.5C14.3 12.4724 14.2776 12.45 14.25 12.45H10.55C10.5224 12.45 10.5 12.4724 10.5 12.5Z" fill="#161B1B"/>
</svg>
