<svg width="24" height="24" viewBox="0 0 24 24" fill="none" xmlns="http://www.w3.org/2000/svg">
<path d="M7 11V21H17V11H7Z" fill="#E9E9EB"/>
<path d="M12.8618 12.7236L12 11H17V13H13.309C13.1196 13 12.9465 12.893 12.8618 12.7236Z" fill="#0E151D"/>
<path fill-rule="evenodd" clip-rule="evenodd" d="M6.25 11C6.25 10.5858 6.58579 10.25 7 10.25H17C17.4142 10.25 17.75 10.5858 17.75 11V21C17.75 21.4142 17.4142 21.75 17 21.75H7C6.58579 21.75 6.25 21.4142 6.25 21V11ZM7.75 11.75V20.25H16.25V11.75H7.75Z" fill="#333333"/>
<path d="M7 5V11H17V5H7Z" fill="#B4B3B1"/>
<path fill-rule="evenodd" clip-rule="evenodd" d="M6.25 5C6.25 4.58579 6.58579 4.25 7 4.25H17C17.4142 4.25 17.75 4.58579 17.75 5V11C17.75 11.4142 17.4142 11.75 17 11.75H7C6.58579 11.75 6.25 11.4142 6.25 11V5ZM7.75 5.75V10.25H16.25V5.75H7.75Z" fill="#333333"/>
<path fill-rule="evenodd" clip-rule="evenodd" d="M11.5 11V5H12.5V11H11.5Z" fill="#333333"/>
<path fill-rule="evenodd" clip-rule="evenodd" d="M12 6.6H7V6.4H12V6.6Z" fill="#333333"/>
<path fill-rule="evenodd" clip-rule="evenodd" d="M12 7.6H7V7.4H12V7.6Z" fill="#333333"/>
<path d="M17 5H9V3.5L10 2H16L17 3.5V5Z" fill="#B4B3B1"/>
<path fill-rule="evenodd" clip-rule="evenodd" d="M9.37596 1.58397C9.51506 1.37533 9.74924 1.25 10 1.25H16C16.2508 1.25 16.4849 1.37533 16.624 1.58397L17.624 3.08397C17.7062 3.20718 17.75 3.35193 17.75 3.5V5C17.75 5.41421 17.4142 5.75 17 5.75H9C8.58579 5.75 8.25 5.41421 8.25 5V3.5C8.25 3.35193 8.29383 3.20718 8.37596 3.08397L9.37596 1.58397ZM10.4014 2.75L9.75 3.72708V4.25H16.25V3.72708L15.5986 2.75H10.4014Z" fill="#333333"/>
<path d="M13.5 6.7V7.3C13.5 7.41046 13.5895 7.5 13.7 7.5H14.3C14.4105 7.5 14.5 7.41046 14.5 7.3V6.7C14.5 6.58954 14.4105 6.5 14.3 6.5H13.7C13.5895 6.5 13.5 6.58954 13.5 6.7Z" fill="#111115"/>
<path d="M13.7 6.2V6.8C13.7 6.91046 13.7895 7 13.9 7H14.1C14.2104 7 14.3 6.91046 14.3 6.8V6.2C14.3 6.08954 14.2104 6 14.1 6H13.9C13.7895 6 13.7 6.08954 13.7 6.2Z" fill="#111115"/>
<path d="M15.3 7.75L13.7 7.75C13.5895 7.75 13.5 7.83954 13.5 7.95L13.5 8.55C13.5 8.66046 13.5895 8.75 13.7 8.75L15.3 8.75C15.4105 8.75 15.5 8.66046 15.5 8.55L15.5 7.95C15.5 7.83954 15.4105 7.75 15.3 7.75Z" fill="#111115"/>
<path d="M13 7.45V9.05C13 9.16046 13.0895 9.25 13.2 9.25H14.8C14.9105 9.25 15 9.16046 15 9.05V7.45C15 7.33954 14.9105 7.25 14.8 7.25H13.2C13.0895 7.25 13 7.33954 13 7.45Z" fill="#0D0D0F"/>
<path fill-rule="evenodd" clip-rule="evenodd" d="M13.1999 7.35C13.1447 7.35 13.0999 7.39477 13.0999 7.45V9.05C13.0999 9.10523 13.1447 9.15 13.1999 9.15H14.7999C14.8551 9.15 14.8999 9.10523 14.8999 9.05V7.45C14.8999 7.39477 14.8551 7.35 14.7999 7.35H13.1999ZM12.8999 7.45C12.8999 7.28432 13.0342 7.15 13.1999 7.15H14.7999C14.9656 7.15 15.0999 7.28432 15.0999 7.45V9.05C15.0999 9.21569 14.9656 9.35 14.7999 9.35H13.1999C13.0342 9.35 12.8999 9.21569 12.8999 9.05V7.45Z" fill="#DFDEE0"/>
<path d="M8.1001 8.2V9.8C8.1001 9.91046 8.18964 10 8.3001 10H10.9001C11.0106 10 11.1001 9.91046 11.1001 9.8V8.2C11.1001 8.08954 11.0106 8 10.9001 8H8.3001C8.18964 8 8.1001 8.08954 8.1001 8.2Z" fill="#0D0D0F"/>
<path d="M8.6001 8.22012V9.77412C8.6001 9.82935 8.64487 9.87412 8.7001 9.87412H10.9001C10.9553 9.87412 11.0001 9.82935 11.0001 9.77412V8.22012C11.0001 8.16489 10.9553 8.12012 10.9001 8.12012H8.7001C8.64487 8.12012 8.6001 8.16489 8.6001 8.22012Z" fill="#B4B3B1"/>
<path d="M9.1001 8.24995V9.74995C9.1001 9.77757 9.12248 9.79995 9.1501 9.79995H10.8501C10.8777 9.79995 10.9001 9.77757 10.9001 9.74995V8.24995C10.9001 8.22234 10.8777 8.19995 10.8501 8.19995H9.1501C9.12248 8.19995 9.1001 8.22234 9.1001 8.24995Z" fill="#A1A19F"/>
<path d="M9.6499 8.90089V9.25009C9.6499 9.30532 9.60513 9.35009 9.5499 9.35009H9.2499C9.19467 9.35009 9.1499 9.30532 9.1499 9.25009V8.90089C9.1499 8.86681 9.16726 8.83507 9.19596 8.81669L9.25384 8.7796C9.28254 8.76122 9.2999 8.72948 9.2999 8.6954V8.6501C9.2999 8.62248 9.32229 8.6001 9.3499 8.6001H9.4499C9.47752 8.6001 9.4999 8.62248 9.4999 8.6501V8.6954C9.4999 8.72948 9.51726 8.76122 9.54596 8.7796L9.60385 8.81669C9.63254 8.83507 9.6499 8.86681 9.6499 8.90089Z" fill="white"/>
<path fill-rule="evenodd" clip-rule="evenodd" d="M9.3999 9.13503L9.44072 9.07131ZM9.44072 9.07131L9.4499 9.05698ZM9.4499 9.05698L9.60385 8.81668ZM9.44072 9.07131L9.4499 9.05698Z" fill="#333333"/>
<path d="M10.25 8.90089V9.25009C10.25 9.30532 10.2052 9.35009 10.15 9.35009H9.85C9.79477 9.35009 9.75 9.30532 9.75 9.25009V8.90089C9.75 8.86681 9.76736 8.83507 9.79606 8.81669L9.85394 8.7796C9.88264 8.76122 9.9 8.72948 9.9 8.6954V8.6501C9.9 8.62248 9.92239 8.6001 9.95 8.6001H10.05C10.0776 8.6001 10.1 8.62248 10.1 8.6501V8.6954C10.1 8.72948 10.1174 8.76122 10.1461 8.7796L10.2039 8.81669C10.2326 8.83507 10.25 8.86681 10.25 8.90089Z" fill="white"/>
<path fill-rule="evenodd" clip-rule="evenodd" d="M10 9.13503L10.0408 9.07131ZM10.0408 9.07131L10.05 9.05698ZM10.05 9.05698L10.2039 8.81668ZM10.0408 9.07131L10.05 9.05698Z" fill="#333333"/>
<path d="M10.8501 8.90089V9.25009C10.8501 9.30532 10.8053 9.35009 10.7501 9.35009H10.4501C10.3949 9.35009 10.3501 9.30532 10.3501 9.25009V8.90089C10.3501 8.86681 10.3675 8.83507 10.3962 8.81669L10.454 8.7796C10.4827 8.76122 10.5001 8.72948 10.5001 8.6954V8.6501C10.5001 8.62248 10.5225 8.6001 10.5501 8.6001H10.6501C10.6777 8.6001 10.7001 8.62248 10.7001 8.6501V8.6954C10.7001 8.72948 10.7175 8.76122 10.7462 8.7796L10.804 8.81669C10.8327 8.83507 10.8501 8.86681 10.8501 8.90089Z" fill="white"/>
<path fill-rule="evenodd" clip-rule="evenodd" d="M10.6001 9.13503L10.6409 9.07131ZM10.6409 9.07131L10.6501 9.05698ZM10.6501 9.05698L10.804 8.81668ZM10.6409 9.07131L10.6501 9.05698Z" fill="#333333"/>
<path d="M9.1001 8.24995V8.64995C9.1001 8.67757 9.12248 8.69995 9.1501 8.69995H10.8501C10.8777 8.69995 10.9001 8.67757 10.9001 8.64995V8.24995C10.9001 8.22234 10.8777 8.19995 10.8501 8.19995H9.1501C9.12248 8.19995 9.1001 8.22234 9.1001 8.24995Z" fill="#0D0D0F"/>
<path d="M13.25 7.9501V8.5001C13.25 8.55533 13.2948 8.6001 13.35 8.6001H14.65C14.7052 8.6001 14.75 8.55533 14.75 8.5001V7.9501C14.75 7.89487 14.7052 7.8501 14.65 7.8501H13.35C13.2948 7.8501 13.25 7.89487 13.25 7.9501Z" fill="#D5DAE2"/>
<path d="M13.7 7.95V8.5C13.7 8.52762 13.7223 8.55 13.75 8.55H14.65C14.6776 8.55 14.7 8.52762 14.7 8.5V7.95C14.7 7.92239 14.6776 7.9 14.65 7.9H13.75C13.7223 7.9 13.7 7.92239 13.7 7.95Z" fill="#161B1B"/>
</svg>
