<svg width="24" height="24" viewBox="0 0 24 24" fill="none" xmlns="http://www.w3.org/2000/svg">
<path d="M2 3V21H10L8 16V3H2Z" fill="#DEDEDE" class='mian'/>
<path fill-rule="evenodd" clip-rule="evenodd" d="M1.25 3C1.25 2.58579 1.58579 2.25 2 2.25H8C8.41421 2.25 8.75 2.58579 8.75 3V15.8229L11.1708 20.6646C11.2871 20.8971 11.2746 21.1732 11.138 21.3943C11.0013 21.6154 10.7599 21.75 10.5 21.75H2C1.58579 21.75 1.25 21.4142 1.25 21V3ZM2.75 3.75V20.25H9.28647L7.32918 16.3354C7.27711 16.2313 7.25 16.1164 7.25 16V3.75H2.75Z" fill="#333333" class='xian'/>
<path d="M22 21V3H15V16L13.5 21H22Z" fill="#DEDEDE" class='mian'/>
<path fill-rule="evenodd" clip-rule="evenodd" d="M14.25 3C14.25 2.58579 14.5858 2.25 15 2.25H22C22.4142 2.25 22.75 2.58579 22.75 3V21C22.75 21.4142 22.4142 21.75 22 21.75H13.5C13.2629 21.75 13.0398 21.6379 12.8983 21.4477C12.7568 21.2575 12.7135 21.0116 12.7816 20.7845L14.25 15.8899V3ZM15.75 3.75V16C15.75 16.073 15.7394 16.1456 15.7184 16.2155L14.508 20.25H21.25V3.75H15.75Z" fill="#333333" class='xian'/>
<path d="M15 3H8V16L9.5 21H13.5L15 16V3Z" fill="#4487A4" class='mian'/>
<path fill-rule="evenodd" clip-rule="evenodd" d="M7.25 3C7.25 2.58579 7.58579 2.25 8 2.25H15C15.4142 2.25 15.75 2.58579 15.75 3V16C15.75 16.073 15.7393 16.1456 15.7184 16.2155L14.2184 21.2155C14.1232 21.5327 13.8312 21.75 13.5 21.75H9.5C9.16879 21.75 8.8768 21.5327 8.78163 21.2155L7.28163 16.2155C7.26066 16.1456 7.25 16.073 7.25 16V3ZM8.75 3.75V15.8899L10.058 20.25H12.942L14.25 15.8899V3.75H8.75Z" fill="#333333" class='xian'/>
<path d="M10 8V12.9451L13 13V8H10Z" fill="#DEDEDE" class='mian'/>
<path fill-rule="evenodd" clip-rule="evenodd" d="M9.5 8C9.5 7.72386 9.72386 7.5 10 7.5H13C13.2761 7.5 13.5 7.72386 13.5 8V13C13.5 13.1342 13.4461 13.2628 13.3503 13.3568C13.2545 13.4508 13.125 13.5024 12.9908 13.4999L9.99084 13.445C9.71832 13.44 9.5 13.2176 9.5 12.9451V8ZM10.5 8.5V12.4541L12.5 12.4908V8.5H10.5Z" fill="#333333" class='xian'/>
<path d="M11 7.2C11 7.08954 11.0895 7 11.2 7H11.8C11.9105 7 12 7.08954 12 7.2V8H11V7.2Z" fill="#333333" class='xian'/>
<path d="M12 10.5C12 10.7761 11.7761 11 11.5 11C11.2239 11 11 10.7761 11 10.5C11 10.2239 11.2239 10 11.5 10C11.7761 10 12 10.2239 12 10.5Z" fill="#333333" class='xian'/>
</svg>
