<svg width="24" height="24" viewBox="0 0 24 24" fill="none" xmlns="http://www.w3.org/2000/svg">
<path d="M22 22H2L2.00004 2H22L22 22Z" fill="white" class='mian'/>
<path fill-rule="evenodd" clip-rule="evenodd" d="M1.25004 2C1.25005 1.58579 1.58583 1.25 2.00004 1.25H22C22.1989 1.25 22.3897 1.32902 22.5303 1.46967C22.671 1.61032 22.75 1.80109 22.75 2L22.75 22C22.75 22.4142 22.4142 22.75 22 22.75H2C1.80109 22.75 1.61032 22.671 1.46967 22.5303C1.32902 22.3897 1.25 22.1989 1.25 22L1.25004 2ZM2.75004 2.75L2.75 21.25H21.25L21.25 2.75H2.75004Z" fill="#333333" class='xian'/>
<path fill-rule="evenodd" clip-rule="evenodd" d="M8.75001 9.5C8.75001 9.08579 9.08579 8.75 9.50001 8.75H14.5C14.6989 8.75 14.8897 8.82902 15.0303 8.96967C15.171 9.11032 15.25 9.30109 15.25 9.5L15.25 13C15.25 14.2426 14.2426 15.25 13 15.25H11C9.75736 15.25 8.75 14.2426 8.75 13L8.75001 9.5ZM10.25 10.25L10.25 13C10.25 13.4142 10.5858 13.75 11 13.75H13C13.4142 13.75 13.75 13.4142 13.75 13L13.75 10.25H10.25Z" fill="#333333" class='xian'/>
<path fill-rule="evenodd" clip-rule="evenodd" d="M13 14.5L12.7653 17.3166C12.7566 17.4203 12.67 17.5 12.566 17.5L11.434 17.5C11.33 17.5 11.2434 17.4203 11.2347 17.3166L11 14.5L13 14.5Z" fill="#333333" class='xian'/>
<path d="M11 8C11 7.72386 11.2239 7.5 11.5 7.5H12.5C12.7761 7.5 13 7.72386 13 8V9.5H11V8Z" fill="#333333" class='xian'/>
<path d="M11.5 6.7C11.5 6.58954 11.5895 6.5 11.7 6.5H12.3C12.4105 6.5 12.5 6.58954 12.5 6.7V9.5H11.5V6.7Z" fill="#333333" class='xian'/>
<path d="M8.56812 4.831C8.71862 4.9885 8.75362 5.1635 8.75362 5.2965C8.75362 5.496 8.67662 5.6815 8.53662 5.8215C8.53662 5.8215 8.53662 5.82151 8.53662 5.82501C8.52962 5.82851 8.52262 5.8355 8.51912 5.839C8.50162 5.853 8.48412 5.86701 8.46662 5.88101C8.42462 5.91601 8.37212 5.9475 8.30912 5.9755C8.29862 5.9825 8.28462 5.98601 8.27062 5.99301C8.23912 6.00351 8.20412 6.01751 8.16562 6.02801C8.13762 6.03501 8.11312 6.03851 8.08512 6.04551C8.06062 6.04901 8.03612 6.05251 8.00812 6.05601C7.99062 6.05951 7.96962 6.0595 7.94862 6.0595C7.92412 6.063 7.89612 6.063 7.87162 6.063C7.86812 6.063 7.86462 6.063 7.86462 6.063C7.85062 6.063 7.84012 6.063 7.82612 6.063C7.81562 6.063 7.80162 6.063 7.78762 6.063C7.66162 6.056 7.54612 6.03151 7.44112 6.00001C7.43762 6.00001 7.43412 6.00001 7.43062 5.99651V6.00001C7.42712 5.99651 7.42712 5.99651 7.42362 5.99651C7.24862 5.94401 7.10162 5.85651 6.98612 5.77951C6.82162 5.67451 6.79712 5.4365 6.95112 5.2965C7.05262 5.202 7.20662 5.195 7.31862 5.2685L7.32212 5.272C7.33262 5.279 7.34312 5.286 7.35362 5.293C7.37812 5.307 7.40612 5.321 7.43062 5.3385C7.45162 5.349 7.47262 5.3595 7.49712 5.37C7.51812 5.3805 7.53562 5.3875 7.56012 5.398C7.58462 5.405 7.60912 5.4155 7.63712 5.4225C7.68612 5.4365 7.73512 5.447 7.79112 5.4505C7.80862 5.4505 7.82612 5.454 7.84362 5.454C7.85062 5.454 7.86112 5.454 7.86812 5.454C7.94162 5.454 8.00462 5.4435 8.05362 5.4225C8.07462 5.412 8.09562 5.4015 8.10962 5.3875C8.10962 5.384 8.11312 5.3805 8.11312 5.3805C8.13062 5.3595 8.13762 5.335 8.13762 5.3105C8.13762 5.279 8.12362 5.251 8.09912 5.23C8.09912 5.23 8.09562 5.2265 8.09212 5.2265C8.08162 5.216 8.06762 5.209 8.05012 5.1985C8.04312 5.195 8.03612 5.1915 8.02912 5.188C7.98362 5.167 7.92762 5.1495 7.86462 5.132C7.84362 5.125 7.82262 5.1215 7.80162 5.1145C7.78062 5.1075 7.75612 5.104 7.73162 5.097C7.72812 5.097 7.72112 5.097 7.71762 5.097L7.71412 5.0935C7.70012 5.0935 7.68612 5.09 7.67212 5.0865C7.66162 5.083 7.65462 5.0795 7.64412 5.0795C7.47962 5.0375 7.35012 4.985 7.24512 4.9185C7.02812 4.7785 6.91262 4.572 6.91962 4.334C6.92662 4.04 7.04912 3.8685 7.15062 3.774C7.31862 3.6235 7.56712 3.557 7.88212 3.578C8.01512 3.5885 8.15512 3.6235 8.31262 3.69C8.31962 3.6935 8.33012 3.697 8.34062 3.7005C8.35812 3.711 8.37912 3.718 8.40012 3.7285C8.42812 3.7425 8.45612 3.7565 8.48762 3.774C8.51562 3.788 8.53662 3.8055 8.55762 3.823C8.58912 3.851 8.61012 3.886 8.62762 3.921C8.63812 3.949 8.64512 3.977 8.64862 4.005C8.65212 4.019 8.65212 4.0365 8.65212 4.054C8.65212 4.075 8.64862 4.0995 8.64162 4.1205C8.63812 4.1415 8.63112 4.1625 8.61712 4.1835C8.60662 4.208 8.59262 4.2255 8.57862 4.243C8.51212 4.32 8.41762 4.355 8.31962 4.348C8.29162 4.3445 8.26362 4.3375 8.23562 4.327C8.22512 4.3235 8.21812 4.32 8.20762 4.3165C8.01862 4.2185 7.90312 4.1905 7.84012 4.187C7.75962 4.18 7.70012 4.1835 7.65462 4.194C7.62312 4.1975 7.60212 4.2045 7.58462 4.215C7.57412 4.2185 7.56712 4.222 7.56012 4.229C7.50062 4.278 7.52162 4.369 7.57412 4.404C7.59162 4.418 7.61962 4.4285 7.64762 4.439C7.66512 4.4495 7.68612 4.4565 7.71062 4.4635C7.74562 4.474 7.78762 4.4845 7.83312 4.495C7.83662 4.4985 7.84012 4.4985 7.84362 4.4985C7.85762 4.502 7.86812 4.502 7.87862 4.5055C7.99762 4.5335 8.09912 4.5615 8.19012 4.5965C8.20762 4.6035 8.22862 4.6105 8.24612 4.6175C8.31612 4.649 8.37912 4.6805 8.43512 4.719C8.47012 4.7435 8.50162 4.768 8.52962 4.796C8.54362 4.8065 8.55762 4.8205 8.56812 4.831ZM8.36162 5.3245C8.36162 5.321 8.36162 5.321 8.36162 5.321C8.36162 5.321 8.36162 5.321 8.36162 5.3245ZM8.44912 5.66051C8.44912 5.66401 8.45262 5.6675 8.45262 5.6745C8.45262 5.6675 8.44912 5.66401 8.44912 5.66051Z" fill="#333333" class='xian'/>
<path d="M6.53388 3.8335C6.54088 3.8615 6.54788 3.893 6.54788 3.928V5.6955C6.54788 5.8635 6.41138 6 6.24338 6C6.07538 6 5.93538 5.8635 5.93538 5.6955V4.831L5.87938 4.908C5.87938 4.908 5.87938 4.908 5.87938 4.9115C5.87588 4.922 5.86538 4.9325 5.85488 4.9395L5.85138 4.943L5.59938 5.272C5.57838 5.3035 5.54688 5.3315 5.51538 5.3525C5.42438 5.405 5.31238 5.412 5.21438 5.363C5.13038 5.321 5.13738 5.314 4.80138 4.8555V5.6955C4.80138 5.8635 4.66488 6 4.49688 6C4.32888 6 4.19238 5.8635 4.19238 5.6955V3.9245C4.19238 3.6935 4.43738 3.55 4.63688 3.655C4.64038 3.655 4.64388 3.6585 4.64388 3.6585C4.70688 3.6935 4.69988 3.683 4.97988 4.068C5.02538 4.1275 5.07438 4.194 5.13038 4.2745C5.19688 4.362 5.27038 4.4635 5.35788 4.5825C5.53638 4.348 5.66938 4.173 5.76388 4.047C6.04388 3.6795 6.03688 3.6935 6.08588 3.662C6.15938 3.62 6.23988 3.6095 6.31338 3.627C6.31688 3.6305 6.32388 3.6305 6.33088 3.634C6.33438 3.634 6.34138 3.6375 6.34838 3.6375C6.42538 3.669 6.49188 3.7285 6.52338 3.809C6.52688 3.816 6.53038 3.823 6.53388 3.8335Z" fill="#333333" class='xian'/>
</svg>
