<svg width="24" height="24" viewBox="0 0 24 24" fill="none" xmlns="http://www.w3.org/2000/svg">
<path fill-rule="evenodd" clip-rule="evenodd" d="M1.75 1C1.75 0.861929 1.86193 0.75 2 0.75H17C17.1381 0.75 17.25 0.861929 17.25 1V5.68622C17.25 5.8243 17.1381 5.93622 17 5.93622C16.8619 5.93622 16.75 5.8243 16.75 5.68622V1.25H2.25V22.75H13.7594L13.75 20.0009C13.7498 19.9344 13.776 19.8706 13.8229 19.8235C13.8698 19.7765 13.9335 19.75 14 19.75H19.75V17.25H17C16.8619 17.25 16.75 17.1381 16.75 17V10C16.75 9.86193 16.8619 9.75 17 9.75C17.1381 9.75 17.25 9.86193 17.25 10V16.75H20C20.1381 16.75 20.25 16.8619 20.25 17V20C20.25 20.1381 20.1381 20.25 20 20.25H14.2509L14.2602 22.9991C14.2604 23.0656 14.2342 23.1294 14.1873 23.1765C14.1404 23.2235 14.0767 23.25 14.0102 23.25H2C1.86193 23.25 1.75 23.1381 1.75 23V1Z" fill="#333333" class='xian'/>
<path fill-rule="evenodd" clip-rule="evenodd" d="M16.75 7C16.75 6.86193 16.8619 6.75 17 6.75H22C22.1381 6.75 22.25 6.86193 22.25 7V9C22.25 9.13807 22.1381 9.25 22 9.25H17C16.8619 9.25 16.75 9.13807 16.75 9V7ZM17.25 7.25V8.75H21.75V7.25H17.25Z" fill="#333333" class='xian'/>
<path fill-rule="evenodd" clip-rule="evenodd" d="M10.5051 19.4082C10.5051 19.2701 10.6171 19.1582 10.7551 19.1582H11.8776C12.0156 19.1582 12.1276 19.2701 12.1276 19.4082V20.9796C12.1276 21.1177 12.0156 21.2296 11.8776 21.2296H10.7551C10.6171 21.2296 10.5051 21.1177 10.5051 20.9796V19.4082ZM11.0051 19.6582V20.7296H11.6276V19.6582H11.0051Z" fill="#333333" class='xian'/>
<path d="M14.3469 17.3878H12.3265V18.0612H14.3469V17.3878Z" fill="#666666" class='mian'/>
<path fill-rule="evenodd" clip-rule="evenodd" d="M12.0765 17.3878C12.0765 17.2497 12.1885 17.1378 12.3265 17.1378H14.3469C14.485 17.1378 14.5969 17.2497 14.5969 17.3878V18.0612C14.5969 18.1993 14.485 18.3112 14.3469 18.3112H12.3265C12.1885 18.3112 12.0765 18.1993 12.0765 18.0612V17.3878ZM12.5765 17.6378V17.8112H14.0969V17.6378H12.5765Z" fill="#333333" class='xian'/>
<path fill-rule="evenodd" clip-rule="evenodd" d="M3.32141 2.7959C3.32141 2.65783 3.43334 2.5459 3.57141 2.5459H14.9081C15.0462 2.5459 15.1581 2.65783 15.1581 2.7959C15.1581 2.93397 15.0462 3.0459 14.9081 3.0459H3.57141C3.43334 3.0459 3.32141 2.93397 3.32141 2.7959Z" fill="#333333" class='xian'/>
<path fill-rule="evenodd" clip-rule="evenodd" d="M3.32141 4.14288C3.32141 4.00481 3.43334 3.89288 3.57141 3.89288H5.36733C5.5054 3.89288 5.61733 4.00481 5.61733 4.14288C5.61733 4.28095 5.5054 4.39288 5.36733 4.39288H3.57141C3.43334 4.39288 3.32141 4.28095 3.32141 4.14288Z" fill="#333333" class='xian'/>
<path fill-rule="evenodd" clip-rule="evenodd" d="M12.75 4.14288C12.75 4.00481 12.8619 3.89288 13 3.89288H14.7959C14.934 3.89288 15.0459 4.00481 15.0459 4.14288C15.0459 4.28095 14.934 4.39288 14.7959 4.39288H13C12.8619 4.39288 12.75 4.28095 12.75 4.14288Z" fill="#333333" class='xian'/>
<path fill-rule="evenodd" clip-rule="evenodd" d="M3.32141 8.18369C3.32141 8.04561 3.43334 7.93369 3.57141 7.93369H5.36733C5.5054 7.93369 5.61733 8.04561 5.61733 8.18369C5.61733 8.32176 5.5054 8.43369 5.36733 8.43369H3.57141C3.43334 8.43369 3.32141 8.32176 3.32141 8.18369Z" fill="#333333" class='xian'/>
<path fill-rule="evenodd" clip-rule="evenodd" d="M12.75 8.18369C12.75 8.04561 12.8619 7.93369 13 7.93369H14.7959C14.934 7.93369 15.0459 8.04561 15.0459 8.18369C15.0459 8.32176 14.934 8.43369 14.7959 8.43369H13C12.8619 8.43369 12.75 8.32176 12.75 8.18369Z" fill="#333333" class='xian'/>
<path fill-rule="evenodd" clip-rule="evenodd" d="M3.32141 5.48981C3.32141 5.35174 3.43334 5.23981 3.57141 5.23981H5.36733C5.5054 5.23981 5.61733 5.35174 5.61733 5.48981C5.61733 5.62788 5.5054 5.73981 5.36733 5.73981H3.57141C3.43334 5.73981 3.32141 5.62788 3.32141 5.48981Z" fill="#333333" class='xian'/>
<path fill-rule="evenodd" clip-rule="evenodd" d="M12.75 5.48981C12.75 5.35174 12.8619 5.23981 13 5.23981H14.7959C14.934 5.23981 15.0459 5.35174 15.0459 5.48981C15.0459 5.62788 14.934 5.73981 14.7959 5.73981H13C12.8619 5.73981 12.75 5.62788 12.75 5.48981Z" fill="#333333" class='xian'/>
<path fill-rule="evenodd" clip-rule="evenodd" d="M3.32141 6.83673C3.32141 6.69866 3.43334 6.58673 3.57141 6.58673H5.36733C5.5054 6.58673 5.61733 6.69866 5.61733 6.83673C5.61733 6.9748 5.5054 7.08673 5.36733 7.08673H3.57141C3.43334 7.08673 3.32141 6.9748 3.32141 6.83673Z" fill="#333333" class='xian'/>
<path fill-rule="evenodd" clip-rule="evenodd" d="M12.75 6.83673C12.75 6.69866 12.8619 6.58673 13 6.58673H14.7959C14.934 6.58673 15.0459 6.69866 15.0459 6.83673C15.0459 6.9748 14.934 7.08673 14.7959 7.08673H13C12.8619 7.08673 12.75 6.9748 12.75 6.83673Z" fill="#333333" class='xian'/>
<path fill-rule="evenodd" clip-rule="evenodd" d="M3.17142 21.5C3.17142 21.2791 3.3505 21.1 3.57142 21.1H9.85713C10.078 21.1 10.2571 21.2791 10.2571 21.5C10.2571 21.7209 10.078 21.9 9.85713 21.9H3.57142C3.3505 21.9 3.17142 21.7209 3.17142 21.5Z" fill="#333333" class='xian'/>
<path fill-rule="evenodd" clip-rule="evenodd" d="M3.07141 18.5102C3.07141 18.2341 3.29527 18.0102 3.57141 18.0102H4.91835C5.19449 18.0102 5.41835 18.2341 5.41835 18.5102C5.41835 18.7863 5.19449 19.0102 4.91835 19.0102H3.57141C3.29527 19.0102 3.07141 18.7863 3.07141 18.5102Z" fill="#333333" class='xian'/>
<path fill-rule="evenodd" clip-rule="evenodd" d="M7.1123 18.5102C7.1123 18.2341 7.33616 18.0102 7.6123 18.0102H8.95924C9.23539 18.0102 9.45924 18.2341 9.45924 18.5102C9.45924 18.7863 9.23539 19.0102 8.95924 19.0102H7.6123C7.33616 19.0102 7.1123 18.7863 7.1123 18.5102Z" fill="#333333" class='xian'/>
<path fill-rule="evenodd" clip-rule="evenodd" d="M3.07141 17.1633C3.07141 16.8871 3.29527 16.6633 3.57141 16.6633H4.91835C5.19449 16.6633 5.41835 16.8871 5.41835 17.1633C5.41835 17.4394 5.19449 17.6633 4.91835 17.6633H3.57141C3.29527 17.6633 3.07141 17.4394 3.07141 17.1633Z" fill="#333333" class='xian'/>
<path fill-rule="evenodd" clip-rule="evenodd" d="M7.1123 17.1633C7.1123 16.8871 7.33616 16.6633 7.6123 16.6633H8.95924C9.23539 16.6633 9.45924 16.8871 9.45924 17.1633C9.45924 17.4394 9.23539 17.6633 8.95924 17.6633H7.6123C7.33616 17.6633 7.1123 17.4394 7.1123 17.1633Z" fill="#333333" class='xian'/>
<path fill-rule="evenodd" clip-rule="evenodd" d="M1.77969 20.3061C1.77969 20.0852 1.95878 19.9061 2.17969 19.9061H10.543C10.7639 19.9061 10.943 20.0852 10.943 20.3061C10.943 20.527 10.7639 20.7061 10.543 20.7061H2.17969C1.95878 20.7061 1.77969 20.527 1.77969 20.3061Z" fill="#333333" class='xian'/>
<path fill-rule="evenodd" clip-rule="evenodd" d="M7.44351 8.41975C6.80767 11.1852 6.36837 15.1669 6.24991 20.0061L5.75006 19.9939C5.86897 15.1364 6.31005 11.1181 6.95622 8.30772C7.27884 6.90458 7.65574 5.78815 8.07753 5.01649C8.48799 4.26558 8.99248 3.75 9.60464 3.75C9.88564 3.75 10.1348 3.88864 10.3479 4.09611C10.5605 4.30306 10.7559 4.59561 10.9372 4.95054C11.3003 5.66137 11.6326 6.67425 11.9292 7.90443C12.5234 10.3688 12.9865 13.7588 13.2494 17.4824L12.7506 17.5176C12.4888 13.8093 12.0284 10.4492 11.4431 8.02162C11.15 6.80579 10.8286 5.83716 10.4919 5.17798C10.3233 4.84791 10.1573 4.60832 9.99917 4.45439C9.84158 4.30099 9.71072 4.25 9.60464 4.25C9.29485 4.25 8.91746 4.52233 8.51627 5.25631C8.12641 5.96954 7.7619 7.03498 7.44351 8.41975Z" fill="#333333" class='xian'/>
</svg>
