<svg width="24" height="24" viewBox="0 0 24 24" fill="none" xmlns="http://www.w3.org/2000/svg">
<path fill-rule="evenodd" clip-rule="evenodd" d="M1.25 2C1.25 1.58579 1.58579 1.25 2 1.25H4C4.41421 1.25 4.75 1.58579 4.75 2C4.75 2.41421 4.41421 2.75 4 2.75H2.75V4C2.75 4.41421 2.41421 4.75 2 4.75C1.58579 4.75 1.25 4.41421 1.25 4V2Z" fill="#666666" class='xian'/>
<path fill-rule="evenodd" clip-rule="evenodd" d="M22.75 22C22.75 22.4142 22.4142 22.75 22 22.75H20C19.5858 22.75 19.25 22.4142 19.25 22C19.25 21.5858 19.5858 21.25 20 21.25H21.25V20C21.25 19.5858 21.5858 19.25 22 19.25C22.4142 19.25 22.75 19.5858 22.75 20V22Z" fill="#666666" class='xian'/>
<path fill-rule="evenodd" clip-rule="evenodd" d="M22.75 2C22.75 1.58579 22.4142 1.25 22 1.25H20C19.5858 1.25 19.25 1.58579 19.25 2C19.25 2.41421 19.5858 2.75 20 2.75H21.25V4C21.25 4.41421 21.5858 4.75 22 4.75C22.4142 4.75 22.75 4.41421 22.75 4V2Z" fill="#666666" class='xian'/>
<path fill-rule="evenodd" clip-rule="evenodd" d="M1.25 22C1.25 22.4142 1.58579 22.75 2 22.75H4C4.41421 22.75 4.75 22.4142 4.75 22C4.75 21.5858 4.41421 21.25 4 21.25H2.75V20C2.75 19.5858 2.41421 19.25 2 19.25C1.58579 19.25 1.25 19.5858 1.25 20V22Z" fill="#666666" class='xian'/>
<path fill-rule="evenodd" clip-rule="evenodd" d="M3.25 12C3.25 11.5858 3.58579 11.25 4 11.25H21C21.4142 11.25 21.75 11.5858 21.75 12C21.75 12.4142 21.4142 12.75 21 12.75H4C3.58579 12.75 3.25 12.4142 3.25 12Z" fill="#666666" class='xian'/>
<path d="M19.5196 6.75C19.5196 6.75 20.1889 7.1726 20.4215 7.86977C20.6409 8.5274 20.1235 9.29474 19.4319 9.24698L-nan -nanL-nan -nanL19.4319 9.24698C18.8559 9.2072 18.4182 8.61916 18.521 8.05105C18.6667 7.24653 19.5196 6.75 19.5196 6.75Z" fill="#CA3A26" class='mian'/>
<path fill-rule="evenodd" clip-rule="evenodd" d="M19.6531 6.53861L19.5196 6.75L19.3938 6.53395C19.4743 6.48706 19.5743 6.48886 19.6531 6.53861ZM19.5137 7.05491C19.441 7.10816 19.3467 7.18345 19.2491 7.2782C19.035 7.48602 18.8266 7.76663 18.767 8.09559C18.6894 8.52407 19.0287 8.96854 19.4491 8.99757C19.6918 9.01433 19.9159 8.88959 20.0638 8.67916C20.2125 8.46757 20.2658 8.19319 20.1843 7.94888C20.0853 7.65188 19.8893 7.40459 19.7082 7.22686C19.6362 7.1562 19.5686 7.09845 19.5137 7.05491ZM19.3937 6.53403C19.3937 6.53399 19.3938 6.53395 19.5196 6.75C19.6531 6.53861 19.6531 6.53865 19.6532 6.53869L19.6533 6.53878L19.6537 6.53899L19.6545 6.53954L19.657 6.5411L19.6646 6.54612C19.671 6.55029 19.6797 6.55614 19.6906 6.56362C19.7123 6.57858 19.7426 6.60012 19.7792 6.62797C19.8522 6.68355 19.9514 6.76496 20.0585 6.87004C20.2702 7.07789 20.5252 7.39049 20.6586 7.79065C20.7965 8.20398 20.7009 8.64209 20.4729 8.96663C20.244 9.29233 19.8636 9.52739 19.4147 9.49638C18.6832 9.44586 18.1469 8.71425 18.275 8.00651C18.3611 7.53096 18.652 7.16104 18.9008 6.91946C19.0272 6.79672 19.1483 6.70173 19.2381 6.63717C19.2832 6.60478 19.3207 6.57978 19.3476 6.5625C19.3611 6.55386 19.3719 6.54713 19.3798 6.54236L19.3892 6.53667L19.3921 6.53494L19.3931 6.53435L19.3935 6.53412L19.3937 6.53403Z" fill="#333333" class='xian'/>
<path fill-rule="evenodd" clip-rule="evenodd" d="M18.9999 8.4375C18.9999 8.29943 19.1118 8.1875 19.2499 8.1875H19.7499C19.8879 8.1875 19.9999 8.29943 19.9999 8.4375C19.9999 8.57557 19.8879 8.6875 19.7499 8.6875H19.2499C19.1118 8.6875 18.9999 8.57557 18.9999 8.4375Z" fill="#333333" class='xian'/>
<path fill-rule="evenodd" clip-rule="evenodd" d="M19.4999 7.9375C19.638 7.9375 19.7499 8.04943 19.7499 8.1875L19.7499 8.6875C19.7499 8.82557 19.638 8.9375 19.4999 8.9375C19.3619 8.9375 19.2499 8.82557 19.2499 8.6875L19.2499 8.1875C19.2499 8.04943 19.3619 7.9375 19.4999 7.9375Z" fill="#333333" class='xian'/>
<path d="M17.5833 5.75H19.2083C19.6916 5.75 20.0833 5.35825 20.0833 4.875C20.0833 4.39175 19.6916 4 19.2083 4H15C13.8954 4 13 4.89543 13 6V7.08333C13 8.1879 13.8954 9.08333 15 9.08333H16.3333C17 9.08333 16.8889 8.25 16.75 7.83333C17.4167 7.83333 17.3056 7.27778 17.1667 7C17.8333 7 17.7222 6.16667 17.5833 5.75Z" fill="#E9B9B1" class='mian'/>
<path fill-rule="evenodd" clip-rule="evenodd" d="M15 4.40001C14.1163 4.40001 13.4 5.11635 13.4 6.00001V7.08334C13.4 7.967 14.1163 8.68334 15 8.68334H16.3333C16.3749 8.68334 16.3957 8.67689 16.4029 8.67407C16.4085 8.67188 16.4098 8.67053 16.4104 8.6699C16.4104 8.66985 16.4105 8.6698 16.4105 8.66976C16.4139 8.66618 16.4359 8.63894 16.448 8.55654C16.4733 8.38395 16.4305 8.13993 16.3705 7.95983C16.3298 7.83785 16.3503 7.70376 16.4255 7.59946C16.5007 7.49515 16.6214 7.43334 16.75 7.43334C16.8148 7.43334 16.8524 7.42561 16.8716 7.41972C16.8728 7.40183 16.8716 7.37245 16.8628 7.33121C16.8512 7.27709 16.8305 7.22212 16.8089 7.17889C16.7469 7.0549 16.7535 6.90764 16.8264 6.78971C16.8993 6.67179 17.028 6.60001 17.1666 6.60001C17.2083 6.60001 17.229 6.59356 17.2363 6.59074C17.2419 6.58855 17.2431 6.5872 17.2437 6.58656C17.2437 6.58651 17.2438 6.58647 17.2438 6.58643C17.2473 6.58285 17.2692 6.55561 17.2813 6.47321C17.3066 6.30062 17.2639 6.05659 17.2038 5.8765C17.1632 5.75452 17.1836 5.62043 17.2588 5.51612C17.334 5.41181 17.4547 5.35001 17.5833 5.35001H19.2083C19.4706 5.35001 19.6833 5.13734 19.6833 4.87501C19.6833 4.61267 19.4706 4.40001 19.2083 4.40001H15ZM12.6 6.00001C12.6 4.67452 13.6745 3.60001 15 3.60001H19.2083C19.9125 3.60001 20.4833 4.17084 20.4833 4.87501C20.4833 5.57917 19.9125 6.15001 19.2083 6.15001H18.0771C18.0922 6.29359 18.0941 6.44428 18.0728 6.5893C18.0467 6.76732 17.9801 6.97445 17.8212 7.14015C17.7731 7.1903 17.7201 7.23298 17.663 7.26838C17.6768 7.37669 17.6763 7.49201 17.6511 7.60678C17.6138 7.7761 17.5205 7.94805 17.3442 8.07063C17.3082 8.09562 17.2706 8.11734 17.2315 8.13605C17.2568 8.30766 17.2656 8.49443 17.2395 8.67264C17.2134 8.85065 17.1468 9.05779 16.9879 9.22348C16.8192 9.39936 16.5902 9.48334 16.3333 9.48334H15C13.6745 9.48334 12.6 8.40882 12.6 7.08334V6.00001Z" fill="#333333" class='xian'/>
<path d="M16.4054 15.4211V14H17.8649V15.4211L18.5135 15.7368L19.5 16.5V18.5L18.5 20L16.5 20.5L15.5 19.8421L14.6892 18.8947L14.2027 19.3684L14.4595 21H13.3243L13 18.4211L13.5 18H14.4595H15.9189L17 17L16.4054 15.4211Z" fill="#CA7A61" class='mian'/>
<path fill-rule="evenodd" clip-rule="evenodd" d="M16.2959 15.496C16.4911 15.3926 16.7332 15.4671 16.8366 15.6623C16.8731 15.7312 16.9115 15.7995 16.9524 15.8717L16.9562 15.8784C16.995 15.9471 17.0362 16.0201 17.075 16.0932C17.1541 16.2425 17.2356 16.415 17.2805 16.6028C17.3269 16.7972 17.3348 17.0107 17.2657 17.2354C17.1975 17.4569 17.0633 17.6606 16.8714 17.8527C16.8634 17.8606 16.8552 17.8682 16.8466 17.8755C16.2614 18.37 15.6582 18.4064 15.1527 18.3272C14.9408 18.2939 14.7383 18.239 14.5722 18.194C14.5492 18.1878 14.527 18.1818 14.5055 18.176C14.3107 18.1238 14.191 18.0978 14.1049 18.0978C13.9718 18.0978 13.8066 18.1719 13.6592 18.3823C13.5119 18.5926 13.4 18.9212 13.4 19.3482C13.4 19.959 13.5124 20.4392 13.714 20.8083C13.8198 21.0022 13.7485 21.2452 13.5546 21.3511C13.3607 21.4569 13.1177 21.3856 13.0118 21.1917C12.7295 20.6746 12.6 20.0535 12.6 19.3482C12.6 18.7879 12.7461 18.2914 13.004 17.9233C13.2618 17.5554 13.649 17.2978 14.1049 17.2978C14.3133 17.2978 14.5336 17.3553 14.7127 17.4033C14.7365 17.4097 14.76 17.416 14.7833 17.4223C14.9528 17.4681 15.111 17.5108 15.2767 17.5368C15.6263 17.5917 15.9663 17.5655 16.3173 17.2753C16.4332 17.1565 16.481 17.0652 16.501 17.0001C16.5208 16.936 16.5219 16.8706 16.5023 16.7886C16.4812 16.7 16.4373 16.5983 16.3682 16.4681C16.3346 16.4046 16.2979 16.3396 16.2573 16.2678L16.2559 16.2653C16.2157 16.1942 16.1719 16.1167 16.1295 16.0366C16.0262 15.8414 16.1007 15.5993 16.2959 15.496Z" fill="#333333" class='xian'/>
<path fill-rule="evenodd" clip-rule="evenodd" d="M16.5826 13.6381C16.7966 13.6931 16.9255 13.9112 16.8705 14.1251C16.6656 14.9222 16.6995 15.4033 16.8366 15.6623C16.9399 15.8575 16.8655 16.0996 16.6702 16.203C16.475 16.3063 16.2329 16.2319 16.1296 16.0366C15.8459 15.501 15.8798 14.7661 16.0957 13.926C16.1506 13.712 16.3687 13.5832 16.5826 13.6381Z" fill="#333333" class='xian'/>
<path fill-rule="evenodd" clip-rule="evenodd" d="M17.8791 13.6139C18.0924 13.6716 18.2185 13.8912 18.1608 14.1044C18.0358 14.5664 18.0004 14.9337 18.0262 15.1881C18.039 15.3145 18.0654 15.3977 18.0909 15.4474C18.1146 15.4934 18.1325 15.5022 18.1343 15.5031L18.1344 15.5032C18.2248 15.5484 18.3279 15.5581 18.5149 15.5576C18.5293 15.5576 18.5445 15.5575 18.5607 15.5573C18.7229 15.5558 18.9703 15.5535 19.2053 15.6475C19.4104 15.7296 19.5102 15.9624 19.4281 16.1675C19.3461 16.3726 19.1133 16.4723 18.9082 16.3903C18.8257 16.3573 18.732 16.3571 18.517 16.3576C18.3304 16.3581 18.0533 16.3571 17.7766 16.2187C17.4086 16.0347 17.2676 15.6379 17.2303 15.2687C17.1912 14.883 17.2489 14.4117 17.3885 13.8956C17.4462 13.6823 17.6659 13.5562 17.8791 13.6139Z" fill="#333333" class='xian'/>
<path fill-rule="evenodd" clip-rule="evenodd" d="M18.6853 15.8704C18.7674 15.6652 19.0002 15.5655 19.2053 15.6475C19.8793 15.9171 20.1396 16.6307 20.1923 17.2843C20.2467 17.9595 20.1005 18.7248 19.8061 19.3378C19.1879 20.625 17.791 21.1998 16.4349 21.0298C15.6355 20.9296 15.2736 20.4259 15.0386 20.0188C14.9974 19.9474 14.9627 19.8845 14.9313 19.8277C14.8666 19.7105 14.8163 19.6193 14.7532 19.5334C14.6729 19.4241 14.6142 19.3876 14.5556 19.3733C14.341 19.3208 14.2096 19.1043 14.2621 18.8897C14.3146 18.6751 14.5311 18.5437 14.7457 18.5962C15.0547 18.6718 15.2564 18.8672 15.3979 19.0598C15.4933 19.1897 15.583 19.3519 15.6588 19.489C15.6847 19.536 15.7091 19.5801 15.7315 19.6189C15.9241 19.9526 16.1115 20.183 16.5344 20.236C17.6226 20.3724 18.6454 19.9067 19.085 18.9915C19.3195 18.5032 19.4377 17.8792 19.3949 17.3486C19.3504 16.7964 19.1518 16.4878 18.9082 16.3903C18.703 16.3083 18.6033 16.0755 18.6853 15.8704Z" fill="#333333" class='xian'/>
<path fill-rule="evenodd" clip-rule="evenodd" d="M14.1378 19.2105C14.3575 19.2335 14.5169 19.4303 14.4939 19.65C14.4622 19.9519 14.5485 20.3316 14.8138 20.8042C14.922 20.9968 14.8535 21.2406 14.6609 21.3488C14.4682 21.4569 14.2244 21.3884 14.1162 21.1958C13.803 20.6379 13.6433 20.0897 13.6982 19.5665C13.7213 19.3468 13.9181 19.1874 14.1378 19.2105Z" fill="#333333" class='xian'/>
<path fill-rule="evenodd" clip-rule="evenodd" d="M14.6432 18.5848C14.6458 18.5848 14.6483 18.5848 14.6506 18.5848C14.8715 18.5848 15.0506 18.7639 15.0506 18.9848C15.0506 19.2057 14.8715 19.3848 14.6506 19.3848C14.5881 19.3848 14.5725 19.3896 14.5699 19.3908C14.5591 19.4016 14.5138 19.4598 14.4938 19.65C14.4708 19.8697 14.274 20.0291 14.0543 20.0061C13.8346 19.983 13.6752 19.7863 13.6982 19.5665C13.7377 19.1899 13.8699 18.9063 14.1075 18.738C14.3248 18.5842 14.5576 18.5846 14.6432 18.5848Z" fill="#333333" class='xian'/>
<path fill-rule="evenodd" clip-rule="evenodd" d="M18.7571 17.9243C18.9647 17.9998 19.0718 18.2294 18.9962 18.437C18.8692 18.7859 18.4083 19.7482 17.2214 19.7482C17.0004 19.7482 16.8214 19.5691 16.8214 19.3482C16.8214 19.1272 17.0004 18.9482 17.2214 18.9482C17.8698 18.9482 18.143 18.4421 18.2444 18.1634C18.32 17.9558 18.5495 17.8487 18.7571 17.9243Z" fill="#333333" class='xian'/>
<path d="M9.28931 20.1369H10.6703V20.6547L9.46193 20.8274L9.28931 20.1369Z" fill="#999999" class='mian'/>
<path fill-rule="evenodd" clip-rule="evenodd" d="M8.88928 19.2737C8.88928 19.0528 9.06837 18.8737 9.28928 18.8737H10.6703C10.8912 18.8737 11.0703 19.0528 11.0703 19.2737V20.3095C11.0703 20.9118 10.5821 21.4 9.97979 21.4C9.37752 21.4 8.88928 20.9118 8.88928 20.3095V19.2737ZM9.68928 19.6737V20.3095C9.68928 20.4699 9.81935 20.6 9.97979 20.6C10.1402 20.6 10.2703 20.4699 10.2703 20.3095V19.6737H9.68928Z" fill="#333333" class='xian'/>
<path fill-rule="evenodd" clip-rule="evenodd" d="M8.71928 17.6799C8.78914 17.8895 8.67587 18.116 8.4663 18.1858L7.94841 18.3585C7.73884 18.4283 7.51231 18.3151 7.44245 18.1055C7.37259 17.8959 7.48585 17.6694 7.69543 17.5995L8.21331 17.4269C8.42289 17.357 8.64942 17.4703 8.71928 17.6799Z" fill="#333333" class='xian'/>
<path fill-rule="evenodd" clip-rule="evenodd" d="M7.46509 18.5832C7.46509 18.3623 7.64417 18.1832 7.86509 18.1832H8.46928C8.6902 18.1832 8.86928 18.3623 8.86928 18.5832C8.86928 18.8041 8.6902 18.9832 8.46928 18.9832H7.86509C7.64417 18.9832 7.46509 18.8041 7.46509 18.5832Z" fill="#333333" class='xian'/>
<path fill-rule="evenodd" clip-rule="evenodd" d="M7.44245 19.0609C7.51231 18.8513 7.73884 18.7381 7.94841 18.8079L8.4663 18.9806C8.67587 19.0504 8.78914 19.2769 8.71928 19.4865C8.64942 19.6961 8.42289 19.8094 8.21331 19.7395L7.69543 19.5669C7.48585 19.497 7.37259 19.2705 7.44245 19.0609Z" fill="#333333" class='xian'/>
<path fill-rule="evenodd" clip-rule="evenodd" d="M4.60735 14.1455C4.64959 13.9286 4.85962 13.7871 5.07645 13.8293C5.11215 13.8363 5.15399 13.8434 5.20088 13.8514C5.47844 13.8985 5.93258 13.9757 6.33204 14.228C6.82523 14.5395 7.2051 15.0832 7.31271 15.9992L7.93341 17.2588C7.9914 17.3765 7.98799 17.5151 7.9243 17.6298C7.8606 17.7445 7.74472 17.8207 7.61417 17.8337L7.1533 17.8795L7.18203 18.1686C7.19526 18.3016 7.1411 18.4325 7.03771 18.5174L6.90258 18.6282L7.05068 18.7722C7.11831 18.838 7.16052 18.9256 7.16985 19.0194C7.18711 19.1931 7.13149 19.3676 7.07369 19.498C7.01046 19.6406 6.91897 19.7876 6.80798 19.9199C6.67323 20.0805 6.47279 20.261 6.22372 20.3558L6.22055 20.7359C6.21871 20.9568 6.03813 21.1344 5.81723 21.1326C5.59632 21.1307 5.41873 20.9501 5.42058 20.7292L5.42651 20.017C5.42744 19.9058 5.47461 19.8 5.55671 19.725C5.63882 19.65 5.74843 19.6126 5.85926 19.6217C5.91994 19.6267 6.04858 19.5804 6.19506 19.4057C6.25476 19.3346 6.30246 19.2584 6.33423 19.1914L6.02393 18.8897C5.94228 18.8103 5.89835 18.6998 5.90316 18.586C5.90796 18.4722 5.96104 18.3659 6.04909 18.2937L6.36478 18.0347L6.31766 17.5606C6.29581 17.3407 6.45631 17.1448 6.67614 17.123L6.96067 17.0947L6.56387 16.2894C6.54267 16.2464 6.52938 16.1999 6.52463 16.1522C6.44938 15.3951 6.16975 15.0717 5.90481 14.9044C5.65262 14.7451 5.37982 14.6966 5.09873 14.6467C5.04063 14.6364 4.98219 14.626 4.92349 14.6146C4.70665 14.5723 4.56511 14.3623 4.60735 14.1455Z" fill="#333333" class='xian'/>
<path fill-rule="evenodd" clip-rule="evenodd" d="M10.2059 16.7633L9.9899 17.1L9.78629 16.7557C9.91635 16.6788 10.0787 16.6817 10.2059 16.7633ZM9.97919 17.6351C9.91943 17.7076 9.87868 17.7835 9.86616 17.8569C9.86131 17.8854 9.86881 17.9269 9.89741 17.9651C9.92552 18.0027 9.95561 18.0135 9.9726 18.0146C9.98555 18.0155 10.0163 18.0116 10.0495 17.964C10.0843 17.9141 10.0906 17.8566 10.0781 17.8175C10.0576 17.7532 10.0221 17.6915 9.97919 17.6351ZM9.78629 16.7557C9.7864 16.7556 9.78629 16.7557 9.9899 17.1C10.2059 16.7633 10.2058 16.7632 10.2059 16.7633L10.2067 16.7638L10.2077 16.7645L10.2101 16.766L10.2163 16.7702L10.2346 16.7827C10.2492 16.7929 10.2685 16.8069 10.2914 16.8246C10.3369 16.8598 10.3977 16.9107 10.4631 16.9762C10.5904 17.1035 10.7545 17.3056 10.8402 17.5742C10.9372 17.8779 10.8658 18.1919 10.7058 18.4215C10.5442 18.6533 10.263 18.8368 9.91694 18.8127C9.36308 18.7741 8.99052 18.2327 9.07755 17.7224C9.13389 17.3921 9.32828 17.1476 9.47683 17.0006C9.55417 16.9241 9.62805 16.8652 9.68312 16.8249C9.71088 16.8046 9.73446 16.7886 9.75212 16.7771C9.76097 16.7713 9.76837 16.7667 9.77413 16.7631L9.78151 16.7586L9.78423 16.7569L9.78534 16.7563L9.78629 16.7557Z" fill="#333333" class='xian'/>
<path d="M10.125 6.5C10.125 7.94975 8.94975 9.125 7.5 9.125C6.05025 9.125 4.875 7.94975 4.875 6.5C4.875 5.05025 6.05025 3.875 7.5 3.875C8.94975 3.875 10.125 5.05025 10.125 6.5Z" fill="#72DBF3" class='mian'/>
<path fill-rule="evenodd" clip-rule="evenodd" d="M7.49998 4.27501C6.27114 4.27501 5.27498 5.27117 5.27498 6.50001C5.27498 7.72884 6.27114 8.72501 7.49998 8.72501C8.72881 8.72501 9.72498 7.72884 9.72498 6.50001C9.72498 5.27117 8.72881 4.27501 7.49998 4.27501ZM4.47498 6.50001C4.47498 4.82934 5.82931 3.47501 7.49998 3.47501C9.17064 3.47501 10.525 4.82934 10.525 6.50001C10.525 8.17067 9.17064 9.52501 7.49998 9.52501C5.82931 9.52501 4.47498 8.17067 4.47498 6.50001Z" fill="#333333" class='xian'/>
<path fill-rule="evenodd" clip-rule="evenodd" d="M7.49998 2.60001C7.72089 2.60001 7.89998 2.77909 7.89998 3.00001V3.70001C7.89998 3.92092 7.72089 4.10001 7.49998 4.10001C7.27906 4.10001 7.09998 3.92092 7.09998 3.70001V3.00001C7.09998 2.77909 7.27906 2.60001 7.49998 2.60001Z" fill="#333333" class='xian'/>
<path fill-rule="evenodd" clip-rule="evenodd" d="M7.49998 8.90001C7.72089 8.90001 7.89998 9.0791 7.89998 9.30001V10C7.89998 10.2209 7.72089 10.4 7.49998 10.4C7.27906 10.4 7.09998 10.2209 7.09998 10V9.30001C7.09998 9.0791 7.27906 8.90001 7.49998 8.90001Z" fill="#333333" class='xian'/>
<path fill-rule="evenodd" clip-rule="evenodd" d="M10.2577 3.7423C10.4139 3.89851 10.4139 4.15178 10.2577 4.30799L9.76272 4.80296C9.60651 4.95917 9.35325 4.95917 9.19704 4.80296C9.04083 4.64675 9.04083 4.39348 9.19704 4.23727L9.69201 3.7423C9.84822 3.58609 10.1015 3.58609 10.2577 3.7423Z" fill="#333333" class='xian'/>
<path fill-rule="evenodd" clip-rule="evenodd" d="M5.80298 8.19706C5.95919 8.35327 5.95919 8.60653 5.80298 8.76274L5.30801 9.25772C5.1518 9.41393 4.89853 9.41393 4.74232 9.25772C4.58611 9.10151 4.58611 8.84824 4.74232 8.69203L5.2373 8.19706C5.39351 8.04085 5.64677 8.04085 5.80298 8.19706Z" fill="#333333" class='xian'/>
<path fill-rule="evenodd" clip-rule="evenodd" d="M11.4 6.50001C11.4 6.72092 11.2209 6.90001 11 6.90001L10.3 6.90001C10.079 6.90001 9.89996 6.72092 9.89996 6.50001C9.89996 6.27909 10.079 6.10001 10.3 6.10001L11 6.10001C11.2209 6.10001 11.4 6.27909 11.4 6.50001Z" fill="#333333" class='xian'/>
<path fill-rule="evenodd" clip-rule="evenodd" d="M5.09998 6.50001C5.09998 6.72092 4.92089 6.90001 4.69998 6.90001L3.99998 6.90001C3.77906 6.90001 3.59998 6.72092 3.59998 6.50001C3.59998 6.27909 3.77906 6.10001 3.99998 6.10001L4.69998 6.10001C4.92089 6.10001 5.09998 6.27909 5.09998 6.50001Z" fill="#333333" class='xian'/>
<path fill-rule="evenodd" clip-rule="evenodd" d="M4.74225 3.7423C4.89846 3.58609 5.15173 3.58609 5.30794 3.7423L5.80291 4.23728C5.95912 4.39349 5.95912 4.64675 5.80291 4.80296C5.6467 4.95917 5.39344 4.95917 5.23723 4.80296L4.74225 4.30799C4.58604 4.15178 4.58604 3.89851 4.74225 3.7423Z" fill="#333333" class='xian'/>
<path fill-rule="evenodd" clip-rule="evenodd" d="M9.19697 8.19706C9.35318 8.04085 9.60644 8.04085 9.76265 8.19706L10.2576 8.69204C10.4138 8.84825 10.4138 9.10151 10.2576 9.25772C10.1014 9.41393 9.84815 9.41393 9.69194 9.25772L9.19697 8.76275C9.04076 8.60654 9.04076 8.35327 9.19697 8.19706Z" fill="#333333" class='xian'/>
<path fill-rule="evenodd" clip-rule="evenodd" d="M8.54995 5.35001C8.49472 5.35001 8.44995 5.39478 8.44995 5.45001C8.44995 5.50523 8.49472 5.55001 8.54995 5.55001C8.60518 5.55001 8.64995 5.50523 8.64995 5.45001C8.64995 5.39478 8.60518 5.35001 8.54995 5.35001ZM7.94995 5.45001C7.94995 5.11864 8.21858 4.85001 8.54995 4.85001C8.88132 4.85001 9.14995 5.11864 9.14995 5.45001C9.14995 5.78138 8.88132 6.05001 8.54995 6.05001C8.21858 6.05001 7.94995 5.78138 7.94995 5.45001Z" fill="#333333" class='xian'/>
<path fill-rule="evenodd" clip-rule="evenodd" d="M6.275 6.40001C6.12312 6.40001 6 6.52313 6 6.67501C6 6.82689 6.12312 6.95001 6.275 6.95001C6.42688 6.95001 6.55 6.82689 6.55 6.67501C6.55 6.52313 6.42688 6.40001 6.275 6.40001ZM5.5 6.67501C5.5 6.24699 5.84698 5.90001 6.275 5.90001C6.70302 5.90001 7.05 6.24699 7.05 6.67501C7.05 7.10303 6.70302 7.45001 6.275 7.45001C5.84698 7.45001 5.5 7.10303 5.5 6.67501Z" fill="#333333" class='xian'/>
<path d="M7.49996 4.57501C7.49996 4.67166 7.42161 4.75001 7.32496 4.75001C7.22831 4.75001 7.14996 4.67166 7.14996 4.57501C7.14996 4.47836 7.22831 4.40001 7.32496 4.40001C7.42161 4.40001 7.49996 4.47836 7.49996 4.57501Z" fill="#333333" class='xian'/>
<path d="M9.6 6.675C9.6 6.77165 9.52165 6.85 9.425 6.85C9.32835 6.85 9.25 6.77165 9.25 6.675C9.25 6.57835 9.32835 6.5 9.425 6.5C9.52165 6.5 9.6 6.57835 9.6 6.675Z" fill="#333333" class='xian'/>
<path d="M6.79995 8.07501C6.79995 8.17166 6.7216 8.25001 6.62495 8.25001C6.5283 8.25001 6.44995 8.17166 6.44995 8.07501C6.44995 7.97836 6.5283 7.90001 6.62495 7.90001C6.7216 7.90001 6.79995 7.97836 6.79995 8.07501Z" fill="#333333" class='xian'/>
<path d="M6.44998 5.27501C6.44998 5.37166 6.37163 5.45001 6.27498 5.45001C6.17833 5.45001 6.09998 5.37166 6.09998 5.27501C6.09998 5.17836 6.17833 5.10001 6.27498 5.10001C6.37163 5.10001 6.44998 5.17836 6.44998 5.27501Z" fill="#333333" class='xian'/>
<path fill-rule="evenodd" clip-rule="evenodd" d="M7.9054 7.33288C7.90362 7.33475 7.90316 7.33572 7.90298 7.33611C7.9028 7.3365 7.90236 7.33749 7.90209 7.34005C7.9018 7.34284 7.90164 7.34854 7.90332 7.35768C7.90682 7.3768 7.91781 7.40728 7.9443 7.44618C7.99789 7.52488 8.09885 7.61378 8.24029 7.67908C8.38172 7.74437 8.51487 7.76355 8.60953 7.7533C8.65633 7.74823 8.68665 7.73682 8.70348 7.72709C8.71152 7.72243 8.71576 7.71861 8.71769 7.71658C8.71946 7.71472 8.71993 7.71374 8.72011 7.71335C8.72029 7.71296 8.72073 7.71198 8.721 7.70942C8.72129 7.70663 8.72145 7.70093 8.71977 7.69179C8.71626 7.67267 8.70528 7.64219 8.67879 7.60329C8.62519 7.52459 8.52424 7.43568 8.3828 7.37039C8.24137 7.30509 8.10821 7.28592 8.01356 7.29617C7.96676 7.30124 7.93644 7.31265 7.91961 7.32238C7.91157 7.32703 7.90733 7.33085 7.9054 7.33288ZM7.95971 6.79908C8.15879 6.77751 8.38281 6.81968 8.59238 6.91643C8.80194 7.01318 8.97935 7.15634 9.09206 7.32185C9.2015 7.48256 9.27395 7.70658 9.17406 7.92293C9.07418 8.13928 8.85669 8.22945 8.66338 8.25039C8.4643 8.27195 8.24028 8.22979 8.03071 8.13304C7.82115 8.03629 7.64374 7.89313 7.53103 7.72762C7.42159 7.56691 7.34914 7.34289 7.44903 7.12654C7.54891 6.91019 7.7664 6.82002 7.95971 6.79908Z" fill="#333333" class='xian'/>
</svg>
