<svg width="24" height="24" viewBox="0 0 24 24" fill="none" xmlns="http://www.w3.org/2000/svg">
<path fill-rule="evenodd" clip-rule="evenodd" d="M1.25 2C1.25 1.58579 1.58579 1.25 2 1.25H4C4.41421 1.25 4.75 1.58579 4.75 2C4.75 2.41421 4.41421 2.75 4 2.75H2.75V4C2.75 4.41421 2.41421 4.75 2 4.75C1.58579 4.75 1.25 4.41421 1.25 4V2Z" fill="#666666" class='xian'/>
<path fill-rule="evenodd" clip-rule="evenodd" d="M22.75 22C22.75 22.4142 22.4142 22.75 22 22.75H20C19.5858 22.75 19.25 22.4142 19.25 22C19.25 21.5858 19.5858 21.25 20 21.25H21.25V20C21.25 19.5858 21.5858 19.25 22 19.25C22.4142 19.25 22.75 19.5858 22.75 20V22Z" fill="#666666" class='xian'/>
<path fill-rule="evenodd" clip-rule="evenodd" d="M22.75 2C22.75 1.58579 22.4142 1.25 22 1.25H20C19.5858 1.25 19.25 1.58579 19.25 2C19.25 2.41421 19.5858 2.75 20 2.75H21.25V4C21.25 4.41421 21.5858 4.75 22 4.75C22.4142 4.75 22.75 4.41421 22.75 4V2Z" fill="#666666" class='xian'/>
<path fill-rule="evenodd" clip-rule="evenodd" d="M1.25 22C1.25 22.4142 1.58579 22.75 2 22.75H4C4.41421 22.75 4.75 22.4142 4.75 22C4.75 21.5858 4.41421 21.25 4 21.25H2.75V20C2.75 19.5858 2.41421 19.25 2 19.25C1.58579 19.25 1.25 19.5858 1.25 20V22Z" fill="#666666" class='xian'/>
<path fill-rule="evenodd" clip-rule="evenodd" d="M3.25 12C3.25 11.5858 3.58579 11.25 4 11.25H21C21.4142 11.25 21.75 11.5858 21.75 12C21.75 12.4142 21.4142 12.75 21 12.75H4C3.58579 12.75 3.25 12.4142 3.25 12Z" fill="#666666" class='xian'/>
<path d="M5.5 16.5L7 15.5H9L10 16L11 17.5V19L10 20L8 21L6.5 20.5L5.5 19.5L5 17.5L5.5 16.5Z" fill="#5DD92F" class='mian'/>
<path fill-rule="evenodd" clip-rule="evenodd" d="M7.09184 15.6505C6.15973 15.9982 5.49696 16.8964 5.49696 17.9484C5.49696 18.0583 5.50417 18.1664 5.5181 18.2722L4.72496 18.3766C4.70647 18.2363 4.69696 18.0934 4.69696 17.9484C4.69696 16.5517 5.57741 15.3616 6.81224 14.901L7.09184 15.6505ZM10.4002 17.9484C10.4002 16.9143 9.75977 16.0287 8.85243 15.6687L9.14753 14.9251C10.3493 15.402 11.2002 16.5753 11.2002 17.9484C11.2002 18.1091 11.1885 18.2673 11.1659 18.4222L10.3743 18.3065C10.3913 18.1898 10.4002 18.0702 10.4002 17.9484ZM6.24587 19.7122C6.68726 20.1384 7.28696 20.4 7.94857 20.4C8.59113 20.4 9.17517 20.1533 9.61261 19.7488L10.1558 20.3361C9.57633 20.872 8.80031 21.2 7.94857 21.2C7.07143 21.2 6.2747 20.8522 5.69017 20.2878L6.24587 19.7122Z" fill="#333333" class='xian'/>
<path d="M9.01755 15.0694C9.01755 15.6599 8.53879 16.1387 7.9482 16.1387C7.35761 16.1387 6.87885 15.6599 6.87885 15.0694C6.87885 14.4788 7.35761 14 7.9482 14C8.53879 14 9.01755 14.4788 9.01755 15.0694Z" fill="#5DD92F" class='mian'/>
<path fill-rule="evenodd" clip-rule="evenodd" d="M7.94818 14.4C7.5785 14.4 7.27882 14.6997 7.27882 15.0694C7.27882 15.439 7.5785 15.7387 7.94818 15.7387C8.31785 15.7387 8.61753 15.439 8.61753 15.0694C8.61753 14.6997 8.31785 14.4 7.94818 14.4ZM6.47882 15.0694C6.47882 14.2579 7.13667 13.6 7.94818 13.6C8.75968 13.6 9.41753 14.2579 9.41753 15.0694C9.41753 15.8809 8.75968 16.5387 7.94818 16.5387C7.13667 16.5387 6.47882 15.8809 6.47882 15.0694Z" fill="#333333" class='xian'/>
<path d="M6.13871 19.4565C6.13871 20.0471 5.65994 20.5258 5.06935 20.5258C4.47877 20.5258 4 20.0471 4 19.4565C4 18.8659 4.47877 18.3871 5.06935 18.3871C5.65994 18.3871 6.13871 18.8659 6.13871 19.4565Z" fill="#5DD92F" class='mian'/>
<path fill-rule="evenodd" clip-rule="evenodd" d="M5.06933 18.7871C4.69966 18.7871 4.39998 19.0868 4.39998 19.4565C4.39998 19.8261 4.69966 20.1258 5.06933 20.1258C5.43901 20.1258 5.73869 19.8261 5.73869 19.4565C5.73869 19.0868 5.43901 18.7871 5.06933 18.7871ZM3.59998 19.4565C3.59998 18.645 4.25783 17.9871 5.06933 17.9871C5.88083 17.9871 6.53869 18.645 6.53869 19.4565C6.53869 20.268 5.88083 20.9258 5.06933 20.9258C4.25783 20.9258 3.59998 20.268 3.59998 19.4565Z" fill="#333333" class='xian'/>
<path d="M11.8967 19.4565C11.8967 20.0471 11.4179 20.5258 10.8274 20.5258C10.2368 20.5258 9.758 20.0471 9.758 19.4565C9.758 18.8659 10.2368 18.3871 10.8274 18.3871C11.4179 18.3871 11.8967 18.8659 11.8967 19.4565Z" fill="#5DD92F" class='mian'/>
<path fill-rule="evenodd" clip-rule="evenodd" d="M10.8273 18.7871C10.4577 18.7871 10.158 19.0868 10.158 19.4565C10.158 19.8261 10.4577 20.1258 10.8273 20.1258C11.197 20.1258 11.4967 19.8261 11.4967 19.4565C11.4967 19.0868 11.197 18.7871 10.8273 18.7871ZM9.35797 19.4565C9.35797 18.645 10.0158 17.9871 10.8273 17.9871C11.6388 17.9871 12.2967 18.645 12.2967 19.4565C12.2967 20.268 11.6388 20.9258 10.8273 20.9258C10.0158 20.9258 9.35797 20.268 9.35797 19.4565Z" fill="#333333" class='xian'/>
<path d="M7.5 10C9.433 10 11 8.433 11 6.5C11 4.567 9.433 3 7.5 3C5.567 3 4 4.567 4 6.5C4 8.433 5.567 10 7.5 10Z" fill="#5B71EF" class='mian'/>
<path fill-rule="evenodd" clip-rule="evenodd" d="M3.59998 6.5C3.59998 4.34609 5.34606 2.6 7.49998 2.6C9.65389 2.6 11.4 4.34609 11.4 6.5C11.4 8.65391 9.65389 10.4 7.49998 10.4C5.34606 10.4 3.59998 8.65391 3.59998 6.5ZM7.49998 3.4C5.78789 3.4 4.39998 4.78791 4.39998 6.5C4.39998 8.21208 5.78789 9.6 7.49998 9.6C9.21206 9.6 10.6 8.21208 10.6 6.5C10.6 4.78791 9.21206 3.4 7.49998 3.4Z" fill="#333333" class='xian'/>
<path fill-rule="evenodd" clip-rule="evenodd" d="M7.16875 5.86613C7.13978 6.17304 6.90416 6.37543 6.66813 6.51911L6.25216 5.83575C6.28641 5.8149 6.31262 5.79706 6.33251 5.78231C6.32774 5.77593 6.32249 5.76904 6.31672 5.76162C6.30571 5.74748 6.29197 5.73091 6.27629 5.71198C6.12242 5.52632 5.78078 5.11407 5.98085 4.54507L6.73556 4.81043C6.69022 4.93937 6.73048 4.99104 6.92601 5.24198C6.93313 5.25112 6.94046 5.26053 6.948 5.27022C6.94937 5.27197 6.95077 5.27377 6.95221 5.27562C7.02637 5.37076 7.19507 5.58721 7.16875 5.86613Z" fill="#333333" class='xian'/>
<path fill-rule="evenodd" clip-rule="evenodd" d="M4.93903 5.66031C4.93887 5.66018 4.93886 5.66018 4.93902 5.66029L5.40252 5.00824C5.58286 5.13643 5.69471 5.33655 5.76333 5.46433C5.78937 5.51281 5.81182 5.55617 5.83233 5.59575C5.87989 5.68759 5.91693 5.75911 5.96368 5.82701C6.01368 5.89963 6.04139 5.91505 6.04657 5.91736C6.05781 5.91844 6.11744 5.91778 6.2522 5.83575L6.66817 6.51911C6.40361 6.68015 6.12591 6.76281 5.84987 6.69286C5.57945 6.62433 5.40985 6.43332 5.30476 6.28069C5.22703 6.16779 5.1555 6.02945 5.10114 5.92431C5.08541 5.8939 5.07112 5.86627 5.05854 5.84283C5.02555 5.78141 4.99878 5.73624 4.97454 5.70242C4.95257 5.67176 4.94036 5.66144 4.93903 5.66031ZM6.04457 5.91704C6.04458 5.917 6.04514 5.91707 6.04621 5.91733L6.04457 5.91704Z" fill="#333333" class='xian'/>
<path fill-rule="evenodd" clip-rule="evenodd" d="M4.93901 5.66029C4.88593 5.62257 4.71768 5.56609 4.28531 5.74882L3.97388 5.01193C4.46634 4.80381 4.99219 4.7166 5.40248 5.00823L4.93901 5.66029Z" fill="#333333" class='xian'/>
<path fill-rule="evenodd" clip-rule="evenodd" d="M6.83935 4.67023C6.80819 4.68686 6.76982 4.71312 6.7356 4.81043L5.9809 4.54507C6.0804 4.26206 6.25181 4.07694 6.46282 3.96438C6.63181 3.87424 6.81698 3.839 6.93271 3.81698C6.94391 3.81484 6.95446 3.81284 6.96429 3.81091C7.10672 3.78305 7.14288 3.7668 7.15779 3.75565C7.15782 3.75563 7.15786 3.7556 7.15792 3.75557C7.15849 3.75524 7.16039 3.75414 7.16458 3.74582C7.17065 3.73378 7.18371 3.70126 7.19082 3.63321L7.98649 3.71637C7.95629 4.00533 7.84643 4.23969 7.63677 4.39642C7.45874 4.52949 7.24853 4.57053 7.12628 4.59439C7.12344 4.59495 7.12064 4.59549 7.1179 4.59603C6.96592 4.62576 6.89618 4.63992 6.83935 4.67023Z" fill="#333333" class='xian'/>
<path fill-rule="evenodd" clip-rule="evenodd" d="M7.74075 2.99623C7.93944 3.19417 8.01435 3.44987 7.98651 3.71635L7.19084 3.63323C7.19428 3.60028 7.19014 3.58514 7.18877 3.58098C7.18779 3.578 7.18589 3.5727 7.17613 3.56298C7.1508 3.53774 7.07382 3.48604 6.88666 3.44753L7.0479 2.66395C7.30849 2.71757 7.55895 2.81512 7.74075 2.99623Z" fill="#333333" class='xian'/>
<path fill-rule="evenodd" clip-rule="evenodd" d="M10.0393 3.81386C10.1846 3.98028 10.1674 4.23297 10.001 4.37825C9.50518 4.81112 9.20265 5.13185 9.05946 5.34798C9.0394 5.37826 9.02468 5.40326 9.0139 5.42332C9.10532 5.54932 9.11824 5.72281 9.03295 5.86461C8.91909 6.05392 8.67332 6.11509 8.48401 6.00122C8.39366 5.94688 8.30919 5.86771 8.25249 5.7583C8.19589 5.64911 8.17995 5.53491 8.18698 5.43069C8.19999 5.23775 8.29266 5.05691 8.39255 4.90614C8.59862 4.59509 8.97073 4.21573 9.47491 3.77559C9.64133 3.63031 9.89402 3.64744 10.0393 3.81386Z" fill="#333333" class='xian'/>
<path fill-rule="evenodd" clip-rule="evenodd" d="M8.97212 6.1572C8.80768 6.14975 8.64696 6.09925 8.48398 6.00122C8.29467 5.88734 8.23352 5.64157 8.34739 5.45227C8.46127 5.26296 8.70704 5.20181 8.89634 5.31568C8.95947 5.35365 8.99231 5.35729 9.00829 5.35801C9.03238 5.3591 9.06528 5.35509 9.14437 5.33326C9.15943 5.32911 9.17567 5.3244 9.19307 5.31935C9.35475 5.27244 9.61704 5.19635 9.96495 5.2663C10.1815 5.30984 10.3218 5.52071 10.2783 5.73729C10.2347 5.95387 10.0238 6.09415 9.80727 6.0506C9.65692 6.02037 9.56769 6.04543 9.41034 6.0896C9.39346 6.09434 9.37579 6.0993 9.35718 6.10444C9.26279 6.13048 9.12844 6.16427 8.97212 6.1572Z" fill="#333333" class='xian'/>
<path fill-rule="evenodd" clip-rule="evenodd" d="M9.94699 6.11373C9.98641 6.11588 10.0145 6.11742 10.0282 6.11742C10.2491 6.11742 10.4282 6.29651 10.4282 6.51742C10.4282 6.73833 10.2491 6.91742 10.0282 6.91742C9.96948 6.91742 9.89966 6.91387 9.82169 6.9099C9.61716 6.8995 9.35652 6.88625 9.09275 6.92674C8.91713 6.95369 8.80749 6.99807 8.75245 7.04111C8.72334 7.06387 8.70171 7.08532 8.70892 7.1689L8.70892 7.16891C8.73292 7.44696 8.87626 7.60964 9.0902 7.79441C9.11048 7.81193 9.13353 7.8313 9.1583 7.85212C9.24782 7.92736 9.35974 8.02142 9.4442 8.11459C9.56454 8.24733 9.69032 8.43934 9.69032 8.70061C9.69032 8.97762 9.59365 9.29255 9.44619 9.62409C9.35642 9.82594 9.12001 9.91679 8.91816 9.82702C8.71631 9.73724 8.62546 9.50083 8.71523 9.29898C8.84597 9.00503 8.88948 8.81353 8.8903 8.70379C8.8871 8.69677 8.87744 8.68052 8.8515 8.65191C8.80652 8.60229 8.75457 8.55853 8.67851 8.49445C8.64622 8.46725 8.60959 8.43639 8.5673 8.39987C8.31021 8.17783 7.9636 7.83692 7.91188 7.23769L8.3104 7.2033L7.91188 7.23769C7.88124 6.88261 8.01912 6.599 8.25965 6.41092C8.47424 6.24311 8.74436 6.17085 8.97137 6.136C9.33437 6.08028 9.76341 6.10371 9.94699 6.11373ZM8.89164 8.70799C8.89145 8.70793 8.8909 8.70667 8.89057 8.70439C8.89167 8.70692 8.89184 8.70806 8.89164 8.70799Z" fill="#333333" class='xian'/>
<path fill-rule="evenodd" clip-rule="evenodd" d="M9.49395 5.5796C9.5375 5.36302 9.74838 5.22275 9.96496 5.2663C10.1979 5.31315 10.3832 5.43483 10.5063 5.60541C10.6246 5.76938 10.6706 5.95704 10.6729 6.12392C10.6752 6.28824 10.6358 6.46097 10.5485 6.60559C10.4634 6.74647 10.2915 6.91742 10.0282 6.91742C9.80729 6.91742 9.6282 6.73833 9.6282 6.51742C9.6282 6.35167 9.72901 6.20947 9.87266 6.14879C9.87292 6.14453 9.87305 6.13998 9.87298 6.13518C9.8725 6.10119 9.86297 6.08104 9.85757 6.07355C9.85754 6.07351 9.8575 6.07345 9.85745 6.07336C9.85626 6.07149 9.84829 6.05885 9.80725 6.0506C9.59067 6.00705 9.4504 5.79617 9.49395 5.5796Z" fill="#333333" class='xian'/>
<path fill-rule="evenodd" clip-rule="evenodd" d="M6.67499 8.05508C6.52179 7.90308 6.27445 7.89986 6.11731 8.04976C5.95746 8.20224 5.95149 8.45544 6.10398 8.61528C6.20967 8.72608 6.33701 8.78392 6.41952 8.81694C6.46081 8.83346 6.50248 8.84805 6.53504 8.85945C6.53677 8.86006 6.53847 8.86066 6.54015 8.86124C6.57449 8.87328 6.59976 8.88224 6.62214 8.89118C6.61051 9.0363 6.55512 9.22317 6.42985 9.45799C6.32586 9.6529 6.39958 9.8952 6.59449 9.99918C6.7894 10.1032 7.0317 10.0294 7.13569 9.83454C7.31539 9.49768 7.42453 9.16084 7.42453 8.83319C7.42453 8.6486 7.36236 8.48528 7.24404 8.35821C7.13869 8.24506 7.01117 8.18567 6.92704 8.15153C6.88339 8.13382 6.83972 8.11852 6.80591 8.10667L6.80466 8.10624C6.76746 8.0932 6.74093 8.08388 6.71678 8.07422C6.69195 8.06428 6.67955 8.05764 6.67499 8.05508Z" fill="#333333" class='xian'/>
<path fill-rule="evenodd" clip-rule="evenodd" d="M5.69679 7.74823C5.53265 7.6758 5.17234 7.67768 4.50947 7.94547C4.30464 8.02822 4.07151 7.92926 3.98876 7.72443C3.90601 7.5196 4.00498 7.28647 4.20981 7.20372C4.89343 6.92754 5.53223 6.80119 6.01976 7.01632C6.221 7.10512 6.37406 7.22708 6.48323 7.37739C6.59045 7.52502 6.63897 7.67761 6.66544 7.80169C6.67848 7.86286 6.6868 7.92043 6.69305 7.96637C6.69472 7.97859 6.69619 7.98961 6.69755 7.99972C6.70183 8.03175 6.7049 8.05466 6.70884 8.07744C6.71033 8.08607 6.71172 8.09301 6.71292 8.09846C6.83371 8.25836 6.81803 8.48694 6.66953 8.62861C6.50969 8.7811 6.2565 8.77514 6.104 8.6153C5.97073 8.47561 5.93599 8.30306 5.92054 8.2138C5.91371 8.17429 5.90798 8.13126 5.90339 8.09684C5.90232 8.0888 5.90131 8.08122 5.90036 8.07427C5.8947 8.03262 5.88959 7.99932 5.88304 7.96858C5.8703 7.90886 5.85488 7.87359 5.83594 7.84752C5.81895 7.82412 5.78364 7.78655 5.69679 7.74823Z" fill="#333333" class='xian'/>
<path d="M19.256 3.44399C19.9371 4.12508 19.1434 6.02306 17.4832 7.68323C15.8231 9.3434 13.9251 10.1371 13.244 9.45601C12.5629 8.7749 13.3566 6.87693 15.0168 5.21676C16.6769 3.55659 18.5749 2.7629 19.256 3.44399Z" fill="#27BDFF" class='mian'/>
<path fill-rule="evenodd" clip-rule="evenodd" d="M17.6578 3.82143C16.9495 4.11764 16.1021 4.69705 15.2996 5.4996C14.497 6.30216 13.9176 7.14954 13.6214 7.85785C13.4729 8.21297 13.4037 8.51394 13.4001 8.74584C13.3966 8.97604 13.4567 9.10303 13.5268 9.17316C13.5268 9.17316 13.5268 9.17316 13.5268 9.17317M13.5268 9.17317C13.5969 9.24329 13.7239 9.30336 13.9541 9.29985C14.186 9.29632 14.487 9.22706 14.8421 9.07856C15.5504 8.78235 16.3978 8.20294 17.2004 7.40039C18.0029 6.59784 18.5823 5.75045 18.8785 5.04213C19.027 4.68701 19.0963 4.38604 19.0998 4.15414C19.1033 3.92394 19.0433 3.79696 18.9731 3.72684C18.903 3.65671 18.776 3.59663 18.5458 3.60014C18.3139 3.60368 18.0129 3.67293 17.6578 3.82143M18.5336 2.80024C18.9027 2.79461 19.2684 2.89073 19.5388 3.16115L19.5388 3.16115C19.8092 3.43157 19.9054 3.79724 19.8997 4.16634C19.8941 4.53375 19.7889 4.93874 19.6166 5.35078C19.2712 6.17676 18.6237 7.10846 17.766 7.96608C16.9084 8.82369 15.9767 9.47121 15.1508 9.81662C14.7387 9.98893 14.3337 10.0942 13.9663 10.0998C13.5972 10.1054 13.2315 10.0093 12.9611 9.73885L12.9611 9.73885C12.6907 9.46842 12.5946 9.10275 12.6002 8.73364C12.6058 8.36623 12.711 7.96124 12.8833 7.54921C13.2288 6.72322 13.8763 5.79153 14.7339 4.93392L14.991 5.19105L14.7339 4.93392C15.5915 4.0763 16.5232 3.42878 17.3492 3.08337C17.7612 2.91107 18.1662 2.80584 18.5336 2.80024Z" fill="#333333" class='xian'/>
<path d="M17.4832 5.21676C19.1434 6.87693 19.9371 8.7749 19.256 9.45601C18.5749 10.1371 16.6769 9.34341 15.0167 7.68324C13.3566 6.02307 12.5629 4.12508 13.244 3.44399C13.9251 2.7629 15.8231 3.55659 17.4832 5.21676Z" fill="#27BCFF" class='mian'/>
<path fill-rule="evenodd" clip-rule="evenodd" d="M15.1508 3.08337C15.9768 3.42878 16.9085 4.0763 17.7661 4.93392C18.6237 5.79154 19.2712 6.72323 19.6166 7.54921C19.7889 7.96125 19.8942 8.36624 19.8998 8.73365C19.9054 9.10275 19.8093 9.46843 19.5389 9.73885C19.3826 9.89506 19.1294 9.89506 18.9732 9.73886C18.817 9.58265 18.817 9.32938 18.9732 9.17317C19.0433 9.10304 19.1034 8.97605 19.0999 8.74585C19.0963 8.51395 19.0271 8.21298 18.8786 7.85786C18.5824 7.14954 18.0029 6.30216 17.2004 5.4996C16.3978 4.69705 15.5505 4.11764 14.8421 3.82143C14.487 3.67293 14.1861 3.60368 13.9542 3.60014C13.7239 3.59663 13.597 3.65671 13.5268 3.72684C13.3706 3.88304 13.1174 3.88304 12.9612 3.72683C12.8049 3.57062 12.8049 3.31736 12.9612 3.16115C13.2316 2.89073 13.5972 2.79461 13.9664 2.80024C14.3338 2.80584 14.7388 2.91107 15.1508 3.08337Z" fill="#333333" class='xian'/>
<path fill-rule="evenodd" clip-rule="evenodd" d="M13.5268 3.16115C13.683 3.31736 13.683 3.57063 13.5268 3.72684C13.4567 3.79696 13.3966 3.92394 13.4001 4.15414C13.4037 4.38604 13.4729 4.68701 13.6214 5.04213C13.9176 5.75045 14.497 6.59784 15.2996 7.40039C16.1021 8.20295 16.9495 8.78236 17.6578 9.07856C18.0129 9.22707 18.3139 9.29632 18.5458 9.29986C18.776 9.30337 18.903 9.24329 18.9731 9.17316C19.1294 9.01696 19.3826 9.01696 19.5388 9.17317C19.695 9.32938 19.695 9.58265 19.5388 9.73886C19.2684 10.0093 18.9027 10.1054 18.5336 10.0998C18.1662 10.0942 17.7612 9.98893 17.3492 9.81663C16.5232 9.47122 15.5915 8.8237 14.7339 7.96608C13.8763 7.10846 13.2288 6.17677 12.8833 5.35078C12.711 4.93874 12.6058 4.53375 12.6002 4.16634C12.5946 3.79724 12.6907 3.43156 12.9611 3.16115C13.1173 3.00494 13.3706 3.00494 13.5268 3.16115Z" fill="#333333" class='xian'/>
<path d="M16.6912 6.42676C16.6912 6.68318 16.4833 6.89105 16.2269 6.89105C15.9705 6.89105 15.7626 6.68318 15.7626 6.42676C15.7626 6.17034 15.9705 5.96247 16.2269 5.96247C16.4833 5.96247 16.6912 6.17034 16.6912 6.42676Z" fill="#333333" class='xian'/>
<path d="M16.4549 14C16.4549 14 18.329 15.1833 18.9802 17.1353C19.5945 18.9767 18.1459 21.1253 16.2094 20.9915L-nan -nanL16.2094 20.9915C14.5967 20.8802 13.3709 19.2337 13.6589 17.6429C14.0667 15.3903 16.4549 14 16.4549 14Z" fill="#64C2FF" class='mian'/>
<path fill-rule="evenodd" clip-rule="evenodd" d="M16.6684 13.6618L16.4549 14L16.2536 13.6543C16.3825 13.5793 16.5423 13.5822 16.6684 13.6618ZM16.4458 14.4813C16.4049 14.5092 16.359 14.5412 16.3088 14.5772C16.0907 14.734 15.7953 14.9658 15.4884 15.2637C14.8682 15.8659 14.2352 16.7051 14.0525 17.7142C13.8049 19.0815 14.8731 20.4983 16.2369 20.5925C17.0402 20.648 17.7614 20.2325 18.2241 19.5741C18.688 18.9139 18.8628 18.0474 18.6008 17.2619C18.3027 16.3684 17.7185 15.6368 17.1931 15.1211C16.9323 14.8651 16.6909 14.667 16.5157 14.5337C16.491 14.5149 16.4677 14.4975 16.4458 14.4813ZM16.2536 13.6543C16.2537 13.6542 16.2536 13.6543 16.4549 14C16.6684 13.6618 16.6683 13.6617 16.6684 13.6618L16.6695 13.6625L16.6713 13.6636L16.677 13.6672L16.696 13.6797C16.7121 13.6903 16.7349 13.7055 16.7635 13.7252C16.8208 13.7646 16.9017 13.8222 17.0001 13.8971C17.1966 14.0466 17.4644 14.2664 17.7535 14.5502C18.328 15.1141 19.0065 15.9502 19.3596 17.0088C19.7119 18.0647 19.4695 19.1931 18.8786 20.0341C18.2864 20.8769 17.3151 21.4688 16.1818 21.3906C14.3202 21.262 12.9368 19.3858 13.2653 17.5717C13.4904 16.3281 14.2553 15.3459 14.9312 14.6897C15.2723 14.3585 15.5995 14.1019 15.8419 13.9276C15.9633 13.8404 16.064 13.7733 16.1354 13.7275C16.1711 13.7046 16.1996 13.6869 16.2196 13.6747L16.2433 13.6604L16.2502 13.6563L16.2523 13.6551L16.2536 13.6543Z" fill="#333333" class='xian'/>
<path fill-rule="evenodd" clip-rule="evenodd" d="M18.15 17.8C18.3709 17.8 18.55 17.9791 18.55 18.2C18.55 18.7117 18.3977 19.2347 18.1007 19.6397C17.7987 20.0515 17.3368 20.35 16.75 20.35C16.5291 20.35 16.35 20.1709 16.35 19.95C16.35 19.7291 16.5291 19.55 16.75 19.55C17.0382 19.55 17.2763 19.411 17.4555 19.1666C17.6398 18.9153 17.75 18.5633 17.75 18.2C17.75 17.9791 17.9291 17.8 18.15 17.8Z" fill="#333333" class='xian'/>
<path d="M16.4549 14C16.4549 14 18.329 15.1833 18.9802 17.1353C19.5945 18.9767 18.1459 21.1253 16.2094 20.9915V20.9915C14.5966 20.8802 13.3709 19.2337 13.6589 17.6429C14.0667 15.3903 16.4549 14 16.4549 14Z" fill="#64C2FF" class='mian'/>
<path fill-rule="evenodd" clip-rule="evenodd" d="M16.6684 13.6618L16.4549 14L16.2536 13.6543C16.3825 13.5793 16.5423 13.5822 16.6684 13.6618ZM16.4458 14.4813C16.4049 14.5092 16.359 14.5412 16.3088 14.5772C16.0907 14.734 15.7953 14.9658 15.4884 15.2637C14.8682 15.8659 14.2352 16.7051 14.0525 17.7142C13.8049 19.0815 14.8731 20.4983 16.2369 20.5925C17.0402 20.648 17.7614 20.2325 18.2241 19.5741C18.688 18.9139 18.8628 18.0474 18.6008 17.2619C18.3027 16.3684 17.7185 15.6368 17.1931 15.1211C16.9323 14.8651 16.6909 14.667 16.5157 14.5337C16.491 14.5149 16.4677 14.4975 16.4458 14.4813ZM16.2536 13.6543C16.2537 13.6542 16.2536 13.6543 16.4549 14C16.6684 13.6618 16.6683 13.6617 16.6684 13.6618L16.6695 13.6625L16.6713 13.6636L16.677 13.6672L16.696 13.6797C16.7121 13.6903 16.7349 13.7055 16.7635 13.7252C16.8208 13.7646 16.9017 13.8222 17.0001 13.8971C17.1966 14.0466 17.4644 14.2664 17.7535 14.5502C18.328 15.1141 19.0065 15.9502 19.3596 17.0088C19.7119 18.0647 19.4695 19.1931 18.8786 20.0341C18.2864 20.8769 17.3151 21.4688 16.1818 21.3906C14.3202 21.262 12.9368 19.3858 13.2653 17.5717C13.4904 16.3281 14.2553 15.3459 14.9312 14.6897C15.2723 14.3585 15.5995 14.1019 15.8419 13.9276C15.9633 13.8404 16.064 13.7733 16.1354 13.7275C16.1711 13.7046 16.1996 13.6869 16.2196 13.6747L16.2433 13.6604L16.2502 13.6563L16.2523 13.6551L16.2536 13.6543Z" fill="#333333" class='xian'/>
<path fill-rule="evenodd" clip-rule="evenodd" d="M18.15 17.8C18.3709 17.8 18.55 17.9791 18.55 18.2C18.55 18.7117 18.3977 19.2347 18.1007 19.6397C17.7987 20.0515 17.3368 20.35 16.75 20.35C16.5291 20.35 16.35 20.1709 16.35 19.95C16.35 19.7291 16.5291 19.55 16.75 19.55C17.0382 19.55 17.2763 19.411 17.4555 19.1666C17.6398 18.9153 17.75 18.5633 17.75 18.2C17.75 17.9791 17.9291 17.8 18.15 17.8Z" fill="#333333" class='xian'/>
</svg>
