<svg width="24" height="24" viewBox="0 0 24 24" fill="none" xmlns="http://www.w3.org/2000/svg">
<path d="M2.5 5V17H21.5V5H2.5Z" fill="#3E404C" class='mian'/>
<path fill-rule="evenodd" clip-rule="evenodd" d="M1.75 5C1.75 4.58579 2.08579 4.25 2.5 4.25H21.5C21.9142 4.25 22.25 4.58579 22.25 5V17C22.25 17.4142 21.9142 17.75 21.5 17.75H2.5C2.08579 17.75 1.75 17.4142 1.75 17V5ZM3.25 5.75V16.25H20.75V5.75H3.25Z" fill="#333333" class='xian'/>
<path fill-rule="evenodd" clip-rule="evenodd" d="M8.25 17V5H9.75V17H8.25Z" fill="#333333" class='xian'/>
<path d="M19.125 6.5H18.375L18 6.875V8.75H19.5V6.875L19.125 6.5Z" fill="#999999" class='mian'/>
<path fill-rule="evenodd" clip-rule="evenodd" d="M18.1982 6.32322C18.2451 6.27634 18.3087 6.25 18.375 6.25H19.125C19.1913 6.25 19.2549 6.27634 19.3018 6.32322L19.6768 6.69822C19.7237 6.74511 19.75 6.8087 19.75 6.875V8.75C19.75 8.88807 19.6381 9 19.5 9H18C17.8619 9 17.75 8.88807 17.75 8.75V6.875C17.75 6.8087 17.7763 6.74511 17.8232 6.69822L18.1982 6.32322ZM18.4786 6.75L18.25 6.97855V8.5H19.25V6.97855L19.0214 6.75H18.4786Z" fill="#333333" class='xian'/>
<path d="M12 11.5C12 13.433 10.433 15 8.5 15C6.567 15 5 13.433 5 11.5C5 9.567 6.567 8 8.5 8C10.433 8 12 9.567 12 11.5Z" fill="#E7E7E9" class='mian'/>
<path fill-rule="evenodd" clip-rule="evenodd" d="M8.5 8.75C6.98122 8.75 5.75 9.98122 5.75 11.5C5.75 13.0188 6.98122 14.25 8.5 14.25C10.0188 14.25 11.25 13.0188 11.25 11.5C11.25 9.98122 10.0188 8.75 8.5 8.75ZM4.25 11.5C4.25 9.15279 6.15279 7.25 8.5 7.25C10.8472 7.25 12.75 9.15279 12.75 11.5C12.75 13.8472 10.8472 15.75 8.5 15.75C6.15279 15.75 4.25 13.8472 4.25 11.5Z" fill="#333333" class='xian'/>
<path d="M4 17V19H20V17H4Z" fill="#DDDDDF" class='mian'/>
<path fill-rule="evenodd" clip-rule="evenodd" d="M3.25 17C3.25 16.5858 3.58579 16.25 4 16.25H20C20.4142 16.25 20.75 16.5858 20.75 17V19C20.75 19.4142 20.4142 19.75 20 19.75H4C3.58579 19.75 3.25 19.4142 3.25 19V17ZM4.75 17.75V18.25H19.25V17.75H4.75Z" fill="#333333" class='xian'/>
</svg>
