<svg width="24" height="24" viewBox="0 0 24 24" fill="none" xmlns="http://www.w3.org/2000/svg">
<path fill-rule="evenodd" clip-rule="evenodd" d="M8.37745 16.1116C8.19145 16.3002 7.91458 16.4722 7.55554 16.4722C7.14133 16.4722 6.80554 16.1364 6.80554 15.7222C6.80554 15.3802 7.03451 15.0916 7.34753 15.0014C7.36395 14.9732 7.38322 14.9361 7.4047 14.8885C7.51948 14.6342 7.63443 14.2251 7.74958 13.6622C7.89955 12.929 8.02929 12.0482 8.17047 11.0897C8.2461 10.5763 8.32501 10.0405 8.41208 9.49327C8.65501 7.96625 8.95969 6.36722 9.43407 5.13942C9.67102 4.52615 9.97044 3.95049 10.3681 3.51773C10.779 3.07045 11.323 2.75 12 2.75C13.2598 2.75 14.0139 3.62434 14.4645 4.5648C14.9122 5.49896 15.1692 6.7029 15.376 7.80623C15.421 8.04587 15.4635 8.28055 15.505 8.50895C15.663 9.38015 15.8045 10.1601 15.9971 10.7763C16.118 11.1633 16.2377 11.4095 16.3445 11.5469C16.3937 11.6102 16.4258 11.6315 16.435 11.6367C16.4367 11.6377 16.4374 11.6382 16.4381 11.6385C16.4392 11.6389 16.4404 11.6389 16.4444 11.6389C16.7885 11.6389 17.1766 11.4621 17.7757 11.1625C17.7964 11.1521 17.8176 11.1415 17.839 11.1308C18.3464 10.8764 19.0418 10.5278 19.7778 10.5278C20.3626 10.5278 20.73 10.9609 20.9185 11.2461C21.133 11.5706 21.3073 11.9906 21.4533 12.4302C21.7489 13.3198 21.9885 14.4769 22.1766 15.5981C22.3661 16.7272 22.5085 17.8527 22.6036 18.6936C22.6511 19.1147 22.687 19.4658 22.7109 19.7121C22.7229 19.8353 22.7319 19.9323 22.738 19.9988L22.7449 20.0753L22.7466 20.0953L22.7472 20.1021C22.7472 20.1022 22.7473 20.1027 22 20.1667L22.7472 20.1021C22.7825 20.5148 22.4766 20.8786 22.0639 20.9139C21.6512 20.9493 21.288 20.6433 21.2527 20.2306L21.2507 20.2071L21.2442 20.1348C21.2384 20.0712 21.2296 19.9772 21.218 19.8574C21.1946 19.6176 21.1596 19.2742 21.113 18.862C21.0197 18.0362 20.8807 16.9395 20.6973 15.8463C20.5126 14.7453 20.288 13.6802 20.0298 12.9031C19.899 12.5094 19.7741 12.235 19.6672 12.0733C19.658 12.0594 19.6496 12.0472 19.6419 12.0365C19.3299 12.0755 18.9682 12.2433 18.4465 12.5042C18.4257 12.5145 18.4046 12.5251 18.3832 12.5359C17.8758 12.7903 17.1804 13.1389 16.4444 13.1389C15.8715 13.1389 15.4466 12.8362 15.1599 12.467C14.889 12.1183 14.7049 11.67 14.5654 11.2237C14.3422 10.5096 14.1786 9.60546 14.0191 8.72351C13.98 8.50752 13.9411 8.29287 13.9017 8.08266C13.6919 6.96377 13.4628 5.94548 13.1118 5.21298C12.7638 4.48677 12.4068 4.25 12 4.25C11.8437 4.25 11.6758 4.31149 11.4726 4.53262C11.2561 4.76826 11.039 5.14746 10.8333 5.68002C10.4222 6.74389 10.1366 8.20042 9.89345 9.72895C9.81362 10.2307 9.73803 10.7433 9.66374 11.247C9.51791 12.2358 9.3771 13.1906 9.21915 13.9628C9.09991 14.5457 8.95879 15.0915 8.77192 15.5056C8.67886 15.7118 8.55388 15.9328 8.37745 16.1116ZM19.5856 11.9705C19.5856 11.9701 19.5888 11.9724 19.595 11.9787C19.5887 11.9741 19.5855 11.971 19.5856 11.9705Z" fill="#333333" class='xian'/>
<path d="M2.74932 20.199C2.73146 20.6128 2.38157 20.9338 1.96777 20.916C1.55394 20.8982 1.2329 20.5483 1.25071 20.1344C1.27075 19.7188 1.29979 19.3037 1.3344 18.889C1.39622 18.1485 1.49906 17.155 1.66324 16.1562C1.82569 15.1679 2.05515 14.1295 2.38406 13.3214C2.54753 12.9199 2.75429 12.5274 3.02525 12.2237C3.30106 11.9147 3.70055 11.6389 4.22224 11.6389C4.95883 11.6389 5.49269 11.9811 5.87181 12.4186C6.22208 12.8229 6.46366 13.3364 6.6513 13.7383C6.8606 14.1866 7.00992 14.5107 7.18896 14.7408C7.34188 14.9374 7.44333 14.9722 7.55557 14.9722C7.96978 14.9722 8.30557 15.308 8.30557 15.7222C8.30557 16.1365 7.96978 16.4722 7.55557 16.4722C6.83447 16.4722 6.33853 16.0905 6.00513 15.662C5.69784 15.2671 5.4719 14.7579 5.29214 14.3729C5.09072 13.9414 4.92943 13.6216 4.73816 13.4009C4.60175 13.2434 4.32233 13.0231 4.1444 13.2225C4.03578 13.3442 3.90672 13.5594 3.77337 13.887C3.50867 14.5372 3.30054 15.4433 3.14338 16.3995C2.98794 17.3451 2.88913 18.296 2.8292 19.0138C2.79932 19.3718 2.77927 19.6698 2.76672 19.8777C2.76045 19.9816 2.75606 20.0628 2.75325 20.1176L2.75021 20.1796L2.74951 20.1947L2.74932 20.199Z" fill="#333333" class='xian'/>
</svg>
